<?xml version="1.0" encoding="iso-8859-1"?>
<!-- Generator: Adobe Illustrator 18.0.0, SVG Export Plug-In . SVG Version: 6.00 Build 0)  -->
<!DOCTYPE svg PUBLIC "-//W3C//DTD SVG 1.1//EN" "http://www.w3.org/Graphics/SVG/1.1/DTD/svg11.dtd">
<svg version="1.1" id="Capa_1" xmlns="http://www.w3.org/2000/svg" xmlns:xlink="http://www.w3.org/1999/xlink" x="0px" y="0px"
	 viewBox="0 0 512 512" style="enable-background:new 0 0 512 512;" xml:space="preserve">
<path d="M256,0C114.613,0,0,114.617,0,256c0,141.391,114.613,256,256,256s256-114.609,256-256C512,114.617,397.387,0,256,0z
	 M256,128c17.674,0,32,14.328,32,32c0,17.68-14.326,32-32,32s-32-14.32-32-32C224,142.328,238.326,128,256,128z M304,384h-96
	c-8.836,0-16-7.156-16-16c0-8.836,7.164-16,16-16h16v-96h-16c-8.836,0-16-7.156-16-16c0-8.836,7.164-16,16-16h64
	c8.836,0,16,7.164,16,16v112h16c8.836,0,16,7.164,16,16C320,376.844,312.836,384,304,384z"/>
<g>
</g>
<g>
</g>
<g>
</g>
<g>
</g>
<g>
</g>
<g>
</g>
<g>
</g>
<g>
</g>
<g>
</g>
<g>
</g>
<g>
</g>
<g>
</g>
<g>
</g>
<g>
</g>
<g>
</g>
</svg>
