<svg width="253" height="461" xmlns="http://www.w3.org/2000/svg"><g fill="none" fill-rule="evenodd"><rect fill="#FFF" width="253" height="461" rx="5"/><ellipse fill-opacity=".08" fill="#4C2600" cx="125.5" cy="139" rx="31.5" ry="3"/><g transform="translate(76 94)"><path d="M3.3 13.9c2-.32 5.64-.32 8.62.34 2.98.66 20.2 9.27 33.1 8.6 12.93-.65 22.86-4.96 26.5-6.6 3.65-1.67 11.26-4.98 12.92-4.98 1.65 0 9.93-6.62 9.27-9.94-.65-3.3 6.63 1.66 5.97 4.64C99 8.94 99 9.93 98 10.26c-.98.34-6.6 5.3-6.6 8.28 0 2.98-.34 9.27-2 10.93-1.65 1.66-14.23 17.55-40.4 16.56-26.15-1-40.72-7.95-48.67-25.17-.6-1.33 1-6.62 2.98-6.95z" fill="#FFCA16"/><path d="M83.42 11.44c.44-.12.78-.18 1.02-.18 1.65 0 9.93-6.62 9.27-9.94-.65-3.3 6.63 1.66 5.97 4.64C99 8.94 99 9.93 98 10.26c-.7.24-3.8 2.87-5.5 5.43-2.3-2-5.68-3.43-9.08-4.26z" fill="#80D00B" opacity=".4"/><path d="M98.48 10c-.13.12-.28.2-.47.26-.15.06-.44.24-.8.52.38-1.12.63-1.8.8-1.84.14-.03.3.35.48 1.06zm-7.3 13.1c-.25 2.64-.77 5.36-1.78 6.37-1.65 1.66-14.23 17.55-40.4 16.56-26.15-1-40.72-7.95-48.67-25.17C0 20.16.3 18.3.97 16.7 4.67 24.95 15.2 42 51 41.72c22.6-.18 34.14-9.84 40.18-18.63z" fill="#FCB50F" opacity=".7"/><path d="M27.15 27.15c7.62 1.66 20.2 5.57 36.76.33s-1.24 6.63-16.14 6.63-28.22-8.6-20.6-6.95z" fill="#FDDD49" opacity=".6"/><ellipse fill="#46141A" opacity=".5" transform="rotate(-13 68.212 37.086)" cx="68.21" cy="37.09" rx="2.65" ry=".66"/><ellipse fill="#46141A" opacity=".5" transform="rotate(15 14.57 18.543)" cx="14.57" cy="18.54" rx="1.99" ry=".66"/><path d="M5.44 13.7c-.8.04-1.54.1-2.13.2-1.98.34-3.58 5.63-2.97 6.96l.42.9 4.7-8.05z" fill="#7A5900"/></g><path d="M225 33.66l5.83-5.83c1.56-1.56 1.56-4.1 0-5.66-1.56-1.56-4.1-1.56-5.66.03h-.34c-1.56-1.6-4.1-1.6-5.66-.03-1.56 1.56-1.56 4.1 0 5.66l5.83 5.83z" fill="#EB1A52"/><path d="M82.48 24.4c1.23 1.23 2.24 3.26 1.66 4.46-1.54 3.22-13.05 8.87-14.03 7.9-.97-.98 4.7-12.5 7.9-14.04 1.2-.58 3.24.43 4.48 1.66z" fill="#FF8200"/><path d="M88.57 23.03c-.2-.74-.7-1.5-1.47-1.58-1.4-.16-3.6 2.3-3.44 2.9.15.58 3.27 1.62 4.43.78.6-.43.67-1.36.48-2.1zm-4.32-6.85c1.04.28 2.08 1 2.2 2.07.24 1.96-3.23 5.05-4.05 4.83-.82-.22-2.27-4.6-1.1-6.22.6-.84 1.9-.96 2.95-.68zM115.2 27.78l-1.02-.15c-.98-.15-1.54-.46-1.54-1.04 0-.68.74-1.1 1.83-1.1.77 0 1.4.3 2 .6l.12.07c.13.07.28.1.43.1.36 0 .7-.2.86-.5l.08-.15c.13-.24.16-.52.08-.8-.08-.25-.26-.46-.5-.6-.9-.42-1.84-.82-3.1-.82-2.6 0-4.3 1.27-4.3 3.3 0 1.67 1.2 2.72 3.47 3.03l1.04.14c1.1.15 1.63.48 1.63 1 0 .47-.25 1.1-1.95 1.1-.94 0-1.9-.24-2.66-.73-.17-.1-.35-.15-.53-.15-.34 0-.66.17-.84.46l-.06.1c-.14.23-.18.5-.1.78.05.26.22.48.46.6 1.34.77 2.9 1.04 3.72 1.04 2.73 0 4.42-1.2 4.42-3.3 0-1.7-1.2-2.66-3.56-3zm31.77 3.68c-.2-.22-.48-.34-.78-.34-.2 0-.4.05-.57.16-.56.35-1.17.54-1.76.54-1.64 0-2.83-1.3-2.83-3.08 0-1.8 1.2-3.08 2.83-3.08.63 0 1.2.17 1.72.52.4.27 1 .2 1.33-.16l.08-.1c.24-.24.35-.57.32-.9-.04-.34-.22-.63-.5-.8-.8-.55-1.8-.83-2.9-.83-3.14 0-5.34 2.2-5.34 5.34 0 3.15 2.2 5.35 5.35 5.35 1.1 0 2.1-.3 2.9-.85.28-.18.46-.47.5-.8.04-.32-.06-.65-.28-.9l-.08-.1zM96 19.76c-.82 0-1.46.66-1.46 1.5 0 .83.63 1.45 1.46 1.45s1.48-.63 1.48-1.45c0-.83-.65-1.48-1.48-1.48zm.44 3.72h-.86c-.42 0-.76.34-.76.76v8.82c0 .43.34.77.76.77h.86c.43 0 .77-.34.77-.77v-8.82c0-.42-.33-.76-.76-.76zm28.3 8.3c-.95 0-2.08-.77-2.08-2.1v-3.97h2.1c.42 0 .77-.34.77-.76v-.7c0-.42-.35-.76-.77-.76h-2.1v-2.3c0-.42-.34-.76-.76-.76h-.9c-.44 0-.78.34-.78.76v8.36c0 2.4 1.83 4.54 4.36 4.54.25 0 .5-.1.67-.28.18-.18.28-.42.28-.67v-.6c0-.4-.35-.75-.78-.75zm-20.88-8.4c-3.06 0-4.77 2.46-4.77 4.55v5.13c0 .43.33.77.75.77h.88c.42 0 .76-.34.76-.77v-4.74c0-1.6.95-2.64 2.36-2.64 1.4 0 2.36 1.05 2.36 2.64v4.74c0 .43.35.77.77.77h.86c.42 0 .77-.34.77-.77v-5.13c0-2.1-1.7-4.54-4.77-4.54zm62.97.12c-.34-.08-1.17-.1-1.6-.1h-.1c-2.38 0-4.57 1.92-4.57 4.6v5.06c0 .43.34.77.76.77h.87c.42 0 .76-.34.76-.77v-4.98c0-1.45 1.04-2.4 2.3-2.4.24 0 .5.03.73.08l.2.02c.47 0 .9-.34 1-.8l.16-.63c.04-.18 0-.38-.1-.54-.1-.15-.25-.26-.43-.3zm6.4 2.2c.42 0 .76-.34.76-.76v-.7c0-.42-.35-.76-.78-.76h-2.1v-2.3c0-.42-.34-.76-.76-.76h-.9c-.43 0-.78.34-.78.76v8.36c0 2.4 1.83 4.54 4.36 4.54.25 0 .5-.1.67-.28.2-.18.3-.42.3-.67v-.6c0-.4-.36-.75-.78-.75-.97 0-2.1-.77-2.1-2.1v-3.97h2.1zm-16.65-1.5c-.8-.53-1.8-.8-2.9-.8h-.06-.05c-1.1 0-2.1.27-2.9.8-1.45.93-2.34 2.54-2.34 4.54 0 2.1.97 3.77 2.55 4.65.74.43 1.6.7 2.55.7 1.72 0 2.76-1 3.08-1.4v.36c0 .42.36.76.78.76h.87c.42 0 .77-.34.77-.76v-4.32c0-2-.9-3.6-2.34-4.53zm-2 7.46c-.27.1-.56.15-.84.16h-.12-.11c-.27 0-.56-.07-.84-.16-1.12-.4-1.87-1.5-1.87-2.92 0-1.67 1.03-2.9 2.5-3.07H153.95c1.48.16 2.52 1.4 2.52 3.07 0 1.42-.75 2.52-1.87 2.92zm-19.77-7.45c-.8-.53-1.8-.8-2.9-.8h-.1c-1.1 0-2.1.27-2.9.8-1.45.93-2.34 2.54-2.34 4.54 0 2.1.97 3.77 2.55 4.65.75.43 1.62.7 2.56.7 1.72 0 2.76-1 3.08-1.4v.36c0 .42.35.76.77.76h.88c.42 0 .77-.34.77-.76v-4.32c0-2-.9-3.6-2.34-4.53zm-2 7.46c-.26.1-.55.15-.83.16h-.06-.05-.11c-.28 0-.57-.07-.85-.16-1.14-.4-1.88-1.5-1.88-2.92 0-1.67 1.04-2.9 2.52-3.07H132.16c1.48.16 2.52 1.4 2.52 3.07 0 1.42-.76 2.52-1.9 2.92z" fill="#43B02A"/><path fill="#F5F6F8" d="M2 255h249v40H2zM2 419h249v40H2z"/><rect stroke-opacity=".15" stroke="#ADBACC" stroke-width="2" x="1" y="1" width="251" height="459" rx="4"/><rect fill="#E3E7ED" x="69" y="190" width="115" height="5" rx="1"/><rect fill="#F5F6F8" x="89" y="202" width="75" height="5" rx="1"/><rect fill="#E3E7ED" x="42" y="380" width="43" height="3" rx="1"/><rect fill="#F5F6F8" x="53" y="386" width="21" height="3" rx="1"/><rect fill="#E3E7ED" x="168" y="380" width="42" height="3" rx="1"/><rect fill="#F5F6F8" x="179" y="386" width="20" height="3" rx="1"/><path fill="#F5F6F8" d="M125 295h2v124h-2z"/><rect fill="#42B129" x="130" y="426" width="116" height="28" rx="3"/><rect fill="#FFF" x="7" y="426" width="115" height="28" rx="3"/><path d="M109 439v-4h-2v4h-4v2h4v4h2v-4h4v-2h-4z" fill="#07B0B7"/><path fill="#08B0B6" d="M16 439h10v2H16z"/><path fill="#F5F6F8" d="M35 431h2v18h-2zM92 431h2v18h-2z"/><rect fill-opacity=".08" fill="#085900" x="168" y="437" width="40" height="6" rx="2"/><rect fill-opacity=".75" fill="#C6F5B6" x="169" y="438" width="38" height="3" rx="1"/><path d="M64 368c7.18 0 13-1.9 13-3s-5.82-2-13-2-13 .9-13 2 5.82 3 13 3z" fill-opacity=".07" fill="#660500"/><path d="M63.92 365.8c10.6.32 19.15-7.62 19.92-17.42.6-7.32-2.17-13.23-13.46-15.5-1.87-1.16-3.73-2.1-6.46-2.32-3.9-.34-7.8.35-10.9 2.1-5.56 3.14-9.02 9.18-9.02 15.48 0 9.8 9.34 17.36 19.92 17.67z" fill="#F94022"/><path d="M83.7 343.9c.24 1.42.27 2.92.14 4.48-.77 9.8-9.33 17.74-19.92 17.43-10.58-.3-19.92-7.86-19.92-17.66 0-.98.08-1.96.25-2.92 1.55 8.43 10.1 14.64 19.67 14.92 10.15.3 18.44-7 19.8-16.23z" fill="#C7311B" opacity=".3"/><path d="M53.18 331.33c.4 1.72 2.32 5.3 7.16 5.3-1.16-2.34-2.02-5.53-1.55-7.55.45 1.24.84 2.4 1.54 3.2.7.77 2.5 2.87 2.5 3.26 0 .4.77-3.43 2.17-4.83.8-.22 2.8.95 2.5 1.5-.3.54-1.32 3.1-.85 3.34.47.23 5.13-1.8 6.38-2.26 1.24-.47-3.82 2.65-3.04 3.35.77.7 4.66-.63 6.06-.63 1.4 0 4.17.16.9 1.02-3.26.85-6.35 2.02-7.43 1.7-1.1-.3-1.36.98.73 1.83 2.1.85-2.5.32-4.76-.77-2.26-1.1-4.5 1.06-5.95 1.06-1.45 0 1.9-1.8 1.45-2.1-.47-.32-8.63-1.72-7.82-7.4z" fill="#7FA030"/><path d="M65.1 330.7c.85-.13 2.7.97 2.4 1.5-.3.5-1.2 3.2-.93 3.72.02.38.12.77.3 1.17.8 1.63-4.27 2.33-4.27.62 0-1.72 1-5.45 2.4-6.93l.1-.1z" fill-opacity=".5" fill="#325C1C"/><path d="M51.83 340.02c4.35 3.36 14.85 6.3 22.73 2.82 7.9-3.5-1.93 5.68-9.96 4.9-8.04-.76-17.1-11.08-12.77-7.72z" fill="#FFA080" opacity=".25"/><path d="M189.5 369c6.9 0 12.5-1.9 12.5-3s-5.6-2-12.5-2-12.5.9-12.5 2 5.6 3 12.5 3z" fill-opacity=".08" fill="#7F4800"/><ellipse fill="#FFA200" cx="189.58" cy="348.44" rx="18.64" ry="18.56"/><path d="M175.42 336.37c-2.8 3.24-4.48 7.46-4.48 12.07 0 .9.07 1.8.2 2.7.26-.06.48-.24.62-.6.87-2.2 6.5-8.1 9.22-8.86 2.7-.74 4.9-5.28 4.9-6.16 0-.5-5.7.18-10.46.85z" fill="#592600" opacity=".15"/><path d="M208.07 346.17c.1.74.14 1.5.14 2.27 0 10.25-8.33 18.56-18.62 18.56-10.3 0-18.64-8.3-18.64-18.56 0-.77.05-1.53.14-2.27 1.12 9.18 8.98 16.28 18.5 16.28s17.37-7.1 18.5-16.28z" fill="#FF7000" opacity=".35"/><path fill="#592600" opacity=".7" d="M188.17 337.14l.63-.16-.17-1.1 1.22.28 1.4-.78.95 1.28 1.42.22-1.63.87.03.76-.94-.3-.56.74-.78-.7h-1"/><path d="M181 346.48c.48-3.6 4.6-7.56 7.27-8.1 2.7-.57-4.3-1.18-4.98-1.18-.7 0 1.86-.66 4.73-.1 2.88.57 1.67-.94 1.25-1.4-.42-.47-.25-2.2-3.85-.17-3.6 2.03-.6-.96-.6-.96l3.8-1.72s2.22 3.54 2.22 3.9c0 .35 2.13-2.96 4.32-3.65 2.2-.7-3.1 1.82-3.1 4 1.06.35 2.56-.36 5.28.56h-5.87s5.87 1.72 6.7 5.73c-3.95-4.35-7.64-5.86-7.33-5.13.3.73 1.45 8.7.63 12.1-.88-3.05-.26-12.8-1.85-12.1-1.6.7-5.38 3-8.64 8.2z" fill="#592600" opacity=".1"/><path d="M167.1 347.08c0-3.3 5.1-18.13 19.47-13.92 1.2-.65 2.98-.85 3.44-1.12.48-.28.95-2.55.8-3.95-.16-1.4 2.43-1.24 1.8-.16-.62 1.1-1.7 7.7-1.05 9.26-1 .94-2.04.2-1.87-.73.16-.92.6-3.2.6-3.65 0-.45-3.14.78-3.33 1.12-.18.34-2.18 4.8-5.74 6.16-3.55 1.36-5.05 2.35-6.93 3.94-1.9 1.58-5.8 1.4-7.17 3.04z" fill="#31B313"/><path d="M168.04 345.03c1.03-3.56 6.07-13.4 16.68-11.94-6.05 1.82-11.87 5.72-16.68 11.93z" fill="#AFF397" opacity=".35"/><path d="M201.15 342.8c-.9 3.04 1.4 7.1.22 7.97-1.2.85 3.86-1.6 3.86-5.15 0-3.56-3.18-5.85-4.08-2.82z" fill="#FFE949" opacity=".25"/></g></svg>