<svg width="211" height="375" viewBox="0 0 211 375" xmlns="http://www.w3.org/2000/svg"><g transform="translate(0 1)" fill="none" fill-rule="evenodd"><rect stroke="#EFF1F5" stroke-width="2" fill="#FFF" x="1" width="209" height="373" rx="5"/><path fill="#F7F8FA" d="M2 35h207v303H2z"/><g fill="#1E252B"><path d="M98.34 18.7c-.1.3-.3.57-.52.78-.22.2-.5.34-.78.43-.33.1-.66.14-1 .14h-.64v2.76h-1.8v-7.6h2.57c.32 0 .63.04.94.12.28.08.53.22.75.4.22.2.38.45.5.72.12.36.18.74.17 1.12 0 .4-.05.78-.18 1.15zm-1.8-1.8c-.13-.16-.33-.23-.53-.2h-.6v1.88h.57c.22.02.42-.06.57-.22.14-.22.2-.47.18-.73.03-.26-.03-.52-.17-.74zm8.6 3.83c-.1.44-.27.86-.53 1.23-.2.3-.5.55-.85.7-.36.17-.75.25-1.14.25-.77.05-1.52-.3-1.98-.94-.48-.63-.72-1.62-.72-2.96 0-1.34.24-2.33.72-2.97.46-.63 1.2-1 2-.96.78-.03 1.53.33 2 .96.47.64.7 1.62.7 2.95.02.6-.04 1.18-.17 1.75zm-1.72-2.85c-.03-.25-.1-.5-.17-.72-.05-.15-.14-.28-.27-.38-.1-.08-.23-.12-.36-.12-.13 0-.26.04-.37.1-.12.1-.2.24-.26.4-.1.22-.15.46-.17.7-.04.38-.05.77-.05 1.15 0 .4.02.77.06 1.15.02.25.08.5.16.72.05.15.14.28.26.38.1.08.23.12.36.12.13 0 .25-.04.36-.1.12-.1.22-.24.26-.4.08-.22.14-.46.16-.7.04-.38.06-.77.06-1.15 0-.4 0-.77-.04-1.16v.02zm8.02 3.75c-.12.28-.3.52-.52.72-.23.18-.5.32-.77.4-.32.12-.65.17-.98.17-.27 0-.54-.03-.8-.1-.23-.04-.45-.13-.66-.25-.2-.12-.38-.26-.54-.42-.18-.17-.34-.36-.5-.55l1.25-1.12c.2.25.44.48.7.7.17.13.38.2.6.22.16 0 .33-.05.46-.15.13-.1.2-.28.18-.46 0-.1 0-.2-.03-.3-.02-.1-.06-.18-.13-.25-.08-.1-.18-.2-.3-.25-.15-.1-.32-.2-.5-.27-.33-.14-.65-.3-.96-.5-.23-.14-.44-.3-.63-.52-.16-.17-.28-.38-.35-.6-.08-.27-.12-.53-.1-.8 0-.3.04-.6.15-.87.1-.27.26-.5.47-.7.2-.2.47-.37.74-.47.32-.12.65-.18 1-.17.24-.02.5 0 .76.06.22.05.42.13.62.24.18.1.36.23.52.37.17.16.33.33.47.5l-1.26 1.14-.34-.38-.27-.25-.28-.14c-.1-.03-.2-.04-.3-.04-.16-.02-.3.04-.4.16-.1.1-.15.24-.15.37 0 .1.02.2.05.28.03.1.08.17.15.24.08.1.18.16.3.22.14.1.3.17.47.24.33.14.66.3.97.5.25.16.47.34.65.56.16.2.28.43.36.67.1.27.13.56.12.84 0 .33-.06.66-.18.96zm4.8-4.85v6.02h-1.8v-6.02h-1.55V15.2h4.88v1.58h-1.54zm7.6 6.02V19.95c0-.36 0-.72.02-1.04l-.14.52-.18.58-.2.6-.2.54-.7 1.9-.7-1.9-.2-.54-.2-.6-.18-.58-.15-.5c.03.32.04.66.05 1.03V22.8h-1.64v-7.6h1.66l.67 1.87c.17.45.3.9.45 1.3.1.34.2.68.27 1.03.05-.27.15-.6.28-1.02l.44-1.33.66-1.85h1.63v7.6h-1.63zm7.1 0l-.3-1.43h-1.48l-.27 1.43h-1.87l1.96-7.6h1.85l1.95 7.6h-1.86zm-.63-3.14l-.23-1.37c-.08-.42-.14-.8-.17-1.15l-.16 1.14-.24 1.37-.05.24h.9l-.04-.24zm6.4-2.88v6.02h-1.8v-6.02h-1.55V15.2h4.9v1.58h-1.55zm3.17 6.02v-7.6h4.44v1.55h-2.63v1.3h1.72v1.55h-1.73v1.65h2.72v1.55h-4.53zm10.7-1.17c-.1.28-.28.52-.5.72-.23.18-.5.32-.78.4-.33.12-.66.17-1 .17-.26 0-.53-.03-.8-.1-.22-.04-.44-.13-.65-.25-.2-.12-.38-.26-.54-.42-.17-.17-.33-.36-.48-.55l1.23-1.12c.2.25.44.48.7.7.17.13.38.2.6.22.16 0 .33-.05.46-.15.14-.1.2-.28.2-.46 0-.1 0-.2-.04-.3-.02-.1-.07-.18-.13-.25-.1-.1-.18-.2-.3-.25-.16-.1-.33-.2-.5-.27-.34-.14-.66-.3-.97-.5-.24-.14-.45-.3-.64-.52-.16-.17-.28-.38-.35-.6-.08-.27-.12-.53-.1-.8-.02-.3.04-.6.15-.87.1-.27.26-.5.47-.7.2-.2.45-.37.73-.47.3-.12.64-.18.98-.17.27-.02.53 0 .78.06.22.05.43.13.62.24.18.1.36.23.5.38.18.16.34.33.5.5l-1.26 1.13-.34-.38c-.08-.1-.17-.18-.27-.25-.08-.06-.17-.1-.26-.14-.1-.03-.2-.04-.3-.04-.17-.02-.3.04-.4.16-.1.1-.16.24-.15.37 0 .1 0 .2.04.28.03.1.08.17.15.24.1.1.2.16.3.22.16.1.32.17.48.24.34.14.66.3.97.5.24.16.46.34.64.56.15.2.28.43.35.67.08.27.12.56.1.84.02.33-.04.66-.17.96zM84.48 15.58c-.92-1.3-2.5-1.94-4.07-1.62-.8.16-1.56.58-2.13 1.2l-1.18-.93c.33-.13 1.4-.56.95-.8-.2-.07-.44-.1-.67-.12l.83-.72.2-.16 1.55-1.38-.72-1.43-2.4 2.18-.22.2c-.4 0-.82 0-1.24.06-.4.1-.8.14-1.2.12-.78-.15-.97-1-1.33-1.5-.2-.27-.6-.3-.64-.54.1-.02.2-.05.3-.1.3-.12.56-.35.7-.66.14-.33 0-.88-.24-1.34.18-.13.84-.66.82-.75-.4.02-.8.07-1.2.15-.03-.05-.08-.1-.13-.14-.28-.2-.52-.43-1.2-.14-1.13.48-1.07 1.4-.7 2.2.17.34.47.6.82.7l-.05.1.03-.07c-1.8 1.66-6.02 4.44-7.13 4.5.92.36 3.57.4 4.67-.26-.32 1.3-.34 2.56.2 3.2-.36.25-.7.54-1.04.84-.16.16-.1.24.03.42 0 0 1.06.02 1.38-.3.1-.07.16-.15.23-.22l1.5 1.06-.15 1.52c-1.5 0-2.88.87-3.56 2.24-.7 1.36-.56 3 .32 4.24.93 1.3 2.52 1.93 4.07 1.62.55-.1 1.1-.35 1.55-.7 1.65-1.2 2.16-3.46 1.18-5.27l.3-.2c.3.18.68.16.96-.05.28-.2.4-.57.34-.92l1.3-.4c.48-.13.56-.3.44-.52-.16-.34-1.4-.04-1.56-.23l-.34-.8.68-5.02 1.14.87c-1.16 1.7-.87 4.03.67 5.4 1.54 1.36 3.85 1.34 5.36-.06 1.52-1.4 1.76-3.7.56-5.4l-.02-.02zm-10.5-2.63c.57.04 1.16 0 1.74-.08l.2.44c-.43.03-.87.08-1.26.15-.3.05-1.12-.77-.7-.5zm-3.9 4.95c.12 0 .25 0 .37-.03 1.1-.1 1.84-.23 2.34-.3l-1.37 1.3-1.36-.97zm3.5-.3c-.3 1.03-.58 1.75-.78 2.26l-.88-.64 1.66-1.62zm-2.03 4.1c.83.1 1.57.55 2.08 1.2l-2.34 1.53.25-2.74zm1.42 5.86c-.37.27-.8.46-1.24.55-1.48.3-2.97-.48-3.57-1.9-.6-1.4-.16-3.03 1.06-3.93.5-.37 1.13-.6 1.76-.6l-.3 3.3c0 .1.04.2.13.27.07.04.15.05.22.03.03 0 .07-.02.1-.04l2.82-1.84c.75 1.43.33 3.2-.97 4.16zm1.35-5.1c-.66-.87-1.62-1.44-2.7-1.58l.12-1.17.9.66c-.1.37-.05.57.25.7l1.6.6c-.08.22-.07.45.02.66l-.2.14zm1-1.42c-.13 0-.26.04-.38.1-.1-.1-.23-.2-.37-.3-.15-.08-.8-.48-.78-.57.17-.46.38-.9.62-1.35.38.5.7 1.05.98 1.63l-.07.5zm.3-2.24l-.72-1.7c.03-.24 0-.5-.05-.72l1.27-1.22-.5 3.64zm-1.1-2.9c-.8-.55-2.37-.28-3.4-.1.35-.75.97-1.53 1.18-2.43.1.57 1.97 1.22 1.97 1.22.53-.14 1.06-.3 1.57-.5l.03.03.28.2-1.64 1.58zm8.57 4.7c-.38.28-.8.47-1.26.56-1.27.26-2.57-.3-3.3-1.4-.72-1.08-.7-2.5 0-3.6l2.6 1.94c.12.1.27.06.35-.05.08-.1.05-.26-.05-.35l-2.54-2c.46-.48 1.03-.8 1.67-.93 1.48-.3 2.97.5 3.57 1.9.6 1.4.16 3.04-1.07 3.94h.02zm-19.57-2.04l-.78-1.42-.2 1.62-1.57.32 1.46.7-.2 1.6 1.1-1.2 1.46.7-.77-1.43 1.1-1.2-1.6.3zm-.7 6.88l-.8-1.43-.17 1.63-1.58.32 1.46.68-.2 1.62 1.1-1.2 1.46.68-.78-1.43 1.08-1.2-1.58.34zm-5.28-2.47l-.78-1.43-.2 1.62-1.57.33 1.46.67-.18 1.62 1.1-1.2 1.45.67-.78-1.42 1.1-1.2-1.6.32zM75.2 11.64c.22 0 .73-.03 1.3 0l2.42-2.2-1.05-.1-2.68 2.3z"/></g><rect fill="#EBEEF3" x="14" y="47" width="88" height="125" rx="3"/><rect fill="#FFF" x="15" y="48" width="86" height="122" rx="2"/><rect fill="#EBEEF3" x="109" y="47" width="88" height="125" rx="3"/><rect fill="#FFF" x="110" y="48" width="86" height="122" rx="2"/><rect fill="#EBEEF3" x="14" y="179" width="88" height="125" rx="3"/><rect fill="#EBEEF3" x="109" y="179" width="88" height="125" rx="3"/><rect fill="#FFF" x="15" y="180" width="86" height="122" rx="2"/><rect fill="#FFF" x="110" y="180" width="86" height="122" rx="2"/><rect fill="#EBEEF3" x="14" y="311" width="88" height="27" rx="3"/><rect fill="#EBEEF3" x="109" y="311" width="88" height="27" rx="3"/><rect fill="#F4FBFF" x="15" y="312" width="86" height="26" rx="2"/><rect fill="#FCFFF3" x="110" y="312" width="86" height="26" rx="2"/><path fill="#E78A2E" opacity=".07" d="M15 48h86v77H15z"/><path fill="#00AFAB" d="M0 338h211v36H0z"/><g transform="translate(41 72)"><path d="M3.18 27.06c.2-.28.67-.5 1.02-.5h25.6c.35 0 .8.22 1.02.5l.2.28c.22.28.1.5-.27.5H3.25c-.37 0-.5-.22-.28-.5l.2-.28z" fill="#EFF1F5"/><path d="M33.03 22v1.07c0 2.2-1.74 3.97-3.9 3.97H4.54c-2.14 0-3.88-1.78-3.88-3.97V22c4.86-1.65 10.36-2.57 16.2-2.57 5.82 0 11.32.92 16.18 2.56zM32.98 12.02c.03-.28.05-.56.05-.85C33.03 5 25.78 0 16.83 0 7.9 0 .66 5 .66 11.17c0 .3 0 .57.04.85 3.8 2.55 9.6 4.17 16.14 4.17 6.52 0 12.34-1.63 16.14-4.18z" fill="#FF9934"/><rect fill="#E8023A" x="1.3" y="11.66" width="31.73" height="1.94" rx=".97"/><rect fill="#7C4409" y="14.57" width="34" height="6.15" rx="3.08"/><rect fill="#884D0B" x="1.94" y="15.54" width="30.11" height="1.3" rx=".65"/><path d="M13.28 22.02h18.44c.37 0 .66-.3.66-.65 0-.36-.3-.65-.66-.65H1.62c-.36 0-.65.3-.65.65 0 .36.3.65.66.65H6l4.04 2.43 3.24-2.43z" fill="#FFEE49"/><path d="M1.3 13.92c0-.18.14-.32.32-.32H32.7c.18 0 .33.14.33.32v.33c0 .18-.15.32-.33.32H1.62c-.18 0-.32-.14-.32-.32v-.33zm14.57.65c0 1.6 1.23 2.92 2.75 2.92.54 0 1.05-.18 1.47-.47.77 1.05 2.14 1.75 3.7 1.75 2.4 0 4.37-1.67 4.37-3.72 0-.17 0-.33-.04-.5H15.87z" fill="#73D974"/><ellipse fill="#C86419" transform="rotate(-20 7.448 6.476)" cx="7.45" cy="6.48" rx="1.62" ry=".65"/><ellipse fill="#C86419" transform="rotate(-14 12.305 8.743)" cx="12.3" cy="8.74" rx="1.62" ry=".65"/><ellipse fill="#C86419" cx="17.16" cy="3.24" rx="1.62" ry=".65"/><ellipse fill="#C86419" transform="rotate(7 21.695 9.714)" cx="21.7" cy="9.71" rx="1.62" ry=".65"/><ellipse fill="#C86419" transform="rotate(23 25.705 3.82)" cx="25.71" cy="3.82" rx="1.62" ry=".65"/><ellipse fill="#C86419" transform="rotate(15 27.324 8.676)" cx="27.32" cy="8.68" rx="1.62" ry=".65"/><path d="M31.3 25.58c-.73.8-1.8 1.3-2.97 1.3h-23c-1.16 0-2.2-.5-2.95-1.3H31.3z" fill="#E98329"/></g><rect fill="#E3E7ED" x="36" y="143" width="44" height="3" rx="1"/><rect fill="#00AFAB" x="48" y="149" width="20" height="3" rx="1"/><path fill="#FCD305" opacity=".07" d="M15 180h86v77H15z"/><rect fill="#E3E7ED" x="36" y="275" width="44" height="3" rx="1"/><rect fill="#00AFAB" x="48" y="281" width="20" height="3" rx="1"/><path fill="#FF2814" opacity=".05" d="M110 48h86v77h-86z"/><rect fill="#E3E7ED" x="131" y="143" width="44" height="3" rx="1"/><rect fill="#00AFAB" x="143" y="149" width="20" height="3" rx="1"/><path fill="#FF9934" opacity=".05" d="M110 180h86v77h-86z"/><rect fill="#E3E7ED" x="131" y="275" width="44" height="3" rx="1"/><rect fill="#00AFAB" x="143" y="281" width="20" height="3" rx="1"/><g transform="translate(142 67)"><ellipse fill="#EFF1F5" cx="10.5" cy="34.52" rx="6.44" ry=".48"/><path fill="#C3CDDC" d="M8.23 8.65L7.47 2.8 3.2.06l-.93 1.65L5.6 3.87l.57 4.87"/><path d="M1.3 12.96h18.4L16.93 32c-.13.9-.97 1.64-1.9 1.64H5.96c-.93 0-1.78-.73-1.9-1.64L1.3 12.96z" fill="#FF4F3F"/><path d="M16.96 12.96h2.73L16.93 32c-.13.9-.97 1.64-1.9 1.64H5.96c-.93 0-1.78-.73-1.9-1.64l-.12-.73h9.18c.65 0 1.26-.53 1.36-1.18l2.46-17.14z" fill="#E11A12"/><path d="M1.06 10c-.25 0-.5.2-.56.46L.1 12.5c-.06.25.1.46.38.46h20.04c.27 0 .44-.2.4-.46l-.42-2.04c-.05-.25-.3-.46-.56-.46H18.7l-.55-1.56c-.08-.24-.36-.44-.62-.44H3.43c-.26 0-.53.2-.6.44L2.3 10H1.06z" fill="#FF715D"/><rect fill="#FFF" x="13" y="9.32" width="4.3" height="1.68" rx=".84"/></g><path d="M49.48 232.92c.08-.14.28-.26.44-.26h14.95c.17 0 .37.13.45.26l.46.82c.08.14.02.26-.15.26H49.16c-.16 0-.22-.12-.15-.26l.48-.82z" fill="#EFF1F5"/><path d="M46.68 203.64c.75.96 5.28 6.53 4.98 13.06" stroke="#FDD405" stroke-width="1.78"/><path d="M67.2 203.7c-1.65 2.68-4.67 5.06-7.3 18.5" stroke="#F6AC0F" stroke-width="1.78"/><path d="M49.7 216.63c0-3.42.07-5.64-2.8-9.28" stroke="#FFDE17" stroke-width="1.78"/><path d="M58.15 202.23c0 2.9-.98 19.82-1.36 20.7" stroke="#FFBF09" stroke-width="1.78"/><path d="M55.13 200.07c.38 1.56 1.74 13.14.76 19.08" stroke="#FDD405" stroke-width="1.78"/><path d="M60.57 203.27c.9 2.45 1.5 12.62 1.05 15.3" stroke="#FFDE17" stroke-width="1.78"/><path d="M63.2 202.45c.6 1.56 2.72 11.73.76 18.04" stroke="#FFBF09" stroke-width="1.78"/><path d="M70 207.5c-2.1 1.85-7.7 9.2-6.57 14.25" stroke="#FDD405" stroke-width="1.78"/><path d="M53.02 203.34c-.83 1.93-1.74 9.13-.15 15.07" stroke="#FFDE17" stroke-width="1.78"/><path d="M53.1 201.2c.98 2.36 1.88 13.5-.16 17.88" stroke="#FFBF09" stroke-width="1.78"/><path d="M55.43 212.47c1.14 1.78 3.63 5.64 1.82 9.58" stroke="#F3AE3D" stroke-width=".5"/><path d="M60.26 201.34c-.3 2.15-2.5 20.5-2.5 20.5" stroke="#FDD405" stroke-width="1.78"/><path d="M62.45 204.16c-.6 1.26-4.53 17-4.3 19.82M50.08 201.26c.98 1.12 3.47 14.1 3.47 18.78" stroke="#F6AC0F" stroke-width="1.78"/><path d="M50.38 203.04c-.53 1.64-1.9 8.62-1.9 13.8M46 206.83c1.2 1.7 2.57 6.83 4.75 10.4M67.13 207.5c-1.36 1.2-2.4 2.6-3.92 7.94" stroke="#FFBF09" stroke-width="1.78"/><path d="M55.56 204.75c.83 1.04.18 14.33-2.4 18.56" stroke="#F6AC0F" stroke-width="1.78"/><path d="M67.14 215.6l.4-3.87c.02-.25-.16-.4-.4-.37l-4.8.78S61.32 215 57.32 215c-4 0-5.02-2.86-5.02-2.86l-4.8-.78c-.24-.04-.42.12-.4.37l.4 3.86h19.64z" fill-opacity=".3" fill="#ED5900"/><path d="M46.8 212.17c-.03-.25.16-.4.4-.37l5 .82s1.05 2.97 5.2 2.97 5.2-2.98 5.2-2.98l5-.82c.24-.04.42.12.4.37l-2.13 20.5c-.06.5-.5.88-1 .88H49.92c-.5 0-.94-.4-1-.88l-2.12-20.5z" fill="#FF4230"/><path d="M51.66 212.53l.53.1s.05.16.2.4c-.28-.15-.53-.32-.74-.5zm14.35-.47l1.6-.26c.24-.04.42.12.4.37l-2.13 20.5c-.06.5-.5.88-1 .88H49.92c-.5 0-.94-.4-1-.88l-.1-.9h14.24c.5 0 .94-.4 1-.88L66 212.05z" fill="#E11A12"/><path d="M62.75 216.05c-.07 1.56-2.44 2.8-5.35 2.8-2.92 0-5.3-1.24-5.36-2.8 1.34.92 3.24 1.5 5.36 1.5 2.1 0 4.02-.58 5.35-1.5z" fill="#FF6B59"/><g transform="translate(134 212)"><path fill="#EFF1F5" d="M4.82 13.4H33.2V15H4.8z"/><rect stroke="#E98329" stroke-width="1.07" fill="#FF9934" x="3.75" width="30.51" height="8.57" rx="4.28"/><rect fill="#C0472A" y="2.14" width="38" height="5.89" rx="2.94"/><rect stroke="#E98329" stroke-width="1.07" fill="#FF9934" x="3.75" y="5.36" width="30.51" height="8.57" rx="4.28"/><path d="M3.8 8.97c-.04.22-.05.44-.05.67 0 2.36 1.9 4.3 4.27 4.3h21.96c2.37 0 4.27-1.93 4.27-4.3 0-.22 0-.45-.05-.67-.32 2.05-2.08 3.62-4.22 3.62H8.02C5.9 12.6 4.12 11 3.8 8.96z" fill="#E98329"/><path d="M4.98 4.56l.66-.6 1-.93c.38-.34.97-.34 1.34 0l1 .92c.38.34.97.34 1.34 0l1-.92c.38-.34.97-.34 1.34 0l1 .92c.38.34.97.34 1.34 0l1-.92c.37-.34.97-.34 1.34 0l1 .92c.37.34.96.35 1.33 0L20.7 3c.37-.33.96-.33 1.33 0l1 .94c.38.33.97.34 1.33 0l1-.92c.37-.33.96-.33 1.33 0l1 .93c.37.34.95.35 1.33 0l1-.93c.38-.34.97-.33 1.32 0l1.5 1.45" stroke="#FBC809" stroke-width="1.07" stroke-linecap="round"/><rect fill="#FFB159" x="19.27" y="6.96" width="12.31" height="1.61" rx=".8"/></g><path fill-opacity=".08" fill="#19243D" d="M0 336h211v2H0z"/><rect fill-opacity=".12" fill="#007872" x="82" y="352" width="47" height="8" rx="1"/><rect fill="#B2F7F6" x="83" y="353" width="45" height="5" rx="1"/><circle stroke-opacity=".2" stroke="#B2F7F6" stroke-width="2" fill-opacity=".2" fill="#B2F7F6" cx="19.5" cy="355.5" r="4.5"/><rect fill="#24BDB9" x="181" y="354" width="16" height="3" rx="1"/></g></svg>