<?xml version="1.0" encoding="iso-8859-1"?>
<!-- Generator: Adobe Illustrator 16.0.0, SVG Export Plug-In . SVG Version: 6.00 Build 0)  -->
<!DOCTYPE svg PUBLIC "-//W3C//DTD SVG 1.1//EN" "http://www.w3.org/Graphics/SVG/1.1/DTD/svg11.dtd">
<svg version="1.1" id="Capa_1" xmlns="http://www.w3.org/2000/svg" xmlns:xlink="http://www.w3.org/1999/xlink" x="0px" y="0px"
	 width="612px" height="612px" viewBox="0 0 612 612" style="enable-background:new 0 0 612 612;" xml:space="preserve">
<g>
	<g id="Check">
		<g>
			<path d="M306,0C137.012,0,0,137.012,0,306s137.012,306,306,306s306-137.012,306-306S474.988,0,306,0z M306,554.625
				C168.912,554.625,57.375,443.088,57.375,306S168.912,57.375,306,57.375S554.625,168.912,554.625,306S443.088,554.625,306,554.625
				z M431.46,210.604c-7.707-0.325-15.529,2.276-21.42,8.186L277.312,351.498l-75.353-75.333c-5.891-5.91-13.712-8.492-21.42-8.186
				c-6.942,0.287-13.847,2.869-19.144,8.186c-5.298,5.298-7.899,12.202-8.186,19.144c-0.325,7.708,2.276,15.53,8.186,21.42
				l95.625,95.625c5.604,5.604,12.948,8.396,20.292,8.396s14.688-2.792,20.292-8.396l153-153c5.909-5.91,8.491-13.712,8.186-21.42
				c-0.287-6.942-2.869-13.846-8.186-19.144C445.287,213.473,438.402,210.872,431.46,210.604z"/>
		</g>
	</g>
</g>
<g>
</g>
<g>
</g>
<g>
</g>
<g>
</g>
<g>
</g>
<g>
</g>
<g>
</g>
<g>
</g>
<g>
</g>
<g>
</g>
<g>
</g>
<g>
</g>
<g>
</g>
<g>
</g>
<g>
</g>
</svg>
