<svg xmlns="http://www.w3.org/2000/svg" viewBox="0 0 444 127"><path fill="#9BA9BB" fill-rule="evenodd" d="M201.3 35.22c3.9 1.7 4.2 2.98 1.14 8.8-3.13 5.97-3.91 6.33-7.75 4.76-4.83-2.05-11-3.62-14.99-3.62-6.53 0-10.87 2.35-10.87 5.9 0 11.72 37.44 5.4 37.44 30.4 0 12.58-10.8 20.96-27 20.96-8.52 0-19.03-2.84-26.28-6.53-3.62-1.85-3.84-2.92-.71-8.88 2.7-5.26 3.55-5.83 7.46-4.2 6.18 2.7 14 4.77 19.25 4.77 5.97 0 9.95-2.42 9.95-5.97 0-11.37-38.08-5.97-38.08-30.2 0-12.85 10.73-21.45 26.78-21.45 7.53 0 17.05 2.27 23.66 5.26zm30.2-29.7v93.2c0 1.43-1.5 2.92-3.63 2.92h-9.8c-2.13 0-3.62-1.49-3.62-2.91V5.52c0-4.62 1.28-5.04 8.52-5.04 8.24 0 8.53.56 8.53 5.04zm69.69 52.43v40.14c0 2.13-1.5 3.62-3.62 3.62h-9.67a3.49 3.49 0 0 1-3.62-3.83l.14-4.34a27.4 27.4 0 0 1-20.31 8.88c-14.64 0-24.44-8.45-24.44-21.1 0-13.42 11.08-22.45 27.7-22.52 6.33 0 12.08 1.14 16.77 3.06v-4.62c0-7.39-5.83-11.8-15.7-11.8-4.62 0-10.3 1.85-14.85 4.48-3.48 2-4.33 1.85-8.1-3.76-3.7-5.62-3.55-6.68 0-8.95a47.38 47.38 0 0 1 24.58-7.25c19.11 0 31.12 10.37 31.12 27.99zm-45.18 23.23c0 4.76 4.05 7.96 10.16 7.96 7.38 0 14.06-3.55 17.97-9.6V73.3a37.88 37.88 0 0 0-12.93-2.34c-9.1 0-15.2 4.33-15.2 10.23zm111.68-45.82c3.55 2.06 3.7 3.2-.21 9.23-3.7 5.69-4.34 6.04-8.24 4.05a27.93 27.93 0 0 0-11.65-2.91c-12.3 0-20.46 8.1-20.46 20.32 0 12.72 8.17 21.24 20.46 21.24 4.26 0 9.59-1.63 13.07-3.55 3.55-2.06 4.33-1.92 8.1 3.55 3.4 5.12 3.34 6.32.28 8.45-5.47 3.77-14.14 6.68-21.74 6.68-22.73 0-37.94-14.56-37.94-36.37 0-21.67 15.2-36.1 38.08-36.1 6.97 0 15.14 2.35 20.25 5.4zm74.17 57.47c2.85 3.63 1.7 4.9-5.4 7.46-7.24 2.63-8.24 2.49-10.8-.85L405.36 72.3l-9.1 8.81v17.62c0 1.42-1.49 2.91-3.62 2.91h-9.8c-2.13 0-3.63-1.49-3.63-2.91V5.52c0-4.62 1.28-5.04 8.53-5.04 8.24 0 8.52.56 8.52 5.04v53L424.1 31.8c3.06-2.9 4.76-2.7 10.23.93 6.04 3.9 6.47 4.97 3.56 7.81l-20.75 20.18 24.72 32.11zM119.82 47.3c-12.9-42.97-31.51-53-74.48-40.1-42.97 12.88-53 31.5-40.1 74.47 12.88 42.97 31.5 53 74.47 40.1 42.97-12.89 53-31.5 40.1-74.47zm-21.74 27.9l-8.1 2.7 2.8 8.39a6.48 6.48 0 1 1-12.28 4.11l-2.81-8.38-16.7 5.6 2.8 8.38a6.48 6.48 0 0 1-12.3 4.12l-2.8-8.39-8.1 2.72a6.48 6.48 0 1 1-4.12-12.3l8.1-2.7-5.38-16.1-8.1 2.72a6.48 6.48 0 1 1-4.12-12.3l8.1-2.7-2.81-8.39a6.48 6.48 0 0 1 12.3-4.12l2.8 8.39 16.7-5.6-2.8-8.38a6.48 6.48 0 0 1 12.3-4.12l2.8 8.39 8.1-2.72a6.48 6.48 0 0 1 4.12 12.3l-8.1 2.7 5.38 16.1 8.1-2.72a6.48 6.48 0 0 1 4.12 12.3zm-46.6-15.96l5.38 16.08 16.71-5.6-5.38-16.07-16.71 5.6z"/></svg>