<svg xmlns="http://www.w3.org/2000/svg" width="450" height="404" viewBox="0 0 450 404">
  <path fill="none" stroke="#3266F1" stroke-width="1.5" d="M287.5159,343.5081 C287.5159,345.7211 285.7219,347.5161 283.5079,347.5161 C281.2939,347.5161 279.4999,345.7211 279.4999,343.5081 C279.4999,341.2941 281.2939,339.5001 283.5079,339.5001 C285.7219,339.5001 287.5159,341.2941 287.5159,343.5081 Z M256.5159,303.5081 C256.5159,305.7211 254.7209,307.5161 252.5079,307.5161 C250.2939,307.5161 248.4999,305.7211 248.4999,303.5081 C248.4999,301.2941 250.2939,299.5001 252.5079,299.5001 C254.7209,299.5001 256.5159,301.2941 256.5159,303.5081 Z M270.5159,412.5081 C270.5159,414.7211 268.7209,416.5161 266.5079,416.5161 C264.2939,416.5161 262.4999,414.7211 262.4999,412.5081 C262.4999,410.2941 264.2939,408.5001 266.5079,408.5001 C268.7209,408.5001 270.5159,410.2941 270.5159,412.5081 Z M220.5159,374.5081 C220.5159,376.7211 218.7209,378.5161 216.5079,378.5161 C214.2939,378.5161 212.4999,376.7211 212.4999,374.5081 C212.4999,372.2941 214.2939,370.5001 216.5079,370.5001 C218.7209,370.5001 220.5159,372.2941 220.5159,374.5081 Z M131.5159,319.5081 C131.5159,321.7211 129.7209,323.5161 127.5079,323.5161 C125.2939,323.5161 123.4999,321.7211 123.4999,319.5081 C123.4999,317.2941 125.2939,315.5001 127.5079,315.5001 C129.7209,315.5001 131.5159,317.2941 131.5159,319.5081 Z M256.5159,188.5081 C256.5159,190.7211 254.7209,192.5161 252.5079,192.5161 C250.2939,192.5161 248.4999,190.7211 248.4999,188.5081 C248.4999,186.2941 250.2939,184.5001 252.5079,184.5001 C254.7209,184.5001 256.5159,186.2941 256.5159,188.5081 Z M278.5159,55.5081 C278.5159,57.7211 276.7209,59.5161 274.5079,59.5161 C272.2939,59.5161 270.4999,57.7211 270.4999,55.5081 C270.4999,53.2941 272.2939,51.5001 274.5079,51.5001 C276.7209,51.5001 278.5159,53.2941 278.5159,55.5081 Z M83.5159,295.5081 C83.5159,297.7211 81.7209,299.5161 79.5079,299.5161 C77.2939,299.5161 75.4999,297.7211 75.4999,295.5081 C75.4999,293.2941 77.2939,291.5001 79.5079,291.5001 C81.7209,291.5001 83.5159,293.2941 83.5159,295.5081 Z M135.5159,388.5081 C135.5159,390.7211 133.7209,392.5161 131.5079,392.5161 C129.2939,392.5161 127.4999,390.7211 127.4999,388.5081 C127.4999,386.2941 129.2939,384.5001 131.5079,384.5001 C133.7209,384.5001 135.5159,386.2941 135.5159,388.5081 Z M79.5159,367.5081 C79.5159,369.7211 77.7209,371.5161 75.5079,371.5161 C73.2939,371.5161 71.4999,369.7211 71.4999,367.5081 C71.4999,365.2941 73.2939,363.5001 75.5079,363.5001 C77.7209,363.5001 79.5159,365.2941 79.5159,367.5081 Z M171.5159,363.5081 C171.5159,365.7211 169.7209,367.5161 167.5079,367.5161 C165.2939,367.5161 163.4999,365.7211 163.4999,363.5081 C163.4999,361.2941 165.2939,359.5001 167.5079,359.5001 C169.7209,359.5001 171.5159,361.2941 171.5159,363.5081 Z M179.5159,319.5082 C179.5159,321.7212 177.7209,323.5162 175.5079,323.5162 C173.2939,323.5162 171.4999,321.7212 171.4999,319.5082 C171.4999,317.2942 173.2939,315.5002 175.5079,315.5002 C177.7209,315.5002 179.5159,317.2942 179.5159,319.5082 Z M193.5159,420.5081 C193.5159,422.7211 191.7209,424.5161 189.5079,424.5161 C187.2939,424.5161 185.4999,422.7211 185.4999,420.5081 C185.4999,418.2941 187.2939,416.5001 189.5079,416.5001 C191.7209,416.5001 193.5159,418.2941 193.5159,420.5081 Z M91.5159,196.5081 C91.5159,198.7211 89.7209,200.5161 87.5079,200.5161 C85.2939,200.5161 83.4999,198.7211 83.4999,196.5081 C83.4999,194.2941 85.2939,192.5001 87.5079,192.5001 C89.7209,192.5001 91.5159,194.2941 91.5159,196.5081 Z M139.5159,149.5082 C139.5159,151.7212 137.7209,153.5162 135.5079,153.5162 C133.2939,153.5162 131.4999,151.7212 131.4999,149.5082 C131.4999,147.2942 133.2939,145.5002 135.5079,145.5002 C137.7209,145.5002 139.5159,147.2942 139.5159,149.5082 Z M295.5159,242.5081 C295.5159,244.7211 293.7209,246.5161 291.5079,246.5161 C289.2939,246.5161 287.4999,244.7211 287.4999,242.5081 C287.4999,240.2941 289.2939,238.5001 291.5079,238.5001 C293.7209,238.5001 295.5159,240.2941 295.5159,242.5081 Z M256.5159,359.5081 C256.5159,361.7211 254.7209,363.5161 252.5079,363.5161 C250.2939,363.5161 248.4999,361.7211 248.4999,359.5081 C248.4999,357.2941 250.2939,355.5001 252.5079,355.5001 C254.7209,355.5001 256.5159,357.2941 256.5159,359.5081 Z M335.5159,420.5079 C335.5159,422.7209 333.7209,424.5159 331.5079,424.5159 C329.2939,424.5159 327.4999,422.7209 327.4999,420.5079 C327.4999,418.2939 329.2939,416.4999 331.5079,416.4999 C333.7209,416.4999 335.5159,418.2939 335.5159,420.5079 Z M31.5159,236.5082 C31.5159,238.7212 29.7219,240.5162 27.5079,240.5162 C25.2949,240.5162 23.4999,238.7212 23.4999,236.5082 C23.4999,234.2942 25.2949,232.5002 27.5079,232.5002 C29.7219,232.5002 31.5159,234.2942 31.5159,236.5082 Z M208.5159,158.0083 C208.5159,160.2213 206.7219,162.0153 204.5079,162.0153 C202.2949,162.0153 200.4999,160.2213 200.4999,158.0083 C200.4999,155.7943 202.2949,154.0003 204.5079,154.0003 C206.7219,154.0003 208.5159,155.7943 208.5159,158.0083 Z M370.5159,109.5079 C370.5159,111.7209 368.7219,113.5159 366.5079,113.5159 C364.2949,113.5159 362.4999,111.7209 362.4999,109.5079 C362.4999,107.2939 364.2949,105.4999 366.5079,105.4999 C368.7219,105.4999 370.5159,107.2939 370.5159,109.5079 Z M313.5159,295.5081 C313.5159,297.7221 311.7209,299.5161 309.5079,299.5161 C307.2939,299.5161 305.4999,297.7221 305.4999,295.5081 C305.4999,293.2951 307.2939,291.5001 309.5079,291.5001 C311.7209,291.5001 313.5159,293.2951 313.5159,295.5081 Z M373.5159,279.5081 C373.5159,281.7211 371.7219,283.5161 369.5079,283.5161 C367.2939,283.5161 365.4999,281.7211 365.4999,279.5081 C365.4999,277.2941 367.2939,275.5001 369.5079,275.5001 C371.7219,275.5001 373.5159,277.2941 373.5159,279.5081 Z M321.5159,382.5081 C321.5159,384.7211 319.7219,386.5161 317.5079,386.5161 C315.2949,386.5161 313.4999,384.7211 313.4999,382.5081 C313.4999,380.2941 315.2949,378.5001 317.5079,378.5001 C319.7219,378.5001 321.5159,380.2941 321.5159,382.5081 Z M248.5159,109.5071 C248.5159,111.7211 246.7209,113.5151 244.5079,113.5151 C242.2939,113.5151 240.4999,111.7211 240.4999,109.5071 C240.4999,107.2941 242.2939,105.5001 244.5079,105.5001 C246.7209,105.5001 248.5159,107.2941 248.5159,109.5071 Z M179.5159,242.5081 C179.5159,244.7211 177.7219,246.5161 175.5079,246.5161 C173.2949,246.5161 171.4999,244.7211 171.4999,242.5081 C171.4999,240.2941 173.2949,238.5001 175.5079,238.5001 C177.7219,238.5001 179.5159,240.2941 179.5159,242.5081 Z M135.5159,250.5081 C135.5159,252.7211 133.7209,254.5161 131.5079,254.5161 C129.2939,254.5161 127.4999,252.7211 127.4999,250.5081 C127.4999,248.2941 129.2939,246.5001 131.5079,246.5001 C133.7209,246.5001 135.5159,248.2941 135.5159,250.5081 Z M260.5159,-18.4919 C260.5159,-16.2789 258.7209,-14.4839 256.5079,-14.4839 C254.2949,-14.4839 252.4999,-16.2789 252.4999,-18.4919 C252.4999,-20.7059 254.2949,-22.4999 256.5079,-22.4999 C258.7209,-22.4999 260.5159,-20.7059 260.5159,-18.4919 Z M424.5159,351.5081 C424.5159,353.7211 422.7209,355.5161 420.5079,355.5161 C418.2949,355.5161 416.4999,353.7211 416.4999,351.5081 C416.4999,349.2941 418.2949,347.5001 420.5079,347.5001 C422.7209,347.5001 424.5159,349.2941 424.5159,351.5081 Z M369.5159,392.5081 C369.5159,394.7211 367.7209,396.5161 365.5079,396.5161 C363.2949,396.5161 361.4999,394.7211 361.4999,392.5081 C361.4999,390.2941 363.2949,388.5001 365.5079,388.5001 C367.7209,388.5001 369.5159,390.2941 369.5159,392.5081 Z M325.5159,155.5081 C325.5159,157.7211 323.7209,159.5161 321.5079,159.5161 C319.2949,159.5161 317.4999,157.7211 317.4999,155.5081 C317.4999,153.2941 319.2949,151.5001 321.5079,151.5001 C323.7209,151.5001 325.5159,153.2941 325.5159,155.5081 Z" transform="rotate(-90 225.008 201.008)"/>
</svg>
