<svg xmlns="http://www.w3.org/2000/svg" width="52" height="52" viewBox="0 0 52 52">
  <g fill="none" fill-rule="evenodd" transform="translate(0 5)">
    <path fill="black" d="M4,5 L11,5 L11,43 L4,43 L4,43 C1.790861,43 2.705415e-16,41.209139 0,39 L0,9 L0,9 C-2.705415e-16,6.790861 1.790861,5 4,5 Z"/>
    <path fill="#d7d7d7" d="M12,0 L38,0 L38,0 C40.209139,-4.05812251e-16 42,1.790861 42,4 L42,39 L42,39 C42,41.209139 40.209139,43 38,43 L8,43 L8,4 L8,4 C8,1.790861 9.790861,4.05812251e-16 12,0 Z"/>
    <path fill="black" d="M14,4 L36,4 L36,4 C37.1045695,4 38,4.8954305 38,6 L38,6 L38,6 C38,7.1045695 37.1045695,8 36,8 L14,8 L14,8 C12.8954305,8 12,7.1045695 12,6 L12,6 L12,6 C12,4.8954305 12.8954305,4 14,4 Z"/>
    <rect width="13" height="10" x="12" y="11" fill="black" rx="1"/>
    <rect width="10" height="2" x="27" y="11" fill="black" rx="1"/>
    <rect width="10" height="2" x="27" y="14" fill="black" rx="1"/>
    <path fill="black" d="M13,23 L29,23 L29,23 C29.5522847,23 30,23.4477153 30,24 L30,24 L30,24 C30,24.5522847 29.5522847,25 29,25 L13,25 L13,25 C12.4477153,25 12,24.5522847 12,24 L12,24 L12,24 C12,23.4477153 12.4477153,23 13,23 Z"/>
    <rect width="12" height="2" x="12" y="27" fill="black" rx="1"/>
    <path fill="black" d="M13,31 L23,31 L23,31 C23.5522847,31 24,31.4477153 24,32 L24,32 L24,32 C24,32.5522847 23.5522847,33 23,33 L13,33 L13,33 C12.4477153,33 12,32.5522847 12,32 L12,32 L12,32 C12,31.4477153 12.4477153,31 13,31 Z"/>
    <rect width="4" height="4" x="4" y="39" fill="#d7d7d7"/>
    <circle cx="4" cy="39" r="4" fill="black"/>
    <g transform="translate(26.473 22.933)">
      <ellipse cx="12.291" cy="11.467" fill="#FFF" rx="7.564" ry="7.644"/>
      <path fill="black" fill-rule="nonzero" d="M22.5490909,3.48985507 L19.5992727,3.48985507 L18.72,1.71584541 C18.2094545,0.668888889 17.1883636,3.63264974e-13 16.0254545,3.63264974e-13 L9.44509091,3.63264974e-13 C8.31054545,3.63264974e-13 7.26109091,0.639806763 6.75054545,1.71584541 L5.87127273,3.48985507 L2.97818182,3.48985507 C1.33309091,3.48985507 0,4.85671498 0,6.54347826 L0,17.0130435 C0,18.6998068 1.33309091,20.0666667 2.97818182,20.0666667 L22.5490909,20.0666667 C24.1941818,20.0666667 25.5272727,18.6998068 25.5272727,17.0130435 L25.5272727,6.57256039 C25.5272727,4.85671498 24.1941818,3.48985507 22.5490909,3.48985507 Z M12.7636364,17.594686 C9.33163636,17.594686 6.52363636,14.7155556 6.52363636,11.2257005 C6.52363636,7.70676329 9.33163636,4.79855072 12.7636364,4.79855072 C16.1956364,4.79855072 19.0036364,7.67768116 19.0036364,11.1966184 C19.0036364,14.6864734 16.1956364,17.594686 12.7636364,17.594686 Z"/>
      <path fill="#aaaaaa" fill-rule="nonzero" d="M12.7636364,7.16666667 C10.5796364,7.16666667 8.79272727,8.97266667 8.79272727,11.1513333 C8.79272727,13.33 10.5796364,15.1933333 12.7636364,15.1933333 C14.9476364,15.1933333 16.7345455,13.3873333 16.7345455,11.2086667 C16.7345455,9.03 14.9476364,7.16666667 12.7636364,7.16666667 Z M12.7636364,12.9573333 C11.7992727,12.9573333 11.0334545,12.1546667 11.0334545,11.2086667 C11.0334545,10.2626667 11.8276364,9.46 12.7636364,9.46 C13.6996364,9.46 14.4938182,10.2626667 14.4938182,11.2086667 C14.4938182,12.1546667 13.728,12.9573333 12.7636364,12.9573333 Z"/>
    </g>
  </g>
</svg>
