<svg xmlns="http://www.w3.org/2000/svg" width="52" height="52" viewBox="0 0 52 52">
  <g fill="none">
    <path fill="#68D4F8" d="M27,52 L1,52 C0.602160925,52 0,51.4248103 0,51 L0,28 C0,20.9868056 6.26753257,15 14,15 L14,15 C21.7324674,15 28,20.9868056 28,28 L28,51 C28,51.4248103 27.3978391,52 27,52 L27,52 Z M14,22 C11.2385763,22 9,24.2385763 9,27 C9,29.7614237 11.2385763,32 14,32 C16.7614237,32 19,29.7614237 19,27 C19,24.2385763 16.7614237,22 14,22 L14,22 Z"/>
    <path fill="#3297D3" d="M41,52 L41,46 C41,45.5 40.5,45 40,45 L36,45 C35.5,45 35,45.5 35,46 L35,52 L25,52 C24.6026936,52 24,51.4349225 24,51 L24,9 C24,7.18840743 25.2053872,6.05825243 27,6 L30,6 C30.8330769,2.60201942 34.0923846,0 38,0 C41.9076154,0 45.1669231,2.60201942 46,6 L49,6 C50.7946128,6.05825243 52,7.18840743 52,9 L52,51 C52,51.4349225 51.3973064,52 51,52 L41,52 Z"/>
    <path fill="#68D4F8" d="M48,30 L45,30 C44.3357864,30 44,29.6642136 44,29 L44,24 C44,23.336 44.335,23 45,23 L48,23 C48.665,23 49,23.336 49,24 L49,29 C49,29.665 48.665,30 48,30 Z M40,42 L37,42 C36.3357864,42 36,41.6642136 36,41 L36,36 C36,35.335 36.335,35 37,35 L40,35 C40.665,35 41,35.335 41,36 L41,41 C41,41.665 40.665,42 40,42 Z M40,19 L37,19 C36.3357864,19 36,18.6642136 36,18 L36,13 C36,12.336 36.335,12 37,12 L40,12 C40.665,12 41,12.336 41,13 L41,18 C41,18.6642136 40.6642136,19 40,19 L40,19 Z M32,42 L29,42 C28.3357864,42 28,41.6642136 28,41 L28,36 C28,35.335 28.335,35 29,35 L32,35 C32.665,35 33,35.335 33,36 L33,41 C33,41.665 32.665,42 32,42 Z M32,19 L29,19 C28.3357864,19 28,18.6642136 28,18 L28,13 C28,12.336 28.335,12 29,12 L32,12 C32.665,12 33,12.336 33,13 L33,18 C33,18.6642136 32.6642136,19 32,19 L32,19 Z"/>
    <path fill="#FFF" d="M48,40 L45,40 C44.3357864,40 44,39.6642136 44,39 L44,34 C44,33.335 44.335,33 45,33 L48,33 C48.665,33 49,33.335 49,34 L49,39 C49,39.665 48.665,40 48,40 Z M32,29 L29,29 C28.3357864,29 28,28.6642136 28,28 L28,23 C28,22.336 28.335,22 29,22 L32,22 C32.665,22 33,22.336 33,23 L33,28 C33,28.665 32.665,29 32,29 Z"/>
  </g>
</svg>
