<?xml version="1.0" encoding="utf-8"?>
<!-- Generator: Adobe Illustrator 21.1.0, SVG Export Plug-In . SVG Version: 6.00 Build 0)  -->
<svg version="1.1" id="Layer_1" xmlns="http://www.w3.org/2000/svg" xmlns:xlink="http://www.w3.org/1999/xlink" x="0px" y="0px"
	 viewBox="0 0 52 52" style="enable-background:new 0 0 52 52;" xml:space="preserve">
<style type="text/css">
	.st0{clip-path:url(#SVGID_2_);fill:#237BB8;}
	.st1{clip-path:url(#SVGID_4_);enable-background:new    ;}
	.st2{clip-path:url(#SVGID_6_);}
	.st3{clip-path:url(#SVGID_8_);fill:#6DCFF2;}
	.st4{fill:#3497D3;}
</style>
<g>
	<defs>
		<path id="SVGID_1_" d="M22.5,47.3h7.1c1.3,0,2.4,1.1,2.4,2.4S30.9,52,29.5,52h-7.1c-1.3,0-2.4-1.1-2.4-2.4S21.1,47.3,22.5,47.3z
			 M47.3,29.5v-7.1c0-1.3,1.1-2.4,2.4-2.4s2.4,1.1,2.4,2.4v7.1c0,1.3-1.1,2.4-2.4,2.4S47.3,30.9,47.3,29.5z M0,29.5v-7.1
			c0-1.3,1.1-2.4,2.4-2.4s2.4,1.1,2.4,2.4v7.1c0,1.3-1.1,2.4-2.4,2.4S0,30.9,0,29.5z M22.5,0h7.1c1.3,0,2.4,1.1,2.4,2.4
			s-1.1,2.4-2.4,2.4h-7.1c-1.3,0-2.4-1.1-2.4-2.4S21.1,0,22.5,0z"/>
	</defs>
	<clipPath id="SVGID_2_">
		<use xlink:href="#SVGID_1_"  style="overflow:visible;"/>
	</clipPath>
	<rect x="-5" y="-5" class="st0" width="62" height="62"/>
</g>
<g>
	<defs>
		<path id="SVGID_3_" d="M26,39c7.2,0,13-5.8,13-13c0-7.2-5.8-13-13-13c-7.2,0-13,5.8-13,13C13,33.2,18.8,39,26,39z M26,49.6
			C12.9,49.6,2.4,39.1,2.4,26S12.9,2.4,26,2.4S49.6,12.9,49.6,26S39.1,49.6,26,49.6z"/>
	</defs>
	<clipPath id="SVGID_4_">
		<use xlink:href="#SVGID_3_"  style="overflow:visible;"/>
	</clipPath>
	<g class="st1">
		<g>
			<defs>
				<rect id="SVGID_5_" x="-2.6" y="-2.6" width="58" height="58"/>
			</defs>
			<clipPath id="SVGID_6_">
				<use xlink:href="#SVGID_5_"  style="overflow:visible;"/>
			</clipPath>
			<g class="st2">
				<defs>
					<rect id="SVGID_7_" x="2.4" y="2.4" width="47" height="47"/>
				</defs>
				<clipPath id="SVGID_8_">
					<use xlink:href="#SVGID_7_"  style="overflow:visible;"/>
				</clipPath>
				<rect x="-2.6" y="-2.6" class="st3" width="57.3" height="57.3"/>
			</g>
		</g>
	</g>
</g>
<g>
	<path class="st4" d="M32.5,37.2C30.6,38.4,28.4,39,26,39c-2.3,0-4.5-0.6-6.4-1.7c-0.9,1.8-2.2,4.5-3.5,7c-0.4,0.9-0.8,1.7-1.2,2.5
		c3.3,1.8,7.1,2.8,11.1,2.8c4,0,7.7-1,11-2.7l-1.2-2.6L32.5,37.2z"/>
	<path class="st4" d="M19.6,14.7c1.9-1.1,4-1.7,6.4-1.7c2.3,0,4.4,0.6,6.3,1.6c0.9-1.8,2.3-4.6,3.6-7.3c0.4-0.8,0.8-1.5,1.1-2.3
		c-3.3-1.7-7-2.7-11-2.7c-3.9,0-7.6,1-10.9,2.7l1.1,2.3L19.6,14.7z"/>
	<path class="st4" d="M46.9,14.9L44.5,16l-7.3,3.4c1.1,1.9,1.8,4.2,1.8,6.5c0,2.2-0.6,4.4-1.6,6.2c1.8,0.9,4.5,2.2,7.1,3.5
		c0.8,0.4,1.7,0.8,2.4,1.2c1.7-3.3,2.7-7,2.7-10.9C49.6,22,48.6,18.2,46.9,14.9z"/>
	<path class="st4" d="M7.5,16c-0.8-0.4-1.6-0.8-2.3-1.2C3.4,18.1,2.4,22,2.4,26c0,3.9,1,7.6,2.6,10.8l2.5-1.2l7.1-3.4
		c-1-1.9-1.6-4-1.6-6.3c0-2.4,0.6-4.6,1.7-6.5C12.9,18.7,10.1,17.3,7.5,16z"/>
</g>
</svg>
