<svg height="449pt" viewBox="0 0 449 449.422" width="449pt" xmlns="http://www.w3.org/2000/svg" xmlns:xlink="http://www.w3.org/1999/xlink"><linearGradient id="a"><stop offset=".322" stop-color="#a163f5"/><stop offset=".466" stop-color="#b074ee"/><stop offset=".752" stop-color="#d8a1dd"/><stop offset=".898" stop-color="#efbad3"/></linearGradient><linearGradient id="b" gradientTransform="matrix(1 0 0 -1 -26.241 481.089)" gradientUnits="userSpaceOnUse" x1="116.557" x2="125.558" xlink:href="#a" y1="-64.219" y2="328.82"/><linearGradient id="c" gradientTransform="matrix(1 0 0 -1 -26.241 481.089)" gradientUnits="userSpaceOnUse" x1="365.255" x2="374.256" xlink:href="#a" y1="-69.915" y2="323.125"/><linearGradient id="d" gradientTransform="matrix(1 0 0 -1 -26.241 481.089)" gradientUnits="userSpaceOnUse" x1="122.252" x2="131.253" xlink:href="#a" y1="-64.35" y2="328.69"/><linearGradient id="e" gradientTransform="matrix(1 0 0 -1 -26.241 481.089)" gradientUnits="userSpaceOnUse" x1="370.951" x2="379.952" xlink:href="#a" y1="-70.045" y2="322.994"/><path d="m190.804688 0h-180.59375c-5.523438 0-10 4.476562-10 10v180.589844c0 5.523437 4.476562 10 10 10h180.59375c5.519531 0 10-4.476563 10-10v-180.589844c0-5.523438-4.480469-10-10-10zm-10 180.59375h-160.59375v-160.59375h160.59375zm0 0" fill="url(#b)"/><path d="m439.632812 0h-180.59375c-5.523437 0-10 4.476562-10 10v180.589844c0 5.523437 4.476563 10 10 10h180.59375c5.523438 0 10-4.476563 10-10v-180.589844c0-5.523438-4.476562-10-10-10zm-10 180.59375h-160.59375v-160.59375h160.59375zm0 0" fill="url(#c)"/><path d="m190.804688 248.828125h-180.59375c-5.523438 0-10 4.476563-10 10v180.59375c0 5.523437 4.476562 10 10 10h180.59375c5.519531 0 10-4.476563 10-10v-180.59375c0-5.523437-4.480469-10-10-10zm-10 180.59375h-160.59375v-160.59375h160.59375zm0 0" fill="url(#d)"/><path d="m439.632812 248.828125h-180.59375c-5.523437 0-10 4.476563-10 10v180.59375c0 5.523437 4.476563 10 10 10h180.59375c5.523438 0 10-4.476563 10-10v-180.59375c0-5.523437-4.476562-10-10-10zm-10 180.59375h-160.59375v-160.59375h160.59375zm0 0" fill="url(#e)"/></svg>