<?xml version="1.0" encoding="UTF-8" standalone="no"?>
<!DOCTYPE svg PUBLIC "-//W3C//DTD SVG 1.1//EN" "http://www.w3.org/Graphics/SVG/1.1/DTD/svg11.dtd">
<svg version="1.1" xmlns="http://www.w3.org/2000/svg" xmlns:xlink="http://www.w3.org/1999/xlink" preserveAspectRatio="xMidYMid meet" viewBox="36 201.5562767046859 570 278.88744659062826" width="566" height="274.89"><defs><path d="M603 202.56C603 202.56 603 202.56 603 202.56C603 367.49 603 459.12 603 477.44C603 477.44 603 477.44 603 477.44C263.4 477.44 74.73 477.44 37 477.44C37 477.44 37 477.44 37 477.44C37 312.51 37 220.88 37 202.56C37 202.56 37 202.56 37 202.56C376.6 202.56 565.27 202.56 603 202.56Z" id="a4oKrSdMXU"></path><path d="M248.68 292.52C240.72 292.52 236.73 296.81 236.73 305.41C236.73 306.03 236.73 309.15 236.73 314.77L253.49 314.77L253.49 327.29L236.8 327.29L236.8 384.32L221.5 384.32L221.5 327.29L208.98 327.29L208.98 314.77L221.5 314.77C221.5 308.04 221.5 304.31 221.5 303.56C221.5 296.27 223.92 290.52 228.77 286.31C233.61 282.1 239.67 280 246.95 280C250.87 280 253.98 280.41 256.27 281.24C256.27 282.08 256.27 286.31 256.27 293.91C253.11 292.98 250.58 292.52 248.68 292.52Z" id="dMUR2dLQX"></path><path d="M296.15 395.68C289.5 410.43 280.18 417.8 268.18 417.8C264.82 417.8 262.01 417.51 259.75 416.93C259.75 415.63 259.75 405.2 259.75 403.89C262.3 404.82 264.61 405.28 266.68 405.28C272.69 405.28 277.18 402.28 280.15 396.27C280.47 395.48 282.07 391.53 284.94 384.42L256.96 314.87L274.42 314.87C284.59 345.26 290.24 362.14 291.37 365.51C291.56 366.15 291.98 367.83 292.63 370.55C292.66 370.55 292.94 370.55 292.98 370.55C293.21 369.51 293.62 367.87 294.22 365.64C295.4 362.26 301.34 345.34 312.02 314.87L327.9 314.87C308.85 363.36 298.27 390.29 296.15 395.68Z" id="g2uiY9EsbI"></path><path d="M352.94 314.87C352.94 314.87 352.94 314.87 352.94 314.87C352.94 356.6 352.94 379.78 352.94 384.42C352.94 384.42 352.94 384.42 352.94 384.42C343.76 384.42 338.66 384.42 337.64 384.42C337.64 384.42 337.64 384.42 337.64 384.42C337.64 342.69 337.64 319.51 337.64 314.87C337.64 314.87 337.64 314.87 337.64 314.87C346.82 314.87 351.92 314.87 352.94 314.87Z" id="b7hhOyTaE"></path><path d="M414.76 313.51L415.41 313.53L416.06 313.58L416.7 313.63L417.33 313.69L417.96 313.77L418.58 313.85L419.19 313.95L419.79 314.06L420.38 314.18L420.97 314.32L421.55 314.46L422.13 314.62L422.69 314.79L423.25 314.97L423.8 315.16L424.35 315.36L424.88 315.57L425.41 315.8L425.93 316.04L426.45 316.29L426.95 316.55L427.45 316.82L427.94 317.1L428.43 317.4L428.91 317.71L429.37 318.02L429.84 318.35L430.29 318.7L430.74 319.05L431.18 319.41L431.61 319.79L432.04 320.18L432.45 320.58L432.86 320.99L433.27 321.41L433.66 321.85L434.05 322.29L434.43 322.75L434.8 323.22L435.16 323.69L435.52 324.18L435.86 324.67L436.19 325.17L436.52 325.68L436.83 326.19L437.14 326.71L437.44 327.24L437.72 327.78L438 328.33L438.27 328.89L438.53 329.45L438.78 330.02L439.02 330.6L439.25 331.18L439.47 331.78L439.68 332.38L439.88 332.99L440.08 333.61L440.26 334.24L440.43 334.87L440.6 335.51L440.75 336.16L440.9 336.82L441.04 337.49L441.16 338.16L441.28 338.84L441.39 339.53L441.49 340.23L441.58 340.94L441.66 341.65L441.73 342.37L441.79 343.1L441.84 343.84L441.88 344.59L441.92 345.34L441.94 346.1L441.95 346.87L441.96 347.65L441.95 348.51L441.94 349.36L441.91 350.21L441.87 351.04L441.83 351.87L441.77 352.69L441.7 353.5L441.62 354.3L441.53 355.09L441.43 355.88L441.32 356.65L441.19 357.42L441.06 358.18L440.92 358.93L440.76 359.67L440.6 360.4L440.42 361.12L440.24 361.84L440.04 362.55L439.83 363.24L439.62 363.93L439.39 364.61L439.15 365.29L438.9 365.95L438.64 366.6L438.37 367.25L438.09 367.89L437.79 368.52L437.49 369.14L437.18 369.75L436.85 370.35L436.52 370.95L436.17 371.53L435.82 372.11L435.45 372.68L435.08 373.24L434.69 373.79L434.29 374.33L433.88 374.86L433.46 375.39L433.03 375.9L432.6 376.41L432.15 376.89L431.7 377.37L431.24 377.83L430.77 378.28L430.3 378.72L429.81 379.14L429.32 379.55L428.82 379.95L428.32 380.33L427.8 380.7L427.28 381.06L426.75 381.41L426.21 381.74L425.67 382.06L425.12 382.37L424.55 382.66L423.99 382.94L423.41 383.21L422.83 383.46L422.23 383.7L421.63 383.93L421.03 384.14L420.41 384.35L419.79 384.53L419.16 384.71L418.52 384.87L417.87 385.02L417.22 385.16L416.56 385.28L415.89 385.39L415.21 385.49L414.52 385.58L413.83 385.65L413.13 385.71L412.42 385.75L411.71 385.79L410.98 385.8L410.25 385.81L409.58 385.8L408.91 385.78L408.25 385.74L407.6 385.69L406.96 385.63L406.33 385.54L405.7 385.45L405.08 385.33L404.47 385.21L403.87 385.07L403.27 384.91L402.69 384.74L402.11 384.55L401.53 384.35L400.97 384.14L400.41 383.91L399.86 383.66L399.32 383.4L398.79 383.12L398.26 382.83L397.75 382.53L397.24 382.21L396.73 381.87L396.24 381.52L395.75 381.16L395.27 380.78L394.8 380.38L394.34 379.98L393.88 379.55L393.44 379.11L393 378.66L392.56 378.19L392.14 377.7L391.72 377.21L391.31 376.69L390.91 376.16L390.52 375.62L390.13 375.06L389.76 374.49L389.39 373.9L389.1 373.9L389.1 416.41L373.8 416.41L373.8 314.87L389.1 314.87L389.1 327.28L389.39 327.28L389.8 326.6L390.23 325.94L390.66 325.29L391.1 324.66L391.56 324.05L392.02 323.45L392.49 322.88L392.98 322.32L393.47 321.77L393.97 321.25L394.48 320.74L395 320.24L395.53 319.77L396.07 319.31L396.62 318.87L397.18 318.45L397.74 318.05L398.32 317.66L398.91 317.29L399.5 316.93L400.11 316.6L400.72 316.28L401.35 315.98L401.98 315.69L402.63 315.42L403.28 315.17L403.94 314.94L404.61 314.72L405.3 314.53L405.99 314.35L406.69 314.18L407.4 314.03L408.12 313.91L408.85 313.79L409.59 313.7L410.33 313.62L411.09 313.56L411.86 313.52L412.64 313.49L413.42 313.48L414.09 313.49L414.76 313.51ZM406.6 326.03L405.99 326.07L405.39 326.13L404.8 326.2L404.22 326.29L403.65 326.4L403.09 326.52L402.54 326.66L402 326.81L401.46 326.98L400.94 327.17L400.42 327.37L399.92 327.59L399.42 327.83L398.93 328.08L398.45 328.35L397.98 328.63L397.52 328.93L397.07 329.25L396.62 329.58L396.19 329.93L395.76 330.3L395.35 330.68L394.94 331.08L394.54 331.49L394.16 331.92L393.78 332.37L393.42 332.82L393.07 333.28L392.73 333.74L392.41 334.22L392.11 334.7L391.82 335.19L391.54 335.69L391.28 336.2L391.03 336.71L390.79 337.24L390.57 337.77L390.37 338.31L390.17 338.86L390 339.41L389.83 339.98L389.68 340.55L389.55 341.13L389.43 341.72L389.32 342.31L389.23 342.92L389.15 343.53L389.09 344.15L389.04 344.78L389 345.42L388.98 346.06L388.97 346.71L388.97 355.25L388.98 355.81L389 356.36L389.03 356.9L389.08 357.44L389.14 357.97L389.21 358.49L389.3 359.01L389.4 359.52L389.52 360.03L389.65 360.53L389.79 361.02L389.94 361.5L390.11 361.98L390.29 362.46L390.49 362.93L390.69 363.39L390.92 363.84L391.15 364.29L391.4 364.73L391.66 365.17L391.94 365.6L392.23 366.02L392.53 366.44L392.84 366.85L393.17 367.25L393.52 367.65L393.87 368.04L394.24 368.43L394.61 368.79L395 369.15L395.38 369.48L395.78 369.81L396.18 370.12L396.59 370.41L397.01 370.69L397.44 370.96L397.87 371.21L398.31 371.45L398.76 371.67L399.21 371.88L399.67 372.08L400.14 372.26L400.62 372.42L401.1 372.57L401.59 372.71L402.09 372.83L402.6 372.94L403.11 373.03L403.63 373.11L404.16 373.18L404.69 373.23L405.23 373.26L405.78 373.29L406.34 373.29L406.99 373.28L407.63 373.26L408.26 373.21L408.88 373.14L409.48 373.06L410.08 372.96L410.67 372.84L411.25 372.7L411.81 372.54L412.37 372.37L412.91 372.17L413.45 371.96L413.97 371.73L414.49 371.48L414.99 371.21L415.49 370.92L415.97 370.61L416.44 370.29L416.9 369.95L417.36 369.58L417.8 369.2L418.23 368.81L418.65 368.39L419.06 367.95L419.46 367.5L419.85 367.03L420.23 366.53L420.59 366.03L420.94 365.5L421.28 364.97L421.61 364.41L421.92 363.85L422.22 363.27L422.5 362.67L422.77 362.06L423.03 361.43L423.27 360.79L423.5 360.14L423.71 359.47L423.91 358.79L424.1 358.09L424.27 357.37L424.43 356.65L424.58 355.9L424.71 355.15L424.82 354.37L424.93 353.59L425.02 352.79L425.09 351.97L425.16 351.14L425.21 350.29L425.24 349.43L425.26 348.56L425.27 347.67L425.26 346.92L425.24 346.19L425.21 345.46L425.16 344.75L425.11 344.05L425.04 343.37L424.95 342.69L424.86 342.03L424.75 341.38L424.62 340.74L424.49 340.12L424.34 339.5L424.18 338.9L424.01 338.31L423.82 337.73L423.62 337.17L423.41 336.61L423.18 336.07L422.94 335.54L422.69 335.03L422.43 334.52L422.15 334.03L421.86 333.55L421.56 333.08L421.24 332.63L420.91 332.18L420.57 331.75L420.22 331.33L419.86 330.93L419.49 330.54L419.11 330.17L418.72 329.82L418.32 329.48L417.91 329.16L417.5 328.85L417.07 328.56L416.64 328.28L416.19 328.02L415.74 327.78L415.28 327.55L414.81 327.33L414.32 327.14L413.83 326.96L413.33 326.79L412.83 326.64L412.31 326.51L411.78 326.39L411.25 326.29L410.7 326.2L410.15 326.13L409.58 326.07L409.01 326.03L408.43 326.01L407.84 326L407.21 326.01L406.6 326.03Z" id="b1AnHndBGu"></path><path d="M489.08 313.51L489.79 313.53L490.5 313.57L491.2 313.62L491.89 313.69L492.57 313.76L493.24 313.85L493.91 313.94L494.56 314.05L495.21 314.17L495.85 314.3L496.48 314.44L497.11 314.6L497.72 314.76L498.33 314.94L498.93 315.13L499.52 315.32L500.1 315.53L500.67 315.76L501.24 315.99L501.79 316.23L502.34 316.49L502.88 316.76L503.41 317.04L503.94 317.33L504.45 317.63L504.96 317.94L505.46 318.26L505.95 318.6L506.43 318.95L506.91 319.3L507.37 319.67L507.83 320.05L508.28 320.45L508.72 320.85L509.15 321.26L509.57 321.69L509.99 322.13L510.4 322.58L510.8 323.04L511.18 323.5L511.56 323.98L511.93 324.47L512.29 324.96L512.63 325.47L512.97 325.98L513.3 326.5L513.62 327.03L513.92 327.57L514.22 328.11L514.51 328.67L514.79 329.23L515.05 329.81L515.31 330.39L515.56 330.98L515.79 331.58L516.02 332.19L516.24 332.81L516.44 333.44L516.64 334.07L516.83 334.72L517 335.37L517.17 336.03L517.33 336.7L517.47 337.38L517.61 338.07L517.73 338.77L517.85 339.47L517.96 340.19L518.05 340.91L518.14 341.64L518.21 342.39L518.28 343.14L518.33 343.89L518.38 344.66L518.42 345.44L518.44 346.22L518.46 347.02L518.46 347.82L518.46 353.82L469.78 353.82L469.8 354.28L469.82 354.74L469.85 355.2L469.89 355.65L469.93 356.09L469.99 356.53L470.05 356.96L470.11 357.39L470.19 357.81L470.27 358.22L470.35 358.64L470.45 359.04L470.55 359.44L470.65 359.84L470.77 360.23L470.89 360.61L471.02 360.99L471.15 361.36L471.3 361.73L471.45 362.09L471.6 362.45L471.77 362.8L471.94 363.15L472.11 363.49L472.3 363.83L472.49 364.16L472.68 364.49L472.89 364.81L473.1 365.12L473.32 365.43L473.54 365.73L473.78 366.03L474.02 366.33L474.26 366.61L474.52 366.9L474.78 367.17L475.04 367.45L475.32 367.71L475.6 367.97L475.88 368.23L476.18 368.48L476.48 368.72L476.78 368.96L477.09 369.19L477.41 369.42L477.73 369.63L478.06 369.85L478.39 370.05L478.73 370.25L479.07 370.44L479.42 370.63L479.77 370.81L480.13 370.99L480.5 371.15L480.87 371.31L481.24 371.47L481.62 371.62L482.01 371.76L482.4 371.9L482.8 372.03L483.2 372.15L483.61 372.27L484.03 372.38L484.45 372.48L484.87 372.58L485.3 372.67L485.74 372.76L486.18 372.84L486.63 372.91L487.08 372.98L487.54 373.04L488 373.09L488.47 373.14L488.94 373.18L489.42 373.21L489.91 373.24L490.4 373.26L490.89 373.28L491.39 373.29L491.9 373.29L492.47 373.29L493.04 373.28L493.61 373.25L494.17 373.22L494.73 373.18L495.29 373.14L495.85 373.08L496.4 373.01L496.95 372.94L497.5 372.86L498.05 372.77L498.59 372.67L499.14 372.56L499.68 372.44L500.21 372.31L500.75 372.18L501.28 372.04L501.81 371.88L502.34 371.72L502.87 371.55L503.39 371.38L503.91 371.19L504.43 370.99L504.95 370.79L505.46 370.58L505.97 370.35L506.48 370.12L506.99 369.88L507.5 369.64L508 369.38L508.5 369.12L509 368.84L509.49 368.56L509.99 368.27L510.48 367.97L510.97 367.66L511.45 367.34L511.94 367.02L512.42 366.68L512.9 366.34L512.9 379.57L512.4 379.88L511.9 380.18L511.39 380.47L510.87 380.76L510.34 381.04L509.81 381.3L509.27 381.57L508.72 381.82L508.16 382.06L507.59 382.3L507.02 382.53L506.44 382.75L505.85 382.97L505.25 383.18L504.64 383.37L504.03 383.57L503.41 383.75L502.78 383.92L502.14 384.09L501.5 384.25L500.84 384.4L500.18 384.55L499.52 384.68L498.84 384.81L498.16 384.93L497.46 385.05L496.76 385.15L496.06 385.25L495.34 385.34L494.62 385.42L493.88 385.5L493.15 385.56L492.4 385.62L491.64 385.67L490.88 385.71L490.11 385.75L489.33 385.78L488.54 385.8L487.75 385.81L486.95 385.81L486.16 385.81L485.38 385.79L484.61 385.76L483.85 385.72L483.09 385.66L482.35 385.6L481.61 385.52L480.88 385.43L480.16 385.33L479.45 385.22L478.75 385.1L478.06 384.96L477.37 384.82L476.69 384.66L476.03 384.49L475.37 384.31L474.71 384.11L474.07 383.91L473.44 383.69L472.81 383.46L472.19 383.22L471.59 382.96L470.99 382.7L470.4 382.42L469.81 382.14L469.24 381.84L468.67 381.52L468.11 381.2L467.57 380.86L467.03 380.52L466.49 380.16L465.97 379.79L465.46 379.41L464.95 379.01L464.45 378.61L463.96 378.19L463.48 377.76L463.01 377.32L462.55 376.87L462.09 376.4L461.65 375.93L461.22 375.44L460.79 374.95L460.38 374.44L459.98 373.93L459.59 373.4L459.22 372.87L458.85 372.33L458.5 371.78L458.15 371.22L457.82 370.64L457.5 370.06L457.19 369.47L456.89 368.87L456.61 368.26L456.33 367.64L456.06 367.02L455.81 366.38L455.57 365.73L455.34 365.07L455.12 364.4L454.91 363.73L454.71 363.04L454.53 362.35L454.35 361.64L454.19 360.93L454.04 360.2L453.9 359.47L453.77 358.72L453.65 357.97L453.54 357.21L453.45 356.43L453.36 355.65L453.29 354.86L453.23 354.06L453.18 353.25L453.14 352.43L453.11 351.6L453.09 350.76L453.09 349.91L453.09 349.1L453.11 348.31L453.14 347.52L453.19 346.74L453.24 345.97L453.31 345.2L453.39 344.45L453.48 343.7L453.59 342.95L453.71 342.22L453.84 341.49L453.98 340.77L454.13 340.06L454.3 339.35L454.48 338.65L454.67 337.96L454.88 337.28L455.09 336.6L455.32 335.94L455.56 335.28L455.82 334.62L456.08 333.98L456.36 333.34L456.65 332.71L456.96 332.08L457.27 331.47L457.6 330.86L457.94 330.26L458.3 329.67L458.66 329.08L459.04 328.5L459.43 327.93L459.83 327.37L460.25 326.81L460.67 326.26L461.11 325.72L461.57 325.19L462.03 324.66L462.51 324.14L463 323.63L463.5 323.13L464 322.64L464.51 322.17L465.03 321.7L465.55 321.25L466.08 320.82L466.61 320.39L467.15 319.98L467.7 319.58L468.25 319.19L468.81 318.82L469.38 318.46L469.95 318.11L470.52 317.77L471.11 317.45L471.69 317.14L472.29 316.84L472.89 316.55L473.5 316.28L474.11 316.02L474.73 315.77L475.35 315.54L475.98 315.32L476.62 315.11L477.26 314.91L477.91 314.73L478.56 314.55L479.22 314.4L479.89 314.25L480.56 314.12L481.24 314L481.93 313.89L482.62 313.79L483.31 313.71L484.02 313.64L484.73 313.58L485.44 313.54L486.16 313.51L486.89 313.49L487.62 313.48L488.35 313.49L489.08 313.51ZM485.33 326.07L484.53 326.16L483.74 326.29L482.97 326.45L482.21 326.65L481.47 326.89L480.75 327.16L480.04 327.46L479.35 327.81L478.68 328.18L478.02 328.6L477.38 329.05L476.75 329.54L476.14 330.06L475.55 330.62L474.98 331.21L474.43 331.82L473.92 332.45L473.43 333.11L472.97 333.78L472.54 334.48L472.14 335.2L471.76 335.95L471.42 336.71L471.1 337.5L470.81 338.31L470.55 339.14L470.31 340L470.11 340.87L469.93 341.77L469.78 342.69L501.77 342.69L501.59 341.55L501.41 340.45L501.21 339.4L501.01 338.41L500.79 337.46L500.57 336.57L500.33 335.72L500.09 334.93L499.84 334.19L499.57 333.49L499.3 332.85L499.02 332.26L498.73 331.72L498.42 331.22L498.11 330.78L497.79 330.39L497.29 329.86L496.77 329.36L496.22 328.9L495.65 328.47L495.06 328.08L494.44 327.72L493.8 327.39L493.14 327.1L492.45 326.84L491.74 326.62L491.01 326.43L490.25 326.28L489.47 326.16L488.67 326.07L487.84 326.02L486.99 326L486.15 326.02L485.33 326.07Z" id="avEFuSRt"></path><path d="M189.76 288.33C191.97 288.33 193.76 290.12 193.76 292.33C193.76 301.12 193.76 371.47 193.76 380.26C193.76 382.47 191.97 384.26 189.76 384.26C188.32 384.26 176.72 384.26 175.28 384.26C173.07 384.26 171.28 382.47 171.28 380.26C171.28 371.47 171.28 301.12 171.28 292.33C171.28 290.12 173.07 288.33 175.28 288.33C178.17 288.33 188.32 288.33 189.76 288.33Z" id="aV6evyezZ"></path><path d="M158.04 289.08C160.25 289.08 162.04 290.87 162.04 293.08C162.04 301.87 162.04 372.22 162.04 381.01C162.04 383.22 160.25 385.01 158.04 385.01C156.59 385.01 145 385.01 143.55 385.01C141.34 385.01 139.55 383.22 139.55 381.01C139.55 372.22 139.55 301.87 139.55 293.08C139.55 290.87 141.34 289.08 143.55 289.08C146.45 289.08 156.59 289.08 158.04 289.08Z" id="b1A6hMd1vX"></path><path d="M125.56 288.58C127.77 288.58 129.56 290.37 129.56 292.58C129.56 301.37 129.56 371.72 129.56 380.51C129.56 382.72 127.77 384.51 125.56 384.51C124.11 384.51 112.52 384.51 111.07 384.51C108.86 384.51 107.08 382.72 107.08 380.51C107.08 371.72 107.08 301.37 107.08 292.58C107.08 290.37 108.86 288.58 111.07 288.58C113.97 288.58 124.11 288.58 125.56 288.58Z" id="a19J2x98cW"></path></defs><g><g><use xlink:href="#a4oKrSdMXU" opacity="1" fill="#000000" fill-opacity="0"></use><g><use xlink:href="#a4oKrSdMXU" opacity="1" fill-opacity="0" stroke="#000000" stroke-width="1" stroke-opacity="0"></use></g></g><g><use xlink:href="#dMUR2dLQX" opacity="1" fill="#ffffff" fill-opacity="1"></use><g><use xlink:href="#dMUR2dLQX" opacity="1" fill-opacity="0" stroke="#000000" stroke-width="1" stroke-opacity="0"></use></g></g><g><use xlink:href="#g2uiY9EsbI" opacity="1" fill="#ffffff" fill-opacity="1"></use><g><use xlink:href="#g2uiY9EsbI" opacity="1" fill-opacity="0" stroke="#000000" stroke-width="1" stroke-opacity="0"></use></g></g><g><use xlink:href="#b7hhOyTaE" opacity="1" fill="#ffffff" fill-opacity="1"></use><g><use xlink:href="#b7hhOyTaE" opacity="1" fill-opacity="0" stroke="#000000" stroke-width="1" stroke-opacity="0"></use></g></g><g><use xlink:href="#b1AnHndBGu" opacity="1" fill="#ffffff" fill-opacity="1"></use><g><use xlink:href="#b1AnHndBGu" opacity="1" fill-opacity="0" stroke="#000000" stroke-width="1" stroke-opacity="0"></use></g></g><g><use xlink:href="#avEFuSRt" opacity="1" fill="#ffffff" fill-opacity="1"></use><g><use xlink:href="#avEFuSRt" opacity="1" fill-opacity="0" stroke="#000000" stroke-width="1" stroke-opacity="0"></use></g></g><g><use xlink:href="#aV6evyezZ" opacity="1" fill="#6cdb56" fill-opacity="1"></use><g><use xlink:href="#aV6evyezZ" opacity="1" fill-opacity="0" stroke="#000000" stroke-width="1" stroke-opacity="0"></use></g></g><g><use xlink:href="#b1A6hMd1vX" opacity="1" fill="#6cdb56" fill-opacity="1"></use><g><use xlink:href="#b1A6hMd1vX" opacity="1" fill-opacity="0" stroke="#000000" stroke-width="1" stroke-opacity="0"></use></g></g><g><use xlink:href="#a19J2x98cW" opacity="1" fill="#6cdb56" fill-opacity="1"></use><g><use xlink:href="#a19J2x98cW" opacity="1" fill-opacity="0" stroke="#000000" stroke-width="1" stroke-opacity="0"></use></g></g></g></svg>