<?xml version="1.0" encoding="iso-8859-1"?>
<!-- Generator: Adobe Illustrator 21.0.0, SVG Export Plug-In . SVG Version: 6.00 Build 0)  -->
<svg xmlns="http://www.w3.org/2000/svg" xmlns:xlink="http://www.w3.org/1999/xlink" version="1.1" id="Capa_1" x="0px" y="0px" viewBox="0 0 511.979 511.979" style="enable-background:new 0 0 511.979 511.979;" xml:space="preserve" width="512" height="512">
<g>
	<path d="M330,255c0-24.813-20.187-45-45-45h-15v-35.729l24.876-12.438c1.105-0.553,2.393-0.495,3.444,0.155S300,163.764,300,165   c0,8.284,6.716,15,15,15s15-6.716,15-15c0-11.709-5.947-22.375-15.907-28.531c-9.961-6.157-22.162-6.706-32.634-1.469   l-19.751,9.875l-15.184-30.368C260.5,106.863,270,92.021,270,75c0-8.284-6.716-15-15-15s-15,6.716-15,15c0,8.271-6.729,15-15,15   h-60c-8.271,0-15-6.729-15-15c0-8.284-6.716-15-15-15s-15,6.716-15,15c0,17.021,9.5,31.863,23.476,39.508l-15.184,30.368   l-19.75-9.875c-10.474-5.237-22.673-4.688-32.634,1.468C65.947,142.625,60,153.291,60,165c0,8.284,6.716,15,15,15s15-6.716,15-15   c0-1.236,0.628-2.362,1.68-3.012c1.052-0.65,2.339-0.708,3.445-0.155l24.975,12.438V210H105c-24.813,0-45,20.187-45,45   c0,8.284,6.716,15,15,15s15-6.716,15-15c0-8.271,6.729-15,15-15h16.509c2.384,11.695,7.512,22.397,14.659,31.434   c-10.244,10.666-16.068,24.991-16.068,40.396V315c0,8.284,6.616,15,14.9,15s15-6.716,15-15v-3.171   c0-8.136,3.397-15.654,9.193-20.945C169.84,296.694,182.041,300,195,300s25.16-3.306,35.807-9.116   c5.796,5.291,9.293,12.809,9.293,20.945V315c0,8.284,6.616,15,14.9,15s15-6.716,15-15v-3.171c0-15.405-5.924-29.73-16.168-40.396   c7.147-9.036,12.275-19.738,14.659-31.433H285c8.271,0,15,6.729,15,15c0,8.284,6.716,15,15,15S330,263.284,330,255z M215.729,120   l15,30h-71.459l15-30H215.729z M150,225v-45h30.1v87.42C162.641,261.228,150,244.555,150,225z M210,180h30.1v45   c0,19.555-12.641,36.228-30.1,42.42V180z"/>
	<path d="M195,0C87.477,0,0,87.477,0,195s87.477,195,195,195c37.494,0,72.544-10.647,102.304-29.062   c7.998,7.998,129.9,129.9,137.883,137.882c17.544,17.544,46.09,17.544,63.635,0c17.543-17.544,17.543-46.091,0-63.635   L360.938,297.304C379.353,267.544,390,232.494,390,195C390,87.477,302.523,0,195,0z M30,195c0-90.981,74.019-165,165-165   s165,74.019,165,165s-74.019,165-165,165S30,285.982,30,195z M477.608,477.608c-5.848,5.848-15.362,5.846-21.209,0l-81.397-81.397   l21.209-21.209l81.397,81.397C483.456,462.246,483.455,471.76,477.608,477.608z M374.998,353.789l-21.209,21.209l-31.983-31.983   c7.598-6.519,14.69-13.611,21.209-21.209L374.998,353.789z"/>
</g>















</svg>
