<?xml version="1.0" encoding="iso-8859-1"?>
<!-- Generator: Adobe Illustrator 19.0.0, SVG Export Plug-In . SVG Version: 6.00 Build 0)  -->
<svg version="1.1" id="Capa_1" xmlns="http://www.w3.org/2000/svg" xmlns:xlink="http://www.w3.org/1999/xlink" x="0px" y="0px"
	 viewBox="0 0 512 512" style="enable-background:new 0 0 512 512;" xml:space="preserve">
<g>
	<g>
		<path d="M262.78,57.853c-5.042-2.556-11.091-2.059-15.65,1.284l-116.54,85.462H15c-8.284,0-15,6.716-15,15V352.4
			c0,8.284,6.716,15,15,15h115.59l116.54,85.462c2.622,1.924,5.738,2.904,8.872,2.904c2.313,0,4.637-0.535,6.778-1.62
			c5.043-2.555,8.221-7.728,8.221-13.38V71.233C271.001,65.58,267.823,60.408,262.78,57.853z M241,411.165l-96.629-70.861
			c-2.573-1.887-5.68-2.904-8.871-2.904H30V174.599h105.5c3.19,0,6.298-1.018,8.871-2.904L241,100.833V411.165z"/>
	</g>
</g>
<g>
	<g>
		<path d="M445.913,256.002l61.693-61.693c5.858-5.857,5.858-15.355,0-21.213c-5.857-5.857-15.355-5.857-21.213,0L424.7,234.789
			l-61.693-61.693c-5.857-5.857-15.355-5.857-21.213,0c-5.858,5.857-5.858,15.355,0,21.213l61.693,61.693l-61.693,61.693
			c-5.858,5.857-5.858,15.355,0,21.213c2.929,2.929,6.768,4.393,10.606,4.393c3.838,0,7.678-1.465,10.606-4.393l61.693-61.693
			l61.693,61.693c2.929,2.929,6.768,4.393,10.606,4.393c3.838,0,7.678-1.465,10.606-4.393c5.858-5.857,5.858-15.355,0-21.213
			L445.913,256.002z"/>
	</g>
</g>
<g>
</g>
<g>
</g>
<g>
</g>
<g>
</g>
<g>
</g>
<g>
</g>
<g>
</g>
<g>
</g>
<g>
</g>
<g>
</g>
<g>
</g>
<g>
</g>
<g>
</g>
<g>
</g>
<g>
</g>
</svg>
