<?xml version="1.0"?>
<svg xmlns="http://www.w3.org/2000/svg" xmlns:xlink="http://www.w3.org/1999/xlink" xmlns:svgjs="http://svgjs.com/svgjs" version="1.1" width="512" height="512" x="0" y="0" viewBox="0 0 493.52 493.52" style="enable-background:new 0 0 512 512" xml:space="preserve" class=""><g>
<g xmlns="http://www.w3.org/2000/svg">
	<g>
		<path d="M447.126,0.236c-10.056,0-20.884,4.12-32.148,11.884L140.882,200.952c-17.644,12.152-27.252,28.504-27.252,46.06    c-0.004,17.56,9.78,33.924,27.428,46.076L415.39,481.784c11.284,7.768,22.568,11.736,32.604,11.736h0.012    c10.76,0,18.916-4.404,25.276-12.972c6.268-8.46,8.688-20.476,8.688-35.012V48.508C481.974,18.74,469.186,0.236,447.126,0.236z" fill="#dad4e0" data-original="#000000" style="" class=""/>
	</g>
</g>
<g xmlns="http://www.w3.org/2000/svg">
	<g>
		<path d="M53.106,0.036L39.894,0C25.018,0,11.55,12.112,11.55,26.996v439.42c0,14.884,13.024,27.1,27.908,27.1h0.456l12.948-0.072    c14.88,0,28.092-12.164,28.092-27.048V27.028C80.958,12.144,67.97,0.036,53.106,0.036z" fill="#dad4e0" data-original="#000000" style="" class=""/>
	</g>
</g>
<g xmlns="http://www.w3.org/2000/svg">
</g>
<g xmlns="http://www.w3.org/2000/svg">
</g>
<g xmlns="http://www.w3.org/2000/svg">
</g>
<g xmlns="http://www.w3.org/2000/svg">
</g>
<g xmlns="http://www.w3.org/2000/svg">
</g>
<g xmlns="http://www.w3.org/2000/svg">
</g>
<g xmlns="http://www.w3.org/2000/svg">
</g>
<g xmlns="http://www.w3.org/2000/svg">
</g>
<g xmlns="http://www.w3.org/2000/svg">
</g>
<g xmlns="http://www.w3.org/2000/svg">
</g>
<g xmlns="http://www.w3.org/2000/svg">
</g>
<g xmlns="http://www.w3.org/2000/svg">
</g>
<g xmlns="http://www.w3.org/2000/svg">
</g>
<g xmlns="http://www.w3.org/2000/svg">
</g>
<g xmlns="http://www.w3.org/2000/svg">
</g>
</g></svg>
