<?xml version="1.0"?>
<svg xmlns="http://www.w3.org/2000/svg" height="512px" viewBox="0 0 128 128" width="512px" class=""><g><g><path d="m61 15.5h6v35h-6z" fill="#bcbcc1" data-original="#BCBCC1" class=""/><path d="m52 69.815h24v16.685h-24z" fill="#bcbcc1" data-original="#BCBCC1" class=""/><path d="m91.559 41.882h12.249v23.538h-12.249z" fill="#7984eb" data-original="#7984EB" class="active-path" style="fill:#14AAD9" data-old_color="#7984eb"/><path d="m24.192 41.882h12.249v23.538h-12.249z" fill="#7984eb" data-original="#7984EB" class="active-path" style="fill:#14AAD9" data-old_color="#7984eb"/><rect fill="#eaeaf0" height="39.808" rx="6" width="63.833" x="32.083" y="33.747" data-original="#EAEAF0" class="" style="fill:#EAEAF0"/><path d="m97.808 82.371h-67.616a6 6 0 0 0 -6 6v33.129h79.616v-33.129a6 6 0 0 0 -6-6z" fill="#eaeaf0" data-original="#EAEAF0" class="" style="fill:#EAEAF0"/><g fill="#bcbcc1"><circle cx="47.501" cy="49.648" r="6" data-original="#BCBCC1" class=""/><circle cx="80.499" cy="49.648" r="6" data-original="#BCBCC1" class=""/></g><circle cx="64" cy="15.5" fill="#7984eb" r="9" data-original="#7984EB" class="active-path" style="fill:#14AAD9" data-old_color="#7984eb"/><path d="m74.375 66.625h-20.75a1.75 1.75 0 0 1 0-3.5h20.75a1.75 1.75 0 0 1 0 3.5z" fill="#bcbcc1" data-original="#BCBCC1" class=""/><path d="m41.501 103.563h44.998v17.937h-44.998z" fill="#7984eb" data-original="#7984EB" class="active-path" style="fill:#14AAD9" data-old_color="#7984eb"/><g fill="#bcbcc1"><circle cx="94.808" cy="91.371" r="3" data-original="#BCBCC1" class=""/><circle cx="33.192" cy="91.371" r="3" data-original="#BCBCC1" class=""/></g></g></g> </svg>
