<?xml version="1.0" encoding="iso-8859-1"?>
<!-- Generator: Adobe Illustrator 19.0.0, SVG Export Plug-In . SVG Version: 6.00 Build 0)  -->
<svg version="1.1" id="Layer_1" xmlns="http://www.w3.org/2000/svg" xmlns:xlink="http://www.w3.org/1999/xlink" x="0px" y="0px"
	 viewBox="0 0 512 512" style="enable-background:new 0 0 512 512;" xml:space="preserve">
<g>
	<path style="fill:#38454F;" d="M185.379,384v17.655h141.241V384H476.69V101.517c0-9.754-7.901-17.655-17.655-17.655H52.966
		c-9.754,0-17.655,7.901-17.655,17.655V384H185.379z"/>
	<path style="fill:#B0B6BB;" d="M326.621,384v17.655H185.379V384H0v26.483c0,9.754,7.901,17.655,17.655,17.655h476.69
		c9.754,0,17.655-7.901,17.655-17.655V384H326.621z"/>
	<polygon style="fill:#546A79;" points="52.966,366.345 459.034,366.345 459.034,101.517 52.966,101.517 	"/>
	<g>
		<path style="fill:#25AE88;" d="M291.31,348.69c-4.882,0-8.828-3.955-8.828-8.828v-26.483c0-4.873,3.946-8.828,8.828-8.828
			c4.882,0,8.828,3.955,8.828,8.828v26.483C300.138,344.735,296.192,348.69,291.31,348.69"/>
		<path style="fill:#25AE88;" d="M326.621,348.69c-4.882,0-8.828-3.955-8.828-8.828v-61.793c0-4.873,3.946-8.828,8.828-8.828
			c4.882,0,8.828,3.955,8.828,8.828v61.793C335.448,344.735,331.502,348.69,326.621,348.69"/>
		<path style="fill:#25AE88;" d="M361.931,348.69c-4.882,0-8.828-3.955-8.828-8.828v-44.138c0-4.873,3.946-8.828,8.828-8.828
			c4.882,0,8.828,3.955,8.828,8.828v44.138C370.759,344.735,366.813,348.69,361.931,348.69"/>
		<path style="fill:#25AE88;" d="M397.241,348.69c-4.882,0-8.828-3.955-8.828-8.828V233.931c0-4.873,3.946-8.828,8.828-8.828
			c4.882,0,8.828,3.955,8.828,8.828v105.931C406.069,344.735,402.123,348.69,397.241,348.69"/>
		<path style="fill:#25AE88;" d="M432.552,348.69c-4.882,0-8.828-3.955-8.828-8.828v-70.621c0-4.873,3.946-8.828,8.828-8.828
			c4.882,0,8.828,3.955,8.828,8.828v70.621C441.379,344.735,437.433,348.69,432.552,348.69"/>
	</g>
	<path style="fill:#DD691D;" d="M256,220.69c0,51.191-41.498,92.69-92.69,92.69s-92.69-41.498-92.69-92.69S112.119,128,163.31,128
		S256,169.498,256,220.69"/>
	<path style="fill:#ECBA16;" d="M159.017,128.097c-0.044,0.044-0.071,0.079-0.124,0.124v96.556c0,0.185,0.15,0.327,0.327,0.327
		h96.556c0.044-0.044,0.079-0.071,0.124-0.124C258.363,170.399,213.598,125.634,159.017,128.097"/>
	<g>
		<path style="fill:#DD691D;" d="M388.414,180.966h-70.621c-4.882,0-8.828-3.955-8.828-8.828c0-4.873,3.946-8.828,8.828-8.828
			h70.621c4.882,0,8.828,3.955,8.828,8.828C397.241,177.011,393.295,180.966,388.414,180.966"/>
		<path style="fill:#DD691D;" d="M432.552,180.966c-2.295,0-4.599-0.971-6.268-2.56c-0.353-0.441-0.794-0.883-1.059-1.324
			c-0.353-0.53-0.618-1.059-0.794-1.589c-0.265-0.53-0.441-1.059-0.53-1.589c-0.088-0.618-0.177-1.236-0.177-1.766
			c0-1.148,0.265-2.295,0.706-3.354c0.441-1.059,1.059-2.03,1.854-2.913c3.266-3.266,9.181-3.266,12.535,0
			c0.794,0.883,1.412,1.766,1.854,2.913c0.441,1.059,0.706,2.207,0.706,3.354c0,2.383-0.971,4.59-2.56,6.268
			C437.142,179.994,434.847,180.966,432.552,180.966"/>
		<path style="fill:#DD691D;" d="M432.552,136.828h-26.483c-4.882,0-8.828-3.955-8.828-8.828c0-4.873,3.946-8.828,8.828-8.828
			h26.483c4.882,0,8.828,3.955,8.828,8.828C441.379,132.873,437.433,136.828,432.552,136.828"/>
		<path style="fill:#DD691D;" d="M335.448,136.828h-17.655c-4.882,0-8.828-3.955-8.828-8.828c0-4.873,3.946-8.828,8.828-8.828
			h17.655c4.882,0,8.828,3.955,8.828,8.828C344.276,132.873,340.33,136.828,335.448,136.828"/>
		<path style="fill:#DD691D;" d="M370.759,136.828c-1.148,0-2.295-0.265-3.354-0.706c-1.148-0.441-2.03-1.059-2.913-1.854
			c-0.794-0.883-1.412-1.854-1.854-2.913c-0.53-1.059-0.706-2.207-0.706-3.354c0-1.148,0.177-2.295,0.706-3.354
			c0.441-1.148,1.059-2.03,1.854-2.913c0.883-0.794,1.766-1.412,2.913-1.854c3.266-1.324,7.15-0.618,9.622,1.854
			c0.794,0.883,1.412,1.766,1.854,2.913c0.441,1.059,0.706,2.207,0.706,3.354c0,1.148-0.265,2.295-0.706,3.354
			c-0.441,1.059-1.059,2.03-1.854,2.913C375.349,135.857,373.054,136.828,370.759,136.828"/>
	</g>
</g>
<g>
</g>
<g>
</g>
<g>
</g>
<g>
</g>
<g>
</g>
<g>
</g>
<g>
</g>
<g>
</g>
<g>
</g>
<g>
</g>
<g>
</g>
<g>
</g>
<g>
</g>
<g>
</g>
<g>
</g>
</svg>
