<?xml version="1.0" encoding="iso-8859-1" standalone="yes"?><!-- Generator: Adobe Illustrator 19.0.0, SVG Export Plug-In . SVG Version: 6.00 Build 0)  --><svg xmlns="http://www.w3.org/2000/svg" xmlns:xlink="http://www.w3.org/1999/xlink" version="1.1" id="Layer_1" x="0px" y="0px" viewBox="0 0 496 496" style="enable-background:new 0 0 496 496;zoom: 1;" xml:space="preserve"><g><path style="fill:#DAE8E8;" d="M88,161.6c-12.8,0-24,10.4-24,23.2v125.6c0,12.8,11.2,23.2,24,23.2s24-10.4,24-23.2V184.8 C112,172,100.8,161.6,88,161.6z"></path><path style="fill:#DAE8E8;" d="M168,161.6c-12.8,0-24,10.4-24,23.2v125.6c0,12.8,11.2,23.2,24,23.2s24-10.4,24-23.2V184.8 C192,172,180.8,161.6,168,161.6z"></path><path style="fill:#DAE8E8;" d="M240,161.6c-12.8,0-24,10.4-24,23.2v125.6c0,12.8,11.2,23.2,24,23.2c12.8,0,24-10.4,24-23.2V184.8 C264,172,252.8,161.6,240,161.6z"></path><path style="fill:#DAE8E8;" d="M312,161.6c-12.8,0-24,10.4-24,23.2v125.6c0,12.8,11.2,23.2,24,23.2s24-10.4,24-23.2V184.8 C336,172,324.8,161.6,312,161.6z"></path></g><path style="fill:#6CE205;" d="M80,334.4c-12.8,0-24-10.4-24-23.2V184.8c0-12.8,11.2-23.2,24-23.2s24,10.4,24,23.2v125.6 C104,324,92.8,334.4,80,334.4z"></path><path style="fill:#4AD102;" d="M56,184.8c0-12.8,11.2-23.2,24-23.2s24,10.4,24,23.2V312"></path><path style="fill:#6CE205;" d="M160,334.4c-12.8,0-24-10.4-24-23.2V184.8c0-12.8,11.2-23.2,24-23.2s24,10.4,24,23.2v125.6 C184,324,172.8,334.4,160,334.4z"></path><path style="fill:#4AD102;" d="M136,184.8c0-12.8,11.2-23.2,24-23.2s24,10.4,24,23.2V312"></path><path style="fill:#6CE205;" d="M232,334.4c-12.8,0-24-10.4-24-23.2V184.8c0-12.8,11.2-23.2,24-23.2s24,10.4,24,23.2v125.6 C256,324,244.8,334.4,232,334.4z"></path><path style="fill:#4AD102;" d="M208,184.8c0-12.8,11.2-23.2,24-23.2s24,10.4,24,23.2V312"></path><path style="fill:#6CE205;" d="M304,334.399994 c-12.8,0 -24,-10.4 -24,-23.2 V184.800003 c0,-12.8 11.2,-23.2 24,-23.2 s24,10.4 24,23.2 v125.6 C328,324 316.799988,334.399994 304,334.399994  z "></path><path style="fill:#4AD102;" d="M280,184.8c0-12.8,11.2-23.2,24-23.2s24,10.4,24,23.2V312"></path><g></g><g></g><g></g><g></g><g></g><g></g><g></g><g></g><g></g><g></g><g></g><g></g><g></g><g></g><g></g></svg>