<svg id="chat" enable-background="new 0 0 300 300" height="512" viewBox="0 0 300 300" width="512" xmlns="http://www.w3.org/2000/svg"><g><path d="m219.656 195.442c-1.562-1.562-4.094-1.562-5.656 0l-2.828 2.828-2.828-2.828c-1.562-1.562-4.094-1.562-5.656 0s-1.562 4.094 0 5.656l2.828 2.828-2.828 2.828c-1.562 1.562-1.562 4.094 0 5.656.781.781 1.805 1.172 2.828 1.172s2.047-.391 2.828-1.172l2.828-2.828 2.828 2.828c.781.781 1.805 1.172 2.828 1.172s2.047-.391 2.828-1.172c1.562-1.562 1.562-4.094 0-5.656l-2.828-2.828 2.828-2.828c1.563-1.562 1.563-4.093 0-5.656z"/><path d="m256.828 171.927 2.828-2.828c1.562-1.562 1.562-4.094 0-5.656s-4.094-1.562-5.656 0l-2.828 2.828-2.828-2.828c-1.562-1.562-4.094-1.562-5.656 0s-1.562 4.094 0 5.656l2.828 2.828-2.828 2.828c-1.562 1.562-1.562 4.094 0 5.656.781.781 1.805 1.172 2.828 1.172s2.047-.391 2.828-1.172l2.828-2.828 2.828 2.828c.781.781 1.805 1.172 2.828 1.172s2.047-.391 2.828-1.172c1.562-1.562 1.562-4.094 0-5.656z"/><circle cx="61.172" cy="73.927" r="6"/><circle cx="77.172" cy="73.927" r="6"/><circle cx="93.172" cy="73.927" r="6"/><path d="m63.172 171.927c0 9.635 3.189 19.008 9.027 26.658l-4.742 11.857c-.578 1.445-.264 3.096.805 4.229.768.814 1.826 1.256 2.91 1.256.424 0 .85-.066 1.266-.205l14.408-4.803c6.279 3.281 13.268 5.008 20.326 5.008 24.262 0 44-19.738 44-44s-19.738-44-44-44-44 19.738-44 44zm80 0c0 19.85-16.15 36-36 36-6.264 0-12.467-1.666-17.936-4.82-.613-.354-1.305-.535-1.998-.535-.426 0-.854.068-1.266.205l-7.885 2.629 2.41-6.025c.551-1.381.291-2.953-.676-4.084-5.578-6.523-8.65-14.822-8.65-23.369 0-19.85 16.15-36 36-36s36.001 16.149 36.001 35.999z"/><circle cx="105.172" cy="253.927" r="10"/><path d="m219.172 115.927c1.426 0 2.744-.76 3.459-1.992.717-1.232.721-2.754.014-3.992l-48-84c-1.422-2.492-5.523-2.492-6.945 0l-14.848 25.984h-97.19c-9.092 0-16.49 7.398-16.49 16.49v191.027c0 9.088 7.398 16.482 16.49 16.482h103.02c9.092 0 16.49-7.395 16.49-16.482v-143.517zm-48-79.938 41.107 71.938h-82.215zm-12.49 231.938h-103.02c-4.682 0-8.49-3.805-8.49-8.482v-19.518h120v19.518c0 4.677-3.809 8.482-8.49 8.482zm8.49-36h-120v-163.51c0-4.682 3.809-8.49 8.49-8.49h92.617l-28.58 50.016c-.707 1.238-.703 2.76.014 3.992.715 1.232 2.033 1.992 3.459 1.992h44z"/><path d="m171.172 87.927c2.209 0 4-1.791 4-4v-28c0-2.209-1.791-4-4-4s-4 1.791-4 4v28c0 2.209 1.791 4 4 4z"/><path d="m83.172 155.927c0 2.209 1.791 4 4 4h28c2.209 0 4-1.791 4-4s-1.791-4-4-4h-28c-2.209 0-4 1.791-4 4z"/><path d="m83.172 167.927c0 2.209 1.791 4 4 4h36c2.209 0 4-1.791 4-4s-1.791-4-4-4h-36c-2.209 0-4 1.791-4 4z"/><path d="m95.172 175.927h-8c-2.209 0-4 1.791-4 4s1.791 4 4 4h8c2.209 0 4-1.791 4-4s-1.791-4-4-4z"/><path d="m107.172 175.927c-2.209 0-4 1.791-4 4s1.791 4 4 4h20c2.209 0 4-1.791 4-4s-1.791-4-4-4z"/><path d="m198.375 158.009c-2.461-.033-4.936-.258-7.35-.668-2.191-.373-4.244 1.098-4.613 3.273-.369 2.18 1.096 4.244 3.273 4.613 2.82.479 5.707.742 8.58.781h.057c2.182 0 3.967-1.754 3.998-3.945.03-2.209-1.736-4.023-3.945-4.054z"/><path d="m225.959 149.798c-4.045 2.738-8.467 4.83-13.146 6.219-2.117.627-3.324 2.854-2.695 4.973.516 1.738 2.107 2.863 3.832 2.863.377 0 .76-.055 1.141-.168 5.463-1.621 10.629-4.064 15.354-7.262 1.83-1.238 2.309-3.725 1.07-5.555-1.242-1.83-3.722-2.31-5.556-1.07z"/><path d="m245.715 98.575c.49 2.006.855 4.078 1.084 6.156.197 1.779.297 3.578.297 5.354.002 1.004-.031 2.004-.094 2.994-.139 2.205 1.535 4.105 3.738 4.246.088.006.172.008.258.008 2.094 0 3.854-1.629 3.988-3.746.074-1.166.111-2.338.109-3.51 0-2.061-.115-4.154-.344-6.225-.27-2.422-.695-4.836-1.268-7.176-.523-2.146-2.691-3.455-4.834-2.936-2.145.525-3.46 2.689-2.934 4.835z"/><path d="m251.348 130.171c.797-2.061-.227-4.377-2.287-5.174-2.057-.797-4.377.227-5.174 2.287-1.76 4.549-4.197 8.795-7.246 12.623-1.377 1.729-1.092 4.246.637 5.621.736.586 1.615.871 2.49.871 1.176 0 2.342-.516 3.131-1.508 3.552-4.462 6.396-9.415 8.449-14.72z"/><path d="m243.58 87.058c.707 0 1.422-.188 2.07-.58 1.889-1.146 2.492-3.605 1.346-5.494-2.951-4.865-6.621-9.242-10.904-13.012-1.66-1.457-4.188-1.295-5.646.361-1.459 1.66-1.297 4.188.361 5.646 3.674 3.23 6.82 6.984 9.35 11.152.751 1.241 2.072 1.927 3.423 1.927z"/><path d="m211.52 63.632c2.371.637 4.713 1.463 6.959 2.457.527.232 1.076.344 1.617.344 1.535 0 2.998-.889 3.66-2.383.895-2.021-.02-4.383-2.039-5.277-2.623-1.16-5.357-2.125-8.127-2.867-2.131-.574-4.326.695-4.898 2.828s.693 4.326 2.828 4.898z"/><circle cx="171.172" cy="95.927" r="4"/></g></svg>