<?xml version="1.0" standalone="yes"?><svg xmlns="http://www.w3.org/2000/svg" width="2500" height="2500" viewBox="0 0 192.756 192.756" style="zoom: 1;"><g fill-rule="evenodd" clip-rule="evenodd"><path d="M8.504 67.394v58.042H16.5V97.303h4.063v28.133h7.996V67.394h-7.996v24.055H16.5V67.394H8.504zM47.428 67.394H32.556v58.042h14.872v-5.854h-6.876V97.303h6.876v-5.854h-6.876v-18.2h6.876v-5.855zM58.912 91.449h2.073c1.147 0 1.74-.846 1.74-1.918V74.982c0-1.012-.568-1.734-1.48-1.734h-2.333v18.201zm7.478 2.597c.741.463 4.535 1.74 4.516 6.329v18.213c0 3.16.703 6.107 1.185 6.848h-7.996c-.814-1.332-1.481-4.33-1.481-7.625v-17.398c0-2.061-.432-3.109-1.554-3.109h-2.147v28.133h-7.995V67.394H62.91c5.146 0 8.106 2.949 8.106 7.958V86.42c.001 6.701-4.33 7.219-4.626 7.626zM81.863 103.744h-8.069v12.809c0 7.945 4.343 9.18 10.438 9.18 6.589 0 9.995-3.01 9.995-10.068v-11.031c0-9.106-12.068-13.77-12.068-18.804V74.612c0-1.481.833-1.833 1.758-1.833.889 0 1.647.277 1.647 1.833v12.327h7.995V75.315c0-6.12-3.331-8.292-9.698-8.292-6.959 0-9.994 3.109-9.994 8.884v9.847c0 10.159 12.067 13.771 12.067 19.544v12.289c0 1.557-.925 2-1.851 2-1 0-2.221-.223-2.221-2.035v-13.808h.001zM96.753 67.394v58.042h7.995V97.303h4.063v28.133h7.996V67.394h-7.996v24.055h-4.063V67.394h-7.995zM135.678 67.394h-14.873v58.042h14.873v-5.854h-6.877V97.303h6.877v-5.854h-6.877v-18.2h6.877v-5.855zM150.65 97.303v28.133h-7.996V97.303l-6.746-29.909h7.996l3.405 19.693 3.849-19.693h5.924l-6.432 29.909zM164.338 67.394l-3.111 11.549h-4.811l2.516-11.549h5.406zM171.889 103.744h-8.07v12.809c0 7.945 4.344 9.18 10.439 9.18 6.588 0 9.994-3.01 9.994-10.068v-11.031c0-9.106-12.068-13.77-12.068-18.804V74.612c0-1.481.834-1.833 1.76-1.833.889 0 1.646.277 1.646 1.833v12.327h7.996V75.315c0-6.12-3.332-8.292-9.699-8.292-6.959 0-9.994 3.109-9.994 8.884v9.847c0 10.159 12.068 13.771 12.068 19.544v12.289c0 1.557-.926 2-1.852 2-1 0-2.221-.223-2.221-2.035v-13.808h.001zM158.029 120.588c1.24 0 2.203.99 2.203 2.273 0 1.312-.963 2.303-2.203 2.303-1.256 0-2.217-.99-2.217-2.303 0-1.283.961-2.273 2.217-2.273v-.395c-1.471 0-2.705 1.154-2.705 2.668 0 1.543 1.234 2.697 2.705 2.697a2.673 2.673 0 0 0 2.689-2.697c0-1.514-1.227-2.668-2.689-2.668v.395z"></path><path d="M157.469 121.699h.646c.33 0 .689.064.689.48 0 .496-.395.518-.826.518h-.51v.395h.518l.854 1.348h.523l-.896-1.385c.467-.049.824-.287.824-.854 0-.602-.352-.896-1.096-.896h-1.213v3.135h.486v-2.741h.001z"></path></g></svg>