<?xml version="1.0" encoding="iso-8859-1"?>
<!-- Generator: Adobe Illustrator 19.0.0, SVG Export Plug-In . SVG Version: 6.00 Build 0)  -->
<svg version="1.1" id="Capa_1" xmlns="http://www.w3.org/2000/svg" xmlns:xlink="http://www.w3.org/1999/xlink" x="0px" y="0px"
	 viewBox="0 0 496.485 496.485" style="enable-background:new 0 0 496.485 496.485;" xml:space="preserve">
<circle style="fill:#FDBF5E;" cx="248.242" cy="232.727" r="232.727"/>
<path style="fill:#FFFFFF;" d="M377.018,235.055c0-76.024-65.939-136.533-143.515-128c-59.733,6.982-107.83,55.855-114.036,115.588
	c-5.43,53.527,23.273,101.624,65.939,125.673c7.758,3.879,12.412,11.636,12.412,20.17v75.248l44.994,42.667
	c3.103,2.327,6.982,2.327,10.085,0l44.994-42.667v-75.248c0-8.533,4.655-16.291,12.412-20.17
	C350.642,326.594,377.018,283.927,377.018,235.055z"/>
<path style="fill:#193651;" d="M248.242,496.485c-3.879,0-7.758-1.551-10.085-3.879l-44.994-42.667
	c-1.552-1.552-2.327-3.879-2.327-5.43v-75.248c0-5.43-3.103-10.861-8.533-13.964c-47.321-26.376-75.248-78.352-69.818-132.655
	c6.206-64.388,56.63-115.588,120.242-122.57c5.43-0.776,10.085-0.776,15.515-0.776c75.249,0,136.533,61.285,136.533,136.533
	c0,49.648-27.152,95.418-70.594,119.467c-5.43,3.103-8.533,7.758-8.533,13.964v75.248c0,2.327-0.776,3.879-2.327,5.43
	l-44.994,42.667C256,494.933,252.121,496.485,248.242,496.485z M206.352,440.63l41.891,40.339l41.891-40.339v-71.37
	c0-10.861,6.206-21.721,16.291-27.152c38.788-21.721,62.836-62.061,62.836-106.279c0-66.715-54.303-121.018-121.018-121.018
	c-4.655,0-9.309,0-13.964,0.776c-56.63,6.206-101.624,51.976-107.055,108.606c-3.879,47.321,20.17,93.867,62.061,117.139
	c10.085,5.43,16.291,16.291,16.291,27.152v72.145H206.352z"/>
<path style="fill:#2EA2DB;" d="M227.297,428.994v-59.733c0-18.618-10.085-36.461-27.152-45.77
	c-34.909-19.394-55.079-57.406-51.2-97.745c4.655-46.545,41.891-84.558,88.436-89.988c3.879-0.776,7.758-0.776,11.636-0.776
	c55.079,0,100.073,44.994,100.073,100.073c0,36.461-20.17,69.818-51.976,87.661c-17.067,9.309-27.151,27.152-27.151,45.77v59.733
	l-20.945,23.273L227.297,428.994z"/>
<path style="fill:#E1E6E9;" d="M198.594,375.467v68.267l44.994,42.667c3.103,2.327,6.982,2.327,10.085,0l44.994-42.667v-68.267"/>
<g>
	<path style="fill:#193651;" d="M248.242,496.485c-3.879,0-7.758-1.551-10.085-3.879l-44.994-42.667
		c-1.552-1.552-2.327-3.879-2.327-5.43v-68.267c0-4.655,3.103-7.758,7.758-7.758c4.655,0,7.758,3.103,7.758,7.758v64.388
		l41.891,40.339l41.891-40.339v-64.388c0-4.655,3.103-7.758,7.758-7.758s7.758,3.103,7.758,7.758v68.267
		c0,2.327-0.776,3.879-2.327,5.43l-44.994,42.667C256,494.933,252.121,496.485,248.242,496.485z"/>
	<path style="fill:#193651;" d="M221.091,465.455l22.497,21.721c3.103,2.327,6.982,2.327,10.085,0l22.497-21.721H221.091z"/>
	<path style="fill:#193651;" d="M248.242,496.485c-3.879,0-7.758-1.551-10.085-3.879l-22.497-21.721
		c-2.327-2.327-3.103-5.43-1.552-8.533s3.879-4.655,6.982-4.655h55.079c3.103,0,6.206,1.552,6.982,4.655
		c1.552,3.103,0.776,6.206-1.552,8.533l-22.497,21.721C256,494.933,252.121,496.485,248.242,496.485z M240.485,473.212l7.758,7.758
		l7.758-7.758H240.485z"/>
</g>
<path style="fill:#FFFFFF;" d="M323.491,217.212c-6.206-28.703-28.703-51.2-57.406-57.406c-4.655-0.776-9.309,2.327-9.309,6.982l0,0
	c0,3.103,2.327,6.206,5.43,6.982c23.273,5.43,41.115,23.273,46.545,46.545c0.776,3.103,3.879,5.43,6.982,5.43
	C321.164,226.521,324.267,221.867,323.491,217.212z"/>
<g>
	<path style="fill:#193651;" d="M447.612,250.57h-33.358c-4.655,0-7.758-3.103-7.758-7.758s3.103-7.758,7.758-7.758h33.358
		c4.655,0,7.758,3.103,7.758,7.758C455.37,246.691,452.267,250.57,447.612,250.57z"/>
	<path style="fill:#193651;" d="M81.455,250.57H48.097c-4.655,0-7.758-3.103-7.758-7.758s3.103-7.758,7.758-7.758h33.358
		c4.655,0,7.758,3.103,7.758,7.758C89.212,246.691,86.109,250.57,81.455,250.57z"/>
</g>
<path style="fill:#193651;" d="M401.842,201.697c-0.776-3.879,1.552-8.533,5.43-9.309l31.806-8.533
	c3.879-0.776,8.533,1.552,9.309,5.43s-1.552,8.533-5.43,9.309l-31.806,8.533C407.273,207.903,402.618,205.576,401.842,201.697z"/>
<path style="fill:#193651;" d="M48.097,296.339c-1.552-3.879,0.776-8.533,5.43-9.309l31.806-8.533
	c3.879-0.776,8.533,1.552,9.309,5.43s-1.552,8.533-5.43,9.309l-31.806,8.533C53.527,302.545,48.873,300.218,48.097,296.339z"/>
<path style="fill:#193651;" d="M385.552,162.909c-2.327-3.879-0.776-8.533,3.103-10.861l28.703-16.291
	c3.879-2.327,8.533-0.776,10.861,3.103c2.327,3.879,0.776,8.533-3.103,10.861l-28.703,16.291
	C392.533,168.339,387.879,166.788,385.552,162.909z"/>
<path style="fill:#193651;" d="M68.267,345.988c-2.327-3.879-0.776-8.533,3.103-10.861l28.703-16.291
	c3.879-2.327,8.533-0.776,10.861,3.103s0.776,8.533-3.103,10.861l-28.703,16.291C75.248,351.418,70.594,349.867,68.267,345.988z"/>
<path style="fill:#193651;" d="M360.727,130.327c-3.103-3.103-3.103-7.758,0-10.861L384,96.194c3.103-3.103,7.758-3.103,10.861,0
	c3.103,3.103,3.103,7.758,0,10.861l-23.273,23.273C368.485,133.43,363.83,133.43,360.727,130.327z"/>
<path style="fill:#193651;" d="M101.624,389.43c-3.103-3.103-3.103-7.758,0-10.861l23.273-23.273c3.103-3.103,7.758-3.103,10.861,0
	c3.103,3.103,3.103,7.758,0,10.861l-23.273,23.273C109.382,392.533,104.727,392.533,101.624,389.43z"/>
<path style="fill:#193651;" d="M327.37,104.727c-3.879-2.327-4.655-6.982-3.103-10.861l17.067-27.927
	c2.327-3.879,6.982-4.655,10.861-3.103c3.879,2.327,4.655,6.982,3.103,10.861L339.006,102.4
	C335.903,105.503,331.249,107.055,327.37,104.727z"/>
<g>
	<path style="fill:#193651;" d="M289.358,89.212c-3.879-0.776-6.982-5.43-5.43-9.309l8.533-31.806
		c0.776-3.879,5.43-6.982,9.309-5.43c3.879,0.776,6.982,5.43,5.43,9.309l-8.533,31.806
		C297.891,87.661,293.236,89.988,289.358,89.212z"/>
	<path style="fill:#193651;" d="M248.242,83.782c-4.655,0-7.758-3.103-7.758-7.758V42.667c0-4.655,3.103-7.758,7.758-7.758
		S256,38.012,256,42.667v33.358C256,79.903,252.897,83.782,248.242,83.782z"/>
</g>
<path style="fill:#193651;" d="M197.818,83.782l-8.533-31.806c-0.776-3.879,1.552-8.533,5.43-9.309
	c3.879-0.776,8.533,1.552,9.309,5.43l8.533,31.806c0.776,3.879-1.552,8.533-5.43,9.309
	C203.248,89.988,198.594,87.661,197.818,83.782z"/>
<path style="fill:#193651;" d="M158.255,102.4l-16.291-28.703c-2.327-3.879-1.552-8.533,2.327-10.861
	c3.879-2.327,8.533-0.776,10.861,3.103l16.291,28.703c2.327,3.879,0.776,8.533-3.103,10.861
	C165.236,107.055,160.582,105.503,158.255,102.4z"/>
<path style="fill:#193651;" d="M124.897,130.327l-23.273-23.273c-3.103-3.103-3.103-7.758,0-10.861
	c3.103-3.103,7.758-3.103,10.861,0l23.273,23.273c3.103,3.103,3.103,7.758,0,10.861C132.655,133.43,128,133.43,124.897,130.327z"/>
<path style="fill:#193651;" d="M384,389.43l-23.273-23.273c-3.103-3.103-3.103-7.758,0-10.861c3.103-3.103,7.758-3.103,10.861,0
	l23.273,23.273c3.103,3.103,3.103,7.758,0,10.861C391.758,392.533,387.103,392.533,384,389.43z"/>
<path style="fill:#193651;" d="M100.073,166.012L71.37,149.721c-3.879-2.327-4.655-6.982-3.103-10.861
	c2.327-3.879,6.982-4.655,10.861-3.103l28.703,16.291c3.879,2.327,4.655,6.982,3.103,10.861
	C108.606,166.788,103.952,168.339,100.073,166.012z"/>
<path style="fill:#193651;" d="M417.358,349.091L388.655,332.8c-3.879-2.327-4.655-6.982-3.103-10.861
	c2.327-3.879,6.982-4.655,10.861-3.103l28.703,16.291c3.879,2.327,4.655,6.982,3.103,10.861
	C425.891,349.867,421.236,351.418,417.358,349.091z"/>
<path style="fill:#193651;" d="M85.333,207.127l-31.806-8.533c-3.879-0.776-6.982-5.43-5.43-9.309
	c0.776-3.879,5.43-6.982,9.309-5.43l31.806,8.533c3.879,0.776,6.982,5.43,5.43,9.309C93.867,205.576,89.212,207.903,85.333,207.127z
	"/>
<g>
	<path style="fill:#193651;" d="M439.079,301.77l-31.806-8.533c-3.879-0.776-6.982-5.43-5.43-9.309
		c0.776-3.879,5.43-6.982,9.309-5.43l31.806,8.533c3.879,0.776,6.982,5.43,5.43,9.309
		C447.612,300.218,442.958,302.545,439.079,301.77z"/>
	<path style="fill:#193651;" d="M241.261,299.442v76.024H256v-76.024l31.806-53.527c2.327-3.103,0.776-7.758-2.327-10.085
		s-7.758-0.776-10.085,2.327l-27.152,44.994l-27.152-44.994c-2.327-3.103-6.206-4.655-10.085-2.327
		c-3.103,2.327-4.655,6.206-2.327,10.085L241.261,299.442z"/>
	<path style="fill:#193651;" d="M311.079,384H185.406c-4.655,0-7.758-3.103-7.758-7.758s3.103-7.758,7.758-7.758h124.897
		c4.655,0,7.758,3.103,7.758,7.758C318.836,380.897,314.958,384,311.079,384z"/>
	<path style="fill:#193651;" d="M311.079,411.152H185.406c-4.655,0-7.758-3.103-7.758-7.758s3.103-7.758,7.758-7.758h124.897
		c4.655,0,7.758,3.103,7.758,7.758C318.836,407.273,314.958,411.152,311.079,411.152z"/>
	<path style="fill:#193651;" d="M311.079,437.527H185.406c-4.655,0-7.758-3.103-7.758-7.758s3.103-7.758,7.758-7.758h124.897
		c4.655,0,7.758,3.103,7.758,7.758C318.836,434.424,314.958,437.527,311.079,437.527z"/>
</g>
<g>
</g>
<g>
</g>
<g>
</g>
<g>
</g>
<g>
</g>
<g>
</g>
<g>
</g>
<g>
</g>
<g>
</g>
<g>
</g>
<g>
</g>
<g>
</g>
<g>
</g>
<g>
</g>
<g>
</g>
</svg>
