<?xml version="1.0" encoding="iso-8859-1"?>
<!-- Generator: Adobe Illustrator 19.0.0, SVG Export Plug-In . SVG Version: 6.00 Build 0)  -->
<svg version="1.1" id="Capa_1" xmlns="http://www.w3.org/2000/svg" xmlns:xlink="http://www.w3.org/1999/xlink" x="0px" y="0px"
	 viewBox="0 0 479.091 479.091" style="enable-background:new 0 0 479.091 479.091;" xml:space="preserve">
<g>
	<g>
		<path d="M202.1,85.818l-13.961-6.157c-0.633-2.344-1.32-4.563-2.086-6.703l7.758-13.359c1.414-2.443,1.438-5.449,0.063-7.914
			c-3.822-6.823-8.386-13.203-13.609-19.024c-1.936-2.181-4.911-3.125-7.75-2.461l-14.687,3.36
			c-1.711-1.367-3.497-2.685-5.359-3.953l-1.422-15.547c-0.264-2.841-2.02-5.326-4.609-6.523
			c-7.001-3.279-14.353-5.748-21.914-7.359c-2.852-0.607-5.807,0.394-7.703,2.609l-10.25,11.899h-6.156L90.163,2.786
			c-1.894-2.217-4.851-3.219-7.703-2.609c-7.561,1.612-14.913,4.081-21.914,7.359c-2.592,1.199-4.348,3.688-4.609,6.531
			l-1.422,15.539c-1.852,1.266-3.648,2.586-5.359,3.953L34.467,30.2c-2.839-0.666-5.815,0.279-7.75,2.461
			c-5.224,5.82-9.788,12.2-13.609,19.024c-1.375,2.465-1.351,5.471,0.063,7.914l7.758,13.359c-0.766,2.141-1.453,4.359-2.086,6.703
			L4.881,85.817c-2.898,1.281-4.767,4.151-4.766,7.32v21.734c-0.002,3.169,1.867,6.039,4.766,7.32l13.961,6.157
			c0.633,2.344,1.32,4.563,2.086,6.703l-7.758,13.359c-1.414,2.443-1.438,5.449-0.063,7.914c3.822,6.823,8.386,13.203,13.609,19.024
			c1.939,2.176,4.911,3.12,7.75,2.461l14.687-3.36c1.711,1.367,3.497,2.685,5.359,3.953l1.422,15.547
			c0.264,2.841,2.02,5.326,4.609,6.523c7.001,3.279,14.353,5.748,21.914,7.359c2.852,0.603,5.805-0.397,7.703-2.609l10.25-11.898
			h6.156l10.25,11.898c1.519,1.767,3.733,2.783,6.063,2.781c0.551,0.001,1.101-0.057,1.641-0.172
			c7.561-1.612,14.913-4.081,21.914-7.359c2.592-1.199,4.348-3.688,4.609-6.531l1.422-15.539c1.852-1.266,3.648-2.586,5.359-3.953
			l14.688,3.359c2.839,0.662,5.813-0.283,7.75-2.461c5.224-5.82,9.788-12.2,13.609-19.024c1.375-2.465,1.351-5.471-0.063-7.914
			l-7.758-13.359c0.766-2.141,1.453-4.359,2.086-6.703l13.961-6.156c2.898-1.281,4.767-4.151,4.766-7.32V93.138
			C206.867,89.969,204.998,87.098,202.1,85.818z M190.867,109.661l-12.773,5.633c-2.307,1.022-3.998,3.072-4.563,5.531
			c-0.897,4.053-2.136,8.023-3.703,11.867c-0.954,2.304-0.781,4.92,0.469,7.078l7.32,12.617c-1.911,3.035-4.001,5.954-6.258,8.742
			l-13.828-3.164c-2.514-0.59-5.157,0.08-7.086,1.797c-3.063,2.689-6.345,5.117-9.813,7.258c-2.134,1.322-3.523,3.57-3.75,6.07
			l-1.344,14.68c-3.193,1.296-6.459,2.405-9.781,3.32l-9.461-10.984c-1.52-1.765-3.733-2.78-6.063-2.781H96.748
			c-2.329,0.001-4.542,1.016-6.063,2.781l-9.461,10.984c-3.325-0.915-6.593-2.024-9.789-3.32l-1.344-14.695
			c-0.232-2.496-1.62-4.74-3.75-6.062c-3.467-2.135-6.747-4.561-9.805-7.25c-1.929-1.716-4.572-2.386-7.086-1.797l-13.828,3.164
			c-2.257-2.788-4.346-5.707-6.258-8.742l7.32-12.617c1.249-2.158,1.423-4.774,0.469-7.078c-1.567-3.844-2.806-7.814-3.703-11.867
			c-0.565-2.459-2.255-4.509-4.563-5.531l-12.773-5.633V98.349l12.774-5.633c2.307-1.022,3.998-3.072,4.563-5.531
			c0.897-4.053,2.136-8.023,3.703-11.867c0.954-2.304,0.781-4.92-0.469-7.078l-7.32-12.617c1.911-3.035,4-5.954,6.257-8.742
			l13.828,3.164c2.514,0.585,5.155-0.085,7.086-1.797c3.063-2.689,6.345-5.117,9.813-7.258c2.134-1.322,3.523-3.57,3.75-6.07
			l1.344-14.68c3.193-1.296,6.459-2.405,9.781-3.32l9.461,10.984c1.52,1.765,3.733,2.78,6.063,2.781h13.484
			c2.329-0.001,4.542-1.017,6.063-2.781l9.461-10.984c3.325,0.915,6.593,2.024,9.789,3.32l1.344,14.695
			c0.232,2.496,1.62,4.74,3.75,6.062c3.467,2.135,6.747,4.561,9.805,7.25c1.93,1.713,4.572,2.383,7.086,1.797l13.828-3.164
			c2.257,2.788,4.347,5.707,6.258,8.742l-7.32,12.617c-1.249,2.158-1.423,4.774-0.469,7.078c1.567,3.844,2.806,7.814,3.703,11.867
			c0.565,2.459,2.255,4.509,4.563,5.531l12.773,5.633V109.661z"/>
	</g>
</g>
<g>
	<g>
		<path d="M103.491,48.005c-30.928,0-56,25.072-56,56c0.037,30.912,25.088,55.963,56,56c30.928,0,56-25.072,56-56
			C159.491,73.077,134.419,48.005,103.491,48.005z M103.491,144.005c-22.091,0-40-17.909-40-40c0.026-22.081,17.919-39.974,40-40
			c22.091,0,40,17.909,40,40S125.582,144.005,103.491,144.005z"/>
	</g>
</g>
<g>
	<g>
		<path d="M474.202,71.63l-11.047-4.875c-0.43-1.547-0.898-3.031-1.398-4.477l6.156-10.609c1.414-2.446,1.438-5.454,0.063-7.922
			c-3.239-5.767-7.1-11.161-11.516-16.086c-1.935-2.177-4.905-3.122-7.742-2.461l-11.625,2.656
			c-1.141-0.891-2.313-1.755-3.516-2.594l-1.125-12.328c-0.258-2.844-2.015-5.335-4.609-6.531c-5.93-2.77-12.154-4.859-18.555-6.227
			c-2.852-0.609-5.809,0.392-7.703,2.609l-8.141,9.453h-3.906l-8.141-9.453c-1.893-2.219-4.851-3.221-7.703-2.609
			c-6.4,1.368-12.625,3.456-18.555,6.227c-2.594,1.196-4.351,3.687-4.609,6.531l-1.125,12.328c-1.203,0.836-2.375,1.701-3.516,2.594
			L334.264,25.2c-2.837-0.657-5.805,0.287-7.742,2.461c-4.417,4.924-8.276,10.322-11.508,16.094
			c-1.375,2.465-1.352,5.471,0.062,7.914l6.149,10.601c-0.5,1.445-0.966,2.94-1.398,4.484L308.78,71.63
			c-2.902,1.277-4.775,4.149-4.773,7.32v18.109c-0.002,3.171,1.871,6.043,4.773,7.32l11.047,4.875
			c0.43,1.547,0.898,3.031,1.398,4.477l-6.156,10.61c-1.414,2.446-1.438,5.454-0.063,7.922c3.238,5.767,7.1,11.161,11.516,16.086
			c1.937,2.178,4.911,3.123,7.75,2.461l11.609-2.664c1.141,0.898,2.32,1.766,3.523,2.602l1.125,12.328
			c0.258,2.845,2.016,5.335,4.609,6.531c5.93,2.77,12.154,4.859,18.555,6.227c2.852,0.604,5.806-0.396,7.703-2.609l8.141-9.453
			h3.906l8.141,9.453c1.519,1.767,3.733,2.783,6.063,2.781c0.551,0.001,1.101-0.057,1.641-0.172
			c6.401-1.368,12.625-3.456,18.555-6.227c2.594-1.196,4.351-3.687,4.609-6.531l1.125-12.328c1.203-0.836,2.375-1.701,3.516-2.594
			l11.625,2.656c2.837,0.658,5.806-0.286,7.742-2.461c4.415-4.924,8.277-10.319,11.516-16.086c1.375-2.468,1.351-5.476-0.063-7.922
			l-6.156-10.609c0.5-1.445,0.969-2.93,1.398-4.477l11.047-4.875c2.902-1.277,4.775-4.149,4.773-7.32V78.95
			C478.977,75.779,477.104,72.907,474.202,71.63z M462.975,91.849l-9.852,4.344c-2.318,1.019-4.014,3.077-4.57,5.547
			c-0.731,3.296-1.74,6.523-3.016,9.648c-0.954,2.306-0.781,4.925,0.469,7.086l5.695,9.813c-1.289,2-2.68,3.948-4.172,5.844
			l-10.719-2.453c-2.509-0.587-5.146,0.083-7.07,1.797c-2.492,2.186-5.162,4.159-7.984,5.898c-2.14,1.322-3.535,3.573-3.766,6.078
			l-1.039,11.422c-2.148,0.844-4.305,1.578-6.453,2.188l-7.328-8.508c-1.52-1.765-3.733-2.78-6.062-2.781h-11.234
			c-2.329,0.001-4.542,1.017-6.062,2.781l-7.328,8.508c-2.148-0.609-4.305-1.344-6.453-2.188l-1.039-11.422
			c-0.231-2.505-1.625-4.756-3.766-6.078c-2.821-1.737-5.489-3.711-7.977-5.898c-1.937-1.702-4.571-2.373-7.086-1.805l-10.711,2.453
			c-1.492-1.883-2.883-3.836-4.172-5.836l5.695-9.813c1.249-2.161,1.423-4.78,0.469-7.086c-1.276-3.125-2.285-6.353-3.016-9.648
			c-0.557-2.47-2.253-4.528-4.57-5.547l-9.852-4.344l0-7.687l9.852-4.344c2.318-1.019,4.014-3.077,4.57-5.547
			c0.732-3.3,1.741-6.533,3.016-9.664c0.954-2.304,0.781-4.92-0.469-7.078l-5.688-9.813c1.281-1.992,2.672-3.945,4.164-5.836
			l10.719,2.453c2.509,0.58,5.143-0.089,7.07-1.797c2.492-2.186,5.162-4.159,7.984-5.898c2.14-1.322,3.535-3.573,3.766-6.078
			l1.039-11.422c2.148-0.844,4.305-1.578,6.453-2.188l7.328,8.508c1.52,1.765,3.733,2.78,6.063,2.781h11.234
			c2.329-0.001,4.543-1.016,6.063-2.781l7.328-8.508c2.148,0.609,4.305,1.344,6.453,2.188l1.039,11.422
			c0.231,2.505,1.625,4.756,3.766,6.078c2.822,1.739,5.492,3.712,7.984,5.898c1.926,1.71,4.562,2.38,7.07,1.797l10.719-2.453
			c1.492,1.891,2.883,3.838,4.172,5.844l-5.695,9.813c-1.249,2.161-1.423,4.78-0.469,7.086c1.276,3.125,2.285,6.353,3.016,9.648
			c0.557,2.47,2.253,4.528,4.57,5.547l9.852,4.344V91.849z"/>
	</g>
</g>
<g>
	<g>
		<path d="M391.491,48.005c-22.091,0-40,17.909-40,40c0.026,22.081,17.919,39.974,40,40c22.091,0,40-17.909,40-40
			S413.582,48.005,391.491,48.005z M391.491,112.005c-13.255,0-24-10.745-24-24c0.014-13.249,10.751-23.986,24-24
			c13.255,0,24,10.745,24,24S404.745,112.005,391.491,112.005z"/>
	</g>
</g>
<g>
	<g>
		<path d="M472.225,338.536l-11.594-2.438c-0.477-2.008-1.016-4.016-1.617-6.008l8.891-7.969c2.553-2.285,3.367-5.942,2.023-9.094
			c-3.859-8.956-8.794-17.408-14.695-25.172c-2.066-2.73-5.635-3.85-8.891-2.789l-11.18,3.672c-1.422-1.508-2.898-2.984-4.406-4.406
			l3.672-11.172c1.069-3.251-0.049-6.822-2.781-8.883c-7.763-5.911-16.218-10.852-25.18-14.711c-3.153-1.33-6.802-0.518-9.094,2.023
			l-7.969,8.898c-1.992-0.609-4-1.148-6.008-1.625l-2.438-11.594c-0.78-3.701-4.045-6.351-7.828-6.352H345.85
			c-3.783,0.001-7.048,2.65-7.828,6.352l-2.438,11.594c-2.008,0.477-4.016,1.016-6.008,1.617l-7.969-8.891
			c-2.291-2.542-5.941-3.354-9.094-2.023c-8.956,3.859-17.408,8.794-25.172,14.695c-2.737,2.061-3.858,5.635-2.789,8.891
			l3.672,11.18c-1.508,1.422-2.984,2.898-4.406,4.406l-11.172-3.672c-3.251-1.053-6.813,0.062-8.883,2.781
			c-5.911,7.763-10.852,16.218-14.711,25.18c-1.344,3.152-0.53,6.809,2.023,9.094l8.898,7.969c-0.609,1.992-1.148,4-1.625,6.008
			l-11.594,2.438c-3.701,0.78-6.351,4.045-6.352,7.828v27.281c0.001,3.783,2.65,7.048,6.352,7.828l11.594,2.438
			c0.477,2.008,1.016,4.016,1.617,6.008l-8.891,7.969c-2.553,2.285-3.367,5.942-2.023,9.094c3.859,8.956,8.794,17.408,14.695,25.172
			c2.066,2.73,5.635,3.85,8.891,2.789l11.18-3.672c1.422,1.508,2.898,2.984,4.406,4.406l-3.672,11.172
			c-1.069,3.251,0.049,6.822,2.781,8.883c7.763,5.911,16.218,10.852,25.18,14.711c3.151,1.351,6.813,0.536,9.094-2.023l7.969-8.898
			c1.992,0.609,4,1.148,6.008,1.625l2.438,11.594c0.78,3.701,4.045,6.351,7.828,6.352l27.281,0c3.783-0.001,7.048-2.65,7.828-6.352
			l2.438-11.594c2.008-0.477,4.016-1.016,6.008-1.617l7.969,8.891c2.281,2.559,5.943,3.373,9.094,2.023
			c8.956-3.859,17.408-8.794,25.172-14.695c2.737-2.061,3.858-5.636,2.789-8.891l-3.672-11.18c1.508-1.422,2.984-2.898,4.406-4.406
			l11.172,3.672c3.251,1.061,6.817-0.056,8.883-2.781c5.911-7.763,10.852-16.218,14.711-25.18c1.344-3.152,0.53-6.809-2.023-9.094
			l-8.898-7.969c0.609-1.992,1.148-4,1.625-6.008l11.594-2.438c3.701-0.78,6.351-4.045,6.352-7.828v-27.281
			C478.576,342.582,475.927,339.316,472.225,338.536z M462.576,367.153l-10.351,2.18c-3.186,0.67-5.648,3.203-6.227,6.406
			c-0.864,4.745-2.121,9.409-3.758,13.946c-1.102,3.066-0.233,6.493,2.195,8.664l8.391,7.516c-2.087,4.168-4.449,8.193-7.07,12.047
			l-10.57-3.477c-3.097-1.011-6.498-0.051-8.609,2.43c-3.122,3.691-6.545,7.117-10.234,10.242c-2.479,2.11-3.436,5.509-2.422,8.602
			l3.477,10.562c-3.854,2.623-7.878,4.985-12.047,7.07l-7.523-8.391c-2.179-2.421-5.604-3.288-8.672-2.195
			c-4.53,1.64-9.19,2.897-13.93,3.758c-3.203,0.579-5.737,3.041-6.406,6.227l-2.18,10.352h-14.297l-2.18-10.352
			c-0.67-3.186-3.203-5.648-6.406-6.227c-4.745-0.864-9.409-2.121-13.946-3.758l0.001,0c-3.066-1.084-6.484-0.218-8.664,2.195
			l-7.516,8.391c-4.168-2.087-8.193-4.449-12.047-7.07l3.477-10.57c1.016-3.097,0.055-6.501-2.43-8.609
			c-3.691-3.122-7.117-6.545-10.242-10.234c-2.113-2.474-5.508-3.43-8.602-2.422l-10.563,3.477
			c-2.623-3.854-4.985-7.878-7.07-12.047l8.391-7.523c2.429-2.174,3.297-5.604,2.195-8.672c-1.64-4.53-2.897-9.19-3.758-13.93
			c-0.579-3.203-3.041-5.737-6.227-6.406l-10.352-2.18v-14.297l10.352-2.18c3.186-0.67,5.648-3.203,6.227-6.406
			c0.864-4.745,2.121-9.409,3.758-13.946c1.102-3.066,0.233-6.493-2.195-8.664l-8.391-7.515c2.087-4.168,4.449-8.193,7.07-12.047
			l10.57,3.477c3.097,1.011,6.498,0.051,8.609-2.43c3.122-3.691,6.545-7.117,10.234-10.242c2.479-2.11,3.436-5.509,2.422-8.602
			l-3.477-10.562c3.854-2.623,7.878-4.985,12.047-7.07l7.523,8.391c2.177,2.424,5.604,3.291,8.672,2.195
			c4.53-1.64,9.19-2.897,13.93-3.758c3.203-0.579,5.737-3.041,6.406-6.227l2.18-10.352h14.297l2.18,10.352
			c0.67,3.186,3.203,5.648,6.406,6.227c4.745,0.864,9.409,2.121,13.945,3.758c3.066,1.098,6.491,0.23,8.664-2.195l7.516-8.391
			c4.168,2.087,8.193,4.449,12.047,7.07l-3.477,10.57c-1.016,3.097-0.055,6.501,2.43,8.609c3.691,3.122,7.117,6.545,10.242,10.234
			c2.117,2.466,5.508,3.421,8.602,2.422l10.562-3.477c2.623,3.854,4.985,7.878,7.07,12.047l-8.391,7.523
			c-2.429,2.174-3.297,5.604-2.195,8.672c1.64,4.53,2.897,9.19,3.758,13.93c0.579,3.203,3.041,5.737,6.227,6.406l10.352,2.18
			V367.153z"/>
	</g>
</g>
<g>
	<g>
		<path d="M359.491,288.005c-39.764,0-72,32.235-72,72c0,39.764,32.236,72,72,72c39.747-0.043,71.957-32.253,72-72
			C431.491,320.24,399.255,288.005,359.491,288.005z M359.491,416.005c-30.912-0.037-55.963-25.088-56-56c0-30.928,25.072-56,56-56
			c30.928,0,56,25.072,56,56C415.491,390.933,390.419,416.005,359.491,416.005z"/>
	</g>
</g>
<g>
	<g>
		<rect x="223.491" y="88.005" width="64" height="16"/>
	</g>
</g>
<g>
	<g>
		<path d="M222.847,348.861c-0.809-1.892-2.316-3.399-4.208-4.208v0l-56-24c-4.057-1.742-8.758,0.135-10.5,4.192
			c-0.428,0.998-0.649,2.073-0.648,3.159v16h-96v-128h-16v136c-0.003,4.416,3.575,7.997,7.991,8c0.003,0,0.006,0,0.009,0h104v16
			c-0.003,4.415,3.574,7.997,7.989,8c0.004,0,0.007,0,0.011,0c1.083,0.002,2.155-0.218,3.148-0.648l56-24
			C222.699,357.621,224.583,352.921,222.847,348.861z M167.491,363.872v-23.734l27.688,11.867L167.491,363.872z"/>
	</g>
</g>
<g>
	<g>
		<path d="M385.342,330.88l-34.391,41.273l-17.805-17.804l-11.312,11.312l24,24c1.498,1.503,3.534,2.346,5.656,2.344
			c0.117,0,0.242,0,0.359-0.008c2.247-0.101,4.347-1.141,5.789-2.867l40-48L385.342,330.88z"/>
	</g>
</g>
<g>
</g>
<g>
</g>
<g>
</g>
<g>
</g>
<g>
</g>
<g>
</g>
<g>
</g>
<g>
</g>
<g>
</g>
<g>
</g>
<g>
</g>
<g>
</g>
<g>
</g>
<g>
</g>
<g>
</g>
</svg>
