<svg id="Capa_1" enable-background="new 0 0 512 512" height="512" viewBox="0 0 512 512" width="512" xmlns="http://www.w3.org/2000/svg"><path d="m271.511 210.397c-6.891-11.937-24.122-11.951-31.021 0l-114.053 197.545c-6.891 11.936 1.71 26.865 15.51 26.865h182.567c4.142 0 7.5-3.358 7.5-7.5s-3.358-7.5-7.5-7.5h-182.567c-2.239 0-3.648-2.411-2.52-4.365l114.052-197.545c1.117-1.935 3.911-1.958 5.041 0l114.052 197.545c1.12 1.94-.263 4.365-2.52 4.365h-10.538c-4.142 0-7.5 3.358-7.5 7.5s3.358 7.5 7.5 7.5h10.538c13.782 0 22.41-14.914 15.51-26.865z"/><path d="m256 351.025c10.134 0 18.505-7.926 19.059-18.044l2.56-46.792c.677-12.39-9.211-22.833-21.619-22.833-12.409 0-22.296 10.444-21.619 22.833l2.56 46.792c.554 10.118 8.925 18.044 19.059 18.044zm0-72.669c3.806 0 6.85 3.186 6.641 7.014l-2.56 46.792c-.119 2.167-1.911 3.864-4.081 3.864s-3.962-1.697-4.081-3.864l-2.56-46.792c-.208-3.807 2.814-7.014 6.641-7.014z"/><path d="m256 406.369c12.225 0 22.17-9.945 22.17-22.17s-9.945-22.17-22.17-22.17-22.17 9.945-22.17 22.17 9.945 22.17 22.17 22.17zm0-29.34c3.954 0 7.17 3.216 7.17 7.17s-3.216 7.17-7.17 7.17-7.17-3.216-7.17-7.17 3.216-7.17 7.17-7.17z"/><path d="m476.383 202.857c-46.155-77.88-129.705-125.665-220.383-125.665-24.434 0-48.605 3.439-71.843 10.221-3.977 1.161-6.259 5.325-5.099 9.301 1.162 3.977 5.328 6.26 9.301 5.099 21.873-6.383 44.63-9.62 67.641-9.62 39.446 0 78.32 9.673 112.915 28.035l-31.543 54.635c-25.062-12.914-53.036-19.709-81.371-19.709s-56.309 6.795-81.371 19.709l-31.544-54.636c4.398-2.336 8.878-4.542 13.382-6.587 3.771-1.712 5.441-6.158 3.729-9.93s-6.158-5.442-9.93-3.729c-19.406 8.811-37.656 20.038-54.363 33.44l-5.581-20.829c-2.436-9.088-13.835-12.149-20.493-5.491l-39.919 39.919c-6.652 6.653-3.605 18.055 5.492 20.493l20.829 5.581c-36.346 45.313-56.232 101.704-56.232 160.098 0 4.142 3.358 7.5 7.5 7.5h77.961c4.142 0 7.5-3.358 7.5-7.5 0-88.619 72.055-163.039 163.039-163.039 91.069 0 163.039 74.477 163.039 163.039 0 4.142 3.358 7.5 7.5 7.5h77.961c4.142 0 7.5-3.358 7.5-7.5 0-45.949-12.316-91.018-35.617-130.335zm-399.317-81.779c2.396 8.942 9.725 36.295 12.145 45.325-9.051-2.425-36.339-9.737-45.325-12.145zm1.055 204.614h-63.005c1.689-54.503 21.761-106.747 57.037-148.331l17.777 4.763c9.053 2.425 17.45-5.864 15.002-15.002l-4.763-17.777c9.396-7.971 19.413-15.233 29.894-21.672l31.535 54.62c-49.661 31.173-80.996 85.002-83.477 143.399zm355.758 0c-2.481-58.397-33.817-112.227-83.478-143.398l31.535-54.62c69.031 42.403 112.413 117.134 114.947 198.019h-63.004z"/><path d="m45.537 361.858c-2.543 0-5.087.265-7.559.786-4.053.855-6.645 4.833-5.79 8.887.855 4.052 4.831 6.646 8.887 5.79 1.456-.307 2.958-.463 4.462-.463 11.841 0 21.475 9.633 21.475 21.475s-9.633 21.475-21.475 21.475-21.475-9.633-21.475-21.475c0-1.089.082-2.183.244-3.251.62-4.096-2.198-7.918-6.293-8.538-4.096-.623-7.918 2.197-8.538 6.293-.274 1.809-.413 3.658-.413 5.496 0 20.112 16.362 36.475 36.475 36.475s36.475-16.362 36.475-36.475-16.363-36.475-36.475-36.475z"/><path d="m466.463 361.858c-20.112 0-36.475 16.362-36.475 36.475s16.362 36.475 36.475 36.475 36.475-16.362 36.475-36.475-16.363-36.475-36.475-36.475zm0 57.95c-11.841 0-21.475-9.633-21.475-21.475s9.633-21.475 21.475-21.475 21.475 9.633 21.475 21.475-9.634 21.475-21.475 21.475z"/></svg>