<svg xmlns="http://www.w3.org/2000/svg" width="2500" height="2500" viewBox="0 0 192.756 192.756"><g fill-rule="evenodd" clip-rule="evenodd"><path fill="#fff" d="M0 0h192.756v192.756H0V0z"/><path d="M26.389 83.282v5.2c-2.473-.865-5.181-1.37-7.34-1.37-2.665 0-4.148.812-4.148 2.271 0 .931.649 1.548 2.511 2.385l5.008 2.247c4.006 1.8 6.025 4.426 6.025 7.838 0 5.266-4.558 8.588-11.783 8.588-2.635 0-5.683-.377-8.912-1.107v-5.375c3.201.871 6.133 1.336 8.414 1.336 2.987 0 4.587-.832 4.587-2.383 0-.932-.625-1.617-2.056-2.256l-5.481-2.441c-4.063-1.812-5.938-4.253-5.938-7.733 0-4.987 4.393-8.167 11.285-8.167 2.413 0 5.383.367 7.828.967zM32.345 82.86h8.099v27.036h-8.099V82.86zM66.777 82.86v4.953H54.55v6.098h10.681v4.48H54.55v6.322h12.385v5.183H46.68V82.86h20.097zM105.039 82.86v27.036h-7.836V92.101l-7.676 18.006h-4.954l-7.624-18.006v17.795h-5.411V82.86h9.89l6.992 16.445 6.956-16.445h9.663zM131.393 82.86v4.953h-12.245v6.098h10.678v4.48h-10.678v6.322h12.383v5.183h-20.273V82.86h20.135zM159.92 82.86v27.036h-8.643l-9.732-17.34v17.34h-5.412V82.86h8.871l9.523 17.111V82.86h5.393zM183.424 83.282v5.2c-2.455-.859-5.18-1.37-7.299-1.37-2.707 0-4.189.799-4.189 2.263 0 .954.605 1.524 2.531 2.394l4.986 2.247c4.035 1.819 6.029 4.422 6.029 7.874 0 5.238-4.562 8.553-11.771 8.553-2.639 0-5.699-.379-8.924-1.107v-5.375c3.197.869 6.123 1.336 8.389 1.336 2.967 0 4.611-.832 4.611-2.334 0-.994-.576-1.635-2.076-2.305l-5.459-2.441c-4.088-1.826-5.941-4.239-5.941-7.732 0-4.984 4.395-8.166 11.271-8.166 2.42-.003 5.402.363 7.842.963z" fill="#00a0b0"/></g></svg>