<?xml version="1.0" encoding="iso-8859-1"?>
<!-- Generator: Adobe Illustrator 19.0.0, SVG Export Plug-In . SVG Version: 6.00 Build 0)  -->
<svg version="1.1" id="Capa_1" xmlns="http://www.w3.org/2000/svg" xmlns:xlink="http://www.w3.org/1999/xlink" x="0px" y="0px"
	 viewBox="0 0 480 480" style="enable-background:new 0 0 480 480;" xml:space="preserve">
<g>
	<g>
		<path d="M240,0c-4.418,0-8,3.582-8,8v48c0,4.418,3.582,8,8,8s8-3.582,8-8V8C248,3.582,244.418,0,240,0z"/>
	</g>
</g>
<g>
	<g>
		<path d="M208.984,18.016l-1.392-7.88c-0.767-4.352-4.916-7.259-9.268-6.492c-4.352,0.767-7.259,4.916-6.492,9.268l1.392,7.88
			c0.675,3.82,3.993,6.605,7.872,6.608c0.467-0.001,0.932-0.041,1.392-0.12c0,0,0.001,0,0.001,0
			C206.841,26.515,209.749,22.368,208.984,18.016z"/>
	</g>
</g>
<g>
	<g>
		<g>
			<polygon points="163.384,37.512 163.384,37.512 163.384,37.512 			"/>
			<path d="M170.904,26.776l-2.736-7.52c-0.034-0.098-0.069-0.195-0.106-0.292c-1.592-4.122-6.223-6.173-10.345-4.581
				c-4.122,1.592-6.173,6.223-4.581,10.345l2.728,7.512c1.148,3.164,4.154,5.272,7.52,5.272c0.934,0,1.861-0.163,2.738-0.482
				C170.274,35.519,172.415,30.928,170.904,26.776z"/>
		</g>
	</g>
</g>
<g>
	<g>
		<path d="M102.128,63.264l-5.144-6.128c-2.824-3.227-7.69-3.654-11.032-0.967c-3.444,2.768-3.992,7.803-1.224,11.247l5.144,6.128
			c1.519,1.814,3.762,2.862,6.128,2.864c1.882,0,3.704-0.663,5.145-1.873C104.529,71.694,104.969,66.648,102.128,63.264z"/>
	</g>
</g>
<g>
	<g>
		<path d="M73.544,89.872l-6.128-5.144c-3.342-2.686-8.208-2.26-11.032,0.967c-2.91,3.325-2.573,8.379,0.752,11.289l6.128,5.144
			c1.439,1.208,3.257,1.87,5.136,1.872c2.365,0,4.609-1.046,6.129-2.857C77.37,97.758,76.928,92.712,73.544,89.872z"/>
	</g>
</g>
<g>
	<g>
		<path d="M32.24,155.864l-7.512-2.728c-0.096-0.037-0.194-0.073-0.292-0.106c-4.18-1.431-8.729,0.799-10.159,4.979
			c-1.431,4.18,0.799,8.729,4.979,10.159l7.52,2.736c0.874,0.321,1.797,0.486,2.728,0.488c3.385,0.012,6.411-2.107,7.557-5.293
			C38.556,161.942,36.398,157.359,32.24,155.864z"/>
	</g>
</g>
<g>
	<g>
		<path d="M20.792,193.224l-7.88-1.392c-4.352-0.767-8.501,2.14-9.268,6.492c-0.767,4.352,2.14,8.501,6.492,9.268l7.88,1.392
			c0.46,0.079,0.925,0.119,1.392,0.12c3.887,0.002,7.213-2.791,7.884-6.62C28.054,198.132,25.144,193.986,20.792,193.224z"/>
	</g>
</g>
<g>
	<g>
		<path d="M27.284,277.508c-0.767-4.352-4.916-7.259-9.268-6.492l-7.88,1.392c-3.826,0.67-6.617,3.992-6.62,7.876
			c-0.002,4.418,3.577,8.002,7.996,8.004c0.469-0.001,0.938-0.041,1.4-0.12l7.88-1.392C25.144,286.009,28.051,281.86,27.284,277.508
			z"/>
	</g>
</g>
<g>
	<g>
		<path d="M37.028,313.884c-1.509-4.153-6.099-6.297-10.252-4.788l-7.52,2.736c-3.166,1.149-5.273,4.158-5.271,7.527
			c0.004,4.418,3.588,7.997,8.007,7.993c0.933-0.002,1.859-0.167,2.736-0.488l7.512-2.728
			C36.393,322.627,38.537,318.037,37.028,313.884z"/>
	</g>
</g>
<g>
	<g>
		<path d="M74.553,378.608c-2.909-3.325-7.964-3.662-11.289-0.753L57.136,383c-1.812,1.52-2.858,3.764-2.857,6.129
			c0.001,4.418,3.583,7.999,8.001,7.999c1.879-0.002,3.697-0.664,5.136-1.872l6.128-5.144c0.087-0.07,0.172-0.141,0.256-0.215
			C77.125,386.988,77.462,381.934,74.553,378.608z"/>
	</g>
</g>
<g>
	<g>
		<path d="M101.135,405.232c-3.444-2.768-8.479-2.22-11.247,1.224l-5.144,6.128c-1.204,1.438-1.865,3.254-1.866,5.13
			c-0.003,4.418,3.576,8.003,7.994,8.006c2.364,0,4.608-1.045,6.128-2.856l5.144-6.128c0.074-0.084,0.145-0.17,0.215-0.257
			C105.127,413.036,104.579,408,101.135,405.232z"/>
	</g>
</g>
<g>
	<g>
		<path d="M166.116,442.972c-4.153-1.509-8.743,0.635-10.252,4.788l-2.728,7.512c-0.319,0.878-0.483,1.804-0.482,2.738
			c0.001,4.418,3.584,7.999,8.002,7.998c3.361-0.002,6.362-2.106,7.512-5.264l2.736-7.52
			C172.413,449.071,170.269,444.481,166.116,442.972z"/>
	</g>
</g>
<g>
	<g>
		<path d="M202.492,452.716c-4.352-0.767-8.501,2.14-9.268,6.492l-1.392,7.88c0,0,0,0.001,0,0.001
			c-0.764,4.352,2.144,8.499,6.496,9.263c0.459,0.086,0.925,0.128,1.392,0.128c3.882-0.004,7.2-2.793,7.872-6.616l1.392-7.88
			C209.751,457.632,206.844,453.483,202.492,452.716z"/>
	</g>
</g>
<g>
	<g>
		<path d="M288.168,467.088l-1.392-7.88c-0.767-4.352-4.916-7.259-9.268-6.492c-4.352,0.767-7.259,4.916-6.492,9.268l1.392,7.88
			c0.672,3.823,3.99,6.612,7.872,6.616c0.467,0,0.933-0.042,1.392-0.128c0,0,0.001,0,0.001,0
			C286.025,475.587,288.933,471.44,288.168,467.088z"/>
	</g>
</g>
<g>
	<g>
		<path d="M326.864,455.272l-2.728-7.512c-1.509-4.153-6.099-6.297-10.252-4.788s-6.297,6.099-4.788,10.252l2.736,7.52
			c1.15,3.159,4.151,5.262,7.512,5.264h0c0.934,0,1.861-0.163,2.738-0.482C326.234,464.015,328.375,459.424,326.864,455.272z"/>
	</g>
</g>
<g>
	<g>
		<path d="M395.256,412.584l-5.144-6.128c-0.07-0.087-0.141-0.172-0.215-0.256c-2.909-3.325-7.964-3.662-11.289-0.753
			c-3.325,2.909-3.662,7.964-0.752,11.289l5.144,6.128c1.515,1.817,3.762,2.864,6.128,2.856h0c1.876-0.001,3.692-0.662,5.13-1.866
			C397.646,421.017,398.093,415.971,395.256,412.584z"/>
	</g>
</g>
<g>
	<g>
		<path d="M422.864,383l-6.128-5.144c-0.084-0.073-0.169-0.145-0.256-0.215c-3.444-2.768-8.479-2.22-11.247,1.224
			c-2.768,3.444-2.22,8.479,1.224,11.247l6.128,5.144c1.439,1.208,3.257,1.87,5.136,1.872v0c2.365,0,4.609-1.046,6.129-2.857
			C426.69,390.886,426.248,385.84,422.864,383z"/>
	</g>
</g>
<g>
	<g>
		<path d="M460.744,311.832l-7.52-2.736c-4.153-1.509-8.743,0.635-10.252,4.788c-1.509,4.153,0.635,8.743,4.788,10.252l7.512,2.728
			c0.877,0.321,1.802,0.486,2.736,0.488v0c3.368,0.003,6.377-2.104,7.527-5.271C467.042,317.928,464.897,313.339,460.744,311.832z"
			/>
	</g>
</g>
<g>
	<g>
		<path d="M469.864,272.408l-7.88-1.392c-4.352-0.767-8.501,2.14-9.268,6.492c-0.767,4.352,2.14,8.501,6.492,9.268l7.88,1.392
			c0.462,0.079,0.931,0.119,1.4,0.12c3.884-0.002,7.205-2.794,7.876-6.62C477.126,277.316,474.216,273.17,469.864,272.408z"/>
	</g>
</g>
<g>
	<g>
		<path d="M476.356,198.324c-0.767-4.352-4.916-7.259-9.268-6.492l-7.88,1.392c-3.829,0.671-6.621,3.997-6.62,7.884
			c0.002,4.418,3.585,7.998,8.004,7.996c0.467-0.001,0.932-0.041,1.392-0.12l7.88-1.392
			C474.216,206.825,477.123,202.676,476.356,198.324z"/>
	</g>
</g>
<g>
	<g>
		<path d="M465.617,157.717c-1.591-4.122-6.223-6.173-10.345-4.581l-7.512,2.728c-3.185,1.145-5.305,4.172-5.293,7.557
			c0.016,4.418,3.611,7.987,8.029,7.971c0.931-0.002,1.854-0.167,2.728-0.488l7.52-2.736c0.098-0.033,0.195-0.069,0.291-0.106
			C465.157,166.47,467.208,161.839,465.617,157.717z"/>
	</g>
</g>
<g>
	<g>
		<path d="M423.831,85.952c-2.768-3.444-7.803-3.992-11.247-1.224l-6.128,5.144c-1.812,1.52-2.858,3.764-2.857,6.129
			c0.001,4.418,3.583,7.999,8.001,7.999c1.879-0.002,3.697-0.664,5.136-1.872l6.128-5.144
			C426.091,94.16,426.518,89.294,423.831,85.952z"/>
	</g>
</g>
<g>
	<g>
		<path d="M394.305,56.384c-3.325-2.909-8.379-2.573-11.289,0.752l-5.144,6.128c-1.21,1.441-1.873,3.263-1.873,5.145
			c0.001,4.418,3.583,8,8.001,7.999c2.366-0.002,4.609-1.05,6.128-2.864l5.144-6.128C397.959,64.074,397.532,59.207,394.305,56.384z
			"/>
	</g>
</g>
<g>
	<g>
		<path d="M321.992,14.278c-4.18-1.431-8.729,0.798-10.159,4.978l-2.736,7.52c-0.319,0.878-0.483,1.804-0.482,2.738
			c0.001,4.418,3.584,7.999,8.002,7.998c3.366,0,6.372-2.108,7.52-5.272l2.728-7.512c0.037-0.096,0.072-0.193,0.106-0.291
			C328.401,20.257,326.172,15.708,321.992,14.278z"/>
	</g>
</g>
<g>
	<g>
		<path d="M281.676,3.644c-4.352-0.767-8.501,2.14-9.268,6.492l-1.392,7.88c0,0,0,0.001,0,0.001
			c-0.764,4.352,2.144,8.499,6.496,9.263c0.46,0.079,0.925,0.119,1.392,0.12c3.879-0.003,7.197-2.788,7.872-6.608l1.392-7.88
			C288.935,8.56,286.028,4.411,281.676,3.644z"/>
	</g>
</g>
<g>
	<g>
		<path d="M146.92,62.792l-16-27.712c-2.214-3.776-7.051-5.072-10.856-2.909c-3.841,2.184-5.184,7.068-3,10.909l16,27.712
			c1.43,2.478,4.075,4.003,6.936,4c1.402-0.001,2.778-0.371,3.992-1.072C147.818,71.511,149.129,66.618,146.92,62.792z"/>
	</g>
</g>
<g>
	<g>
		<path d="M70.784,133.072l-27.712-16c-3.805-2.163-8.642-0.867-10.856,2.909c-2.234,3.812-0.956,8.713,2.856,10.947l27.712,16
			C64,147.63,65.38,148,66.784,148c2.858,0,5.499-1.525,6.928-4C75.921,140.174,74.61,135.281,70.784,133.072z"/>
	</g>
</g>
<g>
	<g>
		<path d="M73.748,335.926c-2.235-3.811-7.136-5.089-10.948-2.854l-27.712,16c-2.475,1.429-4,4.07-4,6.928c0,4.418,3.581,8,8,8
			c1.405,0.003,2.785-0.367,4-1.072l27.712-16c0.031-0.018,0.062-0.036,0.093-0.054C74.705,344.639,75.983,339.738,73.748,335.926z"
			/>
	</g>
</g>
<g>
	<g>
		<path d="M143.989,406.208c-3.841-2.184-8.725-0.841-10.909,3l-16,27.712c-0.701,1.214-1.07,2.59-1.072,3.992
			c-0.005,4.418,3.573,8.004,7.992,8.008c2.861,0.003,5.506-1.522,6.936-4l16-27.712c0.018-0.03,0.035-0.061,0.053-0.092
			C149.173,413.276,147.829,408.392,143.989,406.208z"/>
	</g>
</g>
<g>
	<g>
		<path d="M362.92,436.92l-16-27.712c-2.214-3.775-7.05-5.071-10.854-2.908c-3.841,2.183-5.185,7.067-3.002,10.908l16,27.712
			c1.43,2.478,4.075,4.003,6.936,4c1.401-0.001,2.778-0.371,3.992-1.072C363.818,445.639,365.129,440.746,362.92,436.92z"/>
	</g>
</g>
<g>
	<g>
		<path d="M444.912,349.072l-27.712-16c-3.805-2.163-8.641-0.867-10.854,2.908c-2.235,3.811-0.957,8.713,2.854,10.948l27.712,16
			c1.215,0.705,2.595,1.075,4,1.072c2.858,0,5.499-1.525,6.928-4C450.049,356.174,448.738,351.281,444.912,349.072z"/>
	</g>
</g>
<g>
	<g>
		<path d="M447.837,120.072c-2.184-3.841-7.068-5.184-10.909-3l-27.712,16c-2.475,1.429-4,4.07-4,6.928c0,4.418,3.581,8,8,8
			c1.404,0,2.784-0.37,4-1.072l27.712-16C448.704,128.714,450,123.877,447.837,120.072z"/>
	</g>
</g>
<g>
	<g>
		<path d="M360.028,32.226c-3.811-2.235-8.713-0.957-10.948,2.854l-16,27.712c-0.701,1.214-1.07,2.59-1.072,3.992
			c-0.005,4.418,3.574,8.004,7.992,8.008c2.861,0.003,5.506-1.522,6.936-4l16-27.712C365.099,39.275,363.803,34.439,360.028,32.226z
			"/>
	</g>
</g>
<g>
	<g>
		<path d="M56,232H8c-4.418,0-8,3.582-8,8s3.582,8,8,8h48c4.418,0,8-3.582,8-8S60.418,232,56,232z"/>
	</g>
</g>
<g>
	<g>
		<path d="M240,416c-4.418,0-8,3.582-8,8v48c0,4.418,3.582,8,8,8s8-3.582,8-8v-48C248,419.582,244.418,416,240,416z"/>
	</g>
</g>
<g>
	<g>
		<path d="M472,232h-56c-4.418,0-8,3.582-8,8s3.582,8,8,8h56c4.418,0,8-3.582,8-8S476.418,232,472,232z"/>
	</g>
</g>
<g>
	<g>
		<path d="M353.832,126.568c-3.124-3.123-8.188-3.123-11.312,0l-86.28,86.28c-4.868-2.786-10.392-4.219-16-4.152
			c-5.28,0.123-10.446,1.558-15.032,4.176l-41.048-41.048c-3.124-3.137-8.199-3.148-11.336-0.024
			c-3.137,3.124-3.148,8.199-0.024,11.336l40.72,40.72c-9.41,14.991-4.885,34.772,10.106,44.182
			c14.991,9.41,34.772,4.885,44.182-10.107c6.539-10.417,6.539-23.658,0-34.075l86.024-85.976
			C356.955,134.756,356.955,129.692,353.832,126.568z M252.683,251.821c-6.02,6.468-16.145,6.831-22.613,0.811
			c-0.16-0.149-0.316-0.301-0.47-0.456c-6.341-6.154-6.493-16.284-0.339-22.625c2.952-3.041,6.989-4.788,11.227-4.855
			c4.253-0.122,8.369,1.51,11.384,4.512C258.34,235.228,258.703,245.353,252.683,251.821z"/>
	</g>
</g>
<g>
</g>
<g>
</g>
<g>
</g>
<g>
</g>
<g>
</g>
<g>
</g>
<g>
</g>
<g>
</g>
<g>
</g>
<g>
</g>
<g>
</g>
<g>
</g>
<g>
</g>
<g>
</g>
<g>
</g>
</svg>
