<svg id="_x33_0" enable-background="new 0 0 64 64" height="512" viewBox="0 0 64 64" width="512" xmlns="http://www.w3.org/2000/svg"><g><path d="m56.569 26.895-2.412-.482c-.794-.159-1.411-.775-1.569-1.569l-.443-2.215c.923-.682 1.671-1.583 2.17-2.628h.685c2.206 0 4-1.794 4-4 0-.901-.31-1.724-.815-2.393l.366-1.098c.298-.896.449-1.825.449-2.767 0-4.821-3.922-8.743-8.744-8.743h-2.651c-2.459 0-4.751 1.159-6.208 3.12l-.729.183c-.567.141-1.085.383-1.547.697h-36.121v26h9.719l-1.5 6h-10.219v2h62v-4.262c0-3.8-2.705-7.098-6.431-7.843zm-29.35 4.105 1.5 6h-10.438l1.5-6zm2.062 0h4.659c-.598 1.125-.94 2.399-.94 3.738v2.262h-2.219zm5.719 3.738c0-2.85 2.028-5.324 4.823-5.883l.845-.169 3.779 8.314h-9.447zm9.294-7.473 1.861.93-2.576 2.061-.911-2.004c.623-.198 1.179-.536 1.626-.987zm3.985 3.735h-.558l-.394-1.181.673-.538.673.538zm-2.306 1.081-.42 2.519-1.12-2.465 1.23-.984zm1.874.919h.306l.667 4h-1.64zm2.18-.919.31-.93 1.23.984-1.12 2.465zm3.305-3.828-.911 2.004-2.576-2.061 1.861-.93c.447.45 1.003.788 1.626.987zm-2.705-3.018c.02.1.054.195.081.292l-2.708 1.355-2.709-1.354c.027-.097.061-.192.081-.292l.327-1.632c.722.252 1.494.396 2.301.396s1.579-.144 2.301-.397zm2.373-8.235c0 2.757-2.243 5-5 5s-5-2.243-5-5v-3.877c0-1.374.928-2.567 2.258-2.907.467 1.05 1.52 1.784 2.742 1.784h4c.551 0 1 .448 1 1zm2 1h-.08c.047-.328.08-.66.08-1v-3c1.103 0 2 .897 2 2s-.897 2-2 2zm-13.847-11.758 1.464-.366.214-.321c1.067-1.6 2.852-2.555 4.774-2.555h2.651c3.719 0 6.744 3.025 6.744 6.743 0 .726-.117 1.443-.346 2.133l-.142.425c-.467-.191-.977-.301-1.512-.301h-.184c-.414-1.161-1.514-2-2.816-2h-4c-.551 0-1-.448-1-1s.449-1 1-1h1v-2h-1c-1.374 0-2.536.929-2.889 2.191l-.324.081c-1.855.464-3.229 1.928-3.644 3.728h-.143c-.503 0-.979.104-1.422.273-.265-.921-.578-2.228-.578-3.273 0-1.307.885-2.44 2.153-2.758zm-.153 7.758v3c0 .34.033.672.08 1h-.08c-1.103 0-2-.897-2-2s.897-2 2-2zm-36-7h32.448c-.28.615-.448 1.289-.448 2 0 1.608.565 3.587.871 4.539-.537.681-.871 1.528-.871 2.461 0 2.206 1.794 4 4 4h.685c.499 1.045 1.247 1.946 2.17 2.628l-.443 2.215c-.159.794-.775 1.41-1.569 1.569l-2.412.482c-1.547.309-2.912 1.063-3.987 2.105h-30.444zm9.781 24h2.938l-1.5 6h-2.938zm46.219 6h-9.447l3.779-8.314.845.169c2.795.559 4.823 3.034 4.823 5.883z"/><path d="m35 11h-12v4h-4v-6h-12v12h6v6h14v-6h8zm-26 0h8v8h-8zm16 14h-10v-4h4v-4h6zm8-6h-6v-4h-2v-2h8z"/><path d="m56.489 53.352c1.559-1.313 2.511-3.266 2.511-5.352v-1c0-3.309-2.691-6-6-6h-2c-3.309 0-6 2.691-6 6v1c0 2.087.953 4.041 2.51 5.352-2.423.691-4.401 2.354-5.517 4.53-1.125-2.174-3.107-3.831-5.499-4.523 1.53-1.285 2.506-3.21 2.506-5.359v-1c0-3.309-2.691-6-6-6h-2c-3.309 0-6 2.691-6 6v1c0 2.149.976 4.074 2.506 5.359-2.395.693-4.378 2.352-5.502 4.53-1.123-2.178-3.108-3.842-5.503-4.536 1.526-1.285 2.499-3.207 2.499-5.353v-2c0-2.757-2.243-5-5-5h-7c-1.103 0-2 .897-2 2v5c0 2.149.976 4.074 2.506 5.359-3.752 1.085-6.506 4.544-6.506 8.641v1h62v-1c0-4.087-2.71-7.564-6.511-8.648zm-2.489 1.648c0 1.103-.897 2-2 2s-2-.897-2-2c0-.1.025-.193.039-.289.631.184 1.292.289 1.961.289s1.331-.105 1.961-.289c.014.096.039.189.039.289zm-7-7v-1c0-2.206 1.794-4 4-4h2c2.206 0 4 1.794 4 4v1c0 1.927-1.129 3.703-2.884 4.528-1.282.617-2.942.621-4.24-.004-1.747-.821-2.876-2.597-2.876-4.524zm-20 0v-1c0-2.206 1.794-4 4-4h2c2.206 0 4 1.794 4 4v1c0 2.757-2.243 5-5 5s-5-2.243-5-5zm3 7h4c3.519 0 6.432 2.614 6.92 6h-17.84c.488-3.386 3.401-6 6.92-6zm-23-7v-5h7c1.654 0 3 1.346 3 3v2c0 2.757-2.243 5-5 5s-5-2.243-5-5zm-3.929 13c.487-3.388 3.408-6 6.929-6h4c3.521 0 6.442 2.612 6.929 6zm40.007 0c.388-2.723 2.328-4.955 4.95-5.718.148 2.072 1.863 3.718 3.972 3.718 2.108 0 3.823-1.645 3.971-3.716 2.623.763 4.571 2.993 4.958 5.716z"/></g></svg>