<svg xmlns="http://www.w3.org/2000/svg" viewBox="0 0 1726 346"><path fill="#9BA9BB" fill-rule="evenodd" d="M207.08 138.53c20.45 20.55 37.17 54.2 27.6 74.2-25.6 53.46-216.6 147.22-232.82 131-16.23-16.23 77.61-207.3 131.08-232.9 20-9.57 53.65 7.16 74.2 27.62l-.06.08zm101.19-22.58c-3.33-12.3-11.8-24.72-24.46-26.2-23.2-2.69-59.79 38.34-57.18 48.08 2.61 9.74 54.3 26.9 73.6 13.03 9.95-7.16 11.35-22.6 8.08-34.92l-.04.01zM236.44 2.28c17.24 4.66 34.66 16.55 36.72 34.29 3.78 32.53-53.74 83.82-67.4 80.16-13.65-3.66-37.72-76.11-18.26-103.18C197.52-.4 219.18-2.37 236.45 2.22v.06zm513.94 192.6l-17.08-2.59c-16.28-2.4-25.7-7.67-25.7-17.27 0-11.01 12.26-17.85 30.4-17.85 12.82 0 23.26 4.8 33.25 9.9l2 1a16.28 16.28 0 0 0 21.61-6.64l1.4-2.52a16.54 16.54 0 0 0 1.31-13 16.48 16.48 0 0 0-8.42-9.95c-14.56-7.29-30.35-13.83-51.15-13.83-43.48 0-71.49 21-71.49 54.78 0 27.74 19.94 45.13 57.66 50.29l17.23 2.24c18.21 2.56 27.07 7.94 27.07 16.48 0 7.88-4.26 18.36-32.47 18.36-15.56 0-31.35-3.94-44.17-12.06a15.93 15.93 0 0 0-8.53-2.48 16.51 16.51 0 0 0-13.94 7.8l-.96 1.55a16.83 16.83 0 0 0-1.97 12.99 16.27 16.27 0 0 0 7.83 10.21c22.35 12.57 48.15 17.03 61.74 17.03 45.32 0 73.38-19.86 73.38-54.82 0-27.97-19.85-44-59-49.62zm527.02 61.05a17.3 17.3 0 0 0-22.25-3.01c-9.23 5.85-19.34 8.94-29.24 8.94-27.24 0-47-21.5-47-51.13 0-29.64 19.76-51.15 47-51.15 10.45 0 19.8 2.85 28.6 8.7 6.8 4.52 16.58 3.36 22.17-2.62l1.45-1.54a18.99 18.99 0 0 0 5-15.22 18.58 18.58 0 0 0-8.17-13.37c-13.4-8.88-30-13.57-48.02-13.57-52.26 0-88.77 36.5-88.77 88.77 0 52.26 36.5 88.77 88.77 88.77 18.1 0 34.8-4.8 48.28-13.85a18.79 18.79 0 0 0 8.15-13.27 18.97 18.97 0 0 0-4.69-15.02l-1.28-1.43zM431.5 61.9c-13.6 0-24.25 10.79-24.25 24.56 0 13.83 10.43 24.26 24.26 24.26 13.77 0 24.56-10.65 24.56-24.26a24.3 24.3 0 0 0-24.56-24.56zm7.35 61.5h-14.31a12.7 12.7 0 0 0-12.7 12.69v146.4a12.7 12.7 0 0 0 12.7 12.7h14.3a12.7 12.7 0 0 0 12.7-12.7v-146.4a12.7 12.7 0 0 0-12.69-12.7zM908.7 261.1c-16.06-.06-34.73-12.65-34.73-34.68v-66.03h34.85a12.7 12.7 0 0 0 12.7-12.7v-11.6a12.7 12.7 0 0 0-12.7-12.7h-34.85V85.3a12.7 12.7 0 0 0-12.7-12.7h-15.1a12.7 12.7 0 0 0-12.7 12.7v138.76c0 39.95 30.32 75.27 72.3 75.27h.01c4.19 0 8.14-1.64 11.12-4.62a15.63 15.63 0 0 0 4.62-11.11v-9.79c0-7.05-5.77-12.67-12.82-12.7zM561.9 121.96c-50.8 0-79.14 40.63-79.14 75.4v85.12a12.7 12.7 0 0 0 12.7 12.7h14.48a12.7 12.7 0 0 0 12.7-12.7v-78.73c0-26.36 15.97-43.82 39.26-43.82 23.3 0 39.26 17.46 39.26 43.82v78.73a12.7 12.7 0 0 0 12.7 12.7h14.48a12.7 12.7 0 0 0 12.7-12.7v-85.12c0-34.77-28.33-75.4-79.14-75.4zm1045.03 1.76c-5.5-1.2-19.31-1.76-26.46-1.76l-1.9.02c-39.34 0-75.66 32.07-75.66 76.27v84.24a12.7 12.7 0 0 0 12.7 12.7h14.47a12.7 12.7 0 0 0 12.7-12.7V199.7c0-24.07 17.18-39.75 38.23-39.75 3.85.06 8 .49 12.04 1.3a17.4 17.4 0 0 0 20.21-13.03c1.04-4.3 1.8-7.5 2.52-10.41.71-2.92.22-6.22-1.45-8.9a11.56 11.56 0 0 0-7.4-5.2zm106.17 36.67a12.7 12.7 0 0 0 12.7-12.7v-11.6a12.7 12.7 0 0 0-12.7-12.7h-34.84V85.3a12.7 12.7 0 0 0-12.7-12.7h-15.1a12.7 12.7 0 0 0-12.7 12.7v138.76c0 39.95 30.31 75.27 72.29 75.27h.01c4.2 0 8.14-1.64 11.12-4.62a15.63 15.63 0 0 0 4.62-11.11v-9.79c0-7.05-5.77-12.67-12.82-12.7-16.06-.06-34.72-12.65-34.72-34.68v-66.03h34.84zm-276.25-24.81l-.06-.05c-13.4-8.88-30-13.57-48.02-13.57l-.93.02-.93-.02c-18.02 0-34.62 4.69-48.02 13.57l-.06.05c-24.1 15.17-38.83 41.97-38.83 75.15 0 34.75 16.15 62.51 42.33 77.23a83.21 83.21 0 0 0 42.31 11.51c28.53.02 45.75-16.14 51.17-23.2v6.09a12.7 12.7 0 0 0 12.7 12.7h14.47a12.7 12.7 0 0 0 12.7-12.7v-71.63c0-33.18-14.72-59.98-38.83-75.15zM1403.8 259.2a51.62 51.62 0 0 1-15.08 2.65l-.87.01-.86-.01c-.35 0-.7-.02-1.04-.03-4.7-.2-9.41-1.08-14.05-2.62-18.72-6.6-31.15-24.98-31.15-48.47 0-27.75 17.32-48.37 41.88-50.88l.4-.04a49.48 49.48 0 0 1 4.26-.21l.56-.01h.57a51 51 0 0 1 4.26.22l.39.04c24.56 2.51 41.88 23.13 41.88 50.88 0 23.49-12.43 41.86-31.15 48.47zm-328.25-123.62l-.06-.05c-13.4-8.88-30-13.57-48.02-13.57l-.93.02-.93-.02c-18.02 0-34.63 4.69-48.02 13.57l-.06.05c-24.11 15.17-38.83 41.97-38.83 75.15 0 34.75 16.15 62.51 42.33 77.23a83.21 83.21 0 0 0 42.31 11.51c28.53.02 45.75-16.14 51.17-23.2v6.09a12.7 12.7 0 0 0 12.7 12.7h14.47a12.7 12.7 0 0 0 12.7-12.7v-71.63c0-33.18-14.72-59.98-38.83-75.15zm-33.06 123.62a51.62 51.62 0 0 1-15.09 2.65l-.86.01-.86-.01c-.35 0-.7-.02-1.04-.03-4.7-.2-9.41-1.08-14.05-2.62-18.72-6.6-31.15-24.98-31.15-48.47 0-27.75 17.32-48.37 41.88-50.88l.4-.04a49.44 49.44 0 0 1 4.25-.21l.57-.01h.57a51 51 0 0 1 4.26.22l.39.04c24.56 2.51 41.88 23.13 41.88 50.88 0 23.49-12.43 41.86-31.15 48.47z"/></svg>