<?xml version="1.0" encoding="iso-8859-1"?>
<!-- Generator: Adobe Illustrator 19.0.0, SVG Export Plug-In . SVG Version: 6.00 Build 0)  -->
<svg version="1.1" id="Layer_1" xmlns="http://www.w3.org/2000/svg" xmlns:xlink="http://www.w3.org/1999/xlink" x="0px" y="0px"
	 viewBox="0 0 512 512" style="enable-background:new 0 0 512 512;" xml:space="preserve">
<g>
	<path style="fill:#38454F;" d="M185.379,384v17.655h141.241V384H476.69V101.517c0-9.754-7.901-17.655-17.655-17.655H52.966
		c-9.754,0-17.655,7.901-17.655,17.655V384H185.379z"/>
	<path style="fill:#B0B6BB;" d="M326.621,384v17.655H185.379V384H0v26.483c0,9.754,7.901,17.655,17.655,17.655h476.69
		c9.754,0,17.655-7.901,17.655-17.655V384H326.621z"/>
	<polygon style="fill:#546A79;" points="52.966,366.345 459.034,366.345 459.034,101.517 52.966,101.517 	"/>
	<g>
		<polygon style="fill:#DD691D;" points="70.621,348.69 123.586,348.69 123.586,304.552 70.621,304.552 		"/>
		<polygon style="fill:#DD691D;" points="150.069,348.69 203.034,348.69 203.034,304.552 150.069,304.552 		"/>
		<polygon style="fill:#DD691D;" points="229.517,348.69 282.483,348.69 282.483,304.552 229.517,304.552 		"/>
		<polygon style="fill:#DD691D;" points="308.966,348.69 361.931,348.69 361.931,304.552 308.966,304.552 		"/>
		<polygon style="fill:#DD691D;" points="388.414,348.69 441.379,348.69 441.379,304.552 388.414,304.552 		"/>
	</g>
	<g>
		<polygon style="fill:#ECBA16;" points="70.621,304.552 123.586,304.552 123.586,260.414 70.621,260.414 		"/>
		<polygon style="fill:#ECBA16;" points="150.069,304.552 203.034,304.552 203.034,225.103 150.069,225.103 		"/>
		<polygon style="fill:#ECBA16;" points="229.517,304.552 282.483,304.552 282.483,172.138 229.517,172.138 		"/>
		<polygon style="fill:#ECBA16;" points="308.966,304.552 361.931,304.552 361.931,233.931 308.966,233.931 		"/>
		<polygon style="fill:#ECBA16;" points="388.414,304.552 441.379,304.552 441.379,119.172 388.414,119.172 		"/>
	</g>
	<g>
		<path style="fill:#25AE88;" d="M79.448,198.621c-2.26,0-4.52-0.865-6.241-2.586c-3.452-3.452-3.452-9.031,0-12.482L135,121.759
			c3.452-3.452,9.031-3.452,12.482,0s3.452,9.031,0,12.482l-61.793,61.793C83.968,197.756,81.708,198.621,79.448,198.621"/>
		<path style="fill:#25AE88;" d="M141.241,180.966c-4.882,0-8.828-3.955-8.828-8.828V128c0-4.873,3.946-8.828,8.828-8.828
			s8.828,3.955,8.828,8.828v44.138C150.069,177.011,146.123,180.966,141.241,180.966"/>
		<path style="fill:#25AE88;" d="M141.241,136.828H97.103c-4.882,0-8.828-3.955-8.828-8.828c0-4.873,3.946-8.828,8.828-8.828h44.138
			c4.882,0,8.828,3.955,8.828,8.828C150.069,132.873,146.123,136.828,141.241,136.828"/>
	</g>
</g>
<g>
</g>
<g>
</g>
<g>
</g>
<g>
</g>
<g>
</g>
<g>
</g>
<g>
</g>
<g>
</g>
<g>
</g>
<g>
</g>
<g>
</g>
<g>
</g>
<g>
</g>
<g>
</g>
<g>
</g>
</svg>
