<?xml version="1.0" encoding="UTF-8"?> <svg xmlns="http://www.w3.org/2000/svg" xmlns:xlink="http://www.w3.org/1999/xlink" viewBox="0 0 214 231.38"><defs><style>.cls-1{fill:#fff;}</style><symbol id="A" data-name="A" viewBox="0 0 82.77 6.3"><path class="cls-1" d="M82.52,5.3a2.43,2.43,0,0,1-2.23,1C79.22,6.3,78,5.82,78,4.57S79.1,3,80.29,2.83c.85-.1,1.54-.33,1.54-1s-.8-1-1.52-1a2.08,2.08,0,0,0-1.87,1l-.72-.49A2.65,2.65,0,0,1,80.29,0c1.24,0,2.46.5,2.48,1.85s-1.17,1.7-2.4,1.86c-.79.1-1.45.28-1.45.86s.59.92,1.38.92a1.81,1.81,0,0,0,1.49-.68ZM61.75.15h.38a.58.58,0,0,1,.57.57V6.14H61.6l-2-2.82-2,2.82H56.56v-6h.38a.58.58,0,0,1,.57.57v4l2-2.83h.2l2,2.83ZM52,2.29H49.42l1.26,2.85ZM52.89.17h1l-2.69,6h-1l-2.69-6h1l.57,1.26h3.25Zm-12.4,6h-.74v-6h.4a.58.58,0,0,1,.57.57V4.39L44.12.17h.73v6h-.37a.58.58,0,0,1-.57-.57V1.89Zm-7.89,0H31.46v0l2.31-3.49V.17h.38a.58.58,0,0,1,.57.57V2.62L37.1,6.1v0H36L34.24,3.5Zm-7.33-.91h1.3a1.94,1.94,0,0,0,2.05-2A2,2,0,0,0,26.57,1.1h-1.3Zm-.95.91v-6h2.27a2.85,2.85,0,0,1,3,3,2.83,2.83,0,0,1-3,2.94H24.32ZM19.47,2a2.08,2.08,0,1,1,0,4.16H16.69v-6h.38a.58.58,0,0,1,.57.57V2ZM17.65,5.27h1.82a1.2,1.2,0,0,0,0-2.4H17.66ZM11.82,2a2.08,2.08,0,1,1,0,4.16H9.05v-6h.38A.58.58,0,0,1,10,.74V2ZM10,5.27h1.81a1.2,1.2,0,0,0,0-2.4H10Zm-5.54-3H2L3.22,5.14ZM5.38.17h1l-2.69,6h-1L0,.17H1l.57,1.26H4.85ZM66,5.58V.17h.38A.58.58,0,0,1,67,.74V6.15H66.6A.58.58,0,0,1,66,5.58M73,1a2.19,2.19,0,0,0,0,4.38,2.11,2.11,0,0,0,1.55-.64l.66.66A3.1,3.1,0,1,1,73.06.06,3,3,0,0,1,75.25,1l-.66.66A2.12,2.12,0,0,0,73,1"></path></symbol></defs><title>logo-appdynamics-stacked</title><g id="Layer_2" data-name="Layer 2"><g id="Layer_1-2" data-name="Layer 1"><use width="82.77" height="6.3" transform="matrix(2.59, 0, 0, -2.59, 0, 231.38)" xlink:href="#A"></use><path class="cls-1" d="M100.81,169.66a65.73,65.73,0,0,1-10.33.82A66.58,66.58,0,0,1,45.71,54.69l55.16,115"></path><path class="cls-1" d="M62,4.08A99.21,99.21,0,0,1,90.5,0C147.76,0,194.3,46.49,194,103.75a103.58,103.58,0,0,1-44.1,84.79L133.62,154.3A66.46,66.46,0,0,0,90.48,37.23a61.75,61.75,0,0,0-12.23,1.09Z"></path></g></g></svg> 