<?xml version="1.0" encoding="UTF-8"?> <svg xmlns="http://www.w3.org/2000/svg" xmlns:xlink="http://www.w3.org/1999/xlink" viewBox="0 0 200 222.459"><defs><style>.cls-1{fill:url(#linear-gradient);}.cls-2{fill:#fff;}</style><linearGradient id="linear-gradient" x1="91.017" y1="97.946" x2="43.843" y2="179.654" gradientUnits="userSpaceOnUse"><stop offset="0" stop-color="#fff" stop-opacity="0.4"></stop><stop offset="0.923" stop-color="#fff"></stop></linearGradient></defs><title>Atlassian-vertical-white-rgb</title><g id="Layer_2" data-name="Layer 2"><g id="Blue"><path class="cls-1" d="M66.519,84.151c-2.725-2.911-6.971-2.746-8.823.958L13.009,174.485a5.342,5.342,0,0,0,4.778,7.732H80.02a5.151,5.151,0,0,0,4.779-2.954C98.218,151.518,90.088,109.333,66.519,84.151Z"></path><path class="cls-2" d="M99.307,2.862c-24.994,39.6-23.345,83.458-6.882,116.385l30.008,60.016a5.342,5.342,0,0,0,4.778,2.953h62.232a5.342,5.342,0,0,0,4.778-7.732S110.5,7.018,108.394,2.828C106.511-.923,101.728-.974,99.307,2.862Z"></path><path class="cls-2" d="M91.246,204.611c0,3.592,1.666,6.443,8.184,7.7,3.888.815,4.7,1.444,4.7,2.74,0,1.259-.815,2.074-3.555,2.074a20.062,20.062,0,0,1-9.443-2.555v5.851a19.318,19.318,0,0,0,9.369,2.037c6.814,0,9.517-3.036,9.517-7.554m0,0c0-4.258-2.259-6.258-8.628-7.628-3.518-.778-4.37-1.555-4.37-2.666,0-1.407,1.259-2,3.592-2a20.235,20.235,0,0,1,8.221,2.037v-5.592a18.58,18.58,0,0,0-8.036-1.666c-6.3,0-9.554,2.74-9.554,7.221"></path><polygon class="cls-2" points="178.782 197.76 178.782 222.089 183.966 222.089 183.966 203.537 186.151 208.462 193.483 222.089 200 222.089 200 197.76 194.816 197.76 194.816 213.461 192.853 208.906 186.965 197.76 178.782 197.76"></polygon><rect class="cls-2" x="140.143" y="197.76" width="5.666" height="24.329"></rect><path class="cls-2" d="M133.606,214.9c0-4.258-2.259-6.258-8.628-7.628-3.518-.778-4.37-1.555-4.37-2.666,0-1.407,1.259-2,3.592-2a20.235,20.235,0,0,1,8.221,2.037v-5.592a18.58,18.58,0,0,0-8.036-1.666c-6.3,0-9.554,2.74-9.554,7.221,0,3.592,1.666,6.443,8.184,7.7,3.888.815,4.7,1.444,4.7,2.74,0,1.259-.815,2.074-3.555,2.074a20.062,20.062,0,0,1-9.443-2.555v5.851a19.318,19.318,0,0,0,9.369,2.037c6.814,0,9.517-3.036,9.517-7.554"></path><polygon class="cls-2" points="47.233 197.76 47.233 222.089 58.879 222.089 60.712 216.831 52.936 216.831 52.936 197.76 47.233 197.76"></polygon><polygon class="cls-2" points="24.226 197.76 24.226 203.018 30.521 203.018 30.521 222.089 36.224 222.089 36.224 203.018 42.963 203.018 42.963 197.76 24.226 197.76"></polygon><path class="cls-2" d="M15.957,197.76H8.484L0,222.089H6.48l1.2-4.1a16.1,16.1,0,0,0,9.074,0l1.2,4.1h6.48ZM12.22,213.606a11.065,11.065,0,0,1-3.118-.448l3.118-10.621,3.118,10.621A11.065,11.065,0,0,1,12.22,213.606Z"></path><path class="cls-2" d="M78.955,197.76H71.481L63,222.089h6.48l1.2-4.1a16.1,16.1,0,0,0,9.074,0l1.2,4.1h6.48Zm-3.737,15.846a11.065,11.065,0,0,1-3.118-.448l3.118-10.621,3.118,10.621A11.065,11.065,0,0,1,75.218,213.606Z"></path><path class="cls-2" d="M166.225,197.76h-7.473l-8.484,24.329h6.48l1.2-4.1a16.1,16.1,0,0,0,9.074,0l1.2,4.1h6.48Zm-3.737,15.846a11.065,11.065,0,0,1-3.118-.448l3.118-10.621,3.118,10.621A11.065,11.065,0,0,1,162.488,213.606Z"></path></g></g></svg> 