<?xml version="1.0" encoding="UTF-8" standalone="no"?>
<!-- Created with Inkscape (http://www.inkscape.org/) -->

<svg
   version="1.1"
   id="svg2"
   width="470.97333"
   height="405.17334"
   viewBox="0 0 470.97333 405.17334"
   sodipodi:docname="bsu-logo_blk-flame-blk-text.eps"
   xmlns:inkscape="http://www.inkscape.org/namespaces/inkscape"
   xmlns:sodipodi="http://sodipodi.sourceforge.net/DTD/sodipodi-0.dtd"
   xmlns="http://www.w3.org/2000/svg"
   xmlns:svg="http://www.w3.org/2000/svg">
  <defs
     id="defs6" />
  <sodipodi:namedview
     id="namedview4"
     pagecolor="#ffffff"
     bordercolor="#000000"
     borderopacity="0.25"
     inkscape:showpageshadow="2"
     inkscape:pageopacity="0.0"
     inkscape:pagecheckerboard="0"
     inkscape:deskcolor="#d1d1d1" />
  <g
     id="g8"
     inkscape:groupmode="layer"
     inkscape:label="ink_ext_XXXXXX"
     transform="matrix(1.3333333,0,0,-1.3333333,0,405.17333)">
    <g
       id="g10"
       transform="scale(0.1)">
      <path
         d="M 455.645,856.328 2.28125,856.059 v 43 c 23.42575,1.3 79.47265,9.16 96.41015,15.671 31.2466,11.731 40.3356,33.891 40.3356,62.551 l -0.328,639.629 c -0.113,28.65 -9.207,52.12 -40.492,65.12 -27.332,11.71 -67.7734,19.49 -91.15622,20.76 l -0.07812,43.01 445.53134,0.27 c 96.359,0.05 255.394,-38.95 255.418,-178.29 0.113,-147.29 -101.477,-191.59 -225.231,-226.81 v -11.77 c 92.5,-10.35 272.336,-64.96 272.438,-236.89 C 755.23,925.551 579.379,856.371 455.645,856.328 m -72.098,841.492 c -22.223,0 -75.598,-1.33 -106.891,-2.65 l 0.215,-343.89 h 80.789 c 143.285,0.07 194.059,79.56 193.938,189.02 -0.039,128.93 -87.305,157.58 -168.051,157.52 m 4.129,-394.68 c -23.516,0 -87.309,-1.39 -110.805,-2.73 l 0.207,-317.84 c 9.199,-58.601 45.664,-78.14 122.5,-78.101 155.051,0.121 195.348,110.881 195.328,216.361 -0.086,105.5 -73.09,182.34 -207.23,182.31"
         style="fill:#a5b4fc;fill-opacity:1;fill-rule:nonzero;stroke:none"
         id="path16" />
      <path
         d="m 1376.82,929.859 c -59.94,-54.781 -135.45,-89.988 -235.74,-90.07 -88.63,-0.039 -157.689,28.582 -224.17,88.492 -65.164,55.949 -105.621,135.399 -105.621,238.309 -0.059,102.9 31.078,182.39 96.285,244.94 65.031,65.19 141.906,96.5 236.986,96.6 92.47,0 166.79,-26 241.08,-96.28 59.95,-54.7 93.84,-141.96 93.93,-233.13 0.03,-97.7 -29.82,-183.7 -102.75,-248.861 M 1144.63,1459.9 c -119.9,-0.08 -191.489,-106.93 -191.349,-288.06 0.086,-155.03 58.809,-283.918 191.619,-283.852 132.9,0.051 192.77,123.892 192.64,288.032 -0.09,140.7 -48.38,284.01 -192.91,283.88"
         style="fill:#a5b4fc;fill-opacity:1;fill-rule:nonzero;stroke:none"
         id="path18" />
      <path
         d="m 2409.38,1430.72 c -24.67,-11.76 -37.71,-33.92 -48.13,-61.28 -44.23,-109.46 -130.07,-332.33 -197.68,-518.561 l -59.98,-0.07 c -58.72,181.011 -109.62,332.131 -148.75,445.421 L 1781.85,850.609 h -61.21 c -77,234.431 -152.74,459.751 -178.84,541.811 -6.5,16.9 -13.04,28.59 -35.21,40.35 -15.54,9.09 -53.36,15.6 -74.24,16.91 l -0.02,41.7 320.41,0.15 0.12,-40.39 c -36.53,-1.31 -87.31,-13.07 -87.31,-30.05 0,-6.48 0,-16.9 2.63,-22.08 13.09,-39.05 58.7,-181.13 123.97,-379 l 126.12,321.79 c 0,40.43 -14.29,70.4 -46.86,89.87 -14.38,9.08 -53.47,18.24 -74.27,19.55 l -0.04,40.35 341.32,0.2 v -40.44 c -36.53,-1.26 -96.39,-12.98 -96.39,-29.93 0,-6.55 0,-15.63 2.65,-22.19 11.69,-36.45 60.1,-177.14 127.9,-375.05 53.31,136.78 88.45,230.56 111.79,302.24 13.07,45.6 18.2,63.85 18.2,79.52 0,27.33 -72.93,42.93 -118.55,45.45 l -0.07,40.44 300.97,0.16 0.09,-41.66 c -20.94,-1.34 -58.68,-10.5 -75.63,-19.59"
         style="fill:#a5b4fc;fill-opacity:1;fill-rule:nonzero;stroke:none"
         id="path20" />
      <path
         d="m 2526.15,857.59 v 41.621 c 19.47,1.34 71.59,6.598 84.66,10.5 20.81,6.57 29.89,22.199 29.89,40.398 l -0.27,442.941 c 0,18.24 -7.82,32.54 -29.93,40.36 -16.98,5.25 -65.2,15.59 -84.75,16.9 v 41.74 l 353.03,0.15 0.04,-41.7 c -20.85,-1.3 -67.77,-7.85 -84.66,-13.06 -22.2,-5.22 -29.97,-22.16 -29.97,-40.4 l 0.27,-441.63 c 0,-19.582 10.5,-32.539 30.01,-40.398 9.12,-3.871 63.81,-14.25 84.7,-15.512 v -41.738 l -353.02,-0.172"
         style="fill:#a5b4fc;fill-opacity:1;fill-rule:nonzero;stroke:none"
         id="path22" />
      <path
         d="m 3515.56,858.191 -595.32,-0.351 -0.07,41.66 c 19.62,1.301 71.67,6.539 87.34,11.828 22.11,6.453 29.93,22.082 29.93,41.66 l -0.27,438.992 c -0.08,18.25 -9.16,32.58 -30.05,41.62 -18.29,7.9 -67.73,15.68 -87.24,16.95 v 41.7 l 561.41,0.35 0.16,-160.24 h -37.84 c -11.76,39.01 -63.88,108.04 -96.5,111.91 -23.42,2.64 -54.66,5.21 -85.93,5.21 l -100.34,-0.08 0.12,-239.73 63.85,0.04 c 53.43,0.08 71.64,15.72 82.09,26.14 14.26,14.33 24.72,57.33 27.37,83.36 l 40.32,0.08 0.12,-269.67 -40.32,-0.03 c -1.34,28.62 -17.02,75.53 -27.41,87.26 -11.77,13 -31.31,28.6 -82.05,28.6 h -63.86 l 0.08,-181.141 c 0,-71.668 16.95,-80.707 106.82,-80.668 65.23,0.039 123.84,0.078 145.99,22.218 29.85,27.411 70.21,112.081 79.29,138.101 l 39.09,0.04 -16.78,-205.809"
         style="fill:#a5b4fc;fill-opacity:1;fill-rule:nonzero;stroke:none"
         id="path24" />
      <path
         d="m 86.6914,474.961 c -28.6367,0 -49.1484,9.199 -59.7851,17.68 L 14.4727,476.02 H 2.48047 L 0,562.309 h 11.6992 c 14.4805,-37.481 34.9961,-72.821 78.8555,-72.821 31.4763,0 43.5473,16.981 43.5473,42.453 0,19.071 -11.731,36.047 -32.934,44.539 -20.1563,8.098 -30.7657,12 -50.6211,20.848 -27.1992,12.051 -43.49612,31.473 -43.49612,62.953 0,37.508 32.17192,65.43 72.50002,65.43 18.3984,0 40.3362,-8.109 52.7342,-17.66 l 12.008,16.621 h 11.992 l 1.817,-83.82 h -11.305 c -14.215,40 -28.668,70.437 -72.9259,70.41 -10.2617,0 -34.9727,-6.762 -34.9727,-33.934 0,-20.566 10.2657,-32.18 29.6758,-42.879 17.375,-9.519 32.2308,-12.719 48.2028,-20.461 30.328,-13.816 51.629,-27.949 51.629,-65.468 0,-43.161 -36.121,-73.559 -81.7146,-73.559"
         style="fill:#a5b4fc;fill-opacity:1;fill-rule:nonzero;stroke:none"
         id="path26" />
      <path
         d="m 395.445,656.129 c -3.953,15.519 -23.05,48.449 -38.218,50.543 -8.489,1.066 -20.215,1.379 -28.707,1.379 h -13.082 l 0.042,-193.442 c 0,-7.828 2.856,-14.179 10.981,-17.648 4.223,-1.781 22.641,-5.332 28.988,-5.731 v -11.621 l -117.426,-0.031 v 11.652 c 6.348,0.399 24.442,2.129 28.973,3.911 8.492,3.16 11.024,9.898 11.024,17.687 l -0.086,195.223 h -13.036 c -6.367,0 -20.218,-0.313 -28.691,-1.379 -15.184,-2.094 -34.273,-35.063 -38.156,-50.543 H 186.07 v 65.031 h 221.356 v -65.031 h -11.981"
         style="fill:#a5b4fc;fill-opacity:1;fill-rule:nonzero;stroke:none"
         id="path28" />
      <path
         d="m 545.199,479.609 v 11.692 c 12.328,0.719 35.707,3.918 35.707,9.918 0,2.492 -0.343,5.25 -1.437,8.09 l -21.266,54.132 h -86.637 c -5.281,-12.75 -10.25,-26.523 -13.406,-37.179 -2.523,-7.75 -3.902,-14.813 -3.902,-19.793 0,-10.981 27.613,-14.449 39.957,-15.168 V 479.609 H 393.418 v 11.621 c 6.754,0.399 18.402,2.879 24.809,6.391 8.414,4.981 14.761,11.688 20.097,24.078 25.156,60.86 54.508,135.84 81.34,203.371 h 15.18 c 36.113,-91.261 69.371,-177.5 82.453,-210.429 2.875,-7.11 7.484,-12.403 15.91,-17.289 6.387,-3.563 16.637,-5.68 23.391,-6.051 v -11.692 z m -30.511,193.5 -37.083,-94.449 h 74.586 z"
         style="fill:#a5b4fc;fill-opacity:1;fill-rule:nonzero;stroke:none"
         id="path30" />
      <path
         d="m 851.77,656.168 c -3.903,15.523 -22.965,48.441 -38.153,50.621 -8.515,0.992 -20.195,1.34 -28.668,1.34 H 771.84 l 0.019,-193.488 c 0,-7.743 2.793,-14.09 10.969,-17.641 4.227,-1.781 22.637,-5.328 29.004,-5.699 V 479.609 H 694.395 v 11.692 c 6.386,0.371 24.375,2.14 28.984,3.918 8.519,3.152 11,9.859 11,17.691 v 195.18 h -13.117 c -6.367,0 -20.164,-0.309 -28.657,-1.34 -15.257,-2.172 -34.281,-35.059 -38.164,-50.621 h -12.07 v 65.07 h 221.43 l 0.054,-65.031 H 851.77"
         style="fill:#a5b4fc;fill-opacity:1;fill-rule:nonzero;stroke:none"
         id="path32" />
      <path
         d="M 1096.76,479.648 H 887.363 v 11.692 c 6.348,0.359 23.285,2.14 27.918,3.84 8.508,3.191 10.957,9.59 10.957,17.359 l -0.039,173.723 c 0,7.769 -2.14,13.75 -10.972,17.289 -6.676,2.84 -21.516,5.648 -27.864,6.051 v 11.597 l 194.867,0.051 v -58.371 h -13.09 c -3.9,15.601 -22.6,41.73 -37.82,43.91 -8.54,0.992 -18.04,1.34 -29.38,1.34 h -38.213 v -96.5 h 28.3 c 19.813,0 25.513,6.672 29.783,10.93 5.26,5.339 9.8,21.613 10.94,30.769 h 13.02 V 554.68 h -13.02 c -0.71,10.269 -6.73,27.922 -10.94,32.5 -4.63,4.968 -10.63,10.941 -29.783,10.941 h -28.3 l 0.019,-72.461 c 0,-29.019 6.387,-32.18 42.054,-32.18 18.46,0 46.03,-0.761 54.55,8.129 10.55,10.969 25.1,38.903 28.63,49.52 h 12.41 l -4.63,-71.481"
         style="fill:#a5b4fc;fill-opacity:1;fill-rule:nonzero;stroke:none"
         id="path34" />
      <path
         d="m 1448.31,701.5 c -9.54,-6.051 -11.67,-25.121 -11.67,-47.031 v -104.02 c 0,-57.648 -55.17,-76.398 -91.91,-76.398 -61.89,0 -94.83,32.539 -94.83,69.328 v 142.883 c 0,7.769 -2.82,13.457 -10.97,17.726 -6.36,3.153 -19.12,5.25 -24.76,5.641 v 11.621 l 110.01,0.07 v -11.691 c -6.4,-0.391 -19.05,-2.117 -25.43,-4.258 -8.85,-2.812 -10.98,-9.562 -10.98,-17.34 V 553.969 c 0,-25.43 8.85,-61.207 64.05,-61.207 56.21,0.039 67.9,38.226 67.9,62.636 v 96.93 c 0,25.832 -4.27,42.422 -12.1,47.391 -8.77,5.652 -27.92,9.562 -36,9.91 v 11.691 h 109.21 l 0.08,-11.691 c -6.4,-0.348 -25.1,-3.508 -32.6,-8.129"
         style="fill:#a5b4fc;fill-opacity:1;fill-rule:nonzero;stroke:none"
         id="path36" />
      <path
         d="m 1747.96,701.18 c -9.57,-6 -11.69,-21.239 -11.69,-47.391 l 0.08,-176.5 h -14.85 l -156.78,197.32 v -123.75 c 0.08,-29.39 4.3,-42.14 12.06,-48.488 6.04,-4.941 30.08,-10.59 36.45,-10.992 V 479.73 l -109.66,-0.039 v 11.688 c 6.38,0.402 29.01,6.402 32.97,9.211 8.42,6.039 11.61,18.711 11.61,48.488 l -0.03,117.434 c 0,10.226 -4.23,22.269 -11.34,27.918 -8.45,6.75 -28.27,14.851 -37.79,15.199 v 11.691 h 74.59 l 146.15,-183.89 -0.06,114.242 c 0,28.269 -4.23,42.758 -12.02,47.726 -6.76,4.243 -27.96,9.883 -36.1,10.274 v 11.648 h 108.93 v -11.609 c -6.33,-0.391 -26.87,-5.02 -32.52,-8.531"
         style="fill:#a5b4fc;fill-opacity:1;fill-rule:nonzero;stroke:none"
         id="path38" />
      <path
         d="m 1803.37,479.77 v 11.652 c 6.39,0.359 21.28,1.43 25.9,3.199 8.41,3.199 10.94,9.199 10.94,16.988 l -0.04,175.082 c 0,7.778 -2.13,13.43 -11.02,16.95 -6.32,2.48 -19.39,5.679 -25.78,6.07 l -0.04,11.609 111.04,0.078 v -11.687 c -6.28,-0.391 -19.39,-2.133 -25.71,-4.262 -8.88,-2.808 -11.01,-9.199 -11.01,-16.988 V 513.379 c 0,-7.777 2.8,-13.469 11.01,-16.988 4.18,-1.77 19.43,-4.61 25.78,-4.969 V 479.77 h -111.07"
         style="fill:#a5b4fc;fill-opacity:1;fill-rule:nonzero;stroke:none"
         id="path40" />
      <path
         d="m 2169.06,702.988 c -9.24,-5.277 -13.46,-11.316 -18.4,-22.258 -14.49,-33.64 -59.07,-137.308 -86.68,-203.8 h -14.8 c -32.94,91.648 -64.01,177.218 -75.74,209.441 -2.88,7.391 -7.46,12.367 -15.91,17.348 -6.36,3.511 -16.63,5.601 -23.38,5.992 v 11.687 h 109.74 v -11.687 c -12.44,-0.75 -34.4,-1.813 -34.4,-9.242 0,-2.449 0.68,-5.91 1.82,-8.797 5.33,-14.891 29.33,-82.063 58.72,-161.274 22.26,52.672 44.85,105.043 55.83,132.633 8.1,20.5 8.1,27.25 8.1,31.528 0,10.171 -24.33,14.089 -40.6,15.152 l -0.08,11.687 h 98.76 v -11.687 c -6.71,-0.352 -16.62,-3.199 -22.98,-6.723"
         style="fill:#a5b4fc;fill-opacity:1;fill-rule:nonzero;stroke:none"
         id="path42" />
      <path
         d="m 2419.14,479.852 -209.4,-0.043 v 11.652 c 6.39,0.398 23.38,2.18 27.99,3.918 8.45,3.191 10.98,9.551 10.98,17.32 l -0.08,173.672 c 0,7.789 -2.14,13.828 -10.9,17.348 -6.79,2.793 -21.6,5.679 -27.99,5.992 v 11.73 h 194.95 V 663.07 h -13.12 c -3.9,15.532 -22.62,41.739 -37.86,43.84 -8.46,1.059 -18.05,1.418 -29.34,1.418 h -38.27 l 0.08,-96.547 h 28.27 c 19.83,0 25.47,6.68 29.7,10.899 5.33,5.332 9.91,21.601 11.02,30.8 h 12.99 l 0.08,-98.64 -13.07,-0.039 c -0.76,10.23 -6.75,27.961 -11.02,32.578 -4.58,4.891 -10.59,10.941 -29.7,10.941 h -28.27 v -72.539 c 0,-28.992 6.36,-32.14 42.1,-32.14 18.4,0 45.96,-0.711 54.45,8.121 10.58,10.976 25.15,38.906 28.63,49.519 h 12.4 l -4.62,-71.429"
         style="fill:#a5b4fc;fill-opacity:1;fill-rule:nonzero;stroke:none"
         id="path44" />
      <path
         d="m 2618.63,479.852 c -5.33,25.867 -10.58,46.007 -20.09,70.058 -10,25.078 -32.62,45.602 -57.3,45.602 h -18.09 v -82.774 c 0,-7.726 2.48,-14.476 10.98,-17.648 4.62,-1.809 20.49,-3.192 26.85,-3.629 v -11.609 h -111.79 v 11.609 c 6.4,0.437 20.93,1.82 25.51,3.629 8.44,3.172 10.93,9.922 10.93,17.648 v 174.75 c 0,7.813 -2.09,14.84 -10.97,17.684 -6.32,2.137 -19.07,4.226 -25.47,4.617 v 11.652 h 123.09 c 35.77,0 73.95,-15.91 73.95,-55.16 0,-38.582 -29.37,-50.941 -67.6,-61.57 v -3.512 c 21.28,-4.969 47.83,-16.66 59.08,-44.929 5.68,-14.149 12.75,-36.77 14.49,-41.75 5.8,-17.29 15.55,-18.79 22.31,-20.141 7.1,-1.449 15.24,-2.481 21.63,-2.828 v -11.699 z m -64.71,228.16 h -30.77 v -98.723 l 22.63,0.051 c 31.43,0 56.93,20.449 56.93,53.379 0,32.191 -21.95,45.293 -48.79,45.293"
         style="fill:#a5b4fc;fill-opacity:1;fill-rule:nonzero;stroke:none"
         id="path46" />
      <path
         d="m 2801.66,475.32 c -28.67,0 -49.25,9.2 -59.78,17.68 l -12.41,-16.672 h -12 l -2.49,86.371 h 11.65 c 14.49,-37.597 35.07,-72.929 78.9,-72.929 31.51,0 43.51,17.011 43.51,42.441 0,19.117 -11.73,36.098 -32.85,44.59 -20.21,8.129 -30.88,12.027 -50.58,20.84 -27.33,12.007 -43.56,31.48 -43.56,62.988 0,37.473 32.19,65.43 72.46,65.473 18.48,0 40.35,-8.172 52.72,-17.743 l 12,16.641 h 12.05 l 1.78,-83.801 h -11.34 c -14.18,39.961 -28.59,70.371 -72.85,70.371 -10.32,0 -35.03,-6.718 -35.03,-33.968 0,-20.524 10.26,-32.211 29.73,-42.793 17.38,-9.52 32.14,-12.707 48.1,-20.5 30.45,-13.821 51.69,-27.918 51.69,-65.438 0,-43.152 -36.09,-73.551 -81.7,-73.551"
         style="fill:#a5b4fc;fill-opacity:1;fill-rule:nonzero;stroke:none"
         id="path48" />
      <path
         d="m 2906.93,479.891 v 11.66 c 6.4,0.39 21.2,1.41 25.87,3.23 8.49,3.117 10.98,9.16 10.98,16.938 l -0.08,175.09 c 0,7.793 -2.1,13.472 -10.95,16.98 -6.39,2.449 -19.42,5.691 -25.82,6.039 v 11.692 h 111 l 0.09,-11.692 c -6.41,-0.348 -19.51,-2.09 -25.87,-4.258 -8.85,-2.808 -10.98,-9.199 -10.98,-16.992 V 513.5 c 0,-7.781 2.84,-13.469 10.98,-16.98 4.31,-1.739 19.46,-4.579 25.87,-4.93 v -11.699 h -111.09"
         style="fill:#a5b4fc;fill-opacity:1;fill-rule:nonzero;stroke:none"
         id="path50" />
      <path
         d="m 3251.9,656.441 c -3.91,15.559 -22.98,48.5 -38.23,50.59 -8.41,1.02 -20.1,1.367 -28.62,1.367 h -13.12 l 0.04,-193.437 c 0,-7.789 2.77,-14.172 10.98,-17.731 4.23,-1.781 22.63,-5.289 29.03,-5.601 V 479.93 h -117.44 v 11.66 c 6.36,0.351 24.37,2.09 28.99,3.859 8.52,3.242 10.89,9.949 10.89,17.692 v 195.257 h -13.06 c -6.37,0 -20.15,-0.347 -28.64,-1.367 -15.2,-2.179 -34.31,-35.031 -38.14,-50.633 h -12.04 v 65.161 h 221.37 l 0.07,-65.118 h -12.08"
         style="fill:#a5b4fc;fill-opacity:1;fill-rule:nonzero;stroke:none"
         id="path52" />
      <path
         d="m 3499.96,703.199 c -9.24,-5.328 -11.37,-6.75 -20.49,-18.09 -19.11,-24.05 -33.25,-49.828 -53.75,-87.031 -7.06,-12.707 -12.39,-27.918 -12.39,-39.609 v -43.508 c 0,-8.141 2.88,-14.133 11.02,-17.691 4.21,-1.782 22.54,-5.29 28.98,-5.598 v -11.703 h -117.44 v 11.66 c 6.32,0.351 24.36,2.09 28.98,3.859 8.45,3.203 10.98,9.91 10.98,17.692 v 58.05 c 0,7.032 -3.95,15.879 -9.2,26.532 -16.31,31.758 -30.09,56.59 -44.98,82.457 -7.38,12.679 -14.84,19.019 -23.33,24 -6.32,3.519 -15.92,5.301 -22.63,5.609 v 11.731 h 113.84 v -11.688 c -12.31,-0.699 -35.65,-0.699 -35.65,-8.492 0,-4.93 22.58,-46.668 54.1,-102.551 32.89,51.641 56.58,92.293 56.58,97.934 0,10.629 -19.82,12.039 -36.05,13.109 v 11.688 h 91.93 v -11.688 c -4.23,-0.351 -16.63,-4.223 -20.5,-6.672"
         style="fill:#a5b4fc;fill-opacity:1;fill-rule:nonzero;stroke:none"
         id="path54" />
    </g>
  </g>
</svg>
