<svg height="512pt" viewBox="0 -9 512.00001 512" width="512pt" xmlns="http://www.w3.org/2000/svg"><path d="m7.5 364.832031c4.140625 0 7.5-3.355469 7.5-7.5v-218.441406h443.128906v82.441406c0 4.144531 3.359375 7.5 7.5 7.5 4.144532 0 7.5-3.355469 7.5-7.5v-148.222656c0-25.144531-20.457031-45.601563-45.597656-45.601563h-19.667969v-9.289062c0-10.046875-8.171875-18.21875-18.21875-18.21875h-13.933593c-10.042969 0-18.214844 8.171875-18.214844 18.21875v9.289062h-49.742188v-9.289062c0-10.046875-8.171875-18.21875-18.21875-18.21875h-13.933594c-10.042968 0-18.214843 8.171875-18.214843 18.21875v9.289062h-49.746094v-9.289062c0-10.046875-8.171875-18.21875-18.21875-18.21875h-13.929687c-10.046876 0-18.21875 8.171875-18.21875 18.21875v9.289062h-49.742188v-9.289062c0-10.046875-8.171875-18.21875-18.21875-18.21875h-13.929688c-10.046874 0-18.21875 8.171875-18.21875 18.21875v9.289062h-11.5625c-25.144531 0-45.601562 20.457032-45.601562 45.601563v284.222656c0 4.144531 3.359375 7.5 7.5 7.5zm364.996094-346.613281c0-1.773438 1.445312-3.21875 3.21875-3.21875h13.933594c1.773437 0 3.214843 1.445312 3.214843 3.21875v36.4375c0 1.773438-1.441406 3.21875-3.214843 3.21875h-13.933594c-1.773438 0-3.21875-1.441406-3.21875-3.21875zm-100.109375 0c0-1.773438 1.441406-3.21875 3.214843-3.21875h13.933594c1.773438 0 3.21875 1.445312 3.21875 3.21875v36.4375c0 1.773438-1.445312 3.21875-3.21875 3.21875h-13.933594c-1.773437 0-3.214843-1.441406-3.214843-3.21875zm-100.113281 0c0-1.773438 1.445312-3.21875 3.21875-3.21875h13.933593c1.773438 0 3.21875 1.445312 3.21875 3.21875v36.4375c0 1.773438-1.445312 3.21875-3.21875 3.21875h-13.933593c-1.773438 0-3.21875-1.441406-3.21875-3.21875zm-100.109376 0c0-1.773438 1.445313-3.21875 3.21875-3.21875h13.933594c1.773438 0 3.214844 1.445312 3.214844 3.21875v36.4375c0 1.773438-1.441406 3.21875-3.214844 3.21875h-13.933594c-1.773437 0-3.21875-1.441406-3.21875-3.21875zm-26.5625 24.289062h11.5625v12.148438c0 10.046875 8.171876 18.21875 18.21875 18.21875h13.933594c10.042969 0 18.214844-8.171875 18.214844-18.21875v-12.148438h49.746094v12.148438c0 10.046875 8.171875 18.21875 18.214844 18.21875h13.933593c10.046875 0 18.21875-8.171875 18.21875-18.21875v-12.148438h49.742188v12.148438c0 10.046875 8.171875 18.21875 18.21875 18.21875h13.933593c10.042969 0 18.214844-8.171875 18.214844-18.21875v-12.148438h49.742188v12.148438c0 10.046875 8.171875 18.21875 18.21875 18.21875h13.933594c10.042968 0 18.214843-8.171875 18.214843-18.21875v-12.148438h19.667969c16.875 0 30.601562 13.726563 30.601562 30.601563v50.78125h-443.132812v-50.78125c0-16.875 13.726562-30.601563 30.601562-30.601563zm0 0"/><path d="m84.910156 434.582031h-65.398437c-2.488281 0-4.511719-2.023437-4.511719-4.511719v-38.558593c0-4.144531-3.359375-7.5-7.5-7.5s-7.5 3.355469-7.5 7.5v38.558593c0 10.757813 8.753906 19.511719 19.511719 19.511719h65.398437c4.140625 0 7.5-3.359375 7.5-7.5 0-4.144531-3.359375-7.5-7.5-7.5zm0 0"/><path d="m84.660156 160.761719h-26.070312c-4.140625 0-7.5 3.359375-7.5 7.5 0 4.144531 3.359375 7.5 7.5 7.5h26.070312c4.140625 0 7.5-3.355469 7.5-7.5 0-4.140625-3.359375-7.5-7.5-7.5zm0 0"/><path d="m138.707031 175.761719h26.070313c4.140625 0 7.5-3.355469 7.5-7.5 0-4.140625-3.359375-7.5-7.5-7.5h-26.070313c-4.140625 0-7.5 3.359375-7.5 7.5 0 4.144531 3.359375 7.5 7.5 7.5zm0 0"/><path d="m218.824219 175.761719h26.066406c4.140625 0 7.5-3.355469 7.5-7.5 0-4.140625-3.359375-7.5-7.5-7.5h-26.066406c-4.144531 0-7.5 3.359375-7.5 7.5 0 4.144531 3.355469 7.5 7.5 7.5zm0 0"/><path d="m298.9375 175.761719h26.070312c4.140626 0 7.5-3.355469 7.5-7.5 0-4.140625-3.359374-7.5-7.5-7.5h-26.070312c-4.140625 0-7.5 3.359375-7.5 7.5 0 4.144531 3.359375 7.5 7.5 7.5zm0 0"/><path d="m405.121094 160.761719h-26.066406c-4.144532 0-7.5 3.359375-7.5 7.5 0 4.144531 3.355468 7.5 7.5 7.5h26.066406c4.140625 0 7.5-3.355469 7.5-7.5 0-4.140625-3.359375-7.5-7.5-7.5zm0 0"/><path d="m84.660156 198.476562h-26.070312c-4.140625 0-7.5 3.355469-7.5 7.5 0 4.144532 3.359375 7.5 7.5 7.5h26.070312c4.140625 0 7.5-3.355468 7.5-7.5 0-4.144531-3.359375-7.5-7.5-7.5zm0 0"/><path d="m138.707031 213.476562h26.070313c4.140625 0 7.5-3.355468 7.5-7.5 0-4.144531-3.359375-7.5-7.5-7.5h-26.070313c-4.140625 0-7.5 3.355469-7.5 7.5 0 4.144532 3.359375 7.5 7.5 7.5zm0 0"/><path d="m218.824219 213.476562h26.066406c4.140625 0 7.5-3.355468 7.5-7.5 0-4.144531-3.359375-7.5-7.5-7.5h-26.066406c-4.144531 0-7.5 3.355469-7.5 7.5 0 4.144532 3.355469 7.5 7.5 7.5zm0 0"/><path d="m298.9375 213.476562h26.070312c4.140626 0 7.5-3.355468 7.5-7.5 0-4.144531-3.359374-7.5-7.5-7.5h-26.070312c-4.140625 0-7.5 3.355469-7.5 7.5 0 4.144532 3.359375 7.5 7.5 7.5zm0 0"/><path d="m405.121094 198.476562h-26.066406c-4.144532 0-7.5 3.355469-7.5 7.5 0 4.144532 3.355468 7.5 7.5 7.5h26.066406c4.140625 0 7.5-3.355468 7.5-7.5 0-4.144531-3.359375-7.5-7.5-7.5zm0 0"/><path d="m138.890625 360.714844 38.5625 38.5625c5.578125 5.578125 12.992187 8.648437 20.882813 8.648437 7.890624 0 15.308593-3.070312 20.882812-8.648437l105.605469-105.605469c11.515625-11.515625 11.515625-30.253906 0-41.769531s-30.253907-11.515625-41.769531 0l-84.71875 84.71875-17.679688-17.675782c-11.511719-11.515624-30.25-11.515624-41.769531 0-11.511719 11.515626-11.511719 30.253907.003906 41.769532zm10.605469-31.164063c2.832031-2.832031 6.554687-4.25 10.277344-4.25 3.722656 0 7.445312 1.417969 10.277343 4.25l22.980469 22.980469c2.929688 2.929688 7.675781 2.929688 10.605469 0l90.023437-90.019531c5.671875-5.667969 14.890625-5.667969 20.554688-.003907 5.667968 5.667969 5.667968 14.890626 0 20.558594l-105.601563 105.601563c-2.746093 2.746093-6.394531 4.257812-10.277343 4.257812-3.882813 0-7.53125-1.511719-10.277344-4.257812l-38.5625-38.5625c-5.667969-5.667969-5.667969-14.886719 0-20.554688zm0 0"/><path d="m473.128906 315.359375v-59.847656c0-4.144531-3.355468-7.5-7.5-7.5-4.140625 0-7.5 3.355469-7.5 7.5v50.28125c-13.675781-7.089844-29.195312-11.101563-45.632812-11.101563-54.867188 0-99.503906 44.636719-99.503906 99.503906 0 14.371094 3.066406 28.035157 8.570312 40.386719h-202.476562c-4.140626 0-7.5 3.355469-7.5 7.5 0 4.140625 3.359374 7.5 7.5 7.5h210.785156c17.878906 26.589844 48.242187 44.117188 82.625 44.117188 54.867187 0 99.503906-44.636719 99.503906-99.503907 0-32.0625-15.25-60.628906-38.871094-78.835937zm-60.632812 163.339844c-46.597656 0-84.503906-37.90625-84.503906-84.503907 0-46.597656 37.910156-84.503906 84.503906-84.503906s84.503906 37.90625 84.503906 84.503906c0 46.597657-37.910156 84.503907-84.503906 84.503907zm0 0"/><path d="m412.496094 320.527344c-40.621094 0-73.667969 33.050781-73.667969 73.667968 0 40.621094 33.046875 73.667969 73.667969 73.667969s73.664062-33.046875 73.664062-73.667969c0-40.617187-33.046875-73.667968-73.664062-73.667968zm6.714844 131.9375c.496093-1.003906.785156-2.128906.785156-3.324219v-9.136719c0-4.140625-3.359375-7.5-7.5-7.5s-7.5 3.359375-7.5 7.5v9.136719c0 1.195313.285156 2.320313.785156 3.324219-26.992188-3.089844-48.464844-24.5625-51.554688-51.554688 1 .5 2.128907.785156 3.324219.785156h9.132813c4.144531 0 7.5-3.355468 7.5-7.5 0-4.144531-3.355469-7.5-7.5-7.5h-9.132813c-1.195312 0-2.324219.289063-3.324219.785157 3.089844-26.992188 24.5625-48.464844 51.554688-51.554688-.5 1.003907-.785156 2.128907-.785156 3.324219v9.136719c0 4.144531 3.359375 7.5 7.5 7.5s7.5-3.355469 7.5-7.5v-9.136719c0-1.195312-.289063-2.320312-.785156-3.324219 26.992187 3.089844 48.464843 24.5625 51.554687 51.554688-1.003906-.496094-2.128906-.785157-3.324219-.785157h-9.136718c-4.140626 0-7.5 3.355469-7.5 7.5 0 4.144532 3.359374 7.5 7.5 7.5h9.136718c1.195313 0 2.320313-.285156 3.324219-.785156-3.09375 26.992188-24.5625 48.464844-51.554687 51.554688zm0 0"/><path d="m429.027344 386.695312h-9.03125v-7.691406c0-4.140625-3.359375-7.5-7.5-7.5-4.144532 0-7.5 3.359375-7.5 7.5v15.191406c0 4.144532 3.355468 7.5 7.5 7.5h16.53125c4.140625 0 7.5-3.355468 7.5-7.5 0-4.144531-3.359375-7.5-7.5-7.5zm0 0"/></svg>