<svg xmlns="http://www.w3.org/2000/svg" width="20" height="20" viewBox="0 0 20 20">
  <g fill="none" fill-rule="evenodd">
    <path fill="#f9f9f9" fill-opacity=".372" d="M10,0 C4.5,0 0,4.5 0,10 C0,15.5 4.5,20 10,20 C15.5,20 20,15.5 20,10 C20,4.5 15.5,0 10,0 L10,0 Z" opacity=".535"/>
    <path fill="#FFF" d="M15.2053225,5.33333333 L8.59874535,11.741274 L6.89705125,10.0450544 C6.09625402,9.38541347 4.89505819,10.1392888 5.49565611,11.0816331 L7.59774882,14.191369 C7.89804778,14.5683067 8.69884501,15.0394788 9.49964223,14.191369 C9.79994119,13.8144313 15.0952079,7.32168431 15.0952079,7.32168431 C15.7959054,6.47357451 14.7949089,5.81393356 14.0942113,6.37934009 L15.2053225,5.33333333 Z"/>
  </g>
</svg>
