<svg id="Capa_1" enable-background="new 0 0 609.624 609.624" height="512" viewBox="0 0 609.624 609.624" width="512" xmlns="http://www.w3.org/2000/svg"><g><g id="Page-1_48_"><g id="_x30_49---Rogue-Url-Warning"><path id="Shape_117_" d="m532.422 339.694 39.749-23.786c5.338-3.261 8.285-9.336 7.542-15.547s-5.04-11.419-10.997-13.329l-76.094-24.386c16.134-13.454 25.496-33.352 25.575-54.36v-101.608c-.05-39.26-31.865-71.075-71.125-71.125h-375.947c-39.26.05-71.075 31.864-71.125 71.125v101.607c.05 39.26 31.865 71.075 71.125 71.125h91.701l-156.973 243.543c-6.675 10.174-7.152 23.211-1.24 33.845 5.802 10.646 16.956 17.271 29.08 17.273h359.893c12.131.005 23.295-6.621 29.1-17.273 5.901-10.631 5.42-23.658-1.25-33.825l-156.983-243.563h111.067l48.68 152.116c1.852 5.949 7.023 10.257 13.209 11.004 6.306.791 12.486-2.213 15.759-7.661l23.715-39.627 72.019 72.019c3.297 3.332 7.79 5.205 12.477 5.202 4.688.011 9.185-1.855 12.488-5.182l30.574-30.574c3.318-3.311 5.182-7.806 5.182-12.493s-1.864-9.182-5.182-12.493zm-127.588 207.36c-2.212 4.151-6.545 6.73-11.248 6.696h-359.893c-4.69-.014-8.998-2.585-11.238-6.706-2.239-4.121-2.052-9.135.488-13.077l179.936-279.166c2.356-3.661 6.412-5.873 10.765-5.873 4.354 0 8.409 2.213 10.765 5.873l179.987 279.166c2.564 3.943 2.733 8.981.438 13.087zm-153.478-287.965-9.856-15.302c-6.103-9.465-16.594-15.183-27.856-15.183s-21.753 5.718-27.856 15.183l-9.866 15.302h-104.797c-28.044-.034-50.77-22.76-50.804-50.804v-101.607c.034-28.044 22.76-50.77 50.804-50.804h375.947c28.044.034 50.77 22.759 50.804 50.804v101.607c-.041 20.115-11.98 38.299-30.421 46.333l-78.614-25.168c-6.3-2.004-13.192-.324-17.865 4.353s-6.346 11.57-4.336 17.869l2.378 7.417zm310.045 191.956-79.376-79.365c-1.905-1.906-4.489-2.977-7.184-2.977-.418.002-.835.029-1.25.081-3.104.383-5.859 2.175-7.468 4.857l-25.483 42.584-53.069-165.833 165.833 53.07-42.584 25.483c-2.685 1.609-4.479 4.366-4.862 7.472-.383 3.107.687 6.216 2.901 8.429l79.365 79.376z"/><g clip-rule="evenodd" fill-rule="evenodd"><path id="Path_167_" d="m154.87 106.982c-5.443-1.356-10.955 1.955-12.315 7.397l-14.377 57.479-17.863-29.771c-1.971-2.867-5.228-4.581-8.708-4.581s-6.736 1.713-8.708 4.581l-17.863 29.771-14.376-57.479c-1.46-5.323-6.903-8.508-12.259-7.171-5.356 1.336-8.665 6.704-7.453 12.089l20.321 81.286c.996 3.985 4.293 6.978 8.356 7.585 4.062.607 8.09-1.291 10.208-4.811l21.774-36.294 21.774 36.294c1.837 3.057 5.141 4.927 8.708 4.928.5-.002.999-.039 1.494-.112 4.066-.605 7.367-3.601 8.362-7.59l20.321-81.286c1.357-5.443-1.954-10.955-7.396-12.315z"/><path id="Path_166_" d="m297.12 106.982c-5.443-1.356-10.955 1.955-12.315 7.397l-14.377 57.479-17.863-29.771c-1.971-2.867-5.228-4.581-8.708-4.581s-6.736 1.713-8.708 4.581l-17.863 29.771-14.377-57.479c-.809-3.596-3.503-6.472-7.038-7.515s-7.359-.089-9.99 2.492-3.658 6.385-2.683 9.94l20.321 81.286c.996 3.985 4.293 6.978 8.356 7.585 4.062.607 8.09-1.291 10.208-4.811l21.774-36.294 21.774 36.294c1.837 3.057 5.142 4.927 8.708 4.928.5-.002.999-.039 1.494-.112 4.066-.605 7.367-3.601 8.362-7.59l20.321-81.286c1.358-5.442-1.954-10.954-7.396-12.314z"/><path id="Path_165_" d="m407.882 203.357c1.837 3.057 5.141 4.927 8.708 4.928.5-.002.999-.039 1.494-.112 4.066-.605 7.367-3.601 8.362-7.59l20.321-81.286c.975-3.555-.052-7.359-2.684-9.94-2.631-2.581-6.454-3.535-9.99-2.492s-6.229 3.919-7.038 7.515l-14.377 57.479-17.863-29.771c-1.971-2.867-5.228-4.581-8.708-4.581s-6.736 1.713-8.708 4.581l-17.863 29.771-14.377-57.479c-1.46-5.323-6.903-8.508-12.259-7.171-5.356 1.336-8.665 6.704-7.453 12.089l20.321 81.286c.996 3.985 4.293 6.978 8.356 7.585 4.062.607 8.09-1.291 10.208-4.811l21.774-36.294z"/><circle id="Oval_35_" cx="467.394" cy="198.124" r="10.161"/></g><path id="Shape_116_" d="m203.215 309.892c-11.223 0-20.321 9.098-20.321 20.321v101.607c0 11.223 9.098 20.321 20.321 20.321h20.321c11.223 0 20.321-9.098 20.321-20.321v-101.606c0-11.223-9.098-20.321-20.321-20.321h-20.321zm0 121.929v-101.607h20.321v101.607z"/><path id="Shape_115_" d="m223.729 472.464h-20.321c-11.223 0-20.321 9.098-20.321 20.321v20.322c0 11.223 9.098 20.321 20.321 20.321h20.321c11.223 0 20.321-9.098 20.321-20.321v-20.322c.001-11.223-9.098-20.321-20.321-20.321zm-20.321 40.643v-20.322h20.321v20.322z"/></g></g></g></svg>