<svg height="512" viewBox="0 0 60 60" width="512" xmlns="http://www.w3.org/2000/svg"><g id="Page-1" fill="none" fill-rule="evenodd"><g id="040---Chat-Bot-Conversation" fill="rgb(0,0,0)" fill-rule="nonzero" transform="translate(0 -1)"><path id="Shape" d="m57 1h-34c-1.6568542 0-3 1.34314575-3 3v14c0 1.6568542 1.3431458 3 3 3h2v3.316c-.0039267.9306343.4761124 1.7964249 1.2675227 2.2860833.7914104.4896583 1.7804349.5328011 2.6114773.1139167l11.358-5.716h16.763c1.6568542 0 3-1.3431458 3-3v-14c0-1.65685425-1.3431458-3-3-3zm1 17c0 .5522847-.4477153 1-1 1h-24c-.5522847 0-1 .4477153-1 1s.4477153 1 1 1h2.787l-7.806 3.926c-.2089649.1076659-.4593172.0966321-.658-.029-.2024738-.1232679-.3251673-.3439643-.323-.581v-3.316h2c.5522847 0 1-.4477153 1-1s-.4477153-1-1-1h-6c-.5522847 0-1-.4477153-1-1v-14c0-.55228475.4477153-1 1-1h34c.5522847 0 1 .44771525 1 1z"/><path id="Shape" d="m54 6h-28c-.5522847 0-1 .44771525-1 1s.4477153 1 1 1h28c.5522847 0 1-.44771525 1-1s-.4477153-1-1-1z"/><path id="Shape" d="m54 10h-28c-.5522847 0-1 .4477153-1 1s.4477153 1 1 1h28c.5522847 0 1-.4477153 1-1s-.4477153-1-1-1z"/><path id="Shape" d="m40 14h-14c-.5522847 0-1 .4477153-1 1s.4477153 1 1 1h14c.5522847 0 1-.4477153 1-1s-.4477153-1-1-1z"/><path id="Shape" d="m3 55h16.763l11.359 5.714c.8307811.4164166 1.8180528.3723674 2.608448-.1163814s1.2709081-1.3523188 1.269552-2.2816186v-3.316h2c1.6568542 0 3-1.3431458 3-3v-14c0-1.6568542-1.3431458-3-3-3h-34c-1.65685425 0-3 1.3431458-3 3v14c0 1.6568542 1.34314575 3 3 3zm-1-17c0-.5522847.44771525-1 1-1h34c.5522847 0 1 .4477153 1 1v14c0 .5522847-.4477153 1-1 1h-6c-.5522847 0-1 .4477153-1 1s.4477153 1 1 1h2v3.316c.000819.2352181-.1201581.4541048-.319761.5785511s-.4493951.1367229-.660239.0324489l-7.807-3.927h2.787c.5522847 0 1-.4477153 1-1s-.4477153-1-1-1h-24c-.55228475 0-1-.4477153-1-1z"/><path id="Shape" d="m6 42h28c.5522847 0 1-.4477153 1-1s-.4477153-1-1-1h-28c-.55228475 0-1 .4477153-1 1s.44771525 1 1 1z"/><path id="Shape" d="m6 46h28c.5522847 0 1-.4477153 1-1s-.4477153-1-1-1h-28c-.55228475 0-1 .4477153-1 1s.44771525 1 1 1z"/><path id="Shape" d="m34 48h-14c-.5522847 0-1 .4477153-1 1s.4477153 1 1 1h14c.5522847 0 1-.4477153 1-1s-.4477153-1-1-1z"/><path id="Shape" d="m57 53h-3v-2h2c1.6568542 0 3-1.3431458 3-3v-12c0-1.6568542-1.3431458-3-3-3h-3l1.8-2.4c.2143594-.2858125.2599564-.6642734.1196152-.9928203-.1403411-.3285469-.4452994-.5572656-.8-.6-.3547005-.0427344-.7052558.1070078-.9196152.3928203l-2.2 2.933-2.2-2.933c-.3313709-.4418278-.9581722-.5313708-1.4-.1999999-.4418277.3313708-.5313708.9581721-.2 1.3999999l1.8 2.4h-3c-1.6568542 0-3 1.3431458-3 3v12c0 1.6568542 1.3431458 3 3 3h2v2h-3c-1.6568542 0-3 1.3431458-3 3v3c0 1.1045695.8954305 2 2 2h14c1.1045695 0 2-.8954305 2-2v-3c0-1.6568542-1.3431458-3-3-3zm-12-5v-12c0-.5522847.4477153-1 1-1h10c.5522847 0 1 .4477153 1 1v12c0 .5522847-.4477153 1-1 1h-10c-.5522847 0-1-.4477153-1-1zm5 3h2v2h-2zm-6 8v-3c0-.5522847.4477153-1 1-1h12c.5522847 0 1 .4477153 1 1v3z"/><path id="Shape" d="m53 47c1.1045695 0 2-.8954305 2-2v-2c0-1.1045695-.8954305-2-2-2h-4c-1.1045695 0-2 .8954305-2 2v2c0 1.1045695.8954305 2 2 2zm-4-4h4v2h-4z"/><circle id="Oval" cx="49" cy="38" r="1"/><circle id="Oval" cx="53" cy="38" r="1"/><path id="Shape" d="m3 30h12c1.6568542 0 3-1.3431458 3-3v-4c0-2.209139-1.790861-4-4-4h-1v-1.185c.352-.348.708-.725 1.073-1.156.8856011-1.0438577 1.4438642-2.3256018 1.605-3.685.8324919-.933195 1.3016991-2.1346067 1.322-3.385.0176035-.92836085-.4692467-1.79336209-1.272-2.26v-.472c-.0694531-3.29723205-2.793577-5.91670234-6.091-5.857h-1.274c-3.29742302-.05970234-6.02154689 2.55976795-6.091 5.857v.472c-.80275327.46663791-1.28960352 1.33163915-1.272 2.26.02030094 1.2503933.48950811 2.451805 1.322 3.385.16113584 1.3593982.71939888 2.6411423 1.605 3.685.365.431.721.808 1.073 1.156v1.185h-1c-2.209139 0-4 1.790861-4 4v4c0 1.6568542 1.34314575 3 3 3zm1.278-17.7c-.0099905-.4476907-.31638865-.8341609-.75-.946-.30576187-.5414514-.48619005-1.1445873-.528-1.765 0-.316.179-.517.272-.517.55228475 0 1-.44771525 1-1v-1.215c.06857222-2.19300115 1.89776309-3.91756463 4.091-3.857h1.274c2.1932369-.06056463 4.0224278 1.66399885 4.091 3.857v1.215c0 .55228475.4477153 1 1 1 .093 0 .272.2.272.517-.0421048.6197281-.2225235 1.222149-.528 1.763-.4336113.1118391-.7400095.4983093-.75.946-.0299792 1.1266305-.444218 2.2091559-1.174 3.068-1.398 1.649-2.724 2.634-3.548 2.634s-2.15-.985-3.548-2.634c-.7293569-.8583138-1.14356814-1.9400613-1.174-3.066zm4.722 7.7c.70827343-.0273642 1.3973553-.2378788 2-.611v1.611c.0186236.5359255-.1861035 1.0555259-.5652888 1.4347112s-.89878571.5839124-1.4347112.5652888c-.53592549.0186236-1.05552591-.1861035-1.4347112-.5652888-.37918528-.3791853-.58391241-.8987857-.5652888-1.4347112v-1.611c.60264467.3731212 1.29172657.5836358 2 .611zm-7 3c0-1.1045695.8954305-2 2-2h1c-.02402269 1.0680493.38968585 2.0994823 1.14510176 2.8548982.75541591.755416 1.78684894 1.1691245 2.85489824 1.1451018 1.0680493.0240227 2.0994823-.3896858 2.8548982-1.1451018.755416-.7554159 1.1691245-1.7868489 1.1451018-2.8548982h1c1.1045695 0 2 .8954305 2 2v4c0 .5522847-.4477153 1-1 1h-12c-.55228475 0-1-.4477153-1-1z"/></g></g></svg>