<?xml version="1.0" encoding="iso-8859-1"?>
<!-- Generator: Adobe Illustrator 19.0.0, SVG Export Plug-In . SVG Version: 6.00 Build 0)  -->
<svg version="1.1" id="Capa_1" xmlns="http://www.w3.org/2000/svg" xmlns:xlink="http://www.w3.org/1999/xlink" x="0px" y="0px"
	 viewBox="0 0 511.999 511.999" style="enable-background:new 0 0 511.999 511.999;" xml:space="preserve">
<path style="fill:#FF4F4F;" d="M35.265,474.376c-9.694,0-18.725-5.214-23.568-13.607c-4.85-8.399-4.85-18.827,0.001-27.215
	L232.432,51.23c4.843-8.393,13.874-13.607,23.568-13.607c9.694,0,18.725,5.214,23.568,13.607l220.735,382.325
	c4.85,8.387,4.85,18.815-0.001,27.214c-4.842,8.393-13.873,13.607-23.567,13.607H35.265z M429.6,419.948L256,119.265L82.4,419.948
	H429.6z"/>
<path style="fill:#917464;" d="M209.87,423.98l29.393-74.629l38.138-22.079c1.953-8.95,17.279-76.958,37.983-107.431l1.806-2.659
	L436.583,423.98H209.87z"/>
<path style="fill:#EFEFEF;" d="M75.417,423.98L256,111.202l63.428,109.859l-0.711,1.046
	c-21.269,31.307-37.403,106.131-37.564,106.883l-0.187,0.876l-38.467,22.271l-28.295,71.843H75.417z M175.87,347.721
	c-7.781,0-14.111,6.33-14.111,14.111s6.33,14.111,14.111,14.111c7.781,0,14.111-6.33,14.111-14.111S183.651,347.721,175.87,347.721z
	 M247.258,291.962l9.295-28.581l-24.32-17.67l-24.319,17.67l9.294,28.581H247.258z"/>
<g>
	<polygon style="fill:#BF9984;" points="214.278,295.994 203.174,261.842 232.233,240.729 261.294,261.842 250.187,295.994 	"/>
	<path style="fill:#BF9984;" d="M175.87,379.974c-10.004,0-18.143-8.139-18.143-18.143c0-10.004,8.139-18.143,18.143-18.143
		c10.004,0,18.143,8.139,18.143,18.143C194.013,371.835,185.874,379.974,175.87,379.974z"/>
</g>
<path d="M507.285,464.802c6.286-10.889,6.285-24.409,0-35.278L286.551,47.201c-6.278-10.882-17.985-17.641-30.552-17.641
	s-24.274,6.759-30.551,17.639L4.717,429.517c-6.288,10.875-6.289,24.396-0.004,35.281c6.278,10.882,17.985,17.641,30.552,17.641
	h441.47C489.302,482.439,501.009,475.68,507.285,464.802z M22.172,454.721c-2.695-4.666-2.696-10.456,0-15.118L242.908,57.276
	c2.69-4.662,7.707-7.557,13.092-7.557c5.385,0,10.402,2.896,13.093,7.559l220.738,382.331c2.693,4.656,2.692,10.446-0.004,15.115
	c-2.69,4.662-7.707,7.557-13.092,7.557H35.265C29.88,462.281,24.864,459.385,22.172,454.721z"/>
<path d="M264.729,110.194c-1.8-3.119-5.128-5.04-8.729-5.04c-3.6,0-6.928,1.921-8.729,5.04L70.18,416.924
	c-1.8,3.118-1.8,6.961,0,10.079s5.128,5.04,8.729,5.04h130.866c0.955,0.287,1.925,0.426,2.883,0.426
	c0.986,0,1.957-0.148,2.888-0.426h217.549c3.6,0,6.928-1.921,8.729-5.04c1.8-3.118,1.8-6.961,0-10.079L264.729,110.194z
	 M256,135.392l49.283,85.362c-18.009,30.599-31.333,85.316-34.981,101.31l-34.472,19.958c-1.968,1.14-3.494,2.913-4.328,5.029
	l-25.535,64.835H96.365L256,135.392z M227.629,411.885l21.343-54.178l35.26-20.414c2.465-1.428,4.213-3.833,4.808-6.62
	c0.135-0.634,11.862-55.041,28.138-89.317l98.456,170.529H227.629z"/>
<path d="M206.158,297.095c1.35,4.153,5.22,6.963,9.585,6.963h32.98c4.365,0,8.235-2.81,9.585-6.962l10.2-31.367
	c1.351-4.154-0.127-8.704-3.661-11.272l-26.69-19.391c-3.534-2.567-8.317-2.567-11.849,0l-26.689,19.391
	c-3.534,2.567-5.011,7.118-3.661,11.271L206.158,297.095z M232.233,255.678l14.841,10.782l-5.672,17.439h-18.337l-5.671-17.439
	L232.233,255.678z"/>
<path d="M175.87,335.626c-14.451,0-26.206,11.755-26.206,26.206c0,14.451,11.755,26.206,26.206,26.206s26.206-11.755,26.206-26.206
	C202.076,347.381,190.321,335.626,175.87,335.626z M175.87,367.879c-3.335,0-6.048-2.712-6.048-6.048s2.712-6.048,6.048-6.048
	c3.335,0,6.048,2.712,6.048,6.048S179.206,367.879,175.87,367.879z"/>
<path d="M216.187,321.011c-12.971,0-12.992,20.158,0,20.158C229.158,341.169,229.179,321.011,216.187,321.011z"/>
<path d="M261.544,210.139c-12.971,0-12.992,20.158,0,20.158C274.515,230.298,274.536,210.139,261.544,210.139z"/>
<path d="M261.04,195.524c12.971,0,12.992-20.158,0-20.158C248.069,175.366,248.048,195.524,261.04,195.524z"/>
<path d="M282.162,374.902c-5.566,0-10.079,4.513-10.079,10.079c0,5.566,4.513,10.079,10.079,10.079h56.109
	c5.566,0,10.079-4.513,10.079-10.079c0-5.566-4.513-10.079-10.079-10.079H282.162z"/>
<path d="M370.131,395.061c12.971,0,12.992-20.158,0-20.158C357.16,374.902,357.139,395.061,370.131,395.061z"/>
<g>
</g>
<g>
</g>
<g>
</g>
<g>
</g>
<g>
</g>
<g>
</g>
<g>
</g>
<g>
</g>
<g>
</g>
<g>
</g>
<g>
</g>
<g>
</g>
<g>
</g>
<g>
</g>
<g>
</g>
</svg>
