<?xml version="1.0"?>
<svg xmlns="http://www.w3.org/2000/svg" viewBox="0 0 64 64" width="512" height="512"><g id="Rotation"><path d="M18.236,17,15,15.382V13.974A4.977,4.977,0,0,0,17,10V8.236L17.9,6.447A1,1,0,0,0,18,6V5a3,3,0,0,0-3-3H6a1,1,0,0,0-.895,1.447L6,5.236V7a1,1,0,0,0,.293.707L7,8.414V10a4.977,4.977,0,0,0,2,3.974v1.408L5.764,17A4.972,4.972,0,0,0,3,21.472V25a1,1,0,0,0,1,1H20a1,1,0,0,0,1-1V21.472A4.972,4.972,0,0,0,18.236,17ZM12,13a3,3,0,0,1-3-3V9h2a1,1,0,0,0,.707-.293l1.42-1.42L15,8.535V10A3,3,0,0,1,12,13Zm3-9a1,1,0,0,1,1,1v.764l-.388.776L13.555,5.168a1,1,0,0,0-1.262.125L10.586,7H8.414L8,6.586V5A1,1,0,0,0,7.9,4.553L7.618,4ZM12,15a5,5,0,0,0,1-.1v.687l-1,1-1-1V14.9A5,5,0,0,0,12,15ZM5,21.472a2.982,2.982,0,0,1,1.658-2.683L9.8,17.217l1.2,1.2V24H9V21H7v3H5ZM19,24H17V21H15v3H13V18.414l1.2-1.2,3.145,1.572A2.982,2.982,0,0,1,19,21.472Z"/><path d="M37.707,10.293l-1.414,1.414L37.586,13H26.414l1.293-1.293-1.414-1.414-3,3a1,1,0,0,0,0,1.414l3,3,1.414-1.414L26.414,15H37.586l-1.293,1.293,1.414,1.414,3-3a1,1,0,0,0,0-1.414Z"/><path d="M55.707,33.293l-3-3a1,1,0,0,0-1.414,0l-3,3,1.414,1.414L51,33.414V50H46.414l1.293-1.293-1.414-1.414-3,3a1,1,0,0,0,0,1.414l3,3,1.414-1.414L46.414,52H52a1,1,0,0,0,1-1V33.414l1.293,1.293Z"/><path d="M17.707,47.293l-1.414,1.414L17.586,50H13V33.414l1.293,1.293,1.414-1.414-3-3a1,1,0,0,0-1.414,0l-3,3,1.414,1.414L11,33.414V51a1,1,0,0,0,1,1h5.586l-1.293,1.293,1.414,1.414,3-3a1,1,0,0,0,0-1.414Z"/><rect x="55" y="50" width="2" height="2"/><rect x="55" y="46" width="2" height="2"/><rect x="55" y="42" width="2" height="2"/><rect x="7" y="50" width="2" height="2"/><rect x="7" y="46" width="2" height="2"/><rect x="7" y="42" width="2" height="2"/><path d="M58.236,17,55,15.382V13.974A4.977,4.977,0,0,0,57,10V8.236l.9-1.789A1,1,0,0,0,58,6V5a3,3,0,0,0-3-3H46a1,1,0,0,0-.9,1.447L46,5.236V7a1,1,0,0,0,.293.707L47,8.414V10a4.977,4.977,0,0,0,2,3.974v1.408L45.764,17A4.972,4.972,0,0,0,43,21.472V25a1,1,0,0,0,1,1H60a1,1,0,0,0,1-1V21.472A4.972,4.972,0,0,0,58.236,17ZM52,13a3,3,0,0,1-3-3V9h2a1,1,0,0,0,.707-.293l1.42-1.42L55,8.535V10A3,3,0,0,1,52,13Zm3-9a1,1,0,0,1,1,1v.764l-.388.776L53.555,5.168a1,1,0,0,0-1.262.125L50.586,7H48.414L48,6.586V5a1,1,0,0,0-.1-.447L47.618,4ZM52,15a5,5,0,0,0,1-.1v.687l-1,1-1-1V14.9A5,5,0,0,0,52,15Zm-7,6.472a2.982,2.982,0,0,1,1.658-2.683L49.8,17.217l1.2,1.2V24H49V21H47v3H45ZM59,24H57V21H55v3H53V18.414l1.2-1.2,3.145,1.572A2.982,2.982,0,0,1,59,21.472Z"/><path d="M38.236,53,35,51.382V49.974A4.977,4.977,0,0,0,37,46V44.236l.9-1.789A1,1,0,0,0,38,42V41a3,3,0,0,0-3-3H26a1,1,0,0,0-.895,1.447L26,41.236V43a1,1,0,0,0,.293.707l.707.707V46a4.977,4.977,0,0,0,2,3.974v1.408L25.764,53A4.972,4.972,0,0,0,23,57.472V61a1,1,0,0,0,1,1H40a1,1,0,0,0,1-1V57.472A4.972,4.972,0,0,0,38.236,53ZM32,49a3,3,0,0,1-3-3V45h2a1,1,0,0,0,.707-.293l1.42-1.42L35,44.535V46A3,3,0,0,1,32,49Zm3-9a1,1,0,0,1,1,1v.764l-.388.776-2.057-1.372a1,1,0,0,0-1.262.125L30.586,43H28.414L28,42.586V41a1,1,0,0,0-.105-.447L27.618,40ZM32,51a5,5,0,0,0,1-.1v.687l-1,1-1-1V50.9A5,5,0,0,0,32,51Zm-7,6.472a2.982,2.982,0,0,1,1.658-2.683L29.8,53.217l1.2,1.2V60H29V57H27v3H25ZM39,60H37V57H35v3H33V54.414l1.2-1.2,3.145,1.572A2.982,2.982,0,0,1,39,57.472Z"/></g></svg>
