<?xml version="1.0" encoding="UTF-8"?> <svg xmlns="http://www.w3.org/2000/svg" id="b_w_-_square" data-name="b/w - square" viewBox="0 0 688.09 558.56"><defs><style>.cls-1{fill:#fff;}</style></defs><title>NewRelic-logo-square-clr-w</title><g id="Vert_1col-Rev"><path class="cls-1" d="M516.38,369.2l-20.19-42.33c-4.82-10-9.77-21.36-11.46-26.7l-.39.39c.65,7.55.78,17.06.91,25l.52,43.63H471.06V279.08H488l21.88,44a164.18,164.18,0,0,1,9.25,23.18l.39-.39c-.39-4.56-1.3-17.45-1.3-25.66l-.26-41.15h14.2V369.2Z" transform="translate(-250.69 -112.21)"></path><path class="cls-1" d="M559,340.16v1c0,9.12,3.39,18.75,16.28,18.75,6.12,0,11.46-2.21,16.41-6.51l5.6,8.73a35.59,35.59,0,0,1-23.7,8.73c-18.62,0-30.35-13.41-30.35-34.51,0-11.59,2.48-19.27,8.21-25.79,5.34-6.12,11.85-8.86,20.19-8.86a25.45,25.45,0,0,1,18.1,6.77c5.73,5.21,8.6,13.28,8.6,28.65v3Zm12.63-27.61c-8.07,0-12.5,6.38-12.5,17.06h24.35c0-10.68-4.69-17.06-11.85-17.06" transform="translate(-250.69 -112.21)"></path><path class="cls-1" d="M674.47,369.46H661.06L653,339.11c-2.08-7.81-4.3-18-4.3-18h-.26s-1,6.51-4.3,18.62l-7.94,29.69H622.77l-18-65.25,14.2-2,7.16,31.91c1.82,8.21,3.39,17.32,3.39,17.32h.39a179.08,179.08,0,0,1,3.78-17.71l8.47-30.48h14.07L663.66,333c2.74,10.68,4.17,18.75,4.17,18.75h.39s1.56-10,3.26-17.71l6.77-30.74H693.1Z" transform="translate(-250.69 -112.21)"></path><path class="cls-1" d="M505.07,485.2l-7.81-13.94C491,460.19,486.83,453.94,481.88,449a7.63,7.63,0,0,0-5.86-2.74V485.2H461.31V395.08h27.48c20.18,0,29.3,11.72,29.3,25.79,0,12.89-8.33,24.74-22.4,24.74,3.26,1.69,9.25,10.42,13.93,18l13.29,21.62Zm-20.84-78H476v28.52h7.68c7.81,0,12-1,14.71-3.78,2.48-2.47,4-6.25,4-10.94,0-9.12-4.95-13.81-18.23-13.81" transform="translate(-250.69 -112.21)"></path><path class="cls-1" d="M542.57,456.15v1c0,9.12,3.39,18.75,16.28,18.75,6.12,0,11.46-2.21,16.41-6.51l5.6,8.72a35.59,35.59,0,0,1-23.7,8.73c-18.62,0-30.35-13.41-30.35-34.51,0-11.59,2.48-19.27,8.21-25.79,5.34-6.12,11.85-8.86,20.19-8.86a25.46,25.46,0,0,1,18.1,6.77c5.73,5.21,8.6,13.28,8.6,28.65v3Zm12.63-27.61c-8.07,0-12.5,6.38-12.5,17.06h24.35c0-10.68-4.69-17.06-11.85-17.06" transform="translate(-250.69 -112.21)"></path><path class="cls-1" d="M608.72,486.63c-14.46,0-14.46-13-14.46-18.62V411.87A106.73,106.73,0,0,0,593,392.6l14.72-3.26c1,4,1.17,9.51,1.17,18.1v55.87c0,8.85.39,10.29,1.43,11.85a4,4,0,0,0,4.69,1l2.34,8.86a22.44,22.44,0,0,1-8.59,1.56" transform="translate(-250.69 -112.21)"></path><path class="cls-1" d="M633.6,409.53a9.34,9.34,0,0,1-9.25-9.51,9.44,9.44,0,1,1,9.25,9.51m-7.16,75.67V420.34l14.46-2.6V485.2Z" transform="translate(-250.69 -112.21)"></path><path class="cls-1" d="M681.91,486.89c-18,0-28-12.63-28-33.86,0-24,14.33-35.42,29-35.42,7.16,0,12.37,1.69,18.23,7.16L694,434.28c-3.91-3.52-7.29-5.08-11.07-5.08a11.2,11.2,0,0,0-10.42,6.64c-2,4-2.73,10.16-2.73,18.36,0,9,1.43,14.72,4.43,18A11.58,11.58,0,0,0,683,476c4.56,0,9-2.21,13.28-6.51l6.77,8.72c-6,6-12.24,8.73-21.1,8.73" transform="translate(-250.69 -112.21)"></path><path class="cls-1" d="M715.23,486.64a9.67,9.67,0,1,1,9.62-9.67,9.63,9.63,0,0,1-9.62,9.67m0-17.42a7.78,7.78,0,1,0,7.44,7.75,7.55,7.55,0,0,0-7.44-7.75m1.9,13.1c-.42-.73-.6-1-1-1.79-1.07-1.95-1.4-2.5-1.79-2.65a.72.72,0,0,0-.34-.08v4.52h-2.13V471.48h4a3,3,0,0,1,3.2,3.17,2.78,2.78,0,0,1-2.42,3,2.47,2.47,0,0,1,.44.47c.62.78,2.6,4.21,2.6,4.21ZM716,473.38a4.36,4.36,0,0,0-1.22-.16H714v2.94h.73c.93,0,1.35-.1,1.64-.36a1.53,1.53,0,0,0,.42-1.09,1.27,1.27,0,0,0-.78-1.33" transform="translate(-250.69 -112.21)"></path><path class="cls-1" d="M561.52,670.76c-73.48,0-144.11-19.92-198.91-56.08-27.55-18.18-50.66-40-68.68-64.85a224.78,224.78,0,0,1-38.12-84.66c-15.68-72.08,5-147.49,58.1-212.33,53-64.61,131.89-111,222.27-130.66a432.77,432.77,0,0,1,91.79-10c73.47,0,144.1,19.92,198.9,56.08,27.55,18.18,50.66,40,68.69,64.85a224.79,224.79,0,0,1,38.12,84.65c15.67,72.08-5,147.49-58.1,212.33-53,64.61-131.89,111-222.27,130.67a432.88,432.88,0,0,1-91.78,10M628,119.21a425.88,425.88,0,0,0-90.3,9.82c-88.85,19.32-166.39,64.87-218.35,128.26-51.76,63.15-71.89,136.46-56.67,206.41,12.72,58.53,48.62,108.72,103.82,145.15,53.66,35.42,122.93,54.92,195,54.92a425.94,425.94,0,0,0,90.3-9.82c88.85-19.32,166.39-64.87,218.34-128.26,51.76-63.15,71.89-136.46,56.68-206.4C914.11,260.75,878.2,210.56,823,174.13c-53.66-35.42-122.93-54.93-195-54.93" transform="translate(-250.69 -112.21)"></path><path class="cls-1" d="M629,638.28a243.13,243.13,0,1,1,171.9-71.21A241.52,241.52,0,0,1,629,638.28m0-479.22a236.13,236.13,0,1,0,167,69.16,234.57,234.57,0,0,0-167-69.16" transform="translate(-250.69 -112.21)"></path><path class="cls-1" d="M582.32,570.7c-101,0-183.11-82.15-183.11-183.13s82.14-183.09,183.11-183.09,183.1,82.13,183.1,183.09S683.28,570.7,582.32,570.7m0-359.39c-97.2,0-176.28,79.07-176.28,176.26s79.08,176.3,176.28,176.3,176.27-79.09,176.27-176.3S679.51,211.31,582.32,211.31" transform="translate(-250.69 -112.21)"></path></g></svg> 