<?xml version="1.0" encoding="iso-8859-1"?>
<!-- Generator: Adobe Illustrator 19.0.0, SVG Export Plug-In . SVG Version: 6.00 Build 0)  -->
<svg version="1.1" id="Layer_1" xmlns="http://www.w3.org/2000/svg" xmlns:xlink="http://www.w3.org/1999/xlink" x="0px" y="0px"
	 viewBox="0 0 512 512" style="enable-background:new 0 0 512 512;" xml:space="preserve">
<path style="fill:#AA315E;" d="M512,215.775v235.377c0,23.126-18.747,41.873-41.873,41.873H41.873
	C18.747,493.026,0,474.28,0,451.153V215.775c0-23.126,18.747-41.873,41.873-41.873h428.254C493.253,173.902,512,192.65,512,215.775z
	"/>
<path style="fill:#DF3F7C;" d="M260.444,493.026H41.873C18.747,493.026,0,474.28,0,451.153V215.775
	c0-23.126,18.747-41.873,41.873-41.873h218.571V493.026z"/>
<path style="fill:#2D6CA3;" d="M287.089,346.012L512,217.765v-1.99c0-23.126-18.747-41.873-41.873-41.873H41.873
	C18.747,173.902,0,192.65,0,215.775v1.98l225.242,128.273C244.413,356.947,267.923,356.94,287.089,346.012z"/>
<path style="fill:#37A9BF;" d="M409.864,349.04l17.659,52.371c2.566,7.608-3.094,15.488-11.123,15.488H104.489
	c-8.029,0-13.687-7.881-11.123-15.488l17.659-52.371v-68.121c0-82.582,66.311-150.756,148.892-151.041
	c82.765-0.286,149.949,66.721,149.949,149.42L409.864,349.04z"/>
<path style="fill:#52DDDC;" d="M260.444,342.053V129.875c-82.523,0-149.42,66.898-149.42,149.42v62.757h149.42V342.053z"/>
<path style="fill:#37A9BF;" d="M224.053,414.169c0,20.098,16.293,36.392,36.392,36.392s36.392-16.293,36.392-36.392H224.053z"/>
<path style="fill:#52DDDC;" d="M224.053,414.169c0,20.098,16.293,36.392,36.392,36.392l0.001-36.392H224.053z"/>
<path style="fill:#E39E5D;" d="M409.864,335.281h-298.84v13.758L93.365,401.41c-2.566,7.608,3.094,15.488,11.123,15.488H416.4
	c8.029,0,13.687-7.881,11.123-15.488l-17.659-52.371L409.864,335.281z"/>
<path style="fill:#F3C951;" d="M260.444,335.281h-149.42v13.758L93.365,401.41c-2.566,7.608,3.094,15.488,11.123,15.488h155.957
	V335.281z"/>
<path style="fill:#E39E5D;" d="M260.446,87.755c-9.724,0-17.607-7.883-17.607-17.607V36.581c0-9.724,7.883-17.607,17.607-17.607
	s17.607,7.883,17.607,17.607v33.567C278.052,79.872,270.169,87.755,260.446,87.755z"/>
<g>
	<path style="fill:#F3C951;" d="M260.446,87.755c-9.724,0-17.607-7.883-17.607-17.607V36.581c0-9.724,7.883-17.607,17.607-17.607
		V87.755z"/>
	<path style="fill:#F3C951;" d="M177.246,114.264c-4.506,0-9.012-1.718-12.449-5.158l-23.736-23.736
		c-6.876-6.876-6.876-18.023,0-24.899c6.875-6.876,18.023-6.876,24.899,0l23.736,23.736c6.876,6.876,6.876,18.023,0,24.899
		C186.259,112.545,181.753,114.264,177.246,114.264z"/>
</g>
<path style="fill:#E39E5D;" d="M343.645,114.264c-4.506,0-9.012-1.718-12.449-5.158c-6.876-6.876-6.876-18.023,0-24.899
	l23.736-23.736c6.875-6.876,18.023-6.876,24.899,0s6.876,18.023,0,24.899l-23.736,23.736
	C352.656,112.545,348.151,114.264,343.645,114.264z"/>
<g>
</g>
<g>
</g>
<g>
</g>
<g>
</g>
<g>
</g>
<g>
</g>
<g>
</g>
<g>
</g>
<g>
</g>
<g>
</g>
<g>
</g>
<g>
</g>
<g>
</g>
<g>
</g>
<g>
</g>
</svg>
