<?xml version="1.0" encoding="iso-8859-1"?>
<!-- Generator: Adobe Illustrator 19.0.0, SVG Export Plug-In . SVG Version: 6.00 Build 0)  -->
<svg version="1.1" id="Layer_1" xmlns="http://www.w3.org/2000/svg" xmlns:xlink="http://www.w3.org/1999/xlink" x="0px" y="0px"
	 viewBox="0 0 480 480" style="enable-background:new 0 0 480 480;" xml:space="preserve">
<g>
	<path style="fill:#3E7777;" d="M408,464.8c0,8-6.4,15.2-15.2,15.2h-17.6c-8,0-15.2-6.4-15.2-15.2v-25.6c0-8,6.4-15.2,15.2-15.2
		h17.6c8,0,15.2,6.4,15.2,15.2V464.8z"/>
	<path style="fill:#3E7777;" d="M112,464.8c0,8-6.4,15.2-15.2,15.2H79.2c-8,0-15.2-6.4-15.2-15.2v-25.6c0-8,6.4-15.2,15.2-15.2h17.6
		c8,0,15.2,6.4,15.2,15.2V464.8z"/>
</g>
<path style="fill:#97B8BF;" d="M464,403.2c0,24.8-19.2,44.8-44,44.8H60c-24.8,0-44-20-44-44.8v-360C16,18.4,35.2,0,60,0h360
	c24.8,0,44,18.4,44,42.4V403.2z"/>
<path style="fill:#719FA3;" d="M464,120l-63.2-63.2l-328,328l60.8,62.4H420c24.8,0,44-20,44-44.8V120z"/>
<path style="fill:#B9D7DB;" d="M416,361.6c0,19.2-18.4,38.4-36.8,38.4H100.8C81.6,400,64,380.8,64,361.6V84c0-19.2,18.4-36,36.8-36
	h278.4c19.2,0,36.8,16.8,36.8,36V361.6z"/>
<g>
	<polygon style="fill:#99BEC1;" points="64,180.8 282.4,400 363.2,400 76.8,112.8 64,122.4 	"/>
	<polygon style="fill:#99BEC1;" points="64,341.6 121.6,400 201.6,400 76.8,274.4 64,283.2 	"/>
</g>
<g>
	<path style="fill:#CAE8EA;" d="M88,169.6c0,8-6.4,14.4-14.4,14.4h-4c-8,0-14.4-6.4-14.4-14.4v-44c0-8,6.4-14.4,14.4-14.4h4
		c8,0,14.4,6.4,14.4,14.4V169.6z"/>
	<path style="fill:#CAE8EA;" d="M88,329.6c0,8-6.4,14.4-14.4,14.4h-4c-8,0-14.4-6.4-14.4-14.4v-44c0-8,6.4-14.4,14.4-14.4h4
		c8,0,14.4,6.4,14.4,14.4V329.6z"/>
</g>
<g>
	<path style="fill:#BAE1E2;" d="M73.6,112L73.6,112c8,0,14.4,6.4,14.4,14.4v44c0,8-6.4,14.4-14.4,14.4l0,0"/>
	<path style="fill:#BAE1E2;" d="M73.6,272L73.6,272c8,0,14.4,6.4,14.4,14.4v44c0,8-6.4,14.4-14.4,14.4l0,0"/>
</g>
<path style="fill:#05365B;" d="M311.2,86.4c-42.4,0-77.6,34.4-77.6,77.6c0,42.4,34.4,77.6,77.6,77.6s77.6-34.4,77.6-77.6
	C388.8,120.8,353.6,86.4,311.2,86.4z M311.2,212c-26.4,0-48-21.6-48-48s21.6-48,48-48s48,21.6,48,48S337.6,212,311.2,212z"/>
<circle style="fill:#24966A;" cx="311.2" cy="164" r="20"/>
<path style="fill:#137F53;" d="M324.8,149.6c8,8,8,20,0,28s-20,8-28,0"/>
<path style="fill:#A6C7C9;" d="M424,16c0,4.8-3.2,8-8,8H64c-4.8,0-8-3.2-8-8l0,0c0-4.8,3.2-8,8-8h352C420.8,8,424,11.2,424,16
	L424,16z"/>
<g>
	<path style="fill:#137F53;" d="M288.8,265.6c0,1.6-1.6,3.2-3.2,3.2h-8.8c-1.6,0-3.2-1.6-3.2-3.2V256c0-1.6,1.6-3.2,3.2-3.2h8.8
		c1.6,0,3.2,1.6,3.2,3.2V265.6z"/>
	<path style="fill:#137F53;" d="M320,265.6c0,1.6-1.6,3.2-3.2,3.2H308c-1.6,0-3.2-1.6-3.2-3.2V256c0-1.6,1.6-3.2,3.2-3.2h8.8
		c1.6,0,3.2,1.6,3.2,3.2V265.6z"/>
	<path style="fill:#137F53;" d="M350.4,265.6c0,1.6-1.6,3.2-3.2,3.2h-8.8c-1.6,0-3.2-1.6-3.2-3.2V256c0-1.6,1.6-3.2,3.2-3.2h8.8
		c1.6,0,3.2,1.6,3.2,3.2V265.6z"/>
	<path style="fill:#137F53;" d="M288.8,291.2c0,1.6-1.6,3.2-3.2,3.2h-8.8c-1.6,0-3.2-1.6-3.2-3.2v-8.8c0-1.6,1.6-3.2,3.2-3.2h8.8
		c1.6,0,3.2,1.6,3.2,3.2V291.2z"/>
	<path style="fill:#137F53;" d="M320,291.2c0,1.6-1.6,3.2-3.2,3.2H308c-1.6,0-3.2-1.6-3.2-3.2v-8.8c0-1.6,1.6-3.2,3.2-3.2h8.8
		c1.6,0,3.2,1.6,3.2,3.2V291.2z"/>
	<path style="fill:#137F53;" d="M350.4,291.2c0,1.6-1.6,3.2-3.2,3.2h-8.8c-1.6,0-3.2-1.6-3.2-3.2v-8.8c0-1.6,1.6-3.2,3.2-3.2h8.8
		c1.6,0,3.2,1.6,3.2,3.2V291.2z"/>
	<path style="fill:#137F53;" d="M288.8,317.6c0,1.6-1.6,3.2-3.2,3.2h-8.8c-1.6,0-3.2-1.6-3.2-3.2v-8.8c0-1.6,1.6-3.2,3.2-3.2h8.8
		c1.6,0,3.2,1.6,3.2,3.2V317.6z"/>
	<path style="fill:#137F53;" d="M320,317.6c0,1.6-1.6,3.2-3.2,3.2H308c-1.6,0-3.2-1.6-3.2-3.2v-8.8c0-1.6,1.6-3.2,3.2-3.2h8.8
		c1.6,0,3.2,1.6,3.2,3.2V317.6z"/>
	<path style="fill:#137F53;" d="M350.4,317.6c0,1.6-1.6,3.2-3.2,3.2h-8.8c-1.6,0-3.2-1.6-3.2-3.2v-8.8c0-1.6,1.6-3.2,3.2-3.2h8.8
		c1.6,0,3.2,1.6,3.2,3.2V317.6z"/>
</g>
<g>
</g>
<g>
</g>
<g>
</g>
<g>
</g>
<g>
</g>
<g>
</g>
<g>
</g>
<g>
</g>
<g>
</g>
<g>
</g>
<g>
</g>
<g>
</g>
<g>
</g>
<g>
</g>
<g>
</g>
</svg>
