<?xml version="1.0" encoding="iso-8859-1"?>
<!-- Generator: Adobe Illustrator 19.0.0, SVG Export Plug-In . SVG Version: 6.00 Build 0)  -->
<svg version="1.1" id="Capa_1" xmlns="http://www.w3.org/2000/svg" xmlns:xlink="http://www.w3.org/1999/xlink" x="0px" y="0px"
	 viewBox="0 0 343.923 343.923" style="enable-background:new 0 0 343.923 343.923;" xml:space="preserve">
<g id="XMLID_2_">
	<path id="XMLID_6_" style="fill:#F9E375;" d="M274.462,51.538c-35.941,0-66.942-21.078-81.365-51.538h-42.27
		c-14.423,30.46-45.424,51.538-81.365,51.538c-13.384,0-26.084-2.926-37.5-8.166v172.397c0,70.485,140,128.154,140,128.154
		s140-57.669,140-128.154V43.373C300.545,48.613,287.846,51.538,274.462,51.538z"/>
	<g id="XMLID_10_">
		<g id="XMLID_1262_">
			<polygon id="XMLID_1263_" style="fill:#98D9D5;" points="181.861,225.769 97.4,183.539 115.289,147.761 170.827,175.531 
				230.727,100.656 261.962,125.644 			"/>
		</g>
	</g>
	<path id="XMLID_14_" style="fill:#F5D361;" d="M274.462,51.538c-35.941,0-66.942-21.078-81.365-51.538h-21.135v343.923
		c0,0,140-57.669,140-128.154V43.373C300.545,48.613,287.846,51.538,274.462,51.538z"/>
	<polygon id="XMLID_17_" style="fill:#6DA8D6;" points="230.727,100.656 171.962,174.113 171.962,220.819 181.861,225.769 
		261.962,125.644 	"/>
</g>
<g>
</g>
<g>
</g>
<g>
</g>
<g>
</g>
<g>
</g>
<g>
</g>
<g>
</g>
<g>
</g>
<g>
</g>
<g>
</g>
<g>
</g>
<g>
</g>
<g>
</g>
<g>
</g>
<g>
</g>
</svg>
