<?xml version="1.0" encoding="UTF-8"?> <svg xmlns="http://www.w3.org/2000/svg" width="302" height="135" viewBox="0 0 302 135" fill="none"><path fill-rule="evenodd" clip-rule="evenodd" d="M225.829 109.243C225.862 105.573 225.426 101.97 223.866 98.6024C221.081 92.5075 215.51 91.2447 211.014 92.8274C208.028 93.8713 206.149 96.1779 204.84 98.9559C202.894 103.098 202.508 107.509 202.894 112.021C203.179 115.203 203.967 118.234 205.662 120.961C206.954 123.032 208.682 124.649 211.031 125.44C216.232 127.208 221.366 124.901 223.782 119.716C225.325 116.399 225.795 112.863 225.795 109.243M202.004 127.932C202.004 129.178 202.021 131.164 202.004 132.41C201.971 133.825 201.619 134.195 200.31 134.212C198.364 134.246 196.417 134.246 194.471 134.212C193.246 134.195 192.961 133.892 192.844 132.68C192.81 132.242 192.827 131.804 192.827 131.367V67.0336C192.827 64.2219 192.861 64.1882 195.595 64.1882C197.323 64.1882 199.052 64.1714 200.78 64.1882C202.474 64.2219 202.726 64.4576 202.726 66.2086C202.726 73.2295 202.726 80.2504 202.726 87.2713V89.056C203.951 88.0121 204.89 87.0524 205.981 86.2948C211.886 82.1698 218.883 82.4392 224.352 85.2677C228.882 87.6922 232.355 92.1876 234.067 97.4238C236.801 105.825 236.768 114.26 233.312 122.477C230.828 128.386 226.701 132.73 220.359 134.313C213.615 135.997 207.608 134.582 202.894 129.127C202.407 128.555 202.155 127.831 202.004 127.915" fill="#0A3E28"></path><path fill-rule="evenodd" clip-rule="evenodd" d="M151.135 109.344C151.252 112.964 151.47 116.601 153.014 119.985C154.071 122.275 155.564 124.211 157.98 125.103C161.084 126.518 165.882 126.265 169.12 123.15C170.261 122.039 171.301 120.709 172.023 119.278C174.539 114.227 174.942 108.873 173.868 103.384C173.315 100.572 172.09 98.0636 170.194 95.858C165.932 90.908 156.587 90.4534 153.165 98.3161C151.621 101.852 151.269 105.539 151.135 109.344ZM174.841 89.2412C174.841 88.231 174.841 87.2208 174.841 86.2274C174.858 84.3922 175.093 84.1397 176.905 84.1228C178.851 84.106 180.797 84.0892 182.744 84.1228C184.153 84.1565 184.421 84.4596 184.438 85.8907C184.472 87.7427 184.438 131.602 184.438 131.602C184.438 134.094 184.321 134.195 181.905 134.212C180.227 134.212 178.549 134.229 176.871 134.212C175.613 134.178 175.345 133.959 175.227 132.697C175.093 131.367 175.076 129.733 174.992 128.386C174.992 128.386 174.422 128.942 174.019 129.363C171.1 132.73 167.409 134.515 163.013 134.885C153.651 135.677 146.923 130.39 143.635 122.359C141.387 116.904 140.967 111.179 141.471 105.371C141.856 100.993 142.947 96.8008 145.128 92.9621C147.93 88.0626 151.873 84.5943 157.493 83.5167C163.6 82.3381 169.087 83.6514 173.516 88.332C173.835 88.6687 174.17 88.9886 174.489 89.3254C174.489 89.3254 174.741 89.6284 174.791 89.6116C174.808 89.6116 174.791 89.2412 174.791 89.2412" fill="#0A3E28"></path><path fill-rule="evenodd" clip-rule="evenodd" d="M74.6115 80.2504L81.8427 87.0692L66.0046 104.209C66.7093 105.438 77.145 123.47 81.8931 131.451C83.0339 133.37 82.5977 134.38 80.2488 134.246C78.1516 134.111 76.0376 134.145 73.9237 134.246C72.6821 134.296 71.9607 133.841 71.3399 132.764C67.6656 126.164 59.1761 111.348 59.1761 111.348C59.1761 111.348 53.5388 117.729 52.2134 119.177C51.5926 119.85 51.3074 120.574 51.3241 121.517C51.3745 124.884 51.3577 132.511 51.3074 132.949C51.2235 133.774 50.7537 134.229 49.9148 134.229C47.5324 134.229 45.1667 134.229 42.7843 134.229C41.9454 134.229 41.4756 133.791 41.4085 132.949V66.7811C41.3918 64.2724 41.4756 64.1882 43.9084 64.1882C45.8043 64.1882 47.7002 64.1545 49.5793 64.1882C50.955 64.2219 51.257 64.5586 51.3241 65.9561C51.3409 66.3938 51.3241 104.781 51.3241 105.354L74.6115 80.2335V80.2504Z" fill="#0A3E28"></path><path fill-rule="evenodd" clip-rule="evenodd" d="M270.675 104.142H292.436C292.218 100.875 291.53 97.8784 289.416 95.4371C286.514 92.0866 282.722 91.6657 278.729 92.6254C274.249 93.7029 270.625 99.0064 270.692 104.142M270.407 112.998C271.011 117.342 272.185 121.197 275.759 123.891C277.789 125.423 280.121 126.012 282.604 125.979C285.977 125.945 289.114 125.036 291.849 122.982C292.067 122.813 292.302 122.679 292.637 122.46C295.003 124.177 297.402 125.911 299.902 127.73C297.302 130.323 294.517 132.293 291.211 133.471C286.178 135.239 281.027 135.525 275.91 134.06C268.813 132.023 264.25 127.124 262.001 120.187C259.334 111.954 259.451 103.653 262.907 95.6391C265.793 88.9718 270.81 84.6616 278.041 83.4494C283.98 82.4392 289.584 83.4157 294.366 87.406C298.426 90.7901 300.506 95.3024 301.462 100.438C302.134 104.041 302.066 107.694 301.848 111.331C301.764 112.661 301.462 112.93 300.187 112.981C299.801 112.981 271.128 112.981 270.424 112.981" fill="#0A3E28"></path><path fill-rule="evenodd" clip-rule="evenodd" d="M33.523 90.4702C33.8754 89.881 33.1371 89.1402 32.9861 89.0055C26.7281 83.9713 19.5976 82.0688 11.6785 83.6851C7.0143 84.6279 3.22255 87.6417 1.36023 91.7667C-0.602759 96.3968 -0.585981 100.976 2.36689 105.253C3.89366 107.458 6.05798 108.957 8.47396 109.95C12.3999 111.482 21.4767 114.648 23.7416 115.759C24.7147 116.18 25.4697 116.904 25.8389 117.931C26.812 120.473 26.5267 124.514 22.2652 125.743C19.866 126.433 17.45 126.316 15.034 125.895C11.3262 125.255 9.12829 124.362 6.25931 121.921C5.90698 121.618 5.25265 121.601 4.93387 121.921C4.56476 122.292 0.135458 127.141 0.135458 127.141C-0.23365 127.915 0.252902 128.37 1.17567 129.195C1.89711 129.834 4.4641 131.602 5.60498 132.141C11.3597 134.852 17.3997 135.609 23.6242 134.498C30.2346 133.32 34.731 129.38 35.6035 122.426C36.1236 118.234 35.5699 114.26 32.6003 110.994C30.8554 109.075 28.6911 107.711 26.3086 106.802C23.2886 105.64 14.7656 102.946 12.3328 101.633C10.5879 100.875 9.69873 99.5284 9.71551 97.5417C9.71551 95.4371 10.5208 93.8207 12.3664 92.8611C13.1717 92.457 14.0945 92.1876 14.9837 92.0697C19.262 91.5478 23.1209 92.6759 26.5771 95.2014C26.812 95.3697 27.0301 95.5381 27.265 95.7233C27.7683 96.1105 28.4729 96.0432 28.9092 95.5886C28.9092 95.5886 33.3217 90.8407 33.523 90.5039" fill="#0A3E28"></path><path fill-rule="evenodd" clip-rule="evenodd" d="M242.975 99.0906V66.7811C242.975 64.3229 243.11 64.1882 245.542 64.1882C247.438 64.1882 249.317 64.1545 251.213 64.1882C252.539 64.2219 252.824 64.5249 252.874 65.8214C252.891 66.1413 252.874 110.001 252.874 131.585C252.874 134.094 252.774 134.195 250.358 134.195C248.462 134.195 246.583 134.212 244.687 134.195C243.412 134.178 243.059 133.808 242.992 132.545C242.959 132.107 242.992 109.816 242.992 99.0906" fill="#0A3E28"></path><path fill-rule="evenodd" clip-rule="evenodd" d="M124.089 134.178H134.005V62.3362H124.089V134.178Z" fill="#0A3E28"></path><path fill-rule="evenodd" clip-rule="evenodd" d="M105.717 134.178H115.616V82.3381H105.717V134.178Z" fill="#0A3E28"></path><path fill-rule="evenodd" clip-rule="evenodd" d="M87.3458 134.178H97.2279V96.9019H87.3458V134.178Z" fill="#0A3E28"></path><path fill-rule="evenodd" clip-rule="evenodd" d="M146.705 0L90.834 63.307L83.1227 56.057L72 68.585L90.748 87L158 11.136L146.705 0Z" fill="#24ED9B"></path></svg> 