<?xml version="1.0" encoding="iso-8859-1"?>
<!-- Generator: Adobe Illustrator 19.0.0, SVG Export Plug-In . SVG Version: 6.00 Build 0)  -->
<svg version="1.1" id="Layer_1" xmlns="http://www.w3.org/2000/svg" xmlns:xlink="http://www.w3.org/1999/xlink" x="0px" y="0px"
	 viewBox="0 0 512 512" style="enable-background:new 0 0 512 512;" xml:space="preserve">
<g>
	<path style="fill:#ED7161;" d="M290.133,128c-2.56,0-4.267-0.853-5.973-2.56L256,97.28l-28.16,28.16
		c-3.413,3.413-8.533,3.413-11.947,0s-3.413-8.533,0-11.947l34.133-34.133c1.707-1.707,3.413-2.56,5.973-2.56l0,0
		c2.56,0,4.267,0.853,5.973,2.56l34.133,34.133c3.413,3.413,3.413,8.533,0,11.947C294.4,127.147,291.84,128,290.133,128"/>
	<path style="fill:#ED7161;" d="M256,204.8c-5.12,0-8.533-3.413-8.533-8.533V85.333c0-5.12,3.413-8.533,8.533-8.533
		c5.12,0,8.533,3.413,8.533,8.533v110.933C264.533,201.387,261.12,204.8,256,204.8"/>
	<path style="fill:#ED7161;" d="M204.8,273.067h-25.6c-5.12,0-8.533-3.413-8.533-8.533V153.6c0-5.12,3.413-8.533,8.533-8.533h34.133
		c5.12,0,8.533,3.413,8.533,8.533c0,5.12-3.413,8.533-8.533,8.533h-25.6V256H204.8c5.12,0,8.533,3.413,8.533,8.533
		C213.333,269.653,209.92,273.067,204.8,273.067"/>
	<path style="fill:#ED7161;" d="M332.8,196.267c-5.12,0-8.533-3.413-8.533-8.533v-25.6h-25.6c-5.12,0-8.533-3.413-8.533-8.533
		c0-5.12,3.413-8.533,8.533-8.533H332.8c5.12,0,8.533,3.413,8.533,8.533v34.133C341.333,192.853,337.92,196.267,332.8,196.267"/>
</g>
<path style="fill:#556080;" d="M196.267,375.467H47.787C24.747,375.467,0,359.253,0,332.8V46.933C0,22.187,23.04,0,47.787,0h417.28
	C489.813,0,512,22.187,512,46.933v243.2c0,5.12-3.413,8.533-8.533,8.533c-5.12,0-8.533-3.413-8.533-8.533v-243.2
	c0-15.36-14.507-29.867-29.867-29.867H47.787c-15.36,0-30.72,14.507-30.72,29.867V332.8c0,15.36,16.213,25.6,30.72,25.6h148.48
	c5.12,0,8.533,3.413,8.533,8.533S201.387,375.467,196.267,375.467"/>
<path style="fill:#FDC794;" d="M375.467,512L263.68,396.8c-40.107-40.107-40.107-104.96,0-145.067l0,0
	c40.107-40.107,104.96-40.107,145.067,0L512,349.867V512H375.467z"/>
<path style="fill:#FFE9EC;" d="M288.427,372.907l35.84,35.84c4.267,4.267,9.387,5.973,15.36,5.973
	c46.933-3.413,83.627-40.107,87.04-87.04c0-5.973-1.707-11.093-5.973-15.36l-35.84-35.84c-26.453-26.453-69.973-26.453-96.427,0l0,0
	C261.12,302.933,261.12,345.6,288.427,372.907"/>
<path style="fill:#FFFFFF;" d="M366.933,354.133c-16.213,16.213-24.747,40.96-34.987,58.88c2.56,0.853,5.12,1.707,8.533,0.853
	c46.933-3.413,83.627-40.107,87.04-87.04c0-2.56,0-4.267-0.853-6.827h-0.853C407.04,331.093,383.147,337.067,366.933,354.133"/>
<path style="fill:#F9A671;" d="M418.133,477.867c-2.56,0-4.267-0.853-5.973-2.56c-3.413-3.413-3.413-8.533,0-11.947l55.467-55.467
	c3.413-3.413,8.533-3.413,11.947,0c3.413,3.413,3.413,8.533,0,11.947l-55.467,55.467C422.4,477.013,420.693,477.867,418.133,477.867
	"/>
<g>
</g>
<g>
</g>
<g>
</g>
<g>
</g>
<g>
</g>
<g>
</g>
<g>
</g>
<g>
</g>
<g>
</g>
<g>
</g>
<g>
</g>
<g>
</g>
<g>
</g>
<g>
</g>
<g>
</g>
</svg>
