<svg id="Layer_5" enable-background="new 0 0 64 64" height="512" viewBox="0 0 64 64" width="512" xmlns="http://www.w3.org/2000/svg"><path d="m18 5c-7.168 0-13 5.832-13 13s5.832 13 13 13 13-5.832 13-13-5.832-13-13-13zm0 24c-6.065 0-11-4.935-11-11s4.935-11 11-11c5.464 0 9.997 4.008 10.845 9.237l-6.869 7.326-4.562-4.563h-6.414v2h5.586l5.438 5.438 6.923-7.385c-.532 5.573-5.237 9.947-10.947 9.947z"/><path d="m17 49h2v2h-2z"/><path d="m17 53h2v2h-2z"/><path d="m17 57h2v2h-2z"/><path d="m55 61h-2v-28h-8v28h-2v-24h-8v24h-2v-20h-8v22h38v-36h-8zm-24 0h-4v-18h4zm16-26h4v26h-4zm-10 4h4v22h-4zm20-10h4v32h-4z"/><path d="m9 15h2v2h-2z"/><path d="m17 15h2v2h-2z"/><path d="m13 15h2v2h-2z"/><path d="m25 15h2v2h-2z"/><path d="m21 15h2v2h-2z"/><path d="m61 17v-6h-2v6h-2v-2h-2v2h-2v-6h-2v6h-2v-4h-2v4h-1.551l-8.43-9.483-3.45 3.68c-2.63-5.995-8.614-10.197-15.569-10.197-9.374 0-17 7.626-17 17 0 7.994 5.553 14.699 13 16.505v5.275c-.609.549-1 1.337-1 2.22v16c0 2.757 2.243 5 5 5s5-2.243 5-5v-16c0-.883-.391-1.67-1-2.22v-5.275c7.447-1.806 13-8.511 13-16.505 0-1.627-.243-3.197-.672-4.688l2.653-2.829 7.57 8.517h18.449v-2zm-40 41c0 1.654-1.346 3-3 3s-3-1.346-3-3v-16c0-.552.448-1 1-1h4c.552 0 1 .448 1 1zm-1-19h-4v-4.128c.657.077 1.322.128 2 .128s1.343-.051 2-.128zm-2-6c-8.271 0-15-6.729-15-15s6.729-15 15-15 15 6.729 15 15-6.729 15-15 15z"/></svg>