<?xml version="1.0" encoding="utf-8"?>
<!-- Generator: Adobe Illustrator 24.3.0, SVG Export Plug-In . SVG Version: 6.00 Build 0)  -->
<svg version="1.1" id="Layer_1" xmlns="http://www.w3.org/2000/svg" xmlns:xlink="http://www.w3.org/1999/xlink" x="0px" y="0px"
	 viewBox="0 0 243 82" style="enable-background:new 0 0 243 82;" xml:space="preserve">
<style type="text/css">
	.st0{fill:#a5b4fc;}
	.st1{fill:#a5b4fc;}
</style>
<g id="Guide">
</g>
<g>
	<path class="st0" d="M135.9,35.2c1.5-0.4,5.6-0.4,6.9,0c0,0.1,0,0.3,0,0.4c0,7.7,0,15.5,0,23.2c0,0.3,0,0.5-0.3,0.6
		c-4.6,1.4-9.2,1.8-13.9,1c-4.1-0.7-6.4-3.2-7.3-7.1c-0.3-1.5-0.5-3.2-0.5-4.8c-0.1-4.3,0-8.6,0-12.9c0-0.4,0.1-0.6,0.6-0.6
		c2-0.3,3.9-0.3,5.8,0c0.4,0.1,0.5,0.2,0.5,0.6c0,4.4,0,8.7,0,13.1c0,1.2,0.1,2.5,0.5,3.6c0.6,1.6,1.7,2.4,3.3,2.7
		c1.3,0.2,2.5,0.1,3.8-0.1c0.4-0.1,0.6-0.2,0.6-0.7c0-6.2,0-12.3,0-18.5C135.9,35.6,135.9,35.4,135.9,35.2z"/>
	<path class="st0" d="M76.2,31.4c-0.4-2-0.4-4,0-6c0.2,0,0.4,0,0.6,0c7.8,0,15.5,0,23.3,0c0.5,0,0.7,0.1,0.7,0.6
		c0.2,1.7,0.2,3.4,0,5.1c-0.1,0.3-0.3,0.3-0.5,0.3c-2.5,0-5.1,0-7.6,0c-0.2,0-0.4,0-0.6,0c0,0.3,0,0.5,0,0.7c0,9.2,0,18.3,0,27.5
		c0,0.8,0,0.7-0.8,0.8c-2,0.2-4,0.2-6,0c-0.1,0-0.2,0-0.3-0.1c0-9.6,0-19.2,0-28.9C81.9,31.4,79.1,31.4,76.2,31.4z"/>
	<path class="st0" d="M214.4,60.2c-1.8,0.3-3.6,0.3-5.3,0.2c-0.3,0-0.7-0.1-1-0.1c-0.4,0-0.5-0.2-0.5-0.6c0-5.5,0-11.1,0-16.6
		c0-0.9,0-1.8,0-2.7c-1.3,0-2.6,0-4,0c-0.3-1.8-0.3-3.5,0-5.3c1.3,0,2.6,0,4,0c0-0.7,0-1.4,0-2c0.4-4.3,2.7-6.9,6.7-8.3
		c1.6-0.5,3.2-0.7,5-0.7c0,0.3,0.1,0.6,0.1,0.8c0,1.4,0,2.8,0,4.2c0,0.5-0.2,0.7-0.7,0.7c-1.3,0-2.5,0.4-3.4,1.5
		c-0.8,1.1-0.9,2.3-0.8,3.7c0.4,0,0.7,0,1,0c1.1,0,2.2,0,3.3,0c0.2,0,0.4,0,0.4,0.3c0,1.6,0,3.3,0,4.9c-1.6,0-3.2,0-4.8,0
		C214.4,47,214.4,53.6,214.4,60.2z"/>
	<path class="st0" d="M164.3,40.8c-1.5-0.4-2.9-0.8-4.3-1c-1-0.1-2.1,0-3.2,0.2c-1.2,0.2-1.6,0.9-1.6,2.1c0,0.7,0.3,1.2,0.9,1.4
		c1.2,0.5,2.5,0.9,3.7,1.3c1.1,0.4,2.3,0.7,3.3,1.3c2,1,3,2.8,3.3,5c0.3,2.4-0.2,4.5-1.8,6.4c-1.5,1.7-3.5,2.6-5.7,3.1
		c-3.7,0.7-7.3,0.4-10.8-0.9c-0.2-0.1-0.4-0.1-0.3-0.4c0.2-1.7,0.6-3.3,1.3-4.8c0,0,0,0,0.1,0c1.1,0.3,2.1,0.7,3.2,0.9
		c1.6,0.4,3.2,0.5,4.8,0c0.7-0.2,1.4-0.5,1.9-1c1.1-0.9,0.9-2.7-0.3-3.3c-0.7-0.4-1.5-0.6-2.3-0.9c-1.4-0.5-2.8-0.8-4.2-1.4
		c-1.6-0.6-3-1.6-3.5-3.4c-1.2-3.7-0.3-8.1,4.4-9.9c2.1-0.8,4.4-0.9,6.6-0.7c1.8,0.1,3.6,0.5,5.4,1.2c0.2,0.1,0.4,0.3,0.4,0.4
		C165.5,37.8,165,39.4,164.3,40.8z"/>
	<path class="st0" d="M172.6,40.4c-1.1,0-2.1,0-3.1,0c-0.4-0.6-0.3-1.1,0.2-1.6c2.7-3.4,5.4-6.9,8.1-10.3c0.4-0.6,0.9-0.7,1.6-0.6
		c0,2.4,0,4.8,0,7.3c0.2,0,0.4,0,0.6,0c1.6,0,3.2,0,4.9,0c0.3,0,0.5,0.1,0.5,0.4c0.2,1.6,0.2,3.2-0.1,4.8c-2,0-3.9,0-5.9,0
		c0,0.2,0,0.3,0,0.5c0,3.2,0,6.5,0,9.7c0,0.6,0.1,1.2,0.2,1.7c0.4,2,1.3,2.7,3.3,2.8c0.8,0,1.5-0.1,2.3-0.2c0.2,0,0.4-0.1,0.6-0.1
		c0.4,1,0.6,2.1,0.6,3.1c0,0.6,0,1.2-0.1,1.8c0,0.1-0.2,0.3-0.3,0.4c-2.9,0.6-5.9,0.8-8.8-0.2c-2.6-0.9-4-2.8-4.4-5.5
		c-0.1-0.8-0.2-1.6-0.2-2.5c0-3.6,0-7.2,0-10.9C172.6,40.9,172.6,40.7,172.6,40.4z"/>
	<path class="st0" d="M107.8,38.3c0.7-0.6,1.5-1.3,2.2-1.9c1.3-1.1,2.8-1.5,4.5-1.5c0.5,0,1,0.1,1.5,0.1c0.1,0,0.3,0.2,0.3,0.3
		c0.3,1.9,0.2,3.8-0.1,5.7c-0.6,0-1.2,0-1.7,0c-0.6,0-1.1,0-1.7,0.1c-2.3,0.3-3.6,1.8-4.2,3.9c-0.3,1-0.4,2-0.4,3
		c0,3.9,0,7.7,0,11.6c0,0.2,0,0.4,0,0.7c-2.3,0.3-4.6,0.3-6.9,0c0-0.2,0-0.4,0-0.5c0-8,0-16.1,0-24.1c0-0.4,0.1-0.5,0.5-0.6
		c1.6-0.3,3.1-0.2,4.7,0.1c0.3,0.1,0.5,0.2,0.6,0.6C107.5,36.6,107.7,37.6,107.8,38.3z"/>
	<path class="st0" d="M198.4,35.2c0,0.2,0,0.4,0,0.6c0,8,0,15.9,0,23.9c0,0.4-0.1,0.6-0.6,0.7c-2,0.2-3.9,0.3-5.9-0.1
		c-0.1,0-0.2-0.2-0.3-0.4c0-0.1,0-0.2,0-0.3c0-7.9,0-15.8,0-23.8c0-0.2,0-0.4,0-0.6C193.9,35.2,196.1,35.2,198.4,35.2z"/>
	<path class="st0" d="M229.8,35.2c0,0.2,0,0.4,0,0.6c0,8,0,15.9,0,23.9c0,0.4-0.1,0.6-0.6,0.7c-2,0.3-3.9,0.2-5.9,0
		c-0.3,0-0.4-0.2-0.3-0.4c0-0.1,0-0.2,0-0.3c0-7.9,0-15.9,0-23.8c0-0.2,0-0.4,0-0.6C225.2,35.2,227.5,35.2,229.8,35.2z"/>
	<g>
		<path class="st1" d="M27,40.9c-3.5,3.2-7,6.3-10.5,9.5c-0.3-0.5-0.7-1-1-1.5c-1.5-2.6-2.5-5.4-2.6-8.5c-0.1-2.7-0.1-5.3-0.1-8
			c0,0,0-0.1,0.1-0.2C17.6,35.2,22.2,38,27,40.9z"/>
		<path class="st1" d="M12.8,23.4c0-0.5,0-0.9,0-1.4c0-0.3,0.1-0.4,0.4-0.5c4.4-0.8,8.8-1.6,13.2-2.3c3.7-0.7,7.4-1.3,11.1-1.9
			c0.6-0.1,1.3,0,1.9,0.2c3.4,0.6,6.8,1.2,10.2,1.8c3.4,0.6,6.7,1.2,10.1,1.8c1,0.2,2,0.4,3,0.5c0.3,0,0.4,0.2,0.4,0.5
			c0,0.9,0,1.8,0,2.7c0,0.2-0.2,0.5-0.4,0.6c-3.4,2.1-6.9,4.2-10.3,6.3c-4.7,2.9-9.4,5.7-14,8.6c-0.5,0.3-0.8,0.3-1.2,0
			c-7.8-4.8-15.6-9.6-23.4-14.3c-0.7-0.4-1.1-0.9-1-1.8C12.8,23.8,12.8,23.6,12.8,23.4z"/>
		<path class="st1" d="M20.8,54.8c1.4-1.3,2.8-2.5,4.2-3.8c2.1-1.9,4.2-3.8,6.4-5.7c0.3-0.3,0.3-0.5,0-0.8c-0.7-0.7-1.4-1.5-2-2.1
			c0.9,0.6,2.1,1.3,3.3,2c1.6,1,3.1,1.9,4.7,2.9c0.3,0.2,0.6,0.2,0.9,0c2.9-1.8,5.8-3.5,8.6-5.3c-0.6,0.7-1.3,1.4-2,2.1
			c-0.8,0.8-0.8,0.8,0,1.5c3.4,3,6.7,6,10.1,9.1c0.1,0.1,0.1,0.1,0.2,0.2c-0.1,0.1-0.2,0.2-0.4,0.3c-5.5,4-10.9,8.1-16.4,12.1
			c-0.3,0.2-0.5,0.2-0.8,0c-5.5-4.1-11-8.1-16.4-12.2C21.1,55,20.9,54.9,20.8,54.8z"/>
		<path class="st1" d="M59.4,50.5c-3.6-3.2-7.1-6.4-10.7-9.6c4.8-2.9,9.6-5.8,14.5-8.8c0,0.3,0,0.5,0,0.6c0,2.4,0,4.9,0,7.3
			c-0.1,3.8-1.4,7.2-3.5,10.3C59.6,50.4,59.5,50.4,59.4,50.5z"/>
	</g>
	<path class="st1" d="M194.9,32.9c-2.5-2.9-5.1-5.7-7.6-8.6c0,0,0,0,0-0.1c0.9,0.4,1.7,0.9,2.6,1.3c1.1,0.6,2.3,1.1,3.4,1.7
		c0.4,0.2,0.5,0.1,0.8-0.2c3.6-5.4,8.2-9.5,13.9-12.5c-1.3,1.4-2.6,2.7-3.8,4.1c-1.2,1.4-2.4,2.9-3.5,4.5c-1.1,1.5-2.1,3.1-3.1,4.8
		C196.7,29.5,195.9,31.2,194.9,32.9z"/>
	<path class="st0" d="M230.2,27.7c-0.1,1-0.2,1.9-0.2,2.9c0,0.3-0.1,0.4-0.4,0.4c-2.1,0.2-4.3,0.2-6.4,0c-0.3,0-0.4-0.2-0.4-0.4
		c-0.3-1.9-0.3-3.8,0-5.7c0-0.3,0.2-0.5,0.5-0.5c1.4-0.1,2.9-0.2,4.3-0.2c0.7,0,1.3,0.1,2,0.2c0.3,0,0.5,0.1,0.5,0.5
		C230.1,25.8,230.2,26.7,230.2,27.7z"/>
</g>
</svg>
