<svg id="Layer_7" data-name="Layer 7" xmlns="http://www.w3.org/2000/svg" viewBox="0 0 779.96 158.99"><defs><style>.cls-1{fill:#25c151;}</style></defs><title>logo-pagerduty</title><path class="cls-1" d="M173.38,51.7a24.47,24.47,0,0,0-14.74-12.37A28.75,28.75,0,0,0,150.28,38h-44.6v17.7h44.6a7.93,7.93,0,0,1,5.7,2.16,7.59,7.59,0,0,1,2.27,5.8v7.78H124A25.45,25.45,0,0,0,112.06,74a24.69,24.69,0,0,0-8,6.42,25,25,0,0,0-4.41,8.36,29,29,0,0,0-1.36,8.39,25.52,25.52,0,0,0,2.57,11.93,24.54,24.54,0,0,0,6.42,8,25,25,0,0,0,8.32,4.41,28.75,28.75,0,0,0,8.36,1.36h26.28a25.45,25.45,0,0,0,11.95-2.57,24.69,24.69,0,0,0,8-6.42,25.11,25.11,0,0,0,4.41-8.32A28.66,28.66,0,0,0,176,97.15V63.63A25.34,25.34,0,0,0,173.38,51.7ZM158.25,97a8.21,8.21,0,0,1-2.08,5.73,7.54,7.54,0,0,1-5.89,2.3H124.15a8.5,8.5,0,0,1-5.7-2,7.1,7.1,0,0,1-2.4-5.71,8.36,8.36,0,0,1,2.07-5.77A7.51,7.51,0,0,1,124,89.19h34.25Z"/><path class="cls-1" d="M325.64,89.58a25.53,25.53,0,0,0,12-2.59,24.62,24.62,0,0,0,12.44-14.82,28.82,28.82,0,0,0,1.37-8.39,25.59,25.59,0,0,0-2.59-12,24.68,24.68,0,0,0-6.46-8A25,25,0,0,0,334,39.32,28.82,28.82,0,0,0,325.64,38H299.2a25.49,25.49,0,0,0-12,2.59,24.74,24.74,0,0,0-8,6.46,25.4,25.4,0,0,0-4.44,8.37,29.41,29.41,0,0,0-1.37,8.41V97.48a25.49,25.49,0,0,0,2.6,12,24.38,24.38,0,0,0,14.82,12.44,28.87,28.87,0,0,0,8.39,1.38h49.59V105.41H299.34a8.37,8.37,0,0,1-5.8-2.09,7.38,7.38,0,0,1-2.34-5.83v-7.9ZM291.19,63.92a8.43,8.43,0,0,1,2.1-5.82,7.5,7.5,0,0,1,5.91-2.34h26.45a8.21,8.21,0,0,1,5.66,2.09,7.36,7.36,0,0,1,2.34,5.78,8.4,8.4,0,0,1-2.09,5.8,7.52,7.52,0,0,1-5.91,2.34H291.19Z"/><path class="cls-1" d="M479.83,123H451.47c-10.07,0-15.95-4.09-19.1-7.53-6.3-6.85-6.34-15.7-6.23-18.06v-34c0-9.82,4-15.63,7.36-18.77,6.88-6.45,15.9-6.56,18.09-6.48h35.34V7.53h18V97.8c0,9.24-3.79,14.9-7,18C491,122.6,481.7,123,479.83,123ZM444.11,98.33c0,.93.2,3.54,1.55,5s3.88,1.66,5.81,1.66h28.39c7.07-.1,7.07-5.41,7.07-7.16V56.13H450.8c-1,0-3.62.29-5,1.68-1.08,1-1.62,2.92-1.62,5.59Z"/><path class="cls-1" d="M28.56,153.5h-18V63c0-9.25,3.8-14.92,7-18.05C24.61,38,34.17,37.81,35.8,37.82H64.12c10.08,0,16,4.1,19.13,7.54,6.31,6.86,6.35,15.73,6.24,18.09V97.52c0,9.83-4,15.65-7.37,18.8-6.89,6.46-15.91,6.57-18.11,6.49H28.56Zm36.18-48.67c.95,0,3.65-.27,5.12-1.69,1.08-1,1.63-2.94,1.63-5.62l0-35c0-.94-.2-3.56-1.56-5s-3.9-1.67-5.84-1.67H35.67c-7.11.1-7.11,5.44-7.11,7.19v41.79Z"/><path class="cls-1" d="M376.72,123h-18V63.11c0-9.22,3.79-14.88,7-18,7.09-7,16.76-7.21,18.29-7.21h35v18H383.9c-7.18.12-7.18,5.46-7.18,7.22Z"/><path class="cls-1" d="M539.51,123c-1.37,0-11.14-.27-18.27-7.33-3.15-3.13-6.91-8.78-6.91-17.92V37.91h18V97.79c0,3.94,1.36,5.23,2.82,6a11.06,11.06,0,0,0,4.47,1.21h35.21V37.91h18V123H539.51Z"/><path class="cls-1" d="M237.59,152.7H194.84v-18h42.74c4.5,0,6.08-1.76,7-3.48a13.25,13.25,0,0,0,1.46-5.17v-3.44h-34c-2.27.08-11.8,0-19.08-6.81-3.54-3.31-7.75-9.43-7.75-19.81V64.63c-.07-2.17.05-11.83,7-19.14,3.31-3.5,9.41-7.68,19.68-7.68h25.56c10.68,0,26.57,7.08,26.57,26.57V126.2C264,136.91,256.84,152.7,237.59,152.7ZM203.29,64l0,.33,0,.13V96c0,3.15.69,5.4,2,6.67,2.12,2,6,2,6,2l.59,0h34.16V64.38c0-4.78-1.93-6.38-3.81-7.33a13.28,13.28,0,0,0-4.76-1.25H211.95c-3.06,0-5.26.67-6.55,2C203.62,59.63,203.28,62.82,203.29,64Z"/><path class="cls-1" d="M743.19,152.93H700.5v-18h42.69c4.48,0,6.05-1.74,7-3.44a13.08,13.08,0,0,0,1.44-5.13v-3.31H717.56c-10.37,0-16.5-4.21-19.82-7.75-6.85-7.3-6.95-16.89-6.87-19.14V38h18V96.9c0,1.18.31,4.33,2.06,6.15,1.29,1.33,3.52,2,6.64,2h34.06V37.87h18V126.5C769.55,137.16,762.45,152.93,743.19,152.93Z"/><polygon class="cls-1" points="650.7 123.08 632.7 123.08 632.7 55.95 602.07 55.95 602.07 37.95 632.7 37.95 632.7 14.83 650.7 14.83 650.7 37.95 681.45 37.95 681.45 55.95 650.7 55.95 650.7 123.08"/></svg>