<svg 
 xmlns="http://www.w3.org/2000/svg"
 xmlns:xlink="http://www.w3.org/1999/xlink"
 width="20px" height="15px">
<path fill-rule="evenodd"  fill="rgb(99, 200, 250)"
 d="M19.181,1.806 C18.506,2.106 17.780,2.308 17.018,2.399 C17.795,1.933 18.393,1.195 18.674,0.315 C17.946,0.747 17.140,1.060 16.282,1.229 C15.594,0.497 14.615,0.040 13.532,0.040 C11.451,0.040 9.765,1.726 9.765,3.807 C9.765,4.102 9.798,4.389 9.862,4.665 C6.731,4.508 3.955,3.008 2.097,0.729 C1.773,1.285 1.587,1.933 1.587,2.623 C1.587,3.930 2.252,5.083 3.263,5.759 C2.646,5.739 2.065,5.570 1.557,5.287 C1.556,5.303 1.556,5.319 1.556,5.335 C1.556,7.160 2.855,8.683 4.578,9.029 C4.262,9.115 3.929,9.161 3.586,9.161 C3.343,9.161 3.107,9.137 2.877,9.093 C3.356,10.590 4.748,11.679 6.396,11.710 C5.107,12.720 3.483,13.322 1.717,13.322 C1.413,13.322 1.114,13.304 0.819,13.270 C2.486,14.338 4.466,14.962 6.594,14.962 C13.523,14.962 17.312,9.222 17.312,4.243 C17.312,4.080 17.309,3.918 17.301,3.756 C18.037,3.225 18.676,2.561 19.181,1.806 Z"/>
</svg>