<?xml version="1.0" standalone="no"?>
<!DOCTYPE svg PUBLIC "-//W3C//DTD SVG 20010904//EN"
 "http://www.w3.org/TR/2001/REC-SVG-20010904/DTD/svg10.dtd">
<svg version="1.0" xmlns="http://www.w3.org/2000/svg"
 width="700.000000pt" height="700.000000pt" viewBox="0 0 700.000000 700.000000"
 preserveAspectRatio="xMidYMid meet">
<metadata>
Created by potrace 1.14, written by Peter Selinger 2001-2017
</metadata>
<g transform="translate(0.000000,700.000000) scale(0.100000,-0.100000)"
fill="#000000" stroke="none">
<path d="M864 4667 c-7 -19 2 -1540 9 -1567 4 -13 9 -42 12 -63 14 -91 70
-225 138 -331 28 -44 106 -121 162 -162 103 -73 173 -100 368 -144 72 -16 315
-4 402 19 268 72 459 246 551 498 31 85 41 129 59 253 5 34 10 1314 6 1482
l-1 27 -210 -1 c-208 0 -210 0 -211 -22 0 -11 -2 -340 -4 -731 -1 -390 -5
-728 -9 -750 -29 -182 -125 -315 -258 -361 -74 -26 -252 -26 -325 -1 -135 47
-231 205 -249 409 -4 45 -8 391 -8 768 l-1 685 -213 2 c-154 1 -215 -2 -218
-10z"/>
<path d="M3663 4169 c-125 -14 -257 -70 -354 -149 l-46 -38 -38 40 c-68 69
-161 105 -294 114 l-87 6 -42 -154 c-23 -84 -45 -167 -48 -184 l-6 -31 50 5
c62 5 118 -12 134 -41 9 -17 13 -257 14 -992 1 -533 2 -972 3 -975 0 -3 94 -5
208 -5 l208 1 0 359 c1 198 4 361 8 362 4 2 35 -10 69 -26 114 -51 159 -62
283 -66 169 -7 323 46 454 155 310 258 414 756 241 1161 -131 309 -435 493
-757 458z m169 -412 c75 -34 140 -102 182 -191 46 -97 60 -163 59 -286 0 -251
-105 -431 -280 -483 -57 -17 -157 -16 -221 2 -44 12 -139 66 -181 102 l-25 20
0 357 -1 357 30 28 c50 47 114 88 168 107 75 27 193 21 269 -13z"/>
<path d="M4932 4013 c-18 -6 -35 -13 -36 -15 -24 -27 -26 -83 -26 -688 l0
-642 29 -29 29 -29 650 0 649 0 26 25 c13 14 26 36 28 48 3 12 4 303 4 647 -1
587 -2 627 -19 653 -10 15 -30 30 -43 33 -49 13 -1255 10 -1291 -3z"/>
</g>
</svg>
