<?xml version="1.0" encoding="iso-8859-1"?>
<!-- Generator: Adobe Illustrator 19.0.0, SVG Export Plug-In . SVG Version: 6.00 Build 0)  -->
<svg version="1.1" id="Capa_1" xmlns="http://www.w3.org/2000/svg" xmlns:xlink="http://www.w3.org/1999/xlink" x="0px" y="0px"
	 viewBox="0 0 512 512" style="enable-background:new 0 0 512 512;" xml:space="preserve">
<path style="fill:#AEADB3;" d="M331,436c0,41.4-33.6,76-75,76s-75-34.6-75-76c0-8.401,6.599-15,15-15h120
	C324.401,421,331,427.599,331,436z"/>
<path style="fill:#8B8892;" d="M331,436c0,41.4-33.6,76-75,76v-91h60C324.401,421,331,427.599,331,436z"/>
<path style="fill:#D9D9D9;" d="M361,391v15c0,24.899-20.099,45-45,45H196c-24.901,0-45-20.101-45-45v-15l28.5-31h153L361,391z"/>
<path style="fill:#C8C6CD;" d="M332.5,360l28.5,31v15c0,24.899-20.099,45-45,45h-60v-91H332.5z"/>
<path style="fill:#FEDB41;" d="M436,180c0,43.5-15.901,85.8-44.7,118.5c-15.901,18.3-25.501,39.598-28.801,61.5
	c-0.599,5.099-1.5,10.899-1.5,16v15H151v-15c0-5.101-0.601-10.901-1.5-16c-3.001-21.901-12.599-43.2-28.2-60.601
	c-38.401-43.2-53.401-101.1-41.1-158.699C94.6,73.2,149.5,18.3,217.301,3.9C230.2,1.199,243.1,0,256,0
	c41.1,0,81.301,14.099,113.401,40.199C411.7,74.7,436,125.7,436,180z"/>
<path style="fill:#FCBF29;" d="M436,180c0,43.5-15.901,85.8-44.7,118.5c-15.901,18.3-25.501,39.598-28.801,61.5
	c-0.599,5.099-1.5,10.899-1.5,16v15H256V0c41.1,0,81.301,14.099,113.401,40.199C411.7,74.7,436,125.7,436,180z"/>
<g>
	<path style="fill:#FEA832;" d="M376,180c0,8.399-6.599,15-15,15s-15-6.601-15-15c0-49.501-40.499-90-90-90c-8.401,0-15-6.601-15-15
		c0-8.401,6.599-15,15-15C322.301,60,376,113.699,376,180z"/>
	<path style="fill:#FEA832;" d="M45,210H15c-8.291,0-15-6.709-15-15s6.709-15,15-15h30c8.291,0,15,6.709,15,15S53.291,210,45,210z"
		/>
	<path style="fill:#FEA832;" d="M40.605,130.605c-3.838,0-7.676-1.465-10.605-4.395L8.789,105c-5.859-5.859-5.859-15.352,0-21.211
		s15.352-5.859,21.211,0L51.211,105c5.859,5.859,5.859,15.352,0,21.211C48.281,129.141,44.443,130.605,40.605,130.605z"/>
	<path style="fill:#FEA832;" d="M8.789,306.211c-5.859-5.859-5.859-15.352,0-21.211L30,263.789c5.859-5.859,15.352-5.859,21.211,0
		s5.859,15.352,0,21.211L30,306.211C24.141,312.07,14.649,312.07,8.789,306.211z"/>
</g>
<g>
	<path style="fill:#FE9923;" d="M497,210h-30c-8.291,0-15-6.709-15-15s6.709-15,15-15h30c8.291,0,15,6.709,15,15
		S505.291,210,497,210z"/>
	<path style="fill:#FE9923;" d="M460.789,126.211c-5.859-5.859-5.859-15.352,0-21.211L482,83.789c5.859-5.859,15.352-5.859,21.211,0
		s5.859,15.352,0,21.211L482,126.211C476.141,132.07,466.649,132.07,460.789,126.211z"/>
	<path style="fill:#FE9923;" d="M482,306.211L460.789,285c-5.859-5.859-5.859-15.352,0-21.211s15.352-5.859,21.211,0L503.211,285
		c5.859,5.859,5.859,15.352,0,21.211S487.86,312.07,482,306.211z"/>
	<path style="fill:#FE9923;" d="M376,180c0,8.399-6.599,15-15,15s-15-6.601-15-15c0-49.501-40.499-90-90-90V60
		C322.301,60,376,113.699,376,180z"/>
</g>
<g>
</g>
<g>
</g>
<g>
</g>
<g>
</g>
<g>
</g>
<g>
</g>
<g>
</g>
<g>
</g>
<g>
</g>
<g>
</g>
<g>
</g>
<g>
</g>
<g>
</g>
<g>
</g>
<g>
</g>
</svg>
