<?xml version="1.0" encoding="iso-8859-1"?>
<!-- Generator: Adobe Illustrator 19.0.0, SVG Export Plug-In . SVG Version: 6.00 Build 0)  -->
<svg version="1.1" id="Capa_1" xmlns="http://www.w3.org/2000/svg" xmlns:xlink="http://www.w3.org/1999/xlink" x="0px" y="0px"
	 viewBox="0 0 477.869 477.869" style="enable-background:new 0 0 477.869 477.869;" xml:space="preserve">
<g>
	<g>
		<path d="M467.336,1.3c-6.379-2.642-13.722-1.18-18.603,3.703L255.999,197.737V17.069c-0.002-9.426-7.645-17.065-17.07-17.063
			c-4.524,0.001-8.863,1.798-12.062,4.997L5,226.87c-6.663,6.664-6.663,17.468,0,24.132l221.867,221.867c3.2,3.201,7.54,5,12.066,5
			c2.244,0.007,4.466-0.434,6.537-1.297c6.376-2.644,10.532-8.867,10.53-15.77V280.135l192.734,192.734c3.2,3.201,7.54,5,12.066,5
			c2.243,0.007,4.466-0.434,6.536-1.297c6.376-2.644,10.532-8.867,10.53-15.77V17.069C477.868,10.167,473.712,3.943,467.336,1.3z
			 M221.866,419.604L41.198,238.936L221.866,58.268V419.604z M443.733,419.604L263.065,238.936L443.733,58.268V419.604z"/>
	</g>
</g>
<g>
</g>
<g>
</g>
<g>
</g>
<g>
</g>
<g>
</g>
<g>
</g>
<g>
</g>
<g>
</g>
<g>
</g>
<g>
</g>
<g>
</g>
<g>
</g>
<g>
</g>
<g>
</g>
<g>
</g>
</svg>
