<svg xmlns="http://www.w3.org/2000/svg" viewBox="0 0 800 615"><path d="M800 504v91c0 11-9 20-20 20H20c-11 0-20-9-20-20v-91h800z" fill="#FFF"/><path d="M0 59.6h800v477H0v-477z" fill="#1ccbea"/><path d="M384 389.7h59.1c1.1 0 2 .9 2 2v4.1c0 1.1-.9 2-2 2H384c-1.1 0-2-.9-2-2v-4.1c0-1.1.9-2 2-2z" fill="#FFF"/><path d="M361.2 385.4c4.6 0 8.4 3.7 8.4 8.4s-3.8 8.4-8.4 8.4c-4.6 0-8.4-3.7-8.4-8.4s3.8-8.4 8.4-8.4z" fill="none" stroke="#FFF" stroke-width="3" stroke-linecap="round" stroke-linejoin="round"/><path d="M562.7 350H238c-1.1 0-2-.9-2-2v-4c0-1.1.9-2 2-2h324.7c1.1 0 2 .9 2 2v4c0 1.1-.9 2-2 2zm-291.3 12h257.8c1.1 0 2 .9 2 2v4c0 1.1-.9 2-2 2H271.4c-1.1 0-2-.9-2-2v-4c0-1.1.9-2 2-2z" opacity=".502" fill="#FFF"/><path d="M358.7 117H442c1.1 0 2 .9 2 2v4c0 1.1-.9 2-2 2h-83.3c-1.1 0-2-.9-2-2v-4c0-1.1.9-2 2-2zm300.4 91.6H644c.2 4.8 2.5 8.3 6.6 8.3 2.8 0 4.6-1.1 5.4-4l3.3.7c-.8 4.7-4.6 6.2-9 6.2-6 0-10-4.2-10-12 0-7.7 4-12.2 10.3-12.2 5.8 0 8.9 4 8.9 9.7.1 1.4-.1 2.7-.4 3.3zm-8.7-9.9c-3.5 0-5.8 2.4-6.3 6.8h11.7c.1-.4.1-.7.1-1 0-3.2-2.2-5.8-5.5-5.8zm-19.6 5c0-2.9-1.5-4.7-4.3-4.7-3 0-5.8 1.6-5.8 6.9v13.4h-3.8v-23.1h2.8l.5 4.4c1.2-3.4 3.9-5 7.4-5 3.9 0 7.1 2.1 7.1 7.1v16.5h-3.8v-15.5zm-23.4-12.3c-1.4 0-2.6-1.2-2.6-2.7 0-1.5 1.2-2.7 2.6-2.7 1.5 0 2.7 1.2 2.7 2.7 0 1.4-1.2 2.7-2.7 2.7zm-9.8 28.2c-2.7 0-4.9-1.5-4.9-4.7v-29h3.8v28.4c0 1.4.8 2.1 2 2.1.7 0 1-.1 1.5-.2v3.1c-1.1.3-1.7.3-2.4.3zm-15.7-15.9c0-2.9-1.5-4.7-4.3-4.7-3 0-5.8 1.6-5.8 6.9v13.4H568v-23.1h2.8l.5 4.4c1.2-3.4 3.9-5 7.4-5 3.9 0 7.1 2.1 7.1 7.1v16.5H582v-15.5zm-4.7 54.5c0 1.3-.2 2.6-.5 3.2h-15.1c.2 4.8 2.5 8.3 6.6 8.3 2.8 0 4.6-1.1 5.4-4l3.3.7c-.8 4.7-4.6 6.2-9 6.2-6 0-10-4.2-10-12 0-7.7 4-12.2 10.3-12.2 5.8 0 9 4.1 9 9.8zm-15.5.1h11.7c.1-.4.1-.7.1-1 0-3.2-2.1-5.8-5.5-5.8-3.6 0-5.8 2.4-6.3 6.8zm-10.1-38.4c-6.2 0-10.3-4.4-10.3-12.3 0-7.8 4-11.9 10.3-11.9s10.3 4.1 10.3 11.9c0 7.9-4 12.3-10.3 12.3zm0-21.2c-4.3 0-6.5 2.8-6.5 8.8 0 6.1 2.2 9.3 6.5 9.3s6.5-3.1 6.5-9.3c.1-5.9-2.2-8.8-6.5-8.8zm-15.1 73.7c-2.5 0-4.2-1.1-4.5-3.7-1.2 2.9-4 4-6.8 4-4 0-6.9-2.3-6.9-6.2 0-5.1 3.9-8.1 13.5-7.6v-3.1c0-3.1-2-4.2-4.6-4.2-2.7 0-4.4 1.3-4.6 3.8l-3.5-.5c.4-4.9 4.7-6.4 8.6-6.4 4 0 8 1.6 8 6.9v11.7c0 1.8.9 2.1 1.7 2.1.5 0 .9-.1 1.2-.2v3c-.6.3-1.3.4-2.1.4zm-4.7-10.9c-6.7-.1-9.7 1.3-9.7 4.5 0 2.1 1.3 3.7 4 3.7 2.6 0 5.7-1.6 5.7-4.5v-3.7zm-11-57.9c0-2.9-1.5-4.7-4.3-4.7-3 0-5.8 1.6-5.8 6.9v13.4h-3.8v-33.4h3.8v14.7c1-3.2 3.4-4.9 6.9-4.9 3.9 0 7.1 2.1 7.1 7.1v16.5h-3.8v-15.6zM507 269.4s.1-2.8 1.3-7.5l3.3-12.9h3.8l-6.3 23.1h-4.5l-3.3-11.8c-1.3-4.6-1.5-7.2-1.5-7.2h-.2s-.2 2.6-1.5 7.2l-3.2 11.8h-4.5l-6.5-23.1h3.9l3.4 12.9c1.2 4.6 1.5 7.5 1.5 7.5h.2s.1-2.9 1.4-7.5l3.5-12.9h3.9l3.5 12.9c1.3 4.6 1.5 7.5 1.5 7.5h.3zm-9.8-49.5c-4 0-6.3-2.2-6.3-6.2v-14.4h-3.3v-3h3.3v-4.9l3.8-.5v5.4h6.8v3h-6.9V213c0 2.5 1.1 3.6 3.1 3.6 1.5 0 2.5-.4 3.8-1.2l.8 3.1c-1.4.9-3.2 1.4-5.1 1.4zm-15.9-28.5c-1.4 0-2.6-1.2-2.6-2.7 0-1.5 1.2-2.7 2.6-2.7 1.5 0 2.7 1.2 2.7 2.7 0 1.4-1.2 2.7-2.7 2.7zm-17 27.9l-3.3-11.8c-1.3-4.6-1.5-7.2-1.5-7.2h-.2s-.2 2.6-1.5 7.2l-3.2 11.8H450l-6.5-23.1h3.9l3.4 12.9c1.2 4.6 1.5 7.5 1.5 7.5h.2s.1-2.9 1.4-7.5l3.5-12.9h3.9l3.5 12.9c1.3 4.6 1.5 7.5 1.5 7.5h.2s.1-2.8 1.3-7.5l3.3-12.9h3.8l-6.3 23.1h-4.3zm-23.2 53.4c-6.2 0-10.3-4.4-10.3-12.3 0-7.8 4-11.9 10.3-11.9 6.2 0 10.3 4.1 10.3 11.9 0 7.9-4.1 12.3-10.3 12.3zm0-21.2c-4.3 0-6.5 2.8-6.5 8.8 0 6.1 2.2 9.3 6.5 9.3s6.5-3.1 6.5-9.3c0-5.9-2.2-8.8-6.5-8.8zm-12.2-51.7c-3.5 0-6.5 2.9-6.5 7.4v12h-3.8v-23.1h3.1l.5 6.2c.9-4.1 3.9-6.9 8.8-6.7l-.2 4.3c-.5 0-1.2-.1-1.9-.1zm-2.1 54.8l-3.8.4c-.1-2.4-1.6-3.6-4.5-3.6s-4.5 1.3-4.5 3.5c0 1.8.6 3 3.4 3.6l3.1.8c3.9 1 6.3 2.6 6.3 6.8 0 4.8-3.8 6.6-8.7 6.6-5.1 0-8-1.6-8.6-5.7l3.5-.8c.3 2.7 2.2 3.9 5.2 3.9 2.9 0 5-1.1 5-3.5 0-2-.8-3.2-3.8-4l-3.4-.8c-4.2-1-5.7-3.1-5.7-6.4 0-5 4.1-6.8 8.4-6.8 4.7-.2 7.6 1.5 8.1 6zm-29.8-46c.2 4.8 2.5 8.3 6.6 8.3 2.8 0 4.6-1.1 5.4-4l3.3.7c-.8 4.7-4.6 6.2-9 6.2-6 0-10-4.2-10-12 0-7.7 4-12.2 10.3-12.2 5.8 0 8.9 4 8.9 9.7 0 1.3-.2 2.6-.4 3.2H397zm6.4-9.9c-3.5 0-5.8 2.4-6.3 6.8h11.7v-1c.1-3.2-2.1-5.8-5.4-5.8zm-10.9 53.5c.8 1.2 1.1 2.7 1.1 4.4 0 5.4-4.2 8-9.1 8-1.2 0-2.4-.1-3-.4-1.2.6-1.7 1.4-1.7 2.5 0 1.4.9 2.1 2.7 2.1h5.3c5.2 0 7.9 2.1 7.9 6.3 0 5.9-6.3 7.4-12.2 7.4-4.9 0-9.9-1.3-9.9-6.1 0-3 2.2-5.2 5.9-5.5-2-.2-3-1.6-3-3.4 0-1.8.9-3.2 3.3-3.8-2.7-1.2-4.4-3.7-4.4-7 0-5.1 3.6-8.2 9-8.2 2.7 0 5 .6 6.7 2 1.2-.5 1.5-1.8 1.8-3.5l3.4 1.2c-.4 2.1-1.9 3.6-3.8 4zm-15.3 24c0 2.7 2.8 3.6 6.5 3.6 4.7 0 8.2-.9 8.2-4.2 0-1.9-1-3.4-4.3-3.4h-4.7c-3.7 0-5.7 1.3-5.7 4zm7.1-24.9c-3.3.1-5.3 1.9-5.3 5.3 0 3.1 2 5.2 5.3 5.2s5.5-1.6 5.5-5.2-2.2-5.4-5.5-5.3zm1.2-31.4c-4 0-6.3-2.2-6.3-6.2v-14.4h-3.3v-3h3.3v-4.9l3.8-.5v5.4h6.8v3h-6.9V213c0 2.5 1.1 3.6 3.1 3.6 1.5 0 2.5-.4 3.8-1.2l.7 3.1c-1.3.9-3.1 1.4-5 1.4zm-18.2-13.5c3.9 1 6.3 2.6 6.3 6.8 0 4.8-3.8 6.6-8.7 6.6-5.1 0-8-1.6-8.6-5.7l3.5-.9c.3 2.7 2.2 3.9 5.2 3.9 2.9 0 5-1.1 5-3.5 0-2-.8-3.2-3.8-4l-3.4-.8c-4.2-1-5.7-3.1-5.7-6.4 0-5 4.1-6.8 8.4-6.8 4.6 0 7.5 1.7 8 6.1l-3.7.4c-.1-2.4-1.6-3.6-4.5-3.6s-4.5 1.3-4.5 3.5c0 1.8.6 3 3.4 3.6l3.1.8zm-4.8 42c3.9 0 7.1 2.1 7.1 7.1V272h-3.8v-15.6c0-2.9-1.5-4.7-4.3-4.7-3 0-5.8 1.6-5.8 6.9V272h-3.8v-23h2.8l.4 4.4c1.2-3.4 3.9-5 7.4-5zm-11-28.8c-2.5 0-4.2-1.1-4.5-3.7-1.2 2.9-4 4-6.8 4-4 0-6.9-2.3-6.9-6.2 0-5.1 3.9-8.1 13.5-7.6V203c0-3.1-2-4.2-4.6-4.2-2.7 0-4.4 1.3-4.6 3.8l-3.5-.5c.4-4.9 4.7-6.4 8.6-6.4 4 0 8 1.6 8 6.9v11.7c0 1.8.8 2.1 1.7 2.1.5 0 .9-.1 1.2-.2v3c-.6.3-1.3.4-2.1.4zm-4.8-10.9c-6.7-.2-9.7 1.3-9.7 4.5 0 2.1 1.3 3.7 4 3.7 2.6 0 5.7-1.6 5.7-4.5v-3.7zm-17.4-20c-2.4 0-3.8 1.3-3.8 4.7v2.7h5.9v3h-5.9v20h-3.8v-20h-3.3v-3h3.3v-2.9c0-5.8 3.7-7.7 7.5-7.7 1.7 0 3.2.4 4.5.9l-.8 3.3c-1.2-.6-2.2-1-3.6-1zm-2.7 59.7c4.7 0 7.8 2.4 8.1 7.1l-3.5.5c-.5-3-2.1-4.5-4.8-4.5-4.2 0-6.4 3.8-6.4 9.1 0 5.1 2.6 8.9 6.6 8.9 2.6 0 4.4-1.2 5.2-3.9l3.2.7c-.8 4.6-4.4 6.3-8.8 6.3-5.8 0-9.9-4.2-9.9-12 0-7.6 4.1-12.2 10.3-12.2zm-18.2-4.2c-1.4 0-2.6-1.2-2.6-2.7 0-1.5 1.2-2.7 2.6-2.7 1.5 0 2.7 1.2 2.7 2.7 0 1.5-1.2 2.7-2.7 2.7zm-9.4-28.9c-1.4 3.5-4.1 4.6-7.4 4.6-4.7 0-9.1-3.9-9.1-11.8 0-7.8 3.7-12.4 10.3-12.4 2.9 0 5.5 1.7 6.1 3.7V186h3.8v33.4h-3.3l-.4-4.1zm0-10.5c0-4.3-3.4-6.2-6.1-6.2-3.7 0-6.6 2.5-6.6 9.4 0 5.7 2.5 8.8 6.5 8.8 2.6 0 6.1-2.1 6.1-6.6v-5.4zm-8.8 43.6c6.2 0 10.3 4.1 10.3 11.9 0 7.9-4 12.3-10.3 12.3s-10.3-4.4-10.3-12.3c0-7.8 4.1-11.9 10.3-11.9zm0 21.3c4.3 0 6.5-3.1 6.5-9.3 0-6-2.2-8.8-6.5-8.8s-6.5 2.8-6.5 8.8c0 6.1 2.2 9.3 6.5 9.3zm-25 2.4l-8-23.1h4.2l4.2 13.4c1.4 4.6 1.8 7.3 1.8 7.3h.2s.3-2.7 1.7-7.3l4-13.4h4l-7.7 23.1h-4.4zm11.3-52.8h-3.8v-23.1h3.8v23.1zm-1.9-27.9c-1.4 0-2.6-1.2-2.6-2.7 0-1.5 1.2-2.7 2.6-2.7 1.5 0 2.7 1.2 2.7 2.7 0 1.4-1.2 2.7-2.7 2.7zm-8.9 28.2c-2.5 0-4.2-1.1-4.5-3.7-1.2 2.9-4 4-6.8 4-4 0-6.9-2.3-6.9-6.2 0-5.1 3.9-8.1 13.5-7.6V203c0-3.1-2-4.2-4.6-4.2-2.7 0-4.4 1.3-4.6 3.8l-3.5-.5c.4-4.9 4.7-6.4 8.6-6.4 4 0 8 1.6 8 6.9v11.7c0 1.8.8 2.1 1.7 2.1.5 0 .9-.1 1.2-.2v3c-.6.3-1.2.4-2.1.4zm-4.7-10.9c-6.7-.2-9.7 1.3-9.7 4.5 0 2.1 1.3 3.7 4 3.7 2.6 0 5.7-1.6 5.7-4.5v-3.7zm-7.6 46.8V272h-3.8v-15.6c0-2.9-1.5-4.7-4.3-4.7-3 0-5.8 1.6-5.8 6.9V272h-3.8v-23h2.8l.4 4.4c1.2-3.4 3.9-5 7.4-5 3.9 0 7.1 2.1 7.1 7.1zm-20.2-35.6c-3.6 0-5.6-1.6-6.5-3.6v13.2h-3.8v-33.2h3l.4 4.4c1.4-3.7 4.9-5 7.7-5 5.6 0 9.1 4 9.1 11.5.1 6.9-3.5 12.7-9.9 12.7zm0-21.1c-3.6 0-6.5 2.6-6.5 7.1v4.6c0 4.6 3.2 6.4 5.9 6.4 3.6 0 6.6-3 6.6-9.4.1-5.8-2.3-8.7-6-8.7zm-30.9 21.1c-4 0-6.3-2.2-6.3-6.2v-14.4h-3.3v-3h3.3v-4.9l3.8-.5v5.4h6.8v3h-6.9V213c0 2.5 1.1 3.6 3.1 3.6 1.5 0 2.5-.4 3.8-1.2l.7 3.1c-1.3.9-3.1 1.4-5 1.4zm-28.1-11.3c.2 4.8 2.5 8.3 6.6 8.3 2.8 0 4.6-1.1 5.4-4l3.3.7c-.8 4.7-4.6 6.2-9 6.2-6 0-10-4.2-10-12 0-7.7 4-12.2 10.3-12.2 5.8 0 8.9 4 8.9 9.7 0 1.3-.2 2.6-.4 3.2h-15.1zm6.4-9.9c-3.5 0-5.8 2.4-6.3 6.8H186c.1-.4.1-.7.1-1 0-3.2-2.1-5.8-5.5-5.8zm-19.4 16.6c-1.1 2.9-4.7 4.5-8.1 4.5-7.5 0-12.7-5.4-12.7-15.2 0-9.8 5.6-15.4 13.5-15.4 5.4 0 8.9 2.2 10.7 6.9l-3.5 1.7c-1.3-3.6-4.1-5.4-7.5-5.4-5.8 0-9.1 4.6-9.1 12.1 0 7.1 2.9 12 8.8 12 3.9 0 7.9-1.8 7.9-6.2v-2.6h-7.5v-3.5h11.4v15h-3.4l-.5-3.9zm65 23.5c1.5 0 2.7 1.2 2.7 2.7 0 1.4-1.2 2.7-2.7 2.7-1.4 0-2.6-1.2-2.6-2.7-.1-1.5 1.1-2.7 2.6-2.7zm1.9 33.3h-3.8V249h3.8v23.1zm82.2 0h-3.8V249h3.8v23.1zm32-33.3c1.5 0 2.7 1.2 2.7 2.7 0 1.4-1.2 2.7-2.7 2.7-1.4 0-2.6-1.2-2.6-2.7 0-1.5 1.2-2.7 2.6-2.7zm2 33.3h-3.8V249h3.8v23.1zm113.4-26c0-5.8 3.7-7.7 7.5-7.7 1.7 0 3.2.4 4.5.9l-.8 3.3c-1.2-.6-2.1-1-3.6-1-2.4 0-3.8 1.3-3.8 4.7v2.7h5.9v3h-5.9v20h-3.8v-20h-3.3v-3h3.3v-2.9zm21.8-49.9h3.8v23.1h-3.8v-23.1zm-8.4 47.9l3.8-.5v5.4h6.8v3h-6.9v13.7c0 2.5 1.1 3.6 3.1 3.6 1.5 0 2.5-.4 3.8-1.2l.8 3.1c-1.3.9-3.2 1.3-5.1 1.3-4 0-6.3-2.2-6.3-6.2V252h-3.3v-3h3.3v-4.9zm76 11.1c.9-4.1 3.9-6.9 8.8-6.7l-.2 4.3c-.5-.1-1.2-.2-1.8-.2-3.5 0-6.5 2.9-6.5 7.4v12h-3.8v-23h3.1l.4 6.2zm62.2-35.9h-3.8v-23.1h3.8v23.1z" fill="#FFF"/><path d="M0 35c0-11 9-20 20-20h760c11 0 20 9 20 20v37H0V35z" fill="#45474d"/><path d="M702 47h-44.3c-1.1 0-2-.9-2-2v-4c0-1.1.9-2 2-2H702c1.1 0 2 .9 2 2v4c0 1.1-.9 2-2 2zm-97.3 0c-1.1 0-2-.9-2-2v-4c0-1.1.9-2 2-2H627c1.1 0 2 .9 2 2v4c0 1.1-.9 2-2 2h-22.3zm-43 0c-1.1 0-2-.9-2-2v-4c0-1.1.9-2 2-2H583c1.1 0 2 .9 2 2v4c0 1.1-.9 2-2 2h-21.3zm-81 0c-1.1 0-2-.9-2-2v-4c0-1.1.9-2 2-2H544c1.1 0 2 .9 2 2v4c0 1.1-.9 2-2 2h-63.3zm-86 0c-1.1 0-2-.9-2-2v-4c0-1.1.9-2 2-2H458c1.1 0 2 .9 2 2v4c0 1.1-.9 2-2 2h-63.3zm-104 0c-1.1 0-2-.9-2-2v-4c0-1.1.9-2 2-2H374c1.1 0 2 .9 2 2v4c0 1.1-.9 2-2 2h-83.3z" fill="#FFF"/><path d="M652 31h55.7c2.2 0 4 1.8 4 4v16c0 2.2-1.8 4-4 4H652c-2.2 0-4-1.8-4-4V35c0-2.2 1.8-4 4-4z" opacity=".251" fill="none" stroke="#FFF" stroke-width="3" stroke-linecap="round" stroke-linejoin="round"/><path d="M154 473h428v197H154V473z" fill="#e0e1e3"/><path d="M154 451h428v23.7H154V451z" fill="#FFF"/><path d="M160 439h416c3.3 0 6 2.7 6 6v7H154v-7c0-3.3 2.7-6 6-6z" fill="#00a3d3"/><path d="M551 510h81c8.3 0 15 6.7 15 15v135c0 8.3-6.7 15-15 15h-81c-8.3 0-15-6.7-15-15V525c0-8.3 6.7-15 15-15z" fill="#f0f0f0"/><path d="M542 535.3h99v114.3h-99V535.3z" fill="#FFF"/><path d="M542 535.3h99v18.3h-99v-18.3z" fill="#1eb7ef"/><path d="M20 15h760c11 0 20 9 20 20v560c0 11-9 20-20 20H20c-11 0-20-9-20-20V35c0-11 9-20 20-20z" fill-opacity="0"/><linearGradient id="a" gradientUnits="userSpaceOnUse" x1="0" y1="0" x2="800" y2="600"><stop offset="0" stop-color="#FFF" stop-opacity=".2"/><stop offset="1" stop-color="#FFF" stop-opacity="0"/></linearGradient><path d="M20 15h760c11 0 20 9 20 20v560c0 11-9 20-20 20H20c-11 0-20-9-20-20V35c0-11 9-20 20-20z" fill="url(#a)"/><path d="M113 87.9c24.3 0 43.9-19.7 43.9-43.9S137.3.1 113 .1 69.1 19.7 69.1 44 88.7 87.9 113 87.9z" fill="#13b5ea"/><path d="M137.1 53.7c-5.4 0-9.9-4.4-9.9-9.8s4.4-9.9 9.9-9.9 9.9 4.4 9.9 9.9c0 5.4-4.5 9.8-9.9 9.8zm0-16.9c-3.9 0-7.1 3.2-7.1 7.1 0 3.9 3.2 7.1 7.1 7.1 3.9 0 7.1-3.2 7.1-7.1 0-3.9-3.2-7.1-7.1-7.1zm0 9.5c-1.3 0-2.4-1.1-2.4-2.4 0-1.3 1.1-2.4 2.4-2.4 1.3 0 2.4 1.1 2.4 2.4.1 1.3-1 2.4-2.4 2.4zm-10.6-9.5h-.6c-2.9.4-3.2 1.7-3.2 5.1v10.2c0 .7-.6 1.3-1.3 1.3s-1.3-.6-1.3-1.3V35.5c0-.7.6-1.3 1.3-1.3.6 0 1.2.5 1.3 1.1 1-.8 2.2-1.2 3.4-1.2h.4c.7 0 1.3.6 1.3 1.3.1.9-.5 1.4-1.3 1.4zm-11.8 8.1h-14v.2c.1.4.2.8.3 1.1.7 1.9 2.8 4.7 6.7 4.7 1.2 0 2.3-.3 3.3-.8.8-.4 1.4-1 1.9-1.6.2-.2.3-.4.5-.6.7-.8 1.5-.7 2-.3.6.5.7 1.4.2 2.1v.1c-.8 1-1.6 1.8-2.5 2.4-.9.6-1.9 1-2.9 1.3-1.2.3-2.4.4-3.5.2-4-.5-7.4-3.4-8.4-7.4-.2-.8-.3-1.6-.3-2.4 0-3.2 1.5-6.2 4.2-8.1 3.2-2.3 7.6-2.4 11-.3 2.3 1.4 3.8 3.7 4.4 6.4 0 1.6-1 3-2.9 3zm-7-8.1c-3.3 0-6.1 2.3-6.9 5.4v.1h13.8c-.8-3.2-3.6-5.5-6.9-5.5zm-17.6 7.1l7.5 7.5c.3.3.4.6.4.9 0 .7-.6 1.3-1.3 1.3-.4 0-.7-.1-1-.4l-7.5-7.5-7.5 7.5c-.3.3-.6.4-.9.4-.7 0-1.3-.6-1.3-1.3 0-.4.1-.7.4-1l7.5-7.5-7.5-7.5c-.3-.3-.4-.6-.4-1 0-.7.6-1.3 1.3-1.3.4 0 .7.1.9.4l7.5 7.5 7.5-7.5c.3-.3.6-.4 1-.4.7 0 1.3.6 1.3 1.3 0 .4-.1.7-.4.9l-7.5 7.7z" fill="#FFF"/></svg>