<svg id="Layer_1" enable-background="new 0 0 513.241 513.241" height="512" viewBox="0 0 513.241 513.241" width="512" xmlns="http://www.w3.org/2000/svg"><path d="m469.693 42.448c-27.679-27.12-64.38-41.811-103.392-41.438-38.994.398-75.405 15.861-102.524 43.54l-79.823 81.47c-8.423 8.596-15.551 17.984-21.409 27.914-19.134 8.7-24.618 12.468-41.278 29.471l-79.822 81.469c-27.12 27.679-41.835 64.397-41.437 103.392.398 38.995 15.861 75.405 43.54 102.524 27.314 26.762 63.43 41.445 101.85 41.445.513 0 1.028-.003 1.542-.008 38.994-.398 75.405-15.861 102.524-43.54l79.823-81.47c8.365-8.537 15.453-17.855 21.288-27.71 19.119-8.303 24.438-12.364 41.4-29.676l79.822-81.469c27.12-27.679 41.835-64.397 41.437-103.392-.398-38.992-15.861-75.402-43.541-102.522zm-283.635 289.489c10.87 10.65 22.479 19.096 35.102 25.54l-44.363 45.278c-8.843 9.026-20.736 14.068-33.489 14.198-12.72.162-24.747-4.667-33.772-13.511-9.025-8.843-14.067-20.736-14.198-33.489-.13-12.753 4.668-24.747 13.551-33.813l46.556-47.877c7.214 15.895 17.416 30.744 30.613 43.674zm41.977 115.757c-21.511 21.955-50.42 34.22-81.402 34.537-30.957.309-60.135-11.356-82.091-32.868-21.955-21.511-34.22-50.42-34.537-81.402-.316-30.982 11.356-60.136 32.868-82.091l79.822-81.469c.685-.699 1.333-1.358 1.965-1.999-3.123 17.683-2.967 35.827.452 53.452l-57.692 59.332c-14.451 14.749-22.293 34.308-22.081 55.074s8.452 40.16 23.201 54.611c14.556 14.262 33.792 22.086 54.254 22.085.272 0 .548-.001.82-.004 20.766-.212 40.161-8.452 54.612-23.201l85.085-86.841c44.257-47.199 17.896-115.107-38.4-131.342 2.883-5.638 20.231-22.029 24.744-26.916 79.228 33.343 92.326 132.792 38.203 187.572zm13.584-211.362c16.476 6.198 31.395 21.217 33.379 40.182-18.731-1.958-35.587-21.889-36.951-41.616 2.06.733 3.257 1.283 3.572 1.434zm85.565-55.029c-10.34-10.13-22.299-18.695-35.276-25.363l44.537-45.456c8.843-9.025 20.736-14.067 33.489-14.198 12.728-.131 24.747 4.667 33.772 13.511 9.025 8.843 14.067 20.736 14.198 33.489.13 12.752-4.668 24.747-13.551 33.812l-46.556 47.876c-7.215-15.892-17.417-30.741-30.613-43.671zm123.184 46.067-79.822 81.469c-.685.699-1.333 1.359-1.966 2.002 3.124-17.684 2.968-35.83-.452-53.457l57.694-59.33c14.451-14.75 22.293-34.309 22.081-55.074-.212-20.766-8.452-40.16-23.201-54.611-14.749-14.452-34.297-22.282-55.074-22.081-20.766.212-40.161 8.452-54.612 23.201l-85.085 86.841c-43.632 44.397-18.457 119.548 39.404 129.643-3.265 7.039-20.503 22.905-25.863 28.732-13.415-5.348-25.155-13.162-36.418-24.198-21.955-21.511-34.22-50.42-34.537-81.402-.204-19.989 4.589-39.213 13.789-56.238.138-.249.279-.497.403-.753 4.993-9.077 11.247-17.518 18.675-25.099l79.823-81.47c21.511-21.955 50.42-34.22 81.402-34.537 30.981-.295 60.136 11.356 82.091 32.868 21.955 21.511 34.22 50.42 34.537 81.402.315 30.983-11.358 60.137-32.869 82.092z"/></svg>