<?xml version="1.0" encoding="iso-8859-1"?>
<!-- Generator: Adobe Illustrator 16.0.0, SVG Export Plug-In . SVG Version: 6.00 Build 0)  -->
<!DOCTYPE svg PUBLIC "-//W3C//DTD SVG 1.1//EN" "http://www.w3.org/Graphics/SVG/1.1/DTD/svg11.dtd">
<svg version="1.1" id="Capa_1" xmlns="http://www.w3.org/2000/svg" xmlns:xlink="http://www.w3.org/1999/xlink" x="0px" y="0px"
	 width="356.484px" height="356.484px" viewBox="0 0 356.484 356.484" style="enable-background:new 0 0 356.484 356.484;"
	 xml:space="preserve">
<g>
	<g>
		<path d="M293.984,7.23H62.5C28.037,7.23,0,35.268,0,69.731v142.78c0,34.463,28.037,62.5,62.5,62.5l147.443,0.001l70.581,70.58
			c2.392,2.393,5.588,3.662,8.842,3.662c1.61,0,3.234-0.312,4.78-0.953c4.671-1.934,7.717-6.49,7.717-11.547v-62.237
			c30.759-3.885,54.621-30.211,54.621-62.006V69.731C356.484,35.268,328.447,7.23,293.984,7.23z M331.484,212.512
			c0,20.678-16.822,37.5-37.5,37.5h-4.621c-6.903,0-12.5,5.598-12.5,12.5v44.064l-52.903-52.903
			c-2.344-2.345-5.522-3.661-8.839-3.661H62.5c-20.678,0-37.5-16.822-37.5-37.5V69.732c0-20.678,16.822-37.5,37.5-37.5h231.484
			c20.678,0,37.5,16.822,37.5,37.5V212.512z"/>
		<path d="M270.242,95.743h-184c-6.903,0-12.5,5.596-12.5,12.5c0,6.903,5.597,12.5,12.5,12.5h184c6.903,0,12.5-5.597,12.5-12.5
			C282.742,101.339,277.146,95.743,270.242,95.743z"/>
		<path d="M270.242,165.743h-184c-6.903,0-12.5,5.596-12.5,12.5s5.597,12.5,12.5,12.5h184c6.903,0,12.5-5.597,12.5-12.5
			S277.146,165.743,270.242,165.743z"/>
	</g>
</g>
<g>
</g>
<g>
</g>
<g>
</g>
<g>
</g>
<g>
</g>
<g>
</g>
<g>
</g>
<g>
</g>
<g>
</g>
<g>
</g>
<g>
</g>
<g>
</g>
<g>
</g>
<g>
</g>
<g>
</g>
</svg>
