<?xml version="1.0" encoding="utf-8"?><svg version="1.1" id="Layer_1" xmlns="http://www.w3.org/2000/svg" xmlns:xlink="http://www.w3.org/1999/xlink" x="0px" y="0px" viewBox="0 0 122.88 45.91" style="enable-background:new 0 0 122.88 45.91" xml:space="preserve"><style type="text/css">.st0{fill-rule:evenodd;clip-rule:evenodd;fill:#00ACD7;} .st1{fill:#00ACD7;}</style><g><path class="st0" d="M9.27,13.9c-0.24,0-0.3-0.12-0.18-0.3l1.26-1.62c0.12-0.18,0.42-0.3,0.66-0.3l21.36,0 c0.24,0,0.3,0.18,0.18,0.36l-1.02,1.56c-0.12,0.18-0.42,0.36-0.6,0.36L9.27,13.9L9.27,13.9z"/><path class="st0" d="M0.24,19.41c-0.24,0-0.3-0.12-0.18-0.3l1.26-1.62c0.12-0.18,0.42-0.3,0.66-0.3h27.28 c0.24,0,0.36,0.18,0.3,0.36l-0.48,1.44c-0.06,0.24-0.3,0.36-0.54,0.36L0.24,19.41L0.24,19.41z"/><path class="st0" d="M14.72,24.91c-0.24,0-0.3-0.18-0.18-0.36l0.84-1.5c0.12-0.18,0.36-0.36,0.6-0.36l11.97,0 c0.24,0,0.36,0.18,0.36,0.42l-0.12,1.44c0,0.24-0.24,0.42-0.42,0.42L14.72,24.91L14.72,24.91z"/><path class="st0" d="M76.82,12.82c-3.77,0.96-6.34,1.68-10.05,2.63c-0.9,0.24-0.96,0.3-1.74-0.6c-0.9-1.02-1.56-1.67-2.81-2.27 c-3.77-1.85-7.42-1.32-10.83,0.9c-4.07,2.63-6.16,6.52-6.1,11.37c0.06,4.79,3.35,8.73,8.08,9.39c4.07,0.54,7.48-0.9,10.17-3.95 c0.54-0.66,1.02-1.38,1.62-2.21c-2.15,0-4.85,0-11.55,0c-1.26,0-1.56-0.78-1.14-1.79c0.78-1.85,2.21-4.97,3.05-6.52 c0.18-0.36,0.6-0.96,1.5-0.96h21.78c-0.12,1.62-0.12,3.23-0.36,4.85c-0.66,4.31-2.27,8.26-4.91,11.73 c-4.31,5.68-9.93,9.21-17.05,10.17c-5.86,0.78-11.31-0.36-16.09-3.95c-4.43-3.35-6.94-7.78-7.6-13.28 c-0.78-6.52,1.14-12.38,5.09-17.53c4.25-5.56,9.87-9.09,16.75-10.35c5.62-1.02,11.01-0.36,15.85,2.93 c3.17,2.09,5.44,4.97,6.94,8.44C77.78,12.35,77.54,12.64,76.82,12.82L76.82,12.82L76.82,12.82z"/><path class="st1" d="M96.62,45.91c-5.44-0.12-10.41-1.68-14.6-5.26c-3.53-3.05-5.74-6.94-6.46-11.55 c-1.08-6.76,0.78-12.74,4.85-18.07c4.37-5.74,9.63-8.73,16.75-9.99c6.1-1.08,11.85-0.48,17.05,3.05c4.73,3.23,7.66,7.6,8.44,13.34 c1.02,8.08-1.32,14.66-6.88,20.28c-3.95,4.01-8.79,6.52-14.36,7.66C99.79,45.67,98.18,45.73,96.62,45.91L96.62,45.91L96.62,45.91z M110.86,21.74c-0.06-0.78-0.06-1.38-0.18-1.97c-1.08-5.92-6.52-9.27-12.21-7.96c-5.56,1.26-9.15,4.79-10.47,10.41 c-1.08,4.67,1.2,9.39,5.5,11.31c3.29,1.44,6.58,1.26,9.75-0.36C107.99,30.71,110.56,26.88,110.86,21.74L110.86,21.74z"/></g></svg>