
<svg xmlns="http://www.w3.org/2000/svg" xmlns:xlink="http://www.w3.org/1999/xlink" width="500" zoomAndPan="magnify" viewBox="0 0 375 374.999991" height="500" preserveAspectRatio="xMidYMid meet" version="1.0"><defs><g/></defs><rect x="-37.5" width="450" fill="#ffffff" y="-37.499999" height="449.999989" fill-opacity="1"/><rect x="-37.5" width="450" fill="#000000" y="-37.499999" height="449.999989" fill-opacity="1"/><g fill="#ffffff" fill-opacity="1"><g transform="translate(97.499998, 162.925302)"><g><path d="M 22.078125 -16.734375 L 22.078125 -6.953125 L 13.984375 -6.953125 L 13.984375 -16.734375 L 4.796875 -16.734375 L 4.796875 -24.421875 L 13.984375 -24.421875 L 13.984375 -34.203125 L 22.078125 -34.203125 L 22.078125 -24.421875 L 31.203125 -24.421875 L 31.203125 -16.734375 Z M 22.078125 -16.734375 "/></g></g></g><g fill="#ffffff" fill-opacity="1"><g transform="translate(133.499961, 162.925302)"><g><path d="M 24.125 -42 L 24.125 -6.296875 L 31.265625 -6.296875 L 31.265625 1.5 L 7.140625 1.5 L 7.140625 -6.296875 L 15.71875 -6.296875 L 15.71875 -32.09375 L 10.078125 -27.84375 L 8.875 -26.9375 L 7.984375 -28.140625 L 5.046875 -32.15625 L 4.140625 -33.421875 L 5.34375 -34.265625 L 17.765625 -43.203125 L 18.1875 -43.5 L 24.125 -43.5 Z M 24.125 -42 "/></g></g></g><g fill="#ffffff" fill-opacity="1"><g transform="translate(169.499924, 162.925302)"><g><path d="M 18.0625 -44.21875 C 20.625 -44.21875 22.921875 -43.660156 24.953125 -42.546875 C 25.953125 -42.023438 26.875 -41.363281 27.71875 -40.5625 C 28.5625 -39.757812 29.320312 -38.835938 30 -37.796875 C 31.28125 -35.796875 32.257812 -33.359375 32.9375 -30.484375 C 33.582031 -27.679688 33.90625 -24.5 33.90625 -20.9375 C 33.90625 -13.65625 32.582031 -8.035156 29.9375 -4.078125 C 27.132812 0.117188 23.132812 2.21875 17.9375 2.21875 C 12.695312 2.21875 8.71875 0.0976562 6 -4.140625 C 4.675781 -6.222656 3.691406 -8.660156 3.046875 -11.453125 C 2.410156 -14.253906 2.09375 -17.457031 2.09375 -21.0625 C 2.09375 -28.34375 3.414062 -33.960938 6.0625 -37.921875 C 8.863281 -42.117188 12.863281 -44.21875 18.0625 -44.21875 Z M 18 -36.296875 C 17.875 -36.296875 17.742188 -36.296875 17.609375 -36.296875 C 17.472656 -36.296875 17.34375 -36.285156 17.21875 -36.265625 C 17.101562 -36.242188 16.972656 -36.222656 16.828125 -36.203125 C 16.691406 -36.191406 16.5625 -36.164062 16.4375 -36.125 C 16.320312 -36.082031 16.210938 -36.050781 16.109375 -36.03125 C 16.003906 -36.007812 15.890625 -35.96875 15.765625 -35.90625 C 15.648438 -35.84375 15.539062 -35.789062 15.4375 -35.75 C 15.34375 -35.71875 15.238281 -35.660156 15.125 -35.578125 C 14.71875 -35.378906 14.332031 -35.097656 13.96875 -34.734375 C 13.613281 -34.378906 13.273438 -33.921875 12.953125 -33.359375 C 12.273438 -32.203125 11.757812 -30.644531 11.40625 -28.6875 C 11 -26.6875 10.796875 -24.164062 10.796875 -21.125 C 10.796875 -15.800781 11.5 -11.820312 12.90625 -9.1875 C 14.144531 -6.863281 15.84375 -5.703125 18 -5.703125 C 18.5625 -5.703125 19.070312 -5.757812 19.53125 -5.875 C 19.988281 -6 20.4375 -6.179688 20.875 -6.421875 C 21.71875 -6.859375 22.441406 -7.597656 23.046875 -8.640625 C 23.398438 -9.203125 23.707031 -9.867188 23.96875 -10.640625 C 24.226562 -11.421875 24.4375 -12.3125 24.59375 -13.3125 C 25 -15.3125 25.203125 -17.832031 25.203125 -20.875 C 25.203125 -26.195312 24.5 -30.175781 23.09375 -32.8125 C 21.851562 -35.132812 20.15625 -36.296875 18 -36.296875 Z M 18 -36.296875 "/></g></g></g><g fill="#ffffff" fill-opacity="1"><g transform="translate(205.499888, 162.925302)"><g><path d="M 18.0625 -44.21875 C 20.625 -44.21875 22.921875 -43.660156 24.953125 -42.546875 C 25.953125 -42.023438 26.875 -41.363281 27.71875 -40.5625 C 28.5625 -39.757812 29.320312 -38.835938 30 -37.796875 C 31.28125 -35.796875 32.257812 -33.359375 32.9375 -30.484375 C 33.582031 -27.679688 33.90625 -24.5 33.90625 -20.9375 C 33.90625 -13.65625 32.582031 -8.035156 29.9375 -4.078125 C 27.132812 0.117188 23.132812 2.21875 17.9375 2.21875 C 12.695312 2.21875 8.71875 0.0976562 6 -4.140625 C 4.675781 -6.222656 3.691406 -8.660156 3.046875 -11.453125 C 2.410156 -14.253906 2.09375 -17.457031 2.09375 -21.0625 C 2.09375 -28.34375 3.414062 -33.960938 6.0625 -37.921875 C 8.863281 -42.117188 12.863281 -44.21875 18.0625 -44.21875 Z M 18 -36.296875 C 17.875 -36.296875 17.742188 -36.296875 17.609375 -36.296875 C 17.472656 -36.296875 17.34375 -36.285156 17.21875 -36.265625 C 17.101562 -36.242188 16.972656 -36.222656 16.828125 -36.203125 C 16.691406 -36.191406 16.5625 -36.164062 16.4375 -36.125 C 16.320312 -36.082031 16.210938 -36.050781 16.109375 -36.03125 C 16.003906 -36.007812 15.890625 -35.96875 15.765625 -35.90625 C 15.648438 -35.84375 15.539062 -35.789062 15.4375 -35.75 C 15.34375 -35.71875 15.238281 -35.660156 15.125 -35.578125 C 14.71875 -35.378906 14.332031 -35.097656 13.96875 -34.734375 C 13.613281 -34.378906 13.273438 -33.921875 12.953125 -33.359375 C 12.273438 -32.203125 11.757812 -30.644531 11.40625 -28.6875 C 11 -26.6875 10.796875 -24.164062 10.796875 -21.125 C 10.796875 -15.800781 11.5 -11.820312 12.90625 -9.1875 C 14.144531 -6.863281 15.84375 -5.703125 18 -5.703125 C 18.5625 -5.703125 19.070312 -5.757812 19.53125 -5.875 C 19.988281 -6 20.4375 -6.179688 20.875 -6.421875 C 21.71875 -6.859375 22.441406 -7.597656 23.046875 -8.640625 C 23.398438 -9.203125 23.707031 -9.867188 23.96875 -10.640625 C 24.226562 -11.421875 24.4375 -12.3125 24.59375 -13.3125 C 25 -15.3125 25.203125 -17.832031 25.203125 -20.875 C 25.203125 -26.195312 24.5 -30.175781 23.09375 -32.8125 C 21.851562 -35.132812 20.15625 -36.296875 18 -36.296875 Z M 18 -36.296875 "/></g></g></g><g fill="#ffffff" fill-opacity="1"><g transform="translate(241.499851, 162.925302)"><g><path d="M 18.0625 -44.21875 C 20.625 -44.21875 22.921875 -43.660156 24.953125 -42.546875 C 25.953125 -42.023438 26.875 -41.363281 27.71875 -40.5625 C 28.5625 -39.757812 29.320312 -38.835938 30 -37.796875 C 31.28125 -35.796875 32.257812 -33.359375 32.9375 -30.484375 C 33.582031 -27.679688 33.90625 -24.5 33.90625 -20.9375 C 33.90625 -13.65625 32.582031 -8.035156 29.9375 -4.078125 C 27.132812 0.117188 23.132812 2.21875 17.9375 2.21875 C 12.695312 2.21875 8.71875 0.0976562 6 -4.140625 C 4.675781 -6.222656 3.691406 -8.660156 3.046875 -11.453125 C 2.410156 -14.253906 2.09375 -17.457031 2.09375 -21.0625 C 2.09375 -28.34375 3.414062 -33.960938 6.0625 -37.921875 C 8.863281 -42.117188 12.863281 -44.21875 18.0625 -44.21875 Z M 18 -36.296875 C 17.875 -36.296875 17.742188 -36.296875 17.609375 -36.296875 C 17.472656 -36.296875 17.34375 -36.285156 17.21875 -36.265625 C 17.101562 -36.242188 16.972656 -36.222656 16.828125 -36.203125 C 16.691406 -36.191406 16.5625 -36.164062 16.4375 -36.125 C 16.320312 -36.082031 16.210938 -36.050781 16.109375 -36.03125 C 16.003906 -36.007812 15.890625 -35.96875 15.765625 -35.90625 C 15.648438 -35.84375 15.539062 -35.789062 15.4375 -35.75 C 15.34375 -35.71875 15.238281 -35.660156 15.125 -35.578125 C 14.71875 -35.378906 14.332031 -35.097656 13.96875 -34.734375 C 13.613281 -34.378906 13.273438 -33.921875 12.953125 -33.359375 C 12.273438 -32.203125 11.757812 -30.644531 11.40625 -28.6875 C 11 -26.6875 10.796875 -24.164062 10.796875 -21.125 C 10.796875 -15.800781 11.5 -11.820312 12.90625 -9.1875 C 14.144531 -6.863281 15.84375 -5.703125 18 -5.703125 C 18.5625 -5.703125 19.070312 -5.757812 19.53125 -5.875 C 19.988281 -6 20.4375 -6.179688 20.875 -6.421875 C 21.71875 -6.859375 22.441406 -7.597656 23.046875 -8.640625 C 23.398438 -9.203125 23.707031 -9.867188 23.96875 -10.640625 C 24.226562 -11.421875 24.4375 -12.3125 24.59375 -13.3125 C 25 -15.3125 25.203125 -17.832031 25.203125 -20.875 C 25.203125 -26.195312 24.5 -30.175781 23.09375 -32.8125 C 21.851562 -35.132812 20.15625 -36.296875 18 -36.296875 Z M 18 -36.296875 "/></g></g></g><g fill="#ffffff" fill-opacity="1"><g transform="translate(77.906249, 221.425298)"><g><path d="M 5.703125 -9.484375 C 6.378906 -8.921875 7.085938 -8.414062 7.828125 -7.96875 C 8.566406 -7.53125 9.359375 -7.132812 10.203125 -6.78125 C 11.804688 -6.101562 13.707031 -5.765625 15.90625 -5.765625 C 17.21875 -5.765625 18.363281 -5.894531 19.34375 -6.15625 C 20.332031 -6.414062 21.164062 -6.785156 21.84375 -7.265625 C 23.125 -8.179688 23.765625 -9.398438 23.765625 -10.921875 C 23.765625 -11.035156 23.765625 -11.160156 23.765625 -11.296875 C 23.765625 -11.441406 23.753906 -11.570312 23.734375 -11.6875 C 23.710938 -11.8125 23.691406 -11.941406 23.671875 -12.078125 C 23.648438 -12.222656 23.617188 -12.34375 23.578125 -12.4375 C 23.535156 -12.539062 23.5 -12.65625 23.46875 -12.78125 C 23.300781 -13.257812 22.957031 -13.738281 22.4375 -14.21875 C 21.84375 -14.78125 20.984375 -15.359375 19.859375 -15.953125 C 18.617188 -16.597656 17.039062 -17.300781 15.125 -18.0625 C 12.882812 -18.894531 11.003906 -19.753906 9.484375 -20.640625 C 7.835938 -21.515625 6.5 -22.492188 5.46875 -23.578125 C 5.101562 -23.984375 4.78125 -24.382812 4.5 -24.78125 C 4.21875 -25.175781 3.957031 -25.59375 3.71875 -26.03125 C 3.476562 -26.476562 3.28125 -26.921875 3.125 -27.359375 C 2.6875 -28.722656 2.46875 -30.242188 2.46875 -31.921875 C 2.46875 -33.640625 2.828125 -35.257812 3.546875 -36.78125 C 4.265625 -38.300781 5.320312 -39.617188 6.71875 -40.734375 C 8.082031 -41.816406 9.742188 -42.675781 11.703125 -43.3125 C 13.617188 -43.914062 15.800781 -44.21875 18.25 -44.21875 C 20.84375 -44.21875 23.179688 -43.957031 25.265625 -43.4375 C 27.335938 -42.914062 29.375 -42.175781 31.375 -41.21875 L 32.640625 -40.5625 L 32.109375 -39.234375 L 30 -34.375 L 29.34375 -32.8125 L 27.84375 -33.65625 C 27.445312 -33.9375 27.015625 -34.175781 26.546875 -34.375 C 26.085938 -34.582031 25.597656 -34.785156 25.078125 -34.984375 C 24.554688 -35.179688 24 -35.378906 23.40625 -35.578125 C 21.71875 -36.054688 19.957031 -36.296875 18.125 -36.296875 C 16.925781 -36.296875 15.875 -36.1875 14.96875 -35.96875 C 14.070312 -35.75 13.320312 -35.441406 12.71875 -35.046875 C 12.320312 -34.765625 12.003906 -34.484375 11.765625 -34.203125 C 11.523438 -33.921875 11.351562 -33.617188 11.25 -33.296875 C 11.15625 -32.972656 11.109375 -32.613281 11.109375 -32.21875 C 11.109375 -31.582031 11.1875 -31.039062 11.34375 -30.59375 C 11.457031 -30.195312 11.757812 -29.800781 12.25 -29.40625 C 12.519531 -29.164062 12.851562 -28.914062 13.25 -28.65625 C 13.65625 -28.394531 14.140625 -28.125 14.703125 -27.84375 C 14.984375 -27.71875 15.28125 -27.578125 15.59375 -27.421875 C 15.914062 -27.265625 16.265625 -27.101562 16.640625 -26.9375 C 17.023438 -26.78125 17.4375 -26.617188 17.875 -26.453125 C 18.320312 -26.296875 18.785156 -26.117188 19.265625 -25.921875 C 21.660156 -25.035156 23.679688 -24.113281 25.328125 -23.15625 C 25.679688 -22.957031 26.019531 -22.757812 26.34375 -22.5625 C 26.664062 -22.363281 26.960938 -22.148438 27.234375 -21.921875 C 27.515625 -21.703125 27.796875 -21.484375 28.078125 -21.265625 C 28.359375 -21.046875 28.617188 -20.828125 28.859375 -20.609375 C 29.097656 -20.390625 29.316406 -20.160156 29.515625 -19.921875 C 30.640625 -18.722656 31.441406 -17.421875 31.921875 -16.015625 C 32.398438 -14.660156 32.640625 -13.179688 32.640625 -11.578125 C 32.640625 -9.378906 32.203125 -7.421875 31.328125 -5.703125 C 30.484375 -3.984375 29.300781 -2.519531 27.78125 -1.3125 C 26.300781 -0.113281 24.519531 0.78125 22.4375 1.375 C 20.4375 1.9375 18.257812 2.21875 15.90625 2.21875 C 12.820312 2.21875 10 1.796875 7.4375 0.953125 C 4.882812 0.117188 2.726562 -0.976562 0.96875 -2.34375 L -0.125 -3.1875 L 0.609375 -4.3125 L 3.484375 -9.125 L 4.375 -10.625 Z M 5.703125 -9.484375 "/></g></g></g><g fill="#ffffff" fill-opacity="1"><g transform="translate(111.986215, 221.425298)"><g><path d="M 26.453125 -15.59375 C 26.453125 -17 26.234375 -18.320312 25.796875 -19.5625 C 25.359375 -20.757812 24.757812 -21.816406 24 -22.734375 C 23.71875 -23.015625 23.4375 -23.285156 23.15625 -23.546875 C 22.875 -23.804688 22.570312 -24.046875 22.25 -24.265625 C 21.9375 -24.484375 21.597656 -24.675781 21.234375 -24.84375 C 20.753906 -25.125 20.234375 -25.320312 19.671875 -25.4375 C 19.117188 -25.5625 18.539062 -25.625 17.9375 -25.625 C 15.257812 -25.625 13.179688 -24.765625 11.703125 -23.046875 C 10.179688 -21.242188 9.421875 -18.800781 9.421875 -15.71875 C 9.421875 -14.320312 9.640625 -13.003906 10.078125 -11.765625 C 10.160156 -11.554688 10.238281 -11.351562 10.3125 -11.15625 C 10.394531 -10.957031 10.484375 -10.757812 10.578125 -10.5625 C 10.679688 -10.363281 10.785156 -10.171875 10.890625 -9.984375 C 10.992188 -9.804688 11.09375 -9.632812 11.1875 -9.46875 C 11.289062 -9.3125 11.398438 -9.144531 11.515625 -8.96875 C 11.640625 -8.789062 11.78125 -8.640625 11.9375 -8.515625 C 12.175781 -8.203125 12.4375 -7.914062 12.71875 -7.65625 C 13 -7.394531 13.296875 -7.148438 13.609375 -6.921875 C 13.929688 -6.703125 14.273438 -6.515625 14.640625 -6.359375 C 15.117188 -6.078125 15.640625 -5.875 16.203125 -5.75 C 16.765625 -5.632812 17.34375 -5.578125 17.9375 -5.578125 C 19.300781 -5.578125 20.503906 -5.816406 21.546875 -6.296875 C 22.054688 -6.535156 22.519531 -6.816406 22.9375 -7.140625 C 23.363281 -7.460938 23.757812 -7.84375 24.125 -8.28125 C 24.882812 -9.125 25.460938 -10.164062 25.859375 -11.40625 C 26.253906 -12.644531 26.453125 -14.039062 26.453125 -15.59375 Z M 0.90625 -15.59375 C 0.90625 -18.320312 1.34375 -20.785156 2.21875 -22.984375 C 3.101562 -25.179688 4.300781 -27.050781 5.8125 -28.59375 C 7.332031 -30.132812 9.132812 -31.320312 11.21875 -32.15625 C 13.300781 -33 15.539062 -33.421875 17.9375 -33.421875 C 18.539062 -33.421875 19.117188 -33.390625 19.671875 -33.328125 C 20.234375 -33.265625 20.796875 -33.179688 21.359375 -33.078125 C 21.921875 -32.984375 22.46875 -32.851562 23 -32.6875 C 23.539062 -32.53125 24.070312 -32.351562 24.59375 -32.15625 C 25.632812 -31.757812 26.601562 -31.257812 27.5 -30.65625 C 28.40625 -30.0625 29.257812 -29.382812 30.0625 -28.625 C 31.582031 -27.0625 32.78125 -25.179688 33.65625 -22.984375 C 34.539062 -20.816406 34.984375 -18.394531 34.984375 -15.71875 C 34.984375 -13.039062 34.5625 -10.601562 33.71875 -8.40625 C 32.84375 -6.195312 31.644531 -4.316406 30.125 -2.765625 C 29.363281 -1.960938 28.519531 -1.25 27.59375 -0.625 C 26.675781 -0.0078125 25.695312 0.515625 24.65625 0.953125 C 22.582031 1.796875 20.34375 2.21875 17.9375 2.21875 C 16.738281 2.21875 15.566406 2.109375 14.421875 1.890625 C 13.285156 1.671875 12.195312 1.34375 11.15625 0.90625 C 9.082031 0.0195312 7.285156 -1.207031 5.765625 -2.78125 C 4.242188 -4.363281 3.039062 -6.253906 2.15625 -8.453125 C 1.320312 -10.617188 0.90625 -13 0.90625 -15.59375 Z M 0.90625 -15.59375 "/></g></g></g><g fill="#ffffff" fill-opacity="1"><g transform="translate(147.866176, 221.425298)"><g><path d="M 32.703125 1.796875 C 31.617188 1.796875 30.625 1.6875 29.71875 1.46875 C 28.820312 1.25 28.015625 0.898438 27.296875 0.421875 C 26.492188 -0.140625 25.832031 -0.820312 25.3125 -1.625 C 24.195312 -0.695312 22.976562 0.0820312 21.65625 0.71875 C 19.613281 1.71875 17.394531 2.21875 15 2.21875 C 13.476562 2.21875 12.019531 1.976562 10.625 1.5 C 9.144531 1.019531 7.832031 0.242188 6.6875 -0.828125 C 5.550781 -1.910156 4.640625 -3.296875 3.953125 -4.984375 C 3.316406 -6.617188 3 -8.597656 3 -10.921875 L 3 -32.703125 L 11.40625 -32.703125 L 11.40625 -11.640625 C 11.40625 -9.554688 11.800781 -7.992188 12.59375 -6.953125 C 13.320312 -6.035156 14.460938 -5.578125 16.015625 -5.578125 C 17.492188 -5.578125 18.894531 -5.859375 20.21875 -6.421875 C 20.78125 -6.703125 21.335938 -7.007812 21.890625 -7.34375 C 22.453125 -7.6875 22.957031 -8.039062 23.40625 -8.40625 L 23.40625 -32.703125 L 31.796875 -32.703125 L 31.796875 -8.09375 C 31.796875 -7.375 31.859375 -6.835938 31.984375 -6.484375 C 32.097656 -6.160156 32.238281 -5.9375 32.40625 -5.8125 C 32.5625 -5.65625 32.738281 -5.554688 32.9375 -5.515625 C 33.21875 -5.441406 33.519531 -5.40625 33.84375 -5.40625 L 35.8125 -5.40625 L 35.28125 -3.484375 L 34.140625 0.71875 L 33.84375 1.796875 Z M 32.703125 1.796875 "/></g></g></g><g fill="#ffffff" fill-opacity="1"><g transform="translate(184.106145, 221.425298)"><g><path d="M 21.125 -24.59375 C 20.5625 -24.832031 19.859375 -24.953125 19.015625 -24.953125 C 18.578125 -24.953125 18.140625 -24.898438 17.703125 -24.796875 C 17.265625 -24.703125 16.820312 -24.554688 16.375 -24.359375 C 15.5 -23.992188 14.738281 -23.414062 14.09375 -22.625 C 13.738281 -22.21875 13.421875 -21.742188 13.140625 -21.203125 C 12.859375 -20.671875 12.597656 -20.082031 12.359375 -19.4375 C 11.921875 -18.082031 11.703125 -16.460938 11.703125 -14.578125 L 11.703125 1.5 L 3.296875 1.5 L 3.296875 -32.703125 L 11.515625 -32.703125 L 11.515625 -29.765625 C 11.878906 -30.117188 12.257812 -30.457031 12.65625 -30.78125 C 13.582031 -31.582031 14.664062 -32.222656 15.90625 -32.703125 C 16.539062 -32.941406 17.195312 -33.117188 17.875 -33.234375 C 18.5625 -33.359375 19.285156 -33.421875 20.046875 -33.421875 C 20.679688 -33.421875 21.316406 -33.378906 21.953125 -33.296875 C 22.640625 -33.253906 23.242188 -33.15625 23.765625 -33 L 25.203125 -32.578125 L 24.78125 -31.140625 L 23.15625 -25.5625 L 22.6875 -23.9375 Z M 21.125 -24.59375 "/></g></g></g><g fill="#ffffff" fill-opacity="1"><g transform="translate(208.046119, 221.425298)"><g><path d="M 24.0625 -24.125 C 23.695312 -24.320312 23.34375 -24.488281 23 -24.625 C 22.664062 -24.769531 22.335938 -24.890625 22.015625 -24.984375 C 21.703125 -25.085938 21.40625 -25.179688 21.125 -25.265625 C 20.675781 -25.378906 20.203125 -25.46875 19.703125 -25.53125 C 19.203125 -25.59375 18.675781 -25.625 18.125 -25.625 C 16.914062 -25.625 15.796875 -25.398438 14.765625 -24.953125 C 13.765625 -24.515625 12.90625 -23.894531 12.1875 -23.09375 C 11.425781 -22.257812 10.820312 -21.242188 10.375 -20.046875 C 10.175781 -19.398438 10.015625 -18.726562 9.890625 -18.03125 C 9.773438 -17.332031 9.71875 -16.5625 9.71875 -15.71875 C 9.71875 -14.238281 9.914062 -12.878906 10.3125 -11.640625 C 10.71875 -10.398438 11.300781 -9.320312 12.0625 -8.40625 C 12.738281 -7.519531 13.554688 -6.816406 14.515625 -6.296875 C 15.472656 -5.816406 16.554688 -5.578125 17.765625 -5.578125 C 19.117188 -5.578125 20.273438 -5.71875 21.234375 -6 C 22.203125 -6.28125 23.265625 -6.738281 24.421875 -7.375 L 25.921875 -8.21875 L 26.515625 -6.59375 L 28.203125 -2.046875 L 28.6875 -0.78125 L 27.546875 -0.1875 C 26.140625 0.539062 24.617188 1.125 22.984375 1.5625 C 21.335938 2 19.476562 2.21875 17.40625 2.21875 C 17 2.21875 16.59375 2.207031 16.1875 2.1875 C 15.789062 2.164062 15.398438 2.125 15.015625 2.0625 C 14.640625 2.007812 14.269531 1.953125 13.90625 1.890625 C 13.550781 1.828125 13.191406 1.742188 12.828125 1.640625 C 12.472656 1.546875 12.113281 1.4375 11.75 1.3125 C 11.394531 1.195312 11.054688 1.0625 10.734375 0.90625 C 8.734375 0.0195312 7.015625 -1.21875 5.578125 -2.8125 C 4.179688 -4.414062 3.101562 -6.316406 2.34375 -8.515625 C 1.582031 -10.679688 1.203125 -13.039062 1.203125 -15.59375 C 1.203125 -18 1.582031 -20.28125 2.34375 -22.4375 C 3.101562 -24.601562 4.203125 -26.503906 5.640625 -28.140625 C 7.117188 -29.773438 8.878906 -31.054688 10.921875 -31.984375 C 11.960938 -32.460938 13.0625 -32.820312 14.21875 -33.0625 C 15.375 -33.300781 16.570312 -33.421875 17.8125 -33.421875 C 18.78125 -33.421875 19.679688 -33.378906 20.515625 -33.296875 C 21.359375 -33.222656 22.140625 -33.082031 22.859375 -32.875 C 24.253906 -32.5625 25.632812 -32.082031 27 -31.4375 L 28.203125 -30.84375 L 27.78125 -29.578125 L 26.15625 -25.015625 L 25.5625 -23.40625 Z M 24.0625 -24.125 "/></g></g></g><g fill="#ffffff" fill-opacity="1"><g transform="translate(236.36609, 221.425298)"><g><path d="M 10.015625 -11.875 C 10.460938 -10.113281 11.222656 -8.695312 12.296875 -7.625 C 13.703125 -6.257812 15.582031 -5.578125 17.9375 -5.578125 C 18.5 -5.578125 19.039062 -5.597656 19.5625 -5.640625 C 20.082031 -5.679688 20.582031 -5.738281 21.0625 -5.8125 C 21.539062 -5.894531 22 -6 22.4375 -6.125 C 22.875 -6.238281 23.3125 -6.363281 23.75 -6.5 C 24.195312 -6.644531 24.628906 -6.796875 25.046875 -6.953125 C 25.472656 -7.117188 25.90625 -7.300781 26.34375 -7.5 L 27.90625 -8.21875 L 28.375 -6.546875 L 29.640625 -1.921875 L 30 -0.65625 L 28.859375 -0.125 C 27.296875 0.59375 25.554688 1.15625 23.640625 1.5625 C 22.679688 1.800781 21.671875 1.96875 20.609375 2.0625 C 19.546875 2.164062 18.4375 2.21875 17.28125 2.21875 C 14.84375 2.21875 12.625 1.816406 10.625 1.015625 C 8.625 0.179688 6.921875 -1.015625 5.515625 -2.578125 C 4.117188 -4.097656 3.039062 -5.976562 2.28125 -8.21875 C 1.5625 -10.375 1.203125 -12.832031 1.203125 -15.59375 C 1.203125 -18.070312 1.5625 -20.394531 2.28125 -22.5625 C 2.675781 -23.644531 3.132812 -24.664062 3.65625 -25.625 C 4.175781 -26.582031 4.773438 -27.460938 5.453125 -28.265625 C 6.816406 -29.859375 8.457031 -31.117188 10.375 -32.046875 C 12.300781 -32.960938 14.441406 -33.421875 16.796875 -33.421875 C 17.597656 -33.421875 18.367188 -33.367188 19.109375 -33.265625 C 19.847656 -33.171875 20.566406 -33.03125 21.265625 -32.84375 C 21.960938 -32.664062 22.632812 -32.4375 23.28125 -32.15625 C 24.238281 -31.71875 25.109375 -31.207031 25.890625 -30.625 C 26.671875 -30.050781 27.378906 -29.382812 28.015625 -28.625 C 29.253906 -27.144531 30.195312 -25.441406 30.84375 -23.515625 C 31.125 -22.554688 31.34375 -21.566406 31.5 -20.546875 C 31.65625 -19.523438 31.734375 -18.492188 31.734375 -17.453125 C 31.734375 -17.179688 31.734375 -16.90625 31.734375 -16.625 C 31.734375 -16.34375 31.722656 -16.050781 31.703125 -15.75 C 31.691406 -15.445312 31.6875 -15.15625 31.6875 -14.875 C 31.6875 -14.59375 31.675781 -14.320312 31.65625 -14.0625 C 31.632812 -13.8125 31.601562 -13.546875 31.5625 -13.265625 L 31.4375 -11.875 Z M 16.6875 -25.734375 C 14.757812 -25.734375 13.195312 -25.09375 12 -23.8125 C 11.519531 -23.300781 11.097656 -22.664062 10.734375 -21.90625 C 10.378906 -21.144531 10.101562 -20.265625 9.90625 -19.265625 L 23.703125 -19.265625 C 23.503906 -21.179688 22.90625 -22.679688 21.90625 -23.765625 C 20.664062 -25.078125 18.925781 -25.734375 16.6875 -25.734375 Z M 16.6875 -25.734375 "/></g></g></g><g fill="#ffffff" fill-opacity="1"><g transform="translate(269.006057, 221.425298)"><g><path d="M 5.40625 -8.15625 C 6.28125 -7.351562 7.414062 -6.710938 8.8125 -6.234375 C 10.21875 -5.710938 11.738281 -5.453125 13.375 -5.453125 C 15.332031 -5.453125 16.753906 -5.734375 17.640625 -6.296875 C 18.316406 -6.773438 18.65625 -7.316406 18.65625 -7.921875 C 18.65625 -8.316406 18.578125 -8.675781 18.421875 -9 C 18.296875 -9.320312 18.054688 -9.640625 17.703125 -9.953125 C 17.222656 -10.359375 16.539062 -10.757812 15.65625 -11.15625 C 15.414062 -11.238281 15.15625 -11.335938 14.875 -11.453125 C 14.59375 -11.578125 14.289062 -11.695312 13.96875 -11.8125 C 13.65625 -11.9375 13.328125 -12.066406 12.984375 -12.203125 C 12.648438 -12.347656 12.28125 -12.476562 11.875 -12.59375 C 10.832031 -12.957031 9.878906 -13.335938 9.015625 -13.734375 C 8.160156 -14.140625 7.375 -14.570312 6.65625 -15.03125 C 5.9375 -15.488281 5.296875 -15.976562 4.734375 -16.5 C 3.859375 -17.34375 3.195312 -18.34375 2.75 -19.5 C 2.3125 -20.65625 2.09375 -21.9375 2.09375 -23.34375 C 2.09375 -24.78125 2.414062 -26.140625 3.0625 -27.421875 C 3.300781 -27.816406 3.5625 -28.203125 3.84375 -28.578125 C 4.125 -28.960938 4.421875 -29.328125 4.734375 -29.671875 C 5.054688 -30.015625 5.414062 -30.320312 5.8125 -30.59375 C 6.976562 -31.519531 8.378906 -32.222656 10.015625 -32.703125 C 11.617188 -33.179688 13.441406 -33.421875 15.484375 -33.421875 C 17.640625 -33.421875 19.554688 -33.203125 21.234375 -32.765625 C 22.078125 -32.523438 22.867188 -32.265625 23.609375 -31.984375 C 24.347656 -31.703125 25.039062 -31.378906 25.6875 -31.015625 L 26.875 -30.421875 L 26.453125 -29.21875 L 24.953125 -24.78125 L 24.359375 -23.046875 L 22.734375 -23.9375 C 21.773438 -24.539062 20.675781 -25.019531 19.4375 -25.375 C 18.15625 -25.738281 16.753906 -25.921875 15.234375 -25.921875 C 14.640625 -25.921875 14.09375 -25.878906 13.59375 -25.796875 C 13.09375 -25.722656 12.660156 -25.613281 12.296875 -25.46875 C 11.941406 -25.332031 11.644531 -25.160156 11.40625 -24.953125 C 11 -24.679688 10.722656 -24.414062 10.578125 -24.15625 C 10.441406 -23.894531 10.375 -23.644531 10.375 -23.40625 C 10.375 -23.125 10.414062 -22.882812 10.5 -22.6875 C 10.582031 -22.519531 10.765625 -22.335938 11.046875 -22.140625 C 11.441406 -21.859375 11.976562 -21.554688 12.65625 -21.234375 C 13.0625 -21.078125 13.492188 -20.90625 13.953125 -20.71875 C 14.410156 -20.539062 14.941406 -20.351562 15.546875 -20.15625 C 16.054688 -19.957031 16.539062 -19.765625 17 -19.578125 C 17.46875 -19.398438 17.921875 -19.222656 18.359375 -19.046875 C 18.796875 -18.867188 19.203125 -18.6875 19.578125 -18.5 C 19.960938 -18.320312 20.335938 -18.15625 20.703125 -18 C 22.222656 -17.195312 23.460938 -16.335938 24.421875 -15.421875 C 25.421875 -14.421875 26.117188 -13.320312 26.515625 -12.125 C 26.960938 -10.957031 27.1875 -9.695312 27.1875 -8.34375 C 27.1875 -6.695312 26.820312 -5.195312 26.09375 -3.84375 C 25.375 -2.519531 24.394531 -1.398438 23.15625 -0.484375 C 22.519531 -0.0351562 21.832031 0.351562 21.09375 0.6875 C 20.351562 1.03125 19.5625 1.320312 18.71875 1.5625 C 17.039062 2 15.203125 2.21875 13.203125 2.21875 C 10.640625 2.21875 8.335938 1.898438 6.296875 1.265625 C 4.253906 0.578125 2.554688 -0.28125 1.203125 -1.3125 L 0.1875 -2.09375 L 0.78125 -3.1875 L 3.0625 -7.6875 L 3.90625 -9.421875 Z M 5.40625 -8.15625 "/></g></g></g></svg>