
<svg xmlns="http://www.w3.org/2000/svg" xmlns:xlink="http://www.w3.org/1999/xlink" width="500" zoomAndPan="magnify" viewBox="0 0 375 374.999991" height="500" preserveAspectRatio="xMidYMid meet" version="1.0"><defs><g/></defs><rect x="-37.5" width="450" fill="#ffffff" y="-37.499999" height="449.999989" fill-opacity="1"/><rect x="-37.5" width="450" fill="#000000" y="-37.499999" height="449.999989" fill-opacity="1"/><g fill="#ffffff" fill-opacity="1"><g transform="translate(61.5, 208.499986)"><g><path d="M 16.734375 0.59375 C 12.859375 0.59375 9.769531 -0.191406 7.46875 -1.765625 C 5.164062 -3.347656 3.835938 -5.578125 3.484375 -8.453125 L 11.15625 -8.453125 C 11.394531 -7.421875 12.015625 -6.613281 13.015625 -6.03125 C 14.015625 -5.445312 15.253906 -5.15625 16.734375 -5.15625 L 19.140625 -5.15625 C 21.015625 -5.15625 22.460938 -5.523438 23.484375 -6.265625 C 24.503906 -7.003906 25.015625 -8.015625 25.015625 -9.296875 C 25.015625 -11.492188 23.316406 -12.832031 19.921875 -13.3125 L 15.234375 -13.859375 C 11.472656 -14.335938 8.691406 -15.375 6.890625 -16.96875 C 5.097656 -18.570312 4.203125 -20.875 4.203125 -23.875 C 4.203125 -27 5.289062 -29.398438 7.46875 -31.078125 C 9.644531 -32.753906 12.773438 -33.59375 16.859375 -33.59375 L 19.3125 -33.59375 C 22.957031 -33.59375 25.890625 -32.820312 28.109375 -31.28125 C 30.328125 -29.75 31.640625 -27.601562 32.046875 -24.84375 L 24.359375 -24.84375 C 24.160156 -25.757812 23.609375 -26.488281 22.703125 -27.03125 C 21.804688 -27.570312 20.675781 -27.84375 19.3125 -27.84375 L 16.859375 -27.84375 C 13.335938 -27.84375 11.578125 -26.601562 11.578125 -24.125 C 11.578125 -22 13.054688 -20.757812 16.015625 -20.40625 L 20.875 -19.734375 C 24.800781 -19.253906 27.703125 -18.1875 29.578125 -16.53125 C 31.460938 -14.875 32.40625 -12.546875 32.40625 -9.546875 C 32.40625 -6.304688 31.265625 -3.804688 28.984375 -2.046875 C 26.703125 -0.285156 23.421875 0.59375 19.140625 0.59375 Z M 16.734375 0.59375 "/></g></g></g><g fill="#ffffff" fill-opacity="1"><g transform="translate(97.499964, 208.499986)"><g><path d="M 18.234375 9.90625 L 10.3125 9.90625 L 14.8125 -1.859375 L 2.09375 -33 L 10.3125 -33 L 16.796875 -15.421875 C 17.078125 -14.703125 17.304688 -13.953125 17.484375 -13.171875 C 17.671875 -12.390625 17.800781 -11.660156 17.875 -10.984375 C 18 -10.222656 18.101562 -9.460938 18.1875 -8.703125 L 18.65625 -8.703125 C 18.695312 -9.421875 18.78125 -10.179688 18.90625 -10.984375 C 18.976562 -11.660156 19.09375 -12.390625 19.25 -13.171875 C 19.414062 -13.953125 19.617188 -14.703125 19.859375 -15.421875 L 25.984375 -33 L 33.90625 -33 Z M 18.234375 9.90625 "/></g></g></g><g fill="#ffffff" fill-opacity="1"><g transform="translate(133.499927, 208.499986)"><g><path d="M 16.734375 0.59375 C 12.859375 0.59375 9.769531 -0.191406 7.46875 -1.765625 C 5.164062 -3.347656 3.835938 -5.578125 3.484375 -8.453125 L 11.15625 -8.453125 C 11.394531 -7.421875 12.015625 -6.613281 13.015625 -6.03125 C 14.015625 -5.445312 15.253906 -5.15625 16.734375 -5.15625 L 19.140625 -5.15625 C 21.015625 -5.15625 22.460938 -5.523438 23.484375 -6.265625 C 24.503906 -7.003906 25.015625 -8.015625 25.015625 -9.296875 C 25.015625 -11.492188 23.316406 -12.832031 19.921875 -13.3125 L 15.234375 -13.859375 C 11.472656 -14.335938 8.691406 -15.375 6.890625 -16.96875 C 5.097656 -18.570312 4.203125 -20.875 4.203125 -23.875 C 4.203125 -27 5.289062 -29.398438 7.46875 -31.078125 C 9.644531 -32.753906 12.773438 -33.59375 16.859375 -33.59375 L 19.3125 -33.59375 C 22.957031 -33.59375 25.890625 -32.820312 28.109375 -31.28125 C 30.328125 -29.75 31.640625 -27.601562 32.046875 -24.84375 L 24.359375 -24.84375 C 24.160156 -25.757812 23.609375 -26.488281 22.703125 -27.03125 C 21.804688 -27.570312 20.675781 -27.84375 19.3125 -27.84375 L 16.859375 -27.84375 C 13.335938 -27.84375 11.578125 -26.601562 11.578125 -24.125 C 11.578125 -22 13.054688 -20.757812 16.015625 -20.40625 L 20.875 -19.734375 C 24.800781 -19.253906 27.703125 -18.1875 29.578125 -16.53125 C 31.460938 -14.875 32.40625 -12.546875 32.40625 -9.546875 C 32.40625 -6.304688 31.265625 -3.804688 28.984375 -2.046875 C 26.703125 -0.285156 23.421875 0.59375 19.140625 0.59375 Z M 16.734375 0.59375 "/></g></g></g><g fill="#ffffff" fill-opacity="1"><g transform="translate(169.49989, 208.499986)"><g><path d="M 2.703125 -33 L 11.8125 -33 L 11.8125 -43.203125 L 19.3125 -43.203125 L 19.3125 -33 L 31.859375 -33 L 31.859375 -26.21875 L 19.3125 -26.21875 L 19.3125 -10.203125 C 19.3125 -9.160156 19.625 -8.328125 20.25 -7.703125 C 20.875 -7.085938 21.742188 -6.78125 22.859375 -6.78125 L 31.265625 -6.78125 L 31.265625 0 L 22.3125 0 C 19.070312 0 16.507812 -0.914062 14.625 -2.75 C 12.75 -4.59375 11.8125 -7.078125 11.8125 -10.203125 L 11.8125 -26.21875 L 2.703125 -26.21875 Z M 2.703125 -33 "/></g></g></g><g fill="#ffffff" fill-opacity="1"><g transform="translate(205.499853, 208.499986)"><g><path d="M 18 0.59375 C 15.84375 0.59375 13.875 0.285156 12.09375 -0.328125 C 10.3125 -0.953125 8.800781 -1.820312 7.5625 -2.9375 C 6.320312 -4.0625 5.359375 -5.421875 4.671875 -7.015625 C 3.992188 -8.617188 3.65625 -10.398438 3.65625 -12.359375 L 3.65625 -20.703125 C 3.65625 -22.660156 3.992188 -24.4375 4.671875 -26.03125 C 5.359375 -27.632812 6.320312 -28.992188 7.5625 -30.109375 C 8.800781 -31.234375 10.3125 -32.09375 12.09375 -32.6875 C 13.875 -33.289062 15.84375 -33.59375 18 -33.59375 C 20.15625 -33.59375 22.113281 -33.28125 23.875 -32.65625 C 25.632812 -32.039062 27.132812 -31.171875 28.375 -30.046875 C 29.613281 -28.929688 30.570312 -27.570312 31.25 -25.96875 C 31.9375 -24.375 32.28125 -22.597656 32.28125 -20.640625 L 32.28125 -14.640625 L 11.09375 -14.640625 L 11.09375 -12.484375 C 11.09375 -10.285156 11.703125 -8.5625 12.921875 -7.3125 C 14.148438 -6.070312 15.84375 -5.453125 18 -5.453125 C 19.632812 -5.453125 21.019531 -5.703125 22.15625 -6.203125 C 23.300781 -6.703125 24.113281 -7.4375 24.59375 -8.40625 L 31.984375 -8.40625 C 31.617188 -7.039062 31.015625 -5.796875 30.171875 -4.671875 C 29.335938 -3.554688 28.3125 -2.609375 27.09375 -1.828125 C 25.875 -1.046875 24.492188 -0.445312 22.953125 -0.03125 C 21.410156 0.382812 19.757812 0.59375 18 0.59375 Z M 24.90625 -19.6875 L 24.90625 -20.640625 C 24.90625 -22.835938 24.300781 -24.546875 23.09375 -25.765625 C 21.894531 -26.984375 20.195312 -27.59375 18 -27.59375 C 15.84375 -27.59375 14.148438 -26.984375 12.921875 -25.765625 C 11.703125 -24.546875 11.09375 -22.859375 11.09375 -20.703125 L 11.09375 -19.6875 Z M 24.90625 -19.6875 "/></g></g></g><g fill="#ffffff" fill-opacity="1"><g transform="translate(241.499816, 208.499986)"><g><path d="M 2.9375 -33 L 8.640625 -33 L 8.640625 -28.203125 L 9.1875 -28.203125 C 9.300781 -29.878906 9.847656 -31.195312 10.828125 -32.15625 C 11.804688 -33.113281 13.117188 -33.59375 14.765625 -33.59375 C 16.316406 -33.59375 17.625 -33.113281 18.6875 -32.15625 C 19.75 -31.195312 20.476562 -29.878906 20.875 -28.203125 L 21.125 -28.203125 C 21.238281 -29.878906 21.785156 -31.195312 22.765625 -32.15625 C 23.742188 -33.113281 25.054688 -33.59375 26.703125 -33.59375 C 28.703125 -33.59375 30.269531 -32.84375 31.40625 -31.34375 C 32.550781 -29.84375 33.125 -27.796875 33.125 -25.203125 L 33.125 0 L 26.8125 0 L 26.8125 -24.59375 C 26.8125 -27.070312 25.851562 -28.3125 23.9375 -28.3125 C 22.101562 -28.3125 21.1875 -27.035156 21.1875 -24.484375 L 21.1875 0 L 14.875 0 L 14.875 -24.59375 C 14.875 -26.632812 14.21875 -27.835938 12.90625 -28.203125 C 12.5 -28.273438 12.195312 -28.3125 12 -28.3125 C 11.800781 -28.3125 11.5 -28.273438 11.09375 -28.203125 C 9.851562 -27.835938 9.234375 -26.597656 9.234375 -24.484375 L 9.234375 0 L 2.9375 0 Z M 2.9375 -33 "/></g></g></g><g fill="#ffffff" fill-opacity="1"><g transform="translate(277.499779, 208.499986)"><g><path d="M 3.65625 -20.703125 C 3.65625 -22.703125 3.925781 -24.488281 4.46875 -26.0625 C 5.007812 -27.644531 5.78125 -28.992188 6.78125 -30.109375 C 7.78125 -31.234375 8.976562 -32.09375 10.375 -32.6875 C 11.78125 -33.289062 13.320312 -33.59375 15 -33.59375 C 17.394531 -33.59375 19.375 -33.03125 20.9375 -31.90625 C 22.5 -30.789062 23.457031 -29.253906 23.8125 -27.296875 L 24.421875 -27.296875 C 24.378906 -27.972656 24.335938 -28.65625 24.296875 -29.34375 C 24.222656 -29.9375 24.175781 -30.5625 24.15625 -31.21875 C 24.132812 -31.882812 24.125 -32.476562 24.125 -33 L 24.125 -43.796875 L 31.625 -43.796875 L 31.625 0 L 24.421875 0 L 24.421875 -5.765625 L 23.8125 -5.765625 C 23.457031 -3.765625 22.5 -2.203125 20.9375 -1.078125 C 19.375 0.0351562 17.394531 0.59375 15 0.59375 C 13.320312 0.59375 11.78125 0.296875 10.375 -0.296875 C 8.976562 -0.898438 7.78125 -1.769531 6.78125 -2.90625 C 5.78125 -4.050781 5.007812 -5.429688 4.46875 -7.046875 C 3.925781 -8.671875 3.65625 -10.484375 3.65625 -12.484375 Z M 17.703125 -5.9375 C 19.660156 -5.9375 21.21875 -6.535156 22.375 -7.734375 C 23.539062 -8.941406 24.125 -10.523438 24.125 -12.484375 L 24.125 -20.515625 C 24.125 -22.515625 23.53125 -24.113281 22.34375 -25.3125 C 21.164062 -26.519531 19.617188 -27.125 17.703125 -27.125 C 15.660156 -27.125 14.054688 -26.53125 12.890625 -25.34375 C 11.734375 -24.164062 11.15625 -22.554688 11.15625 -20.515625 L 11.15625 -12.65625 C 11.15625 -10.613281 11.734375 -8.984375 12.890625 -7.765625 C 14.054688 -6.546875 15.660156 -5.9375 17.703125 -5.9375 Z M 17.703125 -5.9375 "/></g></g></g></svg>