<svg width="151" height="28" viewBox="0 0 151 28" fill="none" xmlns="http://www.w3.org/2000/svg">
<g clip-path="url(#clip0_18605_13239)">
<path d="M0 8.45825V23.3333H4.23948V15.8157H17.7989V23.2985H21.9549V0H9.1253C3.46108 0 0 3.34428 0 8.45825ZM17.7502 13.0497H4.23948V8.56972C4.31593 5.30905 5.63642 2.93321 9.1253 2.93321H17.7989L17.7502 13.0497Z" fill="#051163"/>
<path d="M141.341 5.83154H126.086V8.71599H129.436V23.3054H133.745V8.70902H141.404C144.837 8.70902 146.178 11.0779 146.276 14.2898V23.3054H150.459V14.2898C150.404 9.25246 146.964 5.83154 141.341 5.83154Z" fill="#051163"/>
<path d="M47.7532 5.83154H37.0433C31.3791 5.83154 27.918 9.25943 27.918 14.3595C27.918 20.5255 31.9489 23.3124 36.5985 23.3124H51.0405V20.5255H47.7601V5.83154H47.7532ZM43.5832 20.4001H37.3352C33.7212 20.4001 32.0949 18.2124 32.1018 14.6103C32.1018 11.2242 33.4362 8.72295 37.0085 8.72295H43.5832V20.4001Z" fill="#051163"/>
<path d="M113.124 5.24609H110.157C104.166 5.24609 100.308 7.82398 100.26 14.0806V14.4359C100.26 20.8109 104.138 23.3052 110.157 23.3052H113.124C119.136 23.3052 123.021 20.8109 123.021 14.4359V14.0806C122.944 7.82398 119.108 5.24609 113.124 5.24609ZM118.816 14.6379C118.816 18.6372 117.127 20.3999 112.603 20.3999H110.824C106.299 20.3999 104.617 18.6302 104.617 14.6379V13.9134C104.617 9.46825 106.786 8.1375 110.81 8.1375H112.61C116.634 8.1375 118.816 9.46825 118.816 13.9134V14.6379Z" fill="#051163"/>
<path d="M86.1514 5.81787H84.4069C77.9157 5.81787 74.6631 9.35724 74.6631 14.3528C74.6631 20.4979 78.6802 23.2987 83.3158 23.2987H91.6627V20.463H84.0108C80.8138 20.463 79.1806 18.6864 78.8609 15.8159H95.4921C95.5199 14.8614 95.4782 13.8999 95.3601 12.9523C94.6373 8.66051 92.2534 5.82484 86.1514 5.82484V5.81787ZM85.2826 13.0011H78.8956C79.0972 11.7261 79.5837 8.68141 84.5529 8.68141H86.0332C91.0025 8.68141 91.475 11.7331 91.6905 13.0011H85.2826Z" fill="#051163"/>
<path d="M56.1699 14.2966V23.2983H60.3538V14.3523C60.458 11.1544 61.7994 8.84122 65.2327 8.84122H72.1757V5.97071H65.2674C59.6658 5.96375 56.2186 9.25926 56.1699 14.3035V14.2966Z" fill="#051163"/>
</g>
<defs>
<clipPath id="clip0_18605_13239">
<rect width="150.5" height="28" fill="white"/>
</clipPath>
</defs>
</svg>
