<svg width="151" height="24" viewBox="0 0 151 24" fill="none" xmlns="http://www.w3.org/2000/svg">
<path d="M0 8.45825V23.3333H4.23948V15.8157H17.7989V23.2985H21.9549V0H9.1253C3.46108 0 0 3.34428 0 8.45825ZM17.7502 13.0497H4.23948V8.56972C4.31593 5.30905 5.63642 2.93321 9.1253 2.93321H17.7989L17.7502 13.0497Z" fill="#051163"/>
<path d="M141.342 5.83203H126.086V8.71647H129.436V23.3059H133.745V8.70951H141.404C144.837 8.70951 146.179 11.0784 146.276 14.2903V23.3059H150.46V14.2903C150.404 9.25295 146.964 5.83203 141.342 5.83203Z" fill="#051163"/>
<path d="M47.7532 5.83203H37.0433C31.3791 5.83203 27.918 9.25992 27.918 14.3599C27.918 20.526 31.9489 23.3129 36.5985 23.3129H51.0405V20.526H47.7601V5.83203H47.7532ZM43.5832 20.4006H37.3352C33.7212 20.4006 32.0949 18.2128 32.1018 14.6108C32.1018 11.2247 33.4362 8.72344 37.0085 8.72344H43.5832V20.4006Z" fill="#051163"/>
<path d="M113.125 5.24609H110.157C104.166 5.24609 100.309 7.82398 100.26 14.0806V14.4359C100.26 20.8109 104.138 23.3052 110.157 23.3052H113.125C119.136 23.3052 123.021 20.8109 123.021 14.4359V14.0806C122.945 7.82398 119.109 5.24609 113.125 5.24609ZM118.817 14.6379C118.817 18.6372 117.128 20.3999 112.603 20.3999H110.824C106.3 20.3999 104.618 18.6302 104.618 14.6379V13.9134C104.618 9.46825 106.786 8.1375 110.81 8.1375H112.61C116.634 8.1375 118.817 9.46825 118.817 13.9134V14.6379Z" fill="#051163"/>
<path d="M86.1519 5.81738H84.4074C77.9162 5.81738 74.6636 9.35675 74.6636 14.3523C74.6636 20.4974 78.6807 23.2982 83.3163 23.2982H91.6632V20.4626H84.0113C80.8143 20.4626 79.1811 18.6859 78.8614 15.8154H95.4926C95.5204 14.8609 95.4787 13.8994 95.3606 12.9519C94.6378 8.66002 92.2539 5.82435 86.1519 5.82435V5.81738ZM85.2831 13.0006H78.8961C79.0976 11.7256 79.5842 8.68092 84.5534 8.68092H86.0337C91.0029 8.68092 91.4755 11.7326 91.691 13.0006H85.2831Z" fill="#051163"/>
<path d="M56.1694 14.2966V23.2983H60.3533V14.3523C60.4576 11.1544 61.7989 8.84122 65.2322 8.84122H72.1752V5.97071H65.2669C59.6653 5.96375 56.2181 9.25926 56.1694 14.3035V14.2966Z" fill="#051163"/>
</svg>
