<svg width="151" height="29" viewBox="0 0 151 29" fill="none" xmlns="http://www.w3.org/2000/svg">
<g clip-path="url(#clip0_18605_28455)">
<path d="M0 8.95825V23.8333H4.23948V16.3157H17.7989V23.7985H21.9549V0.5H9.1253C3.46108 0.5 0 3.84428 0 8.95825ZM17.7502 13.5497H4.23948V9.06972C4.31593 5.80905 5.63642 3.43321 9.1253 3.43321H17.7989L17.7502 13.5497Z" fill="white"/>
<path d="M141.341 6.33154H126.086V9.21599H129.436V23.8054H133.745V9.20902H141.404C144.837 9.20902 146.178 11.5779 146.276 14.7898V23.8054H150.459V14.7898C150.404 9.75246 146.964 6.33154 141.341 6.33154Z" fill="white"/>
<path d="M47.7532 6.33154H37.0433C31.3791 6.33154 27.918 9.75943 27.918 14.8595C27.918 21.0255 31.9489 23.8124 36.5985 23.8124H51.0405V21.0255H47.7601V6.33154H47.7532ZM43.5832 20.9001H37.3352C33.7212 20.9001 32.0949 18.7124 32.1018 15.1103C32.1018 11.7242 33.4362 9.22295 37.0085 9.22295H43.5832V20.9001Z" fill="white"/>
<path d="M113.126 5.74609H110.158C104.168 5.74609 100.31 8.32398 100.262 14.5806V14.9359C100.262 21.3109 104.14 23.8052 110.158 23.8052H113.126C119.138 23.8052 123.023 21.3109 123.023 14.9359V14.5806C122.946 8.32398 119.11 5.74609 113.126 5.74609ZM118.818 15.1379C118.818 19.1372 117.129 20.8999 112.605 20.8999H110.826C106.301 20.8999 104.619 19.1302 104.619 15.1379V14.4134C104.619 9.96825 106.788 8.6375 110.812 8.6375H112.612C116.636 8.6375 118.818 9.96825 118.818 14.4134V15.1379Z" fill="white"/>
<path d="M86.1524 6.31787H84.4079C77.9166 6.31787 74.6641 9.85724 74.6641 14.8528C74.6641 20.9979 78.6811 23.7987 83.3168 23.7987H91.6637V20.963H84.0118C80.8148 20.963 79.1815 19.1864 78.8618 16.3159H95.4931C95.5209 15.3614 95.4792 14.3999 95.3611 13.4523C94.6383 9.16051 92.2544 6.32484 86.1524 6.32484V6.31787ZM85.2836 13.5011H78.8966C79.0981 12.2261 79.5846 9.18141 84.5539 9.18141H86.0342C91.0034 9.18141 91.476 12.2331 91.6915 13.5011H85.2836Z" fill="white"/>
<path d="M56.168 14.7966V23.7983H60.3518V14.8523C60.4561 11.6544 61.7974 9.34122 65.2307 9.34122H72.1737V6.47071H65.2655C59.6638 6.46375 56.2166 9.75926 56.168 14.8035V14.7966Z" fill="white"/>
</g>
<defs>
<clipPath id="clip0_18605_28455">
<rect width="150.5" height="28" fill="white" transform="translate(0 0.5)"/>
</clipPath>
</defs>
</svg>
