<svg xmlns="http://www.w3.org/2000/svg" xmlns:xlink="http://www.w3.org/1999/xlink" width="120" height="60">
   <defs>
      <path id="A" d="M45.6 53.1c0 1.8-.9 2.8-2.8 2.8h-5.1c-1.8 0-2.7-.9-2.7-2.8V2.8c0-1.9.9-2.8 2.7-2.8h5.1c1.9 0 2.8.9 2.8 2.8v50.3"/>
   </defs>
   <clipPath id="B">
      <use xlink:href="#A"/>
   </clipPath>
   <defs>
      <path id="C" d="M51.6 22.3h-.9c-1.8 0-2.7-.9-2.7-2.8v-3.7c0-1.8.9-2.8 2.7-2.8h.9V6.9c0-1.8.3-3.8 2.5-4.4l4.3-1.3c2.4-.7 3.7.2 3.7 2.5V13h3.5c1.8 0 2.7.9 2.7 2.8v3.7c0 1.8-.9 2.8-2.7 2.8h-3.5V45c0 2.2 1.2 2.9 2.8 2.9H66c1.2 0 2 .4 2 2.3v2.9c0 2.8-2.8 4-5.7 4-5.4 0-10.8-3.1-10.8-10.6V22.3"/>
   </defs>
   <clipPath id="D">
      <use xlink:href="#C"/>
   </clipPath>
   <defs>
      <path id="E" d="M99.5 34.8c0 1.8-.9 2.8-2.7 2.8H80.6v3c0 4.7 2.1 7.2 7.1 7.2 3.4 0 4.7-1.4 6.9-1.4 2 0 2.7 1.6 2.7 2.8v1.3C97.3 54 94 57 87 57c-11.1 0-17-6.7-17-17.3V26.5C70 17.6 76.3 12 84.7 12c8.5 0 14.7 5.6 14.7 14.5v8.3zM89 26.5c0-4-1.6-6-4.2-6s-4.2 2-4.2 6v2.8H89z"/>
   </defs>
   <clipPath id="F">
      <use xlink:href="#E"/>
   </clipPath>
   <defs>
      <path id="G" d="M113.6 53.3c0 1.8-.9 2.8-2.8 2.8h-5.1c-1.8 0-2.7-.9-2.7-2.8V15.7c0-1.9.9-2.8 2.7-2.8h5.1c2 0 2.8.9 2.8 3 1.6-1.8 4.2-3.9 7.3-3.9 2 0 2.2 1.3 2.2 2.3v4.4c0 2.4-2 2.7-4 2.9-3.3.4-5.5 3.2-5.5 7.3v24.4"/>
   </defs>
   <clipPath id="H">
      <use xlink:href="#G"/>
   </clipPath>
   <defs>
      <path id="I" d="M145.9 27.2c0-3.4-1.5-6-4.6-6s-4.6 2.5-4.6 6v26.2c0 1.8-.9 2.8-2.8 2.8h-5.1c-1.8 0-2.7-.9-2.7-2.8V15.7c0-1.9.9-2.8 2.7-2.8h5.1c1.8 0 2.8.9 2.8 2.8 0 0 2.8-3.6 8.2-3.6 7.9 0 11.6 6 11.6 15.2v26.2c0 1.8-.9 2.8-2.8 2.8h-5.1c-1.8 0-2.7-.9-2.7-2.8V27.2"/>
   </defs>
   <clipPath id="J">
      <use xlink:href="#I"/>
   </clipPath>
   <defs>
      <path id="K" d="M165.9 21.3c-1 0-2.2-.5-2.2-2.1v-2.3c0-3.6 5.3-4.9 10.4-4.9 7.1 0 16.3 1.8 16.3 13.7v27.5c0 1.9-.9 2.8-2.7 2.8h-3.9c-1.7 0-2.6-.8-2.8-2.2-.2.3-2.8 3-7.6 3-7.9 0-13.4-6.1-13.4-13.9 0-13.1 9.8-16.9 19.8-18-.2-2.9-1.3-4.9-5.9-4.9s-6.4 1.3-8 1.3zm9.3 26.2c3 0 4.6-2.5 4.6-5.7v-9c-4.7 1.1-9.3 2.7-9.3 9 .1 3.1 1.5 5.7 4.7 5.7z"/>
   </defs>
   <clipPath id="L">
      <use xlink:href="#K"/>
   </clipPath>
   <defs>
      <path id="M" d="M195.6 22.3h-.9c-1.8 0-2.7-.9-2.7-2.8v-3.7c0-1.8.9-2.8 2.7-2.8h.9V6.9c0-1.8.3-3.8 2.5-4.4l4.3-1.3c2.4-.7 3.7.2 3.7 2.5V13h3.5c1.8 0 2.7.9 2.7 2.8v3.7c0 1.8-.9 2.8-2.7 2.8h-3.5V45c0 2.2 1.2 2.9 2.8 2.9h1.1c1.2 0 2 .4 2 2.3v2.9c0 2.8-2.8 4-5.7 4-5.4 0-10.8-3.1-10.8-10.6V22.3"/>
   </defs>
   <clipPath id="N">
      <use xlink:href="#M"/>
   </clipPath>
   <defs>
      <path id="O" d="M226.6 6.4c0 1.8-.9 2.8-2.8 2.8h-5.1c-1.8 0-2.7-.9-2.7-2.8V2.8c0-1.9.9-2.8 2.7-2.8h5.1c1.9 0 2.8.9 2.8 2.8zm0 46.7c0 1.8-.9 2.8-2.8 2.8h-5.1c-1.8 0-2.7-.9-2.7-2.8V15.5c0-1.9.9-2.8 2.7-2.8h5.1c1.9 0 2.8.9 2.8 2.8z"/>
   </defs>
   <clipPath id="P">
      <use xlink:href="#O"/>
   </clipPath>
   <defs>
      <path id="Q" d="M260.6 13c1.8 0 3.1 1.3 2.3 3.7l-11.8 36.8c-.4 1.4-1.4 2.8-3.5 2.8h-3.7c-2.1 0-3.1-1.3-3.5-2.8l-11.1-36.8c-.7-2.4.5-3.7 2.3-3.7h4.5c2.2 0 3.2 1.1 3.6 2.8l6.5 23.8 7-23.8c.5-1.8 1.4-2.8 3.6-2.8h3.8"/>
   </defs>
   <clipPath id="R">
      <use xlink:href="#Q"/>
   </clipPath>
   <defs>
      <path id="S" d="M293.5 34.8c0 1.8-.9 2.8-2.7 2.8h-16.2v3c0 4.7 2.1 7.2 7.1 7.2 3.4 0 4.7-1.4 6.9-1.4 2 0 2.7 1.6 2.7 2.8v1.3c0 3.5-3.3 6.5-10.3 6.5-11.1 0-17-6.7-17-17.3V26.5c0-8.9 6.3-14.5 14.7-14.5 8.5 0 14.7 5.6 14.7 14.5v8.3zM283 26.5c0-4-1.6-6-4.2-6s-4.1 2-4.1 6v2.8h8.4v-2.8z"/>
   </defs>
   <clipPath id="T">
      <use xlink:href="#S"/>
   </clipPath>
   <defs>
      <path id="U" d="M319.8 2.8v4c0 1.8-.9 2.8-2.8 2.8h-7c-1.1 0-1.6.6-1.6 1.7v41.8c0 1.8-.9 2.8-2.7 2.8h-5.5c-1.9 0-2.8-.9-2.8-2.8V11.3c0-1.1-.6-1.7-1.6-1.7h-7c-1.9 0-2.8-.9-2.8-2.8v-4c0-1.9.9-2.8 2.8-2.8H317c1.9 0 2.8.9 2.8 2.8"/>
   </defs>
   <clipPath id="V">
      <use xlink:href="#U"/>
   </clipPath>
   <defs>
      <path id="W" d="M5.9 21.3c-1 0-2.2-.5-2.2-2.1v-2.3C3.7 13.3 9 12 14.2 12c7.1 0 16.3 1.8 16.3 13.7v27.5c0 1.9-.9 2.8-2.7 2.8h-3.9c-1.7 0-2.6-.8-2.8-2.2-.2.3-2.8 3-7.6 3C5.5 56.9 0 50.8 0 43c0-13.1 9.8-16.9 19.9-18-.2-2.9-1.3-5-5.9-5-4.7 0-6.5 1.3-8.1 1.3zm9.3 26.2c3 0 4.6-2.5 4.6-5.7v-9c-4.7 1.1-9.3 2.7-9.3 9 .1 3.1 1.5 5.7 4.7 5.7z"/>
   </defs>
   <clipPath id="X">
      <use xlink:href="#W"/>
   </clipPath>
   <defs>
      <path id="Y" d="M313 26.3c0-10 7.5-14.3 15.1-14.3s15.1 4.3 15.1 14.3v16.4c0 10-7.5 14.3-15.1 14.3S313 52.7 313 42.7zm10.6 16.4c0 3.3 1.8 5 4.6 5s4.6-1.8 4.6-5V26.3c0-3.3-1.8-5-4.6-5s-4.6 1.8-4.6 5z"/>
   </defs>
   <clipPath id="Z">
      <use xlink:href="#Y"/>
   </clipPath>
   <g fill="#a5b4fc" transform="matrix(.329041 0 0 .329041 3.536534 20.605874)">
      <path clip-path="url(#B)" d="M30-5h20.6v65.9H30z"/>
      <path clip-path="url(#D)" d="M43-4h30.3v66.1H43z"/>
      <path clip-path="url(#F)" d="M65 7h39.5v54.9H65z"/>
      <path clip-path="url(#H)" d="M98 7h30.1v54.1H98z"/>
      <path clip-path="url(#J)" d="M121 7h40.4v54.1H121z"/>
      <path clip-path="url(#L)" d="M155 7h40.4v54.9H155z"/>
      <path clip-path="url(#N)" d="M187-4h30.3v66.1H187z"/>
      <path clip-path="url(#P)" d="M211-5h20.6v65.9H211z"/>
      <path clip-path="url(#R)" d="M224 8h44.2v53.3H224z"/>
      <path clip-path="url(#T)" d="M259 7h39.5v54.9H259z"/>
      <path clip-path="url(#V)" d="M281-5h43.8v65.9H281z"/>
      <path clip-path="url(#X)" d="M-5 7h40.4v54.9H-5z"/>
      <path clip-path="url(#Z)" d="M308 7h40.3v54.9H308z"/>
   </g>
</svg>