<svg id="Capa_1" enable-background="new 0 0 512 512" height="512" viewBox="0 0 512 512" width="512" xmlns="http://www.w3.org/2000/svg"><g><g><path d="m461.979 440.609h-327.106c-4.14 0-7.495 3.356-7.495 7.495s3.355 7.495 7.495 7.495h327.106c6.532 0 11.847 5.314 11.847 11.846s-5.315 11.846-11.847 11.846h-411.958c-6.532 0-11.847-5.314-11.847-11.846s5.315-11.846 11.847-11.846h49.454c4.14 0 7.495-3.356 7.495-7.495s-3.355-7.495-7.495-7.495h-49.454c-14.798 0-26.837 12.038-26.837 26.836 0 14.797 12.039 26.836 26.837 26.836h411.957c14.798 0 26.837-12.039 26.837-26.836 0-14.798-12.039-26.836-26.836-26.836z"/><path d="m223.521 424.542c.043 0 .085.001.128.001 2.201 0 4.292-.967 5.718-2.649l105.98-125.037 2.188 19.32c.433 3.827 3.676 6.652 7.438 6.652.282 0 .567-.016.853-.048 4.113-.466 7.069-4.177 6.604-8.29l-3.99-35.234c-.46-4.064-4.101-7.007-8.162-6.618l-35.298 3.384c-4.12.395-7.141 4.055-6.745 8.176.395 4.12 4.052 7.137 8.176 6.745l15.562-1.492-98.121 115.764-210.477-266.268c-2.568-3.247-7.281-3.798-10.528-1.232-3.247 2.567-3.798 7.28-1.232 10.528l216.153 273.452c1.394 1.762 3.505 2.807 5.753 2.846z"/><path d="m400.075 263.647c61.716 0 111.925-50.21 111.925-111.926 0-56.013-41.821-103.721-97.278-110.975-4.097-.541-7.866 2.355-8.404 6.459-.537 4.104 2.355 7.867 6.46 8.404 48.02 6.281 84.232 47.6 84.232 96.112 0 53.451-43.485 96.936-96.935 96.936-53.451 0-96.936-43.485-96.936-96.936 0-45.586 32.323-85.478 76.856-94.855 4.051-.853 6.643-4.828 5.79-8.878-.852-4.052-4.839-6.645-8.878-5.79-24.746 5.21-47.257 18.904-63.39 38.56-16.358 19.931-25.368 45.133-25.368 70.963 0 61.716 50.209 111.926 111.926 111.926z"/><path d="m317.642 47.835c1.341.993 2.904 1.472 4.454 1.472 2.294 0 4.559-1.05 6.029-3.035 3.881-5.241 9.184-9.211 15.334-11.479 4.252-1.568 8.669-2.258 13.162-2.047 4.127.193 7.643-3.001 7.838-7.136.193-4.134-3.002-7.643-7.137-7.837-6.495-.305-12.904.691-19.049 2.957-8.897 3.281-16.572 9.029-22.195 16.622-2.463 3.326-1.763 8.02 1.564 10.483z"/></g></g></svg>