<?xml version="1.0" encoding="iso-8859-1"?>
<!-- Generator: Adobe Illustrator 19.0.0, SVG Export Plug-In . SVG Version: 6.00 Build 0)  -->
<svg version="1.1" id="Capa_1" xmlns="http://www.w3.org/2000/svg" xmlns:xlink="http://www.w3.org/1999/xlink" x="0px" y="0px"
	 viewBox="0 0 512 512" style="enable-background:new 0 0 512 512;" xml:space="preserve">
<path style="fill:#E3E3E3;" d="M275.314,474.446H17.927c-5.658,0-10.244-4.586-10.244-10.244V47.799
	c0-5.658,4.586-10.244,10.244-10.244h257.387c5.658,0,10.244,4.586,10.244,10.244v416.403
	C285.558,469.86,280.97,474.446,275.314,474.446z"/>
<path style="opacity:0.1;enable-background:new    ;" d="M275.314,37.555h-12.533v403.87c0,5.658-4.586,10.244-10.244,10.244H7.683
	v12.533c0,5.658,4.586,10.244,10.244,10.244h257.387c5.658,0,10.244-4.586,10.244-10.244V47.799
	C285.558,42.141,280.971,37.555,275.314,37.555z"/>
<path style="fill:#AEAEAE;" d="M499.174,416.404H221.381c-5.658,0-10.244-4.586-10.244-10.244V247.343h293.16v163.94
	C504.296,414.111,502.004,416.404,499.174,416.404z"/>
<path style="fill:#97D4AC;" d="M490.708,193.124H328.465c-5.658,0-10.244-4.586-10.244-10.244V97.99
	c0-5.658,4.586-10.244,10.244-10.244h162.243c5.658,0,10.244,4.586,10.244,10.244v84.891
	C500.952,188.538,496.366,193.124,490.708,193.124z"/>
<rect x="43.363" y="74.362" style="fill:#F23466;" width="103.26" height="49.571"/>
<rect x="381.519" y="126.965" style="fill:#FFF3DC;" width="56.129" height="26.945"/>
<rect x="244.115" y="353.84" style="fill:#F23466;" width="51.63" height="24.791"/>
<polygon style="fill:#717171;" points="504.296,247.343 504.296,247.343 211.137,247.526 357.757,311.059 "/>
<path style="opacity:0.1;enable-background:new    ;" d="M490.708,87.746h-3.073v81.818c0,5.658-4.586,10.244-10.244,10.244h-159.17
	v3.073c0,5.658,4.586,10.244,10.244,10.244h162.243c5.658,0,10.244-4.586,10.244-10.244V97.99
	C500.952,92.332,496.366,87.746,490.708,87.746z"/>
<path style="opacity:0.1;enable-background:new    ;" d="M485.345,247.342v150.111H211.137v18.951h288.038
	c2.828,0,5.122-2.294,5.122-5.122v-163.94H485.345z"/>
<path d="M318.221,200.807h182.732c4.244,0,7.683-3.439,7.683-7.683V87.745c0-4.244-3.439-7.683-7.683-7.683H318.221
	c-4.244,0-7.683,3.439-7.683,7.683v105.379C310.538,197.368,313.977,200.807,318.221,200.807z M325.904,95.428H493.27v90.013
	H325.904V95.428z"/>
<path d="M43.359,131.613H146.62c4.244,0,7.683-3.439,7.683-7.683V74.358c0-4.244-3.439-7.683-7.683-7.683H43.359
	c-4.244,0-7.683,3.439-7.683,7.683v49.572C35.676,128.173,39.116,131.613,43.359,131.613z M51.042,82.041h87.895v34.206H51.042
	V82.041z"/>
<path d="M437.651,119.28h-56.129c-4.244,0-7.683,3.439-7.683,7.683v26.946c0,4.244,3.439,7.683,7.683,7.683h56.129
	c4.244,0,7.683-3.439,7.683-7.683v-26.946C445.334,122.719,441.894,119.28,437.651,119.28z M429.968,146.225h-40.763v-11.58h40.763
	V146.225z"/>
<path d="M295.744,386.311c4.244,0,7.683-3.439,7.683-7.683v-24.785c0-4.244-3.439-7.683-7.683-7.683h-51.631
	c-4.244,0-7.683,3.439-7.683,7.683v24.785c0,4.244,3.439,7.683,7.683,7.683H295.744z M251.796,361.526h36.265v9.419h-36.265V361.526
	z"/>
<path d="M195.403,155.852H43.359c-4.244,0-7.683,3.439-7.683,7.683s3.439,7.683,7.683,7.683h152.044
	c4.244,0,7.683-3.439,7.683-7.683S199.647,155.852,195.403,155.852z"/>
<path d="M195.403,185.441H43.359c-4.244,0-7.683,3.439-7.683,7.683s3.439,7.683,7.683,7.683h152.044
	c4.244,0,7.683-3.439,7.683-7.683S199.647,185.441,195.403,185.441z"/>
<path d="M332.866,364.246h137.004c4.244,0,7.683-3.439,7.683-7.683s-3.439-7.683-7.683-7.683H332.866
	c-4.244,0-7.683,3.439-7.683,7.683S328.621,364.246,332.866,364.246z"/>
<path d="M332.866,385.736h137.004c4.244,0,7.683-3.439,7.683-7.683s-3.439-7.683-7.683-7.683H332.866
	c-4.244,0-7.683,3.439-7.683,7.683S328.621,385.736,332.866,385.736z"/>
<path d="M511.962,246.596c-0.001-0.014-0.001-0.029-0.002-0.043c-0.019-0.185-0.052-0.371-0.085-0.556
	c-0.012-0.072-0.019-0.145-0.035-0.216c-0.015-0.074-0.039-0.146-0.056-0.22c-0.043-0.18-0.086-0.361-0.141-0.536
	c-0.005-0.017-0.013-0.034-0.018-0.051c-0.075-0.23-0.159-0.457-0.254-0.677c-0.002-0.004-0.003-0.009-0.005-0.013
	c-0.014-0.034-0.034-0.065-0.049-0.098c-0.087-0.193-0.179-0.383-0.281-0.566c-0.047-0.085-0.1-0.165-0.15-0.247
	c-0.078-0.128-0.155-0.257-0.24-0.381c-0.076-0.111-0.159-0.214-0.24-0.32c-0.068-0.088-0.134-0.178-0.205-0.264
	c-0.096-0.115-0.199-0.223-0.301-0.331c-0.067-0.071-0.131-0.143-0.201-0.211c-0.106-0.103-0.216-0.201-0.328-0.298
	c-0.077-0.068-0.152-0.136-0.232-0.2c-0.105-0.085-0.214-0.163-0.323-0.242c-0.094-0.069-0.188-0.138-0.287-0.203
	c-0.098-0.065-0.2-0.123-0.3-0.182c-0.116-0.069-0.23-0.137-0.35-0.2c-0.091-0.047-0.184-0.089-0.277-0.133
	c-0.132-0.063-0.264-0.126-0.402-0.181c-0.092-0.038-0.187-0.069-0.281-0.102c-0.137-0.049-0.275-0.099-0.416-0.141
	c-0.111-0.033-0.224-0.058-0.336-0.086c-0.125-0.031-0.249-0.065-0.376-0.089c-0.155-0.031-0.311-0.05-0.468-0.072
	c-0.087-0.011-0.173-0.028-0.261-0.036c-0.224-0.023-0.45-0.032-0.677-0.034c-0.024,0-0.046-0.003-0.07-0.003h-0.019
	c-0.031,0-0.061,0-0.093,0H293.241V47.799c0-9.884-8.043-17.927-17.927-17.927h-26.422c-4.244,0-7.683,3.439-7.683,7.683
	s3.439,7.683,7.683,7.683h26.422c1.413,0,2.561,1.148,2.561,2.561v191.86h-66.617c-0.021,0-0.042,0-0.064,0h-0.037
	c-0.044,0-0.087,0.006-0.131,0.006c-0.203,0.004-0.406,0.011-0.607,0.031c-0.105,0.01-0.208,0.029-0.312,0.043
	c-0.139,0.019-0.28,0.037-0.418,0.064c-0.138,0.027-0.274,0.063-0.41,0.097c-0.101,0.026-0.203,0.048-0.303,0.078
	c-0.149,0.044-0.293,0.096-0.437,0.149c-0.087,0.032-0.175,0.06-0.261,0.095c-0.14,0.056-0.277,0.121-0.413,0.185
	c-0.089,0.043-0.179,0.083-0.267,0.129c-0.121,0.064-0.238,0.133-0.354,0.203c-0.099,0.058-0.2,0.117-0.297,0.18
	c-0.098,0.065-0.192,0.134-0.287,0.203c-0.11,0.079-0.219,0.158-0.324,0.243c-0.078,0.064-0.153,0.13-0.227,0.197
	c-0.113,0.098-0.224,0.197-0.332,0.301c-0.068,0.067-0.131,0.137-0.196,0.206c-0.104,0.11-0.208,0.22-0.306,0.337
	c-0.07,0.083-0.134,0.171-0.2,0.257c-0.083,0.108-0.167,0.214-0.245,0.327c-0.084,0.122-0.159,0.249-0.236,0.375
	c-0.051,0.084-0.106,0.166-0.154,0.252c-0.101,0.182-0.193,0.371-0.279,0.562c-0.016,0.035-0.036,0.068-0.051,0.102
	c-0.002,0.004-0.003,0.009-0.005,0.013c-0.095,0.22-0.179,0.446-0.254,0.675c-0.005,0.017-0.013,0.035-0.019,0.052
	c-0.055,0.175-0.098,0.355-0.141,0.536c-0.017,0.074-0.041,0.146-0.056,0.22c-0.014,0.071-0.022,0.144-0.035,0.216
	c-0.033,0.185-0.066,0.371-0.085,0.556c-0.001,0.014-0.001,0.029-0.002,0.043c-0.024,0.245-0.037,0.489-0.037,0.732
	c0,0.004-0.001,0.009-0.001,0.013v45.537c0,4.244,3.439,7.683,7.683,7.683s7.683-3.439,7.683-7.683v-33.827l135.838,58.963
	c0.975,0.423,2.018,0.635,3.059,0.635c1.041,0,2.084-0.212,3.059-0.635l135.838-58.963v149.669H218.84v-76.849
	c0-4.244-3.439-7.683-7.683-7.683c-4.244,0-7.683,3.439-7.683,7.683v84.532c0,4.244,3.439,7.683,7.683,7.683h66.717v40.114
	c0,1.413-1.148,2.561-2.561,2.561H17.927c-1.413,0-2.561-1.148-2.561-2.561V47.799c0-1.413,1.148-2.561,2.561-2.561h193.229
	c4.244,0,7.683-3.439,7.683-7.683s-3.439-7.683-7.683-7.683H17.927C8.043,29.872,0,37.915,0,47.799v416.402
	c0,9.884,8.043,17.927,17.927,17.927h257.387c9.884,0,17.927-8.043,17.927-17.927v-40.114h211.076c4.244,0,7.683-3.439,7.683-7.683
	V247.342c0-0.004-0.001-0.009-0.001-0.013C511.999,247.085,511.986,246.841,511.962,246.596z M357.737,302.592l-109.584-47.567
	h219.168L357.737,302.592z"/>
<g>
</g>
<g>
</g>
<g>
</g>
<g>
</g>
<g>
</g>
<g>
</g>
<g>
</g>
<g>
</g>
<g>
</g>
<g>
</g>
<g>
</g>
<g>
</g>
<g>
</g>
<g>
</g>
<g>
</g>
</svg>
