<?xml version="1.0" encoding="iso-8859-1"?>
<!-- Generator: Adobe Illustrator 19.0.0, SVG Export Plug-In . SVG Version: 6.00 Build 0)  -->
<svg version="1.1" id="Layer_1" xmlns="http://www.w3.org/2000/svg" xmlns:xlink="http://www.w3.org/1999/xlink" x="0px" y="0px"
	 viewBox="0 0 491.52 491.52" style="enable-background:new 0 0 491.52 491.52;" xml:space="preserve">
<g>
	<path style="fill:#64798A;" d="M35.727,164.286c7.94,0,13.793-3.054,17.559-9.15c3.756-6.096,5.686-14.318,5.77-24.679
		c-2.139,2.711-5.217,5.251-9.234,7.626c-4.017,2.369-8.462,3.556-13.334,3.556c-8.034,0-14.763-3.024-20.189-9.073
		c-5.425-6.049-8.138-14.082-8.138-24.1s2.921-18.075,8.775-24.171c5.853-6.096,13.23-9.144,22.119-9.144
		c14.356,0,24.279,7.259,29.746,21.773c3.078,8.329,4.612,17.715,4.612,28.164c0,10.455-0.981,19.162-2.942,26.132
		c-1.972,6.964-4.664,12.481-8.075,16.545c-6.667,7.939-14.857,11.908-24.56,11.908c-9.693,0-18.478-3.438-26.344-10.307
		l7.564-12.629c1.972,1.937,4.591,3.674,7.888,5.222C30.229,163.513,33.161,164.286,35.727,164.286z M38.482,126.542
		c5.165,0,9.484-1.618,12.948-4.867c3.464-3.237,5.196-7.448,5.196-12.629c0-5.174-1.669-9.628-5.008-13.355
		c-3.328-3.721-7.502-5.588-12.499-5.588s-9.119,1.672-12.374,5.009c-3.245,3.337-4.862,7.62-4.862,12.847
		c0,5.228,1.471,9.634,4.413,13.208C29.248,124.752,33.307,126.542,38.482,126.542z"/>
	<path style="fill:#64798A;" d="M143.285,76.895v15.529h-37.821v24.974c3.756-2.327,8.034-3.485,12.823-3.485
		c8.378,0,15.598,2.853,21.66,8.565c6.072,5.712,9.108,13.45,9.108,23.226c0,9.776-3.161,17.88-9.484,24.312
		c-6.333,6.438-14.106,9.658-23.34,9.658c-12.051,0-21.66-4.548-28.848-13.651l8.086-12.481c0.678,0.774,1.596,1.695,2.754,2.758
		c1.148,1.063,3.526,2.493,7.116,4.282c3.589,1.79,7.512,2.688,11.79,2.688c4.278,0,8.159-1.453,11.665-4.359
		c3.506-2.9,5.258-7.135,5.258-12.7c0-5.564-1.857-9.87-5.571-12.918c-3.725-3.054-8.42-4.578-14.106-4.578
		c-5.686,0-11.091,1.601-16.214,4.79l-6.417-7.838V76.895H143.285z"/>
	<path style="fill:#64798A;" d="M171.873,165.373c-6.062-9.534-9.098-22.286-9.098-38.253s3.036-28.719,9.098-38.253
		c6.072-9.528,15.212-14.294,27.44-14.294c12.218,0,21.368,4.767,27.44,14.294c6.062,9.534,9.098,22.286,9.098,38.253
		s-3.036,28.719-9.098,38.253c-6.072,9.534-15.222,14.3-27.44,14.3C187.085,179.674,177.945,174.907,171.873,165.373z
		 M182.713,99.683c-3.547,6.97-5.321,16.114-5.321,27.437s1.774,20.467,5.321,27.437c3.547,6.97,9.077,10.449,16.6,10.449
		s13.01-3.455,16.474-10.378c3.464-6.917,5.196-16.084,5.196-27.508c0-11.418-1.732-20.585-5.196-27.508
		c-3.464-6.917-8.952-10.378-16.474-10.378S186.261,92.719,182.713,99.683z"/>
	<path style="fill:#64798A;" d="M288.8,90.54c-7.95,0-13.803,3.048-17.57,9.144c-3.756,6.096-5.676,14.324-5.759,24.679
		c2.128-2.705,5.206-5.245,9.223-7.62c4.017-2.369,8.462-3.556,13.334-3.556c8.034,0,14.763,3.024,20.199,9.073
		c5.425,6.049,8.138,14.082,8.138,24.094c0,10.018-2.932,18.075-8.785,24.171c-5.853,6.102-13.23,9.15-22.119,9.15
		c-14.356,0-24.268-7.259-29.735-21.778c-3.078-8.323-4.622-17.709-4.622-28.164c0-10.449,0.981-19.162,2.953-26.126
		c1.961-6.97,4.653-12.487,8.075-16.551c6.667-7.933,14.847-11.902,24.55-11.902c9.703,0,18.488,3.438,26.344,10.307l-7.564,12.629
		c-1.961-1.937-4.591-3.68-7.877-5.228C294.288,91.314,291.367,90.54,288.8,90.54z M286.046,128.284
		c-5.175,0-9.494,1.618-12.948,4.861c-3.464,3.243-5.196,7.454-5.196,12.629c0,5.18,1.669,9.634,4.998,13.355
		c3.339,3.727,7.523,5.588,12.562,5.588c5.05,0,9.234-1.666,12.572-5.009c3.328-3.337,4.998-7.596,4.998-12.771
		c0-5.18-1.544-9.581-4.612-13.214C295.342,130.098,291.21,128.284,286.046,128.284z"/>
	<path style="fill:#64798A;" d="M63.929,211.534v15.535H26.108v24.974c3.756-2.327,8.034-3.485,12.823-3.485
		c8.378,0,15.598,2.859,21.66,8.565c6.072,5.706,9.108,13.456,9.108,23.226s-3.161,17.874-9.484,24.312
		c-6.333,6.438-14.106,9.652-23.34,9.652c-12.051,0-21.66-4.548-28.848-13.645l8.086-12.487c0.678,0.78,1.596,1.701,2.754,2.764
		c1.148,1.063,3.526,2.493,7.116,4.277c3.589,1.796,7.512,2.694,11.79,2.694s8.159-1.453,11.665-4.359
		c3.506-2.906,5.258-7.135,5.258-12.7s-1.857-9.876-5.571-12.924c-3.725-3.048-8.42-4.572-14.106-4.572s-11.091,1.595-16.214,4.796
		l-6.417-7.844v-48.779H63.929z"/>
	<path style="fill:#64798A;" d="M145.553,211.534v15.535h-37.821v24.974c3.756-2.327,8.034-3.485,12.823-3.485
		c8.378,0,15.598,2.859,21.66,8.565c6.072,5.706,9.108,13.456,9.108,23.226s-3.161,17.874-9.484,24.312
		c-6.333,6.438-14.106,9.652-23.34,9.652c-12.051,0-21.66-4.548-28.848-13.645l8.086-12.487c0.678,0.78,1.596,1.701,2.754,2.764
		c1.148,1.063,3.526,2.493,7.116,4.277c3.589,1.796,7.512,2.694,11.79,2.694c4.278,0,8.159-1.453,11.665-4.359
		c3.506-2.906,5.258-7.135,5.258-12.7s-1.857-9.876-5.571-12.924c-3.725-3.048-8.42-4.572-14.106-4.572s-11.091,1.595-16.214,4.796
		l-6.417-7.844v-48.779H145.553z"/>
	<path style="fill:#64798A;" d="M212.116,251.311c2.567-3.958,3.84-7.986,3.84-12.05s-1.367-7.513-4.1-10.372
		c-2.734-2.859-6.197-4.288-10.381-4.288c-7.356,0-13.459,4.265-18.332,12.782l-12.186-7.986
		c3.933-6.675,8.274-11.707,13.021-15.098c4.737-3.391,10.851-5.08,18.332-5.08c7.481,0,14.033,2.682,19.677,8.057
		c5.645,5.363,8.462,12.7,8.462,21.985c0,5.233-1.2,10.219-3.589,14.956c-2.389,4.749-6.792,10.845-13.209,18.288l-21.023,24.242
		h40.638v16.409h-61.275v-14.519l27.179-30.916C205.23,260.75,209.55,255.28,212.116,251.311z"/>
	<path style="fill:#64798A;" d="M288.8,225.179c-7.95,0-13.803,3.06-17.57,9.156c-3.756,6.096-5.676,14.318-5.759,24.679
		c2.128-2.717,5.206-5.257,9.223-7.632c4.017-2.363,8.462-3.556,13.334-3.556c8.034,0,14.763,3.036,20.199,9.073
		c5.425,6.049,8.138,14.082,8.138,24.1s-2.932,18.075-8.785,24.171c-5.853,6.096-13.23,9.144-22.119,9.144
		c-14.356,0-24.268-7.254-29.735-21.773c-3.078-8.317-4.622-17.709-4.622-28.164c0-10.455,0.981-19.162,2.953-26.132
		c1.961-6.958,4.653-12.475,8.075-16.539c6.667-7.939,14.847-11.908,24.55-11.908c9.703,0,18.488,3.438,26.344,10.301l-7.564,12.629
		c-1.961-1.926-4.591-3.674-7.877-5.222C294.288,225.959,291.367,225.179,288.8,225.179z M286.046,262.924
		c-5.175,0-9.494,1.63-12.948,4.867c-3.464,3.249-5.196,7.454-5.196,12.629s1.669,9.628,4.998,13.361
		c3.339,3.721,7.523,5.588,12.562,5.588c5.05,0,9.234-1.678,12.572-5.009c3.328-3.343,4.998-7.596,4.998-12.782
		c0-5.174-1.544-9.581-4.612-13.208C295.342,264.743,291.21,262.924,286.046,262.924z"/>
	<path style="fill:#64798A;" d="M11.49,390.6v-15.24h52.438v13.349l-21.67,27.443c8.211,0.284,14.617,3.213,19.229,8.778
		c4.622,5.564,6.928,12.215,6.928,19.965c0,10.349-3.099,18.477-9.296,24.383c-6.197,5.907-14.169,8.86-23.913,8.86
		c-9.734,0-19.271-3.532-28.588-10.597l6.417-13.798c7.345,5.812,15.035,8.707,23.068,8.707c5.217,0,9.515-1.37,12.885-4.135
		c3.38-2.753,5.071-6.722,5.071-11.896s-1.878-9.321-5.644-12.416c-3.756-3.095-8.973-4.643-15.64-4.643
		c-3.339,0-6.542,0.532-9.62,1.595V417.89L43.928,390.6H11.49z"/>
	<path style="fill:#64798A;" d="M109.825,462.604c7.94,0,13.793-3.048,17.559-9.144c3.756-6.096,5.686-14.33,5.77-24.679
		c-2.139,2.705-5.217,5.245-9.234,7.62c-4.017,2.375-8.462,3.556-13.334,3.556c-8.034,0-14.763-3.024-20.189-9.073
		c-5.425-6.049-8.138-14.082-8.138-24.1s2.921-18.075,8.775-24.171c5.853-6.096,13.23-9.144,22.119-9.144
		c14.356,0,24.279,7.254,29.746,21.773c3.078,8.329,4.612,17.709,4.612,28.164c0,10.455-0.981,19.162-2.942,26.132
		c-1.972,6.97-4.664,12.487-8.075,16.551c-6.667,7.927-14.857,11.896-24.56,11.896c-9.693,0-18.478-3.426-26.344-10.301
		l7.564-12.629c1.972,1.937,4.591,3.674,7.888,5.222C104.327,461.825,107.259,462.604,109.825,462.604z M112.58,424.86
		c5.165,0,9.484-1.618,12.948-4.867c3.464-3.237,5.196-7.443,5.196-12.629c0-5.174-1.669-9.628-5.008-13.349
		c-3.328-3.733-7.502-5.588-12.499-5.588c-4.998,0-9.119,1.666-12.374,5.009c-3.245,3.331-4.862,7.62-4.862,12.841
		c0,5.222,1.471,9.628,4.413,13.208C103.346,423.064,107.405,424.86,112.58,424.86z"/>
	<path style="fill:#64798A;" d="M174.304,381.019c5.728-5.127,12.906-7.691,21.545-7.691c8.628,0,15.807,2.564,21.535,7.691
		s8.587,11.589,8.587,19.374c0,7.797-3.203,14.696-9.609,20.686c8.628,6.202,12.948,14.909,12.948,26.132
		c0,8.718-3.078,16.019-9.234,21.926c-6.156,5.907-14.231,8.848-24.226,8.848c-10.006,0-18.081-2.942-24.237-8.848
		c-6.156-5.907-9.234-13.208-9.234-21.926c0-11.223,4.319-19.93,12.958-26.132c-6.417-5.99-9.62-12.889-9.62-20.686
		C165.717,392.608,168.576,386.146,174.304,381.019z M183.277,458.895c3.933,2.859,8.128,4.288,12.572,4.288
		c4.434,0,8.628-1.429,12.562-4.288c3.933-2.847,5.895-6.935,5.895-12.263c0-5.316-1.878-9.439-5.644-12.333
		c-3.756-2.906-8.034-4.359-12.812-4.359c-4.789,0-9.067,1.453-12.823,4.359c-3.766,2.894-5.645,7.017-5.645,12.333
		C177.382,451.96,179.343,456.048,183.277,458.895z M184.497,412.739c3.203,2.953,6.99,4.43,11.352,4.43
		c4.351,0,8.138-1.477,11.341-4.43s4.81-6.58,4.81-10.892c0-4.3-1.607-7.903-4.81-10.809c-3.203-2.906-6.99-4.359-11.341-4.359
		c-4.361,0-8.149,1.453-11.352,4.359c-3.203,2.906-4.81,6.509-4.81,10.809C179.688,406.159,181.294,409.785,184.497,412.739z"/>
	<path style="fill:#64798A;" d="M253.275,463.691c-6.062-9.534-9.098-22.28-9.098-38.253s3.036-28.719,9.098-38.253
		c6.072-9.534,15.212-14.294,27.44-14.294c12.218,0,21.368,4.761,27.44,14.294c6.062,9.534,9.098,22.28,9.098,38.253
		s-3.036,28.719-9.098,38.253c-6.072,9.534-15.222,14.294-27.44,14.294C268.486,477.986,259.347,473.225,253.275,463.691z
		 M264.115,398.007c-3.547,6.958-5.321,16.114-5.321,27.431c0,11.329,1.774,20.473,5.321,27.431
		c3.547,6.97,9.077,10.455,16.6,10.455s13.01-3.461,16.474-10.372c3.464-6.923,5.196-16.09,5.196-27.514
		c0-11.412-1.732-20.591-5.196-27.514c-3.464-6.911-8.952-10.372-16.474-10.372S267.662,391.037,264.115,398.007z"/>
</g>
<rect x="333.056" y="234.644" style="fill:#E56353;" width="46.285" height="21.125"/>
<rect y="338.33" style="fill:#64798A;" width="328.192" height="10.563"/>
<polygon style="fill:#2F4859;" points="451.587,59.303 446.966,57.98 448.231,53.56 443.322,52.154 412.959,158.234 417.869,159.64 
	440.289,81.307 444.91,82.63 "/>
<g>
	<path style="fill:#64798A;" d="M437.649,103.341l-47.673,173.132l30.519,8.735l49.432-172.704
		C463.172,111.504,444.584,106.209,437.649,103.341z"/>
	<path style="fill:#64798A;" d="M365.776,401.385l-0.001,0.004c-0.895,3.125-1.308,6.368-1.227,9.617l0.093,3.703
		c0.025,1.003,0.698,1.873,1.662,2.148c0.964,0.276,1.995-0.106,2.547-0.943l2.036-3.088c1.791-2.717,3.158-5.691,4.054-8.82
		L365.776,401.385z"/>
</g>
<path style="fill:#3A556A;" d="M420.495,285.208l-30.519-8.735l-19.896,69.513c-0.758,2.649-1.418,5.33-1.9,8.043
	c-2.735,15.394-3.834,31.06-3.185,47.016c0.017,0.404,0.294,0.758,0.682,0.869l9.076,2.598c0.383,0.109,0.799-0.036,1.03-0.36
	c9.169-12.877,16.605-26.906,22.4-42.029c0.87-2.27,1.614-4.603,2.283-6.94L420.495,285.208z"/>
<g>
	<path style="fill:#D5D6DB;" d="M393.086,265.178l-0.719,2.613c11.195,3.964,18.458,5.988,30.646,8.619l0.746-2.605
		C411.528,271.167,404.322,269.165,393.086,265.178z"/>
	<path style="fill:#D5D6DB;" d="M395.645,255.882l-0.719,2.613c11.248,3.986,18.517,6.014,30.738,8.652l0.746-2.605
		C414.148,261.897,406.933,259.891,395.645,255.882z"/>
	<path style="fill:#D5D6DB;" d="M398.204,246.587l-0.719,2.613c11.3,4.007,18.576,6.04,30.83,8.685l0.746-2.605
		C416.766,252.628,409.545,250.617,398.204,246.587z"/>
	<path style="fill:#D5D6DB;" d="M400.765,237.292l-0.72,2.613c11.352,4.029,18.635,6.065,30.922,8.717l0.746-2.605
		C419.384,243.358,412.158,241.343,400.765,237.292z"/>
	<path style="fill:#D5D6DB;" d="M403.324,227.996l-0.719,2.613c11.403,4.05,18.692,6.09,31.012,8.75l0.746-2.605
		C422.002,234.088,414.771,232.071,403.324,227.996z"/>
	<path style="fill:#D5D6DB;" d="M436.269,230.096l0.746-2.605c-12.394-2.673-19.632-4.695-31.132-8.79l-0.719,2.613
		C416.622,225.386,423.916,227.43,436.269,230.096z"/>
	<path style="fill:#D5D6DB;" d="M390.527,274.473c-0.021-0.008-0.044-0.016-0.067-0.024l-0.699,2.62
		c11.171,3.954,18.428,5.976,30.601,8.604l0.746-2.605C408.91,280.437,401.71,278.439,390.527,274.473z"/>
</g>
<g>
	<path style="fill:#3A556A;" d="M469.927,112.504l21.593-75.44l-37.449,7.28l-1.048,3.164l-15.374,55.833
		C444.584,106.209,463.172,111.504,469.927,112.504z"/>
	<path style="fill:#3A556A;" d="M491.38,36.416c-1.095-2.667-10.311-2.927-20.585-0.581c-10.274,2.346-17.714,6.411-16.619,9.078
		c1.095,2.667,10.311,2.928,20.585,0.581C485.035,43.147,492.475,39.083,491.38,36.416z"/>
</g>
<path style="fill:#2F4859;" d="M484.404,38.008c-0.684-1.667-6.445-1.83-12.867-0.363c-6.422,1.466-11.072,4.007-10.387,5.674
	c0.684,1.667,6.445,1.83,12.866,0.363C480.439,42.216,485.089,39.676,484.404,38.008z"/>
<path style="fill:#EBF0F3;" d="M469.471,15.167l-7.585,26.501l-0.516,1.803c1.034,1.488,6.478,1.621,12.648,0.212
	c3.918-0.895,7.159-2.19,8.948-3.442l0.771-2.694l4.84-16.911C489.917,15.957,470.81,10.488,469.471,15.167z"/>
<g>
</g>
<g>
</g>
<g>
</g>
<g>
</g>
<g>
</g>
<g>
</g>
<g>
</g>
<g>
</g>
<g>
</g>
<g>
</g>
<g>
</g>
<g>
</g>
<g>
</g>
<g>
</g>
<g>
</g>
</svg>
