<svg id="Layer_5" enable-background="new 0 0 64 64" height="512" viewBox="0 0 64 64" width="512" xmlns="http://www.w3.org/2000/svg"><g><path d="m60.586 33c-.645 0-1.251.251-1.707.707l-5.293 5.293h-18.586v-4.227c0-3.278-2.231-6.083-5.426-6.821l-2.924-.674c1.601-1.66 2.672-3.713 3.109-5.961.146-.415.241-.853.241-1.317v-1-2-4c0-6.617-5.383-12-12-12s-12 5.383-12 12v6c0 3.142 1.211 6.06 3.35 8.277l-2.924.675c-3.195.738-5.426 3.543-5.426 6.821v6.227h5.026c-.635.838-1.026 1.87-1.026 3v14c0 2.757 2.243 5 5 5h48c2.757 0 5-2.243 5-5v-22.586c0-1.331-1.083-2.414-2.414-2.414zm-27.586 1.773v4.227h-4v-5h-2v5h-6.695l2.827-10.481 5.992 1.383c2.282.526 3.876 2.529 3.876 4.871zm-15.234 4.227-1.349-5h3.166l-1.349 5zm-1.84-12.957c.532.33 1.093.624 1.68.876l.394.169.394-.169c.588-.252 1.148-.546 1.68-.876.156.73.576 1.363 1.171 1.792l-1.123 4.165h-4.245l-1.123-4.165c.595-.429 1.015-1.061 1.172-1.792zm8.742-5.043h1.332c.68 0 1.312-.187 1.873-.487-.016.104-.036.207-.055.31-.314.692-1.009 1.177-1.818 1.177h-1.891c.201-.325.388-.658.559-1zm-.668-5.616c0 2.465-.865 4.778-2.348 6.616h-3.652v2h1.514c-.477.336-.977.646-1.514.902-3.659-1.747-6-5.437-6-9.518v-.43c2.228-.206 4.31-1.099 6-2.575 1.69 1.476 3.772 2.369 6 2.575zm-1.225 11c-.456-.106-.775-.507-.775-.974l.001-.846c.196-.182.384-.371.567-.564h3.432c.234 0 .46-.03.683-.069-.605 1.058-1.408 2.006-2.389 2.803zm3.225-7.384h-.531c.346-1.154.531-2.369.531-3.616v-.384c1.103 0 2 .897 2 2s-.897 2-2 2zm-8-16c5.514 0 10 4.486 10 10v.556c-.591-.344-1.268-.556-2-.556h-1c-2.313 0-4.486-.9-6.122-2.536l-.878-.878-.878.878c-1.636 1.636-3.809 2.536-6.122 2.536h-1c-.732 0-1.409.212-2 .556v-.556c0-5.514 4.486-10 10-10zm-7.469 16h-.531c-1.103 0-2-.897-2-2s.897-2 2-2v.384c0 1.247.185 2.462.531 3.616zm-2.404 1.513c.561.3 1.193.487 1.873.487h1.332c.668 1.335 1.569 2.542 2.667 3.564l.001.845c0 .468-.319.869-.775.974l-1.52.351c-1.955-1.588-3.209-3.782-3.578-6.221zm-5.127 14.26c0-2.342 1.594-4.345 3.875-4.872l5.992-1.383 2.828 10.482h-5.695-1v-5h-2v5h-4zm12 13.227c0-1.654 1.346-3 3-3s3 1.346 3 3-1.346 3-3 3-3-1.346-3-3zm16 0c0-1.654 1.346-3 3-3s3 1.346 3 3-1.346 3-3 3-3-1.346-3-3zm16 0c0-1.654 1.346-3 3-3s3 1.346 3 3-1.346 3-3 3-3-1.346-3-3zm10 13h-14v-1c0-3.86 3.14-7 7-7s7 3.14 7 7zm-16 0h-14v-1c0-3.86 3.14-7 7-7s7 3.14 7 7zm-16 0h-14v-1c0-3.86 3.14-7 7-7s7 3.14 7 7zm36-3c0 1.302-.839 2.402-2 2.816v-.816c0-3.768-2.33-6.998-5.623-8.337.991-.914 1.623-2.212 1.623-3.663 0-2.757-2.243-5-5-5s-5 2.243-5 5c0 1.451.632 2.749 1.623 3.663-2 .813-3.641 2.325-4.623 4.232-.983-1.907-2.623-3.419-4.623-4.232.991-.914 1.623-2.212 1.623-3.663 0-2.757-2.243-5-5-5s-5 2.243-5 5c0 1.451.632 2.749 1.623 3.663-2 .813-3.641 2.325-4.623 4.232-.983-1.907-2.623-3.419-4.623-4.232.991-.914 1.623-2.212 1.623-3.663 0-2.757-2.243-5-5-5s-5 2.243-5 5c0 1.451.632 2.749 1.623 3.663-3.293 1.339-5.623 4.569-5.623 8.337v.816c-1.161-.414-2-1.514-2-2.816v-14c0-1.654 1.346-3 3-3h44.414l5.879-5.879c.239-.239.707-.045.707.293z"/><path d="m60 7h-24c-1.654 0-3 1.346-3 3v12c0 1.654 1.346 3 3 3h5v1.586c0 1.331 1.083 2.414 2.414 2.414.645 0 1.251-.251 1.707-.707l3.293-3.293h11.586c1.654 0 3-1.346 3-3v-12c0-1.654-1.346-3-3-3zm1 15c0 .551-.449 1-1 1h-12.414l-3.879 3.879c-.239.238-.707.045-.707-.293v-3.586h-7c-.551 0-1-.449-1-1v-12c0-.551.449-1 1-1h24c.551 0 1 .449 1 1z"/><path d="m40 13c-1.654 0-3 1.346-3 3s1.346 3 3 3 3-1.346 3-3-1.346-3-3-3zm0 4c-.551 0-1-.449-1-1s.449-1 1-1 1 .449 1 1-.449 1-1 1z"/><path d="m48 13c-1.654 0-3 1.346-3 3s1.346 3 3 3 3-1.346 3-3-1.346-3-3-3zm0 4c-.551 0-1-.449-1-1s.449-1 1-1 1 .449 1 1-.449 1-1 1z"/><path d="m56 13c-1.654 0-3 1.346-3 3s1.346 3 3 3 3-1.346 3-3-1.346-3-3-3zm0 4c-.551 0-1-.449-1-1s.449-1 1-1 1 .449 1 1-.449 1-1 1z"/></g></svg>