<svg height="512" viewBox="0 0 64 64" width="512" xmlns="http://www.w3.org/2000/svg"><g id="mobile_coding" data-name="mobile coding"><path d="m47 2h-30a3.009 3.009 0 0 0 -3 3v54a3.009 3.009 0 0 0 3 3h30a3.009 3.009 0 0 0 3-3v-54a3.009 3.009 0 0 0 -3-3zm-25 2h20v1a1 1 0 0 1 -1 1h-18a1 1 0 0 1 -1-1zm26 55a1 1 0 0 1 -1 1h-30a1 1 0 0 1 -1-1v-54a1 1 0 0 1 1-1h3v1a3.009 3.009 0 0 0 3 3h18a3.009 3.009 0 0 0 3-3v-1h3a1 1 0 0 1 1 1z"/><path d="m39 52h-14a3 3 0 0 0 0 6h14a3 3 0 0 0 0-6zm0 4h-14a1 1 0 0 1 0-2h14a1 1 0 0 1 0 2z"/><path d="m26.293 29.707 1.414-1.414-5.293-5.293 5.293-5.293-1.414-1.414-6 6a1 1 0 0 0 0 1.414z"/><path d="m37.707 29.707 6-6a1 1 0 0 0 0-1.414l-6-6-1.414 1.414 5.293 5.293-5.293 5.293z"/><path d="m22.513 22h18.974v1.999h-18.974z" transform="matrix(.317 -.949 .949 .317 .054 46.075)"/><path d="m18 40h16v2h-16z"/><path d="m36 40h10v2h-10z"/><path d="m18 48h16v2h-16z"/><path d="m36 48h10v2h-10z"/><path d="m26 44h12v2h-12z"/><path d="m18 44h6v2h-6z"/><path d="m40 44h6v2h-6z"/><path d="m57 16v-8a1 1 0 0 0 -1-1h-4v2h3v8a1 1 0 0 0 1 1h6v-2z"/><path d="m57 21a1 1 0 0 0 -1-1h-4v2h3v3a1 1 0 0 0 1 1h6v-2h-5z"/><path d="m7 8v8h-5v2h6a1 1 0 0 0 1-1v-8h3v-2h-4a1 1 0 0 0 -1 1z"/><path d="m7 21v3h-5v2h6a1 1 0 0 0 1-1v-3h3v-2h-4a1 1 0 0 0 -1 1z"/><path d="m55 47v8h-3v2h4a1 1 0 0 0 1-1v-8h5v-2h-6a1 1 0 0 0 -1 1z"/><path d="m55 39v3h-3v2h4a1 1 0 0 0 1-1v-3h5v-2h-6a1 1 0 0 0 -1 1z"/><path d="m9 47a1 1 0 0 0 -1-1h-6v2h5v8a1 1 0 0 0 1 1h4v-2h-3z"/><path d="m9 39a1 1 0 0 0 -1-1h-6v2h5v3a1 1 0 0 0 1 1h4v-2h-3z"/></g></svg>