<svg version="1.1" xmlns="http://www.w3.org/2000/svg" x="0px" y="0px" width="264px" height="53.049px" viewBox="0 0 264 53.049">
<g>
	<polygon fill="#D1D1D1" points="26.182,0 15.953,10.228 24.136,10.228 34.364,0"/>
	<polygon fill="#7B7B7B" points="34.364,20.46 26.182,20.46 15.953,10.228 24.136,10.228"/>
	<polygon fill="#D1D1D1" points="10.228,15.959 0,26.188 8.182,26.188 18.411,15.959"/>
	<polygon fill="#7B7B7B" points="18.411,36.415 10.228,36.415 0,26.184 8.182,26.188"/>
	<polygon fill="#D1D1D1" points="26.182,31.915 15.953,42.143 24.136,42.143 34.364,31.915"/>
	<polygon fill="#7B7B7B" points="34.364,52.375 26.182,52.375 15.953,42.143 24.136,42.143"/>
	<rect x="43.088" y="3" transform="matrix(0.707 -0.7072 0.7072 0.707 7.507 38.5852)" fill="#E2001A" width="14.466" height="14.466"/>
	<polygon fill="#F09B9B" points="42.135,0 31.911,10.228 40.093,10.228 50.321,0"/>
	<polygon fill="#A60B16" points="50.321,20.46 42.14,20.46 31.911,10.228 40.093,10.228"/>
	<rect x="59.042" y="18.956" transform="matrix(0.7071 -0.7071 0.7071 0.7071 0.893 54.5336)" fill="#E2001A" width="14.465" height="14.465"/>
	<polygon fill="#F09B9B" points="58.095,15.959 47.866,26.188 56.048,26.188 66.276,15.959"/>
	<polygon fill="#A60B16" points="66.276,36.415 58.095,36.415 47.866,26.184 56.048,26.188"/>
	<rect x="27.129" y="18.953" transform="matrix(0.707 -0.7072 0.7072 0.707 -8.4503 31.9725)" fill="#E2001A" width="14.464" height="14.464"/>
	<polygon fill="#F09B9B" points="26.182,15.959 15.953,26.188 24.136,26.188 34.364,15.959"/>
	<polygon fill="#A60B16" points="34.364,36.415 26.182,36.415 15.953,26.184 24.136,26.188"/>
	<rect x="43.086" y="34.915" transform="matrix(0.707 -0.7072 0.7072 0.707 -15.0641 47.9351)" fill="#E2001A" width="14.466" height="14.466"/>
	<polygon fill="#F09B9B" points="42.14,31.915 31.911,42.143 40.093,42.143 50.321,31.915"/>
	<polygon fill="#A60B16" points="50.321,52.375 42.14,52.375 31.911,42.143 40.093,42.143"/>
	<g>
		<path fill="#000000" d="M98.63,8.921c-0.209-1.484-1.629-2.612-3.26-2.612c-2.946,0-4.054,2.508-4.054,5.12c0,2.487,1.108,4.994,4.054,4.994c2.006,0,3.135-1.379,3.385-3.343h3.176c-0.334,3.719-2.905,6.102-6.561,6.102c-4.617,0-7.334-3.448-7.334-7.753c0-4.431,2.717-7.878,7.334-7.878c3.28,0,6.039,1.923,6.436,5.37H98.63L98.63,8.921z"/>
		<path fill="#000000" d="M107.45,13.873c0,1.985,1.546,2.759,3.301,2.759c1.15,0,2.905-0.335,2.905-1.861c0-1.609-2.236-1.881-4.431-2.466c-2.215-0.585-4.451-1.441-4.451-4.241c0-3.051,2.883-4.514,5.579-4.514c3.113,0,5.977,1.358,5.977,4.806h-3.177c-0.104-1.797-1.379-2.257-2.946-2.257c-1.045,0-2.257,0.439-2.257,1.693c0,1.149,0.711,1.295,4.452,2.257c1.087,0.271,4.43,0.961,4.43,4.346c0,2.737-2.153,4.786-6.207,4.786c-3.301,0-6.393-1.63-6.352-5.308L107.45,13.873L107.45,13.873L107.45,13.873z"/>
		<path fill="#000000" d="M129.768,8.921c-0.209-1.484-1.629-2.612-3.26-2.612c-2.946,0-4.054,2.508-4.054,5.12c0,2.487,1.108,4.994,4.054,4.994c2.006,0,3.135-1.379,3.386-3.343h3.175c-0.333,3.719-2.904,6.102-6.561,6.102c-4.617,0-7.334-3.448-7.334-7.753c0-4.431,2.717-7.878,7.334-7.878c3.282,0,6.039,1.923,6.436,5.37H129.768L129.768,8.921z"/>
		<path fill="#000000" d="M138.587,13.873c0,1.985,1.546,2.759,3.302,2.759c1.148,0,2.905-0.335,2.905-1.861c0-1.609-2.236-1.881-4.43-2.466c-2.214-0.585-4.45-1.441-4.45-4.241c0-3.051,2.883-4.514,5.578-4.514c3.114,0,5.977,1.358,5.977,4.806h-3.177c-0.104-1.797-1.379-2.257-2.946-2.257c-1.044,0-2.256,0.439-2.256,1.693c0,1.149,0.71,1.295,4.452,2.257c1.086,0.271,4.43,0.961,4.43,4.346c0,2.737-2.154,4.786-6.207,4.786c-3.3,0-6.392-1.63-6.35-5.308h3.173l0,0C138.588,13.873,138.587,13.873,138.587,13.873z"/>
	</g>
</g>
</svg>
