<svg xmlns="http://www.w3.org/2000/svg" viewBox="0 0 128 128">
  <rect width="128" height="128" rx="16" fill="#632CA6"/>
  <path d="M89.4 67.2c-1.2-.8-2.5-1.4-3.8-1.8l-1.2-.3c-.4-.1-.8-.2-1.2-.2-2.4-.4-4.9-.3-7.3.3-1.4.4-2.8.9-4 1.7-.4.2-.7.5-1.1.8l-.2-.3c-.5-.8-1.1-1.6-1.8-2.3-1.4-1.4-3.1-2.4-4.9-3.1-1.9-.7-3.9-1-5.9-1-2.6 0-5.2.5-7.5 1.6-2.3 1.1-4.3 2.7-5.9 4.6-1.6 2-2.8 4.3-3.5 6.8-.7 2.5-1 5.2-.7 7.8.3 2.6 1.1 5.2 2.4 7.5 1.3 2.3 3 4.3 5.1 5.8 2.1 1.5 4.6 2.6 7.2 3 2.6.4 5.3.3 7.8-.5 1.5-.5 2.9-1.1 4.2-2 .6-.4 1.2-.9 1.8-1.4l.3.4c.7.9 1.5 1.7 2.4 2.4 1.8 1.4 4 2.3 6.3 2.7 2.3.4 4.7.3 6.9-.4 2.2-.7 4.2-1.9 5.8-3.5 1.6-1.6 2.8-3.6 3.5-5.8.7-2.2.9-4.5.5-6.8-.4-2.3-1.3-4.5-2.6-6.4-1.4-1.9-3.1-3.4-5.2-4.5l-1.4-.8zM63.8 88.6c-1.4 1-3 1.6-4.7 1.8-1.7.2-3.5 0-5.1-.6-1.6-.6-3.1-1.6-4.2-2.9-1.1-1.3-1.9-2.9-2.3-4.6-.4-1.7-.4-3.5 0-5.2.4-1.7 1.2-3.3 2.3-4.6 1.1-1.3 2.6-2.3 4.2-2.9 1.6-.6 3.4-.8 5.1-.6 1.7.2 3.3.8 4.7 1.8 1.4 1 2.5 2.3 3.2 3.9.8 1.6 1.1 3.4 1 5.1-.1 1.8-.6 3.5-1.5 5-.9 1.5-2.2 2.8-3.7 3.8zm19.8-1.2c-.9.6-2 1-3.1 1.1-1.1.1-2.3 0-3.3-.4-1.1-.4-2-1-2.8-1.9-.8-.9-1.3-1.9-1.5-3-.2-1.1-.2-2.3.2-3.4.4-1.1 1-2.1 1.9-2.9.9-.8 1.9-1.3 3.1-1.6 1.1-.2 2.3-.2 3.4.1 1.1.3 2.1.9 2.9 1.7.8.8 1.4 1.8 1.7 2.9.3 1.1.3 2.3 0 3.4-.3 1.1-.9 2.1-1.7 2.9-.2.4-.5.7-.8 1.1z" fill="#fff"/>
</svg>
