<?xml version="1.0" encoding="iso-8859-1"?>
<!-- Generator: Adobe Illustrator 19.0.0, SVG Export Plug-In . SVG Version: 6.00 Build 0)  -->
<svg version="1.1" id="Capa_1" xmlns="http://www.w3.org/2000/svg" xmlns:xlink="http://www.w3.org/1999/xlink" x="0px" y="0px"
	 viewBox="0 0 512 512" style="enable-background:new 0 0 512 512;" xml:space="preserve">
<path style="fill:#414B82;" d="M289.315,486.312c-10.579,0-19.761-7.863-21.136-18.634l-13.385-104.761l-63.014-88.611
	c-6.854-9.584-4.642-22.912,4.944-29.766c9.583-6.854,22.912-4.642,29.766,4.944l66.141,92.985c2.053,2.871,3.362,6.206,3.809,9.707
	l14.066,110.094c1.494,11.689-6.772,22.374-18.46,23.869C291.129,486.255,290.217,486.312,289.315,486.312z"/>
<path style="fill:#80868C;" d="M145.18,462.968c-5.335,0.685-10.214-3.083-10.9-8.418l-10.421-81.126
	c-0.685-5.335,3.084-10.214,8.419-10.899s10.214,3.083,10.9,8.418l10.421,81.126C154.283,457.402,150.514,462.282,145.18,462.968z"
	/>
<path style="fill:#C2C8CE;" d="M179.298,477.971c-2.472,0.318-5.065-0.308-7.193-1.951l-12.218-9.436l-29,3.725l-9.436,12.218
	c-3.287,4.257-9.403,5.042-13.659,1.755c-4.257-3.287-5.042-9.403-1.755-13.659l11.902-15.41c1.579-2.044,3.905-3.377,6.466-3.706
	l37.002-4.754c2.561-0.329,5.15,0.373,7.193,1.951l15.41,11.902c4.257,3.287,5.042,9.403,1.755,13.659
	C184.121,476.393,181.771,477.654,179.298,477.971z"/>
<path style="fill:#3C5A73;" d="M209.675,356.583c1.028,8.002-4.626,15.322-12.628,16.35l-115.992,14.9
	c-6.446,0.828-12.665-2.702-15.257-8.663L1.216,230.668c-3.217-7.398,0.172-16.004,7.57-19.221
	c7.403-3.219,16.004,0.173,19.221,7.57l60.21,138.442l105.111-13.502C201.328,342.928,208.648,348.582,209.675,356.583z"/>
<path style="fill:#5F6E9B;" d="M275.972,134.476l-10.576-5.751c-11.817-6.426-25.783-7.615-38.516-3.278
	s-23.07,13.803-28.508,26.106l-42.814,96.864c-1.172,1.832-2.063,3.841-2.634,5.959l0,0l0,0c-0.88,3.265-0.997,6.786-0.186,10.311
	l18.564,80.754l-24.54,115.08c-2.457,11.524,4.893,22.859,16.418,25.317c1.501,0.32,2.996,0.474,4.471,0.474
	c9.852,0,18.708-6.866,20.845-16.89l25.525-119.703c0.65-3.045,0.625-6.195-0.073-9.23l-12.415-71.131l49.787,15.344l42.255-99.862
	C301.536,166.024,293.921,144.238,275.972,134.476z"/>
<path style="fill:#592713;" d="M502.892,466.63c-5.6,0.602-10.627-3.449-11.229-9.048l-17.132-159.316l-162.21,17.443
	l17.132,159.316c0.602,5.6-3.449,10.626-9.049,11.228c-5.599,0.602-10.627-3.449-11.229-9.048l-18.222-169.454
	c-0.602-5.6,3.449-10.626,9.049-11.228L482.49,276.9c5.599-0.602,10.627,3.449,11.229,9.048l18.222,169.454
	C512.543,461,508.492,466.027,502.892,466.63z"/>
<path style="fill:#80391B;" d="M496.366,301.045l-205.806,22.131c-8.399,0.903-15.94-5.174-16.842-13.572
	c-0.903-8.399,5.174-15.94,13.572-16.842l205.806-22.131c8.399-0.903,15.94,5.174,16.842,13.572
	C510.842,292.601,504.766,300.142,496.366,301.045z"/>
<path style="fill:#1E2D64;" d="M371.218,242.93c-1.697,0.223-3.453,0.203-5.229-0.091l-73.278-12.136
	c-4.818-0.798-9.096-3.543-11.829-7.59l-44.734-66.237c-5.496-8.138-3.354-19.19,4.784-24.685
	c8.136-5.497,19.189-3.355,24.685,4.784l40.452,59.897l65.731,10.886c9.687,1.605,16.24,10.758,14.636,20.445
	C385.126,236.116,378.778,241.937,371.218,242.93z"/>
<path style="fill:#FFB69E;" d="M371.8,207.758l-5.81,35.082c9.7,1.607,18.845-4.962,20.446-14.636
	C388.04,218.516,381.487,209.362,371.8,207.758z"/>
<path style="fill:#1E2D64;" d="M251.319,284.702l-98.395-30.325l45.449-102.824c5.438-12.303,15.776-21.769,28.508-26.106
	c12.733-4.337,26.699-3.148,38.516,3.278l10.576,5.751c17.949,9.76,25.563,31.548,17.601,50.363L251.319,284.702z"/>
<circle style="fill:#FFB69E;" cx="318.664" cy="107.542" r="39.239"/>
<g>
	<path style="fill:#292D30;" d="M278.119,46.449c-2.591,3.794-2.055,5.694-1.018,8.956c0.379,1.191,0.191,2.77-2.882,3.748
		c-2.571,0.818-3.748,0.156-4.786-3.104c-1.716-5.394-0.15-8.722,1.17-10.869c1.51-2.414,4.404-5.476,3.326-8.862
		c-0.917-2.884-3.864-3.466-6.999-2.468c-6.395,2.035-3.48,6.425-6.866,7.502c-1.693,0.539-4.121,0.067-4.9-2.377
		c-1.078-3.387,1.215-9.639,9.679-12.333c8.027-2.554,14.773,0.203,16.648,6.097C283.366,38.633,279.394,44.594,278.119,46.449z
		 M282.023,66.752c0.818,2.571-0.596,5.507-3.292,6.363c-2.697,0.858-5.485-0.741-6.302-3.311c-0.837-2.634,0.597-5.508,3.231-6.345
		C278.292,62.622,281.185,64.118,282.023,66.752z"/>
	<path style="fill:#292D30;" d="M248.153,100.395c-0.192,2.154-2.201,3.883-4.356,3.69c-2.313-0.206-3.878-2.253-3.686-4.408
		c0.197-2.207,2.094-3.893,4.408-3.686C246.673,96.184,248.35,98.188,248.153,100.395z M248.045,90.319
		c-0.145,1.63-1.993,2.153-3.255,2.04c-1.682-0.15-3.04-0.961-2.894-2.589c0.559-6.254,0.625-15.307,1.184-21.562
		c0.183-2.05,1.968-3.055,4.123-2.863c2.05,0.183,3.682,1.494,3.499,3.543C250.141,75.144,248.603,84.066,248.045,90.319z"/>
</g>
<path style="fill:#414B82;" d="M329.527,299.274c-3.998,0-8.019-1.342-11.337-4.092l-63.776-52.867
	c-3.232-2.679-5.413-6.416-6.153-10.549l-14.717-82.054c-1.734-9.665,4.696-18.906,14.362-20.639
	c9.661-1.733,18.907,4.696,20.639,14.362l13.569,75.654l58.77,48.718c7.561,6.266,8.609,17.475,2.342,25.035
	C339.708,297.081,334.637,299.274,329.527,299.274z"/>
<path style="fill:#FFB69E;" d="M340.883,267.804l-22.693,27.377c7.568,6.274,18.775,5.21,25.035-2.341
	C349.492,285.28,348.443,274.072,340.883,267.804z"/>
<g>
	<path style="fill:#FFFFFF;" d="M310.391,288.717l7.799,6.464l22.712-27.359c-0.007-0.006-0.012-0.012-0.019-0.017l-7.761-6.434
		L310.391,288.717z"/>
	<polygon style="fill:#FFFFFF;" points="356.098,241.201 365.989,242.839 371.8,207.758 361.868,206.113 	"/>
</g>
<path style="fill:#80868C;" d="M429.013,261.301h-62.359c-5.726,0-10.368-4.642-10.368-10.367s4.642-10.367,10.368-10.367h56.217
	l31.262-57.061c2.751-5.021,9.052-6.863,14.073-4.111c5.022,2.751,6.863,9.052,4.112,14.073l-34.212,62.446
	C436.286,259.237,432.8,261.301,429.013,261.301z"/>
<g>
</g>
<g>
</g>
<g>
</g>
<g>
</g>
<g>
</g>
<g>
</g>
<g>
</g>
<g>
</g>
<g>
</g>
<g>
</g>
<g>
</g>
<g>
</g>
<g>
</g>
<g>
</g>
<g>
</g>
</svg>
