<?xml version="1.0" encoding="iso-8859-1"?>
<!-- Generator: Adobe Illustrator 19.0.0, SVG Export Plug-In . SVG Version: 6.00 Build 0)  -->
<svg version="1.1" id="Capa_1" xmlns="http://www.w3.org/2000/svg" xmlns:xlink="http://www.w3.org/1999/xlink" x="0px" y="0px"
	 viewBox="0 0 512 512" style="enable-background:new 0 0 512 512;" xml:space="preserve">
<g>
	<g>
		<path d="M512,138.887c0-59.924-48.752-108.676-108.676-108.676c-36.066,0-68.079,17.662-87.86,44.784
			c-19.232-5.739-39.2-8.651-59.469-8.651c-7.825,0-15.756,0.449-23.571,1.333c-0.022,0.002-0.044,0.002-0.066,0.005
			c-34.63,3.921-67.982,16.673-96.453,36.876c-27.914,19.809-50.718,46.432-65.945,76.991c-0.009,0.018-0.014,0.036-0.023,0.054
			c-0.194,0.389-0.389,0.795-0.583,1.192C28.809,198.586,0,238.043,0,284.105c0,38.186,20.425,74.024,53.306,93.532
			c0.002,0.001,0.005,0.003,0.007,0.005c9.425,5.589,19.625,9.691,30.226,12.206c38.734,57.643,102.876,91.942,172.455,91.942
			c74.685,0,143.982-40.403,180.85-105.442c3.142-5.545,6.023-11.231,8.548-16.869c12.166-26.913,18.334-55.649,18.334-85.412
			c0-14.172-1.455-28.297-4.299-42.101C491.874,212.361,512,176.785,512,138.887z M98.605,171.65c0.138-0.212,0.282-0.418,0.42-0.63
			c0.828-1.264,1.664-2.52,2.519-3.76c0.29-0.42,0.59-0.83,0.883-1.247c0.717-1.021,1.434-2.042,2.169-3.047
			c0.363-0.496,0.737-0.982,1.105-1.473c0.682-0.913,1.363-1.826,2.06-2.725c0.409-0.527,0.828-1.043,1.242-1.565
			c0.672-0.848,1.344-1.697,2.029-2.532c0.443-0.54,0.897-1.07,1.346-1.605c0.674-0.802,1.347-1.604,2.033-2.393
			c0.47-0.541,0.949-1.072,1.424-1.607c0.682-0.767,1.364-1.533,2.057-2.288c0.493-0.537,0.994-1.065,1.493-1.596
			c0.692-0.736,1.386-1.471,2.089-2.194c0.513-0.528,1.033-1.049,1.552-1.57c0.706-0.71,1.415-1.418,2.132-2.115
			c0.53-0.516,1.065-1.025,1.601-1.534c0.722-0.687,1.447-1.37,2.18-2.045c0.544-0.501,1.093-0.997,1.643-1.491
			c0.74-0.665,1.483-1.325,2.233-1.978c0.558-0.486,1.12-0.967,1.683-1.445c0.757-0.644,1.519-1.282,2.287-1.913
			c0.568-0.467,1.139-0.931,1.712-1.392c0.78-0.626,1.564-1.245,2.354-1.858c0.576-0.447,1.154-0.892,1.734-1.333
			c0.8-0.607,1.607-1.205,2.416-1.799c0.584-0.428,1.168-0.854,1.757-1.275c0.824-0.589,1.655-1.169,2.488-1.745
			c0.587-0.405,1.174-0.811,1.765-1.21c0.85-0.573,1.707-1.135,2.566-1.693c0.589-0.383,1.176-0.767,1.77-1.143
			c0.878-0.557,1.764-1.102,2.652-1.644c0.586-0.358,1.17-0.719,1.76-1.07c0.912-0.543,1.832-1.073,2.753-1.601
			c0.577-0.331,1.152-0.666,1.733-0.991c0.952-0.532,1.913-1.048,2.874-1.563c0.563-0.302,1.123-0.609,1.689-0.905
			c1.002-0.524,2.014-1.031,3.026-1.537c0.535-0.268,1.067-0.542,1.605-0.804c1.076-0.525,2.162-1.031,3.249-1.535
			c0.485-0.225,0.966-0.458,1.452-0.679c1.196-0.543,2.403-1.065,3.612-1.583c0.386-0.165,0.767-0.339,1.155-0.502
			c1.448-0.609,2.907-1.197,4.373-1.77c0.154-0.06,0.305-0.125,0.459-0.185c3.29-1.277,6.623-2.463,9.994-3.556
			c0.075-0.024,0.151-0.046,0.226-0.07c1.586-0.512,3.18-1.004,4.783-1.474c0.395-0.116,0.795-0.22,1.191-0.334
			c1.287-0.368,2.576-0.732,3.873-1.074c0.53-0.139,1.064-0.265,1.595-0.4c1.17-0.297,2.341-0.593,3.519-0.868
			c0.609-0.142,1.223-0.271,1.835-0.407c1.107-0.247,2.215-0.493,3.329-0.721c0.663-0.135,1.331-0.257,1.997-0.385
			c1.069-0.206,2.138-0.412,3.212-0.6c0.704-0.123,1.412-0.234,2.119-0.349c0.77-0.126,1.541-0.247,2.314-0.364l6.221,12.43
			c0.122,0.246,0.184,0.503,0.184,0.763v2.371c0,0.581-0.309,1.131-0.804,1.434l-9.552,5.836c-4.741,2.891-8.156,7.436-9.617,12.796
			l-12.234,44.867c-0.161,0.596-0.533,0.979-0.796,1.18c-0.287,0.219-0.762,0.48-1.391,0.48c-0.272,0-0.56-0.057-0.928-0.199
			l-7.121-2.681c-6.546-2.479-15.149-2.218-26.296,0.795c-7.887,2.128-14.379,7.153-18.392,13.828
			c-3.659-1.384-7.384-2.538-11.154-3.51c-0.044-0.011-0.087-0.022-0.13-0.033c-1.584-0.406-3.177-0.776-4.779-1.109
			c-0.26-0.054-0.52-0.108-0.781-0.16c-1.272-0.255-2.549-0.487-3.832-0.696c-0.544-0.089-1.088-0.177-1.635-0.258
			c-0.685-0.101-1.37-0.201-2.059-0.289c-1.113-0.143-2.231-0.266-3.354-0.375c-0.488-0.047-0.978-0.09-1.467-0.131
			c-1.286-0.108-2.577-0.196-3.876-0.258c-0.278-0.013-0.556-0.021-0.834-0.032c-1.469-0.059-2.943-0.098-4.426-0.098
			c-1.016,0-2.029,0.017-3.038,0.045c-0.342,0.009-0.682,0.027-1.024,0.039c-0.668,0.025-1.334,0.052-1.999,0.088
			c-0.412,0.023-0.823,0.051-1.234,0.078c-0.589,0.039-1.176,0.082-1.763,0.13c-0.447,0.037-0.893,0.077-1.34,0.119
			c-0.543,0.052-1.084,0.109-1.625,0.168c-0.3,0.033-0.602,0.058-0.902,0.093C96.681,174.66,97.633,173.147,98.605,171.65z
			 M48.416,343.885v5.227C30.57,332.488,20,308.907,20,284.105c0-39.51,25.975-73.062,61.744-84.49
			c0.243-0.077,0.485-0.158,0.729-0.233c0.579-0.179,1.16-0.352,1.743-0.52c0.504-0.144,1.009-0.281,1.515-0.417
			c0.714-0.191,1.432-0.374,2.153-0.548c0.552-0.133,1.105-0.261,1.66-0.383c0.426-0.094,0.851-0.191,1.28-0.279
			c0.882-0.18,1.767-0.344,2.654-0.497c0.379-0.066,0.759-0.128,1.14-0.189c0.822-0.131,1.646-0.25,2.472-0.358
			c0.272-0.035,0.543-0.072,0.815-0.105c0.094-0.011,0.189-0.021,0.284-0.033c0.879-0.104,1.761-0.195,2.644-0.272
			c0.197-0.017,0.394-0.037,0.592-0.053c0.128-0.01,0.256-0.018,0.384-0.027c0.891-0.068,1.783-0.123,2.678-0.165
			c0.308-0.014,0.616-0.028,0.924-0.039c1.087-0.039,2.175-0.067,3.266-0.067c0.809,0,1.615,0.013,2.42,0.034
			c0.392,0.011,0.782,0.029,1.173,0.045c0.389,0.015,0.778,0.029,1.166,0.049c0.538,0.029,1.075,0.064,1.61,0.102
			c0.212,0.015,0.424,0.029,0.636,0.045c0.658,0.052,1.314,0.109,1.968,0.175c0.048,0.005,0.097,0.01,0.145,0.015
			c34.089,3.497,62.516,26.381,74.047,57.41c0.097,0.263,0.194,0.527,0.289,0.791c0.148,0.41,0.293,0.821,0.435,1.233
			c0.209,0.611,0.413,1.224,0.609,1.839c0.037,0.115,0.076,0.229,0.112,0.345c1.868,5.963,3.109,12.13,3.691,18.372
			c0.007,0.079,0.014,0.158,0.021,0.236c0.068,0.751,0.124,1.503,0.173,2.255c0.011,0.179,0.024,0.357,0.034,0.536
			c0.04,0.675,0.069,1.352,0.094,2.028c0.007,0.203,0.017,0.405,0.023,0.608c0.025,0.852,0.039,1.704,0.039,2.556
			c0,6.955-0.797,13.799-2.357,20.432c-2.601,11.055-7.325,21.523-14.023,30.934c-1.297,1.823-1.933,4.008-1.845,6.202
			c0.029,0.731,0.139,1.464,0.332,2.184l6.759,25.231l-17.28-4.631v-20.571c0-14.784-8.851-27.532-21.527-33.247
			c8.964-9.528,14.474-22.341,14.474-36.425c0-29.342-23.871-53.213-53.213-53.213s-53.213,23.871-53.213,53.213
			c0,14.083,5.51,26.897,14.474,36.425C57.267,316.354,48.416,329.101,48.416,343.885z M141.893,274.213
			c0,18.314-14.899,33.213-33.213,33.213c-18.313,0-33.213-14.899-33.213-33.213c0-18.314,14.899-33.213,33.213-33.213
			C126.994,241.001,141.893,255.9,141.893,274.213z M104.863,372.698c-0.371-0.016-0.742-0.035-1.112-0.056
			c-0.995-0.055-1.987-0.128-2.978-0.215c-0.178-0.016-0.356-0.028-0.533-0.045c-0.297-0.028-0.593-0.061-0.89-0.092
			c-0.905-0.095-1.808-0.205-2.708-0.327c-0.121-0.017-0.243-0.032-0.364-0.049c-0.517-0.073-1.032-0.153-1.547-0.234
			c-0.629-0.099-1.256-0.208-1.881-0.321c-0.357-0.065-0.713-0.13-1.069-0.199c-0.346-0.067-0.693-0.13-1.038-0.201
			c-0.667-0.137-1.332-0.287-1.996-0.44c-0.244-0.056-0.49-0.106-0.734-0.165c-0.9-0.215-1.796-0.444-2.688-0.687
			c-0.248-0.068-0.493-0.143-0.74-0.212c-0.649-0.183-1.296-0.368-1.941-0.566c-0.34-0.104-0.678-0.216-1.016-0.324
			c-0.549-0.176-1.098-0.353-1.644-0.539c-0.363-0.124-0.725-0.254-1.087-0.382c-0.518-0.185-1.036-0.372-1.55-0.567
			c-0.369-0.139-0.736-0.281-1.103-0.425c-0.509-0.2-1.016-0.405-1.521-0.614c-0.36-0.149-0.719-0.298-1.077-0.452
			c-0.518-0.223-1.033-0.453-1.547-0.686c-0.337-0.153-0.675-0.303-1.011-0.46c-0.561-0.262-1.117-0.535-1.672-0.81
			c-0.281-0.139-0.565-0.273-0.845-0.415c-0.053-0.027-0.105-0.056-0.157-0.083v-19.245c0-9.075,7.383-16.458,16.458-16.458h47.617
			c9.075,0,16.458,7.383,16.458,16.458v19.234c-0.148,0.076-0.294,0.154-0.443,0.229c-0.377,0.19-0.756,0.375-1.136,0.559
			c-0.418,0.203-0.837,0.405-1.258,0.601c-0.384,0.179-0.771,0.354-1.158,0.527c-0.423,0.19-0.848,0.377-1.274,0.56
			c-0.389,0.167-0.78,0.331-1.171,0.492c-0.43,0.177-0.861,0.352-1.294,0.522c-0.393,0.155-0.787,0.307-1.183,0.456
			c-0.435,0.164-0.872,0.325-1.31,0.482c-0.398,0.143-0.798,0.284-1.198,0.422c-0.441,0.151-0.883,0.298-1.326,0.442
			c-0.4,0.13-0.801,0.259-1.204,0.384c-0.449,0.139-0.899,0.273-1.35,0.404c-0.402,0.118-0.804,0.235-1.208,0.347
			c-0.453,0.126-0.909,0.245-1.364,0.364c-0.405,0.105-0.81,0.211-1.217,0.311c-0.459,0.113-0.92,0.218-1.38,0.323
			c-0.406,0.093-0.812,0.187-1.219,0.274c-0.466,0.1-0.935,0.191-1.403,0.284c-0.404,0.08-0.809,0.161-1.214,0.235
			c-0.476,0.087-0.953,0.165-1.43,0.244c-0.401,0.066-0.801,0.135-1.203,0.196c-0.488,0.074-0.978,0.138-1.468,0.204
			c-0.392,0.053-0.784,0.11-1.177,0.157c-0.506,0.061-1.013,0.112-1.52,0.165c-0.38,0.039-0.759,0.084-1.139,0.118
			c-0.534,0.049-1.07,0.085-1.605,0.124c-0.354,0.026-0.707,0.057-1.062,0.079c-0.591,0.036-1.183,0.058-1.775,0.082
			c-0.301,0.012-0.601,0.031-0.902,0.04c-0.892,0.027-1.786,0.042-2.679,0.042C107.405,372.79,106.133,372.752,104.863,372.698z
			 M419.446,366.487c-33.323,58.785-95.953,95.303-163.451,95.303c-56.996,0-109.967-25.454-145.455-69.016
			c0.212-0.004,0.423-0.015,0.635-0.02c0.479-0.011,0.957-0.027,1.436-0.044c0.533-0.019,1.066-0.041,1.599-0.069
			c0.218-0.011,0.436-0.016,0.654-0.028c0.262-0.015,0.523-0.039,0.785-0.056c0.531-0.034,1.062-0.072,1.593-0.114
			c0.479-0.038,0.958-0.079,1.436-0.124c0.528-0.049,1.056-0.102,1.583-0.159c0.254-0.027,0.508-0.047,0.762-0.076
			c0.226-0.026,0.45-0.06,0.676-0.087c0.525-0.063,1.049-0.132,1.572-0.202c0.271-0.037,0.544-0.066,0.815-0.105
			c0.207-0.03,0.413-0.067,0.62-0.098c0.521-0.078,1.04-0.161,1.559-0.246c0.479-0.078,0.958-0.158,1.436-0.243
			c0.414-0.074,0.828-0.15,1.242-0.229c32.436,35.396,78.079,55.594,126.109,55.594c30.843,0,61.1-8.337,87.499-24.108
			c4.741-2.833,6.288-8.972,3.456-13.713c-2.832-4.741-8.972-6.289-13.713-3.456c-23.299,13.92-50.008,21.277-77.241,21.277
			c-39.112,0-76.435-15.182-104.479-42.069c0.101-0.042,0.202-0.084,0.303-0.126c0.479-0.202,0.953-0.415,1.43-0.624
			c0.448-0.196,0.898-0.386,1.342-0.588c0.453-0.206,0.901-0.424,1.351-0.636c0.453-0.213,0.908-0.42,1.358-0.639l0.011,0.003
			c0.001,0,0.003,0,0.004,0.001l40.417,10.838c0.04,0.011,0.081,0.021,0.121,0.032c0.443,0.113,0.89,0.194,1.337,0.248
			c0.157,0.019,0.313,0.017,0.47,0.029c0.264,0.02,0.529,0.049,0.793,0.049c0.029,0,0.059-0.004,0.088-0.004
			c0.102-0.001,0.202-0.011,0.304-0.015c0.317-0.012,0.633-0.036,0.946-0.076c0.136-0.017,0.27-0.038,0.405-0.061
			c0.298-0.05,0.593-0.113,0.885-0.188c0.114-0.029,0.228-0.053,0.341-0.086c0.102-0.03,0.203-0.062,0.304-0.095
			c10.737-1.792,19.596-9.092,23.36-19.406c7.934-21.734,46.149-67.853,60.204-83.788c0.826-0.937,1.47-2.02,1.897-3.194
			c4.96-13.621,4.823-27.639-0.385-39.472c-0.001-0.001-0.001-0.001-0.001-0.002c-3.467-7.872-12.827-13.662-47.238-16.338
			c-17.971-1.398-34.973-1.269-35.6-1.263c-0.963,0-1.886-0.057-2.792-0.148c-9.096-15.339-21.852-28.265-37.062-37.555
			c1.388-1.631,3.261-2.848,5.442-3.437c9.826-2.656,13.386-1.632,14.017-1.393l7.063,2.659c2.598,1.002,5.307,1.51,8.05,1.51
			c4.839,0,9.634-1.62,13.521-4.578c3.871-2.96,6.701-7.169,7.966-11.835l12.23-44.854c0.11-0.406,0.378-0.763,0.741-0.984
			l9.563-5.843c6.398-3.913,10.373-11.001,10.373-18.498v-2.371c0-3.331-0.787-6.675-2.287-9.689l-2.748-5.496
			c2.305-0.085,4.607-0.143,6.898-0.143c16.623,0,33.019,2.16,48.889,6.43c-2.792,5.955-5.021,12.148-6.685,18.497
			c-0.053,0.202-0.109,0.404-0.161,0.606c-0.14,0.546-0.27,1.093-0.401,1.641c-0.097,0.402-0.194,0.804-0.286,1.208
			c-0.102,0.45-0.199,0.901-0.295,1.353c-0.108,0.504-0.215,1.009-0.315,1.515c-0.079,0.394-0.154,0.789-0.228,1.185
			c-0.106,0.565-0.208,1.132-0.306,1.7c-0.061,0.359-0.121,0.719-0.179,1.079c-0.097,0.605-0.189,1.211-0.276,1.819
			c-0.048,0.337-0.097,0.673-0.142,1.011c-0.084,0.63-0.161,1.263-0.235,1.897c-0.038,0.323-0.077,0.647-0.111,0.971
			c-0.069,0.646-0.129,1.294-0.187,1.943c-0.028,0.317-0.059,0.633-0.085,0.95c-0.053,0.662-0.096,1.328-0.137,1.993
			c-0.019,0.304-0.042,0.608-0.058,0.913c-0.037,0.701-0.063,1.405-0.087,2.109c-0.009,0.269-0.024,0.538-0.031,0.808
			c-0.026,0.969-0.04,1.94-0.04,2.915c0,21.119,5.997,41.413,17.39,58.995l-9.771,36.479c-1.001,3.627,0.016,7.549,2.651,10.234
			c0.298,0.304,0.617,0.581,0.946,0.843c0.099,0.079,0.201,0.151,0.302,0.226c0.245,0.182,0.496,0.352,0.754,0.511
			c0.111,0.068,0.22,0.137,0.333,0.201c0.31,0.175,0.627,0.335,0.951,0.478c0.056,0.025,0.109,0.055,0.165,0.078
			c0.38,0.16,0.77,0.293,1.166,0.408c0.111,0.032,0.224,0.056,0.336,0.085c0.295,0.075,0.592,0.139,0.893,0.188
			c0.132,0.022,0.264,0.043,0.398,0.059c0.319,0.04,0.639,0.065,0.961,0.076c0.097,0.004,0.193,0.014,0.291,0.014
			c0.028,0,0.055,0.004,0.083,0.004c0.266,0,0.533-0.029,0.799-0.05c0.158-0.012,0.315-0.01,0.472-0.029
			c0.449-0.054,0.896-0.136,1.34-0.249c0.037-0.01,0.074-0.019,0.111-0.029l20.996-5.63c1.106,7.632,5.83,14.266,12.889,17.803
			l14.824,7.417c0.626,0.314,1.143,0.78,1.511,1.353l2.827,55.21c0.046,0.901,0.214,1.792,0.499,2.648
			c7.067,21.222,29.34,30.716,52.88,36.293C420.923,363.837,420.194,365.167,419.446,366.487z M217.276,280.006
			c-0.008-0.218-0.015-0.436-0.025-0.653c-0.061-1.404-0.147-2.802-0.261-4.192c0-0.001,0-0.002,0-0.003
			c-0.618-7.546-2.012-14.875-4.099-21.91v-0.001c-0.418-1.409-0.859-2.807-1.331-4.192c-0.007-0.019-0.012-0.039-0.019-0.058
			c26.664,0.221,52.469,3.168,58.472,6.771c2.473,6.417,2.476,14.047,0.014,21.779c-8.44,9.688-52.655,61.216-62.67,88.65
			c-0.209,0.573-0.464,1.118-0.762,1.631l-6.624-24.729c11.393-17.582,17.39-37.876,17.39-58.995
			C217.361,282.731,217.326,281.366,217.276,280.006z M443.666,278.866c-0.013,0.524-0.038,1.045-0.055,1.568
			c-0.035,1.072-0.072,2.144-0.125,3.212c-0.031,0.619-0.072,1.237-0.109,1.855c-0.058,0.973-0.118,1.946-0.191,2.916
			c-0.049,0.649-0.105,1.297-0.161,1.945c-0.08,0.938-0.164,1.876-0.258,2.812c-0.066,0.656-0.137,1.311-0.21,1.966
			c-0.104,0.932-0.214,1.862-0.331,2.791c-0.082,0.645-0.165,1.289-0.253,1.933c-0.13,0.947-0.269,1.891-0.413,2.835
			c-0.094,0.618-0.187,1.236-0.288,1.853c-0.162,0.994-0.337,1.985-0.515,2.975c-0.1,0.558-0.196,1.118-0.301,1.675
			c-0.213,1.126-0.442,2.247-0.676,3.368c-0.087,0.417-0.167,0.836-0.257,1.252c-0.671,3.11-1.421,6.201-2.252,9.273
			c-0.091,0.337-0.191,0.671-0.284,1.007c-0.328,1.185-0.662,2.369-1.014,3.548c-0.142,0.475-0.292,0.948-0.438,1.422
			c-0.319,1.039-0.642,2.077-0.98,3.111c-0.171,0.524-0.349,1.046-0.524,1.568c-0.33,0.982-0.666,1.962-1.012,2.939
			c-0.194,0.545-0.391,1.089-0.59,1.633c-0.348,0.952-0.703,1.901-1.067,2.849c-0.212,0.552-0.426,1.104-0.643,1.655
			c-0.148,0.376-0.305,0.749-0.456,1.124c-18.167-3.936-36.954-10.278-42.109-22.921l-2.842-55.508
			c-0.046-0.909-0.217-1.806-0.506-2.668c-2.016-6.011-6.249-10.888-11.928-13.736l-14.828-7.419
			c-1.293-0.647-2.096-1.943-2.096-3.382v-1.598c0.425,0.206,0.857,0.4,1.285,0.6c0.445,0.209,0.889,0.422,1.337,0.625
			c0.48,0.217,0.964,0.422,1.447,0.631c0.457,0.198,0.911,0.401,1.37,0.593c0.476,0.199,0.956,0.386,1.434,0.577
			c0.472,0.189,0.942,0.383,1.416,0.566c0.475,0.183,0.954,0.353,1.431,0.529c0.483,0.178,0.964,0.361,1.449,0.532
			c0.479,0.169,0.961,0.326,1.442,0.488c0.488,0.164,0.975,0.334,1.465,0.492c0.48,0.154,0.963,0.296,1.445,0.443
			c0.497,0.152,0.993,0.309,1.493,0.454c0.48,0.139,0.963,0.266,1.445,0.399c0.505,0.139,1.008,0.283,1.514,0.415
			c0.483,0.126,0.97,0.239,1.455,0.358c0.509,0.125,1.018,0.256,1.529,0.373c0.489,0.112,0.98,0.212,1.471,0.318
			c0.51,0.11,1.019,0.226,1.531,0.329c0.497,0.1,0.996,0.186,1.494,0.279c0.486,0.09,0.971,0.188,1.458,0.272
			c0.023,0.004,0.047,0.007,0.071,0.011c0.501,0.086,1.005,0.159,1.508,0.238c0.51,0.08,1.018,0.166,1.529,0.239
			c0.525,0.075,1.051,0.136,1.577,0.203c0.491,0.063,0.981,0.132,1.473,0.188c0.559,0.064,1.12,0.113,1.68,0.168
			c0.461,0.045,0.921,0.098,1.382,0.137c0.585,0.05,1.172,0.085,1.758,0.126c0.439,0.03,0.877,0.069,1.316,0.094
			c0.652,0.037,1.305,0.059,1.957,0.084c0.374,0.015,0.748,0.037,1.123,0.048c1.028,0.029,2.056,0.044,3.086,0.044
			c1.421,0,2.84-0.036,4.256-0.092c0.197-0.007,0.395-0.004,0.592-0.013c0.389-0.017,0.773-0.055,1.16-0.075
			c0.763-0.042,1.525-0.09,2.285-0.149c0.793-0.059,1.586-0.123,2.376-0.199c0.084-0.008,0.168-0.013,0.252-0.021
			c0.253-0.025,0.505-0.062,0.758-0.089c8.178-0.866,16.155-2.648,23.882-5.335c0.028-0.01,0.056-0.018,0.084-0.028
			c0.021-0.007,0.041-0.016,0.062-0.023c0.591-0.206,1.186-0.393,1.774-0.61c1.941,10.899,2.922,21.999,2.922,33.129
			C443.728,275.671,443.705,277.27,443.666,278.866z M379.511,182.211h47.617c9.075,0,16.458,7.383,16.458,16.458v19.246
			c-0.051,0.026-0.102,0.055-0.153,0.081c-0.286,0.145-0.576,0.282-0.863,0.424c-0.55,0.271-1.1,0.542-1.655,0.801
			c-0.338,0.158-0.679,0.31-1.019,0.464c-0.511,0.231-1.022,0.46-1.537,0.681c-0.361,0.155-0.723,0.306-1.086,0.456
			c-0.503,0.209-1.008,0.413-1.515,0.612c-0.367,0.144-0.735,0.286-1.104,0.426c-0.515,0.194-1.032,0.382-1.55,0.566
			c-0.362,0.129-0.724,0.259-1.087,0.383c-0.545,0.186-1.093,0.363-1.642,0.539c-0.339,0.108-0.677,0.221-1.018,0.325
			c-0.644,0.198-1.292,0.383-1.941,0.566c-0.247,0.07-0.491,0.145-0.739,0.212c-0.893,0.243-1.789,0.472-2.689,0.688
			c-0.24,0.057-0.482,0.107-0.723,0.162c-0.667,0.154-1.336,0.304-2.007,0.442c-0.342,0.071-0.686,0.133-1.029,0.2
			c-0.574,0.111-1.148,0.221-1.725,0.32c-0.374,0.065-0.749,0.124-1.124,0.184c-0.551,0.088-1.103,0.173-1.656,0.251
			c-0.385,0.054-0.771,0.105-1.156,0.154c-0.551,0.07-1.103,0.135-1.656,0.195c-0.383,0.042-0.765,0.083-1.149,0.119
			c-0.57,0.054-1.142,0.1-1.714,0.144c-0.364,0.028-0.728,0.058-1.093,0.081c-0.628,0.04-1.258,0.068-1.888,0.095
			c-0.309,0.013-0.617,0.031-0.926,0.041c-0.938,0.03-1.877,0.047-2.817,0.047c-0.894,0-1.787-0.014-2.679-0.041
			c-0.301-0.009-0.601-0.028-0.902-0.04c-0.592-0.024-1.184-0.047-1.775-0.082c-0.354-0.021-0.708-0.053-1.062-0.079
			c-0.535-0.039-1.071-0.076-1.605-0.124c-0.38-0.035-0.759-0.079-1.139-0.118c-0.507-0.053-1.014-0.103-1.52-0.165
			c-0.393-0.048-0.785-0.104-1.177-0.157c-0.49-0.066-0.979-0.13-1.468-0.204c-0.402-0.061-0.802-0.13-1.203-0.197
			c-0.477-0.079-0.954-0.157-1.43-0.244c-0.406-0.074-0.81-0.156-1.214-0.235c-0.468-0.092-0.936-0.184-1.403-0.284
			c-0.407-0.087-0.813-0.181-1.219-0.274c-0.461-0.105-0.921-0.211-1.38-0.323c-0.407-0.1-0.811-0.205-1.216-0.311
			c-0.456-0.119-0.911-0.238-1.364-0.364c-0.404-0.112-0.806-0.229-1.208-0.347c-0.451-0.132-0.901-0.265-1.349-0.404
			c-0.402-0.125-0.803-0.254-1.204-0.384c-0.443-0.144-0.885-0.291-1.326-0.442c-0.401-0.137-0.8-0.278-1.198-0.422
			c-0.438-0.157-0.875-0.318-1.31-0.482c-0.395-0.149-0.79-0.301-1.183-0.456c-0.433-0.17-0.864-0.345-1.294-0.522
			c-0.391-0.161-0.782-0.325-1.171-0.492c-0.427-0.183-0.851-0.371-1.275-0.561c-0.387-0.174-0.773-0.348-1.158-0.527
			c-0.421-0.196-0.84-0.398-1.258-0.601c-0.38-0.184-0.759-0.369-1.136-0.559c-0.148-0.075-0.295-0.153-0.443-0.229V198.67
			C363.053,189.592,370.436,182.211,379.511,182.211z M370.107,128.996c0-18.313,14.9-33.213,33.213-33.213
			s33.213,14.899,33.213,33.213s-14.9,33.213-33.213,33.213C385.006,162.209,370.107,147.309,370.107,128.996z M463.586,203.895
			v-5.227c0-14.784-8.85-27.531-21.527-33.247c8.964-9.528,14.474-22.342,14.474-36.426c0-29.342-23.871-53.213-53.213-53.213
			c-29.342,0-53.213,23.871-53.213,53.213c0,14.084,5.51,26.897,14.474,36.425c-12.677,5.716-21.527,18.463-21.527,33.247v20.571
			l-17.28,4.631l6.759-25.231c0.772-2.881,0.217-5.956-1.512-8.386c-10.047-14.117-15.653-30.61-16.314-47.898
			c-0.044-1.152-0.066-2.309-0.066-3.468c0-0.935,0.019-1.868,0.049-2.8c0.008-0.257,0.019-0.512,0.029-0.768
			c0.029-0.733,0.067-1.464,0.114-2.194c0.014-0.22,0.026-0.441,0.042-0.661c0.067-0.933,0.147-1.865,0.243-2.793
			c0.012-0.114,0.027-0.227,0.039-0.34c0.087-0.811,0.187-1.621,0.297-2.428c0.034-0.253,0.07-0.507,0.107-0.759
			c0.107-0.742,0.224-1.482,0.35-2.22c0.033-0.19,0.061-0.382,0.095-0.572c0.152-0.86,0.32-1.717,0.497-2.571
			c0.07-0.334,0.145-0.667,0.218-1c0.115-0.525,0.236-1.048,0.361-1.571c0.1-0.416,0.199-0.832,0.305-1.245
			c0.101-0.397,0.21-0.792,0.317-1.188c0.264-0.977,0.541-1.949,0.838-2.912c0.041-0.135,0.081-0.27,0.123-0.405
			c11.273-36.029,44.963-62.247,84.662-62.247C452.22,50.211,492,89.991,492,138.887C492,163.689,481.429,187.272,463.586,203.895z"
			/>
	</g>
</g>
<g>
	<g>
		<path d="M381.661,387.321c-0.131-0.63-0.321-1.26-0.571-1.87c-0.25-0.6-0.56-1.18-0.92-1.72c-0.37-0.55-0.79-1.06-1.25-1.52
			c-0.46-0.46-0.97-0.88-1.52-1.25c-0.54-0.36-1.12-0.67-1.72-0.92c-0.61-0.25-1.24-0.44-1.87-0.57c-1.29-0.26-2.62-0.26-3.91,0
			c-0.64,0.13-1.27,0.32-1.87,0.57c-0.61,0.25-1.19,0.56-1.73,0.92c-0.55,0.37-1.06,0.79-1.52,1.25c-0.46,0.46-0.88,0.97-1.24,1.52
			c-0.36,0.54-0.67,1.12-0.92,1.72c-0.25,0.61-0.44,1.24-0.57,1.87c-0.13,0.65-0.2,1.31-0.2,1.96c0,0.65,0.07,1.31,0.2,1.95
			s0.32,1.27,0.57,1.87c0.25,0.61,0.56,1.19,0.92,1.73c0.36,0.55,0.78,1.06,1.24,1.52c0.46,0.46,0.97,0.88,1.52,1.24
			c0.54,0.36,1.12,0.67,1.73,0.92c0.6,0.25,1.23,0.44,1.87,0.57s1.3,0.2,1.95,0.2c0.65,0,1.31-0.07,1.961-0.2
			c0.63-0.13,1.26-0.32,1.87-0.57c0.6-0.25,1.18-0.56,1.72-0.92c0.55-0.36,1.06-0.78,1.52-1.24c0.46-0.46,0.88-0.97,1.25-1.52
			c0.36-0.54,0.67-1.12,0.92-1.73c0.25-0.6,0.44-1.23,0.57-1.87s0.19-1.3,0.19-1.95C381.851,388.631,381.791,387.97,381.661,387.321
			z"/>
	</g>
</g>
<g>
</g>
<g>
</g>
<g>
</g>
<g>
</g>
<g>
</g>
<g>
</g>
<g>
</g>
<g>
</g>
<g>
</g>
<g>
</g>
<g>
</g>
<g>
</g>
<g>
</g>
<g>
</g>
<g>
</g>
</svg>
