<?xml version="1.0" encoding="iso-8859-1"?>
<!-- Generator: Adobe Illustrator 18.0.0, SVG Export Plug-In . SVG Version: 6.00 Build 0)  -->
<!DOCTYPE svg PUBLIC "-//W3C//DTD SVG 1.1//EN" "http://www.w3.org/Graphics/SVG/1.1/DTD/svg11.dtd">
<svg version="1.1" id="Capa_1" xmlns="http://www.w3.org/2000/svg" xmlns:xlink="http://www.w3.org/1999/xlink" x="0px" y="0px"
	 viewBox="0 0 60 60" style="enable-background:new 0 0 60 60;" xml:space="preserve">
<g>
	<polygon style="fill:#71C285;" points="3,48 12,39 18,47 25,32 31,40 42,23 48,31 59,14 59,57 3,57 	"/>
	<polygon style="fill:#F0C419;" points="18.201,48.935 11.892,40.522 3.707,48.707 2.293,47.293 12.108,37.478 17.799,45.065 
		24.799,30.065 30.939,38.253 41.939,21.253 47.939,29.253 58.16,13.457 59.84,14.543 48.061,32.747 42.061,24.747 31.061,41.747 
		25.201,33.935 	"/>
	<path style="fill:#8697CB;" d="M3,60c-0.553,0-1-0.447-1-1V1c0-0.553,0.447-1,1-1s1,0.447,1,1v58C4,59.553,3.553,60,3,60z"/>
	<path style="fill:#8697CB;" d="M59,58H1c-0.553,0-1-0.447-1-1s0.447-1,1-1h58c0.553,0,1,0.447,1,1S59.553,58,59,58z"/>
	<path style="fill:#8697CB;" d="M9,29H7c-0.553,0-1-0.447-1-1s0.447-1,1-1h2c0.553,0,1,0.447,1,1S9.553,29,9,29z"/>
	<path style="fill:#8697CB;" d="M9,25H7c-0.553,0-1-0.447-1-1s0.447-1,1-1h2c0.553,0,1,0.447,1,1S9.553,25,9,25z"/>
	<path style="fill:#8697CB;" d="M9,21H7c-0.553,0-1-0.447-1-1s0.447-1,1-1h2c0.553,0,1,0.447,1,1S9.553,21,9,21z"/>
	<path style="fill:#8697CB;" d="M9,17H7c-0.553,0-1-0.447-1-1s0.447-1,1-1h2c0.553,0,1,0.447,1,1S9.553,17,9,17z"/>
	<path style="fill:#8697CB;" d="M9,13H7c-0.553,0-1-0.447-1-1s0.447-1,1-1h2c0.553,0,1,0.447,1,1S9.553,13,9,13z"/>
	<path style="fill:#8697CB;" d="M9,9H7C6.447,9,6,8.553,6,8s0.447-1,1-1h2c0.553,0,1,0.447,1,1S9.553,9,9,9z"/>
	<path style="fill:#8697CB;" d="M9,5H7C6.447,5,6,4.553,6,4s0.447-1,1-1h2c0.553,0,1,0.447,1,1S9.553,5,9,5z"/>
</g>
<g>
</g>
<g>
</g>
<g>
</g>
<g>
</g>
<g>
</g>
<g>
</g>
<g>
</g>
<g>
</g>
<g>
</g>
<g>
</g>
<g>
</g>
<g>
</g>
<g>
</g>
<g>
</g>
<g>
</g>
</svg>
