<?xml version="1.0" encoding="iso-8859-1"?>
<!-- Generator: Adobe Illustrator 19.0.0, SVG Export Plug-In . SVG Version: 6.00 Build 0)  -->
<svg version="1.1" id="Capa_1" xmlns="http://www.w3.org/2000/svg" xmlns:xlink="http://www.w3.org/1999/xlink" x="0px" y="0px"
	 viewBox="0 0 512 512" style="enable-background:new 0 0 512 512;" xml:space="preserve">
<g>
	<g>
		<path d="M137.803,392.353h-15.33c-5.545,0-10.039,4.496-10.039,10.039v30.66v32.868c0,5.544,4.495,10.039,10.039,10.039
			c5.545,0,10.039-4.496,10.039-10.039v-22.829h5.291c13.989,0,25.369-11.38,25.369-25.37
			C163.172,403.733,151.792,392.353,137.803,392.353z M137.803,423.012h-5.291v-10.581h5.291c2.917,0,5.291,2.373,5.291,5.291
			S140.72,423.012,137.803,423.012z"/>
	</g>
</g>
<g>
	<g>
		<path d="M203.778,442.137c10.658-3.005,18.495-12.809,18.495-24.415c0-13.989-11.38-25.369-25.369-25.369h-15.33
			c-5.545,0-10.039,4.496-10.039,10.039v30.66v32.868c0,5.544,4.495,10.039,10.039,10.039s10.039-4.496,10.039-10.039v-7.388
			l13.28,14.236c1.977,2.119,4.657,3.191,7.343,3.191c2.453,0,4.911-0.893,6.846-2.699c4.055-3.783,4.275-10.135,0.493-14.189
			L203.778,442.137z M196.904,423.013h-5.291v-10.582h5.291c2.917,0,5.291,2.373,5.291,5.291
			C202.195,420.639,199.822,423.013,196.904,423.013z"/>
	</g>
</g>
<g>
	<g>
		<path d="M271.335,444.195c5.545,0,10.039-4.496,10.039-10.039s-4.495-10.039-10.039-10.039h-20.621v-11.686h20.621v0
			c5.545,0,10.039-4.496,10.039-10.039c0-5.544-4.495-10.039-10.039-10.039h-30.66c-5.545,0-10.039,4.496-10.039,10.039v63.528
			c0,5.544,4.495,10.039,10.039,10.039h30.66c5.545,0,10.039-4.496,10.039-10.039s-4.495-10.039-10.039-10.039h-20.621v-11.686
			H271.335z"/>
	</g>
</g>
<g>
	<g>
		<path d="M315.106,423.685c-2.917,0-5.291-2.373-5.291-5.292c0-2.911,2.373-5.281,5.291-5.281c2.127,0,4.039,1.269,4.871,3.232
			c2.161,5.106,8.052,7.491,13.158,5.332c5.105-2.161,7.492-8.052,5.331-13.158c-3.982-9.405-13.151-15.482-23.36-15.482
			c-13.989,0-25.369,11.375-25.369,25.359c0,13.99,11.38,25.37,25.369,25.37c2.911,0,5.281,2.373,5.281,5.291
			c0,2.911-2.368,5.281-5.281,5.281c-2.285,0-4.304-1.449-5.023-3.606c-1.753-5.26-7.439-8.103-12.699-6.35
			c-5.26,1.754-8.103,7.439-6.35,12.699c3.456,10.369,13.129,17.336,24.071,17.336c13.983,0,25.359-11.375,25.359-25.359
			C340.465,435.065,329.088,423.685,315.106,423.685z"/>
	</g>
</g>
<g>
	<g>
		<path d="M374.197,423.686c-2.911,0-5.281-2.373-5.281-5.292c0-2.911,2.368-5.281,5.281-5.281c2.133,0,4.049,1.269,4.88,3.232
			c2.161,5.106,8.052,7.491,13.158,5.332c5.106-2.161,7.493-8.052,5.332-13.158c-3.982-9.405-13.154-15.482-23.37-15.482
			c-13.983-0.001-25.359,11.374-25.359,25.358c0,13.99,11.376,25.37,25.359,25.37c2.917,0,5.291,2.373,5.291,5.291
			c0,2.911-2.373,5.281-5.291,5.281c-2.28,0-4.294-1.449-5.013-3.606c-1.753-5.26-7.44-8.103-12.699-6.35
			c-5.26,1.754-8.103,7.439-6.35,12.699c3.456,10.369,13.125,17.336,24.061,17.336c13.989,0,25.369-11.375,25.369-25.359
			C399.566,435.066,388.185,423.686,374.197,423.686z"/>
	</g>
</g>
<g>
	<g>
		<path d="M387.137,44.474h-92.742V38.39c0-10.256-3.993-19.897-11.244-27.148C275.901,3.993,266.26,0,256.005,0
			c-21.169,0-38.39,17.221-38.39,38.39v6.084h-92.752c-37.853,0-68.648,30.795-68.648,68.648v330.23
			c0,37.853,30.795,68.648,68.648,68.648h262.275c37.853,0,68.648-30.795,68.648-68.648v-330.23
			C455.785,75.269,424.99,44.474,387.137,44.474z M237.693,38.39c0-10.097,8.215-18.312,18.312-18.312
			c4.893,0,9.492,1.903,12.95,5.361c3.458,3.458,5.362,8.057,5.362,12.951v40.98h-36.623V38.39z M227.654,99.448h56.701h25.279
			v18.343H202.376V99.448H227.654z M435.707,443.352c0,26.782-21.788,48.57-48.57,48.57H124.863c-26.782,0-48.57-21.788-48.57-48.57
			v-330.23c0-26.782,21.788-48.57,48.57-48.57h92.752V79.37h-25.279c-5.545,0-10.039,4.496-10.039,10.039v38.421
			c0,5.544,4.495,10.039,10.039,10.039h127.337c5.545,0,10.039-4.496,10.039-10.039V89.409c0-5.544-4.495-10.039-10.039-10.039
			h-25.279V64.552h92.742c26.782,0,48.57,21.788,48.57,48.57V443.352z"/>
	</g>
</g>
<g>
	<g>
		<path d="M286.831,261.479c7.368-7.682,11.911-18.095,11.911-29.554c0-23.56-19.172-42.727-42.737-42.727
			c-23.565,0-42.737,19.167-42.737,42.727c0,11.46,4.543,21.872,11.911,29.554c-24.621,11.61-41.707,36.661-41.707,65.637
			c0,5.544,4.495,10.039,10.039,10.039h124.988c5.545,0,10.039-4.496,10.039-10.039C328.538,298.141,311.453,273.09,286.831,261.479
			z M256.005,209.278c12.494,0,22.659,10.16,22.659,22.648c0,12.494-10.165,22.659-22.659,22.659
			c-12.494,0-22.659-10.165-22.659-22.659C233.346,219.438,243.511,209.278,256.005,209.278z M204.514,317.079
			c4.696-24.139,26-42.416,51.491-42.416c25.492,0,46.795,18.276,51.491,42.416H204.514z"/>
	</g>
</g>
<g>
	<g>
		<path d="M371.667,153.781H140.343c-5.545,0-10.039,4.495-10.039,10.039v201.608c0,5.544,4.495,10.039,10.039,10.039h231.324
			c5.545,0,10.039-4.496,10.039-10.039V163.82C381.706,158.276,377.211,153.781,371.667,153.781z M361.628,355.388H150.382V173.859
			h211.245V355.388z"/>
	</g>
</g>
<g>
	<g>
		<path d="M409.605,186.398c-5.545,0-10.039,4.496-10.039,10.039v61.571c0,5.544,4.495,10.039,10.039,10.039
			s10.039-4.496,10.039-10.039v-61.571C419.644,190.894,415.15,186.398,409.605,186.398z"/>
	</g>
</g>
<g>
	<g>
		<path d="M409.605,157.455c-12.919,0-12.941,20.078,0,20.078C422.524,177.534,422.546,157.455,409.605,157.455z"/>
	</g>
</g>
<g>
</g>
<g>
</g>
<g>
</g>
<g>
</g>
<g>
</g>
<g>
</g>
<g>
</g>
<g>
</g>
<g>
</g>
<g>
</g>
<g>
</g>
<g>
</g>
<g>
</g>
<g>
</g>
<g>
</g>
</svg>
