<svg xmlns="http://www.w3.org/2000/svg" xmlns:xlink="http://www.w3.org/1999/xlink" width="500" zoomAndPan="magnify" viewBox="0 0 375 374.999991" height="500" preserveAspectRatio="xMidYMid meet" version="1.0"><defs><g/><clipPath id="67ad83e2fd"><path d="M 324.277344 186.152344 L 337.527344 186.152344 L 337.527344 199.402344 L 324.277344 199.402344 Z M 324.277344 186.152344 " clip-rule="nonzero"/></clipPath><clipPath id="d2490a6174"><path d="M 336.640625 199.375 L 325.136719 199.375 C 324.664062 199.375 324.277344 198.988281 324.277344 198.515625 L 324.277344 187.011719 C 324.277344 186.539062 324.664062 186.152344 325.136719 186.152344 L 336.640625 186.152344 C 337.113281 186.152344 337.5 186.539062 337.5 187.011719 L 337.5 198.515625 C 337.5 198.988281 337.113281 199.375 336.640625 199.375 " clip-rule="nonzero"/></clipPath></defs><g clip-path="url(#67ad83e2fd)"><g clip-path="url(#d2490a6174)"><path fill="#ffffff" d="M 324.277344 186.152344 L 337.527344 186.152344 L 337.527344 199.402344 L 324.277344 199.402344 Z M 324.277344 186.152344 " fill-opacity="1" fill-rule="nonzero"/></g></g><g fill="#ffffff" fill-opacity="1"><g transform="translate(37.500002, 204.172986)"><g><path d="M 1.3125 -18.390625 C 1.3125 -21.210938 1.726562 -23.847656 2.5625 -26.296875 C 3.40625 -28.773438 4.628906 -30.921875 6.234375 -32.734375 C 7.835938 -34.585938 9.789062 -36.019531 12.09375 -37.03125 C 13.25 -37.550781 14.476562 -37.941406 15.78125 -38.203125 C 17.09375 -38.460938 18.46875 -38.59375 19.90625 -38.59375 C 21.332031 -38.59375 22.703125 -38.460938 24.015625 -38.203125 C 25.328125 -37.941406 26.554688 -37.535156 27.703125 -36.984375 C 28.859375 -36.453125 29.925781 -35.816406 30.90625 -35.078125 C 31.882812 -34.347656 32.773438 -33.515625 33.578125 -32.578125 C 35.179688 -30.765625 36.421875 -28.632812 37.296875 -26.1875 C 38.128906 -23.738281 38.546875 -21.132812 38.546875 -18.375 C 38.546875 -15.625 38.128906 -13.023438 37.296875 -10.578125 C 37.015625 -9.773438 36.6875 -8.988281 36.3125 -8.21875 C 35.945312 -7.457031 35.535156 -6.734375 35.078125 -6.046875 C 34.628906 -5.367188 34.144531 -4.710938 33.625 -4.078125 C 32.820312 -3.140625 31.921875 -2.300781 30.921875 -1.5625 C 29.929688 -0.832031 28.878906 -0.207031 27.765625 0.3125 C 25.453125 1.394531 22.828125 1.9375 19.890625 1.9375 C 16.960938 1.9375 14.347656 1.394531 12.046875 0.3125 C 11.484375 0.03125 10.941406 -0.265625 10.421875 -0.578125 C 9.898438 -0.890625 9.394531 -1.226562 8.90625 -1.59375 C 8.414062 -1.957031 7.941406 -2.347656 7.484375 -2.765625 C 7.035156 -3.191406 6.617188 -3.628906 6.234375 -4.078125 C 4.628906 -5.929688 3.40625 -8.097656 2.5625 -10.578125 C 1.726562 -13.023438 1.3125 -15.628906 1.3125 -18.390625 Z M 9.015625 -18.390625 C 9.015625 -17.515625 9.070312 -16.648438 9.1875 -15.796875 C 9.3125 -14.941406 9.492188 -14.09375 9.734375 -13.25 C 10.015625 -12.445312 10.328125 -11.6875 10.671875 -10.96875 C 11.023438 -10.257812 11.445312 -9.585938 11.9375 -8.953125 C 12.082031 -8.742188 12.238281 -8.550781 12.40625 -8.375 C 12.582031 -8.207031 12.757812 -8.035156 12.9375 -7.859375 C 13.113281 -7.679688 13.296875 -7.503906 13.484375 -7.328125 C 13.679688 -7.160156 13.882812 -7.003906 14.09375 -6.859375 C 14.300781 -6.722656 14.507812 -6.582031 14.71875 -6.4375 C 14.925781 -6.300781 15.132812 -6.160156 15.34375 -6.015625 C 16.675781 -5.316406 18.195312 -4.96875 19.90625 -4.96875 C 20.53125 -4.96875 21.117188 -5.003906 21.671875 -5.078125 C 22.234375 -5.148438 22.757812 -5.265625 23.25 -5.421875 C 23.738281 -5.578125 24.191406 -5.757812 24.609375 -5.96875 C 25.972656 -6.632812 27.109375 -7.539062 28.015625 -8.6875 C 28.328125 -9.070312 28.601562 -9.484375 28.84375 -9.921875 C 29.09375 -10.359375 29.320312 -10.828125 29.53125 -11.328125 C 29.75 -11.835938 29.941406 -12.359375 30.109375 -12.890625 C 30.597656 -14.597656 30.84375 -16.429688 30.84375 -18.390625 C 30.84375 -20.128906 30.582031 -21.800781 30.0625 -23.40625 C 29.570312 -25.019531 28.835938 -26.453125 27.859375 -27.703125 C 26.921875 -28.929688 25.785156 -29.910156 24.453125 -30.640625 C 23.128906 -31.335938 21.613281 -31.6875 19.90625 -31.6875 C 19.488281 -31.6875 19.066406 -31.664062 18.640625 -31.625 C 18.222656 -31.59375 17.820312 -31.53125 17.4375 -31.4375 C 17.050781 -31.351562 16.679688 -31.25 16.328125 -31.125 C 15.984375 -31.007812 15.65625 -30.863281 15.34375 -30.6875 C 14.644531 -30.375 14.015625 -29.988281 13.453125 -29.53125 C 12.898438 -29.082031 12.394531 -28.5625 11.9375 -27.96875 C 11 -26.78125 10.265625 -25.382812 9.734375 -23.78125 C 9.253906 -22.101562 9.015625 -20.304688 9.015625 -18.390625 Z M 9.015625 -18.390625 "/></g></g></g><g fill="#ffffff" fill-opacity="1"><g transform="translate(77.354347, 204.172986)"><g><path d="M 10.0625 -26.140625 C 10.332031 -26.410156 10.609375 -26.648438 10.890625 -26.859375 C 11.171875 -27.078125 11.46875 -27.269531 11.78125 -27.4375 C 13.53125 -28.59375 15.570312 -29.171875 17.90625 -29.171875 C 19.625 -29.171875 21.144531 -28.898438 22.46875 -28.359375 C 23.789062 -27.816406 24.910156 -27.003906 25.828125 -25.921875 C 27.535156 -23.828125 28.390625 -21.101562 28.390625 -17.75 L 28.390625 1.3125 L 21.0625 1.3125 L 21.0625 -17.234375 C 21.0625 -17.828125 21.015625 -18.367188 20.921875 -18.859375 C 20.835938 -19.347656 20.71875 -19.78125 20.5625 -20.15625 C 20.40625 -20.539062 20.203125 -20.875 19.953125 -21.15625 C 19.742188 -21.4375 19.507812 -21.671875 19.25 -21.859375 C 18.988281 -22.054688 18.679688 -22.195312 18.328125 -22.28125 C 17.984375 -22.375 17.582031 -22.421875 17.125 -22.421875 C 16.5 -22.421875 15.867188 -22.296875 15.234375 -22.046875 C 14.578125 -21.804688 13.929688 -21.457031 13.296875 -21 C 12.671875 -20.507812 12.078125 -19.96875 11.515625 -19.375 C 11.304688 -19.09375 11.078125 -18.800781 10.828125 -18.5 C 10.585938 -18.207031 10.382812 -17.925781 10.21875 -17.65625 L 10.21875 1.3125 L 2.875 1.3125 L 2.875 -28.546875 L 10.0625 -28.546875 Z M 10.0625 -26.140625 "/></g></g></g><g fill="#ffffff" fill-opacity="1"><g transform="translate(108.357992, 204.172986)"><g><path d="M 8.75 -10.375 C 9.132812 -8.832031 9.796875 -7.59375 10.734375 -6.65625 C 11.953125 -5.46875 13.59375 -4.875 15.65625 -4.875 C 16.144531 -4.875 16.613281 -4.890625 17.0625 -4.921875 C 17.519531 -4.953125 17.957031 -5.003906 18.375 -5.078125 C 18.800781 -5.148438 19.207031 -5.238281 19.59375 -5.34375 C 19.976562 -5.445312 20.359375 -5.554688 20.734375 -5.671875 C 21.117188 -5.796875 21.492188 -5.925781 21.859375 -6.0625 C 22.234375 -6.207031 22.613281 -6.367188 23 -6.546875 L 24.359375 -7.171875 L 24.765625 -5.703125 L 25.875 -1.671875 L 26.1875 -0.578125 L 25.1875 -0.109375 C 23.832031 0.523438 22.316406 1.015625 20.640625 1.359375 C 19.796875 1.566406 18.910156 1.710938 17.984375 1.796875 C 17.066406 1.890625 16.097656 1.9375 15.078125 1.9375 C 12.953125 1.9375 11.015625 1.585938 9.265625 0.890625 C 7.523438 0.160156 6.039062 -0.882812 4.8125 -2.25 C 3.59375 -3.582031 2.648438 -5.222656 1.984375 -7.171875 C 1.359375 -9.054688 1.046875 -11.207031 1.046875 -13.625 C 1.046875 -15.78125 1.359375 -17.800781 1.984375 -19.6875 C 2.335938 -20.632812 2.738281 -21.523438 3.1875 -22.359375 C 3.644531 -23.203125 4.171875 -23.972656 4.765625 -24.671875 C 5.953125 -26.066406 7.382812 -27.164062 9.0625 -27.96875 C 10.738281 -28.769531 12.609375 -29.171875 14.671875 -29.171875 C 15.367188 -29.171875 16.039062 -29.125 16.6875 -29.03125 C 17.332031 -28.945312 17.957031 -28.828125 18.5625 -28.671875 C 19.175781 -28.515625 19.765625 -28.316406 20.328125 -28.078125 C 21.160156 -27.691406 21.914062 -27.242188 22.59375 -26.734375 C 23.28125 -26.234375 23.898438 -25.648438 24.453125 -24.984375 C 25.535156 -23.691406 26.359375 -22.207031 26.921875 -20.53125 C 27.160156 -19.695312 27.347656 -18.832031 27.484375 -17.9375 C 27.628906 -17.050781 27.703125 -16.148438 27.703125 -15.234375 C 27.703125 -14.992188 27.703125 -14.75 27.703125 -14.5 C 27.703125 -14.257812 27.691406 -14.007812 27.671875 -13.75 C 27.660156 -13.488281 27.65625 -13.234375 27.65625 -12.984375 C 27.65625 -12.742188 27.644531 -12.507812 27.625 -12.28125 C 27.613281 -12.050781 27.585938 -11.816406 27.546875 -11.578125 L 27.4375 -10.375 Z M 14.5625 -22.46875 C 12.882812 -22.46875 11.519531 -21.910156 10.46875 -20.796875 C 10.050781 -20.335938 9.6875 -19.773438 9.375 -19.109375 C 9.0625 -18.453125 8.816406 -17.6875 8.640625 -16.8125 L 20.6875 -16.8125 C 20.507812 -18.488281 19.984375 -19.796875 19.109375 -20.734375 C 18.035156 -21.890625 16.519531 -22.46875 14.5625 -22.46875 Z M 14.5625 -22.46875 "/></g></g></g><g fill="#ffffff" fill-opacity="1"><g transform="translate(136.847828, 204.172986)"><g><path d="M 26.34375 -37.96875 L 32.46875 -37.96875 L 32.46875 -14.140625 C 32.46875 -11.691406 32.117188 -9.472656 31.421875 -7.484375 C 30.722656 -5.492188 29.710938 -3.785156 28.390625 -2.359375 C 28.109375 -2.078125 27.816406 -1.8125 27.515625 -1.5625 C 27.222656 -1.320312 26.925781 -1.078125 26.625 -0.828125 C 26.332031 -0.585938 26.019531 -0.367188 25.6875 -0.171875 C 25.351562 0.015625 25.007812 0.191406 24.65625 0.359375 C 24.3125 0.535156 23.945312 0.695312 23.5625 0.84375 C 21.75 1.570312 19.726562 1.9375 17.5 1.9375 C 12.851562 1.9375 9.203125 0.554688 6.546875 -2.203125 C 3.929688 -4.960938 2.625 -8.875 2.625 -13.9375 L 2.625 -37.96875 L 10.21875 -37.96875 L 10.21875 -14.71875 C 10.21875 -11.46875 10.84375 -9.003906 12.09375 -7.328125 C 12.65625 -6.566406 13.375 -5.992188 14.25 -5.609375 C 15.125 -5.222656 16.207031 -5.03125 17.5 -5.03125 C 20.039062 -5.03125 21.90625 -5.796875 23.09375 -7.328125 C 24.382812 -8.972656 25.03125 -11.4375 25.03125 -14.71875 L 25.03125 -37.96875 Z M 26.34375 -37.96875 "/></g></g></g><g fill="#ffffff" fill-opacity="1"><g transform="translate(171.936418, 204.172986)"><g><path d="M 3.09375 -28.546875 C 3.789062 -28.546875 4.4375 -28.492188 5.03125 -28.390625 C 5.625 -28.285156 6.191406 -28.117188 6.734375 -27.890625 C 7.273438 -27.660156 7.769531 -27.367188 8.21875 -27.015625 C 8.675781 -26.671875 9.0625 -26.253906 9.375 -25.765625 C 9.96875 -26.359375 10.648438 -26.882812 11.421875 -27.34375 C 11.628906 -27.476562 11.835938 -27.609375 12.046875 -27.734375 C 12.253906 -27.859375 12.476562 -27.972656 12.71875 -28.078125 C 12.96875 -28.179688 13.210938 -28.273438 13.453125 -28.359375 C 13.703125 -28.441406 13.945312 -28.539062 14.1875 -28.65625 C 14.75 -28.820312 15.328125 -28.945312 15.921875 -29.03125 C 16.515625 -29.125 17.125 -29.171875 17.75 -29.171875 C 19.5 -29.171875 21.1875 -28.820312 22.8125 -28.125 C 24.4375 -27.425781 25.859375 -26.414062 27.078125 -25.09375 C 28.296875 -23.757812 29.253906 -22.148438 29.953125 -20.265625 C 30.203125 -19.640625 30.40625 -18.976562 30.5625 -18.28125 C 30.71875 -17.582031 30.835938 -16.863281 30.921875 -16.125 C 31.015625 -15.394531 31.0625 -14.644531 31.0625 -13.875 C 31.0625 -11.570312 30.710938 -9.441406 30.015625 -7.484375 C 29.660156 -6.546875 29.25 -5.65625 28.78125 -4.8125 C 28.3125 -3.976562 27.757812 -3.210938 27.125 -2.515625 C 26.914062 -2.234375 26.679688 -1.96875 26.421875 -1.71875 C 26.160156 -1.476562 25.890625 -1.234375 25.609375 -0.984375 C 25.328125 -0.742188 25.046875 -0.519531 24.765625 -0.3125 C 24.492188 -0.101562 24.195312 0.0859375 23.875 0.265625 C 23.5625 0.441406 23.25 0.597656 22.9375 0.734375 C 22.132812 1.148438 21.304688 1.453125 20.453125 1.640625 C 19.597656 1.835938 18.734375 1.9375 17.859375 1.9375 C 16.003906 1.9375 14.3125 1.570312 12.78125 0.84375 C 12.21875 0.59375 11.691406 0.3125 11.203125 0 L 11.203125 12.828125 L 3.875 12.828125 L 3.875 -20.265625 C 3.875 -21.066406 3.734375 -21.59375 3.453125 -21.84375 C 3.140625 -22.125 2.6875 -22.265625 2.09375 -22.265625 L 0.359375 -22.265625 L 0.84375 -23.9375 L 1.828125 -27.609375 L 2.09375 -28.546875 Z M 23.625 -13.71875 C 23.625 -14.457031 23.570312 -15.140625 23.46875 -15.765625 C 23.363281 -16.390625 23.210938 -16.972656 23.015625 -17.515625 C 22.828125 -18.054688 22.609375 -18.550781 22.359375 -19 C 22.117188 -19.457031 21.84375 -19.878906 21.53125 -20.265625 C 20.894531 -21.003906 20.164062 -21.554688 19.34375 -21.921875 C 18.53125 -22.285156 17.648438 -22.46875 16.703125 -22.46875 C 16.078125 -22.46875 15.484375 -22.390625 14.921875 -22.234375 C 14.367188 -22.078125 13.847656 -21.84375 13.359375 -21.53125 C 12.453125 -20.96875 11.734375 -20.375 11.203125 -19.75 L 11.203125 -7.328125 C 11.941406 -6.671875 12.75 -6.113281 13.625 -5.65625 C 14.59375 -5.132812 15.691406 -4.875 16.921875 -4.875 C 17.898438 -4.875 18.789062 -5.066406 19.59375 -5.453125 C 20.394531 -5.867188 21.09375 -6.441406 21.6875 -7.171875 C 22 -7.554688 22.265625 -7.972656 22.484375 -8.421875 C 22.710938 -8.878906 22.914062 -9.390625 23.09375 -9.953125 C 23.269531 -10.515625 23.398438 -11.109375 23.484375 -11.734375 C 23.578125 -12.359375 23.625 -13.019531 23.625 -13.71875 Z M 23.625 -13.71875 "/></g></g></g><g fill="#ffffff" fill-opacity="1"><g transform="translate(204.039851, 204.172986)"><g><path d="M 6.34375 -36.140625 L 11.265625 -36.140625 L 11.265625 -27.546875 L 18.796875 -27.546875 L 18.796875 -20.84375 L 11.265625 -20.84375 L 11.265625 -9.015625 C 11.265625 -8.140625 11.347656 -7.421875 11.515625 -6.859375 C 11.691406 -6.335938 11.90625 -5.9375 12.15625 -5.65625 C 12.394531 -5.375 12.691406 -5.179688 13.046875 -5.078125 C 13.253906 -5.003906 13.460938 -4.953125 13.671875 -4.921875 C 13.878906 -4.890625 14.085938 -4.875 14.296875 -4.875 C 15.023438 -4.875 15.6875 -4.976562 16.28125 -5.1875 C 17.019531 -5.46875 17.703125 -5.78125 18.328125 -6.125 L 19.6875 -6.859375 L 20.21875 -5.390625 L 21.53125 -1.625 L 21.84375 -0.625 L 20.953125 -0.109375 C 20.179688 0.378906 19.148438 0.832031 17.859375 1.25 C 17.191406 1.5 16.507812 1.675781 15.8125 1.78125 C 15.113281 1.882812 14.414062 1.9375 13.71875 1.9375 C 10.71875 1.9375 8.328125 0.941406 6.546875 -1.046875 C 5.640625 -2.054688 4.972656 -3.257812 4.546875 -4.65625 C 4.128906 -6.050781 3.921875 -7.625 3.921875 -9.375 L 3.921875 -20.84375 L -0.78125 -20.84375 L -0.78125 -27.546875 L 4.1875 -27.546875 L 5.03125 -34.984375 L 5.1875 -36.140625 Z M 6.34375 -36.140625 "/></g></g></g><g fill="#ffffff" fill-opacity="1"><g transform="translate(224.831144, 204.172986)"><g><path d="M 8.90625 1.3125 L 2.875 1.3125 L 2.875 -28.546875 L 10.21875 -28.546875 L 10.21875 1.3125 Z M 6.546875 -30.59375 C 5.285156 -30.59375 4.203125 -31.046875 3.296875 -31.953125 C 2.390625 -32.859375 1.9375 -33.941406 1.9375 -35.203125 C 1.9375 -36.554688 2.363281 -37.660156 3.21875 -38.515625 C 4.070312 -39.378906 5.179688 -39.8125 6.546875 -39.8125 C 7.171875 -39.8125 7.765625 -39.695312 8.328125 -39.46875 C 8.890625 -39.238281 9.382812 -38.90625 9.8125 -38.46875 C 10.25 -38.03125 10.582031 -37.53125 10.8125 -36.96875 C 11.039062 -36.414062 11.15625 -35.828125 11.15625 -35.203125 C 11.15625 -33.835938 10.726562 -32.726562 9.875 -31.875 C 9.019531 -31.019531 7.910156 -30.59375 6.546875 -30.59375 Z M 6.546875 -30.59375 "/></g></g></g><g fill="#ffffff" fill-opacity="1"><g transform="translate(237.923894, 204.172986)"><g><path d="M 10.0625 -26.1875 C 10.332031 -26.425781 10.597656 -26.648438 10.859375 -26.859375 C 11.128906 -27.078125 11.421875 -27.269531 11.734375 -27.4375 C 12.148438 -27.71875 12.582031 -27.972656 13.03125 -28.203125 C 13.488281 -28.429688 13.96875 -28.613281 14.46875 -28.75 C 14.976562 -28.894531 15.488281 -29 16 -29.0625 C 16.507812 -29.132812 17.039062 -29.171875 17.59375 -29.171875 C 20.039062 -29.171875 22.066406 -28.5625 23.671875 -27.34375 C 24.648438 -26.601562 25.453125 -25.691406 26.078125 -24.609375 C 26.953125 -25.585938 27.878906 -26.460938 28.859375 -27.234375 C 29.203125 -27.484375 29.566406 -27.710938 29.953125 -27.921875 C 30.335938 -28.128906 30.738281 -28.3125 31.15625 -28.46875 C 31.582031 -28.625 32.007812 -28.753906 32.4375 -28.859375 C 32.875 -28.960938 33.320312 -29.039062 33.78125 -29.09375 C 34.238281 -29.144531 34.710938 -29.171875 35.203125 -29.171875 C 35.410156 -29.171875 35.609375 -29.171875 35.796875 -29.171875 C 35.992188 -29.171875 36.1875 -29.160156 36.375 -29.140625 C 36.5625 -29.128906 36.75 -29.101562 36.9375 -29.0625 C 37.132812 -29.03125 37.320312 -28.992188 37.5 -28.953125 C 37.675781 -28.921875 37.847656 -28.890625 38.015625 -28.859375 C 38.191406 -28.828125 38.367188 -28.785156 38.546875 -28.734375 C 38.722656 -28.679688 38.894531 -28.617188 39.0625 -28.546875 C 39.238281 -28.472656 39.414062 -28.398438 39.59375 -28.328125 C 39.90625 -28.191406 40.207031 -28.035156 40.5 -27.859375 C 40.800781 -27.691406 41.082031 -27.5 41.34375 -27.28125 C 41.613281 -27.070312 41.867188 -26.851562 42.109375 -26.625 C 42.347656 -26.40625 42.578125 -26.15625 42.796875 -25.875 C 43.660156 -24.863281 44.285156 -23.660156 44.671875 -22.265625 C 45.085938 -20.898438 45.296875 -19.394531 45.296875 -17.75 L 45.296875 1.3125 L 37.96875 1.3125 L 37.96875 -17.390625 C 37.96875 -18.992188 37.617188 -20.269531 36.921875 -21.21875 C 36.296875 -22.019531 35.441406 -22.421875 34.359375 -22.421875 C 33.734375 -22.421875 33.140625 -22.296875 32.578125 -22.046875 C 31.953125 -21.765625 31.359375 -21.398438 30.796875 -20.953125 C 30.203125 -20.460938 29.625 -19.90625 29.0625 -19.28125 C 28.851562 -19 28.625 -18.695312 28.375 -18.375 C 28.132812 -18.0625 27.929688 -17.769531 27.765625 -17.5 L 27.765625 1.3125 L 20.421875 1.3125 L 20.421875 -17.390625 C 20.421875 -18.992188 20.070312 -20.269531 19.375 -21.21875 C 18.75 -22.019531 17.894531 -22.421875 16.8125 -22.421875 C 16.21875 -22.421875 15.625 -22.296875 15.03125 -22.046875 C 14.75 -21.941406 14.453125 -21.800781 14.140625 -21.625 C 13.828125 -21.457031 13.53125 -21.25 13.25 -21 C 13.144531 -20.925781 13.039062 -20.847656 12.9375 -20.765625 C 12.832031 -20.679688 12.734375 -20.59375 12.640625 -20.5 C 12.554688 -20.414062 12.460938 -20.328125 12.359375 -20.234375 C 12.253906 -20.148438 12.15625 -20.0625 12.0625 -19.96875 C 11.976562 -19.882812 11.890625 -19.789062 11.796875 -19.6875 C 11.710938 -19.582031 11.617188 -19.476562 11.515625 -19.375 C 11.304688 -19.09375 11.078125 -18.800781 10.828125 -18.5 C 10.585938 -18.207031 10.382812 -17.925781 10.21875 -17.65625 L 10.21875 1.3125 L 2.875 1.3125 L 2.875 -28.546875 L 10.0625 -28.546875 Z M 10.0625 -26.1875 "/></g></g></g><g fill="#ffffff" fill-opacity="1"><g transform="translate(285.84337, 204.172986)"><g><path d="M 8.75 -10.375 C 9.132812 -8.832031 9.796875 -7.59375 10.734375 -6.65625 C 11.953125 -5.46875 13.59375 -4.875 15.65625 -4.875 C 16.144531 -4.875 16.613281 -4.890625 17.0625 -4.921875 C 17.519531 -4.953125 17.957031 -5.003906 18.375 -5.078125 C 18.800781 -5.148438 19.207031 -5.238281 19.59375 -5.34375 C 19.976562 -5.445312 20.359375 -5.554688 20.734375 -5.671875 C 21.117188 -5.796875 21.492188 -5.925781 21.859375 -6.0625 C 22.234375 -6.207031 22.613281 -6.367188 23 -6.546875 L 24.359375 -7.171875 L 24.765625 -5.703125 L 25.875 -1.671875 L 26.1875 -0.578125 L 25.1875 -0.109375 C 23.832031 0.523438 22.316406 1.015625 20.640625 1.359375 C 19.796875 1.566406 18.910156 1.710938 17.984375 1.796875 C 17.066406 1.890625 16.097656 1.9375 15.078125 1.9375 C 12.953125 1.9375 11.015625 1.585938 9.265625 0.890625 C 7.523438 0.160156 6.039062 -0.882812 4.8125 -2.25 C 3.59375 -3.582031 2.648438 -5.222656 1.984375 -7.171875 C 1.359375 -9.054688 1.046875 -11.207031 1.046875 -13.625 C 1.046875 -15.78125 1.359375 -17.800781 1.984375 -19.6875 C 2.335938 -20.632812 2.738281 -21.523438 3.1875 -22.359375 C 3.644531 -23.203125 4.171875 -23.972656 4.765625 -24.671875 C 5.953125 -26.066406 7.382812 -27.164062 9.0625 -27.96875 C 10.738281 -28.769531 12.609375 -29.171875 14.671875 -29.171875 C 15.367188 -29.171875 16.039062 -29.125 16.6875 -29.03125 C 17.332031 -28.945312 17.957031 -28.828125 18.5625 -28.671875 C 19.175781 -28.515625 19.765625 -28.316406 20.328125 -28.078125 C 21.160156 -27.691406 21.914062 -27.242188 22.59375 -26.734375 C 23.28125 -26.234375 23.898438 -25.648438 24.453125 -24.984375 C 25.535156 -23.691406 26.359375 -22.207031 26.921875 -20.53125 C 27.160156 -19.695312 27.347656 -18.832031 27.484375 -17.9375 C 27.628906 -17.050781 27.703125 -16.148438 27.703125 -15.234375 C 27.703125 -14.992188 27.703125 -14.75 27.703125 -14.5 C 27.703125 -14.257812 27.691406 -14.007812 27.671875 -13.75 C 27.660156 -13.488281 27.65625 -13.234375 27.65625 -12.984375 C 27.65625 -12.742188 27.644531 -12.507812 27.625 -12.28125 C 27.613281 -12.050781 27.585938 -11.816406 27.546875 -11.578125 L 27.4375 -10.375 Z M 14.5625 -22.46875 C 12.882812 -22.46875 11.519531 -21.910156 10.46875 -20.796875 C 10.050781 -20.335938 9.6875 -19.773438 9.375 -19.109375 C 9.0625 -18.453125 8.816406 -17.6875 8.640625 -16.8125 L 20.6875 -16.8125 C 20.507812 -18.488281 19.984375 -19.796875 19.109375 -20.734375 C 18.035156 -21.890625 16.519531 -22.46875 14.5625 -22.46875 Z M 14.5625 -22.46875 "/></g></g></g></svg>