<svg xmlns="http://www.w3.org/2000/svg" width="2500" height="2500" viewBox="0 0 192.756 192.756"><g fill-rule="evenodd" clip-rule="evenodd"><path fill="#fff" d="M0 0h192.756v192.756H0V0z"/><path fill="#cc1e4c" d="M8.504 76.469h175.748v39.819H8.504V76.469z"/><path fill="#fff" d="M65.697 81.598h12.946V111.3H65.697V81.598zM80.216 111.3l12.061-29.702h15.594l11.988 29.702h-13.091l-1.838-2.251H94.778l-1.544 2.251H80.216z"/><path fill="#cc1e4c" d="M100.074 91.602h-.146l-3.752 10.567h7.502l-3.604-10.567z"/><path fill="#fff" d="M121.104 111.3l12.062-29.702h15.594l11.986 29.702h-13.092l-1.838-2.251h-10.15l-1.545 2.251h-13.017z"/><path fill="#cc1e4c" d="M140.961 91.602h-.147l-3.75 10.567h7.5l-3.603-10.567z"/><path d="M37.902 111.3H24.957V81.776l27.398-.002c6.833 0 12.375 5.542 12.375 12.377 0 6.834-5.542 12.375-12.375 12.375H37.943l-.041 4.774z" fill="#fff"/><path d="M36.998 98.092h12.093a4.058 4.058 0 0 0 0-8.115H36.998v8.115z" fill="#cc1e4c"/></g></svg>