<?xml version="1.0" encoding="iso-8859-1"?>
<!-- Generator: Adobe Illustrator 19.0.0, SVG Export Plug-In . SVG Version: 6.00 Build 0)  -->
<svg version="1.1" id="Capa_1" xmlns="http://www.w3.org/2000/svg" xmlns:xlink="http://www.w3.org/1999/xlink" x="0px" y="0px"
	 viewBox="0 0 57 57" style="enable-background:new 0 0 57 57;" xml:space="preserve">
<g id="XMLID_98_">
	<polygon id="XMLID_97_" style="fill:#F3D55C;" points="23,13 20,5 0,5 0,13 0,52 48,52 48,13 	"/>
	<path id="XMLID_111_" style="fill:#F0C41B;" d="M48,17h9l-8.938,34.761C48.052,51.796,48,51.79,48,51.753V17z"/>
	<rect id="XMLID_110_" x="6" y="33" style="fill:#F5F1E2;" width="22" height="13"/>
	<path id="XMLID_109_" style="fill:#D6D0BB;" d="M19,43h-9c-0.553,0-1-0.447-1-1c0-0.553,0.447-1,1-1h9c0.553,0,1,0.447,1,1
		C20,42.553,19.553,43,19,43"/>
	<path id="XMLID_108_" style="fill:#D6D0BB;" d="M14,38h-4c-0.553,0-1-0.447-1-1c0-0.553,0.447-1,1-1h4c0.553,0,1,0.447,1,1
		C15,37.553,14.553,38,14,38"/>
	<path id="XMLID_107_" style="fill:#D6D0BB;" d="M24,38h-2c-0.553,0-1-0.447-1-1c0-0.553,0.447-1,1-1h2c0.553,0,1,0.447,1,1
		C25,37.553,24.553,38,24,38"/>
	<path id="XMLID_106_" style="fill:#D6D0BB;" d="M23,43c-0.271,0-0.521-0.11-0.71-0.3C22.109,42.52,22,42.27,22,42
		c0-0.271,0.109-0.521,0.29-0.71c0.37-0.37,1.05-0.37,1.42,0C23.89,41.479,24,41.74,24,42s-0.11,0.52-0.29,0.71
		C23.52,42.89,23.26,43,23,43"/>
	<path id="XMLID_105_" style="fill:#D6D0BB;" d="M18,38c-0.26,0-0.521-0.11-0.71-0.29C17.109,37.52,17,37.26,17,37
		s0.109-0.521,0.29-0.71c0.358-0.37,1.05-0.37,1.42,0C18.89,36.479,19,36.729,19,37c0,0.26-0.11,0.52-0.29,0.71
		C18.52,37.89,18.26,38,18,38"/>
</g>
<g>
</g>
<g>
</g>
<g>
</g>
<g>
</g>
<g>
</g>
<g>
</g>
<g>
</g>
<g>
</g>
<g>
</g>
<g>
</g>
<g>
</g>
<g>
</g>
<g>
</g>
<g>
</g>
<g>
</g>
</svg>
