<svg xmlns="http://www.w3.org/2000/svg" viewBox="0 0 581.88 581.88"><defs><style>.cls-1{fill:#ef373e}.cls-3{fill:#fff}</style></defs><g id="Layer_4" data-name="Layer 4"><path class="cls-1" d="M596.62 390.87c0 160.69-130.25 290.94-290.94 290.94S14.75 551.56 14.75 390.87 145 99.93 305.68 99.93s290.94 130.26 290.94 290.94z" transform="translate(-14.75 -99.93)"/><path d="M500.23 328.2c34.51 107.16-24.6 222.09-132 256.69s-222.52-24.2-257-131.34 24.6-222.09 132.05-256.7 222.44 24.21 256.95 131.35z" transform="translate(-14.75 -99.93)" fill="#0054a6"/><path class="cls-3" d="M80.62 511.13l7-3.65-5.14-9.87 5.34-2.78L93 504.7l13.84-7.2 3.2 6.13-31.55 16.44-8.7-16.69 5.34-2.78zM85.83 458.75C89.67 460 93 463.43 94.6 468s1.31 9.31-.87 12.71c-1.64 2.51-4.13 4.26-8.1 5.67l-20.41 7.34-2.34-6.52L82 480.31c3.41-1.22 4.44-1.81 5.58-3.19a7.52 7.52 0 00-4.21-11.73c-1.76-.33-2.94-.14-6.34 1.09l-19.16 6.89-2.34-6.52L76 459.52c3.93-1.43 7-1.67 9.83-.77zM83.7 429.59l-12.15 12.18.16.89 14-2.77 1.33 6.81-34.85 6.87-2-10.1c-1.56-7.82 1.32-13.07 7.86-14.35 5.32-1.06 9.39 1.07 11.44 6L82 421.23zm-27.76 14l.41 2.09 10.56-2.09-.39-2c-.86-4.36-3.2-6.27-6.69-5.6s-4.73 3.39-3.89 7.61zM81 387.7l-23.91 22.49 24-.85.24 6.93L45 417.54l-.16-4.79 24-22.5-23.91.85-.24-6.92 36.2-1.28zM81.09 374.68l-35.4-3.17.62-6.92 35.4 3.19zM55.56 343.64l29.06 5.13-1.2 6.82-29.07-5.14-1.35 7.83-6-1.06 4-22.5 5.92 1zM90.69 310.51c2.31 3.31 2.81 8.06 1.34 12.68s-4.62 8.21-8.39 9.58c-2.84 1-5.88.88-9.89-.4l-20.67-6.54 2.09-6.61 19.41 6.15c3.45 1.09 4.64 1.25 6.38.85a7.54 7.54 0 003.76-11.89c-1.19-1.32-2.24-1.88-5.7-3l-19.41-6.15 2.09-6.61 20.68 6.54c4.01 1.31 6.56 2.97 8.31 5.4zM106.44 286.05l-17 2.34-.4.81 12.84 6.29-3 6.21-32.01-15.61 4.52-9.24c3.51-7.18 9-9.61 15-6.68 4.89 2.38 6.83 6.55 5.49 11.69l18.37-3.46zm-30.57-5.65l-.93 1.93 9.67 4.72.89-1.81c1.94-4 1.24-6.92-2-8.5s-5.72-.22-7.63 3.66zM112.76 274.78l-29.71-19.49 10.78-16.44 5 3.31-7 10.64 6.59 4.32 6.72-10.24 5 3.3-6.72 10.26 8 5.25 7-10.65 5 3.3zM138.1 225a7.38 7.38 0 11-.15-10.4 7.39 7.39 0 01.15 10.4zM192 195.89l-6.66-4.65-12.18 7.95 1.43 8-6.17 4-6.89-38.81 4.37-2.85 32.3 22.27zm-22.67-16.15l2.67 13.54 8.48-5.53zM207.05 173.59l-4.05 1.9 5.58 11.91-6.27 2.93-15.07-32.17 9.41-4.4c4.2-2 6.78-2.36 9.64-1.52a11.26 11.26 0 016.86 6.08c3.04 6.51.85 12-6.1 15.27zm-8.81-13.94l-2.18 1 4.38 9.35 2.56-1.18c4-1.87 5.16-4.32 3.68-7.49s-4.15-3.7-8.44-1.68zM235.39 162.74l-4.25 1.37 4 12.52-6.6 2.13-10.89-33.84 9.9-3.18c4.41-1.42 7-1.48 9.76-.3a11.34 11.34 0 016 6.92c2.25 6.84-.61 12.02-7.92 14.38zm-7-14.94l-2.28.73 3.16 9.84 2.69-.86c4.16-1.34 5.66-3.61 4.6-7s-3.64-4.17-8.16-2.71zM255.74 170.72l-7-34.85 6.8-1.36 5.8 29 10.71-2.16 1.19 5.9zM278 166.86l-4.06-35.3 6.88-.8 4.07 35.3zM317.18 164.75l-3.07-7.51h-14.55l-3.17 7.53h-7.35l15.32-36.33h5.22l15 36.25zm-10.24-25.88l-5.14 12.8h10.12zM356.91 170.89l-17.19-28-4 23.7-6.82-1.17 6.1-35.82 4.73.81 17.18 28 4-23.59 6.79 1.18-6.06 35.7zM385.4 179.61A18.4 18.4 0 01373.68 156a18.69 18.69 0 0123.94-11.45 17.5 17.5 0 017.34 4.84l-2.64 7.7c-1.8-3.6-3.79-5.52-6.92-6.6-6.16-2.1-12.73 1.32-14.95 7.77-2.34 6.81.7 13.2 7.3 15.47 3 1 5.65.76 9.19-1l-2.65 7.71a18.89 18.89 0 01-8.89-.83zM399.89 184.31l15.73-31.86 17.64 8.7-2.68 5.4-11.41-5.64-3.49 7.09 11 5.43-2.68 5.38-11-5.43-4.24 8.6 11.41 5.64-2.66 5.38zM430.82 202.81c-4.4-2.88-6.47-6.73-6.59-12.4l6.11-1.16a8.24 8.24 0 003.74 8.12 5.06 5.06 0 007.24-1.24 4.24 4.24 0 00.28-4.22 28 28 0 00-2.9-4.33c-4.16-5.51-4.65-8.83-2-12.93 3.19-4.86 9.59-5.89 14.85-2.45a15.66 15.66 0 016.58 9l-5.63 2c-.41-2.68-1.38-4.33-3.1-5.47-2.51-1.63-5.27-1.41-6.49.46-1.05 1.61-.58 3.14 2 6.71 5 6.72 5.59 10.14 2.49 14.86-3.69 5.76-10.56 6.99-16.58 3.05zM474.64 223a7.38 7.38 0 1110.41-.11 7.4 7.4 0 01-10.41.11zM489.82 257.18l29.45-19.87 11 16.3-5 3.36-7.13-10.56-6.53 4.42 6.87 10.17-5 3.35-6.87-10.16-7.95 5.37 7.13 10.55-5 3.37zM504.16 279.25l31.4-16.65 3.25 6.12-26.07 13.83 5.12 9.65-5.33 2.8zM514.41 299.57l33-13.18 7.29 18.27-5.58 2.23-4.73-11.83-7.31 2.94 4.53 11.38-5.61 2.22-4.54-11.38-8.9 3.55 4.71 11.84-5.58 2.23zM527.35 340.88a18.4 18.4 0 0113.34-22.75 18.65 18.65 0 0122.69 13.72 17.66 17.66 0 010 8.79l-7.89 2c2-3.49 2.53-6.2 1.71-9.42-1.61-6.29-8.08-9.91-14.69-8.22-7 1.77-10.65 7.83-8.93 14.59.78 3.05 2.47 5.14 5.85 7.14l-7.9 2a18.89 18.89 0 01-4.18-7.85zM561.91 362.48l-29.28 3.73-.88-6.88L561 355.6l-1-7.87 6-.75 2.89 22.67-6 .76zM533.86 396.08l14.21-9.69v-.9l-14.27.1-.06-6.94 35.55-.22.06 10.29c0 8-3.75 12.59-10.41 12.62-5.44.05-9-2.81-10.14-8l-14.88 11.29zm29.89-8.56v-2.14l-10.77.09v2c0 4.42 2 6.74 5.52 6.73s5.28-2.36 5.25-6.68zM530.5 425.88c1.65-10.74 10.83-17.59 21.48-15.95 10 1.53 16.84 11.2 15.23 21.58C565.6 442 556.3 449 546 447.46a18.63 18.63 0 01-15.5-21.58zm30.5 4.65a12.25 12.25 0 10-13.85 9.86 12.06 12.06 0 0013.85-9.86zM516.6 477.24L547.08 465l-22.7-8 2.27-6.54 34.33 12-1.6 4.53-30.47 12.28 22.6 7.87-2.29 6.54L515 481.77zM511.92 489.71l31.84 15.8-3.07 6.2-31.84-15.81zM495.52 516.86a18.4 18.4 0 0125.69-5.93 18.67 18.67 0 015.59 25.92 17.67 17.67 0 01-6.4 6l-6.89-4.36c3.91-.91 6.25-2.4 8-5.19 3.48-5.5 1.68-12.68-4.1-16.34-6.06-3.86-13-2.37-16.72 3.54-1.69 2.64-2 5.32-1.19 9.14l-6.9-4.36a19 19 0 012.92-8.42zM480.34 536.94c3.4-4 7.46-5.63 13.1-5.07l.42 6.22a8.2 8.2 0 00-8.51 2.75 5 5 0 00.38 7.32 4.19 4.19 0 004.14.77 26.45 26.45 0 004.64-2.36c6-3.46 9.33-3.57 13.09-.41 4.44 3.72 4.7 10.21.65 15a15.56 15.56 0 01-9.73 5.46l-1.3-5.83c2.71-.08 4.47-.84 5.81-2.43 1.92-2.28 2-5.06.3-6.49-1.46-1.23-3-1-6.89 1.23-7.28 4.18-10.74 4.34-15.06.7-5.26-4.39-5.68-11.36-1.04-16.86zM455.12 577.48a7.38 7.38 0 11-1.12 10.33 7.4 7.4 0 011.12-10.33zM403.66 595.89a18.39 18.39 0 0125.08 8.17 18.69 18.69 0 01-8.57 25.1 17.65 17.65 0 01-8.6 1.86l-3.66-7.29c3.84 1.23 6.6 1.17 9.55-.32 5.82-2.91 8-10 4.92-16.11-3.22-6.43-9.91-8.73-16.17-5.61-2.82 1.41-4.49 3.51-5.73 7.23l-3.65-7.28a19 19 0 016.83-5.75zM373.81 607.68c10.39-3.22 20.55 2.06 23.72 12.36 3 9.67-2.72 20-12.75 23.11S364.25 641 361.18 631a18.6 18.6 0 0112.63-23.32zm9.11 29.42a12.23 12.23 0 10-14.92-8.16 12.07 12.07 0 0014.92 8.16zM317 618.56l5.42 21.4 7.4-23.22 1.91-.19 11.67 21.24 1.32-22.11 6.94-.71-2.86 36.67-4.73.5-12-22.17-7.63 24.18-4.77.5-9.61-35.38zM291.28 631.16l4.47.27.82-13.12 6.92.43-2.23 35.47-10.37-.66c-4.62-.27-7.08-1.2-9.2-3.3a11.34 11.34 0 01-3.08-8.62c.44-7.18 5.01-10.95 12.67-10.47zm1.05 16.45l2.4.15.64-10.3-2.81-.18c-4.37-.28-6.61 1.29-6.82 4.79s1.86 5.25 6.59 5.54zM248.89 615.54c3.06-2.62 7.72-3.61 12.47-2.63s8.64 3.76 10.38 7.39c1.29 2.72 1.47 5.75.62 9.88l-4.44 21.23-6.78-1.41 4.15-19.93c.75-3.54.77-4.74.2-6.43a7.54 7.54 0 00-12.2-2.55c-1.2 1.33-1.65 2.44-2.4 6L246.74 647l-6.74-1.42 4.42-21.23c.83-4.12 2.21-6.84 4.47-8.81zM219.32 632.11l9.77-27.87 6.54 2.29-9.78 27.86 7.49 2.64-2 5.67-21.56-7.57 2-5.68zM217.21 599.91L201.85 632l-17.73-8.5 2.6-5.44 11.48 5.51 3.41-7.1-11.05-5.31 2.61-5.43 11 5.3 4.15-8.66-11.46-5.5 2.59-5.42zM178.64 578.64l.32 17.2.75.49 7.75-12 5.82 3.76L174 617.94l-8.63-5.58c-6.71-4.33-8.49-10-4.87-15.64 3-4.55 7.3-6 12.28-4.07L171.49 574zm-9.21 29.69l1.78 1.15 5.84-9-1.69-1.09c-3.73-2.39-6.73-2.07-8.67.94s-.9 5.67 2.74 8zM161.13 563.84c4 3.42 5.6 7.49 5 13.13l-6.2.39a8.23 8.23 0 00-2.69-8.52 5.06 5.06 0 00-7.35.34 4.27 4.27 0 00-.8 4.14 27.6 27.6 0 002.35 4.64c3.42 6 3.51 9.36.33 13.09-3.76 4.43-10.24 4.65-15 .58a15.6 15.6 0 01-5.39-9.78l5.83-1.26c.07 2.73.81 4.49 2.39 5.81 2.27 2 5.05 2.06 6.5.37 1.24-1.47.95-3-1.21-6.92-4.14-7.29-4.26-10.77-.61-15.07 4.42-5.23 11.37-5.6 16.85-.94zM120.83 538.19A7.38 7.38 0 11110.5 537a7.38 7.38 0 0110.33 1.19z" transform="translate(-14.75 -99.93)"/><path class="cls-1" transform="rotate(-20.61 -8.71 296.338)" d="M136.04 292.43h274.99v26.69H136.04z"/><path d="M297.4 462c-37.73 1-65.86-29.51-91.86-51 17.24-6.48 23.43-12 20.1-20.89-2.86-7.61-9.58-8.3-16.91-5.55l-18.52 7 27.6 73.67-27.41 10.2-34.72-92.5 64.72-24.35c6.51-2.44 21.86-.21 27.89 16.32 6.7 18.42-6.29 28.69-10.73 32.69 7.26 5.57 14 10.39 21.08 15.81 2.58-26.51 5.06-54.57 7.26-81.88 10.09-3.81 20.78-7.83 30.82-11.59C319.1 352.48 342.2 375 365.62 397c2.14-2.33 3.22-5.51 4.6-8.55-13.5-8.39-22.3-24.43-23.58-40.61-2.29-16.81 8.84-34.87 22.2-43.68 12.55-8.24 30-14.8 44.67-16.78l8.23 21.9c-14.63.69-33.89 5.16-42.15 18.11-7.1 10-4 22.2 1.56 31.71 6.23 8.52 18.51 13 28.82 10.88 11.36-2 20.65-8.77 29-15.17l8 21.22c-14.23 11.41-35.71 20.74-54 19-18.19 37.13-52.11 65.77-95.57 66.97zm-6.34-98.82l-1 27.63 20.57-7.74c-6.09-6.33-13.23-13.7-19.59-19.89zm35.36 35.68l-37.15 14c-.37 9.55-.83 17.3-1.52 26 19.16 2.63 42.39-6.07 56.34-20.64l-17.67-19.28z" transform="translate(-14.75 -99.93)" fill="#ffdf00"/><path class="cls-3" d="M469.21 452.82a3.9 3.9 0 115 2.31 3.81 3.81 0 01-5-2.31zm4.76 1.71a3.2 3.2 0 10-4-2 3.1 3.1 0 004 2zm-1.09-.65l-.64.23-1.48-4.19 1.59-.56c1-.35 1.6-.16 1.89.65a1.17 1.17 0 01-.67 1.55l1.85 1.4-.72.27-1.7-1.42-.72.25.65 1.82zm-.09-2.63c.54-.19 1-.39.78-1s-.69-.45-1.13-.3l-.86.3.45 1.3.76-.27zM223.23 509.52c4.16-1.29 7.31.28 8.75 4.44 2.62 7.6-4.62 11.87-4.62 11.87 2.35 1.34 3.34 5.92 5.2 8.91.49.78 2.1.35 2.11 1.16l.6 3.4-7.06 2.51s-4.66-10.56-5.28-11.37c-1.1-1.46-3-.7-4.69.11.28 4.49.95 14.41.95 14.41l-8.86 3.13-.17-3.05c.48-.49 2.2-2.1 2.18-3.47 0 0-1.47-19.45-1.72-21.38a2.22 2.22 0 00-2.08-2l-.3-3.28 15-5.36zm-5.14 16.26s2.48-.77 5.16-1.85 2.59-4.65 2-6.51-1.59-3.29-3.49-2.61-4.3 1.57-4.3 1.57l.61 9.4zM332.54 498c.64 1.39 2.58 1.2 2.58 1.2l.7 2.95-11.93 4.24-.37-3.27s2.11-1.45 2.27-2.75l-1-3.37-9.32 3.31-.41 4.15c-.08.83 1.5.78 1.5.78l.72 3.57-9.28 3.39-.29-3.52s1.68-.85 1.9-1.82l6.21-25.28c.27-1.48-2.08-1-2.08-1l-1.51-3.5 11.39-4.08 8.92 25zm-9.14-4.51l-3.95-11.28-3 13.83 6.95-2.55zM300.35 505.08c1.86.44 4-1.79 4.71-5s-.21-6.1-2.1-6.52-4 1.78-4.72 5 .22 6.11 2.11 6.52zM337.25 492c1.88.43 4-1.8 4.72-5s-.23-6.11-2.09-6.54-4 1.8-4.72 5 .21 6.11 2.09 6.54zM370.18 478.25c.64 8-4.34 14.58-8.51 16.06-6.26 2.24-10-.18-12.9-8.28-3.37-9.48.64-23 9.29-26.07 2.84-1 4.65-1.45 7.13.56l.89-2.74 3-1.17.56 12.39-3.15 1.22c-1.52-3.2-3.71-6.7-6.5-5.71-4.76 1.69-7.13 12-4.61 19 1.63 4.55 3.74 5.53 6.77 4.46 2.53-.9 3.28-4.11 4.1-8.39l3.91-1.37zM425.88 436.57l.41 5.74 4.36-1.55.43 3.93-4.52 1.6 1.33 17.47c.3 3.73 4 0 4 0l1.26.77c-.07 2.87-2.06 4.49-3.7 5.49s-7.39 3.28-8.24-3.62l-1.5-17.72-1.64.61-.18-3.84s5-2.48 5.17-7.86l2.83-1z" transform="translate(-14.75 -99.93)"/><path class="cls-3" d="M450.55 439.23l7.64-8.2 3.36-1.18.73 3.24c1.78-3.73 3.7-8 6.76-6.26 4.3 2.49 2.48 10.32-.41 12s-4.11-1.29-3.67-3.45c-1.51-1.69-2.56 1.95-2.59 4 0 1.2.54 11.42.54 11.42.2 1.71 3.12 1.49 3.14 2.19l.45 3.41-11.18 4-.85-2.46s2.25-2.17 2.21-3.77-1.19-15.51-1.19-15.51l-17 17.28c.79 2.64 2.2 3.72 4.25 4.06 2.45.41 5.37-4.69 7.52-8l2.67 1.25c-.86 4.63-5.71 10-7.5 10.93-2.19 1.1-12.11 5.3-13.19-8.91-.46-5.94 1.27-12.28 4.29-15.17 5.17-4.93 9.17-4.67 11.13-3.7a7 7 0 012.91 2.87zm-11.85 3.08c-1.82 2.25-2.19 5.73-1.17 10 .14-.07 7.85-8.26 7.85-8.26s-3.21-6-6.68-1.72zM390.87 460.47l7.61-8.18 3.38-1.19.61 4.76c2.31-3.37 6.91-9.41 10.86-7.21 1.54.86 1.77 3.22 2.25 6 0 0 .72 10.81 1 13.56.11 1.11 2.14 1.32 2.14 1.32l.11 3.91-8.32 2.94-1.51-18.56c-.47-3.91-6.31-.52-5.7 2.6l1.64 17.91-9.27 3.27-.85-2.45S397 477 397 475.38s-1.19-15.5-1.19-15.5l-17 17.27c.79 2.64 2.19 3.71 4.23 4.06 2.46.41 5.37-4.67 7.53-8l2.66 1.25c-.84 4.63-5.7 10-7.49 10.93-2.19 1.11-12.1 5.3-13.19-8.9-.44-5.94 1.28-12.29 4.29-15.17 5.16-4.95 9.19-4.68 11.14-3.71a7.15 7.15 0 012.91 2.86zM379 463.56c-1.92 2.17-2.2 5.73-1.18 10 .16-.09 7.86-8.29 7.86-8.29S383 459 379 463.56zM252.48 510.42l7.61-8.2 3.39-1.19.61 4.76c2.31-3.36 6.9-9.41 10.85-7.21 1.55.86 1.78 3.22 2.26 6 0 0 .73 10.81 1 13.57.11 1.12 2.13 1.33 2.13 1.33l.12 3.87-8.33 3-1.56-18.58c-.46-3.9-6.3-.5-5.69 2.6l1.64 17.92-9.26 3.28-.86-2.47s2.25-2.15 2.21-3.75-1.21-15.51-1.21-15.51l-17 17.27c.8 2.64 2.19 3.71 4.24 4 2.46.42 5.37-4.66 7.54-8l2.65 1.25c-.84 4.64-5.71 10-7.48 10.94-2.2 1.1-12.11 5.3-13.19-8.92-.46-5.94 1.27-12.28 4.28-15.16 5.16-4.93 9.19-4.68 11.13-3.72a7 7 0 012.91 2.89zm-11.84 3.06c-2.07 2-2.2 5.73-1.18 10l7.86-8.27s-2-6.31-6.68-1.73zM287.14 486l.4 5.74 4.38-1.55.42 3.93-4.52 1.61 1.32 17.45c.3 3.75 4 0 4 0l1.24.8c-.06 2.87-2 4.48-3.71 5.48s-7.37 3.28-8.22-3.61l-1.45-17.8-1.65.61-.17-3.83s5-2.46 5.15-7.85l2.84-1z" transform="translate(-14.75 -99.93)"/></g></svg>