<?xml version="1.0" encoding="iso-8859-1"?>
<!-- Generator: Adobe Illustrator 19.0.0, SVG Export Plug-In . SVG Version: 6.00 Build 0)  -->
<svg version="1.1" id="Capa_1" xmlns="http://www.w3.org/2000/svg" xmlns:xlink="http://www.w3.org/1999/xlink" x="0px" y="0px"
	 viewBox="0 0 512 512" style="enable-background:new 0 0 512 512;" xml:space="preserve">
<g>
	<g>
		<path d="M509.07,93.916l-91-90.987C416.195,1.054,413.652,0,411,0H114C97.458,0,84,13.458,84,30v19.064
			C34.875,68.334,0,116.215,0,172.091c0,5.522,4.478,10,10,10h122.091c5.522,0,10-4.478,10-10V50c0-5.522-4.478-10-10-10
			c-9.638,0-19.034,1.047-28.091,3.017V30c0-5.514,4.486-10,10-10h287v61c0,16.542,13.458,30,30,30h61v371c0,5.514-4.486,10-10,10
			H114c-5.514,0-10-4.486-10-10v-85.667c0-5.522-4.478-10-10-10c-5.522,0-10,4.478-10,10V482c0,16.542,13.458,30,30,30h368
			c16.542,0,30-13.458,30-30V100.987C512,98.335,510.946,95.791,509.07,93.916z M122.09,60.443v101.648H20.442
			C25.223,108.243,68.243,65.224,122.09,60.443z M431,91c-5.514,0-10-4.486-10-10V34.14L477.868,91H431z"/>
	</g>
</g>
<g>
	<g>
		<path d="M101.069,352.93C99.21,351.069,96.63,350,94,350s-5.21,1.069-7.07,2.93C85.07,354.79,84,357.37,84,360
			s1.069,5.21,2.93,7.069C88.79,368.93,91.37,370,94,370s5.21-1.07,7.069-2.931C102.93,365.21,104,362.63,104,360
			S102.93,354.79,101.069,352.93z"/>
	</g>
</g>
<g>
	<g>
		<path d="M167.909,75.819c-5.522,0-10,4.478-10,10v112.09H45.819c-5.522,0-10,4.478-10,10C35.819,280.744,95.074,340,167.909,340
			S300,280.744,300,207.909S240.744,75.819,167.909,75.819z M177.909,96.262c23.41,2.078,44.771,11.388,61.836,25.67l-61.836,61.835
			V96.262z M167.909,320c-58.437,0-106.574-44.949-111.647-102.091h111.647c2.76,0,5.258-1.118,7.068-2.926
			c0.001-0.001,0.002-0.001,0.004-0.003l78.909-78.908c16.291,19.467,26.11,44.527,26.11,71.837
			C280,269.716,229.716,320,167.909,320z"/>
	</g>
</g>
<g>
	<g>
		<path d="M438.073,315.605c-16.542,0-30,13.458-30,30c0,4.146,0.846,8.097,2.373,11.692l-57.613,57.613
			c-3.959-1.929-8.403-3.014-13.095-3.014c-4.581,0-8.923,1.036-12.81,2.879l-38.258-38.258c1.326-3.384,2.062-7.063,2.062-10.913
			c0-16.542-13.458-30-30-30s-30,13.458-30,30c0,4.482,0.995,8.734,2.765,12.557l-36.695,36.695
			c-3.909-1.87-8.283-2.919-12.897-2.919c-16.542,0-30,13.458-30,30s13.458,30,30,30s30-13.458,30-30
			c0-4.637-1.058-9.031-2.944-12.954l36.49-36.49c4.007,1.988,8.515,3.111,13.283,3.111c5.385,0,10.438-1.433,14.811-3.927
			l37.179,37.179c-1.912,3.945-2.986,8.369-2.986,13.04c0,16.542,13.458,30,30,30s30-13.458,30-30c0-4.558-1.026-8.88-2.853-12.752
			l57.075-57.075c4.209,2.254,9.014,3.536,14.113,3.536c16.542,0,30-13.458,30-30S454.615,315.605,438.073,315.605z
			 M183.904,451.938c-5.514,0-10-4.486-10-10c0-5.514,4.486-10,10-10c2.685,0,5.12,1.069,6.918,2.797
			c0.04,0.042,0.075,0.087,0.116,0.128c0.048,0.048,0.1,0.088,0.149,0.134c1.74,1.8,2.817,4.246,2.817,6.941
			C193.904,447.451,189.418,451.938,183.904,451.938z M260.732,375.604c-5.514,0-10-4.486-10-10c0-5.514,4.486-10,10-10
			c5.514,0,10,4.486,10,10C270.732,371.118,266.246,375.604,260.732,375.604z M339.736,451.896c-5.514,0-10-4.486-10-10
			c0-5.514,4.486-10,10-10c5.514,0,10,4.486,10,10C349.736,447.41,345.25,451.896,339.736,451.896z M438.071,355.604
			c-5.514,0-10-4.486-10-10c0-5.514,4.487-10,10-10c5.514,0,10,4.486,10,10C448.071,351.118,443.585,355.604,438.071,355.604z"/>
	</g>
</g>
<g>
	<g>
		<path d="M388.09,235h-52.779c-5.522,0-10,4.478-10,10c0,5.522,4.477,10,10,10h52.779c5.522,0,10-4.478,10-10
			C398.09,239.478,393.612,235,388.09,235z"/>
	</g>
</g>
<g>
	<g>
		<path d="M440.689,237.93c-1.859-1.86-4.439-2.93-7.069-2.93s-5.21,1.069-7.07,2.93c-1.86,1.86-2.93,4.44-2.93,7.07
			s1.069,5.21,2.93,7.069c1.86,1.86,4.43,2.931,7.07,2.931c2.63,0,5.21-1.07,7.069-2.931c1.86-1.859,2.931-4.439,2.931-7.069
			S442.55,239.79,440.689,237.93z"/>
	</g>
</g>
<g>
	<g>
		<path d="M457.465,139H335.311c-5.522,0-10,4.478-10,10c0,5.522,4.477,10,10,10h122.154c5.522,0,10-4.478,10-10
			C467.465,143.478,462.987,139,457.465,139z"/>
	</g>
</g>
<g>
	<g>
		<path d="M457.465,187H335.311c-5.522,0-10,4.478-10,10c0,5.522,4.477,10,10,10h122.154c5.522,0,10-4.478,10-10
			C467.465,191.478,462.987,187,457.465,187z"/>
	</g>
</g>
<g>
</g>
<g>
</g>
<g>
</g>
<g>
</g>
<g>
</g>
<g>
</g>
<g>
</g>
<g>
</g>
<g>
</g>
<g>
</g>
<g>
</g>
<g>
</g>
<g>
</g>
<g>
</g>
<g>
</g>
</svg>
