<?xml version="1.0" encoding="iso-8859-1"?>
<!-- Generator: Adobe Illustrator 19.0.0, SVG Export Plug-In . SVG Version: 6.00 Build 0)  -->
<svg version="1.1" id="Layer_1" xmlns="http://www.w3.org/2000/svg" xmlns:xlink="http://www.w3.org/1999/xlink" x="0px" y="0px"
	 viewBox="0 0 511.999 511.999" style="enable-background:new 0 0 511.999 511.999;" xml:space="preserve">
<g>
	<g>
		<path d="M289.527,95.794c-24.497-24.496-57.065-37.988-91.709-37.988c-34.643,0-67.213,13.491-91.71,37.988
			c-50.567,50.568-50.567,132.849,0,183.418c24.497,24.496,57.066,37.988,91.71,37.988c34.643,0,67.212-13.491,91.709-37.988
			c24.496-24.496,37.987-57.066,37.987-91.709C327.514,152.86,314.023,120.291,289.527,95.794z M116.553,106.239
			c21.706-21.706,50.567-33.661,81.264-33.661s59.557,11.955,81.263,33.661c17.132,17.131,28.183,38.721,32.082,62.151
			l-40.259,39.369c-3.813-2.152-8.209-3.385-12.89-3.385c-9.113,0-17.157,4.657-21.882,11.714l-59.173-18.567
			c0.003-0.171,0.013-0.342,0.013-0.514c0-14.513-11.807-26.321-26.321-26.321c-14.513,0-26.321,11.808-26.321,26.321
			c0,4.744,1.268,9.196,3.474,13.045l-31.047,32.183C73.198,198.676,79.791,143.001,116.553,106.239z M269.564,230.694
			c0,6.368-5.182,11.55-11.55,11.55c-6.368,0-11.55-5.182-11.55-11.55c0-6.368,5.182-11.55,11.55-11.55
			S269.564,224.325,269.564,230.694z M162.201,197.005c0,6.368-5.182,11.55-11.55,11.55c-6.369,0-11.551-5.182-11.551-11.55
			c0-6.368,5.182-11.55,11.551-11.55C157.019,185.456,162.201,190.637,162.201,197.005z M279.081,268.768
			c-21.706,21.706-50.566,33.661-81.263,33.661c-30.697,0-59.558-11.954-81.264-33.661c-4.311-4.311-8.204-8.885-11.686-13.667
			l33.565-34.793c3.654,1.924,7.81,3.018,12.218,3.018c9.113,0,17.157-4.657,21.882-11.714l59.173,18.567
			c-0.003,0.171-0.013,0.342-0.013,0.514c0,14.513,11.807,26.321,26.321,26.321c14.513,0,26.321-11.808,26.321-26.321
			c0-4.472-1.125-8.685-3.1-12.377l31.508-30.811C312.742,218.202,300.787,247.062,279.081,268.768z"/>
	</g>
</g>
<g>
	<g>
		<path d="M132.414,112.159l9.69,11.148c22.904-19.908,55.016-26.046,83.81-16.017l4.859-13.949
			C196.995,81.575,159.306,88.786,132.414,112.159z"/>
	</g>
</g>
<g>
	<g>
		<path d="M249.73,102.292l-7.684,12.615c3.909,2.381,7.661,5.111,11.151,8.113l9.633-11.199
			C258.732,108.297,254.324,105.091,249.73,102.292z"/>
	</g>
</g>
<g>
	<g>
		<path d="M215.487,270.617c-16.619,3.503-33.698,2.029-49.396-4.26l-5.493,13.711c11.903,4.769,24.478,7.179,37.146,7.179
			c6.935,0,13.897-0.723,20.79-2.176L215.487,270.617z"/>
	</g>
</g>
<g>
	<g>
		<path d="M382.834,306.165l-10.724,10.724l-26.606-28.439c31.49-46.031,39.071-103.617,22.735-155.212l21.109-20.643
			c3.713,2.006,7.959,3.146,12.468,3.146c14.513,0,26.321-11.808,26.321-26.321c0-4.298-1.042-8.355-2.877-11.943l45.316-44.313
			v22.904h14.771V8.227h-47.84v14.771h22.338l-44.718,43.728c-3.908-2.301-8.456-3.628-13.31-3.628
			c-14.513,0-26.321,11.808-26.321,26.321c0,4.644,1.214,9.008,3.334,12.8l-16.178,15.82c-8.709-20.74-21.482-40.164-38.344-57.026
			c-69.748-69.747-183.232-69.745-252.979,0C9.198,123.144,2.415,219.981,50.974,289.691l-12.436,12.891
			c-3.654-1.924-7.81-3.018-12.218-3.018C11.807,299.563,0,311.371,0,325.884c0,14.513,11.807,26.321,26.321,26.321
			s26.321-11.808,26.321-26.321c0-4.745-1.268-9.196-3.475-13.045l10.865-11.263c3.54,4.27,7.298,8.417,11.296,12.416
			c34.874,34.873,80.682,52.309,126.49,52.309c35.164,0,70.324-10.288,100.542-30.838l26.669,28.507l-11.09,11.09l129.164,128.713
			l68.897-68.895L382.834,306.165z M401.817,77.87c6.368,0,11.55,5.182,11.55,11.55s-5.182,11.55-11.55,11.55
			c-6.369,0-11.55-5.182-11.55-11.55S395.448,77.87,401.817,77.87z M26.321,337.433c-6.368,0-11.55-5.182-11.55-11.55
			c0-6.368,5.182-11.55,11.55-11.55c6.369,0,11.55,5.182,11.55,11.55C37.87,332.252,32.689,337.433,26.321,337.433z M81.773,303.548
			c-63.987-63.987-63.987-168.101,0-232.09c31.993-31.994,74.018-47.989,116.044-47.989c42.026,0,84.052,15.997,116.045,47.989
			c63.987,63.987,63.987,168.102,0,232.09C249.877,367.534,145.758,367.534,81.773,303.548z M310.298,326.602
			c4.835-3.915,9.514-8.115,14.01-12.61c4.344-4.344,8.416-8.858,12.218-13.519l25.135,26.865l-26.181,26.181L310.298,326.602z
			 M443.086,482.902L334.848,375.041l48.006-48.006l108.238,107.86L443.086,482.902z"/>
	</g>
</g>
<g>
	<g>
		<polygon points="382.845,348.478 361.709,369.613 372.155,380.058 382.845,369.367 423.611,410.133 434.055,399.689 		"/>
	</g>
</g>
<g>
	<g>
		
			<rect x="439.59" y="415.283" transform="matrix(0.7071 -0.7071 0.7071 0.7071 -168.2064 439.9582)" width="14.771" height="15.481"/>
	</g>
</g>
<g>
	<g>
		<rect x="80.028" y="373.868" width="14.771" height="16.093"/>
	</g>
</g>
<g>
	<g>
		<rect x="80.028" y="464.068" width="14.771" height="16.093"/>
	</g>
</g>
<g>
	<g>
		<rect x="201.68" y="404.906" width="14.771" height="16.092"/>
	</g>
</g>
<g>
	<g>
		<rect x="413.366" y="272.058" width="14.771" height="16.093"/>
	</g>
</g>
<g>
	<g>
		<rect x="430.125" y="143.887" width="14.771" height="16.093"/>
	</g>
</g>
<g>
	<g>
		<rect x="479.076" y="211.754" width="14.771" height="16.093"/>
	</g>
</g>
<g>
</g>
<g>
</g>
<g>
</g>
<g>
</g>
<g>
</g>
<g>
</g>
<g>
</g>
<g>
</g>
<g>
</g>
<g>
</g>
<g>
</g>
<g>
</g>
<g>
</g>
<g>
</g>
<g>
</g>
</svg>
