<?xml version="1.0" encoding="iso-8859-1"?>
<!-- Generator: Adobe Illustrator 19.0.0, SVG Export Plug-In . SVG Version: 6.00 Build 0)  -->
<svg version="1.1" id="Capa_1" xmlns="http://www.w3.org/2000/svg" xmlns:xlink="http://www.w3.org/1999/xlink" x="0px" y="0px"
	 viewBox="0 0 512.005 512.005" style="enable-background:new 0 0 512.005 512.005;" xml:space="preserve">
<path style="fill:#FFC107;" d="M332.034,31.529c-7.776-23.936-33.504-37.056-57.472-29.28s-37.056,33.504-29.28,57.472
	l117.92,362.848c8.096,22.368,32.256,34.944,55.488,28.288c24.192-6.976,38.976-32.672,31.232-56.448
	C449.634,393.481,332.034,31.529,332.034,31.529z"/>
<path style="fill:#4CAF50;" d="M149.314,90.921c-7.808-23.968-33.536-37.088-57.472-29.28s-37.088,33.504-29.28,57.472
	l117.92,362.816c8.096,22.368,32.256,34.944,55.488,28.288c24.192-6.976,38.976-32.672,31.232-56.448
	C266.914,452.873,149.314,90.921,149.314,90.921z"/>
<path style="fill:#EC407A;" d="M480.482,332.041c23.968-7.776,37.056-33.504,29.28-57.472s-33.504-37.056-57.472-29.28
	L89.442,363.241c-22.368,8.096-34.944,32.256-28.288,55.488c6.976,24.192,32.672,38.976,56.448,31.232
	C118.53,449.641,480.482,332.041,480.482,332.041z"/>
<path style="fill:#472A49;" d="M165.058,434.537c23.616-7.68,54.048-17.568,86.72-28.192c-7.68-23.616-17.568-54.048-28.192-86.72
	l-86.72,28.192L165.058,434.537z"/>
<path style="fill:#CC2027;" d="M347.81,375.145c32.8-10.656,63.264-20.544,86.72-28.192c-7.68-23.616-17.568-54.08-28.192-86.752
	l-86.72,28.192L347.81,375.145z"/>
<path style="fill:#2196F3;" d="M421.09,149.321c23.968-7.776,37.056-33.504,29.28-57.472s-33.504-37.056-57.472-29.28
	L30.082,180.489c-22.4,8.096-34.976,32.256-28.288,55.488c6.976,24.192,32.672,38.944,56.448,31.232
	C59.138,266.921,421.09,149.321,421.09,149.321z"/>
<path style="fill:#1A937D;" d="M105.666,251.785c23.616-7.68,54.08-17.568,86.752-28.192c-10.656-32.768-20.544-63.232-28.192-86.72
	l-86.72,28.192L105.666,251.785z"/>
<path style="fill:#65863A;" d="M288.418,192.425c32.8-10.656,63.264-20.544,86.752-28.192c-10.656-32.8-20.576-63.264-28.192-86.752
	l-86.752,28.192L288.418,192.425z"/>
<g>
</g>
<g>
</g>
<g>
</g>
<g>
</g>
<g>
</g>
<g>
</g>
<g>
</g>
<g>
</g>
<g>
</g>
<g>
</g>
<g>
</g>
<g>
</g>
<g>
</g>
<g>
</g>
<g>
</g>
</svg>
