<svg viewBox="0 0 49.96 8.86" xmlns="http://www.w3.org/2000/svg"><g fill="#ffe200"><path d="m4.66 0 1.44 2.92 3.22.47-2.33 2.27.55 3.2-2.88-1.51-2.88 1.51.55-3.2-2.33-2.27 3.22-.47z"/><path d="m14.82 0 1.44 2.92 3.22.47-2.33 2.27.55 3.2-2.88-1.51-2.88 1.51.55-3.2-2.33-2.27 3.22-.47z"/><path d="m24.98 0 1.44 2.92 3.22.47-2.33 2.27.55 3.2-2.88-1.51-2.88 1.51.55-3.2-2.33-2.27 3.22-.47z"/><path d="m35.14 0 1.44 2.92 3.22.47-2.33 2.27.55 3.2-2.88-1.51-2.88 1.51.55-3.2-2.33-2.27 3.22-.47z"/><path d="m45.3 0 1.44 2.92 3.22.47-2.33 2.27.55 3.2-2.88-1.51-2.88 1.51.55-3.2-2.33-2.27 3.22-.47z"/></g></svg>