<?xml version="1.0" encoding="UTF-8"?> <svg xmlns="http://www.w3.org/2000/svg" id="Layer_1" data-name="Layer 1" viewBox="0 0 2755.4 788.94"><defs><style> .cls-1 { fill: #fff; } </style></defs><path class="cls-1" d="M475.94,429.46c0,115.54-88.9,184.52-237.8,184.52-68.42,0-126.32-19.68-167.43-56.91C29.45,519.71,5.12,464.7.37,397.99l-.37-5.12h92.3l.31,4.45c3.03,42.89,18.05,78.21,43.43,102.14,25.37,23.93,61.23,36.57,103.68,36.57,89.96,0,141.55-36.23,141.55-99.4,0-34.93-14.8-58.52-46.57-74.22-29.12-14.39-68.32-20.42-109.81-26.81l-.21-.03-.36-.06c-49.02-7.7-99.72-15.66-139.25-37.65-45.77-25.46-68.02-65.66-68.02-122.89C17.05,63.78,97.64,0,238.14,0c129.5,0,212.16,77.18,221.09,206.46l.35,5.11h-91.56l-.26-4.51c-2.26-40.03-15.65-72.96-38.71-95.25-22.91-22.14-55.45-33.85-94.1-33.85-78.83,0-124.04,33.33-124.04,91.45,0,29.53,13.62,49.64,42.86,63.26,27.35,12.75,65.99,18.6,103.4,24.26l1.52.24c51.17,8.12,104.08,16.52,145.66,40.14,48.17,27.37,71.59,70.6,71.59,132.15ZM1150.46,196.43c-38.39,0-71.22,11.42-94.96,33.02-15.53,14.14-27.24,32.69-34.66,54.71v-83.75h-89.1v405.61h89.1v-216.32c0-37.07,9.17-67.56,26.51-88.18,17.11-20.35,42.32-31.1,72.89-31.1,55.58,0,87.46,33.91,87.46,93.04v242.56h89.1v-244.96c0-103.09-54.71-164.64-146.34-164.64ZM1366.31,200.41h-4.78v405.61h89.1V200.41h-84.32ZM1406.08,151.4c28.02,0,50.82-22.8,50.82-50.82s-22.8-50.82-50.82-50.82-50.82,22.8-50.82,50.82,22.8,50.82,50.82,50.82ZM1869.18,151.4c28.02,0,50.82-22.8,50.82-50.82s-22.8-50.82-50.82-50.82-50.82,22.8-50.82,50.82,22.8,50.82,50.82,50.82ZM1829.43,200.41h-4.78v405.61h89.08V200.41h-84.3ZM1773.22,200.41h-188.29c14.07-5.05,28.61-16.23,41.04-32.03,17.02-21.63,27.18-48.1,27.18-70.8v-41.55h-89.1v144.39h-66.8v72.74h61.24v213.56c0,79.69,47.87,127.27,128.05,127.27,28.91,0,59.99-6.41,83.13-17.15l2.77-1.29v-71.25l-6.92,3.47c-15.29,7.65-35.3,12.22-53.52,12.22-41.53,0-64.4-21.74-64.4-61.23v-205.62h130.41v-72.74h-4.78ZM894.12,200.41h-89.52l-.97,3.5-104.51,376.51h-1.18l-104.38-376.51-.97-3.51h-95.96l1.86,6.16,119.29,396.04,1.03,3.4h73.21l-49.09,176.86-1.68,6.06h86.26l1.01-3.43,170.19-578.96,1.8-6.13h-6.39Z"></path><g><path class="cls-1" d="M2052.83,329.03c15.31,0,27.07,2.91,35.3,8.73,8.23,5.82,12.35,14.5,12.35,26.03,0,6.29-1.13,11.67-3.38,16.12-2.26,4.46-5.5,8.07-9.75,10.86-4.24,2.77-9.41,4.79-15.49,6.05-6.08,1.26-12.95,1.89-20.6,1.89h-12.11v40.41h-15.25v-107.4c4.3-1.04,9.1-1.75,14.39-2.12,5.29-.37,10.14-.55,14.55-.55ZM2054.09,342.39c-6.5,0-11.48.16-14.94.47v42.77h11.48c5.24,0,9.96-.33,14.15-1.02,4.19-.68,7.73-1.84,10.61-3.46,2.88-1.63,5.11-3.85,6.68-6.68,1.57-2.84,2.36-6.45,2.36-10.86s-.81-7.65-2.44-10.38c-1.63-2.73-3.83-4.9-6.6-6.52-2.78-1.62-6-2.75-9.67-3.38-3.67-.63-7.55-.95-11.63-.95Z"></path><path class="cls-1" d="M2140.42,355.29c5.87,0,10.82.75,14.86,2.27,4.03,1.53,7.28,3.67,9.75,6.45,2.46,2.77,4.22,6.08,5.26,9.9,1.05,3.83,1.57,8.05,1.57,12.66v51.11c-1.26.21-3.02.5-5.27.87-2.25.37-4.8.71-7.63,1.02-2.83.32-5.9.6-9.2.87-3.3.26-6.58.4-9.83.4-4.62,0-8.86-.48-12.74-1.41-3.88-.95-7.23-2.44-10.06-4.48-2.83-2.05-5.03-4.74-6.6-8.1-1.57-3.35-2.36-7.39-2.36-12.11s.91-8.38,2.75-11.63c1.84-3.25,4.33-5.87,7.47-7.87,3.14-1.99,6.81-3.46,11.01-4.4,4.19-.94,8.59-1.41,13.21-1.41,1.47,0,2.99.08,4.56.24,1.57.16,3.07.37,4.48.63,1.41.26,2.65.5,3.7.71,1.05.21,1.78.37,2.2.48v-4.09c0-2.41-.26-4.79-.79-7.15-.52-2.36-1.47-4.46-2.83-6.29-1.36-1.83-3.23-3.3-5.58-4.4-2.36-1.1-5.42-1.65-9.2-1.65-4.82,0-9.04.33-12.66,1.02-3.62.68-6.32,1.39-8.1,2.12l-1.73-12.1c1.89-.84,5.03-1.65,9.43-2.44,4.4-.79,9.17-1.18,14.31-1.18ZM2141.68,428.56c3.46,0,6.52-.08,9.2-.23,2.67-.16,4.9-.45,6.68-.87v-24.37c-1.05-.52-2.75-.97-5.11-1.34-2.36-.37-5.22-.56-8.57-.56-2.2,0-4.53.16-7,.48-2.46.31-4.72.97-6.76,1.96-2.04,1-3.75,2.36-5.11,4.08-1.36,1.73-2.04,4.01-2.04,6.84,0,5.25,1.67,8.88,5.03,10.93,3.35,2.05,7.92,3.07,13.68,3.07Z"></path><path class="cls-1" d="M2224.7,355.6c1.26,0,2.7.08,4.32.24,1.63.16,3.23.37,4.8.63,1.57.26,3.01.52,4.33.79,1.31.26,2.28.5,2.91.71l-2.52,12.74c-1.16-.42-3.07-.92-5.74-1.49-2.67-.58-6.11-.87-10.3-.87-2.73,0-5.42.29-8.1.87-2.67.57-4.43.97-5.27,1.18v68.72h-14.62v-78.31c3.46-1.26,7.76-2.44,12.89-3.54,5.13-1.1,10.9-1.65,17.3-1.65Z"></path><path class="cls-1" d="M2267.31,357.33h30.98v12.26h-30.98v37.74c0,4.08.31,7.47.94,10.14.63,2.68,1.57,4.78,2.83,6.29,1.26,1.52,2.83,2.59,4.72,3.22,1.89.64,4.09.95,6.6.95,4.4,0,7.94-.49,10.61-1.49,2.67-.99,4.53-1.7,5.58-2.12l2.83,12.11c-1.47.73-4.04,1.65-7.7,2.75-3.67,1.1-7.86,1.65-12.58,1.65-5.55,0-10.14-.71-13.76-2.12-3.62-1.42-6.53-3.54-8.73-6.37-2.2-2.83-3.75-6.31-4.64-10.46-.89-4.14-1.34-8.93-1.34-14.38v-72.96l14.63-2.52v25.32Z"></path><path class="cls-1" d="M2422.19,398.21c0,6.5-.94,12.37-2.83,17.62-1.89,5.24-4.53,9.74-7.94,13.52-3.41,3.77-7.47,6.68-12.19,8.73-4.72,2.05-9.86,3.07-15.41,3.07s-10.69-1.02-15.41-3.07c-4.72-2.04-8.78-4.95-12.19-8.73-3.41-3.77-6.06-8.28-7.94-13.52-1.89-5.25-2.83-11.12-2.83-17.62s.95-12.24,2.83-17.53c1.88-5.29,4.53-9.83,7.94-13.6,3.41-3.77,7.47-6.68,12.19-8.73,4.72-2.04,9.85-3.06,15.41-3.06s10.69,1.02,15.41,3.06c4.72,2.05,8.78,4.96,12.19,8.73,3.41,3.77,6.05,8.3,7.94,13.6,1.89,5.29,2.83,11.14,2.83,17.53ZM2406.94,398.21c0-9.22-2.07-16.53-6.21-21.93-4.14-5.4-9.78-8.1-16.91-8.1s-12.76,2.7-16.9,8.1c-4.14,5.4-6.21,12.72-6.21,21.93s2.07,16.54,6.21,21.94c4.14,5.4,9.77,8.1,16.9,8.1s12.76-2.7,16.91-8.1c4.14-5.4,6.21-12.72,6.21-21.94Z"></path><path class="cls-1" d="M2473.14,317.07c4.3,0,7.99.32,11.09.95,3.09.63,5.27,1.21,6.53,1.73l-2.67,12.58c-1.26-.64-3.04-1.23-5.35-1.81-2.3-.57-5.14-.87-8.49-.87-6.81,0-11.58,1.87-14.31,5.59-2.73,3.72-4.09,8.73-4.09,15.01v7.08h31.45v12.26h-31.45v69.5h-14.62v-89.16c0-10.48,2.57-18.58,7.7-24.29,5.13-5.71,13.21-8.57,24.21-8.57Z"></path><g><path class="cls-1" d="M2064.77,600.14c-8.17,0-15.51-1.26-22.01-3.77-6.5-2.52-12-6.21-16.51-11.09-4.51-4.87-7.97-10.82-10.38-17.85-2.41-7.02-3.62-15.09-3.62-24.21s1.39-17.19,4.16-24.21c2.78-7.03,6.58-12.98,11.4-17.85,4.82-4.87,10.48-8.57,16.98-11.09,6.5-2.52,13.47-3.77,20.91-3.77,4.51,0,8.59.34,12.27,1.03,3.67.68,6.86,1.44,9.59,2.28,2.72.83,4.97,1.72,6.76,2.67,1.78.95,3.04,1.63,3.77,2.04l-5.82,16.2c-2.52-1.57-6.11-3.07-10.77-4.48-4.66-1.41-9.72-2.12-15.17-2.12-4.72,0-9.12.82-13.21,2.44-4.09,1.63-7.63,4.06-10.61,7.31-2.99,3.25-5.32,7.34-7,12.26-1.68,4.94-2.52,10.64-2.52,17.14,0,5.77.66,11.06,1.97,15.89,1.31,4.82,3.33,8.99,6.06,12.5,2.72,3.51,6.18,6.24,10.38,8.18,4.19,1.94,9.22,2.91,15.1,2.91,7.02,0,12.74-.71,17.14-2.12,4.4-1.42,7.81-2.76,10.22-4.01l5.34,16.2c-1.26.84-2.96,1.68-5.11,2.52-2.15.83-4.69,1.65-7.63,2.43-2.94.79-6.24,1.41-9.91,1.89-3.67.47-7.6.71-11.79.71Z"></path><path class="cls-1" d="M2141.51,513.49c6.29,0,11.58.79,15.88,2.36,4.3,1.57,7.73,3.77,10.3,6.6,2.57,2.83,4.4,6.26,5.5,10.3,1.1,4.04,1.65,8.46,1.65,13.29v49.85c-2.94.63-7.37,1.39-13.29,2.27-5.92.89-12.61,1.34-20.05,1.34-4.93,0-9.43-.48-13.52-1.41-4.09-.95-7.58-2.46-10.46-4.56-2.88-2.1-5.14-4.82-6.76-8.18-1.63-3.35-2.44-7.49-2.44-12.42s.92-8.7,2.75-11.95c1.83-3.25,4.32-5.9,7.47-7.94,3.15-2.05,6.79-3.51,10.93-4.4,4.14-.89,8.46-1.34,12.97-1.34,2.09,0,4.3.14,6.6.4,2.3.26,4.77.71,7.39,1.34v-3.15c0-2.2-.27-4.29-.79-6.29-.53-1.99-1.44-3.75-2.75-5.27-1.31-1.52-3.04-2.7-5.19-3.54-2.15-.84-4.85-1.26-8.1-1.26-4.4,0-8.44.32-12.11.95-3.67.63-6.66,1.37-8.96,2.2l-2.36-15.41c2.41-.83,5.92-1.68,10.53-2.52,4.61-.83,9.54-1.26,14.78-1.26ZM2143.08,584.41c5.87,0,10.32-.31,13.37-.95v-21.07c-1.05-.32-2.57-.63-4.56-.95-1.99-.31-4.2-.47-6.6-.47-2.1,0-4.22.16-6.37.47-2.15.32-4.09.89-5.82,1.73-1.73.84-3.12,2.02-4.17,3.54-1.05,1.52-1.57,3.43-1.57,5.74,0,4.51,1.42,7.63,4.25,9.36,2.83,1.72,6.66,2.59,11.48,2.59Z"></path><path class="cls-1" d="M2270.61,556.74c0,6.29-.81,12.06-2.44,17.29-1.63,5.25-3.96,9.75-7,13.53-3.04,3.77-6.84,6.71-11.4,8.81-4.56,2.1-9.72,3.15-15.49,3.15-3.88,0-7.45-.48-10.69-1.41-3.25-.95-5.92-1.99-8.02-3.15v31.92h-19.03v-108.66c3.88-1.05,8.65-2.04,14.31-2.99,5.66-.95,11.64-1.41,17.93-1.41s12.32.99,17.46,2.99c5.13,1.99,9.51,4.85,13.13,8.57,3.62,3.72,6.39,8.23,8.33,13.53,1.94,5.29,2.91,11.24,2.91,17.85ZM2251.11,557.05c0-8.49-1.91-15.09-5.74-19.81-3.83-4.72-9.99-7.07-18.48-7.07-1.78,0-3.64.07-5.58.23-1.94.16-3.85.5-5.74,1.03v47.01c1.67,1.16,3.9,2.23,6.68,3.23,2.77.99,5.74,1.49,8.88,1.49,6.92,0,11.98-2.36,15.17-7.08,3.2-4.71,4.8-11.05,4.8-19.03Z"></path><path class="cls-1" d="M2356.62,589.44c0,13.1-3.33,22.7-9.99,28.78-6.66,6.08-16.85,9.12-30.58,9.12-5.03,0-9.93-.42-14.7-1.26-4.77-.84-9.1-1.95-12.97-3.31l3.46-16.2c3.25,1.36,6.94,2.46,11.09,3.31,4.14.83,8.62,1.26,13.44,1.26,7.65,0,13.1-1.57,16.35-4.72,3.25-3.14,4.88-7.81,4.88-13.99v-3.14c-1.89.94-4.38,1.88-7.47,2.83-3.1.94-6.63,1.41-10.61,1.41-5.25,0-10.04-.84-14.39-2.52-4.35-1.68-8.07-4.14-11.17-7.39-3.1-3.25-5.5-7.31-7.23-12.18-1.73-4.88-2.59-10.51-2.59-16.9,0-5.98.91-11.48,2.75-16.51,1.83-5.03,4.51-9.33,8.02-12.9,3.51-3.56,7.78-6.34,12.82-8.33,5.03-1.99,10.74-2.99,17.14-2.99s12.06.47,17.61,1.41c5.56.95,10.28,1.94,14.15,2.99v71.23ZM2303.63,554.54c0,8.07,1.75,13.97,5.26,17.69,3.51,3.72,8.05,5.58,13.61,5.58,3.04,0,5.9-.42,8.57-1.26,2.67-.84,4.85-1.84,6.53-2.99v-42.61c-1.36-.32-3.04-.6-5.03-.87-1.99-.26-4.51-.4-7.55-.4-6.92,0-12.21,2.28-15.88,6.84-3.67,4.56-5.5,10.56-5.5,18.01Z"></path><path class="cls-1" d="M2374.71,557.05c0-7.23,1.07-13.57,3.22-19.03,2.15-5.45,5-9.99,8.57-13.61,3.56-3.62,7.65-6.34,12.26-8.18,4.61-1.83,9.33-2.75,14.15-2.75,11.32,0,20.15,3.51,26.5,10.54,6.34,7.03,9.51,17.51,9.51,31.45,0,1.05-.02,2.23-.08,3.54-.06,1.31-.14,2.49-.24,3.54h-54.25c.52,6.6,2.86,11.71,7,15.33,4.14,3.62,10.14,5.43,18.01,5.43,4.61,0,8.83-.42,12.66-1.26,3.83-.83,6.84-1.72,9.04-2.67l2.52,15.57c-1.05.52-2.49,1.07-4.32,1.65-1.84.57-3.93,1.1-6.29,1.57-2.36.48-4.9.87-7.63,1.18-2.73.31-5.5.47-8.33.47-7.23,0-13.52-1.07-18.87-3.22-5.34-2.15-9.75-5.14-13.21-8.96-3.46-3.83-6.03-8.34-7.7-13.53-1.68-5.19-2.52-10.87-2.52-17.06ZM2429.9,548.56c0-2.62-.37-5.11-1.1-7.47-.74-2.36-1.81-4.4-3.22-6.14-1.41-1.73-3.15-3.09-5.19-4.08-2.05-1-4.48-1.49-7.31-1.49s-5.5.55-7.71,1.65c-2.2,1.1-4.06,2.54-5.58,4.33-1.52,1.78-2.7,3.82-3.54,6.13-.84,2.31-1.41,4.66-1.73,7.08h35.38Z"></path><path class="cls-1" d="M2514.34,554.54c0-8.6-1.08-14.81-3.22-18.64-2.15-3.83-6.16-5.74-12.03-5.74-2.1,0-4.41.15-6.92.47-2.52.32-4.4.58-5.66.79v66.36h-19.03v-79.57c3.67-1.05,8.46-2.04,14.39-2.99,5.92-.95,12.19-1.41,18.79-1.41,5.66,0,10.3.73,13.92,2.2,3.62,1.47,6.63,3.41,9.04,5.82,1.15-.84,2.62-1.73,4.4-2.67,1.78-.95,3.77-1.81,5.98-2.6,2.2-.79,4.53-1.44,7-1.96,2.46-.52,4.95-.79,7.47-.79,6.39,0,11.66.91,15.8,2.75,4.14,1.84,7.39,4.4,9.75,7.71,2.36,3.3,3.98,7.29,4.87,11.94.89,4.67,1.34,9.78,1.34,15.34v46.23h-19.03v-43.24c0-8.6-1.05-14.81-3.14-18.64-2.1-3.83-6.14-5.74-12.11-5.74-3.04,0-5.92.49-8.65,1.49-2.73.99-4.77,1.96-6.13,2.91.83,2.62,1.41,5.4,1.73,8.33.31,2.94.47,6.09.47,9.44v45.44h-19.03v-43.24Z"></path><path class="cls-1" d="M2623.15,491.48c0,3.57-1.16,6.4-3.46,8.5-2.31,2.1-5.03,3.14-8.18,3.14s-6.03-1.04-8.33-3.14c-2.31-2.1-3.46-4.93-3.46-8.5s1.15-6.55,3.46-8.65c2.3-2.1,5.08-3.15,8.33-3.15s5.87,1.05,8.18,3.15c2.3,2.1,3.46,4.97,3.46,8.65ZM2621.11,597.78h-19.03v-82.24h19.03v82.24Z"></path><path class="cls-1" d="M2643.75,518.21c3.67-1.05,8.44-2.04,14.31-2.99,5.87-.95,12.37-1.41,19.5-1.41,6.71,0,12.31.91,16.82,2.75,4.51,1.84,8.1,4.4,10.77,7.71,2.67,3.3,4.56,7.29,5.66,11.94,1.1,4.67,1.65,9.78,1.65,15.34v46.23h-19.03v-43.24c0-4.4-.29-8.15-.87-11.24-.58-3.09-1.52-5.61-2.83-7.55-1.32-1.94-3.1-3.35-5.35-4.24-2.26-.89-5.01-1.34-8.26-1.34-2.41,0-4.93.15-7.55.47-2.62.32-4.56.58-5.82.79v66.36h-19.03v-79.57Z"></path><path class="cls-1" d="M2755.4,491.48c0,3.57-1.16,6.4-3.46,8.5-2.31,2.1-5.03,3.14-8.18,3.14s-6.03-1.04-8.33-3.14c-2.31-2.1-3.46-4.93-3.46-8.5s1.15-6.55,3.46-8.65c2.3-2.1,5.08-3.15,8.33-3.15s5.87,1.05,8.18,3.15c2.3,2.1,3.46,4.97,3.46,8.65ZM2753.35,597.78h-19.03v-82.24h19.03v82.24Z"></path></g></g></svg> 