<?xml version="1.0" encoding="iso-8859-1"?>
<!-- Generator: Adobe Illustrator 19.0.0, SVG Export Plug-In . SVG Version: 6.00 Build 0)  -->
<svg version="1.1" id="Capa_1" xmlns="http://www.w3.org/2000/svg" xmlns:xlink="http://www.w3.org/1999/xlink" x="0px" y="0px"
	 viewBox="0 0 468.293 468.293" style="enable-background:new 0 0 468.293 468.293;" xml:space="preserve">
<path style="fill:#3A556A;" d="M468.293,86.349H0V30.154c0-10.345,8.386-18.732,18.732-18.732h430.829
	c10.345,0,18.732,8.386,18.732,18.732V86.349z"/>
<path style="fill:#64798A;" d="M449.561,456.87H18.732C8.386,456.87,0,448.484,0,438.139V86.349h468.293v351.79
	C468.293,448.484,459.906,456.87,449.561,456.87z"/>
<rect x="18.732" y="105.085" style="fill:#EBF0F3;" width="430.829" height="333.05"/>
<circle style="fill:#FCD462;" cx="43.064" cy="48.884" r="18.732"/>
<circle style="fill:#27A2DB;" cx="105.503" cy="48.884" r="18.732"/>
<circle style="fill:#44C4A1;" cx="167.942" cy="48.884" r="18.732"/>
<path style="fill:#EBF0F3;" d="M431.473,64.495H237.517c-6.897,0-12.488-5.591-12.488-12.488v-6.244
	c0-6.897,5.591-12.488,12.488-12.488h193.956c6.897,0,12.488,5.591,12.488,12.488v6.244
	C443.961,58.904,438.37,64.495,431.473,64.495z"/>
<rect x="43.707" y="130.06" style="fill:#27A2DB;" width="113.14" height="81.795"/>
<rect x="43.707" y="230.725" style="fill:#E56353;" width="113.14" height="81.795"/>
<rect x="43.707" y="331.364" style="fill:#FCD462;" width="113.14" height="81.795"/>
<g>
	<rect x="181.797" y="136.304" style="fill:#D5D6DB;" width="242.788" height="18.732"/>
	<rect x="181.797" y="186.861" style="fill:#D5D6DB;" width="167.43" height="18.732"/>
	<rect x="181.797" y="236.969" style="fill:#D5D6DB;" width="242.788" height="18.732"/>
	<rect x="181.797" y="287.525" style="fill:#D5D6DB;" width="167.43" height="18.732"/>
	<rect x="181.797" y="337.608" style="fill:#D5D6DB;" width="242.788" height="18.732"/>
	<rect x="181.797" y="388.183" style="fill:#D5D6DB;" width="167.43" height="18.732"/>
</g>
<g>
</g>
<g>
</g>
<g>
</g>
<g>
</g>
<g>
</g>
<g>
</g>
<g>
</g>
<g>
</g>
<g>
</g>
<g>
</g>
<g>
</g>
<g>
</g>
<g>
</g>
<g>
</g>
<g>
</g>
</svg>
