<?xml version="1.0" encoding="iso-8859-1"?>
<!-- Generator: Adobe Illustrator 19.0.0, SVG Export Plug-In . SVG Version: 6.00 Build 0)  -->
<svg version="1.1" id="Capa_1" xmlns="http://www.w3.org/2000/svg" xmlns:xlink="http://www.w3.org/1999/xlink" x="0px" y="0px"
	 viewBox="0 0 511.999 511.999" style="enable-background:new 0 0 511.999 511.999;" xml:space="preserve">
<path style="fill:#1E2D64;" d="M191.089,233.647l-83.296-36.588c-10.233-4.495-14.885-16.435-10.39-26.668
	c4.496-10.233,16.435-14.885,26.668-10.39l75.323,33.087l69.886-29.447c10.3-4.343,22.168,0.492,26.507,10.792
	c4.341,10.3-0.491,22.169-10.792,26.508l-77.91,32.828C202.017,235.906,196.228,235.905,191.089,233.647z"/>
<path style="fill:#FFB69E;" d="M295.787,174.433c-4.34-10.3-16.207-15.134-26.507-10.792l15.715,37.3
	C295.296,196.6,300.128,184.733,295.787,174.433z"/>
<rect x="267.579" y="163.968" transform="matrix(-0.9215 0.3883 -0.3883 -0.9215 595.2422 248.1245)" style="fill:#FFFFFF;" width="9.942" height="40.477"/>
<path style="fill:#E6EBF0;" d="M264.821,198.887c-0.883-0.03-1.776-0.166-2.665-0.414c-6.008-1.68-9.514-7.912-7.833-13.918
	l20.752-74.178c1.68-6.007,7.912-9.514,13.918-7.833c6.008,1.68,9.514,7.912,7.834,13.918l-20.753,74.178
	C274.643,195.758,269.906,199.061,264.821,198.887z"/>
<path style="fill:#59250F;" d="M477.314,473.492c-7.758,0-14.048-6.289-14.048-14.048V287.958H291.558v171.486
	c0,7.758-6.289,14.048-14.048,14.048c-7.758,0-14.048-6.289-14.048-14.048V273.911c0-7.758,6.289-14.048,14.048-14.048h199.804
	c7.758,0,14.048,6.289,14.048,14.048v185.534C491.361,467.203,485.072,473.492,477.314,473.492z"/>
<path style="fill:#80391B;" d="M490.928,252.838c-16.973,0-217.96,0-227.032,0c-11.637,0-21.071,9.434-21.071,21.072
	s9.434,21.072,21.071,21.072c9.176,0,217.446,0,227.032,0c11.637,0,21.072-9.434,21.072-21.072S502.565,252.838,490.928,252.838z"/>
<path style="fill:#414B82;" d="M238.375,473.295c13.223-1.69,22.574-13.779,20.884-27.002l-15.914-124.552
	c-1.252-9.798-8.346-17.843-17.91-20.312l-50.47-13.03l7.64-107.64c1.173-16.523-11.271-30.867-27.793-32.039l-50.905-3.613
	c-17.43-1.237-32.247,12.654-32.114,30.144l0.926,121.804c0.082,10.79,8.852,19.493,19.641,19.493
	c1.232,0.553,2.512,1.032,3.864,1.381l101.307,26.155l13.842,108.328c1.557,12.186,11.943,21.082,23.912,21.082
	C236.304,473.492,237.337,473.428,238.375,473.295z"/>
<path style="fill:#80868C;" d="M113.661,444.217c-7.758,0-14.048-6.289-14.048-14.048v-90.219c0-7.758,6.289-14.048,14.048-14.048
	s14.048,6.289,14.048,14.048v90.219C127.709,437.928,121.419,444.217,113.661,444.217z"/>
<path style="fill:#1E2D64;" d="M172.996,316.137l9.609-135.378c1.173-16.523-11.271-30.867-27.793-32.039l-50.905-3.613
	c-17.43-1.237-32.247,12.654-32.114,30.144l0.923,121.393c0.082,10.79,8.852,19.493,19.641,19.493h80.639V316.137z"/>
<path style="fill:#3C5A73;" d="M198.856,337.651c0,11.637-9.434,21.072-21.071,21.072H44.482c-10.614,0-19.571-7.895-20.906-18.425
	L0.169,155.453c-1.462-11.545,6.713-22.091,18.258-23.553c11.536-1.464,22.091,6.712,23.553,18.258l21.075,166.42h114.73
	C189.422,316.578,198.856,326.013,198.856,337.651z"/>
<path style="fill:#C2C8CE;" d="M172.833,473.492c-3.595,0-7.191-1.372-9.933-4.115l-21.401-21.4H84l-21.4,21.4
	c-5.487,5.485-14.381,5.486-19.867,0s-5.486-14.381-0.001-19.867l25.514-25.515c2.635-2.635,6.208-4.114,9.934-4.114h69.136
	c3.726,0,7.3,1.48,9.933,4.114l25.515,25.515c5.486,5.486,5.486,14.381,0.001,19.867
	C180.024,472.121,176.429,473.492,172.833,473.492z"/>
<path style="fill:#373C41;" d="M357.561,382.498h-37.039c-9.976,0-18.091-8.116-18.091-18.092V339.8
	c0-9.977,8.116-18.092,18.091-18.092h37.039c9.977,0,18.092,8.116,18.092,18.092v24.605
	C375.654,374.381,367.537,382.498,357.561,382.498z M320.875,364.053h36.334v-23.902h-36.334V364.053z"/>
<path style="fill:#80391B;" d="M398.603,473.492H278.72c-8.65,0-15.663-7.013-15.663-15.663v-85.092
	c0-8.65,7.013-15.663,15.663-15.663h119.884c8.65,0,15.663,7.013,15.663,15.663v85.092
	C414.267,466.48,407.254,473.492,398.603,473.492z"/>
<path style="fill:#59250F;" d="M398.603,357.073h-59.941v116.419h59.941c8.65,0,15.663-7.013,15.663-15.663v-85.092
	C414.267,364.087,407.254,357.073,398.603,357.073z"/>
<path style="fill:#C8D2DC;" d="M416.672,252.838h-60.528c-5.858,0-10.607-4.749-10.607-10.607s4.749-10.607,10.607-10.607h60.528
	c5.858,0,10.607,4.749,10.607,10.607S422.53,252.838,416.672,252.838z"/>
<g>
	<path style="fill:#ABB8C4;" d="M416.672,231.624h-60.528c-5.858,0-10.607-4.749-10.607-10.607c0-5.858,4.749-10.607,10.607-10.607
		h60.528c5.858,0,10.607,4.749,10.607,10.607C427.279,226.875,422.53,231.624,416.672,231.624z"/>
	<path style="fill:#ABB8C4;" d="M416.672,189.197h-60.528c-5.858,0-10.607-4.749-10.607-10.607c0-5.858,4.749-10.607,10.607-10.607
		h60.528c5.858,0,10.607,4.749,10.607,10.607C427.279,184.448,422.53,189.197,416.672,189.197z"/>
</g>
<path style="fill:#C8D2DC;" d="M416.672,210.41h-60.528c-5.858,0-10.607-4.749-10.607-10.607c0-5.858,4.749-10.607,10.607-10.607
	h60.528c5.858,0,10.607,4.749,10.607,10.607C427.279,205.662,422.53,210.41,416.672,210.41z"/>
<circle style="fill:#FFB69E;" cx="140.446" cy="82.904" r="44.397"/>
<path style="fill:#E6EBF0;" d="M172.43,101.372c1.988,1.771,2.165,4.819,0.394,6.807l-18.145,20.371
	c-1.771,1.988-4.819,2.165-6.807,0.394l-33.65-29.972c-1.988-1.771-2.165-4.819-0.394-6.807l18.145-20.371
	c1.771-1.988,4.819-2.165,6.807-0.394L172.43,101.372z"/>
<path style="fill:#414B82;" d="M179.309,229.495l-81-37.167c-10.273-4.714-14.779-16.862-10.065-27.135
	c4.714-10.273,16.863-14.779,27.135-10.066l47.352,21.727l-7.03-53.503c-1.473-11.206,6.419-21.485,17.625-22.956
	c11.208-1.476,21.485,6.419,22.957,17.625l11.853,90.209C210.233,224.21,193.856,236.171,179.309,229.495z"/>
<path style="fill:#FFB69E;" d="M196.281,118.02c-1.473-11.206-11.748-19.101-22.956-17.625
	c-11.206,1.473-19.097,11.75-17.625,22.956L196.281,118.02z"/>
<rect x="156.19" y="120.645" transform="matrix(-0.9915 0.1303 -0.1303 -0.9915 368.1859 227.3531)" style="fill:#FFFFFF;" width="40.931" height="10.153"/>
<g>
</g>
<g>
</g>
<g>
</g>
<g>
</g>
<g>
</g>
<g>
</g>
<g>
</g>
<g>
</g>
<g>
</g>
<g>
</g>
<g>
</g>
<g>
</g>
<g>
</g>
<g>
</g>
<g>
</g>
</svg>
