<svg xmlns="http://www.w3.org/2000/svg" width="48" height="48"><path fill="#8596BD" d="M24.047 48.484c-1.364 0-2.698-.12-4-.338V33.484h-5v-5H.385a24.133 24.133 0 0 1-.338-4c0-13.255 10.745-24 24-24 13.254 0 24 10.745 24 24s-10.745 24-24 24z"/><path fill="#37386B" d="M31.056 18.518l-.01 12.966 5.55.007c.273 0 .534-.106.726-.3l8.075-8.15c.336-.336.497-.81.44-1.28-1.22-9.944-9.1-17.826-19.043-19.048a1.543 1.543 0 0 0-1.28.44l-8.17 8.077c-.193.192-.3.453-.3.725l.003 5.532 12.985.01a1.022 1.022 0 0 1 1.024 1.023z"/><path fill="#FFF" d="M20.264 48.185C10.047 46.568 1.977 38.505.35 28.29l10.503-10.508c.193-.192.453-.3.726-.3h5.46v12.973c0 .566.46 1.025 1.025 1.025h12.99l-.002 5.485c0 .272-.108.533-.3.726l-10.49 10.496z"/></svg>