<svg xmlns="http://www.w3.org/2000/svg" width="48" height="48"><path fill="#8596BD" d="M24 0c13.255 0 24 10.745 24 24S37.255 48 24 48 0 37.255 0 24 10.745 0 24 0z"/><path fill="#FFF" d="M36.6 36.285c.217-.216.515-.35.844-.35.66 0 1.194.406 1.194 1.066 0 .463-.322.9-.648 1.186-3.193 2.86-7.63 5.07-12.634 5.07-10.77 0-17.86-8.745-17.86-17.262 0-7.995 6.595-14.84 13.978-14.84 7.385 0 10.292 5.077 10.292 5.077L36.6 36.286z"/><path fill="#3C3F78" d="M45.995 24.006V24v.006zm-1.65-1.816c-1.056 0-1.65.86-1.65 1.677-.084 2.91-1.127 6.534-3.167 9.335-2.158 2.962-6.333 6.376-12.138 6.376-6.99 0-12.113-5.287-12.113-10.932 0-3.94 2.647-6.57 5.342-6.57 1.455 0 2.273.627 2.717 1.202.332.43.975.453 1.358.07l14.86-14.904A21.93 21.93 0 0 1 45.995 24c0-.913-.74-1.81-1.65-1.81z"/></svg>