<svg xmlns="http://www.w3.org/2000/svg" viewBox="0 0 48 48"><circle cx="24" cy="24" r="24" fill="#8596bd"/><path d="M32.1 24.3v-.1H18.9c-6.3 0-11.6 3.4-14.3 8.5C7 38.2 12 42.6 18 44.4v-3.6c0-6.9 5-12.6 11.6-13.8 1.3-.3 2.3-1.5 2.5-2.7zm-.2-.5h13v-.3c-.1-1.3-1-2.4-2.4-2.7-5.3-1-9.5-5.8-9.5-11.7V4.8c-2.7-1.3-5.8-2.1-9.1-2.1-2.1 0-4 .3-6 .9v3.6c0 6.9 5 12.6 11.5 13.8 1.5.3 2.6 1.5 2.6 3v-.2z" fill="#414084"/><g fill="#FFF"><path d="M45.3 24H32.1c0 1.5-1.1 2.7-2.6 3C23 28.2 18 33.9 18 40.8v6.4c2 .5 3.9.8 6 .8 3.3 0 6.3-.6 9.2-2v-7.3c0-5.7 4-10.7 9.6-11.7 1.3-.2 2.4-1.4 2.4-2.7 0-.1 0-.1.1-.3z"/><path d="M18.9 24h13.2v.1c0-1.5-1.1-2.7-2.6-3C23 19.9 18 14.2 18 7.3V.9C11.7 2.4 6.4 6.6 3.3 12c.3 1.2.8 2.4 1.3 3.4 2.8 5.2 8 8.6 14.3 8.6z"/></g></svg>