<svg xmlns="http://www.w3.org/2000/svg" width="48" height="48"><path fill="#8596BD" d="M24.5.5c13.255 0 24 10.745 24 24s-10.745 24-24 24-24-10.745-24-24 10.745-24 24-24z"/><path fill="#FFF" d="M41.49 7.504h.002A23.974 23.974 0 0 0 24.3.47C11.39.576.776 11 .465 23.89c-.1 4.187.873 8.138 2.664 11.598a.215.215 0 0 0 .244.108.212.212 0 0 0 .15-.28c-2.35-6.206-1.027-13.48 3.973-18.476 6.804-6.798 17.837-6.798 24.642 0L16.88 32.085c6.806 6.798 17.805 6.832 24.61.035 6.804-6.798 6.804-17.818 0-24.616z"/><path fill="#32325D" d="M35.04 21.675c1.562 5.827-1.894 11.817-7.717 13.378-5.823 1.56-11.81-1.897-13.37-7.724-1.56-5.83 1.897-11.818 7.72-13.38 5.823-1.56 11.808 1.897 13.368 7.724z"/></svg>