<svg xmlns="http://www.w3.org/2000/svg" viewBox="0 0 800 600"><path d="M800 321v259c0 11-9 20-20 20H20c-11 0-20-9-20-20V321h800z" fill="#f2f2f2"/><path d="M48 483.4h177c4.4 0 8 3.6 8 8v128.8c0 4.4-3.6 8-8 8H48c-4.4 0-8-3.6-8-8V491.4c0-4.4 3.6-8 8-8z" fill="#e5e5e5"/><path d="M57 498.4h159c1.1 0 2 .9 2 2v110.8c0 1.1-.9 2-2 2H57c-1.1 0-2-.9-2-2V500.4c0-1.1.9-2 2-2z" fill="#43b0aa"/><path d="M137.3 537.7H77c-1.1 0-2-.9-2-2v-3.9c0-1.1.9-2 2-2h60.3c1.1 0 2 .9 2 2v3.9c0 1.1-.9 2-2 2zM77 545.2h47c1.1 0 2 .9 2 2v3.9c0 1.1-.9 2-2 2H77c-1.1 0-2-.9-2-2v-3.9c0-1.1.9-2 2-2z" fill="#FFF"/><path d="M312 483.4h177c4.4 0 8 3.6 8 8v128.8c0 4.4-3.6 8-8 8H312c-4.4 0-8-3.6-8-8V491.4c0-4.4 3.6-8 8-8z" fill="#e5e5e5"/><path d="M319 510.1h163v101.1c0 1.1-.9 2-2 2H321c-1.1 0-2-.9-2-2V510.1z" fill="#43458b"/><path d="M377 557.8h47c1.1 0 2 .9 2 2v3.9c0 1.1-.9 2-2 2h-47c-1.1 0-2-.9-2-2v-3.9c0-1.1.9-2 2-2zm-56-59.4h159c1.1 0 2 .9 2 2v10.2H319v-10.2c0-1.1.9-2 2-2z" fill="#FFF"/><path d="M575 483.4h177c4.4 0 8 3.6 8 8v128.8c0 4.4-3.6 8-8 8H575c-4.4 0-8-3.6-8-8V491.4c0-4.4 3.6-8 8-8z" fill="#e5e5e5"/><path d="M584 498.4h159c1.1 0 2 .9 2 2v110.8c0 1.1-.9 2-2 2H584c-1.1 0-2-.9-2-2V500.4c0-1.1.9-2 2-2z" fill="#f79a59"/><path d="M690 508.4h43c1.1 0 2 .9 2 2v39.4c0 1.1-.9 2-2 2h-43c-1.1 0-2-.9-2-2v-39.4c0-1.1.9-2 2-2zm0 53h43c1.1 0 2 .9 2 2v49.4c0 1.1-.9 2-2 2h-43c-1.1 0-2-.9-2-2v-49.4c0-1.1.9-2 2-2z" fill="#FFF"/><path d="M456 430h-52c-1.1 0-2-.9-2-2v-2c0-1.1.9-2 2-2h52c1.1 0 2 .9 2 2v2c0 1.1-.9 2-2 2zm-116 0c-1.1 0-2-.9-2-2v-2c0-1.1.9-2 2-2h40c1.1 0 2 .9 2 2v2c0 1.1-.9 2-2 2h-40zm-50 0c-1.1 0-2-.9-2-2v-2c0-1.1.9-2 2-2h26c1.1 0 2 .9 2 2v2c0 1.1-.9 2-2 2h-26zm-64 0c-1.1 0-2-.9-2-2v-2c0-1.1.9-2 2-2h40c1.1 0 2 .9 2 2v2c0 1.1-.9 2-2 2h-40zm-64 0c-1.1 0-2-.9-2-2v-2c0-1.1.9-2 2-2h40c1.1 0 2 .9 2 2v2c0 1.1-.9 2-2 2h-40zm-42 0c-1.1 0-2-.9-2-2v-2c0-1.1.9-2 2-2h18c1.1 0 2 .9 2 2v2c0 1.1-.9 2-2 2h-18zm-68 0c-1.1 0-2-.9-2-2v-2c0-1.1.9-2 2-2h44c1.1 0 2 .9 2 2v2c0 1.1-.9 2-2 2H52z" opacity=".102"/><path d="M52 391h234c1.1 0 2 .9 2 2v2c0 1.1-.9 2-2 2H52c-1.1 0-2-.9-2-2v-2c0-1.1.9-2 2-2z" opacity=".749"/><path d="M0 20C0 9 9 0 20 0h760c11 0 20 9 20 20v318H0V20z" fill="#455664"/><path d="M183 218h-82c-1.1 0-2-.9-2-2v-2c0-1.1.9-2 2-2h82c1.1 0 2 .9 2 2v2c0 1.1-.9 2-2 2zm-82 6h77c1.1 0 2 .9 2 2v2c0 1.1-.9 2-2 2h-77c-1.1 0-2-.9-2-2v-2c0-1.1.9-2 2-2z" opacity=".502" fill="#FFF"/><path d="M52 212h25c1.1 0 2 .9 2 2v14c0 1.1-.9 2-2 2H52c-1.1 0-2-.9-2-2v-14c0-1.1.9-2 2-2zm279.3-37.9c4.8 1.2 7.3 2.9 7.3 6.7v.1c0 4.3-3.3 6.8-8.1 6.8-3.5 0-6.8-1.2-9.5-3.6l2.4-2.9c2.2 1.9 4.4 3 7.2 3 2.5 0 4-1.1 4-2.9v-.1c0-1.6-.9-2.5-5.1-3.5-4.8-1.2-7.6-2.6-7.6-6.8v-.1c0-3.9 3.2-6.6 7.8-6.6 3.3 0 5.9 1 8.3 2.9l-2.1 3c-2-1.5-4.1-2.3-6.2-2.3-2.3 0-3.7 1.2-3.7 2.7v.1c-.1 1.7.9 2.5 5.3 3.5zm-32.2-9.5H316v3.6h-12.9v5.9h11.4v3.6h-11.4v6.1h13v3.6h-17v-22.8zm-10.6 22.7l-5.6-7.9h-5v7.9h-4v-22.8H284c2.9 0 5.1.8 6.6 2.3 1.2 1.2 1.9 2.9 1.9 4.9v.1c0 3.7-2.2 6-5.4 6.9l6.1 8.6h-4.7zm0-15.3c0-2.5-1.8-3.8-4.7-3.8H278v7.6h5.9c2.7 0 4.6-1.5 4.6-3.8zm-33 15.7c-7 0-11.9-5.3-11.9-11.7v-.1c0-6.4 4.9-11.8 11.9-11.8s11.9 5.3 11.9 11.7v.1c.1 6.4-4.9 11.8-11.9 11.8zm7.8-11.8c0-4.4-3.2-8.1-7.7-8.1s-7.7 3.6-7.7 8v.1c0 4.4 3.2 8.1 7.7 8.1s7.7-3.6 7.7-8.1zm-30.5 11.4h-4v-19h-7.2v-3.7h18.5v3.7h-7.2v19zm-23.6.3c-3.5 0-6.8-1.2-9.5-3.6l2.4-2.9c2.2 1.9 4.4 3 7.2 3 2.5 0 4-1.1 4-2.9v-.1c0-1.6-.9-2.5-5.1-3.5-4.8-1.2-7.6-2.6-7.6-6.8v-.1c0-3.9 3.2-6.6 7.8-6.6 3.3 0 5.9 1 8.3 2.9l-2.1 3c-2-1.5-4.1-2.3-6.2-2.3-2.3 0-3.7 1.2-3.7 2.7v.1c0 1.8 1 2.5 5.4 3.6 4.8 1.2 7.3 2.9 7.3 6.7v.1c0 4.2-3.4 6.7-8.2 6.7zm-42.7-23h16.9v3.6h-12.9v5.9h11.4v3.6h-11.4v6.1h13v3.6h-17v-22.8zm-23.4 6.5v16.2h-3.9v-22.8h3.7l12.2 15.7v-15.7h3.9v22.8h-3.3l-12.6-16.2zm-15.6-6.5h4v22.8h-4v-22.8zm-22 0h4v19.1h12v3.6h-16v-22.7zm-23.4 6.5v16.2h-3.9v-22.8h3.7l12.2 15.7v-15.7H98v22.8h-3.3l-12.6-16.2zm-22.3 16.6c-7 0-11.9-5.3-11.9-11.7v-.1c0-6.4 4.9-11.8 11.9-11.8s11.9 5.3 11.9 11.7v.1c0 6.4-4.9 11.8-11.9 11.8zm7.7-11.8c0-4.4-3.2-8.1-7.7-8.1s-7.7 3.6-7.7 8v.1c0 4.4 3.2 8.1 7.7 8.1s7.7-3.6 7.7-8.1zm43-118.9c0-3.4-2.5-6.3-6.2-6.3s-6.2 2.9-6.2 6.3 2.5 6.3 6.2 6.3c1.5 0 2.8-.5 3.8-1.3l1.6 1.5.9-1-1.6-1.3c1-1.2 1.5-2.7 1.5-4.2zm-2.4 3.2l-2.2-2-.9 1 2.3 1.9c-.7.6-1.7.9-2.8.9-2.8 0-4.8-2.3-4.8-5 0-2.8 2-5 4.8-5s4.8 2.3 4.8 5c-.2 1.2-.6 2.3-1.2 3.2zM122 58c0 2.7-1.4 4-3.7 4-2.3 0-3.7-1.5-3.7-4.1v-7h-1.4V58c0 3.4 2.1 5.3 5.1 5.3 3 0 5.1-1.8 5.1-5.4v-7H122V58zm82.4 4c-2.7 0-4.7-2.2-4.7-5s2-5 4.7-5c1.7 0 2.8.7 3.8 1.7l.9-1c-1.2-1.2-2.5-1.9-4.8-1.9-3.6 0-6.2 2.9-6.2 6.3 0 3.5 2.6 6.3 6.1 6.3 2.2 0 3.6-.9 4.9-2.1l-.9-.9c-1 1-2.1 1.6-3.8 1.6zm8.6-.2v-4.3h6.7v-1.3H213V52h7.4v-1.3h-8.8v12.2h8.9v-1.3H213zm-33.1-10.9h-4.6v12.2h1.4v-4.3h3c2.6 0 4.8-1.4 4.8-4 0-2.4-1.8-3.9-4.6-3.9zm3.2 3.9c0 1.6-1.3 2.7-3.3 2.7h-3v-5.4h3.1c1.9.1 3.2 1 3.2 2.7zm-91.2 1.5c-2.7-.6-3.3-1.2-3.3-2.4 0-1.1 1-2 2.6-2 1.3 0 2.4.4 3.5 1.3l.8-1.1c-1.2-1-2.5-1.5-4.3-1.5-2.3 0-4 1.4-4 3.3 0 2 1.3 2.9 4.1 3.5 2.6.5 3.2 1.2 3.2 2.3 0 1.2-1.1 2.1-2.7 2.1-1.7 0-2.9-.6-4.2-1.7l-.9 1c1.5 1.3 3 1.9 5 1.9 2.4 0 4.2-1.4 4.2-3.4-.1-1.7-1.3-2.7-4-3.3zm62 1.3h6.6v-1.3h-6.6v-4.2h7.4v-1.3h-8.8V63h8.9v-1.3h-7.5v-4.1zm14.7-1.3c-2.7-.6-3.3-1.2-3.3-2.4 0-1.1 1-2 2.6-2 1.3 0 2.4.4 3.5 1.3l.8-1.1c-1.2-1-2.5-1.5-4.3-1.5-2.3 0-4 1.4-4 3.3 0 2 1.3 2.9 4.1 3.5 2.6.5 3.2 1.2 3.2 2.3 0 1.2-1.1 2.1-2.7 2.1-1.7 0-2.9-.6-4.2-1.7l-.9 1c1.5 1.3 3 1.9 5 1.9 2.4 0 4.2-1.4 4.2-3.4 0-1.7-1.3-2.7-4-3.3zm-37.9-5.5l-5.6 12.3h1.4l1.4-3.2h6.6l1.4 3.2h1.5L132 50.8h-1.3zm-2.1 7.8l2.8-6.2 2.8 6.2h-5.6zm61.7-7.8l-5.6 12.3h1.4l1.4-3.2h6.6l1.4 3.2h1.5l-5.6-12.3h-1.1zm-2.2 7.8l2.8-6.2 2.8 6.2h-5.6zm-38.5-4.1c0-1-.3-1.8-.9-2.4-.8-.8-2-1.2-3.5-1.2H140v12.2h1.4v-4.7h3.5l3.5 4.7h1.7l-3.7-5c1.8-.3 3.2-1.5 3.2-3.6zm-8.3 2.6v-4.9h3.8c2 0 3.1.9 3.1 2.4 0 1.6-1.3 2.5-3.1 2.5h-3.8zm-87.7 1.4c.6.6 1.5.6 2 0l9.2-9.2c1.1-1.1 3-1.1 4.1 0 .6.6 1.5.6 2 0 .6-.6.6-1.5 0-2-2.3-2.3-5.9-2.3-8.2 0l-9.2 9.2c-.4.5-.4 1.4.1 2zM68 52.3c.6-.6.6-1.5 0-2-.6-.6-1.5-.6-2 0l-9.2 9.2c-1.1 1.1-3 1.1-4.1 0-1.1-1.1-1.1-3 0-4.1l9-9c-1.1-1.1-3-1.1-4.1 0l-7 7c-2.3 2.3-2.3 5.9 0 8.2 2.3 2.3 5.9 2.3 8.2 0l9.2-9.3zm1 1l-9.2 9.2c-.6.6-.6 1.5 0 2 .6.6 1.5.6 2 0l9.2-9.2c1.1-1.1 3-1.1 4.1 0 1.1 1.1 1.1 3 0 4.1l-9 9c1.1 1.1 3 1.1 4.1 0l7-7c2.3-2.3 2.3-5.9 0-8.2-2.3-2.1-5.9-2.1-8.2.1zm5.1 3.1c-.6-.6-1.5-.6-2 0l-9.2 9.2c-1.1 1.1-3 1.1-4.1 0-.6-.6-1.5-.6-2 0-.6.6-.6 1.5 0 2 2.3 2.3 5.9 2.3 8.2 0l9.2-9.2c.5-.5.5-1.4-.1-2z" fill="#FFF"/><path d="M466 60h-77c-1.1 0-2-.9-2-2v-2c0-1.1.9-2 2-2h77c1.1 0 2 .9 2 2v2c0 1.1-.9 2-2 2zm-145 0c-1.1 0-2-.9-2-2v-2c0-1.1.9-2 2-2h44c1.1 0 2 .9 2 2v2c0 1.1-.9 2-2 2h-44zm-64 0c-1.1 0-2-.9-2-2v-2c0-1.1.9-2 2-2h40c1.1 0 2 .9 2 2v2c0 1.1-.9 2-2 2h-40z" opacity=".502" fill="#FFF"/><path d="M20 0h760c11 0 20 9 20 20v560c0 11-9 20-20 20H20c-11 0-20-9-20-20V20C0 9 9 0 20 0z" fill-opacity="0"/><linearGradient id="a" gradientUnits="userSpaceOnUse" x1="0" y1="600" x2="800" y2="0" ><stop offset="0" stop-color="#FFF" stop-opacity="0"/><stop offset="1" stop-color="#FFF" stop-opacity="0.2"/></linearGradient><path d="M20 0h760c11 0 20 9 20 20v560c0 11-9 20-20 20H20c-11 0-20-9-20-20V20C0 9 9 0 20 0z" fill="url(#a)"/></svg>