<svg xmlns="http://www.w3.org/2000/svg" viewBox="0 0 72 72"><circle cx="36" cy="36" r="36" fill="#6BD5F8"/><path fill="#FFF" d="M34.38 17.61l-15.21 5.14A3.23 3.23 0 0 0 17 25.82V45.5c0 1.35.82 2.55 2.05 3.03l15 5.74c1.26.48 2.64.48 3.9 0l15-5.74A3.23 3.23 0 0 0 55 45.5V25.81c0-1.39-.87-2.62-2.16-3.06l-14.96-5.13a5.43 5.43 0 0 0-3.5-.01"/><path fill="#CEF2FF" d="M53.24 48.4l-15.69 6c-.5.16-1.03.23-1.55.23V33c0-1.35.82-2.56 2.05-3.03l16.22-6.21c.46.56.73 1.29.73 2.06V45.5c0 1.24-.69 2.36-1.76 2.9zM47.77 21l-18.84 7.34c-.52.2-.93.8-.93 1.36v4.77l-4-1.45v-5.48c0-.56.42-1.16.94-1.36L43 19.38 47.77 21z"/></svg>
