<svg xmlns="http://www.w3.org/2000/svg" viewBox="0 0 72 72"><circle cx="36" cy="36" r="36" fill="#68D4F8"/><path fill="#FFF" d="M49 39.94V31c0-5-9-4-9-4s1-9-4-9H24a1 1 0 0 0-1 1v32a1 1 0 0 0 1 1h12.94A9 9 0 0 1 49 39.94z"/><rect width="14" height="2" x="29" y="34" fill="#68D4F8" rx="1"/><rect width="7" height="2" x="29" y="39" fill="#68D4F8" rx="1"/><path fill="#CEF2FF" d="M52 48a7 7 0 1 0-3.4 6l3.47 3.48a1 1 0 1 0 1.41-1.41l-3.33-3.33A6.97 6.97 0 0 0 52 48z"/><circle cx="45" cy="48" r="5" fill="#68D4F8"/></svg>
