<svg xmlns="http://www.w3.org/2000/svg" viewBox="0 0 72 72"><circle cx="36" cy="36" r="36" fill="#68D4F8"/><path fill="#E6F9FF" d="M46.62 32.15l4.34 2.44c1.38.77 1.38 2.03 0 2.8l-12.48 7.02a5.64 5.64 0 0 1-4.99 0L21.02 37.4c-1.38-.77-1.38-2.03 0-2.8l4.35-2.46 7.16 4.02.1.05a7.64 7.64 0 0 0 6.75 0l.1-.05 7.14-4.01z"/><path fill="#CEF2FF" d="M46.62 42.15l4.34 2.44c1.38.77 1.38 2.03 0 2.8l-12.48 7.02a5.64 5.64 0 0 1-4.99 0L21.02 47.4c-1.38-.77-1.38-2.03 0-2.8l4.35-2.46 7.16 4.02.1.05a7.64 7.64 0 0 0 6.75 0l.1-.05 7.14-4.01z"/><path fill="#FFF" d="M38.48 17.47l12.48 7.02c1.38.78 1.38 2.03 0 2.8l-12.48 7.02a5.64 5.64 0 0 1-4.99 0L21.02 27.3c-1.38-.78-1.38-2.03 0-2.8l12.47-7.02a5.65 5.65 0 0 1 5 0z"/></svg>
