<svg xmlns="http://www.w3.org/2000/svg" viewBox="0 0 72 72"><circle cx="36" cy="36" r="36" fill="#68D4F8"/><rect width="6" height="5" x="33" y="48" fill="#FFF" rx="2"/><path fill="#CEF2FF" d="M37.13 33.96a23.01 23.01 0 0 1 6.56-7.77l-3.48-3.48c-.39-.39-.27-.71.28-.71h11.52a1 1 0 0 1 .99 1v11.5c0 .55-.32.68-.7.3l-4.35-4.35c-3.44 1.88-6.35 6.36-7.86 12.02a36.29 36.29 0 0 0-2.96-8.51z"/><path fill="#FFF" d="M28.3 26.2l3.5-3.5c.38-.38.26-.7-.3-.7H20a1 1 0 0 0-1 1v11.5c0 .55.32.68.7.3l4.35-4.35C29.09 33.2 33 41.53 33 51h6c0-10.77-4.47-20.33-10.7-24.8z"/></svg>
