<?xml version="1.0" encoding="iso-8859-1"?>
<!-- Generator: Adobe Illustrator 19.0.0, SVG Export Plug-In . SVG Version: 6.00 Build 0)  -->
<svg version="1.1" id="Layer_1" xmlns="http://www.w3.org/2000/svg" xmlns:xlink="http://www.w3.org/1999/xlink" x="0px" y="0px"
	 viewBox="0 0 511.999 511.999" style="enable-background:new 0 0 511.999 511.999;" xml:space="preserve">
<path style="fill:#365558;" d="M435.024,443.177c-2.074,0-4.146-0.791-5.729-2.372l-73.317-73.318
	c-3.163-3.165-3.163-8.293,0-11.456c3.166-3.164,8.294-3.161,11.456,0l73.317,73.318c3.163,3.165,3.163,8.293,0,11.457
	C439.17,442.386,437.097,443.177,435.024,443.177z"/>
<path style="fill:#4ACFD9;" d="M375.159,64.376C333.646,22.863,278.451,0,219.742,0S105.838,22.863,64.324,64.376
	c-85.697,85.698-85.697,225.138,0,310.836c41.514,41.512,96.708,64.375,155.418,64.375s113.904-22.863,155.418-64.375
	c41.514-41.515,64.376-96.709,64.376-155.419S416.673,105.89,375.159,64.376z"/>
<path style="fill:#9BAAAB;" d="M509.576,461.512l-61.097-61.097c-3.165-3.162-8.293-3.162-11.457,0l-36.659,36.659
	c-3.164,3.165-3.164,8.293,0,11.456l61.097,61.097c1.582,1.581,3.656,2.372,5.729,2.372c2.073,0,4.146-0.791,5.729-2.372
	l36.659-36.659C512.738,469.805,512.738,464.676,509.576,461.512z"/>
<path style="fill:#687F82;" d="M418.175,419.26l-17.814,17.814c-3.163,3.165-3.163,8.293,0,11.456l61.097,61.097
	c1.582,1.581,3.656,2.372,5.729,2.372c2.073,0,4.146-0.791,5.729-2.372l17.814-17.814L418.175,419.26z"/>
<path style="fill:#0295AA;" d="M63.814,64.899c-85.18,85.74-85.014,224.788,0.51,310.313
	c41.514,41.512,96.708,64.375,155.418,64.375c58.465,0,113.441-22.679,154.895-63.866L63.814,64.899z"/>
<path style="fill:#E6EAEA;" d="M331.217,108.319c-61.467-61.466-161.481-61.466-222.949,0
	c-29.776,29.775-46.175,69.365-46.175,111.475s16.399,81.7,46.174,111.475c30.733,30.733,71.104,46.101,111.474,46.101
	c40.371,0,80.741-15.367,111.475-46.101C392.683,269.801,392.683,169.787,331.217,108.319z"/>
<path style="fill:#CDD4D5;" d="M107.757,108.842c-29.449,29.716-45.664,69.087-45.664,110.952c0,42.11,16.399,81.7,46.174,111.475
	c30.733,30.733,71.104,46.101,111.474,46.101c40.144,0,80.283-15.201,110.952-45.591L107.757,108.842z"/>
<g>
	<path style="fill:#FFFFFF;" d="M399.033,227.894c-4.475,0-8.1-3.626-8.1-8.101c0-22.935-4.417-45.143-13.13-66.003
		c-1.724-4.128,0.225-8.873,4.353-10.598c4.131-1.725,8.873,0.225,10.597,4.353c9.542,22.849,14.381,47.157,14.381,72.248
		C407.133,224.269,403.508,227.894,399.033,227.894z"/>
	<path style="fill:#FFFFFF;" d="M366.072,124.211c-2.533,0-5.026-1.184-6.607-3.403c-5.556-7.805-11.838-15.228-18.674-22.064
		c-32.333-32.334-75.323-50.141-121.05-50.141c-4.474,0-8.101-3.626-8.101-8.101s3.627-8.101,8.101-8.101
		c50.055,0,97.112,19.492,132.507,54.885c7.471,7.472,14.34,15.589,20.417,24.124c2.593,3.645,1.742,8.703-1.902,11.298
		C369.339,123.723,367.697,124.211,366.072,124.211z"/>
</g>
<path style="fill:#9BAAAB;" d="M158.225,155.53h-38.882c-4.474,0-8.101,3.626-8.101,8.101v108.007c0,4.475,3.627,8.101,8.101,8.101
	h38.882c4.474,0,8.101-3.626,8.101-8.101V163.63C166.326,159.156,162.699,155.53,158.225,155.53z"/>
<path style="fill:#F0353D;" d="M235.99,168.491h-38.882c-4.474,0-8.101,3.626-8.101,8.101v95.046c0,4.475,3.627,8.101,8.101,8.101
	h38.882c4.474,0,8.101-3.626,8.101-8.101v-95.046C244.091,172.116,240.464,168.491,235.99,168.491z"/>
<path style="fill:#FF8C29;" d="M313.755,129.608h-38.882c-4.475,0-8.101,3.626-8.101,8.101v133.928c0,4.475,3.626,8.101,8.101,8.101
	h38.882c4.475,0,8.1-3.626,8.1-8.101V137.709C321.856,133.234,318.23,129.608,313.755,129.608z"/>
<path style="fill:#365558;" d="M331.036,279.738H102.062c-4.474,0-8.101-3.626-8.101-8.101s3.627-8.1,8.101-8.1h228.975
	c4.475,0,8.1,3.626,8.1,8.1S335.511,279.738,331.036,279.738z"/>
<g>
</g>
<g>
</g>
<g>
</g>
<g>
</g>
<g>
</g>
<g>
</g>
<g>
</g>
<g>
</g>
<g>
</g>
<g>
</g>
<g>
</g>
<g>
</g>
<g>
</g>
<g>
</g>
<g>
</g>
</svg>
