<?xml version="1.0" encoding="UTF-8"?> <svg xmlns="http://www.w3.org/2000/svg" viewBox="0 0 300.67 179.94"><defs><style>.cls-1,.cls-2{fill:#fff;}.cls-2{fill-rule:evenodd;}</style></defs><title>logo-aws-white</title><g id="Layer_2" data-name="Layer 2"><g id="Layer_1-2" data-name="Layer 1"><path class="cls-1" d="M84.73,65.43a30.26,30.26,0,0,0,1.1,8.9,53.53,53.53,0,0,0,3.2,7.2,4.35,4.35,0,0,1,.7,2.3,4,4,0,0,1-1.9,3L81.53,91a4.79,4.79,0,0,1-2.6.9,4.6,4.6,0,0,1-3-1.4,31,31,0,0,1-3.6-4.7l-3.1-5.9a37,37,0,0,1-29.4,13.8c-8.4,0-15.1-2.4-20-7.2a25.73,25.73,0,0,1-7.4-19.2c0-8.5,3-15.4,9.1-20.6A36.47,36.47,0,0,1,46,38.93a79.18,79.18,0,0,1,10.6.8c3.7.5,7.5,1.3,11.5,2.2v-7.3c0-7.6-1.6-12.9-4.7-16S54.83,14,47.13,14a45.5,45.5,0,0,0-10.8,1.3A80.05,80.05,0,0,0,22,20l-1.6.3c-1.4,0-2.1-1-2.1-3.1v-4.9a6.33,6.33,0,0,1,.7-3.5,7.49,7.49,0,0,1,2.8-2.1A60.62,60.62,0,0,1,50,.33c11.9,0,20.6,2.7,26.2,8.1S84.53,22,84.53,33v32.4Zm-40.6,15.2a32.41,32.41,0,0,0,10.3-1.8,22.28,22.28,0,0,0,9.5-6.4,15.87,15.87,0,0,0,3.4-6.4,35.9,35.9,0,0,0,1-8.7v-4.2a83.8,83.8,0,0,0-18.6-2.3c-6.7,0-11.6,1.3-14.9,4s-4.9,6.5-4.9,11.5c0,4.7,1.2,8.2,3.7,10.6S39.53,80.63,44.13,80.63Zm80.3,10.8a5.58,5.58,0,0,1-3.8-1,8.15,8.15,0,0,1-2.1-3.9L95,9.23a17.52,17.52,0,0,1-.9-4,2.19,2.19,0,0,1,2.4-2.5h9.8c1.9,0,3.2.3,3.9,1s1.4,2,2,3.9L129,73.83l15.6-66.2c.5-2,1.1-3.3,1.9-3.9a6.88,6.88,0,0,1,4-1h8c1.9,0,3.2.3,4,1a6.74,6.74,0,0,1,1.9,3.9l15.8,67,17.3-67a8.58,8.58,0,0,1,2-3.9,6.52,6.52,0,0,1,3.9-1h9.3a2.22,2.22,0,0,1,2.5,2.5l-.2,1.6-.7,2.5-24.1,77.3q-.9,3-2.1,3.9a6.4,6.4,0,0,1-3.8,1h-8.6c-1.9,0-3.2-.3-4-1a7.09,7.09,0,0,1-1.9-4L154.33,22l-15.4,64.4a7.81,7.81,0,0,1-1.9,4,6.2,6.2,0,0,1-4,1Zm128.5,2.7a66.18,66.18,0,0,1-26.9-5.8,7.21,7.21,0,0,1-3.1-2.8,7.07,7.07,0,0,1-.6-2.8v-5.1c0-2.1.8-3.1,2.3-3.1l1.8.3,2.5,1a54.39,54.39,0,0,0,22.9,4.7,26.93,26.93,0,0,0,14.6-3.3,10.77,10.77,0,0,0,5.2-9.5,9.74,9.74,0,0,0-2.7-7,25.11,25.11,0,0,0-10.1-5.2L244.33,51a30.49,30.49,0,0,1-16-10.2,23.8,23.8,0,0,1,4.34-33.38l.56-.42a31.74,31.74,0,0,1,10.4-5.2,43.76,43.76,0,0,1,19.3-1.3l6.5,1.1,5.7,1.6a21.82,21.82,0,0,1,4.2,1.8,8.65,8.65,0,0,1,3,2.5,5.39,5.39,0,0,1,.9,3.3v4.7c0,2.1-.8,3.2-2.3,3.2a10.4,10.4,0,0,1-3.8-1.2,45.77,45.77,0,0,0-19.2-3.9c-5.7,0-10.2.9-13.3,2.8s-4.7,4.8-4.7,8.9a9.44,9.44,0,0,0,3,7.1c2,1.9,5.7,3.8,11,5.5l14.2,4.5a30.39,30.39,0,0,1,15.5,9.6,22.63,22.63,0,0,1,4.6,14,25.71,25.71,0,0,1-2.6,11.6,26.75,26.75,0,0,1-7.3,8.8,32.22,32.22,0,0,1-11.1,5.6,47.44,47.44,0,0,1-14.3,2.1Z"></path><path class="cls-2" d="M271.83,142.73c-32.9,24.3-80.7,37.2-121.8,37.2a220.29,220.29,0,0,1-148.7-56.7c-3.1-2.8-.3-6.6,3.4-4.4a299.87,299.87,0,0,0,148.8,39.5A297,297,0,0,0,267,135.13C272.53,132.63,277.23,138.73,271.83,142.73Z"></path><path class="cls-2" d="M285.53,127.13c-4.2-5.4-27.8-2.6-38.5-1.3-3.2.4-3.7-2.4-.8-4.5,18.8-13.2,49.7-9.4,53.3-5s-1,35.4-18.6,50.2c-2.7,2.3-5.3,1.1-4.1-1.9C280.83,154.73,289.73,132.43,285.53,127.13Z"></path></g></g></svg> 