<?xml version="1.0" encoding="iso-8859-1"?>
<!-- Generator: Adobe Illustrator 19.0.0, SVG Export Plug-In . SVG Version: 6.00 Build 0)  -->
<svg version="1.1" id="Capa_1" xmlns="http://www.w3.org/2000/svg" xmlns:xlink="http://www.w3.org/1999/xlink" x="0px" y="0px"
	 viewBox="0 0 511 511" style="enable-background:new 0 0 511 511;" xml:space="preserve">
<path d="M495.5,332h-16.525c0.005-0.167,0.025-0.331,0.025-0.5v-224c0-8.547-6.953-15.5-15.5-15.5h-24
	c-8.547,0-15.5,6.953-15.5,15.5v0.525c-0.167-0.005-0.331-0.025-0.5-0.025h-40c-0.169,0-0.333,0.02-0.5,0.025V91.5
	c0-8.547-6.953-15.5-15.5-15.5h-16c-0.169,0-0.333,0.02-0.5,0.025V67.5c0-8.547-6.953-15.5-15.5-15.5h-40
	c-8.547,0-15.5,6.953-15.5,15.5v40.525c-0.167-0.005-0.331-0.025-0.5-0.025h-16c-0.169,0-0.333,0.02-0.5,0.025V91.5
	c0-8.547-6.953-15.5-15.5-15.5h-16c-8.547,0-15.5,6.953-15.5,15.5v0.525C215.833,92.02,215.669,92,215.5,92h-32
	c-0.169,0-0.333,0.02-0.5,0.025V91.5c0-8.547-6.953-15.5-15.5-15.5h-48c-8.547,0-15.5,6.953-15.5,15.5v8.525
	c-0.167-0.005-0.331-0.025-0.5-0.025h-16c-8.547,0-15.5,6.953-15.5,15.5v8.525C71.833,124.02,71.669,124,71.5,124h-24
	c-8.547,0-15.5,6.953-15.5,15.5v192c0,0.169,0.02,0.333,0.025,0.5H15.5C6.953,332,0,338.953,0,347.5v16
	c0,8.547,6.953,15.5,15.5,15.5h19.365l37.927,75.854c1.291,2.583,3.916,4.147,6.706,4.147c0.571,0,1.15-0.066,1.725-0.201
	C84.608,458,87,454.978,87,451.5V379h337v72.5c0,3.478,2.392,6.5,5.777,7.299c0.576,0.136,1.153,0.201,1.725,0.201
	c2.791,0,5.415-1.564,6.706-4.147L476.135,379H495.5c8.547,0,15.5-6.953,15.5-15.5v-16C511,338.953,504.047,332,495.5,332z
	 M439,123.5v-16c0-0.275,0.224-0.5,0.5-0.5h24c0.276,0,0.5,0.225,0.5,0.5v224c0,0.275-0.224,0.5-0.5,0.5h-24
	c-0.276,0-0.5-0.225-0.5-0.5V123.5z M383,123.5c0-0.275,0.224-0.5,0.5-0.5h40c0.276,0,0.5,0.225,0.5,0.5V140h-41V123.5z M383,155h41
	v145h-41V155z M383,315h41v16.5c0,0.275-0.224,0.5-0.5,0.5h-40c-0.276,0-0.5-0.225-0.5-0.5V315z M351,91.5
	c0-0.275,0.224-0.5,0.5-0.5h16c0.276,0,0.5,0.225,0.5,0.5v32v208c0,0.275-0.224,0.5-0.5,0.5h-16c-0.276,0-0.5-0.225-0.5-0.5V91.5z
	 M295,123.5v-56c0-0.275,0.224-0.5,0.5-0.5h40c0.276,0,0.5,0.225,0.5,0.5v24v240c0,0.275-0.224,0.5-0.5,0.5h-40
	c-0.276,0-0.5-0.225-0.5-0.5V123.5z M263,123.5c0-0.275,0.224-0.5,0.5-0.5h16c0.276,0,0.5,0.225,0.5,0.5V140h-17V123.5z M263,155h17
	v145h-17V155z M263,315h17v16.5c0,0.275-0.224,0.5-0.5,0.5h-16c-0.276,0-0.5-0.225-0.5-0.5V315z M231,107.5v-16
	c0-0.275,0.224-0.5,0.5-0.5h16c0.276,0,0.5,0.225,0.5,0.5v32v208c0,0.275-0.224,0.5-0.5,0.5h-16c-0.276,0-0.5-0.225-0.5-0.5V107.5z
	 M183,107.5c0-0.275,0.224-0.5,0.5-0.5h32c0.276,0,0.5,0.225,0.5,0.5v224c0,0.275-0.224,0.5-0.5,0.5h-32c-0.276,0-0.5-0.225-0.5-0.5
	V107.5z M119,91.5c0-0.275,0.224-0.5,0.5-0.5h48c0.276,0,0.5,0.225,0.5,0.5v16v0.5h-49V91.5z M119,123h49v177h-49V123z M119,315h49
	v16.5c0,0.275-0.224,0.5-0.5,0.5h-48c-0.276,0-0.5-0.225-0.5-0.5V315z M87,139.5v-24c0-0.275,0.224-0.5,0.5-0.5h16
	c0.276,0,0.5,0.225,0.5,0.5v216c0,0.275-0.224,0.5-0.5,0.5h-16c-0.276,0-0.5-0.225-0.5-0.5V139.5z M47,139.5
	c0-0.275,0.224-0.5,0.5-0.5h24c0.276,0,0.5,0.225,0.5,0.5v192c0,0.275-0.224,0.5-0.5,0.5h-24c-0.276,0-0.5-0.225-0.5-0.5V139.5z
	 M72,419.729L51.635,379H72V419.729z M439,419.729V379h20.365L439,419.729z M496,363.5c0,0.275-0.224,0.5-0.5,0.5h-480
	c-0.276,0-0.5-0.225-0.5-0.5v-16c0-0.275,0.224-0.5,0.5-0.5h480c0.276,0,0.5,0.225,0.5,0.5V363.5z"/>
<g>
</g>
<g>
</g>
<g>
</g>
<g>
</g>
<g>
</g>
<g>
</g>
<g>
</g>
<g>
</g>
<g>
</g>
<g>
</g>
<g>
</g>
<g>
</g>
<g>
</g>
<g>
</g>
<g>
</g>
</svg>
