<svg height="512pt" viewBox="-28 0 511 512" width="512pt" xmlns="http://www.w3.org/2000/svg"><path d="m445.898438 265.589844c-5.523438 0-10 4.476562-10 10v204.640625c0 6.488281-5.28125 11.769531-11.769532 11.769531h-391.859375c-6.488281 0-11.769531-5.277344-11.769531-11.769531v-348.320313c0-6.488281 5.28125-11.769531 11.769531-11.769531h24.261719v73.859375c0 5.523438 4.480469 10 10 10 5.523438 0 10-4.476562 10-10v-73.859375h89.667969v67.859375c0 5.523438 4.476562 10 10 10h104c5.523437 0 10-4.476562 10-10v-67.859375h133.929687c6.488282 0 11.769532 5.28125 11.769532 11.769531v62.425782c0 5.519531 4.476562 10 10 10 5.523437 0 10-4.480469 10-10v-62.425782c0-5.734375-1.535157-11.113281-4.207032-15.761718-.171875-.359376-.359375-.714844-.578125-1.058594l-63.898437-100.378906c-5.863282-9.210938-15.882813-14.710938-26.800782-14.710938h-265.082031c-10.980469 0-21.027343 5.546875-26.878906 14.835938l-63.195313 100.292968c-.210937.335938-.394531.679688-.558593 1.027344-2.667969 4.648438-4.199219 10.023438-4.199219 15.753906v348.320313c0 17.515625 14.253906 31.769531 31.769531 31.769531h391.859375c17.515625 0 31.769532-14.253906 31.769532-31.769531v-204.640625c0-5.523438-4.476563-10-10-10zm-175.699219-87.589844h-84v-57.859375h84zm100.144531-152.550781 47.546875 74.691406h-129.242187l-14.042969-80.140625h85.808593c4.046876 0 7.757813 2.035156 9.929688 5.449219zm-116.042969-5.449219 13.992188 79.859375h-80.1875l13.992187-79.859375zm-168.929687 5.496094c2.167968-3.441406 5.894531-5.496094 9.960937-5.496094h86.460938l-14.042969 80.140625h-129.410156zm0 0"/><path d="m445.898438 225.859375c-2.628907 0-5.210938 1.070313-7.070313 2.929687-1.859375 1.859376-2.929687 4.441407-2.929687 7.070313s1.070312 5.210937 2.929687 7.070313c1.859375 1.859374 4.441406 2.929687 7.070313 2.929687 2.628906 0 5.210937-1.070313 7.070312-2.929687 1.859375-1.859376 2.929688-4.441407 2.929688-7.070313s-1.070313-5.210937-2.929688-7.070313c-1.859375-1.859374-4.441406-2.929687-7.070312-2.929687zm0 0"/><path d="m118.371094 336c0 60.730469 49.410156 110.140625 110.140625 110.140625 60.734375 0 110.140625-49.410156 110.140625-110.140625s-49.40625-110.140625-110.140625-110.140625-110.140625 49.410156-110.140625 110.140625zm200.28125 0c0 49.703125-40.4375 90.140625-90.140625 90.140625s-90.140625-40.4375-90.140625-90.140625 40.4375-90.140625 90.140625-90.140625c49.707031 0 90.140625 40.4375 90.140625 90.140625zm0 0"/><path d="m219 285.390625-22.46875 58.070313h-4.578125c-5.523437 0-10 4.476562-10 10 0 4.480468 2.949219 8.277343 7.015625 9.546874l-6.339844 16.382813c-1.996094 5.152344.566406 10.941406 5.714844 12.9375 5.152344 1.992187 10.941406-.566406 12.933594-5.71875l8.957031-23.148437h36.179687l8.957032 23.148437c1.535156 3.964844 5.320312 6.394531 9.332031 6.394531 1.199219 0 2.417969-.21875 3.605469-.675781 5.148437-1.992187 7.710937-7.785156 5.714844-12.9375l-6.339844-16.382813c4.066406-1.269531 7.015625-5.0625 7.015625-9.546874 0-5.523438-4.476563-10-10-10h-4.578125l-22.46875-58.070313c-1.492188-3.851563-5.195313-6.390625-9.328125-6.390625-4.128907 0-7.835938 2.539062-9.324219 6.390625zm19.675781 58.070313h-20.699219l10.347657-26.75zm0 0"/><path d="m59.460938 222.859375c-1.863282 1.859375-2.933594 4.441406-2.933594 7.070313 0 2.628906 1.070312 5.210937 2.933594 7.070312 1.859374 1.859375 4.4375 2.929688 7.066406 2.929688 2.640625 0 5.210937-1.070313 7.082031-2.929688 1.859375-1.859375 2.917969-4.441406 2.917969-7.070312 0-2.628907-1.058594-5.210938-2.917969-7.070313-1.871094-1.859375-4.441406-2.929687-7.082031-2.929687-2.628906 0-5.210938 1.070312-7.066406 2.929687zm0 0"/></svg>