<?xml version="1.0" encoding="iso-8859-1"?>
<!-- Generator: Adobe Illustrator 19.0.0, SVG Export Plug-In . SVG Version: 6.00 Build 0)  -->
<svg version="1.1" id="Layer_1" xmlns="http://www.w3.org/2000/svg" xmlns:xlink="http://www.w3.org/1999/xlink" x="0px" y="0px"
	 viewBox="0 0 512 512" style="enable-background:new 0 0 512 512;" xml:space="preserve">
<polygon style="fill:#EB6836;" points="134.765,8.118 251.67,438.934 396.718,438.934 405.378,503.882 470.325,503.882 
	409.708,8.118 "/>
<polygon style="fill:#C74B38;" points="409.708,8.118 134.765,8.118 196.185,234.465 437.383,234.465 "/>
<polygon style="fill:#F7D04A;" points="102.291,8.118 41.674,503.882 106.621,503.882 115.281,438.934 260.329,438.934 
	251.67,503.882 316.617,503.882 377.234,8.118 "/>
<polygon style="fill:#F3B41B;" points="102.291,8.118 41.674,503.882 106.621,503.882 115.281,438.934 225.31,438.934 
	126.397,8.118 "/>
<g>
	<polygon style="fill:#666666;" points="377.234,8.118 375.561,8.118 321.438,62.241 370.739,62.241 	"/>
	<polygon style="fill:#666666;" points="165.388,8.118 111.266,62.241 160.252,62.241 214.375,8.118 	"/>
	<polygon style="fill:#666666;" points="270.475,8.118 216.352,62.241 265.338,62.241 319.46,8.118 	"/>
</g>
<polygon style="fill:#FEE7BE;" points="409.708,8.118 376.152,8.118 315.534,503.882 350.173,503.882 "/>
<g>
	<path style="fill:#EB6836;" d="M191.066,341.518c-0.698,0-1.406-0.056-2.117-0.173c-7.079-1.16-11.878-7.84-10.716-14.919
		l2.129-12.989c1.16-7.08,7.837-11.879,14.919-10.716c7.079,1.16,11.878,7.84,10.716,14.919l-2.129,12.989
		C202.825,336.996,197.315,341.518,191.066,341.518z"/>
	<path style="fill:#EB6836;" d="M200.293,285.231c-0.699,0-1.405-0.056-2.117-0.173c-7.079-1.16-11.878-7.84-10.716-14.919
		l12.422-75.772c1.16-7.08,7.841-11.878,14.919-10.716c7.079,1.16,11.878,7.84,10.716,14.919l-12.422,75.772
		C212.052,280.708,206.542,285.231,200.293,285.231z"/>
</g>
<path d="M478.383,502.897l-3.177-25.979c-0.544-4.45-4.595-7.622-9.043-7.073c-4.451,0.543-7.617,4.593-7.073,9.043l2.063,16.875
	h-48.668l-7.72-57.901c-0.538-4.033-3.978-7.046-8.047-7.046h-29.594L409.78,75.601l45.075,368.649
	c0.543,4.448,4.757,7.683,9.194,7.052c4.321-0.615,7.453-4.684,6.922-9.022L417.767,7.133C417.268,3.061,413.81,0,409.708,0H102.291
	c-4.103,0-7.56,3.061-8.058,7.133l-40.5,331.232c-0.544,4.45,2.622,8.499,7.073,9.043c4.453,0.553,8.499-2.622,9.043-7.073
	l33.01-269.976h257.504l-52.014,425.404h-47.406l7.434-55.756c0.639-4.795-3.213-9.191-8.047-9.191H115.282
	c-4.069,0-7.51,3.012-8.047,7.046l-7.721,57.901H50.845l13.71-112.131c0.544-4.45-2.622-8.499-7.073-9.043
	c-4.449-0.547-8.499,2.623-9.043,7.073L33.617,502.897c-0.583,4.768,3.258,9.103,8.058,9.103h64.947
	c4.069,0,7.509-3.012,8.047-7.046l7.719-57.901h128.668l-7.434,55.756c-0.639,4.795,3.213,9.191,8.047,9.191h98.503
	c4.109,0,7.571-3.07,8.06-7.151l6.942-57.796h24.436l7.72,57.901c0.538,4.033,3.978,7.046,8.047,7.046h64.947
	C475.125,512,478.966,507.664,478.383,502.897z M284.938,54.123l37.886-37.886h33.137l-37.886,37.886H284.938z M362.371,53.932
	l-21.242,0.099l24.187-24.187L362.371,53.932z M179.852,54.123l37.886-37.886h33.137l-37.886,37.886H179.852z M145.79,16.237
	l-37.886,37.886h-3.059l4.632-37.886H145.79z M130.866,54.123l37.886-37.886h26.024L156.89,54.123H130.866z M235.951,54.123
	l37.886-37.886h26.024l-37.886,37.886H235.951z M342.971,495.763h-18.265l58.632-479.526h17.219L342.971,495.763z"/>
<path d="M108.652,386.436h179.966c7.708,0,14.793-3.528,19.438-9.679s6.099-13.931,3.988-21.344l-66.845-234.813
	c-2.795-9.815-11.17-16.723-21.337-17.597c-10.175-0.871-19.6,4.502-24.029,13.695L86.71,351.509
	c-3.659,7.594-3.165,16.389,1.318,23.527C92.513,382.174,100.223,386.436,108.652,386.436z M101.339,358.557L214.46,123.744
	c1.952-4.051,5.542-4.593,7.323-4.593c0.277,0,0.511,0.013,0.687,0.028c1.309,0.113,5.689,0.868,7.113,5.866l66.845,234.812
	c1.455,5.111-2.504,10.342-7.809,10.342H108.652C102.753,370.199,98.768,363.891,101.339,358.557z"/>
<path d="M187.633,349.356c1.134,0.186,2.289,0.28,3.432,0.28c10.38,0,19.133-7.442,20.814-17.695l2.129-12.989
	c0.913-5.564-0.397-11.149-3.687-15.729c-3.29-4.579-8.164-7.603-13.728-8.516c-5.566-0.913-11.153,0.395-15.731,3.686
	c-4.578,3.29-7.602,8.165-8.513,13.729l-2.129,12.989c-0.913,5.564,0.397,11.149,3.687,15.729
	C177.196,345.419,182.071,348.444,187.633,349.356z M186.244,327.738l2.129-12.989c0.43-2.627,2.972-4.439,5.594-4.018
	c2.618,0.42,4.448,2.98,4.018,5.594l-2.129,12.989c-0.393,2.397-2.57,4.185-5.001,4.081
	C187.977,333.271,185.774,330.593,186.244,327.738z"/>
<path d="M196.862,293.069c11.392,1.868,22.38-6.03,24.246-17.414l12.422-75.772c1.882-11.485-5.93-22.361-17.414-24.245
	c-5.563-0.909-11.149,0.398-15.728,3.686c-4.58,3.29-7.604,8.165-8.517,13.729l-12.422,75.772
	C177.565,280.31,185.377,291.185,196.862,293.069z M195.471,271.451l12.422-75.772c0.43-2.625,2.973-4.439,5.594-4.018
	c2.618,0.42,4.448,2.98,4.018,5.594l-12.422,75.772c-0.431,2.629-2.899,4.465-5.594,4.018
	C196.839,276.611,195.036,274.102,195.471,271.451z"/>
<g>
</g>
<g>
</g>
<g>
</g>
<g>
</g>
<g>
</g>
<g>
</g>
<g>
</g>
<g>
</g>
<g>
</g>
<g>
</g>
<g>
</g>
<g>
</g>
<g>
</g>
<g>
</g>
<g>
</g>
</svg>
