<?xml version="1.0" encoding="iso-8859-1"?>
<!-- Generator: Adobe Illustrator 19.0.0, SVG Export Plug-In . SVG Version: 6.00 Build 0)  -->
<svg version="1.1" id="Capa_1" xmlns="http://www.w3.org/2000/svg" xmlns:xlink="http://www.w3.org/1999/xlink" x="0px" y="0px"
	 viewBox="0 0 512 512" style="enable-background:new 0 0 512 512;" xml:space="preserve">
<g>
	<g>
		<path d="M457.21,364.789c6.181-9.432,9.79-20.694,9.79-32.789c0-33.084-26.916-60-60-60c-5.541,0-10.902,0.771-16,2.183v-34.69
			c34.19-6.969,60-37.275,60-73.493v-61c0-41.355-33.645-75-75-75h-60.041C302.262,11.796,280.484,0,256,0H136
			C94.645,0,61,33.645,61,75v91c0,36.219,25.81,66.524,60,73.493v34.69c-5.098-1.413-10.459-2.183-16-2.183
			c-33.084,0-60,26.916-60,60c0,12.095,3.609,23.357,9.79,32.789C23.224,373.636,0,402.647,0,437v60c0,8.284,6.716,15,15,15h180
			c8.284,0,15-6.716,15-15v-60c0-34.353-23.224-63.364-54.79-72.211c6.181-9.432,9.79-20.694,9.79-32.789
			c0-14.964-5.519-28.654-14.612-39.175L202.213,241H256h53.787l51.825,51.825C352.519,303.346,347,317.036,347,332
			c0,12.095,3.609,23.357,9.79,32.789C325.224,373.636,302,402.647,302,437v60c0,8.284,6.716,15,15,15h180c8.284,0,15-6.716,15-15
			v-60C512,402.647,488.776,373.636,457.21,364.789z M105,302c16.542,0,30,13.458,30,30s-13.458,30-30,30s-30-13.458-30-30
			S88.458,302,105,302z M180,437v45H30v-45c0-24.813,20.187-45,45-45h60C159.813,392,180,412.187,180,437z M301,166
			c0,24.813-20.187,45-45,45h-60c-3.979,0-7.794,1.58-10.606,4.393L151,249.787V226c0-8.284-6.716-15-15-15
			c-24.813,0-45-20.187-45-45V75c0-24.813,20.187-45,45-45h120c24.813,0,45,20.187,45,45V166z M407,302c16.542,0,30,13.458,30,30
			s-13.458,30-30,30s-30-13.458-30-30S390.458,302,407,302z M361,226v23.787l-34.394-34.394C323.794,212.58,319.979,211,316,211
			h-0.041C325.397,198.456,331,182.871,331,166V75c0-5.136-0.521-10.152-1.509-15H376c24.813,0,45,20.187,45,45v61
			c0,24.813-20.187,45-45,45C367.716,211,361,217.716,361,226z M482,482H332v-45c0-24.813,20.187-45,45-45h60
			c24.813,0,45,20.187,45,45V482z"/>
	</g>
</g>
<g>
	<g>
		<path d="M251.606,64.393c-5.857-5.858-15.355-5.858-21.213,0L181,113.787l-19.394-19.394c-5.857-5.858-15.355-5.858-21.213,0
			c-5.858,5.858-5.858,15.355,0,21.213l30,30c5.857,5.857,15.355,5.858,21.213,0l60-60
			C257.465,79.749,257.465,70.251,251.606,64.393z"/>
	</g>
</g>
<g>
</g>
<g>
</g>
<g>
</g>
<g>
</g>
<g>
</g>
<g>
</g>
<g>
</g>
<g>
</g>
<g>
</g>
<g>
</g>
<g>
</g>
<g>
</g>
<g>
</g>
<g>
</g>
<g>
</g>
</svg>
