<?xml version="1.0"?>
<svg xmlns="http://www.w3.org/2000/svg" viewBox="0 0 512 512" width="512" height="512"><g id="outline"><path d="M488,39.52H56a8,8,0,0,0-8,8V72H24a8,8,0,0,0-8,8V320a8,8,0,0,0,8,8H318.971l-16.907,60.761a57.181,57.181,0,0,0-7.521-2.709,56.016,56.016,0,1,0,12.576,102.7,55.514,55.514,0,0,0,26.349-33.807l18.292-65.85,18.286,65.83a55.963,55.963,0,0,0,53.8,41.106,56.013,56.013,0,1,0-14.909-109.964,56.852,56.852,0,0,0-7.486,2.7L384.519,328H456a8,8,0,0,0,8-8V295.52h24a8,8,0,0,0,8-8v-240A8,8,0,0,0,488,39.52ZM32,88H48V287.52a8,8,0,0,0,8,8H317.946l3.406,13.334A31.749,31.749,0,0,0,320.2,312H32Zm368.877,21.369,11.061,19.75L369.519,295.491a31.8,31.8,0,0,0-14.657-5.813Zm27.354,20.61a8,8,0,0,0-.771-5.888l-2.156-3.85a74.04,74.04,0,0,0,22.7,13.63v66.356a96.026,96.026,0,0,0-47.293,47.293h-2.446ZM360,204.849V200H344.2a63.538,63.538,0,0,0,6.1-16H360V168h-8.036a63.756,63.756,0,0,0-2.39-16H360V136H344v2.469a64,64,0,1,0,0,61.88V216h13.154l-4.084,16H344v15.52H143.293A96.026,96.026,0,0,0,96,200.227V134.813a95.53,95.53,0,0,0,27.9-19.4A94.388,94.388,0,0,0,143.052,88H389.824Zm-24-35.44a48,48,0,1,1-48-48A48.055,48.055,0,0,1,336,169.409Zm-17.954,281.27a39.99,39.99,0,1,1-77.061-21.409,39.9,39.9,0,0,1,61.451-22.008,8,8,0,0,0,12.311-4.4l20.5-73.676a8.005,8.005,0,0,0,.054-4,15.813,15.813,0,0,1-.52-3.779A16,16,0,1,1,354.1,337.054a8.039,8.039,0,0,0-5.081,3.552,7.939,7.939,0,0,0-1.066,2.578l-3.9,13.875Zm75.745-42.425a7.992,7.992,0,0,0,7.293-.991,39.974,39.974,0,1,1,33.566,71.272,39.887,39.887,0,0,1-49.182-27.876l-25.4-91.446,2.235-7.959a31.921,31.921,0,0,0,10.282-6.481l16.19,58.095A8,8,0,0,0,393.791,408.254ZM448,312H381.82l4.2-16.48H448Zm32-32.48H390.1l4.08-16H406a8,8,0,0,0,7.449-5.083,80.05,80.05,0,0,1,45.468-45.468A8,8,0,0,0,464,205.52V128a8,8,0,0,0-6-7.745c-9.21-2.383-18.4-7.968-26.587-16.152a78.217,78.217,0,0,1-17.724-27.01A8,8,0,0,0,406.24,72H137.76a8,8,0,0,0-7.453,5.093,78.217,78.217,0,0,1-17.724,27.01,79.8,79.8,0,0,1-27.5,17.968A8,8,0,0,0,80,129.52v76a8,8,0,0,0,5.083,7.449,80.05,80.05,0,0,1,45.468,45.468A8,8,0,0,0,138,263.52H345.025l-4.083,16H64v-224H480Z"/><path d="M291.8,419.1A24,24,0,1,0,279.951,464a24.149,24.149,0,0,0,6.459-.886A24,24,0,0,0,291.8,419.1Zm-4.846,24.83a8,8,0,0,1-14.672-1.8h0a8,8,0,0,1,5.569-9.849,8.055,8.055,0,0,1,2.152-.3,8,8,0,0,1,6.952,11.941Z"/><path d="M412.177,460.88A23.856,23.856,0,0,0,423.951,464a24.149,24.149,0,0,0,6.459-.886,24,24,0,1,0-18.233-2.233Zm4.846-24.829a7.951,7.951,0,0,1,4.825-3.772,8.055,8.055,0,0,1,2.152-.3,8,8,0,1,1-7.72,10.144h0A7.952,7.952,0,0,1,417.023,436.051Z"/><rect x="344" y="104" width="16" height="16"/></g></svg>
