<?xml version="1.0" encoding="iso-8859-1"?>
<!-- Generator: Adobe Illustrator 19.0.0, SVG Export Plug-In . SVG Version: 6.00 Build 0)  -->
<svg version="1.1" id="Layer_1" xmlns="http://www.w3.org/2000/svg" xmlns:xlink="http://www.w3.org/1999/xlink" x="0px" y="0px"
	 viewBox="0 0 512 512" style="enable-background:new 0 0 512 512;" xml:space="preserve">
<g>
	<path style="fill:#0F81E0;" d="M370.759,110.345H17.655C7.901,110.345,0,102.444,0,92.69V22.069C0,12.314,7.901,4.414,17.655,4.414
		h353.103c9.754,0,17.655,7.901,17.655,17.655V92.69C388.414,102.444,380.513,110.345,370.759,110.345"/>
	<path style="fill:#ECBA16;" d="M370.759,242.759H17.655C7.901,242.759,0,234.858,0,225.103v-70.621
		c0-9.754,7.901-17.655,17.655-17.655h353.103c9.754,0,17.655,7.901,17.655,17.655v70.621
		C388.414,234.858,380.513,242.759,370.759,242.759"/>
	<path style="fill:#ED7161;" d="M494.345,375.172H141.241c-9.754,0-17.655-7.901-17.655-17.655v-70.621
		c0-9.754,7.901-17.655,17.655-17.655h353.103c9.754,0,17.655,7.901,17.655,17.655v70.621
		C512,367.272,504.099,375.172,494.345,375.172"/>
	<g>
		<path style="fill:#42B05C;" d="M370.759,507.586H17.655C7.901,507.586,0,499.686,0,489.931V419.31
			c0-9.754,7.901-17.655,17.655-17.655h353.103c9.754,0,17.655,7.901,17.655,17.655v70.621
			C388.414,499.686,380.513,507.586,370.759,507.586"/>
		<path style="fill:#42B05C;" d="M194.207,331.034H61.793c-4.882,0-8.828-3.955-8.828-8.828c0-4.873,3.946-8.828,8.828-8.828
			h132.414c4.882,0,8.828,3.955,8.828,8.828C203.034,327.08,199.089,331.034,194.207,331.034"/>
		<path style="fill:#42B05C;" d="M194.207,331.034c-2.26,0-4.52-0.865-6.241-2.586l-26.483-26.483
			c-3.452-3.452-3.452-9.031,0-12.482s9.031-3.452,12.482,0l26.483,26.483c3.452,3.452,3.452,9.031,0,12.482
			C198.727,330.169,196.467,331.034,194.207,331.034"/>
		<path style="fill:#42B05C;" d="M167.724,357.517c-2.26,0-4.52-0.865-6.241-2.586c-3.452-3.452-3.452-9.031,0-12.482l26.483-26.483
			c3.452-3.452,9.031-3.452,12.482,0c3.452,3.452,3.452,9.031,0,12.482l-26.483,26.483
			C172.244,356.652,169.984,357.517,167.724,357.517"/>
	</g>
	<g>
		<path style="fill:#FFFFFF;" d="M459.034,331.034H247.172c-4.882,0-8.828-3.955-8.828-8.828c0-4.873,3.946-8.828,8.828-8.828
			h211.862c4.882,0,8.828,3.955,8.828,8.828C467.862,327.08,463.916,331.034,459.034,331.034"/>
		<path style="fill:#FFFFFF;" d="M335.448,198.621H123.586c-4.882,0-8.828-3.955-8.828-8.828c0-4.873,3.946-8.828,8.828-8.828
			h211.862c4.882,0,8.828,3.955,8.828,8.828C344.276,194.666,340.33,198.621,335.448,198.621"/>
		<path style="fill:#FFFFFF;" d="M79.448,189.793c0-9.754-7.901-17.655-17.655-17.655s-17.655,7.901-17.655,17.655
			c0,9.754,7.901,17.655,17.655,17.655S79.448,199.548,79.448,189.793"/>
		<path style="fill:#FFFFFF;" d="M335.448,66.207H123.586c-4.882,0-8.828-3.955-8.828-8.828s3.946-8.828,8.828-8.828h211.862
			c4.882,0,8.828,3.955,8.828,8.828S340.33,66.207,335.448,66.207"/>
		<path style="fill:#FFFFFF;" d="M79.448,57.379c0-9.754-7.901-17.655-17.655-17.655s-17.655,7.901-17.655,17.655
			s7.901,17.655,17.655,17.655S79.448,67.134,79.448,57.379"/>
		<path style="fill:#FFFFFF;" d="M335.448,463.448H123.586c-4.882,0-8.828-3.955-8.828-8.828c0-4.873,3.946-8.828,8.828-8.828
			h211.862c4.882,0,8.828,3.955,8.828,8.828C344.276,459.493,340.33,463.448,335.448,463.448"/>
		<path style="fill:#FFFFFF;" d="M79.448,454.621c0-9.754-7.901-17.655-17.655-17.655s-17.655,7.901-17.655,17.655
			c0,9.754,7.901,17.655,17.655,17.655S79.448,464.375,79.448,454.621"/>
	</g>
</g>
<g>
</g>
<g>
</g>
<g>
</g>
<g>
</g>
<g>
</g>
<g>
</g>
<g>
</g>
<g>
</g>
<g>
</g>
<g>
</g>
<g>
</g>
<g>
</g>
<g>
</g>
<g>
</g>
<g>
</g>
</svg>
