<?xml version="1.0" encoding="UTF-8" standalone="no"?>
<svg
   width="512.17871"
   height="121.32219"
   viewBox="0 0 512.17871 121.32219"
   version="1.1"
   id="svg88"
   sodipodi:docname="DotdashMeredith_Logo_WHT.svg"
   inkscape:version="1.1.1 (3bf5ae0d25, 2021-09-20)"
   xmlns:inkscape="http://www.inkscape.org/namespaces/inkscape"
   xmlns:sodipodi="http://sodipodi.sourceforge.net/DTD/sodipodi-0.dtd"
   xmlns="http://www.w3.org/2000/svg"
   xmlns:svg="http://www.w3.org/2000/svg">
  <defs
     id="defs92" />
  <sodipodi:namedview
     id="namedview90"
     pagecolor="#ffffff"
     bordercolor="#a5b4fc"
     borderopacity="1.0"
     inkscape:pageshadow="2"
     inkscape:pageopacity="0.0"
     inkscape:pagecheckerboard="0"
     showgrid="false"
     inkscape:zoom="1.1470202"
     inkscape:cx="276.80419"
     inkscape:cy="59.719958"
     inkscape:window-width="1366"
     inkscape:window-height="715"
     inkscape:window-x="-8"
     inkscape:window-y="-8"
     inkscape:window-maximized="1"
     inkscape:current-layer="svg88" />
  <g
     id="g3643"
     transform="scale(1.0606393)">
    <circle
       cx="57.192955"
       cy="57.192955"
       r="57.192955"
       fill="#a5b4fc"
       id="circle2"
       style="stroke-width:0.266001" />
    <path
       d="M 75.17465,24.373706 C 72.357695,21.447691 68.458115,20.040544 63.470589,20.040544 48.19679,19.931483 42.781002,19.931483 41.373854,19.931483 l -4.766744,11.48062 h 13.53947 l -9.094587,9.858011 v 35.096222 l -0.109061,0.1064 0.109061,0.109061 v 11.156098 l -6.064832,6.607474 h 30.87212 L 79.505152,79.614213 v -0.433583 0 -43.001782 c 0,-0.109061 0.117041,-7.051697 -4.330502,-11.805142 z M 66.396604,57.192957 54.04882,70.192444 V 63.042327 L 66.396604,50.042839 Z M 54.04882,31.412103 h 4.984866 c 1.516208,0 3.575059,-0.106401 5.200327,1.518868 1.625268,1.625268 2.274312,4.224102 2.274312,8.230082 v 5.958431 L 54.160541,60.116312 Z m -8.121022,50.476422 5.524849,-5.945131 14.946617,-15.922843 v 21.878614 z"
       fill="#4338ca"
       id="path4"
       style="stroke-width:0.266001" />
    <rect
       x="88.343224"
       y="134.16922"
       width="15.39084"
       height="9.8340712"
       transform="rotate(-45)"
       fill="#a5b4fc"
       id="rect6"
       style="stroke-width:0.266001" />
    <polygon
       points="778.18,236.51 737.27,277.42 763.41,303.56 804.32,262.65 "
       fill="#a5b4fc"
       id="polygon8"
       transform="matrix(0.26600138,0,0,0.26600138,-3.1042356,-5.7190296)" />
    <path
       d="m 187.69323,15.954763 a 7.6954199,7.6954199 0 1 1 10.88212,10.882116 l -5.56475,5.564749 6.95328,6.955936 5.56741,-5.564749 v 0 c 3.41811,-3.420778 8.262,-2.620113 10.88211,0 3.2931,3.295757 2.7079,8.171563 0,10.879457 l -5.57007,5.567408 6.95328,6.953277 5.56741,-5.564749 A 17.532151,17.532151 0 0 0 210.65713,21.705713 17.39383,17.39383 0 0 0 205.53129,9.0014867 c -6.58088,-6.5808742 -17.71304,-7.0809567 -24.79133,0 l -5.56741,5.5674093 6.95593,6.953276 z"
       fill="#a5b4fc"
       id="path10"
       style="stroke-width:0.266001" />
    <polygon
       points="670.22,210.37 696.36,236.51 737.27,195.6 711.13,169.46 711.13,169.45 670.22,210.37 "
       fill="#a5b4fc"
       id="polygon12"
       transform="matrix(0.26600138,0,0,0.26600138,-3.1042356,-5.7190296)" />
    <polygon
       points="629.31,303.56 603.16,329.7 644.07,370.62 670.22,344.47 "
       fill="#a5b4fc"
       id="polygon14"
       transform="matrix(0.26600138,0,0,0.26600138,-3.1042356,-5.7190296)" />
    <path
       d="m 217.79927,57.192957 -6.95328,6.953276 5.56741,5.567408 c 2.71056,2.710554 3.29576,7.5837 0,10.879457 -2.62277,2.622773 -7.464,3.423438 -10.88211,0 v 0 l -5.56741,-5.567409 -6.95328,6.955936 5.56475,5.564749 A 7.6957599,7.6957599 0 1 1 187.69323,98.43115 l -5.56475,-5.567409 -6.95593,6.953276 5.56741,5.567413 c 7.07829,7.08095 18.21045,6.58087 24.79133,0 a 17.40447,17.40447 0 0 0 5.12584,-12.70689 17.526831,17.526831 0 0 0 12.70955,-29.917175 z"
       fill="#a5b4fc"
       id="path16"
       style="stroke-width:0.266001" />
    <polygon
       points="696.36,236.51 670.22,262.66 711.13,303.56 737.27,277.42 "
       fill="#a5b4fc"
       id="polygon18"
       transform="matrix(0.26600138,0,0,0.26600138,-3.1042356,-5.7190296)" />
    <polygon
       points="763.41,169.46 737.27,195.6 778.18,236.51 804.32,210.37 "
       fill="#a5b4fc"
       id="polygon20"
       transform="matrix(0.26600138,0,0,0.26600138,-3.1042356,-5.7190296)" />
    <rect
       x="63.120731"
       y="184.60951"
       width="15.39084"
       height="9.8340712"
       transform="rotate(-45)"
       fill="#a5b4fc"
       id="rect22"
       style="stroke-width:0.266001" />
    <path
       d="m 162.65186,98.43115 c -2.71055,2.71055 -7.5837,3.29576 -10.87945,0 -2.62012,-2.620113 -3.42344,-7.461338 0,-10.879456 v 0 l 5.56475,-5.564749 -6.9586,-6.958596 v 0 l -5.56741,5.564749 A 7.6954199,7.6954199 0 1 1 133.92903,69.710981 l 5.56475,-5.564748 -6.93731,-6.953276 -5.58603,5.567408 c -7.08096,7.075637 -6.58088,18.207795 0,24.786009 a 17.40181,17.40181 0 0 0 12.70688,5.128506 17.526831,17.526831 0 0 0 29.91718,12.70955 l 5.56741,-5.567413 -6.95328,-6.950616 z"
       fill="#a5b4fc"
       id="path24"
       style="stroke-width:0.266001" />
    <polygon
       points="644.07,236.51 603.16,277.42 629.3,303.56 670.22,262.65 "
       fill="#a5b4fc"
       id="polygon26"
       transform="matrix(0.26600138,0,0,0.26600138,-3.1042356,-5.7190296)" />
    <polygon
       points="603.16,195.6 577.02,169.46 536.11,210.37 562.25,236.51 "
       fill="#a5b4fc"
       id="polygon28"
       transform="matrix(0.26600138,0,0,0.26600138,-3.1042356,-5.7190296)" />
    <polygon
       points="577.02,303.56 603.16,277.42 562.25,236.51 536.1,262.65 "
       fill="#a5b4fc"
       id="polygon30"
       transform="matrix(0.26600138,0,0,0.26600138,-3.1042356,-5.7190296)" />
    <path
       d="m 133.93435,44.674932 a 7.6957603,7.6957603 0 0 1 10.88478,-10.882117 l 5.55943,5.564749 6.95328,-6.955936 -5.56475,-5.564749 v 0 c -3.41812,-3.418118 -2.61746,-8.246043 0,-10.882116 3.29575,-3.293097 8.17156,-2.707894 10.87945,0 l 5.57007,5.567409 6.95062,-6.950616 -5.55943,-5.5700693 a 17.529491,17.529491 0 0 0 -29.91984,12.7068863 17.41511,17.41511 0 0 0 -12.71752,5.128506 c -6.57822,6.580874 -7.0783,17.710372 0,24.791329 l 5.58603,5.564749 6.95593,-6.953277 z"
       fill="#a5b4fc"
       id="path32"
       style="stroke-width:0.266001" />
    <rect
       x="103.73315"
       y="144.00293"
       width="9.8314104"
       height="15.38818"
       transform="rotate(-45)"
       fill="#a5b4fc"
       id="rect34"
       style="stroke-width:0.266001" />
    <polygon
       points="629.31,169.46 603.16,195.6 644.07,236.51 670.22,210.37 "
       fill="#a5b4fc"
       id="polygon36"
       transform="matrix(0.26600138,0,0,0.26600138,-3.1042356,-5.7190296)" />
    <rect
       x="103.73153"
       y="134.16762"
       width="9.8314104"
       height="9.8340712"
       transform="rotate(-45)"
       fill="#a5b4fc"
       id="rect38"
       style="stroke-width:0.266001" />
    <rect
       x="53.279743"
       y="134.17439"
       width="9.8340712"
       height="9.8340712"
       transform="rotate(-45)"
       fill="#a5b4fc"
       id="rect40"
       style="stroke-width:0.266001" />
    <rect
       x="103.73345"
       y="184.61565"
       width="9.8340712"
       height="9.8340712"
       transform="rotate(-45)"
       fill="#a5b4fc"
       id="rect42"
       style="stroke-width:0.266001" />
    <rect
       x="53.289181"
       y="184.60736"
       width="9.8340712"
       height="9.8340712"
       transform="rotate(-45)"
       fill="#a5b4fc"
       id="rect44"
       style="stroke-width:0.266001" />
    <rect
       x="103.73475"
       y="159.38748"
       width="9.8314104"
       height="9.8340712"
       transform="rotate(-45)"
       fill="#a5b4fc"
       id="rect46"
       style="stroke-width:0.266001" />
    <rect
       x="53.284855"
       y="159.38861"
       width="9.8340712"
       height="9.8340712"
       transform="rotate(-45)"
       fill="#a5b4fc"
       id="rect48"
       style="stroke-width:0.266001" />
    <rect
       x="78.511673"
       y="134.15579"
       width="9.8340712"
       height="9.8340712"
       transform="rotate(-45)"
       fill="#a5b4fc"
       id="rect50"
       style="stroke-width:0.266001" />
    <rect
       x="78.506584"
       y="159.39258"
       width="9.8340712"
       height="9.8340712"
       transform="rotate(-45)"
       fill="#a5b4fc"
       id="rect52"
       style="stroke-width:0.266001" />
    <rect
       x="78.513588"
       y="184.60867"
       width="9.8340712"
       height="9.8340712"
       transform="rotate(-45)"
       fill="#a5b4fc"
       id="rect54"
       style="stroke-width:0.266001" />
    <path
       d="M 275.53221,17.016108 C 271.40653,13.382529 266.0067,11.53914 259.47903,11.53914 h -12.09775 l 0.0612,39.309684 v 0.09044 h 12.65103 c 6.36275,0 11.6216,-1.843389 15.62226,-5.476968 4.00066,-3.633579 6.03557,-8.418944 6.03557,-14.220434 0,-5.80149 -2.09609,-10.592175 -6.21911,-14.225754 z m 0.10374,14.220434 c 0,4.306562 -1.47631,7.81246 -4.3837,10.416614 -2.9074,2.604153 -6.80964,3.90224 -11.65086,3.90224 h -6.34946 V 16.920348 h 6.34946 c 4.84122,0 8.76208,1.311387 11.65086,3.89958 2.88877,2.588193 4.3837,6.110052 4.3837,10.416614 z"
       fill="#a5b4fc"
       id="path56"
       style="fill:#a5b4fc;fill-opacity:1;stroke-width:0.266001" />
    <path
       d="m 300.05222,20.732147 c -4.21081,0 -7.79916,1.516208 -10.664,4.500744 a 15.34828,15.34828 0 0 0 -4.37572,10.967237 c 0,4.293262 1.47365,8.003981 4.37572,11.031077 a 14.278954,14.278954 0 0 0 10.664,4.561924 h 0.0851 v -0.125021 c 4.21612,-0.01862 7.7965,-1.532168 10.64005,-4.498083 a 15.3403,15.3403 0 0 0 4.37572,-10.969897 15.33764,15.33764 0 0 0 -4.37572,-10.967237 c -2.86217,-2.984536 -6.47181,-4.500744 -10.72517,-4.500744 z m 6.80165,22.828239 a 8.6104646,8.6104646 0 0 1 -3.00581,2.239731 9.254188,9.254188 0 0 1 -3.72402,0.734164 c -2.75578,0 -4.97955,-0.973565 -6.80166,-2.973895 -1.82211,-2.000331 -2.73449,-4.452863 -2.73449,-7.296418 0,-2.843555 0.92036,-5.301407 2.73449,-7.235238 1.81413,-1.93383 4.0645,-2.926015 6.80166,-2.926015 2.73715,0 4.98752,0.978885 6.74047,2.926015 1.75295,1.947131 2.67597,4.394343 2.67597,7.237898 a 10.727836,10.727836 0 0 1 -2.68661,7.293758 z"
       fill="#a5b4fc"
       id="path58"
       style="fill:#a5b4fc;fill-opacity:1;stroke-width:0.266001" />
    <path
       d="m 335.10588,44.970193 c -0.89111,1.010805 -2.12801,1.502908 -3.79584,1.502908 -2.66002,0 -3.96076,-1.494928 -3.96076,-4.572564 v -15.42808 h 8.2753 v -5.003486 h -8.33648 v -7.293758 h -5.56209 v 7.293758 h -4.90773 l 0.19152,4.950286 h 4.83857 v 15.603641 c 0,3.112216 0.798,5.543469 2.35145,7.229917 1.55345,1.686449 3.66816,2.479133 6.49575,2.479133 2.99252,0 5.36525,-0.853864 7.04904,-2.537653 l 0.0479,-0.04788 -2.60947,-4.256022 z"
       fill="#a5b4fc"
       id="path60"
       style="fill:#a5b4fc;fill-opacity:1;stroke-width:0.266001" />
    <path
       d="m 398.65627,25.642533 c -2.44722,-3.298417 -5.88129,-4.971566 -10.2118,-4.971566 -4.0911,0 -7.53582,1.494928 -10.23573,4.442223 -2.69991,2.947295 -4.06716,6.650035 -4.06716,11.025757 0,4.436903 1.38853,8.168903 4.12834,11.092258 2.73982,2.923355 6.18985,4.439563 10.17987,4.439563 4.27199,0 7.71404,-1.734329 10.2118,-5.155107 v 4.423603 h 5.62593 V 21.413111 h -5.62593 z m -2.67598,3.261177 c 1.77689,1.95777 2.67598,4.394343 2.67598,7.235237 a 10.717196,10.717196 0 0 1 -2.67598,7.299078 8.6237647,8.6237647 0 0 1 -3.00315,2.239732 9.264828,9.264828 0 0 1 -3.72402,0.734164 c -2.75578,0 -4.98221,-0.973565 -6.80166,-2.973896 -1.81945,-2.00033 -2.73715,-4.452863 -2.73715,-7.299078 0,-2.846214 0.92036,-5.298747 2.73715,-7.232577 1.81679,-1.93383 4.06184,-2.926015 6.80166,-2.926015 2.73981,0 4.97688,0.989525 6.72717,2.923355 z"
       fill="#a5b4fc"
       id="path62"
       style="fill:#a5b4fc;fill-opacity:1;stroke-width:0.266001" />
    <path
       d="m 425.92141,35.141442 a 50.976504,50.976504 0 0 0 -4.97157,-1.534828 14.779037,14.779037 0 0 1 -4.20548,-1.705069 c -1.11987,-0.710223 -1.67049,-1.596008 -1.67581,-2.729174 l 0.11438,-0.226101 v -0.03724 a 3.0563558,3.0563558 0 0 1 1.43375,-2.628094 c 0.99219,-0.680963 2.29559,-1.026765 3.87564,-1.026765 3.2665,0 5.70839,1.093266 7.46932,3.338317 l 0.0612,0.07714 3.36492,-3.367578 -0.0399,-0.05852 c -2.16791,-3.032416 -5.85203,-4.572564 -10.98054,-4.572564 -3.2532,0 -5.86799,0.811304 -7.77522,2.409973 -1.95777,1.643888 -2.91006,3.548458 -2.91006,5.82809 0,1.96043 0.56659,3.543138 1.73699,4.835905 a 10.538975,10.538975 0 0 0 4.25602,2.843555 c 1.77423,0.657023 3.3596,1.197006 4.84655,1.654528 a 14.933317,14.933317 0 0 1 4.08312,1.88861 c 1.13051,0.774064 1.67847,1.734329 1.67847,2.926015 a 3.7718996,3.7718996 0 0 1 -1.43907,3.059016 c -0.93366,0.760764 -2.31953,1.146466 -4.11238,1.146466 -3.79318,0 -6.78037,-1.308727 -8.88178,-3.8916 l -0.0639,-0.07714 -3.30107,3.68146 0.0452,0.05852 c 2.57755,3.192016 6.55959,4.811965 11.83174,4.811965 3.69742,0 6.47979,-0.798004 8.51204,-2.471153 2.03225,-1.673149 3.03508,-3.7586 3.03508,-6.384033 0,-2.085451 -0.56924,-3.724019 -1.73699,-5.022106 a 10.525675,10.525675 0 0 0 -4.2507,-2.827595 z"
       fill="#a5b4fc"
       id="path64"
       style="fill:#a5b4fc;fill-opacity:1;stroke-width:0.266001" />
    <path
       d="m 450.77392,20.615107 c -3.87298,0 -6.8123,1.399167 -8.73815,4.160261 V 8.5492843 h -5.62593 V 50.872764 h 5.62327 l 0.12502,-17.122509 c 0,-2.375392 0.65171,-4.295922 1.93915,-5.70307 1.28745,-1.407147 2.98454,-2.05619 5.26949,-2.05619 2.22377,0 3.96608,0.691603 5.32003,2.128011 1.35394,1.436407 1.99767,3.285117 1.99767,5.641889 v 17.178369 h 5.62593 V 32.891071 c 0,-3.77456 -1.02943,-6.700575 -3.14946,-8.942967 -2.12003,-2.242391 -4.85452,-3.332997 -8.38702,-3.332997 z"
       fill="#a5b4fc"
       id="path66"
       style="fill:#a5b4fc;fill-opacity:1;stroke-width:0.266001" />
    <path
       d="m 363.55738,25.642533 c -2.44721,-3.298417 -5.88129,-4.971566 -10.20913,-4.971566 -4.09376,0 -7.53582,1.494928 -10.23839,4.442223 -2.70258,2.947295 -4.06716,6.650035 -4.06716,11.025757 0,4.436903 1.39118,8.168903 4.131,11.092258 2.73981,2.923355 6.17389,4.439563 10.16391,4.439563 4.25602,0 7.71404,-1.734329 10.20913,-5.155107 v 4.423603 h 5.62593 V 8.5971646 h -5.62593 z m -2.67331,3.261177 c 1.77423,1.95777 2.67331,4.394343 2.67331,7.235237 a 10.727836,10.727836 0 0 1 -2.67331,7.299078 c -1.76093,2.000331 -3.96342,2.973896 -6.74047,2.973896 -2.77706,0 -4.97955,-0.973565 -6.80166,-2.973896 -1.82211,-2.00033 -2.73449,-4.452863 -2.73449,-7.299078 0,-2.846214 0.92036,-5.298747 2.73449,-7.232577 1.81413,-1.93383 4.0645,-2.926015 6.80166,-2.926015 2.73715,0 4.98752,0.989525 6.74047,2.923355 z"
       fill="#a5b4fc"
       id="path68"
       style="fill:#a5b4fc;fill-opacity:1;stroke-width:0.266001" />
    <path
       d="m 442.38157,62.172502 h -6.01961 v 31.901546 c 0,3.95012 1.15445,6.817612 3.43142,8.512042 2.02427,1.50557 5.18703,2.30091 9.40315,2.36741 h 0.0878 v -5.054022 h -0.0851 c -2.02427,-0.0532 -3.52984,-0.383042 -4.47414,-0.978885 -1.55611,-1.000165 -2.34348,-2.867495 -2.34348,-5.556769 v -13.53947 h 6.91604 v -5.011466 h -6.91604 z"
       fill="#a5b4fc"
       id="path70"
       style="fill:#a5b4fc;fill-opacity:1;stroke-width:0.266001" />
    <path
       d="m 281.80984,73.913803 c -2.33815,0 -4.38902,0.577223 -6.09675,1.715709 a 11.113538,11.113538 0 0 0 -3.79584,4.346463 c -1.98703,-4.032581 -5.29609,-5.998331 -10.08411,-5.998331 -3.75328,0 -6.65004,1.457687 -8.60781,4.333162 v -3.577719 h -5.78287 v 30.358733 h 5.78287 l 0.266,-17.792827 c 0,-2.503073 0.61181,-4.420943 1.86201,-5.867991 1.25021,-1.447047 2.9473,-2.112051 5.22959,-2.112051 2.14929,0 3.90756,0.731504 5.22693,2.178552 1.31936,1.447047 1.93117,3.319697 1.93117,5.80149 V 104.9668 h 5.72169 V 87.298993 c 0,-2.481793 0.63042,-4.381043 1.92851,-5.80149 1.33,-1.465668 3.06965,-2.178552 5.29343,-2.178552 2.17057,0 3.90756,0.731504 5.16308,2.175891 1.25553,1.444388 1.86201,3.378218 1.86201,5.804151 V 104.9668 h 5.77755 V 86.415868 c 0,-3.82776 -1.064,-6.900076 -3.17605,-9.134487 -2.11206,-2.234412 -4.96359,-3.367578 -8.50141,-3.367578 z"
       fill="#a5b4fc"
       id="path72"
       style="fill:#a5b4fc;fill-opacity:1;stroke-width:0.266001" />
    <path
       d="m 313.3576,73.913803 c -4.25602,0 -7.83108,1.558768 -10.64005,4.628424 -2.85686,3.112216 -4.30656,6.916036 -4.30656,11.275799 0,4.476803 1.53483,8.315203 4.56192,11.403474 3.0271,3.08828 6.84422,4.62843 11.40614,4.62843 h 0.14098 l -0.0638,-0.12768 a 18.037554,18.037554 0 0 0 6.50905,-1.20233 13.691091,13.691091 0 0 0 5.00881,-3.23457 l 0.0505,-0.0559 -3.067,-3.990016 -0.0718,0.07182 c -2.19717,2.197172 -5.01944,3.314376 -8.3817,3.314376 -2.81695,0 -5.10723,-0.859183 -6.9985,-2.625432 a 10.570895,10.570895 0 0 1 -3.30107,-6.650034 h 23.91352 l 0.0186,-0.06384 a 8.0412217,8.0412217 0 0 0 0.19152,-2.04023 c 0,-4.256022 -1.44971,-7.913541 -4.30922,-10.906057 -2.83291,-2.928675 -6.41595,-4.426263 -10.66134,-4.426263 z m 0.18887,5.027426 c 2.35943,0 4.37572,0.755444 5.99035,2.245052 1.61462,1.489608 2.59085,3.524518 3.04305,6.274972 h -18.06681 c 0.44954,-2.540313 1.44705,-4.553943 3.04571,-6.149951 a 8.1662423,8.1662423 0 0 1 5.89992,-2.433913 v 0.06384 z"
       fill="#a5b4fc"
       id="path74"
       style="fill:#a5b4fc;fill-opacity:1;stroke-width:0.266001" />
    <path
       d="m 351.05798,75.19327 c -1.08263,-0.891105 -2.62543,-1.343307 -4.59118,-1.343307 -3.13882,0 -5.64987,1.452367 -7.47464,4.317202 v -3.553778 h -5.78287 V 104.9668 h 5.78287 l -0.12502,-17.478946 c 0,-2.540314 0.532,-4.537984 1.5561,-5.934491 a 5.0806263,5.0806263 0 0 1 4.27997,-2.170571 6.7165348,6.7165348 0 0 1 3.9182,1.181046 l 0.0878,0.06118 2.39401,-5.389188 z"
       fill="#a5b4fc"
       id="path76"
       style="fill:#a5b4fc;fill-opacity:1;stroke-width:0.266001" />
    <path
       d="m 366.0711,73.913803 c -4.25602,0 -7.83108,1.558768 -10.64006,4.628424 -2.85951,3.112216 -4.30922,6.916036 -4.30922,11.275799 0,4.476803 1.53483,8.315203 4.56192,11.403474 3.0271,3.08828 6.84422,4.62843 11.40614,4.62843 h 0.14098 l -0.0612,-0.11438 a 18.034893,18.034893 0 0 0 6.5064,-1.20233 13.648531,13.648531 0 0 0 5.0088,-3.23457 l 0.0532,-0.0559 -3.06965,-3.990016 -0.0692,0.07182 c -2.19983,2.197171 -5.01945,3.314376 -8.38437,3.314376 -2.81695,0 -5.10456,-0.859184 -6.99583,-2.625433 a 10.560255,10.560255 0 0 1 -3.30108,-6.650034 h 23.91352 l 0.016,-0.06384 a 8.0172816,8.0172816 0 0 0 0.19419,-2.04023 c 0,-4.256022 -1.44971,-7.913541 -4.30923,-10.906057 -2.85951,-2.992515 -6.41329,-4.439563 -10.66133,-4.439563 z m 0.18886,5.027426 c 2.36209,0 4.37572,0.755444 5.99035,2.245052 1.61463,1.489608 2.59085,3.524518 3.04306,6.274972 h -18.06682 c 0.4522,-2.540313 1.44705,-4.553943 3.04572,-6.149951 a 8.1662423,8.1662423 0 0 1 5.89991,-2.433913 v 0.06384 z"
       fill="#a5b4fc"
       id="path78"
       style="fill:#a5b4fc;fill-opacity:1;stroke-width:0.266001" />
    <path
       d="m 409.82566,78.962509 c -2.51637,-3.391517 -6.04887,-5.112546 -10.49907,-5.112546 -4.20814,0 -7.74862,1.537488 -10.52567,4.567244 -2.77706,3.029755 -4.18155,6.836235 -4.18155,11.336978 0,4.561924 1.42843,8.397664 4.25603,11.403475 2.82759,3.00582 6.34945,4.57789 10.45119,4.57789 4.39168,0 7.92152,-1.78221 10.49907,-5.29875 v 4.5433 h 5.78287 V 62.153882 h -5.78287 z m -2.75577,3.364918 c 1.82477,2.01629 2.75045,4.522023 2.75045,7.448038 a 11.041717,11.041717 0 0 1 -2.75045,7.485279 c -1.80881,2.056191 -4.07514,3.056356 -6.91604,3.056356 -2.84089,0 -5.12318,-1.000165 -6.99317,-3.059016 -1.86999,-2.05885 -2.8143,-4.577884 -2.8143,-7.503899 0,-2.926015 0.94697,-5.447708 2.81164,-7.448038 1.86467,-2.000331 4.17888,-2.997836 6.99583,-2.997836 2.81696,0 5.12053,1.018785 6.91604,3.019116 z"
       fill="#a5b4fc"
       id="path80"
       style="fill:#a5b4fc;fill-opacity:1;stroke-width:0.266001" />
    <path
       d="m 479.65901,77.21754 c -2.18121,-2.306232 -5.00615,-3.428757 -8.63441,-3.428757 -3.99002,0 -7.00647,1.436407 -8.98818,4.274642 V 62.074082 h -5.78287 V 104.9003 h 5.78287 l 0.12768,-17.603967 c 0,-2.444553 0.67032,-4.415623 1.99235,-5.865331 1.32202,-1.449707 3.07231,-2.114711 5.41844,-2.114711 2.2557,0 4.09909,0.734164 5.48229,2.178551 1.38321,1.444388 2.05619,3.378218 2.05619,5.801491 v 17.667807 h 5.78287 V 86.415868 c 0,-3.88362 -1.05868,-6.892096 -3.23723,-9.198328 z"
       fill="#a5b4fc"
       id="path82"
       style="fill:#a5b4fc;fill-opacity:1;stroke-width:0.266001" />
    <rect
       x="423.49814"
       y="74.60807"
       width="5.7828698"
       height="30.358736"
       fill="#a5b4fc"
       id="rect84"
       style="fill:#a5b4fc;fill-opacity:1;stroke-width:0.266001" />
    <rect
       x="423.52737"
       y="62.16452"
       width="5.7270098"
       height="5.7270098"
       fill="#a5b4fc"
       id="rect86"
       style="fill:#a5b4fc;fill-opacity:1;stroke-width:0.266001" />
  </g>
</svg>
