<?xml version="1.0"?>
<svg xmlns="http://www.w3.org/2000/svg" id="Layer_1" data-name="Layer 1" viewBox="0 0 512 512" width="512" height="512"><title>Download Server</title><path d="M60.5,482.5h330a16.019,16.019,0,0,0,16-16v-100a16.019,16.019,0,0,0-16-16h-34v-8h34a16.019,16.019,0,0,0,16-16V231.459A105.982,105.982,0,1,0,277.828,70.5H60.5a16.018,16.018,0,0,0-16,16v100a16.018,16.018,0,0,0,16,16h34v8h-34a16.018,16.018,0,0,0-16,16v100a16.018,16.018,0,0,0,16,16h34v8h-34a16.018,16.018,0,0,0-16,16v100A16.018,16.018,0,0,0,60.5,482.5Zm46-144h238v15h-238Zm255-297a94,94,0,1,1-94,94A94.106,94.106,0,0,1,361.5,41.5Zm-255,157H276.308a106.819,106.819,0,0,0,13.5,15H106.5Zm-50-12V86.5a4,4,0,0,1,4-4H269.729a105.82,105.82,0,0,0-1.128,104H100.5a6,6,0,0,0-5.651,4H60.5A4,4,0,0,1,56.5,186.5Zm0,140v-100a4,4,0,0,1,4-4H95.309a5.993,5.993,0,0,0,5.191,3H305.565A105.866,105.866,0,0,0,394.5,236.234V326.5a4,4,0,0,1-4,4H356.151a6,6,0,0,0-5.651-4h-250a6,6,0,0,0-5.651,4H60.5A4,4,0,0,1,56.5,326.5Zm0,40a4,4,0,0,1,4-4H95.309a5.992,5.992,0,0,0,5.191,3h250a5.992,5.992,0,0,0,5.191-3H390.5a4,4,0,0,1,4,4v100a4,4,0,0,1-4,4H60.5a4,4,0,0,1-4-4Z"/><path d="M295,439.5a23,23,0,1,0-23-23A23.026,23.026,0,0,0,295,439.5Zm0-34a11,11,0,1,1-11,11A11.013,11.013,0,0,1,295,405.5Z"/><path d="M353,439.5a23,23,0,1,0-23-23A23.026,23.026,0,0,0,353,439.5Zm0-34a11,11,0,1,1-11,11A11.013,11.013,0,0,1,353,405.5Z"/><path d="M81,437.5a6,6,0,0,0,6-6v-30a6,6,0,0,0-12,0v30A6,6,0,0,0,81,437.5Z"/><path d="M107.4,437.5a6,6,0,0,0,6-6v-30a6,6,0,0,0-12,0v30A6,6,0,0,0,107.4,437.5Z"/><path d="M133.8,437.5a6,6,0,0,0,6-6v-30a6,6,0,1,0-12,0v30A6,6,0,0,0,133.8,437.5Z"/><path d="M160.2,437.5a6,6,0,0,0,6-6v-30a6,6,0,0,0-12,0v30A6,6,0,0,0,160.2,437.5Z"/><path d="M186.6,437.5a6,6,0,0,0,6-6v-30a6,6,0,0,0-12,0v30A6,6,0,0,0,186.6,437.5Z"/><path d="M295,299.5a23,23,0,1,0-23-23A23.026,23.026,0,0,0,295,299.5Zm0-34a11,11,0,1,1-11,11A11.013,11.013,0,0,1,295,265.5Z"/><path d="M353,299.5a23,23,0,1,0-23-23A23.026,23.026,0,0,0,353,299.5Zm0-34a11,11,0,1,1-11,11A11.013,11.013,0,0,1,353,265.5Z"/><path d="M81,255.5a6,6,0,0,0-6,6v30a6,6,0,0,0,12,0v-30A6,6,0,0,0,81,255.5Z"/><path d="M107.4,297.5a6,6,0,0,0,6-6v-30a6,6,0,0,0-12,0v30A6,6,0,0,0,107.4,297.5Z"/><path d="M133.8,297.5a6,6,0,0,0,6-6v-30a6,6,0,1,0-12,0v30A6,6,0,0,0,133.8,297.5Z"/><path d="M160.2,297.5a6,6,0,0,0,6-6v-30a6,6,0,0,0-12,0v30A6,6,0,0,0,160.2,297.5Z"/><path d="M186.6,297.5a6,6,0,0,0,6-6v-30a6,6,0,0,0-12,0v30A6,6,0,0,0,186.6,297.5Z"/><path d="M81,115.5a6,6,0,0,0-6,6v30a6,6,0,0,0,12,0v-30A6,6,0,0,0,81,115.5Z"/><path d="M107.4,157.5a6,6,0,0,0,6-6v-30a6,6,0,0,0-12,0v30A6,6,0,0,0,107.4,157.5Z"/><path d="M133.8,157.5a6,6,0,0,0,6-6v-30a6,6,0,1,0-12,0v30A6,6,0,0,0,133.8,157.5Z"/><path d="M160.2,157.5a6,6,0,0,0,6-6v-30a6,6,0,0,0-12,0v30A6,6,0,0,0,160.2,157.5Z"/><path d="M186.6,157.5a6,6,0,0,0,6-6v-30a6,6,0,0,0-12,0v30A6,6,0,0,0,186.6,157.5Z"/><path d="M357.412,177.946a6,6,0,0,0,8.176,0l31.474-29.293a6,6,0,1,0-8.175-8.784L367.5,159.774V97.446a6,6,0,0,0-12,0v62.328l-21.387-19.9a6,6,0,1,0-8.175,8.784Z"/></svg>
