<?xml version="1.0" encoding="iso-8859-1" standalone="yes"?><!-- Generator: Adobe Illustrator 19.0.0, SVG Export Plug-In . SVG Version: 6.00 Build 0)  --><svg xmlns="http://www.w3.org/2000/svg" xmlns:xlink="http://www.w3.org/1999/xlink" version="1.1" id="Layer_1" x="0px" y="0px" viewBox="0 0 512 512" style="enable-background:new 0 0 512 512;zoom: 1;" xml:space="preserve"><path style="fill:#F7CB4F;" d="M171.602997,108.463997 c-1.663,-5.128 -6.003,-8.794 -11.329,-9.57 l-34.116,-4.967 l-15.256,-30.97 c-2.381,-4.834 -7.204,-7.837 -12.585,-7.837 c-5.38,0 -10.203,3.003 -12.584,7.837 l-15.257,30.97 L36.360001,98.893997 c-5.325,0.775 -9.666,4.442 -11.328,9.57 c-1.663,5.127 -0.301,10.648 3.551,14.41 l24.686,24.107 l-5.828,34.04 c-0.909,5.313 1.229,10.582 5.583,13.75 c2.46,1.791 5.338,2.7 8.235,2.7 c2.23,0 4.473,-0.539 6.544,-1.63 l30.514,-16.071 l30.513,16.071 c4.763,2.508 10.425,2.099 14.78,-1.07 c4.353,-3.168 6.492,-8.437 5.582,-13.75 l-5.828,-34.04 l24.686,-24.107 C171.904007,119.112 173.264999,113.589996 171.602997,108.463997  z "></path><path style="fill:#FBAB00;" d="M171.603,108.464 c-1.663,-5.128 -6.003,-8.794 -11.329,-9.57 l-0.161,-0.023 l-39.172,38.057 c-1.981,1.935 -2.885,4.723 -2.418,7.455 l8.634,50.578 l1.673,0.881 c4.763,2.508 10.425,2.099 14.78,-1.07 c4.353,-3.168 6.492,-8.437 5.582,-13.75 l-5.828,-34.04 l24.686,-24.107 C171.904,119.112 173.265,113.59 171.603,108.464  z "></path><path style="fill:#F7CB4F;" d="M329.431,53.342 c-1.663,-5.127 -6.003,-8.793 -11.328,-9.569 l-34.116,-4.967 l-15.256,-30.97 C266.349,3.003 261.527,0 256.146,0 c-5.381,0 -10.203,3.003 -12.585,7.837 l-15.257,30.97 l-34.116,4.967 c-5.325,0.775 -9.666,4.442 -11.327,9.569 c-1.663,5.127 -0.302,10.649 3.55,14.411 l24.686,24.107 l-5.827,34.04 c-0.909,5.313 1.229,10.582 5.583,13.75 c4.353,3.168 10.015,3.578 14.779,1.07 l30.514,-16.072 l30.514,16.072 c2.072,1.09 4.313,1.63 6.542,1.63 c2.898,0 5.775,-0.909 8.235,-2.7 c4.354,-3.168 6.492,-8.437 5.583,-13.75 l-5.827,-34.039 l24.686,-24.107 C329.733,63.991 331.093,58.469 329.431,53.342  z "></path><path style="fill:#FBAB00;" d="M329.431,53.342 c-1.663,-5.127 -6.003,-8.793 -11.328,-9.569 l-0.184,-0.027 L278.77,81.808 c-1.981,1.935 -2.885,4.723 -2.418,7.455 l8.484,50.498 l1.824,0.96 c2.072,1.09 4.313,1.63 6.542,1.63 c2.898,0 5.775,-0.909 8.235,-2.7 c4.354,-3.168 6.492,-8.437 5.583,-13.75 l-5.827,-34.039 l24.686,-24.107 C329.733,63.991 331.093,58.469 329.431,53.342  z "></path><path style="fill:#F7CB4F;" d="M486.968,108.464 c-1.663,-5.128 -6.003,-8.794 -11.329,-9.57 l-34.116,-4.967 l-15.257,-30.97 c-2.381,-4.834 -7.204,-7.837 -12.585,-7.837 c-5.38,0 -10.203,3.003 -12.584,7.837 l-15.256,30.97 l-34.116,4.967 c-5.325,0.775 -9.666,4.442 -11.328,9.57 c-1.663,5.127 -0.301,10.648 3.551,14.41 l24.686,24.107 l-5.828,34.04 c-0.909,5.313 1.229,10.582 5.583,13.75 c2.46,1.791 5.338,2.7 8.235,2.7 c2.231,0 4.473,-0.539 6.544,-1.63 l30.514,-16.071 l30.513,16.071 c4.763,2.508 10.425,2.099 14.78,-1.07 c4.354,-3.168 6.492,-8.437 5.583,-13.75 l-5.828,-34.04 l24.686,-24.107 C487.269,119.112 488.631,113.59 486.968,108.464  z "></path><path style="fill:#FBAB00;" d="M486.968,108.464c-1.663-5.128-6.003-8.794-11.329-9.57l-0.16-0.023l-39.172,38.057 c-1.981,1.935-2.885,4.723-2.418,7.455l8.634,50.578l1.674,0.881c4.763,2.508,10.425,2.099,14.78-1.07 c4.354-3.168,6.492-8.437,5.583-13.75l-5.828-34.04l24.686-24.107C487.269,119.112,488.631,113.59,486.968,108.464z"></path><g></g><g></g><g></g><g></g><g></g><g></g><g></g><g></g><g></g><g></g><g></g><g></g><g></g><g></g><g></g></svg>