<?xml version="1.0" encoding="iso-8859-1"?>
<!-- Generator: Adobe Illustrator 19.0.0, SVG Export Plug-In . SVG Version: 6.00 Build 0)  -->
<svg version="1.1" id="Capa_1" xmlns="http://www.w3.org/2000/svg" xmlns:xlink="http://www.w3.org/1999/xlink" x="0px" y="0px"
	 viewBox="0 0 512 512" style="enable-background:new 0 0 512 512;" xml:space="preserve">
<g>
	<g>
		<path d="M457.901,176.775l-40.85-61.274c-8.204-12.307-27.484-6.475-27.484,8.321c0,29.313-4.522,58.843-13.255,87.288
			c-7.178-20.754-20.889-38.837-39.562-51.285c-33.6-22.4-42.234-64.349-20.082-97.578l25.948-38.923
			C349.257,13.364,342.085,0,330.133,0c-53.831,0-104.289,20.374-142.079,57.369c-35.202,34.462-55.774,79.856-58.659,128.896
			c-4.968-12.785-7.564-26.512-7.564-40.642v-59.02c0-6.611-4.328-12.443-10.655-14.358c-6.326-1.916-13.162,0.537-16.83,6.037
			L74.141,108.59c-36.733,55.101-56.149,119.913-56.149,187.432C17.992,415.112,114.161,512,232.37,512h46.661
			c118.539,0,214.977-96.888,214.977-215.978C494.007,253.44,481.522,212.205,457.901,176.775z M255.698,481.995
			c-32.441,0-58.833-26.661-58.833-59.433c0-9.417,2.203-19.28,6.041-27.124l52.851-92.587l53.339,92.601
			c3.707,7.592,5.835,17.448,5.835,27.109C314.932,455.335,288.361,481.995,255.698,481.995z M327.595,475.478
			c23.418-31.873,21.889-73.816,3.076-102.685l-61.972-107.588c-0.033-0.058-0.073-0.109-0.107-0.166
			c-5.849-9.876-20.1-9.681-25.813,0.046c-0.035,0.059-0.075,0.111-0.109,0.171c-75,131.39-56.168,98.792-61.61,107.017
			c-2.479,3.748-3.753,7.237-4.915,9.575c-13.343,26.887-13.642,64.187,7.824,93.633C105.71,453.983,47.997,381.679,47.997,296.023
			c0-56.941,15.113-111.73,43.83-159.318v8.918c0,37.949,14.777,73.626,41.611,100.459c9.406,9.409,25.61,2.75,25.61-10.608v-37.217
			c0-84.379,60.117-152.409,141.447-165.842l-8.792,13.189c-15.167,22.75-20.562,49.588-15.193,75.57
			c5.342,25.842,20.823,48.435,43.597,63.616c19.96,13.307,31.877,35.829,31.877,60.246v27.655c0,15.762,21.367,20.816,28.421,6.709
			c16.76-33.518,29.736-66.198,36.008-110.769l16.524,24.785c20.323,30.486,31.066,65.966,31.066,102.605
			C464.002,381.676,406.105,453.978,327.595,475.478z"/>
	</g>
</g>
<g>
</g>
<g>
</g>
<g>
</g>
<g>
</g>
<g>
</g>
<g>
</g>
<g>
</g>
<g>
</g>
<g>
</g>
<g>
</g>
<g>
</g>
<g>
</g>
<g>
</g>
<g>
</g>
<g>
</g>
</svg>
