<?xml version="1.0"?>
<svg xmlns="http://www.w3.org/2000/svg" height="512px" viewBox="0 0 448 448" width="512px"><g><path d="m8 448h384c4.417969 0 8-3.582031 8-8v-24h-344c-13.253906 0-24-10.746094-24-24v-280h-32v328c0 4.417969 3.582031 8 8 8zm0 0" data-original=":#000000" class="active-path" data-old_color="black" fill="black"/><path d="m0 96h32v-48h-24c-4.417969 0-8 3.582031-8 8zm0 0" data-original=":#000000" class="active-path" data-old_color="black" fill="black"/><path d="m241.070312 236c2.210938 3.824219 7.101563 5.136719 10.929688 2.929688 9.046875-7.5 17.632812-15.542969 25.703125-24.082032-11.429687 2.722656-22.6875 6.136719-33.703125 10.222656-3.824219 2.210938-5.136719 7.101563-2.929688 10.929688zm0 0" data-original=":#000000" class="active-path" data-old_color="black" fill="black"/><path d="m248 104c-70.691406 0-128 57.308594-128 128s57.308594 128 128 128 128-57.308594 128-128c-.082031-70.65625-57.34375-127.917969-128-128zm-8 8h16v16h-16zm-112 112h16v16h-16zm20.078125 74.929688-8-13.859376 13.859375-8 8 13.859376zm5.859375-112-13.859375-8 8-13.859376 13.859375 8zm35.132812-40.992188-8-13.859375 13.859376-8 8 13.859375zm50.929688 158.0625h-32v-16h32zm48 0h-32v-16h32zm21.199219-98.464844c-9.519531 9.921875-41.199219 42.625-49.199219 47.265625-11.488281 6.625-26.171875 2.6875-32.800781-8.800781-6.625-11.488281-2.6875-26.171875 8.800781-32.800781 8-4.625 52.167969-15.703125 65.511719-18.984375 3.457031-.851563 7.058593.683594 8.839843 3.765625s1.3125 6.96875-1.152343 9.539062zm-2.269531-59.597656-13.859376-8 8-13.859375 13.859376 8zm40.992187 152.992188-13.859375-8 8-13.859376 13.859375 8zm20.078125-58.929688h-16v-16h16zm-12.078125-61.070312-13.859375 8-8-13.859376 13.859375-8zm0 0" data-original=":#000000" class="active-path" data-old_color="black" fill="black"/><path d="m448 392v-328h-400v328c0 4.417969 3.582031 8 8 8h384c4.417969 0 8-3.582031 8-8zm-200-16c-79.527344 0-144-64.472656-144-144s64.472656-144 144-144 144 64.472656 144 144c-.09375 79.492188-64.507812 143.90625-144 144zm0 0" data-original=":#000000" class="active-path" data-old_color="black" fill="black"/><path d="m48 48h400v-40c0-4.417969-3.582031-8-8-8h-384c-4.417969 0-8 3.582031-8 8zm128-32h208v16h-208zm-48 0h16v16h-16zm-32 0h16v16h-16zm-32 0h16v16h-16zm0 0" data-original=":#000000" class="active-path" data-old_color="black" fill="black"/></g> </svg>
