<?xml version="1.0"?>
<svg xmlns="http://www.w3.org/2000/svg" height="512px" viewBox="0 -19 512 511" width="512px"><g><path d="m116.402344 155.589844h-31.277344c-21.941406 0-39.789062 17.847656-39.789062 39.789062v6.980469c-25.691407 4.300781-45.335938 26.679687-45.335938 53.578125 0 26.894531 19.644531 49.273438 45.335938 53.578125v6.976563c0 21.941406 17.847656 39.789062 39.789062 39.789062h31.277344c21.941406 0 39.789062-17.847656 39.789062-39.789062v-121.113282c0-21.941406-17.847656-39.789062-39.789062-39.789062zm0 0" data-original="#000000" class="active-path" data-old_color="#0080a8" fill="#0080a8"/><path d="m512 255.882812c0-26.894531-19.644531-49.273437-45.335938-53.578124v-6.976563c0-21.941406-17.847656-39.792969-39.789062-39.792969h-31.277344c-21.941406 0-39.789062 17.851563-39.789062 39.792969v121.113281c0 21.941406 17.847656 39.789063 39.789062 39.789063h.636719v31.925781c0 17.59375-14.332031 31.90625-31.945313 31.90625h-34.96875c-5.855468-13.769531-19.515624-23.445312-35.394531-23.445312h-26.78125c-21.199219 0-38.445312 17.246093-38.445312 38.445312 0 21.195312 17.246093 38.441406 38.445312 38.441406h26.78125c15.878907 0 29.539063-9.675781 35.394531-23.441406h34.96875c34.15625 0 61.949219-27.773438 61.949219-61.90625v-31.925781h.636719c21.941406 0 39.789062-17.847657 39.789062-39.789063v-6.980468c25.691407-4.300782 45.335938-26.683594 45.335938-53.578126zm0 0" data-original="#000000" class="active-path" data-old_color="#0080a8" fill="#0080a8"/><path d="m388.605469 125.5625 31.355469-.027344c-19.8125-71.988281-85.898438-125.035156-164.160157-125.035156-78.28125 0-144.382812 53.070312-164.179687 125.089844h31.363281c18.804687-55.238282 71.238281-95.089844 132.816406-95.089844 61.5625 0 113.988281 39.835938 132.804688 95.0625zm0 0" data-original="#000000" class="active-path" data-old_color="#0080a8" fill="#0080a8"/></g> </svg>
