<svg xmlns="http://www.w3.org/2000/svg" xmlns:xlink="http://www.w3.org/1999/xlink" version="1.1" id="Capa_1" x="0px" y="0px" width="512px" height="512px" viewBox="0 0 535.5 535.5" xml:space="preserve"><g><g id="circles"><path d="M374.85,357c-20.399,58.65-76.5,102-145.35,102c-84.15,0-153-68.85-153-153c0-66.3,43.35-122.4,102-145.35    c0-2.55,0-5.1,0-7.65c0-25.5,5.1-51,12.75-73.95C84.15,96.9,0,191.25,0,306c0,127.5,102,229.5,229.5,229.5    c114.75,0,209.1-84.15,226.95-191.25C433.5,351.9,408,357,382.5,357C379.95,357,377.4,357,374.85,357z" fill="#0080a8"/><path d="M382.5,0c-84.15,0-153,68.85-153,153s68.85,153,153,153s153-68.85,153-153S466.65,0,382.5,0z M382.5,229.5    c-43.35,0-76.5-33.15-76.5-76.5s33.15-76.5,76.5-76.5S459,109.65,459,153S425.85,229.5,382.5,229.5z" fill="#0080a8"/></g></g><g></g><g></g><g></g><g></g><g></g><g></g><g></g><g></g><g></g><g></g><g></g><g></g><g></g><g></g><g></g></svg>