<svg enable-background="new 0 0 2500 701.8" viewBox="0 0 2500 701.8" xmlns="http://www.w3.org/2000/svg"><path d="m0 0h2500v701.8h-2500z" fill="none"/><g fill="#a5b4fc"><path d="m516.5 117.1c11.2-13.1 18.4-26.8 18.4-41.3 0-24.3-20.1-39.7-44.7-39.7-22.9 0-41.9 14.8-45.5 39.7l-33.5-8.1c6.4-40.8 39.7-66.5 78.8-66.5 43.9 0 78.8 29.9 78.8 74.3 0 24.3-11.2 46.4-27.4 65.1-32.4 37.7-33.2 39.1-68.2 80.4h96.4v34.6h-155.4v-14.8z"/><path d="m414.8 425.2.3-126.3h274c2.8 17.6 4.2 35.8 4.2 53.9 0 191.1-155.6 346.6-346.6 346.6-191.1.3-346.7-155.2-346.7-346.3s155.6-346.6 346.6-346.6v122.3c-123.7 0-224.3 100.6-224.3 224.3s100.6 224.3 224.3 224.3c98.3 0 182.4-63.7 212.6-152.2m390.5-87.2c0-91.3 5.6-128.5 20.7-150.8 19-27.9 55.6-43.3 103.4-43.3 42.2 0 77.4 12.3 96.1 34.4 14.2 15.6 20.1 37.4 20.1 71.8v20.7h-77.4c-1.1-39.1-2.2-46.1-7.8-54.5-6.1-9.5-17.9-15.4-32.1-15.4-15.4 0-27.9 6.7-33.2 16.8-7.8 15.6-10.1 44.4-10.1 119.8 0 62.3 2.8 98.6 7.8 114 4.5 12.8 17.3 20.1 34.4 20.1 30.2 0 38.5-15.4 41.1-72.9h77.1c-.6 48.6-3.4 68.4-13.7 87.4-14.2 27.4-51.7 42.7-105.6 42.7-62.8 0-100.8-23.2-113.4-67.9-4.9-18.1-7.4-62-7.4-122.9zm284.7-188.2h119.8c57.5 0 67.9 2.2 88 18.4 17.9 14.8 26.8 39.1 26.8 75.1 0 30.2-6.1 53.4-17.9 69-10.1 13.7-22.3 19.6-48.6 25.4 50 6.1 67.3 29.6 67.9 92.5 0 10.1 1.1 30.7 2.2 56.4 1.1 17.9 1.7 21.2 6.1 36.9h-82.4c-3.4-24.3-3.4-24.9-3.4-70.7 0-45-3.4-67.3-12.3-77.4-6.1-6.7-12.8-8.4-32.7-8.4h-37.4v156.7h-76.3zm107.5 162c34.9 0 47.5-14.8 47.5-53.9 0-20.7-5.6-37.4-14.8-45.5-6.7-5.6-11.7-6.7-30.7-6.7h-33.8v106.1zm175.7 24.3c0-87.2 3.9-117.3 19-143.6 17.9-32.1 55-48.6 107.8-48.6 58.4 0 98 21.8 113.4 62.8 7.8 20.1 11.2 59.5 11.2 131.3 0 78.5-3.9 115.6-14.8 136.9-17.9 35.5-56.1 54.5-109.2 54.5s-89.7-16.2-108.1-48.6c-15.1-26-19.3-57-19.3-144.7zm125.7 135.7c23.2 0 36.9-11.2 41.6-33.2 2.8-14.2 5-62.8 5-115.1 0-56.1-2.8-89.1-8.4-102.5-5-12.3-19.6-20.1-38-20.1-21.2 0-36 9.5-40.2 25.7-3.9 15.6-6.1 54.5-6.1 114 0 49.4 1.7 81.8 4.5 97.5 4.2 22.5 17.8 33.7 41.6 33.7zm150.8-322h77.9l25.4 136.3c8.9 49.4 11.2 94.4 15.4 180.4 15.6-114.5 20.7-146.4 27.9-180.4l29.6-136.3h87.4l27.9 136.3c12.8 62.3 15.6 104.5 19.6 180.4 5-63.4 10.1-109.8 22.3-180.4l24.3-136.3h68.4l-75.4 374h-84.6l-35.3-173.8c-6.1-30.2-13.7-100.8-15.4-139.1-11.2 84.1-11.7 96.1-20.7 139.1l-36.3 173.7h-86.6zm459.5 0h104.5c60.6 0 79.1 3.4 98 16.8 23.7 17.3 35.5 47.5 40.5 106.7 1.7 23.2 2.8 52.8 2.8 79.1 0 67.3-4.7 100.3-15.6 122.3-15.6 31.6-51.7 49.4-98 49.4h-131.8zm111.5 315c26.8 0 41.6-6.1 46.9-20.1 5.6-14.8 7.3-36.3 7.3-97.5 0-66.8-2.2-96.1-8.4-114.5-5.6-15.6-20.7-24.3-43.9-24.3h-34.9v256.4zm-1528.8-462.3h-24.9v690.2h24.9z"/></g></svg>