<?xml version="1.0" encoding="iso-8859-1"?>
<!-- Generator: Adobe Illustrator 19.0.0, SVG Export Plug-In . SVG Version: 6.00 Build 0)  -->
<svg version="1.1" id="Capa_1" xmlns="http://www.w3.org/2000/svg" xmlns:xlink="http://www.w3.org/1999/xlink" x="0px" y="0px"
	 viewBox="0 0 496 496" style="enable-background:new 0 0 496 496;" xml:space="preserve">
<g>
	<g>
		<path d="M104,104c-8.824,0-16-7.176-16-16s7.176-16,16-16s16,7.176,16,16h16c0-17.648-14.352-32-32-32S72,70.352,72,88
			s14.352,32,32,32c8.824,0,16,7.176,16,16c0,8.824-7.176,16-16,16s-16-7.176-16-16H72c0,17.648,14.352,32,32,32s32-14.352,32-32
			S121.648,104,104,104z"/>
	</g>
</g>
<g>
	<g>
		<rect x="96" y="40" width="16" height="24"/>
	</g>
</g>
<g>
	<g>
		<rect x="96" y="160" width="16" height="24"/>
	</g>
</g>
<g>
	<g>
		<path d="M0,448v48h144v-48H0z M128,480H16v-16h112V480z"/>
	</g>
</g>
<g>
	<g>
		<path d="M0,416v48h144v-48H0z M128,448H16v-16h112V448z"/>
	</g>
</g>
<g>
	<g>
		<path d="M0,384v48h144v-48H0z M128,416H16v-16h112V416z"/>
	</g>
</g>
<g>
	<g>
		<polygon points="208,448 208,464 288,464 288,480 176,480 176,464 192,464 192,448 160,448 160,496 304,496 304,448 		"/>
	</g>
</g>
<g>
	<g>
		<polygon points="160,416 160,456 176,456 176,432 288,432 288,456 304,456 304,416 		"/>
	</g>
</g>
<g>
	<g>
		<path d="M160,384v48h144v-48H160z M288,416H176v-16h112V416z"/>
	</g>
</g>
<g>
	<g>
		<path d="M160,352v48h144v-48H160z M288,384H176v-16h112V384z"/>
	</g>
</g>
<g>
	<g>
		<path d="M160,320v48h144v-48H160z M288,352H176v-16h112V352z"/>
	</g>
</g>
<g>
	<g>
		<path d="M320,448v48h144v-48H320z M448,480H336v-16h112V480z"/>
	</g>
</g>
<g>
	<g>
		<path d="M320,416v48h144v-48H320z M448,448H336v-16h112V448z"/>
	</g>
</g>
<g>
	<g>
		<path d="M320,384v48h144v-48H320z M448,416H336v-16h112V416z"/>
	</g>
</g>
<g>
	<g>
		<path d="M320,352v48h144v-48H320z M448,384H336v-16h112V384z"/>
	</g>
</g>
<g>
	<g>
		<polygon points="432,320 432,336 448,336 448,352 336,352 336,336 416,336 416,320 320,320 320,368 464,368 464,320 		"/>
	</g>
</g>
<g>
	<g>
		<polygon points="320,288 320,328 336,328 336,304 448,304 448,328 464,328 464,288 		"/>
	</g>
</g>
<g>
	<g>
		<path d="M320,256v48h144v-48H320z M448,288H336v-16h112V288z"/>
	</g>
</g>
<g>
	<g>
		<path d="M376,0c-13.232,0-24,10.768-24,24s10.768,24,24,24h36.688l-117.84,117.848L231.48,126.24L3.056,305.656l9.888,12.584
			L232.52,145.768l64.632,40.392L451.312,32H376c-4.416,0-8-3.592-8-8s3.584-8,8-8h104v104c0,4.408-3.584,8-8,8
			c-4.416,0-8-3.592-8-8V52.688L302.608,214.072L231.192,174.4L27,337.752l10,12.496L232.808,193.6l72.584,40.328L448,91.312V120
			c0,13.232,10.768,24,24,24s24-10.768,24-24V0H376z"/>
	</g>
</g>
<g>
	<g>
		<rect x="32" y="104" width="16" height="16"/>
	</g>
</g>
<g>
	<g>
		<rect x="160" y="104" width="16" height="16"/>
	</g>
</g>
<g>
	<g>
		<path d="M104,8C46.656,8,0,54.656,0,112s46.656,104,104,104s104-46.656,104-104S161.344,8,104,8z M104,200
			c-48.52,0-88-39.48-88-88c0-48.52,39.48-88,88-88s88,39.48,88,88S152.52,200,104,200z"/>
	</g>
</g>
<g>
</g>
<g>
</g>
<g>
</g>
<g>
</g>
<g>
</g>
<g>
</g>
<g>
</g>
<g>
</g>
<g>
</g>
<g>
</g>
<g>
</g>
<g>
</g>
<g>
</g>
<g>
</g>
<g>
</g>
</svg>
