<?xml version="1.0" encoding="utf-8"?>
<!DOCTYPE svg PUBLIC "-//W3C//DTD SVG 1.1//EN" "http://www.w3.org/Graphics/SVG/1.1/DTD/svg11.dtd">
<svg xmlns="http://www.w3.org/2000/svg" xmlns:xlink="http://www.w3.org/1999/xlink" version="1.1" baseProfile="full" width="50" height="50" viewBox="0 0 50.00 50.00" enable-background="new 0 0 50.00 50.00" xml:space="preserve">
	<rect x="0" y="0" fill=":#000000" fill-opacity="1" stroke-width="0.2" stroke-linejoin="round" width="50" height="50"/>
	<g>
		<path fill="#FFFFFF" fill-opacity="1" stroke-width="0.2" stroke-linejoin="round" d="M 21.5258,43.4533L 17.4725,43.4533L 17.4725,36.36L 10.1258,36.36L 10.1258,43.4533L 6.07247,43.4533L 6.07247,25.72L 10.1258,25.72L 10.1258,32.8134L 17.4725,32.8134L 17.4725,25.72L 21.5258,25.72L 21.5258,43.4533 Z "/>
		<path fill="#FFFFFF" fill-opacity="1" stroke-width="0.2" stroke-linejoin="round" d="M 25.5791,43.4533L 25.5791,25.72L 32.0629,25.72C 34.05,25.72 35.5772,26.0816 36.6446,26.8046C 37.7121,27.5277 38.2458,28.5463 38.2458,29.8604C 38.2458,30.8131 37.9212,31.6463 37.272,32.3601C 36.6229,33.0739 35.7929,33.5707 34.7822,33.8505L 34.7822,33.9019C 36.0648,34.0576 37.0893,34.524 37.8559,35.3012C 38.6225,36.0783 39.0058,37.025 39.0058,38.1413C 39.0058,39.7721 38.42,41.0652 37.2483,42.0205C 36.0766,42.9757 34.4761,43.4533 32.4468,43.4533L 25.5791,43.4533 Z M 29.6325,28.76L 29.6325,32.8134L 31.3464,32.8134C 32.1513,32.8134 32.7846,32.6207 33.2464,32.2354C 33.7082,31.8502 33.9391,31.3198 33.9391,30.6442C 33.9391,29.3881 32.9905,28.76 31.0931,28.76L 29.6325,28.76 Z M 29.6325,35.8534L 29.6325,40.4134L 31.7739,40.4134C 32.687,40.4134 33.4028,40.2043 33.9213,39.786C 34.4399,39.3677 34.6991,38.797 34.6991,38.074C 34.6991,37.3826 34.4445,36.8397 33.9352,36.4451C 33.4259,36.0506 32.7134,35.8534 31.7977,35.8534L 29.6325,35.8534 Z "/>
	</g>
</svg>
