<?xml version="1.0" encoding="iso-8859-1"?>
<!-- Generator: Adobe Illustrator 19.0.0, SVG Export Plug-In . SVG Version: 6.00 Build 0)  -->
<svg version="1.1" id="Capa_1" xmlns="http://www.w3.org/2000/svg" xmlns:xlink="http://www.w3.org/1999/xlink" x="0px" y="0px"
	 viewBox="0 0 512 512" style="enable-background:new 0 0 512 512;" xml:space="preserve">
<g>
	<g>
		<path d="M377,36H258.095c-5.523,0-10,4.478-10,10s4.477,10,10,10H377c5.523,0,10-4.478,10-10S382.523,36,377,36z"/>
	</g>
</g>
<g>
	<g>
		<path d="M177.05,38.93c-1.86-1.86-4.44-2.93-7.07-2.93c-2.64,0-5.22,1.069-7.08,2.93c-1.86,1.861-2.92,4.44-2.92,7.07
			s1.06,5.21,2.92,7.069c1.87,1.861,4.44,2.931,7.08,2.931c2.63,0,5.21-1.07,7.07-2.931c1.86-1.859,2.93-4.439,2.93-7.069
			S178.91,40.79,177.05,38.93z"/>
	</g>
</g>
<g>
	<g>
		<path d="M139.02,38.93c-1.86-1.86-4.44-2.93-7.07-2.93s-5.21,1.069-7.07,2.93s-2.93,4.44-2.93,7.07s1.07,5.21,2.93,7.069
			c1.86,1.861,4.44,2.931,7.07,2.931s5.21-1.07,7.07-2.931c1.86-1.859,2.93-4.439,2.93-7.069S140.88,40.79,139.02,38.93z"/>
	</g>
</g>
<g>
	<g>
		<path d="M215.07,38.93C213.21,37.07,210.63,36,208,36s-5.21,1.069-7.07,2.93C199.07,40.79,198,43.37,198,46s1.07,5.21,2.93,7.069
			C202.79,54.93,205.37,56,208,56s5.21-1.07,7.07-2.931C216.93,51.21,218,48.63,218,46S216.93,40.79,215.07,38.93z"/>
	</g>
</g>
<g>
	<g>
		<path d="M287,124.044h-41c-5.523,0-10,4.478-10,10c0,5.522,4.477,10,10,10h41c5.523,0,10-4.478,10-10
			C297,128.522,292.523,124.044,287,124.044z"/>
	</g>
</g>
<g>
	<g>
		<path d="M368.766,124.044h-40.917c-5.523,0-10,4.478-10,10c0,5.522,4.477,10,10,10h40.917c5.523,0,10-4.478,10-10
			C378.766,128.522,374.289,124.044,368.766,124.044z"/>
	</g>
</g>
<g>
	<g>
		<path d="M368.766,220.011c-0.001,0-0.002,0-0.003,0l-10.645,0.004c-5.522,0.002-9.998,4.48-9.996,10.004
			c0.002,5.521,4.479,9.996,10,9.996c0.001,0,0.002,0,0.004,0l10.644-0.004c5.522-0.002,9.998-4.48,9.996-10.004
			C378.764,224.485,374.287,220.011,368.766,220.011z"/>
	</g>
</g>
<g>
	<g>
		<path d="M322,220.036c-0.001,0-0.003,0-0.005,0l-38.649,0.021c-5.523,0.003-9.998,4.482-9.995,10.005
			c0.003,5.521,4.479,9.995,10,9.995c0.001,0,0.003,0,0.005,0l38.649-0.021c5.523-0.003,9.998-4.482,9.995-10.005
			C331.997,224.51,327.521,220.036,322,220.036z"/>
	</g>
</g>
<g>
	<g>
		<path d="M333,172.042h-33.427c-5.523,0-10,4.478-10,10c0,5.522,4.477,10,10,10H333c5.523,0,10-4.478,10-10
			C343,176.52,338.523,172.042,333,172.042z"/>
	</g>
</g>
<g>
	<g>
		<path d="M375.84,174.97c-1.87-1.861-4.44-2.93-7.07-2.93c-2.64,0-5.21,1.069-7.08,2.93c-1.86,1.86-2.92,4.44-2.92,7.07
			s1.06,5.21,2.92,7.069c1.87,1.87,4.44,2.931,7.08,2.931c2.63,0,5.2-1.061,7.07-2.931c1.86-1.859,2.93-4.439,2.93-7.069
			S377.7,176.83,375.84,174.97z"/>
	</g>
</g>
<g>
	<g>
		<path d="M381.07,494.93c-1.86-1.86-4.44-2.93-7.07-2.93s-5.21,1.069-7.07,2.93c-1.86,1.86-2.93,4.44-2.93,7.07
			s1.07,5.21,2.93,7.069c1.86,1.86,4.44,2.931,7.07,2.931s5.21-1.07,7.07-2.931c1.86-1.859,2.93-4.439,2.93-7.069
			S382.93,496.79,381.07,494.93z"/>
	</g>
</g>
<g>
	<g>
		<path d="M456.75,286.5H430V42c0-23.159-18.841-42-42-42H124c-23.159,0-42,18.841-42,42v122.072C34.18,181.761,0,227.818,0,281.71
			c0,69.133,56.244,125.376,125.376,125.376c47.857,0,89.531-26.957,110.653-66.479c-0.008,0.382-0.029,0.76-0.029,1.143v115
			c0,30.465,24.785,55.25,55.25,55.25h46.727c5.523,0,10-4.478,10-10c0-5.522-4.477-10-10-10H291.25
			c-19.437,0-35.25-15.813-35.25-35.25v-115c0-19.437,15.813-35.25,35.25-35.25H308c5.523,0,10-4.478,10-10v-11.193l23.753,19.002
			c1.773,1.419,3.977,2.191,6.247,2.191h108.75c19.437,0,35.25,15.813,35.25,35.25v115c0,19.437-15.813,35.25-35.25,35.25h-40.701
			c-5.523,0-10,4.478-10,10c0,5.522,4.477,10,10,10h40.701c30.465,0,55.25-24.785,55.25-55.25v-115
			C512,311.285,487.215,286.5,456.75,286.5z M219.718,219.576c-3.134,3.134-3.831,7.957-1.713,11.851
			c8.339,15.326,12.747,32.714,12.747,50.283c0,58.104-47.271,105.376-105.376,105.376C67.271,387.086,20,339.814,20,281.71
			c0-58.105,47.271-105.377,105.376-105.377c24.419,0,48.22,8.543,67.019,24.055c1.792,1.479,4.042,2.287,6.365,2.287h37.86
			L219.718,219.576z M410,286.5h-58.492l-37.261-29.809c-3.002-2.4-7.114-2.869-10.579-1.204c-3.464,1.665-5.668,5.169-5.668,9.013
			v22h-6.75c-17.427,0-32.985,8.119-43.119,20.763c1.716-8.253,2.621-16.799,2.621-25.553c0-18.366-4.054-36.575-11.777-53.105
			l28.858-28.858c2.86-2.86,3.716-7.161,2.168-10.898c-1.548-3.736-5.194-6.173-9.239-6.173h-58.494
			c-21.902-17.012-49.063-26.342-76.892-26.342c-7.988,0-15.8,0.76-23.376,2.195V92h308V286.5z M410,72H102V42
			c0-12.131,9.869-22,22-22h264c12.131,0,22,9.869,22,22V72z"/>
	</g>
</g>
<g>
	<g>
		<path d="M310.023,367.25c-5.523,0-10,4.478-10,10v12h-11.922v-12c0-5.522-4.477-10-10-10s-10,4.478-10,10v44
			c0,5.522,4.477,10,10,10s10-4.478,10-10v-12h11.922v12c0,5.522,4.477,10,10,10s10-4.478,10-10v-44
			C320.023,371.728,315.546,367.25,310.023,367.25z"/>
	</g>
</g>
<g>
	<g>
		<path d="M474.392,411.25H465.5v-34c0-5.522-4.477-10-10-10s-10,4.478-10,10v44c0,5.522,4.477,10,10,10h18.892
			c5.523,0,10-4.478,10-10C484.392,415.728,479.915,411.25,474.392,411.25z"/>
	</g>
</g>
<g>
	<g>
		<path d="M364.07,367.25h-26.093c-5.523,0-10,4.478-10,10c0,5.522,4.477,10,10,10h3.046v34c0,5.522,4.477,10,10,10s10-4.478,10-10
			v-34h3.047c5.523,0,10-4.478,10-10C374.07,371.728,369.593,367.25,364.07,367.25z"/>
	</g>
</g>
<g>
	<g>
		<path d="M428.624,368.011c-3.735-1.544-8.037-0.692-10.898,2.168l-9.742,9.742l-9.742-9.742c-2.86-2.86-7.163-3.714-10.898-2.168
			c-3.737,1.548-6.173,5.194-6.173,9.239v44c0,5.522,4.477,10,10,10s10-4.478,10-10v-19.866c1.847,1.719,4.281,2.68,6.813,2.68
			s4.966-0.961,6.813-2.68v19.866c0,5.522,4.477,10,10,10s10-4.478,10-10v-44C434.797,373.205,432.36,369.559,428.624,368.011z"/>
	</g>
</g>
<g>
	<g>
		<path d="M85.203,293.426c-6.462,6.461-16.974,6.461-23.434,0c-3.13-3.13-4.854-7.291-4.854-11.717
			c0-4.427,1.724-8.587,4.854-11.717s7.291-4.852,11.717-4.852c4.426,0,8.587,1.724,11.717,4.854c3.905,3.904,10.238,3.905,14.142,0
			c3.905-3.905,3.906-10.237,0-14.143c-6.907-6.907-16.091-10.711-25.859-10.711s-18.952,3.804-25.859,10.711
			c-6.908,6.907-10.711,16.091-10.711,25.859s3.804,18.951,10.711,25.859c7.129,7.129,16.494,10.693,25.859,10.693
			s18.729-3.564,25.859-10.693c3.905-3.905,3.906-10.237,0-14.143C95.441,289.523,89.108,289.523,85.203,293.426z"/>
	</g>
</g>
<g>
	<g>
		<path d="M131.004,271.71c-1.812,0-3.285-1.474-3.285-3.285c0-1.811,1.474-3.285,3.285-3.285h13.285c5.523,0,10-4.478,10-10
			c0-5.522-4.477-10-10-10h-13.285c-12.839,0-23.285,10.445-23.285,23.285c0,12.84,10.446,23.285,23.285,23.285
			c1.812,0,3.285,1.474,3.285,3.285c0,1.811-1.474,3.285-3.285,3.285h-13.285c-5.523,0-10,4.478-10,10c0,5.522,4.477,10,10,10
			h13.285c12.839,0,23.285-10.445,23.285-23.285C154.289,282.155,143.843,271.71,131.004,271.71z"/>
	</g>
</g>
<g>
	<g>
		<path d="M184.675,271.71c-1.812,0-3.285-1.474-3.285-3.285c0-1.811,1.474-3.285,3.285-3.285h13.285c5.523,0,10-4.478,10-10
			c0-5.522-4.477-10-10-10h-13.285c-12.839,0-23.285,10.445-23.285,23.285c0,12.84,10.446,23.285,23.285,23.285
			c1.812,0,3.285,1.474,3.285,3.285c0,1.811-1.474,3.285-3.285,3.285H171.39c-5.523,0-10,4.478-10,10c0,5.522,4.477,10,10,10h13.285
			c12.839,0,23.285-10.445,23.285-23.285C207.96,282.155,197.514,271.71,184.675,271.71z"/>
	</g>
</g>
<g>
</g>
<g>
</g>
<g>
</g>
<g>
</g>
<g>
</g>
<g>
</g>
<g>
</g>
<g>
</g>
<g>
</g>
<g>
</g>
<g>
</g>
<g>
</g>
<g>
</g>
<g>
</g>
<g>
</g>
</svg>
