<?xml version="1.0"?>
<svg xmlns="http://www.w3.org/2000/svg" height="512px" viewBox="-21 -21 682.66669 682.66669" width="512px" class=""><g><path d="m320 508.664062c10.355469 0 18.75-8.394531 18.75-18.75v-200c0-10.359374-8.394531-18.75-18.75-18.75s-18.75 8.390626-18.75 18.75v200c0 10.355469 8.394531 18.75 18.75 18.75zm0 0" data-original=":#000000" class="active-path" data-old_color="#ffa27b" fill="#ffa27b"/><path d="m546.273438 93.726562c-60.433594-60.441406-140.800782-93.726562-226.273438-93.726562s-165.839844 33.285156-226.273438 93.726562c-60.441406 60.433594-93.726562 140.800782-93.726562 226.273438s33.285156 165.839844 93.726562 226.273438c60.433594 60.441406 140.800782 93.726562 226.273438 93.726562s165.839844-33.285156 226.273438-93.726562c60.441406-60.433594 93.726562-140.800782 93.726562-226.273438s-33.285156-165.839844-93.726562-226.273438zm-170.023438 396.1875c0 31.0625-25.1875 56.25-56.25 56.25s-56.25-25.1875-56.25-56.25v-200c0-31.066406 25.1875-56.25 56.25-56.25s56.25 25.183594 56.25 56.25zm-56.25-283.578124c-31.011719 0-56.25-25.222657-56.25-56.25 0-31.007813 25.238281-56.25 56.25-56.25s56.25 25.242187 56.25 56.25c0 31.027343-25.238281 56.25-56.25 56.25zm0 0" data-original=":#000000" class="active-path" data-old_color="#ffa27b" fill="#ffa27b"/><path d="m320 131.335938c-10.335938 0-18.75 8.414062-18.75 18.75 0 10.339843 8.414062 18.75 18.75 18.75s18.75-8.410157 18.75-18.75c0-10.335938-8.414062-18.75-18.75-18.75zm0 0" data-original=":#000000" class="active-path" data-old_color="#ffa27b" fill="#ffa27b"/></g> </svg>
