<svg id="Capa_1" enable-background="new 0 0 512 512" height="512" viewBox="0 0 512 512" width="512" xmlns="http://www.w3.org/2000/svg"><g><path d="m218.071 128.929c-3.906-3.904-10.236-3.904-14.143 0l-22.928 22.928-7.929-7.929c-3.906-3.904-10.236-3.904-14.143 0-3.905 3.905-3.905 10.237 0 14.143l15 15c1.953 1.952 4.512 2.929 7.071 2.929s5.118-.977 7.071-2.929l30-30c3.907-3.905 3.907-10.237.001-14.142z"/><path d="m218.071 218.929c-3.906-3.904-10.236-3.904-14.143 0l-22.928 22.928-7.929-7.929c-3.906-3.904-10.236-3.904-14.143 0-3.905 3.905-3.905 10.237 0 14.143l15 15c1.953 1.952 4.512 2.929 7.071 2.929s5.118-.977 7.071-2.929l30-30c3.907-3.905 3.907-10.237.001-14.142z"/><path d="m203.929 308.929-22.929 22.928-7.929-7.929c-3.906-3.904-10.236-3.904-14.143 0-3.905 3.905-3.905 10.237 0 14.143l15 15c1.953 1.952 4.512 2.929 7.071 2.929s5.118-.977 7.071-2.929l30-30c3.905-3.905 3.905-10.237 0-14.143-3.905-3.904-10.235-3.904-14.141.001z"/><path d="m346 156h-90c-5.522 0-10 4.478-10 10s4.478 10 10 10h90c5.522 0 10-4.478 10-10s-4.477-10-10-10z"/><path d="m346 246h-90c-5.522 0-10 4.478-10 10s4.478 10 10 10h90c5.522 0 10-4.478 10-10s-4.477-10-10-10z"/><path d="m356 346c0-5.522-4.478-10-10-10h-90c-5.522 0-10 4.478-10 10s4.478 10 10 10h90c5.523 0 10-4.478 10-10z"/><path d="m271 60h-30c-5.522 0-10 4.478-10 10s4.478 10 10 10h30c5.522 0 10-4.478 10-10s-4.477-10-10-10z"/><path d="m281 436c0-5.522-4.478-10-10-10h-30c-5.522 0-10 4.478-10 10s4.478 10 10 10h30c5.523 0 10-4.478 10-10z"/><path d="m96 40v432c0 22.056 17.944 40 40 40h75c5.522 0 10-4.478 10-10s-4.478-10-10-10h-75c-11.028 0-20-8.972-20-20v-432c0-11.028 8.972-20 20-20h240c11.028 0 20 8.972 20 20v432c0 11.028-8.972 20-20 20h-75c-5.522 0-10 4.478-10 10s4.478 10 10 10h75c22.056 0 40-17.944 40-40v-432c0-22.056-17.944-40-40-40h-240c-22.056 0-40 17.944-40 40z"/><circle cx="256" cy="502" r="10"/></g></svg>