<?xml version="1.0" encoding="iso-8859-1"?>
<!-- Generator: Adobe Illustrator 19.0.0, SVG Export Plug-In . SVG Version: 6.00 Build 0)  -->
<svg version="1.1" id="Capa_1" xmlns="http://www.w3.org/2000/svg" xmlns:xlink="http://www.w3.org/1999/xlink" x="0px" y="0px"
	 viewBox="0 0 512.001 512.001" style="enable-background:new 0 0 512.001 512.001;" xml:space="preserve">
<g>
	<g>
		<path d="M504.797,497.002h-1.937V376.537v-32.124c0-3.939-1.889-7.692-5.053-10.038c-3.164-2.347-7.304-3.065-11.073-1.922
			l-18.764,5.692L383.333,244.8c-4.336-4.782-11.518-5.488-16.705-1.642l-86.576,64.223l-42.171-43.632
			c-1.408-1.457-3.346-2.282-5.372-2.288c-0.007,0-0.013,0-0.02,0c-2.02,0-3.954,0.815-5.365,2.26l-39.366,40.315l-16.773-39.398
			c-1.622-3.81-6.027-5.584-9.836-3.962c-3.811,1.623-5.585,6.027-3.962,9.837l18.242,42.847c1.641,3.853,5.076,6.616,9.193,7.388
			c4.116,0.772,8.321-0.555,11.248-3.551l36.593-37.475l38.331,39.66c4.348,4.496,11.41,5.075,16.433,1.351l86.519-64.18
			l84.179,92.84c3.229,3.559,8.285,4.957,12.886,3.563l17.053-5.173v24.309l-24.743,13.539l-56.991-42.97
			c-2.84-2.142-6.47-2.974-9.955-2.282l-22.339,4.428c-4.062,0.806-6.703,4.751-5.897,8.814c0.804,4.062,4.75,6.703,8.813,5.897
			l21.242-4.21l57.389,43.269c3.913,2.951,9.223,3.337,13.522,0.984l18.96-10.374v107.815H15.041V363.446l70.339-52.93
			l65.549,84.998c3.954,5.127,11.069,6.397,16.551,2.948l47.584-29.925l24.099,14.847c2.718,1.674,5.939,2.244,9.062,1.602
			l75.489-15.466c4.058-0.831,6.673-4.793,5.842-8.852c-0.832-4.057-4.802-6.675-8.852-5.841l-74.519,15.268l-24.581-15.143
			c-4.086-2.514-9.144-2.492-13.208,0.063l-46.977,29.543l-65.672-85.154c-4.157-5.394-11.97-6.45-17.412-2.355l-63.295,47.63
			v-48.438l107.355-107.441l13.703,32.186c1.621,3.809,6.024,5.582,9.836,3.962c3.811-1.623,5.585-6.027,3.962-9.837l-15.154-35.593
			c-1.629-3.827-5.039-6.584-9.124-7.375c-4.078-0.79-8.276,0.495-11.216,3.436L15.04,275.02V7.499C15.04,3.357,11.683,0,7.541,0
			C3.398,0,0.042,3.357,0.042,7.499v285.635v66.571v144.798c0,4.141,3.357,7.499,7.499,7.499h487.82h9.435
			c4.142,0,7.163-3.357,7.163-7.499C511.959,500.361,508.938,497.002,504.797,497.002z"/>
	</g>
</g>
<g>
	<g>
		<path d="M501.129,273.624h-20.394l-90.791-89.422c-2.188-2.154-5.467-2.758-8.277-1.524L278.124,228.15l-40.531-16.855
			c-2.587-1.075-5.556-0.62-7.701,1.182l-34.597,29.047l-57.302-119.161c-1.005-2.089-2.919-3.596-5.186-4.082
			c-2.269-0.487-4.632,0.104-6.404,1.598L25.924,204.545c-3.167,2.669-3.57,7.399-0.902,10.566
			c2.666,3.166,7.397,3.571,10.565,0.902l93.081-78.432l57.295,119.146c1.004,2.087,2.916,3.593,5.18,4.081
			c2.26,0.487,4.625-0.099,6.399-1.588l38.5-32.326l39.282,16.335c1.889,0.786,4.02,0.765,5.895-0.058l101.823-44.717l89.357,88.01
			c1.403,1.382,3.292,2.157,5.262,2.157h23.467c4.142,0,7.499-3.357,7.499-7.499C508.628,276.981,505.271,273.624,501.129,273.624z"
			/>
	</g>
</g>
<g>
</g>
<g>
</g>
<g>
</g>
<g>
</g>
<g>
</g>
<g>
</g>
<g>
</g>
<g>
</g>
<g>
</g>
<g>
</g>
<g>
</g>
<g>
</g>
<g>
</g>
<g>
</g>
<g>
</g>
</svg>
