<svg xmlns="http://www.w3.org/2000/svg" xmlns:xlink="http://www.w3.org/1999/xlink" width="500" zoomAndPan="magnify" viewBox="0 0 375 374.999991" height="500" preserveAspectRatio="xMidYMid meet" version="1.0"><defs><g/><clipPath id="ca4f1fd1e9"><path d="M 317.734375 222.824219 L 337.539062 222.824219 L 337.539062 242.628906 L 317.734375 242.628906 Z M 317.734375 222.824219 " clip-rule="nonzero"/></clipPath><clipPath id="d1b8b4a682"><path d="M 336.214844 242.589844 L 319.019531 242.589844 C 318.3125 242.589844 317.734375 242.011719 317.734375 241.304688 L 317.734375 224.109375 C 317.734375 223.402344 318.3125 222.824219 319.019531 222.824219 L 336.214844 222.824219 C 336.921875 222.824219 337.5 223.402344 337.5 224.109375 L 337.5 241.304688 C 337.5 242.011719 336.921875 242.589844 336.214844 242.589844 " clip-rule="nonzero"/></clipPath></defs><rect x="-37.5" width="450" fill="#ffffff" y="-37.499999" height="449.999989" fill-opacity="1"/><rect x="-37.5" width="450" fill="#ffffff" y="-37.499999" height="449.999989" fill-opacity="1"/><g clip-path="url(#ca4f1fd1e9)"><g clip-path="url(#d1b8b4a682)"><path fill="#6f7c82" d="M 317.734375 222.824219 L 337.539062 222.824219 L 337.539062 242.628906 L 317.734375 242.628906 Z M 317.734375 222.824219 " fill-opacity="1" fill-rule="nonzero"/></g></g><g fill="#6f7c82" fill-opacity="1"><g transform="translate(38.183659, 174.058465)"><g><path d="M 1.953125 -27.484375 C 1.953125 -31.710938 2.582031 -35.65625 3.84375 -39.3125 C 5.09375 -43.007812 6.914062 -46.21875 9.3125 -48.9375 C 11.71875 -51.695312 14.644531 -53.835938 18.09375 -55.359375 C 19.8125 -56.140625 21.648438 -56.722656 23.609375 -57.109375 C 25.566406 -57.503906 27.613281 -57.703125 29.75 -57.703125 C 31.894531 -57.703125 33.941406 -57.503906 35.890625 -57.109375 C 37.847656 -56.722656 39.691406 -56.113281 41.421875 -55.28125 C 43.140625 -54.5 44.726562 -53.554688 46.1875 -52.453125 C 47.65625 -51.359375 48.988281 -50.109375 50.1875 -48.703125 C 52.59375 -45.984375 54.445312 -42.800781 55.75 -39.15625 C 57 -35.5 57.625 -31.609375 57.625 -27.484375 C 57.625 -23.359375 57 -19.46875 55.75 -15.8125 C 55.332031 -14.613281 54.847656 -13.4375 54.296875 -12.28125 C 53.753906 -11.132812 53.140625 -10.050781 52.453125 -9.03125 C 51.773438 -8.019531 51.046875 -7.046875 50.265625 -6.109375 C 49.066406 -4.703125 47.722656 -3.445312 46.234375 -2.34375 C 44.742188 -1.25 43.164062 -0.3125 41.5 0.46875 C 38.050781 2.082031 34.132812 2.890625 29.75 2.890625 C 25.363281 2.890625 21.453125 2.082031 18.015625 0.46875 C 17.171875 0.0507812 16.359375 -0.390625 15.578125 -0.859375 C 14.796875 -1.328125 14.039062 -1.832031 13.3125 -2.375 C 12.582031 -2.925781 11.875 -3.515625 11.1875 -4.140625 C 10.507812 -4.773438 9.882812 -5.429688 9.3125 -6.109375 C 6.914062 -8.867188 5.09375 -12.101562 3.84375 -15.8125 C 2.582031 -19.46875 1.953125 -23.359375 1.953125 -27.484375 Z M 13.46875 -27.484375 C 13.46875 -26.179688 13.554688 -24.890625 13.734375 -23.609375 C 13.921875 -22.328125 14.195312 -21.0625 14.5625 -19.8125 C 14.976562 -18.613281 15.445312 -17.476562 15.96875 -16.40625 C 16.488281 -15.332031 17.117188 -14.328125 17.859375 -13.390625 C 18.066406 -13.078125 18.300781 -12.789062 18.5625 -12.53125 C 18.820312 -12.269531 19.082031 -12.007812 19.34375 -11.75 C 19.601562 -11.488281 19.875 -11.222656 20.15625 -10.953125 C 20.445312 -10.691406 20.75 -10.457031 21.0625 -10.25 C 21.375 -10.039062 21.6875 -9.832031 22 -9.625 C 22.3125 -9.414062 22.625 -9.207031 22.9375 -9 C 24.925781 -7.957031 27.195312 -7.4375 29.75 -7.4375 C 30.6875 -7.4375 31.570312 -7.488281 32.40625 -7.59375 C 33.25 -7.695312 34.035156 -7.863281 34.765625 -8.09375 C 35.492188 -8.332031 36.171875 -8.609375 36.796875 -8.921875 C 38.835938 -9.910156 40.535156 -11.269531 41.890625 -13 C 42.359375 -13.570312 42.773438 -14.179688 43.140625 -14.828125 C 43.503906 -15.484375 43.84375 -16.191406 44.15625 -16.953125 C 44.46875 -17.710938 44.753906 -18.484375 45.015625 -19.265625 C 45.742188 -21.816406 46.109375 -24.554688 46.109375 -27.484375 C 46.109375 -30.085938 45.71875 -32.59375 44.9375 -35 C 44.207031 -37.394531 43.113281 -39.535156 41.65625 -41.421875 C 40.25 -43.242188 38.550781 -44.703125 36.5625 -45.796875 C 34.582031 -46.847656 32.3125 -47.375 29.75 -47.375 C 29.125 -47.375 28.5 -47.347656 27.875 -47.296875 C 27.25 -47.242188 26.648438 -47.148438 26.078125 -47.015625 C 25.503906 -46.890625 24.953125 -46.734375 24.421875 -46.546875 C 23.898438 -46.367188 23.40625 -46.144531 22.9375 -45.875 C 21.894531 -45.40625 20.957031 -44.832031 20.125 -44.15625 C 19.289062 -43.476562 18.535156 -42.695312 17.859375 -41.8125 C 16.441406 -40.039062 15.34375 -37.953125 14.5625 -35.546875 C 13.832031 -33.035156 13.46875 -30.347656 13.46875 -27.484375 Z M 13.46875 -27.484375 "/></g></g></g><g fill="#6f7c82" fill-opacity="1"><g transform="translate(97.755624, 174.058465)"><g><path d="M 15.03125 -39.0625 C 15.445312 -39.488281 15.863281 -39.859375 16.28125 -40.171875 C 16.695312 -40.484375 17.140625 -40.769531 17.609375 -41.03125 C 20.222656 -42.75 23.28125 -43.609375 26.78125 -43.609375 C 29.332031 -43.609375 31.597656 -43.203125 33.578125 -42.390625 C 35.566406 -41.585938 37.238281 -40.375 38.59375 -38.75 C 41.15625 -35.625 42.4375 -31.554688 42.4375 -26.546875 L 42.4375 1.953125 L 31.46875 1.953125 L 31.46875 -25.765625 C 31.46875 -26.648438 31.398438 -27.457031 31.265625 -28.1875 C 31.140625 -28.914062 30.957031 -29.566406 30.71875 -30.140625 C 30.488281 -30.710938 30.191406 -31.207031 29.828125 -31.625 C 29.515625 -32.050781 29.160156 -32.40625 28.765625 -32.6875 C 28.378906 -32.976562 27.925781 -33.1875 27.40625 -33.3125 C 26.882812 -33.445312 26.285156 -33.515625 25.609375 -33.515625 C 24.660156 -33.515625 23.71875 -33.332031 22.78125 -32.96875 C 21.789062 -32.601562 20.828125 -32.078125 19.890625 -31.390625 C 18.953125 -30.660156 18.0625 -29.851562 17.21875 -28.96875 C 16.90625 -28.550781 16.566406 -28.117188 16.203125 -27.671875 C 15.835938 -27.234375 15.523438 -26.804688 15.265625 -26.390625 L 15.265625 1.953125 L 4.3125 1.953125 L 4.3125 -42.671875 L 15.03125 -42.671875 Z M 15.03125 -39.0625 "/></g></g></g><g fill="#6f7c82" fill-opacity="1"><g transform="translate(144.09807, 174.058465)"><g><path d="M 13.078125 -15.5 C 13.648438 -13.207031 14.640625 -11.351562 16.046875 -9.9375 C 17.878906 -8.164062 20.332031 -7.28125 23.40625 -7.28125 C 24.132812 -7.28125 24.835938 -7.304688 25.515625 -7.359375 C 26.203125 -7.410156 26.859375 -7.488281 27.484375 -7.59375 C 28.109375 -7.695312 28.707031 -7.828125 29.28125 -7.984375 C 29.851562 -8.140625 30.425781 -8.304688 31 -8.484375 C 31.570312 -8.671875 32.132812 -8.867188 32.6875 -9.078125 C 33.238281 -9.285156 33.800781 -9.519531 34.375 -9.78125 L 36.40625 -10.734375 L 37.03125 -8.53125 L 38.671875 -2.5 L 39.15625 -0.859375 L 37.65625 -0.15625 C 35.625 0.78125 33.351562 1.507812 30.84375 2.03125 C 29.59375 2.34375 28.273438 2.5625 26.890625 2.6875 C 25.503906 2.820312 24.054688 2.890625 22.546875 2.890625 C 19.359375 2.890625 16.460938 2.367188 13.859375 1.328125 C 11.242188 0.234375 9.023438 -1.328125 7.203125 -3.359375 C 5.378906 -5.347656 3.96875 -7.804688 2.96875 -10.734375 C 2.03125 -13.546875 1.5625 -16.753906 1.5625 -20.359375 C 1.5625 -23.597656 2.03125 -26.625 2.96875 -29.4375 C 3.5 -30.84375 4.101562 -32.171875 4.78125 -33.421875 C 5.457031 -34.679688 6.238281 -35.832031 7.125 -36.875 C 8.894531 -38.96875 11.035156 -40.613281 13.546875 -41.8125 C 16.046875 -43.007812 18.835938 -43.609375 21.921875 -43.609375 C 22.960938 -43.609375 23.96875 -43.539062 24.9375 -43.40625 C 25.90625 -43.28125 26.84375 -43.097656 27.75 -42.859375 C 28.664062 -42.628906 29.539062 -42.332031 30.375 -41.96875 C 31.632812 -41.394531 32.769531 -40.726562 33.78125 -39.96875 C 34.800781 -39.207031 35.726562 -38.332031 36.5625 -37.34375 C 38.175781 -35.414062 39.40625 -33.195312 40.25 -30.6875 C 40.613281 -29.4375 40.898438 -28.144531 41.109375 -26.8125 C 41.316406 -25.476562 41.421875 -24.132812 41.421875 -22.78125 C 41.421875 -22.414062 41.421875 -22.050781 41.421875 -21.6875 C 41.421875 -21.320312 41.40625 -20.941406 41.375 -20.546875 C 41.351562 -20.160156 41.34375 -19.785156 41.34375 -19.421875 C 41.34375 -19.054688 41.328125 -18.703125 41.296875 -18.359375 C 41.273438 -18.023438 41.238281 -17.671875 41.1875 -17.296875 L 41.03125 -15.5 Z M 21.765625 -33.59375 C 19.265625 -33.59375 17.226562 -32.753906 15.65625 -31.078125 C 15.03125 -30.398438 14.484375 -29.566406 14.015625 -28.578125 C 13.546875 -27.585938 13.179688 -26.441406 12.921875 -25.140625 L 30.921875 -25.140625 C 30.660156 -27.640625 29.878906 -29.59375 28.578125 -31 C 26.960938 -32.726562 24.691406 -33.59375 21.765625 -33.59375 Z M 21.765625 -33.59375 "/></g></g></g><g fill="#6f7c82" fill-opacity="1"><g transform="translate(38.183659, 250.55846)"><g><path d="M 39.390625 -56.765625 L 48.546875 -56.765625 L 48.546875 -21.140625 C 48.546875 -17.484375 48.023438 -14.171875 46.984375 -11.203125 C 45.929688 -8.222656 44.414062 -5.660156 42.4375 -3.515625 C 42.019531 -3.097656 41.585938 -2.707031 41.140625 -2.34375 C 40.703125 -1.976562 40.257812 -1.613281 39.8125 -1.25 C 39.375 -0.882812 38.90625 -0.554688 38.40625 -0.265625 C 37.90625 0.015625 37.394531 0.285156 36.875 0.546875 C 36.351562 0.804688 35.804688 1.039062 35.234375 1.25 C 32.515625 2.34375 29.488281 2.890625 26.15625 2.890625 C 19.207031 2.890625 13.75 0.832031 9.78125 -3.28125 C 5.875 -7.40625 3.921875 -13.253906 3.921875 -20.828125 L 3.921875 -56.765625 L 15.265625 -56.765625 L 15.265625 -22 C 15.265625 -17.144531 16.207031 -13.46875 18.09375 -10.96875 C 18.925781 -9.8125 19.992188 -8.945312 21.296875 -8.375 C 22.597656 -7.800781 24.21875 -7.515625 26.15625 -7.515625 C 29.957031 -7.515625 32.75 -8.664062 34.53125 -10.96875 C 36.457031 -13.414062 37.421875 -17.09375 37.421875 -22 L 37.421875 -56.765625 Z M 39.390625 -56.765625 "/></g></g></g><g fill="#6f7c82" fill-opacity="1"><g transform="translate(90.632032, 250.55846)"><g><path d="M 4.625 -42.671875 C 5.664062 -42.671875 6.628906 -42.59375 7.515625 -42.4375 C 8.398438 -42.28125 9.25 -42.03125 10.0625 -41.6875 C 10.875 -41.351562 11.617188 -40.925781 12.296875 -40.40625 C 12.972656 -39.882812 13.546875 -39.253906 14.015625 -38.515625 C 14.898438 -39.410156 15.914062 -40.195312 17.0625 -40.875 C 17.375 -41.082031 17.6875 -41.273438 18 -41.453125 C 18.320312 -41.640625 18.664062 -41.8125 19.03125 -41.96875 C 19.394531 -42.125 19.757812 -42.265625 20.125 -42.390625 C 20.488281 -42.523438 20.851562 -42.671875 21.21875 -42.828125 C 22.050781 -43.085938 22.910156 -43.28125 23.796875 -43.40625 C 24.691406 -43.539062 25.609375 -43.609375 26.546875 -43.609375 C 29.148438 -43.609375 31.664062 -43.085938 34.09375 -42.046875 C 36.519531 -41.003906 38.648438 -39.488281 40.484375 -37.5 C 42.304688 -35.519531 43.738281 -33.117188 44.78125 -30.296875 C 45.144531 -29.359375 45.441406 -28.367188 45.671875 -27.328125 C 45.910156 -26.285156 46.097656 -25.210938 46.234375 -24.109375 C 46.367188 -23.015625 46.4375 -21.894531 46.4375 -20.75 C 46.4375 -17.300781 45.910156 -14.117188 44.859375 -11.203125 C 44.335938 -9.785156 43.722656 -8.453125 43.015625 -7.203125 C 42.316406 -5.953125 41.5 -4.804688 40.5625 -3.765625 C 40.25 -3.335938 39.894531 -2.941406 39.5 -2.578125 C 39.101562 -2.210938 38.695312 -1.847656 38.28125 -1.484375 C 37.863281 -1.117188 37.445312 -0.78125 37.03125 -0.46875 C 36.613281 -0.15625 36.171875 0.128906 35.703125 0.390625 C 35.234375 0.648438 34.765625 0.882812 34.296875 1.09375 C 33.097656 1.71875 31.859375 2.171875 30.578125 2.453125 C 29.296875 2.742188 28.003906 2.890625 26.703125 2.890625 C 23.929688 2.890625 21.398438 2.34375 19.109375 1.25 C 18.273438 0.882812 17.488281 0.46875 16.75 0 L 16.75 19.1875 L 5.796875 19.1875 L 5.796875 -30.296875 C 5.796875 -31.503906 5.585938 -32.289062 5.171875 -32.65625 C 4.703125 -33.070312 4.019531 -33.28125 3.125 -33.28125 L 0.546875 -33.28125 L 1.25 -35.78125 L 2.734375 -41.265625 L 3.125 -42.671875 Z M 35.3125 -20.515625 C 35.3125 -21.609375 35.234375 -22.625 35.078125 -23.5625 C 34.921875 -24.507812 34.695312 -25.382812 34.40625 -26.1875 C 34.125 -27 33.800781 -27.742188 33.4375 -28.421875 C 33.070312 -29.097656 32.65625 -29.722656 32.1875 -30.296875 C 31.238281 -31.390625 30.148438 -32.210938 28.921875 -32.765625 C 27.703125 -33.316406 26.390625 -33.59375 24.984375 -33.59375 C 24.035156 -33.59375 23.144531 -33.472656 22.3125 -33.234375 C 21.476562 -33.003906 20.695312 -32.65625 19.96875 -32.1875 C 18.613281 -31.34375 17.539062 -30.453125 16.75 -29.515625 L 16.75 -10.96875 C 17.851562 -9.96875 19.054688 -9.128906 20.359375 -8.453125 C 21.816406 -7.671875 23.460938 -7.28125 25.296875 -7.28125 C 26.753906 -7.28125 28.082031 -7.566406 29.28125 -8.140625 C 30.476562 -8.765625 31.523438 -9.628906 32.421875 -10.734375 C 32.890625 -11.304688 33.289062 -11.929688 33.625 -12.609375 C 33.96875 -13.285156 34.269531 -14.039062 34.53125 -14.875 C 34.789062 -15.707031 34.984375 -16.59375 35.109375 -17.53125 C 35.242188 -18.476562 35.3125 -19.472656 35.3125 -20.515625 Z M 35.3125 -20.515625 "/></g></g></g><g fill="#6f7c82" fill-opacity="1"><g transform="translate(138.618388, 250.55846)"><g><path d="M 9.46875 -54.03125 L 16.828125 -54.03125 L 16.828125 -41.1875 L 28.109375 -41.1875 L 28.109375 -31.15625 L 16.828125 -31.15625 L 16.828125 -13.46875 C 16.828125 -12.164062 16.957031 -11.09375 17.21875 -10.25 C 17.476562 -9.46875 17.796875 -8.867188 18.171875 -8.453125 C 18.535156 -8.035156 18.976562 -7.75 19.5 -7.59375 C 19.8125 -7.488281 20.125 -7.410156 20.4375 -7.359375 C 20.75 -7.304688 21.0625 -7.28125 21.375 -7.28125 C 22.46875 -7.28125 23.457031 -7.4375 24.34375 -7.75 C 25.445312 -8.164062 26.46875 -8.632812 27.40625 -9.15625 L 29.4375 -10.25 L 30.21875 -8.0625 L 32.1875 -2.421875 L 32.65625 -0.9375 L 31.3125 -0.15625 C 30.164062 0.570312 28.628906 1.25 26.703125 1.875 C 25.710938 2.238281 24.691406 2.5 23.640625 2.65625 C 22.597656 2.8125 21.554688 2.890625 20.515625 2.890625 C 16.023438 2.890625 12.445312 1.40625 9.78125 -1.5625 C 8.425781 -3.082031 7.4375 -4.882812 6.8125 -6.96875 C 6.1875 -9.050781 5.875 -11.398438 5.875 -14.015625 L 5.875 -31.15625 L -1.171875 -31.15625 L -1.171875 -41.1875 L 6.265625 -41.1875 L 7.515625 -52.296875 L 7.75 -54.03125 Z M 9.46875 -54.03125 "/></g></g></g><g fill="#6f7c82" fill-opacity="1"><g transform="translate(169.696007, 250.55846)"><g><path d="M 13.3125 1.953125 L 4.3125 1.953125 L 4.3125 -42.671875 L 15.265625 -42.671875 L 15.265625 1.953125 Z M 9.78125 -45.71875 C 7.90625 -45.71875 6.285156 -46.394531 4.921875 -47.75 C 3.566406 -49.113281 2.890625 -50.734375 2.890625 -52.609375 C 2.890625 -54.648438 3.53125 -56.304688 4.8125 -57.578125 C 6.09375 -58.859375 7.75 -59.5 9.78125 -59.5 C 10.726562 -59.5 11.617188 -59.328125 12.453125 -58.984375 C 13.285156 -58.648438 14.023438 -58.15625 14.671875 -57.5 C 15.328125 -56.851562 15.820312 -56.113281 16.15625 -55.28125 C 16.5 -54.445312 16.671875 -53.554688 16.671875 -52.609375 C 16.671875 -50.578125 16.03125 -48.921875 14.75 -47.640625 C 13.476562 -46.359375 11.820312 -45.71875 9.78125 -45.71875 Z M 9.78125 -45.71875 "/></g></g></g><g fill="#6f7c82" fill-opacity="1"><g transform="translate(189.266295, 250.55846)"><g><path d="M 15.03125 -39.15625 C 15.445312 -39.519531 15.847656 -39.859375 16.234375 -40.171875 C 16.628906 -40.484375 17.0625 -40.769531 17.53125 -41.03125 C 18.164062 -41.445312 18.820312 -41.820312 19.5 -42.15625 C 20.175781 -42.5 20.890625 -42.773438 21.640625 -42.984375 C 22.398438 -43.191406 23.160156 -43.347656 23.921875 -43.453125 C 24.679688 -43.554688 25.476562 -43.609375 26.3125 -43.609375 C 29.957031 -43.609375 32.984375 -42.695312 35.390625 -40.875 C 36.847656 -39.78125 38.046875 -38.421875 38.984375 -36.796875 C 40.296875 -38.253906 41.679688 -39.5625 43.140625 -40.71875 C 43.660156 -41.082031 44.207031 -41.421875 44.78125 -41.734375 C 45.351562 -42.046875 45.953125 -42.316406 46.578125 -42.546875 C 47.210938 -42.785156 47.851562 -42.984375 48.5 -43.140625 C 49.15625 -43.296875 49.820312 -43.410156 50.5 -43.484375 C 51.175781 -43.566406 51.878906 -43.609375 52.609375 -43.609375 C 52.921875 -43.609375 53.222656 -43.609375 53.515625 -43.609375 C 53.804688 -43.609375 54.09375 -43.59375 54.375 -43.5625 C 54.664062 -43.539062 54.953125 -43.503906 55.234375 -43.453125 C 55.523438 -43.398438 55.800781 -43.347656 56.0625 -43.296875 C 56.320312 -43.242188 56.582031 -43.191406 56.84375 -43.140625 C 57.101562 -43.085938 57.363281 -43.019531 57.625 -42.9375 C 57.882812 -42.863281 58.144531 -42.773438 58.40625 -42.671875 C 58.664062 -42.566406 58.925781 -42.460938 59.1875 -42.359375 C 59.65625 -42.148438 60.113281 -41.914062 60.5625 -41.65625 C 61.007812 -41.394531 61.425781 -41.109375 61.8125 -40.796875 C 62.207031 -40.484375 62.585938 -40.15625 62.953125 -39.8125 C 63.316406 -39.476562 63.65625 -39.097656 63.96875 -38.671875 C 65.269531 -37.160156 66.207031 -35.363281 66.78125 -33.28125 C 67.414062 -31.238281 67.734375 -28.992188 67.734375 -26.546875 L 67.734375 1.953125 L 56.765625 1.953125 L 56.765625 -26 C 56.765625 -28.394531 56.242188 -30.296875 55.203125 -31.703125 C 54.265625 -32.910156 52.984375 -33.515625 51.359375 -33.515625 C 50.421875 -33.515625 49.535156 -33.332031 48.703125 -32.96875 C 47.765625 -32.550781 46.875 -32 46.03125 -31.3125 C 45.144531 -30.582031 44.285156 -29.75 43.453125 -28.8125 C 43.140625 -28.394531 42.800781 -27.953125 42.4375 -27.484375 C 42.070312 -27.015625 41.757812 -26.570312 41.5 -26.15625 L 41.5 1.953125 L 30.53125 1.953125 L 30.53125 -26 C 30.53125 -28.394531 30.007812 -30.296875 28.96875 -31.703125 C 28.03125 -32.910156 26.753906 -33.515625 25.140625 -33.515625 C 24.242188 -33.515625 23.351562 -33.332031 22.46875 -32.96875 C 22.050781 -32.8125 21.609375 -32.597656 21.140625 -32.328125 C 20.671875 -32.066406 20.226562 -31.753906 19.8125 -31.390625 C 19.65625 -31.285156 19.5 -31.164062 19.34375 -31.03125 C 19.1875 -30.90625 19.039062 -30.773438 18.90625 -30.640625 C 18.78125 -30.515625 18.640625 -30.382812 18.484375 -30.25 C 18.328125 -30.125 18.179688 -29.992188 18.046875 -29.859375 C 17.921875 -29.734375 17.789062 -29.59375 17.65625 -29.4375 C 17.519531 -29.28125 17.375 -29.125 17.21875 -28.96875 C 16.90625 -28.550781 16.566406 -28.117188 16.203125 -27.671875 C 15.835938 -27.234375 15.523438 -26.804688 15.265625 -26.390625 L 15.265625 1.953125 L 4.3125 1.953125 L 4.3125 -42.671875 L 15.03125 -42.671875 Z M 15.03125 -39.15625 "/></g></g></g><g fill="#6f7c82" fill-opacity="1"><g transform="translate(260.893545, 250.55846)"><g><path d="M 13.078125 -15.5 C 13.648438 -13.207031 14.640625 -11.351562 16.046875 -9.9375 C 17.878906 -8.164062 20.332031 -7.28125 23.40625 -7.28125 C 24.132812 -7.28125 24.835938 -7.304688 25.515625 -7.359375 C 26.203125 -7.410156 26.859375 -7.488281 27.484375 -7.59375 C 28.109375 -7.695312 28.707031 -7.828125 29.28125 -7.984375 C 29.851562 -8.140625 30.425781 -8.304688 31 -8.484375 C 31.570312 -8.671875 32.132812 -8.867188 32.6875 -9.078125 C 33.238281 -9.285156 33.800781 -9.519531 34.375 -9.78125 L 36.40625 -10.734375 L 37.03125 -8.53125 L 38.671875 -2.5 L 39.15625 -0.859375 L 37.65625 -0.15625 C 35.625 0.78125 33.351562 1.507812 30.84375 2.03125 C 29.59375 2.34375 28.273438 2.5625 26.890625 2.6875 C 25.503906 2.820312 24.054688 2.890625 22.546875 2.890625 C 19.359375 2.890625 16.460938 2.367188 13.859375 1.328125 C 11.242188 0.234375 9.023438 -1.328125 7.203125 -3.359375 C 5.378906 -5.347656 3.96875 -7.804688 2.96875 -10.734375 C 2.03125 -13.546875 1.5625 -16.753906 1.5625 -20.359375 C 1.5625 -23.597656 2.03125 -26.625 2.96875 -29.4375 C 3.5 -30.84375 4.101562 -32.171875 4.78125 -33.421875 C 5.457031 -34.679688 6.238281 -35.832031 7.125 -36.875 C 8.894531 -38.96875 11.035156 -40.613281 13.546875 -41.8125 C 16.046875 -43.007812 18.835938 -43.609375 21.921875 -43.609375 C 22.960938 -43.609375 23.96875 -43.539062 24.9375 -43.40625 C 25.90625 -43.28125 26.84375 -43.097656 27.75 -42.859375 C 28.664062 -42.628906 29.539062 -42.332031 30.375 -41.96875 C 31.632812 -41.394531 32.769531 -40.726562 33.78125 -39.96875 C 34.800781 -39.207031 35.726562 -38.332031 36.5625 -37.34375 C 38.175781 -35.414062 39.40625 -33.195312 40.25 -30.6875 C 40.613281 -29.4375 40.898438 -28.144531 41.109375 -26.8125 C 41.316406 -25.476562 41.421875 -24.132812 41.421875 -22.78125 C 41.421875 -22.414062 41.421875 -22.050781 41.421875 -21.6875 C 41.421875 -21.320312 41.40625 -20.941406 41.375 -20.546875 C 41.351562 -20.160156 41.34375 -19.785156 41.34375 -19.421875 C 41.34375 -19.054688 41.328125 -18.703125 41.296875 -18.359375 C 41.273438 -18.023438 41.238281 -17.671875 41.1875 -17.296875 L 41.03125 -15.5 Z M 21.765625 -33.59375 C 19.265625 -33.59375 17.226562 -32.753906 15.65625 -31.078125 C 15.03125 -30.398438 14.484375 -29.566406 14.015625 -28.578125 C 13.546875 -27.585938 13.179688 -26.441406 12.921875 -25.140625 L 30.921875 -25.140625 C 30.660156 -27.640625 29.878906 -29.59375 28.578125 -31 C 26.960938 -32.726562 24.691406 -33.59375 21.765625 -33.59375 Z M 21.765625 -33.59375 "/></g></g></g></svg>