<?xml version="1.0" encoding="iso-8859-1"?>
<!-- Generator: Adobe Illustrator 19.0.0, SVG Export Plug-In . SVG Version: 6.00 Build 0)  -->
<svg version="1.1" id="Layer_1" xmlns="http://www.w3.org/2000/svg" xmlns:xlink="http://www.w3.org/1999/xlink" x="0px" y="0px"
	 viewBox="0 0 511.998 511.998" style="enable-background:new 0 0 511.998 511.998;" xml:space="preserve">
<g>
	<g>
		<path d="M389.688,30.963h-72.885v14.771h72.885c5.591,0.001,10.14,4.549,10.14,10.141c0,1.626-0.374,3.178-1.112,4.612
			l13.135,6.755c1.797-3.494,2.747-7.425,2.747-11.367C414.599,42.138,403.424,30.963,389.688,30.963z"/>
	</g>
</g>
<g>
	<g>
		<rect x="277.145" y="30.964" width="18.351" height="14.771"/>
	</g>
</g>
<g>
	<g>
		<rect x="91.695" y="163.135" width="260.956" height="14.771"/>
	</g>
</g>
<g>
	<g>
		<rect x="91.695" y="432.382" width="260.956" height="14.771"/>
	</g>
</g>
<g>
	<g>
		<polygon points="439.419,167.922 428.974,178.366 438.158,187.551 407.829,217.88 418.273,228.325 459.047,187.551 		"/>
	</g>
</g>
<g>
	<g>
		
			<rect x="391.939" y="229.886" transform="matrix(0.7071 -0.7071 0.7071 0.7071 -50.9428 351.556)" width="13.914" height="14.77"/>
	</g>
</g>
<g>
	<g>
		<path d="M500.074,124.633l-5.464-5.464c-15.873-15.874-41.704-15.874-57.578,0l-5.341,5.341l-10.445,10.444l-27.072,27.072
			v-56.217c25.554-2.279,45.658-23.797,45.658-49.934c0-27.65-22.496-50.146-50.145-50.146H50.145C22.496,5.729,0,28.224,0,55.874
			v399.255h42.76v51.141h351.416v-218.16l90.113-90.113l7.892-7.893l2.551-2.551l5.341-5.341c7.69-7.69,11.925-17.913,11.925-28.788
			S507.765,132.322,500.074,124.633z M85.65,20.5h304.038c19.506,0,35.374,15.869,35.374,35.375s-15.869,35.374-35.374,35.374H85.65
			c9.042-9.075,14.641-21.583,14.641-35.374C100.291,42.082,94.693,29.575,85.65,20.5z M42.76,91.248L42.76,91.248v349.11H14.771
			V55.874c0-19.506,15.87-35.375,35.375-35.375c19.505,0,35.374,15.87,35.374,35.375c0,19.506-15.87,35.374-35.374,35.374H42.76z
			 M379.406,491.499L379.406,491.499H57.53V106.02h321.875v70.776l-32.022,32.021H91.692v14.771h240.922l-30.915,30.915H91.692
			v14.771h195.237l-30.914,30.914H91.692v14.771h149.553l-2.577,2.577l-8.401,28.338H91.692v14.771h134.197l-9.165,30.915H91.692
			v14.771h260.953v-14.771h-87.977l37.042-10.98l19.933-19.933h31.001v-14.771h-16.23l42.992-42.992V491.499z M248.768,335.428
			l35.047,35.047l-49.813,14.767L248.768,335.428z M297.812,363.584l-42.153-42.153l176.032-176.032l42.153,42.153L297.812,363.584z
			 M489.631,171.766l-5.341,5.341l-42.153-42.153l5.341-5.341c10.115-10.115,26.573-10.115,36.689,0l5.464,5.464
			c4.9,4.9,7.599,11.415,7.599,18.344C497.229,160.351,494.53,166.866,489.631,171.766z"/>
	</g>
</g>
<g>
</g>
<g>
</g>
<g>
</g>
<g>
</g>
<g>
</g>
<g>
</g>
<g>
</g>
<g>
</g>
<g>
</g>
<g>
</g>
<g>
</g>
<g>
</g>
<g>
</g>
<g>
</g>
<g>
</g>
</svg>
