<?xml version="1.0" encoding="UTF-8"?> <svg xmlns="http://www.w3.org/2000/svg" xmlns:xlink="http://www.w3.org/1999/xlink" viewBox="0 0 294.14 99.11"><defs><style>.cls-1{fill:#fff;}</style><symbol id="A" data-name="A" viewBox="0 0 100.01 33.7"><path class="cls-1" d="M12.58,25.24A12.58,12.58,0,1,1,25.16,12.66,12.58,12.58,0,0,1,12.58,25.24Zm0-18.87a6.3,6.3,0,0,0,0,12.6h0a6.28,6.28,0,0,0,6.3-6.26v0a6.28,6.28,0,0,0-6.26-6.3ZM34.65,8.46a1.09,1.09,0,0,0,1.89.76L44.91.48A.82.82,0,0,1,45.35.2a2,2,0,0,1,.52,0h5.7a1.09,1.09,0,0,1,.84,1.76L43,11.54l-.48.52c-1.09,1.28-1,1.76.28,3.08l7.49,8.3a1.1,1.1,0,0,1-.88,1.76H44.27a1.65,1.65,0,0,1-.48,0,.81.81,0,0,1-.48-.28l-6.69-7.21a1.11,1.11,0,0,0-1.92.76V32.69a1,1,0,0,1-1.08,1H29.41a1,1,0,0,1-1.08-.92V1.13c0-.72.6-.92,1.08-.92h4.21a1,1,0,0,1,1.08,1v.32ZM69,1.28l-.44,4.21a1,1,0,0,1-1.16.88l-1-.08a6.25,6.25,0,0,0-6.25,5.93v5.5a1.15,1.15,0,0,0,1.16,1.2h5.6a1,1,0,0,1,1,1v4c0,.76-.48,1.2-.92,1.2H61.34a1.16,1.16,0,0,0-1.2,1.12v6.37a1,1,0,0,1-1.08,1H54.89a1,1,0,0,1-1-1V12.22A12.56,12.56,0,0,1,66.43,0a11.87,11.87,0,0,1,1.68.12A1.06,1.06,0,0,1,69,1.28ZM99.24,6.57c-3.57,0-4.09,1.28-4.09,6v11.5a1.06,1.06,0,0,1-1.08,1.08H89.86a1.07,1.07,0,0,1-1.08-1.08V23.6A12.58,12.58,0,1,1,82.52.08h.06a12.5,12.5,0,0,1,8.17,3,6.77,6.77,0,0,1,6-3C97.32.08,100,0,100,1.25V5.73c0,.4-.36.84-.76.84Zm-16.67-.2a6.3,6.3,0,1,0,6.3,6.3A6.29,6.29,0,0,0,82.57,6.37Z"></path></symbol></defs><title>logo-okta-white</title><g id="Layer_2" data-name="Layer 2"><g id="Layer_1-2" data-name="Layer 1"><use width="100.01" height="33.7" transform="matrix(2.94, 0, 0, -2.94, 0, 99.11)" xlink:href="#A"></use></g></g></svg> 