<?xml version="1.0" encoding="iso-8859-1"?>
<!-- Generator: Adobe Illustrator 19.0.0, SVG Export Plug-In . SVG Version: 6.00 Build 0)  -->
<svg version="1.1" id="Capa_1" xmlns="http://www.w3.org/2000/svg" xmlns:xlink="http://www.w3.org/1999/xlink" x="0px" y="0px"
	 viewBox="0 0 512 512" style="enable-background:new 0 0 512 512;" xml:space="preserve">
<g>
	<g>
		<g>
			<path d="M464,0H48C21.49,0,0,21.49,0,48v416c0,26.51,21.49,48,48,48h416c26.51,0,48-21.49,48-48V48C512,21.49,490.51,0,464,0z
				 M480,464c0,8.837-7.163,16-16,16H48c-8.837,0-16-7.163-16-16V48c0-8.837,7.163-16,16-16h416c8.837,0,16,7.163,16,16V464z"/>
			<path d="M384,176c26.51,0,48-21.49,48-48s-21.49-48-48-48c-26.51,0-48,21.49-48,48S357.49,176,384,176z M384,112
				c8.837,0,16,7.163,16,16s-7.163,16-16,16s-16-7.163-16-16S375.163,112,384,112z"/>
			<path d="M384,336c-20.292,0.057-38.356,12.868-45.12,32h-37.76c-9.165-24.875-36.76-37.61-61.635-28.445
				c-13.189,4.86-23.585,15.256-28.445,28.445h-37.92c-4.838-13.589-15.531-24.282-29.12-29.12v-37.76
				c13.589-4.838,24.282-15.531,29.12-29.12h37.92c8.687,25.046,36.033,38.307,61.079,29.62
				c25.046-8.687,38.307-36.033,29.62-61.079c-4.831-13.93-15.797-24.866-29.739-29.661v-37.76
				c25.034-8.722,38.257-36.086,29.536-61.12s-36.086-38.257-61.12-29.536C226.578,87.285,215.701,98.163,210.88,112h-37.76
				c-8.837-24.994-36.261-38.091-61.255-29.255C86.872,91.582,73.774,119.006,82.61,144s36.261,38.091,61.255,29.255
				c13.669-4.833,24.422-15.585,29.255-29.255h37.92c4.804,13.555,15.432,24.242,28.96,29.12v37.92
				c-13.555,4.804-24.242,15.432-29.12,28.96h-37.76c-8.722-25.034-36.086-38.257-61.12-29.536s-38.257,36.086-29.536,61.12
				c4.821,13.837,15.698,24.715,29.536,29.536v37.92c-25.046,8.687-38.307,36.033-29.62,61.079
				c8.687,25.046,36.033,38.307,61.079,29.62c13.93-4.832,24.866-15.797,29.661-29.739h37.92
				c9.165,24.875,36.76,37.61,61.635,28.445c13.189-4.86,23.585-15.256,28.445-28.445h37.92
				c8.837,24.993,36.262,38.091,61.255,29.254c24.993-8.837,38.091-36.262,29.254-61.255C422.732,348.718,404.449,335.875,384,336z
				 M128,144c-8.837,0-16-7.163-16-16s7.163-16,16-16s16,7.163,16,16S136.837,144,128,144z M256,112c8.837,0,16,7.163,16,16
				s-7.163,16-16,16s-16-7.163-16-16S247.163,112,256,112z M256,240c8.837,0,16,7.163,16,16s-7.163,16-16,16s-16-7.163-16-16
				S247.163,240,256,240z M128,240c8.837,0,16,7.163,16,16s-7.163,16-16,16s-16-7.163-16-16S119.163,240,128,240z M128,400
				c-8.837,0-16-7.163-16-16s7.163-16,16-16s16,7.163,16,16S136.837,400,128,400z M256,400c-8.837,0-16-7.163-16-16s7.163-16,16-16
				s16,7.163,16,16S264.837,400,256,400z M384,400c-8.837,0-16-7.163-16-16s7.163-16,16-16s16,7.163,16,16S392.837,400,384,400z"/>
			<path d="M384,304c26.51,0,48-21.49,48-48c0-26.51-21.49-48-48-48c-26.51,0-48,21.49-48,48C336,282.51,357.49,304,384,304z
				 M384,240c8.837,0,16,7.163,16,16s-7.163,16-16,16s-16-7.163-16-16S375.163,240,384,240z"/>
		</g>
	</g>
</g>
<g>
</g>
<g>
</g>
<g>
</g>
<g>
</g>
<g>
</g>
<g>
</g>
<g>
</g>
<g>
</g>
<g>
</g>
<g>
</g>
<g>
</g>
<g>
</g>
<g>
</g>
<g>
</g>
<g>
</g>
</svg>
