<svg height="512" viewBox="0 0 128 128" width="512" xmlns="http://www.w3.org/2000/svg"><g><path d="m95.386 51.289-16.265-6.3a16.03 16.03 0 1 0 -30.242 0l-16.265 6.3a1.75 1.75 0 0 0 -1.114 1.631v37.728a1.75 1.75 0 0 0 1.117 1.632l30.75 11.92a1.757 1.757 0 0 0 .633.118 1.733 1.733 0 0 0 .624-.13l.009.012 30.753-11.92a1.75 1.75 0 0 0 1.114-1.632v-37.728a1.75 1.75 0 0 0 -1.114-1.631zm-5.475 1.631-5.677 2.2-9.408-3.62a16.115 16.115 0 0 0 2.774-3.35zm-18.527 1.006 8 3.077-4.517 1.75-8.286-3.237a15.922 15.922 0 0 0 4.803-1.59zm5.445 7.819 5.877-2.278v7.291l-.983-.641a1.751 1.751 0 0 0 -2.229.266l-2.665 2.828zm-12.829-34.563a12.53 12.53 0 1 1 -12.53 12.53 12.544 12.544 0 0 1 12.53-12.53zm-12.6 22.4-2.342-.915 1.341-.52a16.064 16.064 0 0 0 1.001 1.438zm-7.169.956 25.804 10.087-6.035 2.339-25.911-10.044zm-9.231 38.911v-33.973l27.25 10.564v33.973zm30.75 10.564v-33.973l7.579-2.94v10.521a1.75 1.75 0 0 0 1.105 1.626 1.731 1.731 0 0 0 .645.124 1.749 1.749 0 0 0 1.274-.55l4.685-4.973 2.463 1.6a1.75 1.75 0 0 0 2.7-1.466v-11.872l6.799-2.634v33.973z"/><path d="m60.883 44.862a1.75 1.75 0 0 0 2.3-.034l8.487-7.628a1.75 1.75 0 1 0 -2.34-2.6l-7.352 6.609-3.348-2.83a1.75 1.75 0 0 0 -2.26 2.673z"/></g></svg>