<?xml version="1.0"?>
<svg xmlns="http://www.w3.org/2000/svg" viewBox="0 0 64 64" width="512" height="512"><g id="Saleman-Insurance"><path d="M25,23H23a2,2,0,0,1-4,0H17a4,4,0,0,0,8,0Z"/><path d="M34.86,33.83,26,31.25v-1.6A10,10,0,0,0,31,21V19a1,1,0,0,0,1-1V13a11,11,0,0,0-22,0v5a1,1,0,0,0,1,1v2a10,10,0,0,0,5,8.647v1.6L7.154,33.826A7.031,7.031,0,0,0,2,40.58V57a5.006,5.006,0,0,0,5,5H39a1,1,0,0,0,1-1V40.58A7.026,7.026,0,0,0,34.86,33.83ZM28,33.915v3.256a3.1,3.1,0,0,0-2,0V33.333ZM12,13a9,9,0,0,1,18,0v4H29a3.017,3.017,0,0,1-2.4-1.2l-1.8-2.4a1,1,0,0,0-.729-.4L24,13a1,1,0,0,0-.707.293L21.636,14.95A6.954,6.954,0,0,1,16.687,17H12Zm1,8V19h3.687a8.939,8.939,0,0,0,6.363-2.636l.842-.842L25,17a5.025,5.025,0,0,0,4,2v2a8,8,0,0,1-16,0Zm8,10a9.954,9.954,0,0,0,3-.461V36.5l-3,2.25L18,36.5V30.539A9.954,9.954,0,0,0,21,31Zm-7,2.915,2-.582v3.838a3.1,3.1,0,0,0-2,0ZM27,58v2h-.556A3.959,3.959,0,0,0,27,58a4,4,0,0,0-4-4H15V47H27Zm-6,2V56h2a2,2,0,0,1,0,4Zm17,0H33V43H31V60H29V46a1,1,0,0,0-1-1H14a1,1,0,0,0-1,1v8H12a1,1,0,0,1-1-1V43H9V53a3,3,0,0,0,3,3h7v4H7a3,3,0,0,1-3-3V40.58a5.03,5.03,0,0,1,3.7-4.83L12,34.5V40a1,1,0,0,0,2,0,1,1,0,0,1,2,0,1,1,0,0,0,2,0V39l2.4,1.8a1,1,0,0,0,1.2,0L24,39v1a1,1,0,0,0,2,0,1,1,0,0,1,2,0,1,1,0,0,0,2,0V34.5l4.314,1.257A5.026,5.026,0,0,1,38,40.58Z"/><path d="M48.555,24.832l4.218-2.812A4.992,4.992,0,0,0,55,17.859V10a1,1,0,0,0-1-1H42a1,1,0,0,0-1,1v7.859a4.992,4.992,0,0,0,2.227,4.161l4.218,2.812a1,1,0,0,0,1.11,0Zm-4.219-4.477A2.993,2.993,0,0,1,43,17.859V11H53v6.859a2.993,2.993,0,0,1-1.336,2.5L48,22.8Z"/><path d="M50.293,13.293,47,16.586l-1.293-1.293-1.414,1.414,2,2a1,1,0,0,0,1.414,0l4-4Z"/><path d="M62,16a14,14,0,1,0-26.253,6.747l-1.708,5.978a1,1,0,0,0,1.236,1.236l5.978-1.708A13.98,13.98,0,0,0,62,16ZM41.384,26.176a.992.992,0,0,0-.275.038l-4.653,1.33,1.33-4.653a1,1,0,0,0-.1-.785,12.034,12.034,0,1,1,4.21,4.21A.994.994,0,0,0,41.384,26.176Z"/><path d="M48,32v2a18.429,18.429,0,0,0,2.116-.123l-.232-1.986A16.423,16.423,0,0,1,48,32Z"/><path d="M51.766,31.555l.468,1.944a18.118,18.118,0,0,0,9.532-5.9l-1.529-1.289A16.109,16.109,0,0,1,51.766,31.555Z"/><path d="M38.589,3.059,37.411,1.443a18.167,18.167,0,0,0-5.3,6.086l1.764.942A16.177,16.177,0,0,1,38.589,3.059Z"/></g></svg>
