<?xml version="1.0" encoding="iso-8859-1"?>
<!-- Generator: Adobe Illustrator 19.0.0, SVG Export Plug-In . SVG Version: 6.00 Build 0)  -->
<svg version="1.1" id="Capa_1" xmlns="http://www.w3.org/2000/svg" xmlns:xlink="http://www.w3.org/1999/xlink" x="0px" y="0px"
	 viewBox="0 0 480 480" style="enable-background:new 0 0 480 480;" xml:space="preserve">
<circle style="fill:#E4D9B3;" cx="240" cy="168" r="104"/>
<g>
	<path style="fill:#D45B5B;" d="M137.304,151.928c0.04-0.28,0.064-0.568,0.112-0.84c0,0.008,0,0.008,0,0.016
		C137.368,151.376,137.344,151.656,137.304,151.928z"/>
	<path style="fill:#D45B5B;" d="M136,168c0-2.904,0.136-5.776,0.376-8.624c0,0.016,0,0.032-0.008,0.04
		C136.136,162.248,136,165.112,136,168z"/>
	<path style="fill:#D45B5B;" d="M136.888,155.104c0.128-1.064,0.248-2.128,0.416-3.176c0.04-0.272,0.064-0.552,0.104-0.824
		C137.192,152.424,137.056,153.768,136.888,155.104z"/>
	<path style="fill:#D45B5B;" d="M140.304,138.712c3.768-12.744,9.84-24.504,17.832-34.712h-0.008
		c-7.784,9.912-13.744,21.288-17.52,33.624C140.504,137.984,140.408,138.352,140.304,138.712z"/>
</g>
<path style="fill:#B3D5E4;" d="M440,104h-96v32v32v-32h96v208H40V136h101.072c-0.176,0.536-0.296,1.088-0.456,1.624
	c3.776-12.344,9.736-23.712,17.52-33.624H40c-17.672,0-32,14.328-32,32v224c0,17.672,14.328,32,32,32h144h112h144
	c17.672,0,32-14.328,32-32V136C472,118.328,457.672,104,440,104z"/>
<g>
	<polygon style="fill:#D45B5B;" points="344,104 344,104 344,168 344,136 	"/>
	<path style="fill:#D45B5B;" d="M139.08,143.056c-0.224,0.904-0.4,1.832-0.6,2.752C138.672,144.888,138.856,143.968,139.08,143.056z
		"/>
	<path style="fill:#D45B5B;" d="M136,168c0-2.888,0.136-5.752,0.368-8.576C136.128,162.248,136,165.112,136,168z"/>
	<path style="fill:#D45B5B;" d="M136.824,155.616c0.144-1.232,0.288-2.464,0.48-3.688c-0.16,1.048-0.28,2.112-0.416,3.176
		C136.864,155.272,136.848,155.448,136.824,155.616z"/>
	<path style="fill:#D45B5B;" d="M138.472,145.808c-0.064,0.28-0.112,0.56-0.168,0.832c0.256-1.232,0.496-2.464,0.8-3.68
		c-0.008,0.032-0.016,0.064-0.024,0.096C138.856,143.968,138.672,144.888,138.472,145.808z"/>
	<path style="fill:#D45B5B;" d="M136.368,159.424c0-0.016,0-0.032,0.008-0.04c0.008-0.128,0.008-0.256,0.016-0.384
		C136.376,159.136,136.376,159.28,136.368,159.424z"/>
	<path style="fill:#D45B5B;" d="M140.304,138.712c-0.416,1.408-0.84,2.808-1.2,4.248
		C139.464,141.528,139.888,140.12,140.304,138.712z"/>
	<path style="fill:#D45B5B;" d="M136.376,159.376c0.104-1.264,0.304-2.504,0.456-3.76c-0.136,1.128-0.336,2.24-0.44,3.376
		C136.376,159.12,136.384,159.248,136.376,159.376z"/>
	<path style="fill:#D45B5B;" d="M137.416,151.088c0.248-1.504,0.584-2.968,0.896-4.448c-0.256,1.208-0.576,2.4-0.784,3.624
		C137.472,150.536,137.456,150.816,137.416,151.088z"/>
	<path style="fill:#D45B5B;" d="M137.408,151.104c0-0.008,0-0.008,0-0.016c0.048-0.272,0.064-0.552,0.104-0.824
		C137.472,150.536,137.456,150.824,137.408,151.104z"/>
	<path style="fill:#D45B5B;" d="M137.52,150.264c0.216-1.224,0.528-2.416,0.784-3.624c0.056-0.28,0.104-0.56,0.168-0.832
		C138.152,147.288,137.784,148.752,137.52,150.264z"/>
	<path style="fill:#D45B5B;" d="M136.392,158.992c0.112-1.312,0.336-2.592,0.496-3.888c0.168-1.336,0.304-2.68,0.52-4
		c0.048-0.28,0.064-0.568,0.112-0.84c0.256-1.504,0.632-2.976,0.952-4.456c0.2-0.92,0.376-1.84,0.6-2.752
		c0.456-1.832,0.984-3.632,1.528-5.432c0.168-0.536,0.288-1.096,0.456-1.624H40v208h400V136h-96v32c0,57.44-46.56,104-104,104
		s-104-46.56-104-104c0-2.888,0.128-5.752,0.368-8.576C136.376,159.28,136.376,159.136,136.392,158.992z M368,224l40,40l-40,40
		l40-40L368,224z M112,304l-40-40l40-40l-40,40L112,304z"/>
	<path style="fill:#D45B5B;" d="M139.08,143.056c0.008-0.032,0.016-0.064,0.024-0.096c0.36-1.432,0.784-2.832,1.2-4.248
		c0.104-0.36,0.2-0.728,0.304-1.088C140.064,139.424,139.528,141.224,139.08,143.056z"/>
	<path style="fill:#D45B5B;" d="M136.392,158.992c0.096-1.144,0.304-2.248,0.44-3.376c0.024-0.168,0.04-0.344,0.064-0.512
		C136.728,156.4,136.504,157.68,136.392,158.992z"/>
</g>
<g>
	<path style="fill:#B3D5E4;" d="M8,440c0,26.512,21.488,32,48,32h368c26.512,0,48-5.488,48-32H320H160H8z"/>
	<polygon style="fill:#B3D5E4;" points="160,440 320,440 296,392 184,392 	"/>
</g>
<path style="fill:#D45B5B;" d="M200.4,105.776L177.776,128.4l12.96,12.96c-1.816,3.352-3.272,6.92-4.384,10.64H168v32h18.352
	c1.112,3.72,2.568,7.288,4.384,10.64l-12.96,12.96l22.624,22.624l12.96-12.96c3.352,1.816,6.92,3.272,10.64,4.384V240h32v-18.352
	c3.72-1.112,7.288-2.568,10.64-4.384l12.96,12.96l22.624-22.624l-12.96-12.96c1.816-3.352,3.272-6.92,4.384-10.64H312v-32h-18.352
	c-1.112-3.72-2.568-7.288-4.384-10.64l12.96-12.96L279.6,105.776l-12.96,12.96c-3.352-1.816-6.92-3.272-10.64-4.384V96h-32v18.352
	c-3.72,1.104-7.288,2.568-10.64,4.384L200.4,105.776z M240,136c17.672,0,32,14.328,32,32s-14.328,32-32,32s-32-14.328-32-32
	S222.328,136,240,136z"/>
<g>
	<path style="fill:#23374E;" d="M440,96h-88V0h-16v103.984V104v6.544c-4.48-7.432-9.76-14.456-16-20.816V0h-16v93.064
		c0,2.176,0.888,4.264,2.456,5.768C325.504,117.136,336,141.704,336,168c0,52.936-43.064,96-96,96s-96-43.064-96-96
		c0-2.616,0.128-5.208,0.328-7.776c0.128-1.584,0.352-3.168,0.56-4.744c0.12-0.904,0.2-1.808,0.344-2.704
		c0.344-2.112,0.768-4.216,1.256-6.312c0.024-0.12,0.048-0.232,0.072-0.352c0.04-0.176,0.072-0.36,0.12-0.536
		c0.496-2.064,1.088-4.104,1.728-6.136c3.416-10.912,8.752-21.216,16.024-30.504c0.2-0.256,0.312-0.56,0.48-0.832
		c13.008-16.28,31.344-28.312,52.928-33.416c3.608-0.856,6.16-4.08,6.16-7.784V48h-16v12.752
		c-21.584,6.392-40.04,18.88-53.808,35.248H40c-22.056,0-40,17.944-40,40v224c0,22.056,17.944,40,40,40h131.056l-16,32H8
		c-4.416,0-8,3.584-8,8c0,40,42.152,40,56,40h368c13.848,0,56,0,56-40c0-4.416-3.584-8-8-8H324.944l-16-32H440
		c22.056,0,40-17.944,40-40V136C480,113.944,462.056,96,440,96z M240,280c61.76,0,112-50.24,112-112v-24h80v192H48V144h82.624
		c0,0.016-0.008,0.032-0.008,0.04c-0.288,1.312-0.552,2.64-0.792,3.968c-0.184,1.048-0.36,2.096-0.52,3.152
		c-0.208,1.392-0.392,2.792-0.552,4.192c-0.056,0.488-0.096,0.984-0.144,1.472c0,0.008,0,0.016,0,0.016
		c-0.088,0.888-0.192,1.768-0.264,2.664C128.136,162.32,128,165.152,128,168C128,229.76,178.24,280,240,280z M424,464H56
		c-26.584,0-36.24-6.152-39.032-16H160h160h143.032C460.24,457.848,450.584,464,424,464z M307.056,432H172.944l16-32h102.112
		L307.056,432z M464,360c0,13.232-10.768,24-24,24H296H184H40c-13.232,0-24-10.768-24-24V136c0-13.232,10.768-24,24-24h103.008
		c-2.944,5.104-5.48,10.448-7.6,16H40c-4.416,0-8,3.584-8,8v208c0,4.416,3.584,8,8,8h400c4.416,0,8-3.584,8-8V136
		c0-4.416-3.584-8-8-8h-88v-16h88c13.232,0,24,10.768,24,24V360z"/>
	<path style="fill:#23374E;" d="M200,168c0,22.056,17.944,40,40,40s40-17.944,40-40s-17.944-40-40-40S200,145.944,200,168z M240,144
		c13.232,0,24,10.768,24,24s-10.768,24-24,24s-24-10.768-24-24S226.768,144,240,144z"/>
	<path style="fill:#23374E;" d="M240,64.408c0,4.184,3.224,7.664,7.392,7.976c10.368,0.792,20.304,3.144,29.528,7
		C277.912,79.792,278.96,80,280,80c1.552,0,3.104-0.456,4.44-1.344C286.664,77.168,288,74.672,288,72V0h-16v60.68
		c-5.2-1.528-10.544-2.68-16-3.456V40h-16V64.408z"/>
	<rect x="240" style="fill:#23374E;" width="16" height="24"/>
	<rect x="208" y="16" style="fill:#23374E;" width="16" height="16"/>
	<path style="fill:#23374E;" d="M216,96v12.672c-0.328,0.136-0.656,0.264-0.984,0.4l-8.96-8.96
		c-1.504-1.504-3.536-2.344-5.656-2.344s-4.16,0.84-5.656,2.344l-22.632,22.632c-1.504,1.504-2.344,3.536-2.344,5.656
		s0.84,4.16,2.344,5.656l8.96,8.96c-0.136,0.328-0.272,0.656-0.4,0.984H168c-4.416,0-8,3.584-8,8v32c0,4.416,3.584,8,8,8h12.672
		c0.136,0.328,0.264,0.656,0.4,0.984l-8.96,8.96c-1.504,1.504-2.344,3.536-2.344,5.656s0.84,4.16,2.344,5.656l22.632,22.632
		c3,3,8.312,3,11.312,0l8.96-8.96c0.328,0.136,0.656,0.272,0.984,0.4V240c0,4.416,3.584,8,8,8h32c4.416,0,8-3.584,8-8v-12.672
		c0.328-0.136,0.656-0.264,0.984-0.4l8.96,8.96c1.504,1.504,3.536,2.344,5.656,2.344s4.16-0.84,5.656-2.344l22.632-22.632
		c1.504-1.504,2.344-3.536,2.344-5.656s-0.84-4.16-2.344-5.656l-8.96-8.96c0.136-0.328,0.272-0.656,0.4-0.984H312
		c4.416,0,8-3.584,8-8v-32c0-4.416-3.584-8-8-8h-12.672c-0.136-0.328-0.264-0.656-0.4-0.984l8.96-8.96
		c1.504-1.504,2.344-3.536,2.344-5.656s-0.84-4.16-2.344-5.656l-22.632-22.632c-3-3-8.312-3-11.312,0l-8.96,8.96
		c-0.328-0.136-0.656-0.272-0.984-0.4V96c0-4.416-3.584-8-8-8h-32C219.584,88,216,91.584,216,96z M232,114.352V104h16v10.352
		c0,3.536,2.328,6.664,5.72,7.664c3.224,0.96,6.288,2.216,9.112,3.752c3.112,1.68,6.968,1.12,9.472-1.376l7.304-7.304L290.92,128.4
		l-7.304,7.304c-2.504,2.504-3.064,6.352-1.376,9.472c1.528,2.824,2.792,5.888,3.752,9.112c1,3.384,4.12,5.712,7.656,5.712H304v16
		h-10.352c-3.536,0-6.664,2.328-7.664,5.72c-0.96,3.224-2.216,6.288-3.752,9.112c-1.688,3.112-1.128,6.968,1.376,9.472l7.304,7.304
		L279.6,218.92l-7.304-7.304c-2.504-2.504-6.352-3.064-9.472-1.376c-2.824,1.528-5.888,2.792-9.112,3.752
		c-3.384,1-5.712,4.12-5.712,7.656V232h-16v-10.352c0-3.536-2.328-6.664-5.72-7.664c-3.224-0.96-6.288-2.216-9.112-3.752
		c-3.12-1.688-6.968-1.12-9.472,1.376l-7.304,7.304L189.08,207.6l7.304-7.304c2.504-2.504,3.064-6.352,1.376-9.472
		c-1.528-2.824-2.792-5.888-3.752-9.112c-1-3.384-4.12-5.712-7.656-5.712H176v-16h10.352c3.536,0,6.664-2.328,7.664-5.72
		c0.96-3.224,2.216-6.288,3.752-9.112c1.688-3.112,1.128-6.968-1.376-9.472l-7.304-7.304L200.4,117.08l7.304,7.304
		c2.504,2.496,6.352,3.064,9.472,1.376c2.824-1.528,5.888-2.792,9.112-3.752C229.672,121.008,232,117.888,232,114.352z"/>
	<path style="fill:#23374E;" d="M106.344,218.344l-40,40c-3.128,3.128-3.128,8.184,0,11.312l40,40l11.312-11.312L83.312,264
		l34.344-34.344L106.344,218.344z"/>
	<path style="fill:#23374E;" d="M373.656,309.656l40-40c3.128-3.128,3.128-8.184,0-11.312l-40-40l-11.312,11.312L396.688,264
		l-34.344,34.344L373.656,309.656z"/>
</g>
<g>
</g>
<g>
</g>
<g>
</g>
<g>
</g>
<g>
</g>
<g>
</g>
<g>
</g>
<g>
</g>
<g>
</g>
<g>
</g>
<g>
</g>
<g>
</g>
<g>
</g>
<g>
</g>
<g>
</g>
</svg>
