<?xml version="1.0" encoding="iso-8859-1"?>
<!-- Generator: Adobe Illustrator 19.0.0, SVG Export Plug-In . SVG Version: 6.00 Build 0)  -->
<svg version="1.1" id="Capa_1" xmlns="http://www.w3.org/2000/svg" xmlns:xlink="http://www.w3.org/1999/xlink" x="0px" y="0px"
	 viewBox="0 0 468.368 468.368" style="enable-background:new 0 0 468.368 468.368;" xml:space="preserve">
<rect x="297.92" y="281.868" transform="matrix(-0.7071 0.7071 -0.7071 -0.7071 773.6017 320.4687)" style="fill:#1C75A1;" width="45.019" height="77.169"/>
<circle style="fill:#27A2DB;" cx="178.276" cy="178.276" r="178.276"/>
<circle style="fill:#EBF0F3;" cx="178.276" cy="178.276" r="145.046"/>
<g>
	<path style="fill:#2F4859;" d="M353.85,317.346l-36.504,36.504c-8.188,8.188-8.188,21.463,0,29.651l78.725,78.725
		c8.188,8.188,21.463,8.188,29.651,0l36.504-36.504c8.188-8.188,8.188-21.463,0-29.651l-78.725-78.725
		C375.313,309.158,362.038,309.158,353.85,317.346z"/>
	<rect x="83.231" y="189.428" style="fill:#2F4859;" width="39.299" height="67.078"/>
</g>
<rect x="148.973" y="137.759" style="fill:#44C4A1;" width="39.299" height="118.759"/>
<rect x="214.709" y="86.091" style="fill:#E56353;" width="39.299" height="170.396"/>
<g>
</g>
<g>
</g>
<g>
</g>
<g>
</g>
<g>
</g>
<g>
</g>
<g>
</g>
<g>
</g>
<g>
</g>
<g>
</g>
<g>
</g>
<g>
</g>
<g>
</g>
<g>
</g>
<g>
</g>
</svg>
