<svg xmlns="http://www.w3.org/2000/svg" width="204.221" height="34" viewBox="0 0 204.221 34">
  <g id="Group_12330" data-name="Group 12330" transform="translate(-104.531 -503.156)">
    <path id="Path_42893" data-name="Path 42893" d="M474.943,531.177l-2.153,2.69-9.172-11.455h4.311Z" transform="translate(-182.722 -9.798)" fill="#9CA3AF"/>
    <path id="Path_42894" data-name="Path 42894" d="M474.943,550.249l-7.015,8.765h-4.311l9.172-11.455Z" transform="translate(-182.722 -22.594)" fill="#9CA3AF"/>
    <path id="Path_42895" data-name="Path 42895" d="M508.6,559.009h-4.311l-7.015-8.765,2.153-2.695Z" transform="translate(-199.849 -22.59)" fill="#9CA3AF"/>
    <path id="Path_42896" data-name="Path 42896" d="M491.9,543.855l-2.153,2.695-2.153-2.69v0l2.153-2.686Z" transform="translate(-194.924 -19.343)" fill="#9CA3AF"/>
    <path id="Path_42897" data-name="Path 42897" d="M447.823,505.842l-2.153,2.695-2.153-2.69v0l2.153-2.686Z" transform="translate(-172.493 0)" fill="#9CA3AF"/>
    <path id="Path_42898" data-name="Path 42898" d="M508.6,522.412l-9.172,11.451-2.153-2.686,7.015-8.765Z" transform="translate(-199.849 -9.798)" fill="#9CA3AF"/>
    <path id="Path_42899" data-name="Path 42899" d="M104.531,544.258l1.7-2.515a15.252,15.252,0,0,0,8.27,2.345c4.263,0,6.223-.81,6.223-4.135,0-2.643-1.7-3.155-6.223-4.049-5.456-1.066-8.867-2-8.867-7.076,0-4.05,2.387-6.436,8.867-6.436a16.91,16.91,0,0,1,8.61,2.046l-1.534,2.643a14.628,14.628,0,0,0-7.033-1.705c-4.434,0-5.712,1.321-5.712,3.453,0,2.6,1.7,3.24,5.84,4.05,5.712,1.151,9.165,1.918,9.165,6.948,0,5.371-2.984,7.076-9.506,7.076A17.573,17.573,0,0,1,104.531,544.258Z" transform="translate(0 -9.787)" fill="#9CA3AF"/>
    <path id="Path_42900" data-name="Path 42900" d="M151.221,534.667c0-6.821,2.046-12.277,11.168-12.277,9.463,0,9.762,6.522,9.677,13.385H154.333c.17,4.945,1.62,8.355,8.184,8.355a11.236,11.236,0,0,0,7.588-2.387L171.853,544a14.115,14.115,0,0,1-9.335,2.942C153.054,546.943,151.221,541.529,151.221,534.667Zm3.155-1.833H169c-.213-4.178-.512-7.545-6.692-7.545C156.379,525.289,154.716,528.315,154.376,532.834Z" transform="translate(-23.758 -9.787)" fill="#9CA3AF"/>
    <path id="Path_42901" data-name="Path 42901" d="M202.078,534.667c0-7.46,2.472-12.277,11.339-12.277,4.22,0,6.777,1.534,8.483,3.367l-2.345,2.216a8.185,8.185,0,0,0-6.138-2.472c-6.181,0-8.1,3.368-8.1,9.25,0,5.8,1.833,9.25,8.1,9.25a8.68,8.68,0,0,0,6.309-2.472l2.174,2.046a11.455,11.455,0,0,1-8.568,3.325C204.55,546.9,202.078,542.126,202.078,534.667Z" transform="translate(-49.637 -9.787)" fill="#9CA3AF"/>
    <path id="Path_42902" data-name="Path 42902" d="M252.415,537.372V523.518h3.2v13.939c0,3.879,0,7.076,6.863,7.076,6.82,0,6.735-3.2,6.735-7.247V523.518h3.155v13.726c0,6.394-.81,10.231-9.889,10.231C253.353,547.475,252.415,543.638,252.415,537.372Z" transform="translate(-75.251 -10.361)" fill="#9CA3AF"/>
    <path id="Path_42903" data-name="Path 42903" d="M305.962,523.379l2.558-.17.341,3.154c.9-1.832,3.794-3.41,8.142-3.453v3.24c-5.755,0-7.8,3.282-7.8,7.886v12.7h-3.24Z" transform="translate(-102.499 -10.052)" fill="#9CA3AF"/>
    <path id="Path_42904" data-name="Path 42904" d="M333.3,534.667c0-8.1,3.2-12.277,11.339-12.277s11.381,4.177,11.381,12.277-3.24,12.277-11.381,12.277S333.3,542.766,333.3,534.667Zm19.438.085c0-6.053-2.174-9.293-8.1-9.293s-8.1,3.24-8.1,9.293c0,6.011,2.174,9.25,8.1,9.25S352.737,540.762,352.737,534.752Z" transform="translate(-116.409 -9.787)" fill="#9CA3AF"/>
    <path id="Path_42905" data-name="Path 42905" d="M390.4,523.114l2.558-.17.3,2.472c1.023-1.62,3.282-3.026,8.738-3.026,7.588,0,8.483,3.922,8.483,9.719v14.366h-3.24V532.663c0-4.177-.384-7.076-6.181-7.076-6.266,0-7.417,3.24-7.417,7.673v13.215H390.4Z" transform="translate(-145.467 -9.787)" fill="#9CA3AF"/>
    <path id="Path_42906" data-name="Path 42906" d="M444.646,523.518h3.2v23.53h-3.2Z" transform="translate(-173.068 -10.361)" fill="#9CA3AF"/>
  </g>
</svg>
