<svg id="security" enable-background="new 0 0 300 300" height="512" viewBox="0 0 300 300" width="512" xmlns="http://www.w3.org/2000/svg"><g><path d="m252.828 220h-12v-149.354c0-14.693-11.953-26.646-26.646-26.646h-130.463c-12.621 0-22.891 10.27-22.891 22.891v13.109c0 2.209 1.791 4 4 4h32v141.217c0 17.838 11.775 30.783 28 30.783h108.889c12.744 0 23.111-10.367 23.111-23.111v-8.889c0-2.209-1.791-4-4-4zm-184-144v-9.109c0-8.086 6.489-14.655 14.793-14.854 8.025.378 13.207 6.611 13.207 15.963v8zm72 154c0 9.562-7.471 17.457-17.01 17.973-.012 0-.025.002-.039.002-11.211-.539-18.951-9.746-18.951-22.758v-157.217c0-6.37-1.942-11.852-5.206-16h114.56c10.281 0 18.646 8.365 18.646 18.646v149.354h-88c-2.209 0-4 1.791-4 4zm108 2.889c0 8.332-6.779 15.111-15.111 15.111h-92.123c4.488-4.682 7.234-11.035 7.234-18v-2h100z"/><path d="m169.047 165.775c.295.068.594.102.895.102s.6-.033.895-.102c1.256-.287 30.826-7.594 37.367-54.818.154-1.113-.168-2.238-.885-3.104-.717-.863-1.766-1.387-2.887-1.441-.213-.01-21.326-1.162-31.367-13.705-.742-.926-1.857-1.477-3.043-1.5-1.193-.027-2.32.48-3.102 1.379-10.936 12.602-31.279 13.816-31.482 13.828-1.119.059-2.164.584-2.877 1.447s-1.033 1.986-.881 3.096c6.541 47.225 36.111 54.531 37.367 54.818zm.807-64.763c9.377 8.955 22.869 11.953 29.779 12.934-6.059 34.057-25.236 42.297-29.689 43.768-4.494-1.486-23.648-9.746-29.697-43.789 6.751-1.001 19.853-4.019 29.607-12.913z"/><path d="m163.76 140.551c.762.904 1.883 1.426 3.062 1.426h.074c1.207-.023 2.34-.59 3.082-1.541l14.006-17.977c1.357-1.744 1.045-4.256-.697-5.615-1.74-1.354-4.256-1.043-5.615.697l-10.967 14.078-3.119-3.713c-1.416-1.689-3.941-1.906-5.637-.488-1.689 1.422-1.91 3.945-.488 5.637z"/><path d="m61.312 183.516c-1.562-1.562-4.094-1.562-5.656 0l-2.828 2.828-2.828-2.828c-1.562-1.562-4.094-1.562-5.656 0s-1.562 4.094 0 5.656l2.828 2.828-2.828 2.828c-1.562 1.562-1.562 4.094 0 5.656.781.781 1.805 1.172 2.828 1.172s2.047-.391 2.828-1.172l2.828-2.828 2.828 2.828c.781.781 1.805 1.172 2.828 1.172s2.047-.391 2.828-1.172c1.562-1.562 1.562-4.094 0-5.656l-2.828-2.828 2.828-2.828c1.563-1.563 1.563-4.094 0-5.656z"/><circle cx="80.828" cy="180" r="4"/><circle cx="68.828" cy="136" r="4"/><path d="m148.828 180c-2.209 0-4 1.791-4 4s1.791 4 4 4h48c2.209 0 4-1.791 4-4s-1.791-4-4-4z"/><path d="m212.828 196c0-2.209-1.791-4-4-4h-72c-2.209 0-4 1.791-4 4s1.791 4 4 4h72c2.209 0 4-1.791 4-4z"/></g></svg>