<svg id="Capa_1" enable-background="new 0 0 512 512" height="512" viewBox="0 0 512 512" width="512" xmlns="http://www.w3.org/2000/svg"><path d="m357.019 320.662-18.354-18.355c3.06-5.457 5.56-11.187 7.476-17.129h26.952c4.143 0 7.5-3.357 7.5-7.5v-43.356c0-4.143-3.357-7.5-7.5-7.5h-26.953c-1.916-5.941-4.416-11.671-7.476-17.128l18.354-18.355c2.929-2.929 2.929-7.677 0-10.605l-28.186-28.188c-1.407-1.406-3.314-2.196-5.304-2.196s-3.896.79-5.304 2.196l-19.064 19.065c-4.53-2.324-9.234-4.275-14.069-5.836v-26.953c0-4.143-3.357-7.5-7.5-7.5h-39.861c-4.143 0-7.5 3.357-7.5 7.5v25.952c-6.01 1.695-11.827 3.981-17.392 6.837l-19.064-19.065c-1.407-1.406-3.314-2.196-5.304-2.196s-3.896.79-5.304 2.196l-28.186 28.188c-2.929 2.929-2.929 7.677 0 10.605l18.354 18.355c-3.06 5.457-5.56 11.187-7.476 17.128h-26.952c-4.143 0-7.5 3.357-7.5 7.5v43.356c0 4.143 3.357 7.5 7.5 7.5h26.952c1.916 5.942 4.416 11.672 7.476 17.129l-18.354 18.355c-2.929 2.929-2.929 7.677 0 10.606l28.186 28.186c2.929 2.927 7.678 2.929 10.606 0l19.065-19.064c5.564 2.855 11.382 5.142 17.392 6.837v25.952c0 4.143 3.357 7.5 7.5 7.5h39.861c4.143 0 7.5-3.357 7.5-7.5v-26.953c4.835-1.561 9.539-3.512 14.069-5.836l19.065 19.064c2.928 2.928 7.677 2.928 10.606 0l28.186-28.186c2.931-2.929 2.931-7.677.003-10.606zm-33.49 22.882-17.752-17.751c-2.425-2.424-6.186-2.898-9.134-1.144-6.537 3.884-13.57 6.801-20.903 8.67-3.323.847-5.648 3.839-5.648 7.268v25.092h-24.862v-24.319c0-3.54-2.475-6.598-5.937-7.335-8.443-1.8-16.497-4.954-23.938-9.375-2.948-1.754-6.71-1.281-9.134 1.144l-17.752 17.751-17.579-17.579 17.2-17.201c2.502-2.502 2.915-6.413.989-9.383-4.713-7.27-8.184-15.195-10.313-23.555-.847-3.323-3.839-5.648-7.268-5.648h-25.092v-28.356h25.094c3.429 0 6.421-2.325 7.268-5.648 2.131-8.359 5.601-16.284 10.313-23.554 1.926-2.97 1.513-6.881-.989-9.383l-17.2-17.201 17.579-17.58 17.751 17.752c2.425 2.424 6.185 2.896 9.135 1.144 7.44-4.421 15.494-7.575 23.938-9.375 3.462-.737 5.937-3.795 5.937-7.335v-24.319h24.861v25.092c0 3.429 2.325 6.421 5.648 7.268 7.333 1.869 14.366 4.786 20.903 8.67 2.946 1.753 6.708 1.28 9.135-1.144l17.751-17.752 17.579 17.58-17.2 17.201c-2.502 2.502-2.915 6.413-.989 9.383 4.713 7.27 8.183 15.194 10.313 23.554.847 3.323 3.839 5.648 7.268 5.648h25.092v28.356h-25.093c-3.429 0-6.421 2.325-7.268 5.648-2.13 8.359-5.601 16.285-10.313 23.555-1.926 2.97-1.513 6.881.989 9.383l17.2 17.201z"/><path d="m256 218.195c-1.924 0-3.855.146-5.739.434-4.095.625-6.907 4.451-6.282 8.546.625 4.096 4.454 6.907 8.546 6.282 1.138-.174 2.307-.262 3.476-.262 12.574 0 22.805 10.23 22.805 22.805s-10.23 22.805-22.805 22.805-22.805-10.23-22.805-22.805c0-1.176.089-2.354.266-3.499.629-4.094-2.18-7.923-6.273-8.553-4.093-.633-7.923 2.178-8.553 6.273-.292 1.897-.439 3.842-.439 5.778 0 20.846 16.959 37.805 37.805 37.805s37.805-16.959 37.805-37.805-16.961-37.804-37.807-37.804z"/><path d="m443.891 45.457c-12.49 0-22.652 10.162-22.652 22.652s10.162 22.652 22.652 22.652 22.652-10.162 22.652-22.652-10.162-22.652-22.652-22.652zm0 30.305c-4.22 0-7.652-3.433-7.652-7.652s3.433-7.652 7.652-7.652 7.652 3.433 7.652 7.652-3.433 7.652-7.652 7.652z"/><path d="m504.5 45.457h-12.749c-5.242-11.096-14.112-19.966-25.208-25.208v-12.749c0-4.143-3.357-7.5-7.5-7.5h-30.305c-4.143 0-7.5 3.357-7.5 7.5v12.748c-11.097 5.243-19.966 14.112-25.209 25.209h-12.749c-4.143 0-7.5 3.357-7.5 7.5v30.305c0 4.143 3.357 7.5 7.5 7.5h12.748c5.243 11.097 14.113 19.967 25.21 25.21v12.748c0 4.143 3.357 7.5 7.5 7.5h30.305c4.143 0 7.5-3.357 7.5-7.5v-12.749c11.097-5.243 19.966-14.112 25.209-25.209h12.748c4.143 0 7.5-3.357 7.5-7.5v-30.305c0-4.143-3.357-7.5-7.5-7.5zm-7.5 30.305h-10.259c-3.176 0-6.007 2-7.068 4.993-3.793 10.694-12.442 19.345-23.137 23.138-2.993 1.062-4.993 3.893-4.993 7.068v10.259h-15.305v-10.259c0-3.176-2-6.007-4.993-7.068-10.694-3.793-19.345-12.443-23.138-23.138-1.062-2.993-3.893-4.993-7.068-4.993h-10.259v-15.305h10.259c3.176 0 6.007-2 7.068-4.993 3.793-10.694 12.443-19.344 23.138-23.137 2.993-1.062 4.993-3.893 4.993-7.068v-10.259h15.305v10.259c0 3.176 2 6.007 4.993 7.068 10.694 3.793 19.344 12.442 23.137 23.137 1.062 2.993 3.893 4.993 7.068 4.993h10.259z"/><path d="m466.543 443.891c0-12.49-10.162-22.652-22.652-22.652s-22.652 10.162-22.652 22.652 10.162 22.652 22.652 22.652 22.652-10.162 22.652-22.652zm-30.305 0c0-4.22 3.433-7.652 7.652-7.652s7.652 3.433 7.652 7.652-3.433 7.652-7.652 7.652-7.652-3.433-7.652-7.652z"/><path d="m504.5 421.238h-12.748c-5.243-11.097-14.112-19.966-25.209-25.209v-12.749c0-4.143-3.357-7.5-7.5-7.5h-30.305c-4.143 0-7.5 3.357-7.5 7.5v13.336c-2.029 2.08-2.744 5.247-1.563 8.104 1.581 3.828 5.966 5.648 9.795 4.068.584-.241 1.174-.468 1.772-.68 2.994-1.061 4.996-3.893 4.996-7.069v-10.259h15.305v10.259c0 3.176 2 6.007 4.993 7.068 10.694 3.793 19.344 12.443 23.137 23.138 1.062 2.993 3.893 4.993 7.068 4.993h10.259v15.305h-10.259c-3.176 0-6.007 2-7.068 4.993-3.793 10.694-12.442 19.344-23.137 23.137-2.993 1.062-4.993 3.893-4.993 7.068v10.259h-15.305v-10.259c0-3.176-2-6.007-4.993-7.068-10.694-3.793-19.345-12.442-23.138-23.137-1.062-2.993-3.893-4.993-7.068-4.993h-10.259v-15.305h10.259c3.178 0 6.01-2.002 7.07-4.997.223-.63.463-1.252.718-1.865 1.588-3.826-.226-8.215-4.052-9.803-2.905-1.208-6.14-.448-8.223 1.665h-13.272c-4.143 0-7.5 3.357-7.5 7.5v30.305c0 4.143 3.357 7.5 7.5 7.5h12.749c5.243 11.097 14.112 19.966 25.209 25.209v12.748c0 4.143 3.357 7.5 7.5 7.5h30.305c4.143 0 7.5-3.357 7.5-7.5v-12.749c11.096-5.242 19.966-14.112 25.208-25.208h12.749c4.143 0 7.5-3.357 7.5-7.5v-30.305c0-4.142-3.357-7.5-7.5-7.5z"/><path d="m90.762 68.109c0-12.49-10.162-22.652-22.652-22.652s-22.653 10.162-22.653 22.652 10.162 22.652 22.652 22.652 22.653-10.161 22.653-22.652zm-30.305 0c0-4.22 3.433-7.652 7.652-7.652s7.652 3.433 7.652 7.652-3.433 7.652-7.652 7.652-7.652-3.432-7.652-7.652z"/><path d="m7.5 90.762h12.748c5.243 11.097 14.112 19.966 25.209 25.209v12.749c0 4.143 3.357 7.5 7.5 7.5h30.305c4.143 0 7.5-3.357 7.5-7.5v-12.748c11.097-5.243 19.967-14.113 25.21-25.21h12.748c4.143 0 7.5-3.357 7.5-7.5v-30.305c0-4.143-3.357-7.5-7.5-7.5h-12.749c-5.243-11.097-14.112-19.966-25.209-25.209v-12.748c0-4.143-3.357-7.5-7.5-7.5h-30.305c-4.143 0-7.5 3.357-7.5 7.5v13.337c-2.029 2.081-2.743 5.249-1.562 8.106 1.583 3.827 5.969 5.645 9.798 4.063.582-.241 1.173-.468 1.771-.68 2.993-1.062 4.993-3.893 4.993-7.068v-10.258h15.305v10.259c0 3.176 2 6.007 4.993 7.068 10.694 3.793 19.345 12.443 23.138 23.137 1.062 2.993 3.893 4.993 7.068 4.993h10.259v15.305h-10.259c-3.176 0-6.007 2-7.068 4.993-3.793 10.694-12.444 19.345-23.138 23.138-2.993 1.062-4.993 3.893-4.993 7.068v10.259h-15.305v-10.259c0-3.176-2-6.007-4.993-7.068-10.694-3.793-19.344-12.444-23.137-23.138-1.062-2.993-3.893-4.993-7.068-4.993h-10.259v-15.305h10.259c3.176 0 6.008-2.001 7.069-4.994.222-.628.461-1.248.716-1.859 1.592-3.824-.217-8.215-4.04-9.808-2.911-1.212-6.146-.454-8.23 1.661h-13.274c-4.143 0-7.5 3.357-7.5 7.5v30.305c0 4.142 3.357 7.5 7.5 7.5z"/><path d="m128.72 421.238h-12.748c-5.243-11.097-14.113-19.967-25.21-25.21v-12.748c0-4.143-3.357-7.5-7.5-7.5h-30.305c-4.143 0-7.5 3.357-7.5 7.5v12.749c-11.097 5.243-19.966 14.112-25.209 25.209h-12.748c-4.143 0-7.5 3.357-7.5 7.5v30.305c0 4.143 3.357 7.5 7.5 7.5h12.749c5.242 11.096 14.112 19.966 25.208 25.208v12.749c0 4.143 3.357 7.5 7.5 7.5h30.305c4.143 0 7.5-3.357 7.5-7.5v-12.748c11.097-5.243 19.966-14.112 25.209-25.209h12.749c4.143 0 7.5-3.357 7.5-7.5v-30.305c0-4.142-3.358-7.5-7.5-7.5zm-7.5 30.305h-10.259c-3.176 0-6.007 2-7.068 4.993-3.793 10.694-12.443 19.344-23.138 23.137-2.993 1.062-4.993 3.893-4.993 7.068v10.259h-15.305v-10.259c0-3.176-2-6.007-4.993-7.068-10.694-3.793-19.344-12.443-23.137-23.137-1.062-2.993-3.893-4.993-7.068-4.993h-10.259v-15.305h10.259c3.176 0 6.007-2 7.068-4.993 3.793-10.694 12.442-19.345 23.137-23.138 2.993-1.062 4.993-3.893 4.993-7.068v-10.259h15.305v10.259c0 3.176 2 6.007 4.993 7.068 10.694 3.793 19.345 12.443 23.138 23.138 1.062 2.993 3.893 4.993 7.068 4.993h10.259z"/><path d="m68.109 421.238c-12.49 0-22.652 10.162-22.652 22.652s10.162 22.652 22.652 22.652 22.652-10.162 22.652-22.652-10.161-22.652-22.652-22.652zm0 30.305c-4.22 0-7.652-3.433-7.652-7.652s3.433-7.652 7.652-7.652 7.652 3.433 7.652 7.652-3.432 7.652-7.652 7.652z"/><path d="m123.922 113.314c-2.93-2.928-7.678-2.928-10.607 0-2.929 2.93-2.929 7.678 0 10.607l21.542 21.542h-6.137c-4.143 0-7.5 3.357-7.5 7.5s3.357 7.5 7.5 7.5h24.244c4.083 0 7.504-3.421 7.5-7.505v-24.238c0-4.143-3.357-7.5-7.5-7.5s-7.5 3.357-7.5 7.5v6.137z"/><path d="m351.574 153.706c.373 3.782 3.664 6.758 7.463 6.758h24.244c4.143 0 7.5-3.357 7.5-7.5s-3.357-7.5-7.5-7.5h-6.137l21.542-21.542c2.929-2.93 2.929-7.678 0-10.607-2.93-2.928-7.678-2.928-10.607 0l-21.542 21.542v-6.137c0-4.143-3.357-7.5-7.5-7.5s-7.5 3.357-7.5 7.5v24.239c-.001.249.012.499.037.747z"/><path d="m160.427 356.276c-.372-3.788-3.668-6.759-7.463-6.759h-24.244c-4.143 0-7.5 3.357-7.5 7.5s3.357 7.5 7.5 7.5h6.137l-21.542 21.541c-2.93 2.93-2.93 7.678-.001 10.606 1.465 1.465 3.384 2.197 5.304 2.197 1.919 0 3.839-.732 5.303-2.196l21.543-21.542v6.137c0 4.143 3.357 7.5 7.5 7.5s7.5-3.357 7.5-7.5v-24.24c0-.249-.013-.497-.037-.744z"/><path d="m388.079 396.665c1.464 1.464 3.384 2.196 5.303 2.196s3.839-.732 5.304-2.197c2.929-2.929 2.929-7.677-.001-10.606l-21.542-21.541h6.137c4.143 0 7.5-3.357 7.5-7.5s-3.357-7.5-7.5-7.5h-24.244c-4.076 0-7.502 3.415-7.5 7.503v24.24c0 4.143 3.357 7.5 7.5 7.5s7.5-3.357 7.5-7.5v-6.137z"/></svg>