<?xml version="1.0" encoding="UTF-8"?> <svg xmlns="http://www.w3.org/2000/svg" viewBox="0 0 296.8 44.06"><defs><style>.cls-1{fill:#fff;}</style></defs><title>logo-servicenow-white</title><g id="Layer_2" data-name="Layer 2"><g id="Layer_1-2" data-name="Layer 1"><g id="Layer_1-2-2" data-name="Layer 1-2"><g id="yTdj3w.tif"><path class="cls-1" d="M184.88,28.69V42.92c0,.53,0,.53.52.53h6.82c.88,0,.75.12.75-.74V25a2.26,2.26,0,0,1,0-.52.71.71,0,0,1,.16-.39,8.89,8.89,0,0,1,3.44-2.56,8.34,8.34,0,0,1,4.46-.68,5.32,5.32,0,0,1,4,2.44,6.65,6.65,0,0,1,1,3.5v16.1c0,.67,0,.6.6.6h6.67c.82,0,.82,0,.82-.83V34.46a72.43,72.43,0,0,0-.14-8.2,16.83,16.83,0,0,0-.17-2.13,15.43,15.43,0,0,0-.89-3.19,10.47,10.47,0,0,0-1.71-2.78,20.16,20.16,0,0,0-2.38-2.24,12.63,12.63,0,0,0-3.36-1.84,10,10,0,0,0-2.52-.64l-2.26-.25a.41.41,0,0,0-.22,0c-.29.23-.62.11-.94.15a9.72,9.72,0,0,0-1.52.19,13.33,13.33,0,0,0-3.93,1.6c-.31.19-.6.41-.91.6s-.46.2-.46-.24a11.81,11.81,0,0,1,0-1.19c0-.32-.11-.37-.39-.37h-7c-.31,0-.4.1-.37.39a3.23,3.23,0,0,1,0,.44ZM81.26,13.93H77.51c-.38,0-.43.09-.27.44.55,1.21,1.11,2.42,1.67,3.62.34.75.7,1.49,1,2.24.69,1.51,1.36,3,2,4.56.46,1,.91,2,1.38,3,.85,1.86,1.72,3.73,2.58,5.59.42.92.85,1.84,1.28,2.76L88.06,38c.76,1.69,1.53,3.38,2.29,5.08a.61.61,0,0,0,.65.43h4.72a.57.57,0,0,0,.61-.39c.48-1.08,1-2.16,1.45-3.23.81-1.81,1.64-3.61,2.46-5.41.53-1.16,1.08-2.32,1.62-3.48l2.42-5.34,2.36-5.13c.74-1.6,1.5-3.19,2.24-4.79.21-.44.4-.88.58-1.33s.08-.41-.31-.43h-7.56a.42.42,0,0,0-.45.3c-.34.78-.68,1.55-1,2.32s-.59,1.27-.87,1.91l-2.16,5C96.55,24.75,96,26,95.4,27.19c-.32.71-.61,1.42-.92,2.13s-.52,1.19-.81,1.77c-.2.41-.38.41-.59,0-.36-.71-.69-1.43-1-2.16-.73-1.65-1.44-3.32-2.17-5-.54-1.21-1.11-2.41-1.66-3.62-.28-.59-.57-1.17-.83-1.77q-.93-2.09-1.83-4.17A.56.56,0,0,0,85,14C83.7,14,82.48,13.93,81.26,13.93ZM56.34,28.69V42.92c0,.52-.06.53.52.53h6.89c.77,0,.67.1.68-.67V24.89a.8.8,0,0,1,.11-.34,6.75,6.75,0,0,1,1.94-1.9A9.77,9.77,0,0,1,71.14,21a7.28,7.28,0,0,1,3,.33c.5.15.51.15.51-.33V14.25c0-.45-.14-.61-.61-.61a21.3,21.3,0,0,0-4.3.16,13.53,13.53,0,0,0-4.91,2.08l-.6.4c0-.23-.06-.47-.07-.7V14.45c0-.57,0-.52-.53-.52H56.86a.71.71,0,0,0-.29,0,.4.4,0,0,0-.22.22,3,3,0,0,0,0,.6Zm55.88,0V42.75c0,.81-.11.69.72.7h7a.24.24,0,0,0,.26-.27V14.67c0-.86.12-.73-.76-.73H113a2.26,2.26,0,0,0-.52,0,.33.33,0,0,0-.22.21,3,3,0,0,0,0,.6Z"></path><path class="cls-1" d="M296.8,15c-.23-.05-.29.11-.36.27-.33.88-.66,1.76-1,2.63-.48,1.21-1,2.41-1.47,3.62-.61,1.57-1.2,3.14-1.82,4.71-.54,1.37-1.1,2.73-1.65,4.09-.6,1.52-1.19,3-1.79,4.57l-1.5,3.76-1.65,4.24c-.2.5-.28.57-.8.58h-5c-.37,0-.51-.1-.65-.5-.78-2.15-1.64-4.27-2.45-6.41-.5-1.32-1-2.67-1.47-4-.65-1.63-1.14-3.32-1.92-4.89V27.5a1.82,1.82,0,0,0-.16-.31,2.13,2.13,0,0,0-.16.25c-.74,1.69-1.33,3.44-2,5.18-.87,2.42-1.81,4.82-2.71,7.23-.4,1.06-.75,2.13-1.15,3.19a.53.53,0,0,1-.57.43h-5.25a.52.52,0,0,1-.59-.4l-2.34-5.91c-.94-2.37-1.86-4.75-2.81-7.12l-3-7.58-3.1-7.86-.24-.59c.22,0,.44-.06.66-.06h6.89c.5,0,.49,0,.67.48.62,1.65,1.26,3.28,1.88,4.93.44,1.17.86,2.35,1.3,3.52s.8,2.11,1.21,3.17c.48,1.23,1,2.46,1.45,3.7v.14s.18.22.27.22a.45.45,0,0,0,.27-.2c.11-.24.21-.49.3-.74.72-2,1.41-3.94,2.14-5.9.66-1.76,1.35-3.51,2-5.26.39-1,.75-2,1.13-3v-.08c.31-.93.31-.93,1.29-.93h5.1c.69,0,.67,0,.92.67.73,2,1.48,4,2.21,6,.41,1.09.78,2.18,1.18,3.26.5,1.36,1,2.71,1.51,4.07l.8,2.16a.83.83,0,0,0,.16.21.53.53,0,0,0,.16-.2c.25-.57.51-1.14.74-1.73q1.11-2.86,2.2-5.73l1.7-4.53c.48-1.25,1-2.5,1.46-3.77.11-.31.22-.36.49-.36h7.49Z"></path><path class="cls-1" d="M223.54,44.05c-.08-.1-.14-.24-.23-.27A5.35,5.35,0,0,1,221.15,42a17,17,0,0,1-1.55-2.13,18.08,18.08,0,0,1-2.22-5.12A18.22,18.22,0,0,1,217,29a16.2,16.2,0,0,1,1.16-5,17.08,17.08,0,0,1,2.3-4.05,11.43,11.43,0,0,1,2.63-2.7c.63-.42,1.19-.95,1.82-1.35a16.7,16.7,0,0,1,5-2.16,13.21,13.21,0,0,1,3.25-.46c.41,0,.83-.11,1.24-.12.26,0,.52.13.78.13a16,16,0,0,1,5.53,1.22,15.3,15.3,0,0,1,3.73,2.12A17.07,17.07,0,0,1,248,20.12a14.87,14.87,0,0,1,1.76,2.94A17.15,17.15,0,0,1,251,27a12.9,12.9,0,0,1,.29,2.7,3.1,3.1,0,0,0,.08.42c0,.25.13.53,0,.73a2.52,2.52,0,0,0-.12,1.09,10.58,10.58,0,0,1-.48,2.95A21.55,21.55,0,0,1,249.7,38a15.83,15.83,0,0,1-1.51,2.58,22.1,22.1,0,0,1-1.7,2,6,6,0,0,1-2,1.45H242.1c0-.09,0-.24-.09-.27-1.1-.55-2.06-1.36-3.21-1.86a14.6,14.6,0,0,0-4.52-1,9.22,9.22,0,0,0-1.39.14,11.2,11.2,0,0,0-3.77,1c-1.22.51-2.18,1.42-3.36,2Zm10.75-22.32a5.94,5.94,0,0,0-1.46,0,9.43,9.43,0,0,0-5.27,3.2,9.41,9.41,0,0,0-1.92,5.54c0,.31.13.63.14.94a6.79,6.79,0,0,0,.93,3.19,8.31,8.31,0,0,0,2.3,2.73,8.75,8.75,0,0,0,4.26,1.74,8.47,8.47,0,0,0,3.64-.37,8.83,8.83,0,0,0,4.41-3.41,8.09,8.09,0,0,0,1.37-4,9.07,9.07,0,0,0-.26-3.07,8.42,8.42,0,0,0-3-4.74A7.2,7.2,0,0,0,234.29,21.73Z"></path><path class="cls-1" d="M37.16,44.05a2.07,2.07,0,0,0-.62-.29,11.89,11.89,0,0,1-3.71-1.26,13.51,13.51,0,0,1-3.13-2.23,16.24,16.24,0,0,1-2.37-2.73A14.12,14.12,0,0,1,25.62,34,20.48,20.48,0,0,1,25,31c-.08-.88-.12-1.77-.12-2.66a15.33,15.33,0,0,1,.28-2.62,14.92,14.92,0,0,1,.75-2.94,13.82,13.82,0,0,1,2.17-4.08,15.52,15.52,0,0,1,1.26-1.53,16.83,16.83,0,0,1,2.34-1.87,12.61,12.61,0,0,1,3.15-1.43,11.84,11.84,0,0,1,3.29-.58c.19,0,.38-.08.58-.09h1.16c.17,0,.34.07.51.07a11.94,11.94,0,0,1,4,.9,10.79,10.79,0,0,1,3.24,1.9,15,15,0,0,1,2.22,2.29A13.22,13.22,0,0,1,51.5,21a15.25,15.25,0,0,1,1.39,4.48,20.2,20.2,0,0,1,.28,3.29A13.61,13.61,0,0,1,53,30.46c0,.07-.15.17-.24.18a3,3,0,0,1-.6,0H33.39c-.76,0-.86.13-.68.84a7.75,7.75,0,0,0,2.29,4,6.85,6.85,0,0,0,3.42,1.83,7.9,7.9,0,0,0,1.94.28,10.07,10.07,0,0,0,6-2.16c.42-.34.83-.7,1.22-1.07.2-.2.35-.24.54,0,0,.06.1.1.15.16L52,38.21c.47.47.51.68,0,1.09a18.78,18.78,0,0,1-3.8,2.83,18,18,0,0,1-4,1.54c-.38.09-.76.15-1.14.23-.08,0-.14.1-.21.15ZM39,24.87h5.76c.21,0,.26-.12.22-.29a3.26,3.26,0,0,0-.13-.33,5.79,5.79,0,0,0-7-4.3l-.4.11a7.28,7.28,0,0,0-2,1.07,6.08,6.08,0,0,0-2.19,3.1c-.21.6-.17.64.43.64Z"></path><path class="cls-1" d="M165.71,44.05c-.05-.1-.09-.28-.15-.29a11,11,0,0,1-3.69-1.22,11.62,11.62,0,0,1-3.29-2.26,15.48,15.48,0,0,1-2.54-3,16.17,16.17,0,0,1-2-5.06,18.39,18.39,0,0,1-.24-4.8,16.35,16.35,0,0,1,3.32-9,13.65,13.65,0,0,1,4-3.45A16.44,16.44,0,0,1,165,13.51a9.38,9.38,0,0,1,1.67-.18,1.31,1.31,0,0,0,.87-.13.59.59,0,0,1,.37,0l1.16.14c.38.05.78.06,1.16.11a13.06,13.06,0,0,1,2.46.63,11,11,0,0,1,3.4,1.88,15.72,15.72,0,0,1,2,1.82,13.92,13.92,0,0,1,1.5,2,14.45,14.45,0,0,1,1.67,3.82,15.29,15.29,0,0,1,.61,3.21,17.34,17.34,0,0,1,.13,1.91,10.64,10.64,0,0,1-.17,1.69.55.55,0,0,1-.33.32,2,2,0,0,1-.6,0h-18.7c-.76,0-.85.13-.67.85a7.75,7.75,0,0,0,2.26,3.92,7,7,0,0,0,3.42,1.83,7.11,7.11,0,0,0,2,.29,10.39,10.39,0,0,0,5.84-2.13c.44-.36.86-.75,1.28-1.12s.4-.28.68,0c.53.55,1,1.14,1.55,1.69s1.37,1.38,2.07,2.06.64.59,0,1.22a16.6,16.6,0,0,1-5.45,3.6,13,13,0,0,1-3,.84,1,1,0,0,0-.85.28Zm2-19.18h5.54c.4,0,.51-.12.41-.47a6,6,0,0,0-2.47-3.58,5.58,5.58,0,0,0-5.27-.68,6.57,6.57,0,0,0-4.06,4.49c0,.17,0,.23.17.24Z"></path><path class="cls-1" d="M136.64,44.05c-.1-.1-.18-.27-.3-.29a14.31,14.31,0,0,1-5.84-2.41,14.09,14.09,0,0,1-3.63-3.51,17.45,17.45,0,0,1-1.45-2.27A17.27,17.27,0,0,1,124.21,32a14.34,14.34,0,0,1-.26-4.93,14.74,14.74,0,0,1,1.2-4.61,16.59,16.59,0,0,1,2.22-3.56,15.51,15.51,0,0,1,13.43-5.54,15.88,15.88,0,0,1,7.54,2.77A26,26,0,0,1,151.49,19a.35.35,0,0,1,.09.49l-.09.09-1.93,1.72-.46.37L146.44,24c-.25.21-.44.19-.62-.08a7.86,7.86,0,0,0-4.66-3.05,7.72,7.72,0,0,0-5.28.57,8,8,0,0,0-2.77,2.29,7.07,7.07,0,0,0-1.46,3,8.3,8.3,0,0,0,0,3.84,8,8,0,0,0,2.19,3.8,7.8,7.8,0,0,0,3.74,2,6.4,6.4,0,0,0,2,.16,8.7,8.7,0,0,0,4.78-1.73,9.2,9.2,0,0,0,1.92-1.92c.13-.19.26-.3.53-.08.87.71,1.77,1.38,2.65,2.07L152.21,37c.12.09.24.17.35.27a.23.23,0,0,1,0,.37,25,25,0,0,1-1.78,2.06,15.34,15.34,0,0,1-4.91,3.19,33,33,0,0,1-3.25,1c-.24.07-.54-.13-.73.16Z"></path><path class="cls-1" d="M0,39.55A3.08,3.08,0,0,0,.59,39c1-1.42,1.91-2.85,2.87-4.28a2.11,2.11,0,0,1,.19-.23c.09-.11.16-.19.34,0a8.14,8.14,0,0,0,.88.63A10.57,10.57,0,0,0,9.59,37a16.88,16.88,0,0,0,2,.28,5,5,0,0,0,2.77-.74,2,2,0,0,0,1.06-1.88,2,2,0,0,0-.9-1.46,11.27,11.27,0,0,0-2.11-1.13c-1.68-.65-3.42-1.15-5.08-1.84a11.15,11.15,0,0,1-4.45-3A6.45,6.45,0,0,1,1.5,24.39a8.85,8.85,0,0,1,.18-4.51A7.34,7.34,0,0,1,3.14,17.3a11.08,11.08,0,0,1,6.2-3.67,9.17,9.17,0,0,1,2.39-.31c.29,0,.6-.18.86-.12.89.2,1.8.11,2.7.25a28.13,28.13,0,0,1,3,.65,7.22,7.22,0,0,1,1.48.58c.89.43,1.76.9,2.64,1.36.22.12.32.26.12.53-.33.44-.61.92-.92,1.39l-2.55,4c-.12.2-.22.23-.45.08-.47-.31-1-.57-1.48-.84a7.84,7.84,0,0,0-2.74-.91,6,6,0,0,0-3.42.29A2.57,2.57,0,0,0,9.45,22a1.29,1.29,0,0,0,.24,1.41A5.07,5.07,0,0,0,12,24.71c1.88.68,3.78,1.27,5.64,2a11.55,11.55,0,0,1,2.7,1.57,8.3,8.3,0,0,1,1.86,1.88,6.33,6.33,0,0,1,1.23,3.26c0,.51.14,1,.14,1.53a7.87,7.87,0,0,1-1.34,4.46A9.06,9.06,0,0,1,19,42.31a14.53,14.53,0,0,1-3.49,1.36c-.37.09-.76.15-1.13.23a.86.86,0,0,0-.22.15H9.6a3.72,3.72,0,0,0-1.22-.31c-.42-.07-.84-.18-1.26-.27a16.29,16.29,0,0,1-2.87-.93,22.21,22.21,0,0,1-3-1.52C.83,40.78.52,40.37,0,40.3Z"></path><path class="cls-1" d="M116.72,0a3.53,3.53,0,0,0,.7.28A4.78,4.78,0,0,1,121,3.83a4.86,4.86,0,0,1-.79,4.36,5,5,0,0,1-3.18,2,5.08,5.08,0,0,1-4-.87,4.8,4.8,0,0,1-2-3.25,5,5,0,0,1,.48-3.32A4.75,4.75,0,0,1,114.2.42a4.12,4.12,0,0,1,1.25-.28c.08,0,.15-.09.22-.14Z"></path><path class="cls-1" d="M0,40.3c.51.07.82.48,1.23.72a22.21,22.21,0,0,0,3,1.52,16.29,16.29,0,0,0,2.87.93c.42.09.84.2,1.26.27a3.72,3.72,0,0,1,1.22.31H.31c-.26,0-.31,0-.31-.3Z"></path><path class="cls-1" d="M184.88,28.69V14.76a3.23,3.23,0,0,0,0-.44c0-.29.06-.41.37-.39h7c.28,0,.41.05.39.37a11.81,11.81,0,0,0,0,1.19c0,.44.06.48.46.24s.6-.41.91-.6a13.33,13.33,0,0,1,3.93-1.6,9.72,9.72,0,0,1,1.52-.19c.32,0,.65.08.94-.15a.41.41,0,0,1,.22,0l2.26.25a10,10,0,0,1,2.52.64,12.63,12.63,0,0,1,3.36,1.84,20.16,20.16,0,0,1,2.38,2.24,10.47,10.47,0,0,1,1.71,2.78,15.43,15.43,0,0,1,.89,3.19c.14.7.09,1.42.17,2.13.31,2.73.1,5.47.14,8.2s0,5.44,0,8.16c0,.83,0,.83-.82.83H206.6c-.65,0-.6.07-.6-.6V26.75a6.65,6.65,0,0,0-1-3.5,5.3,5.3,0,0,0-4-2.44,8.34,8.34,0,0,0-4.46.68,8.89,8.89,0,0,0-3.44,2.56.71.71,0,0,0-.16.39,2.26,2.26,0,0,0,0,.52V42.71c0,.86.13.73-.75.74H185.4c-.56,0-.52,0-.52-.53Z"></path><path class="cls-1" d="M81.26,13.93h3.67a.56.56,0,0,1,.61.39q.9,2.09,1.83,4.17c.26.6.55,1.18.83,1.77.55,1.21,1.12,2.41,1.66,3.62.73,1.65,1.44,3.32,2.17,5,.32.73.65,1.45,1,2.16.21.42.39.42.59,0,.29-.58.55-1.18.81-1.77s.6-1.42.92-2.13c.56-1.23,1.15-2.44,1.71-3.68.73-1.65,1.44-3.31,2.16-5,.28-.64.59-1.27.87-1.91s.69-1.54,1-2.32a.42.42,0,0,1,.45-.3h7.56c.39,0,.45.1.31.43s-.37.89-.58,1.33c-.74,1.6-1.5,3.19-2.24,4.79l-2.36,5.13L101.86,31c-.54,1.16-1.09,2.32-1.62,3.48-.82,1.8-1.65,3.6-2.46,5.41-.49,1.07-1,2.15-1.45,3.23a.57.57,0,0,1-.61.39H91a.61.61,0,0,1-.65-.43c-.76-1.7-1.53-3.39-2.29-5.08l-.84-1.77c-.43-.92-.86-1.84-1.28-2.76-.86-1.86-1.73-3.73-2.58-5.59-.47-1-.92-2-1.38-3-.68-1.52-1.35-3.05-2-4.56-.33-.75-.69-1.49-1-2.24-.56-1.2-1.12-2.41-1.67-3.62-.16-.35-.11-.44.27-.44Z"></path><path class="cls-1" d="M56.34,28.69V14.76a3,3,0,0,1,0-.6.4.4,0,0,1,.22-.22.71.71,0,0,1,.29,0H63.6c.53,0,.54,0,.53.52v1.13a2.38,2.38,0,0,0,.07.7l.6-.4a13.53,13.53,0,0,1,4.91-2.08,21.3,21.3,0,0,1,4.3-.16c.47,0,.61.16.61.61V21c0,.48,0,.48-.51.33a7.28,7.28,0,0,0-3-.33,9.75,9.75,0,0,0-4.66,1.66,6.75,6.75,0,0,0-1.94,1.9.8.8,0,0,0-.11.34V42.78c0,.77.09.66-.68.67H56.83c-.58,0-.52,0-.52-.53Z"></path><path class="cls-1" d="M112.22,28.68V14.76a3,3,0,0,1,0-.6.33.33,0,0,1,.22-.21,2.26,2.26,0,0,1,.52,0h6.43c.88,0,.76-.13.76.73v28.5c0,.19-.06.28-.26.27s-.3,0-.45,0h-6.51c-.83,0-.72.11-.72-.7Z"></path></g></g></g></g></svg> 