<?xml version="1.0" encoding="iso-8859-1"?>
<!-- Generator: Adobe Illustrator 19.0.0, SVG Export Plug-In . SVG Version: 6.00 Build 0)  -->
<svg version="1.1" id="Layer_1" xmlns="http://www.w3.org/2000/svg" xmlns:xlink="http://www.w3.org/1999/xlink" x="0px" y="0px"
	 viewBox="0 0 396.918 396.918" style="enable-background:new 0 0 396.918 396.918;" xml:space="preserve">
<path style="fill:#FF1A03;" d="M0,22.652v351.614c0,12.51,10.141,22.652,22.652,22.652h351.614c12.51,0,22.652-10.141,22.652-22.652
	V22.652C396.917,10.141,386.776,0,374.266,0H22.652C10.141,0,0,10.141,0,22.652z M180.96,108.222h-62.29
	c-6.256,0-11.344,5.088-11.344,11.344v59.92H55.353v-59.92c0-34.912,28.405-63.317,63.317-63.317h62.291L180.96,108.222
	L180.96,108.222z M341.565,277.352c0,34.912-28.405,63.317-63.317,63.317h-62.291v-51.973h62.291
	c6.256,0,11.344-5.088,11.344-11.344v-59.92h51.973L341.565,277.352L341.565,277.352z"/>
<g>
</g>
<g>
</g>
<g>
</g>
<g>
</g>
<g>
</g>
<g>
</g>
<g>
</g>
<g>
</g>
<g>
</g>
<g>
</g>
<g>
</g>
<g>
</g>
<g>
</g>
<g>
</g>
<g>
</g>
</svg>
