<?xml version="1.0" encoding="UTF-8"?> <svg xmlns="http://www.w3.org/2000/svg" xmlns:xlink="http://www.w3.org/1999/xlink" width="236px" height="61px" viewBox="0 0 236 61"><!-- Generator: Sketch 53.2 (72643) - https://sketchapp.com --><title>Slice 1</title><desc>Created with Sketch.</desc><g id="Page-1" stroke="none" stroke-width="1" fill="none" fill-rule="evenodd"><g id="Slack_Monochrome_White" fill="#FFFFFF" fill-rule="nonzero"><g id="Group" transform="translate(75.030120, 0.944882)"><path d="M0.235943775,46.0629921 L3.16164659,39.2598425 C6.32329317,41.6220472 10.5230924,42.8503937 14.6757028,42.8503937 C17.7429719,42.8503937 19.6777108,41.6692913 19.6777108,39.8740157 C19.6305221,34.8661417 1.32128514,38.7874016 1.17971888,26.2204724 C1.13253012,19.8425197 6.79518072,14.9291339 14.8172691,14.9291339 C19.5833333,14.9291339 24.3493976,16.1102362 27.746988,18.8031496 L25.0100402,25.7480315 C21.8955823,23.7637795 18.0261044,22.3464567 14.3453815,22.3464567 C11.8443775,22.3464567 10.1927711,23.5275591 10.1927711,25.0393701 C10.2399598,29.9527559 28.6907631,27.2598425 28.8795181,39.2598425 C28.8795181,45.7795276 23.3584337,50.3622047 15.4307229,50.3622047 C9.62650602,50.3622047 4.29417671,48.992126 0.235943775,46.0629921" id="Path"></path><path d="M112.497992,36.8031496 C111.035141,39.3543307 108.298193,41.1023622 105.136546,41.1023622 C100.464859,41.1023622 96.689759,37.3228346 96.689759,32.6456693 C96.689759,27.9685039 100.464859,24.1889764 105.136546,24.1889764 C108.298193,24.1889764 111.035141,25.9370079 112.497992,28.488189 L120.567269,24 C117.547189,18.6141732 111.742972,14.9291339 105.136546,14.9291339 C95.3684739,14.9291339 87.4407631,22.8661417 87.4407631,32.6456693 C87.4407631,42.4251969 95.3684739,50.3622047 105.136546,50.3622047 C111.790161,50.3622047 117.547189,46.7244094 120.567269,41.2913386 L112.497992,36.8031496 Z" id="Path"></path><rect id="Rectangle" x="32.937751" y="0.236220472" width="10.0983936" height="49.4645669"></rect><polygon id="Path" points="124.531124 0.236220472 124.531124 49.7007874 134.629518 49.7007874 134.629518 34.8661417 146.615462 49.7007874 159.545181 49.7007874 144.303213 32.0787402 158.412651 15.6377953 146.049197 15.6377953 134.629518 29.2913386 134.629518 0.236220472"></polygon><path d="M73.0481928,36.8976378 C71.5853414,39.3070866 68.565261,41.1023622 65.1676707,41.1023622 C60.4959839,41.1023622 56.7208835,37.3228346 56.7208835,32.6456693 C56.7208835,27.9685039 60.4959839,24.1889764 65.1676707,24.1889764 C68.565261,24.1889764 71.5853414,26.0787402 73.0481928,28.5354331 L73.0481928,36.8976378 Z M73.0481928,15.6377953 L73.0481928,19.6535433 C71.3965863,16.8661417 67.2911647,14.9291339 62.996988,14.9291339 C54.125502,14.9291339 47.1415663,22.7716535 47.1415663,32.5984252 C47.1415663,42.4251969 54.125502,50.3622047 62.996988,50.3622047 C67.2911647,50.3622047 71.3965863,48.4251969 73.0481928,45.6377953 L73.0481928,49.6535433 L83.1465863,49.6535433 L83.1465863,15.6377953 L73.0481928,15.6377953 Z" id="Shape"></path></g><g id="Group"><g transform="translate(0.000000, 31.181102)" id="Path"><path d="M12.8353414,6.61417323 C12.8353414,10.0629921 10.0512048,12.8503937 6.6064257,12.8503937 C3.16164659,12.8503937 0.37751004,10.0629921 0.37751004,6.61417323 C0.37751004,3.16535433 3.16164659,0.377952756 6.6064257,0.377952756 L12.8353414,0.377952756 L12.8353414,6.61417323 Z"></path><path d="M15.9497992,6.61417323 C15.9497992,3.16535433 18.7339357,0.377952756 22.1787149,0.377952756 C25.623494,0.377952756 28.4076305,3.16535433 28.4076305,6.61417323 L28.4076305,22.2047244 C28.4076305,25.6535433 25.623494,28.4409449 22.1787149,28.4409449 C18.7339357,28.4409449 15.9497992,25.6535433 15.9497992,22.2047244 L15.9497992,6.61417323 Z"></path></g><g id="Path"><path d="M22.1787149,12.7559055 C18.7339357,12.7559055 15.9497992,9.96850394 15.9497992,6.51968504 C15.9497992,3.07086614 18.7339357,0.283464567 22.1787149,0.283464567 C25.623494,0.283464567 28.4076305,3.07086614 28.4076305,6.51968504 L28.4076305,12.7559055 L22.1787149,12.7559055 Z"></path><path d="M22.1787149,15.9212598 C25.623494,15.9212598 28.4076305,18.7086614 28.4076305,22.1574803 C28.4076305,25.6062992 25.623494,28.3937008 22.1787149,28.3937008 L6.55923695,28.3937008 C3.11445783,28.3937008 0.330321285,25.6062992 0.330321285,22.1574803 C0.330321285,18.7086614 3.11445783,15.9212598 6.55923695,15.9212598 L22.1787149,15.9212598 Z"></path></g><g transform="translate(31.144578, 0.000000)" id="Path"><path d="M15.996988,22.1574803 C15.996988,18.7086614 18.7811245,15.9212598 22.2259036,15.9212598 C25.6706827,15.9212598 28.4548193,18.7086614 28.4548193,22.1574803 C28.4548193,25.6062992 25.6706827,28.3937008 22.2259036,28.3937008 L15.996988,28.3937008 L15.996988,22.1574803 Z"></path><path d="M12.8825301,22.1574803 C12.8825301,25.6062992 10.0983936,28.3937008 6.65361446,28.3937008 C3.20883534,28.3937008 0.424698795,25.6062992 0.424698795,22.1574803 L0.424698795,6.51968504 C0.424698795,3.07086614 3.20883534,0.283464567 6.65361446,0.283464567 C10.0983936,0.283464567 12.8825301,3.07086614 12.8825301,6.51968504 L12.8825301,22.1574803 Z"></path></g><g transform="translate(31.144578, 31.181102)" id="Path"><path d="M6.65361446,15.9685039 C10.0983936,15.9685039 12.8825301,18.7559055 12.8825301,22.2047244 C12.8825301,25.6535433 10.0983936,28.4409449 6.65361446,28.4409449 C3.20883534,28.4409449 0.424698795,25.6535433 0.424698795,22.2047244 L0.424698795,15.9685039 L6.65361446,15.9685039 Z"></path><path d="M6.65361446,12.8503937 C3.20883534,12.8503937 0.424698795,10.0629921 0.424698795,6.61417323 C0.424698795,3.16535433 3.20883534,0.377952756 6.65361446,0.377952756 L22.2730924,0.377952756 C25.7178715,0.377952756 28.502008,3.16535433 28.502008,6.61417323 C28.502008,10.0629921 25.7178715,12.8503937 22.2730924,12.8503937 L6.65361446,12.8503937 Z"></path></g></g></g></g></svg> 