<svg height="511pt" viewBox="-46 1 511 511.999" width="511pt" xmlns="http://www.w3.org/2000/svg"><path d="m66.964844 158c0-4.144531-3.355469-7.5-7.5-7.5h-43.964844v-46.035156l36.359375 24.640625c2.417969 1.640625 5.382813 2.457031 8.347656 2.457031 2.964844 0 5.929688-.816406 8.347657-2.457031l36.363281-24.640625v46.035156h-9.453125c-4.144532 0-7.5 3.355469-7.5 7.5s3.355468 7.5 7.5 7.5h11.953125c6.890625 0 12.5-5.605469 12.5-12.5v-57.675781c0-6.894531-5.609375-12.5-12.5-12.5h-94.417969c-6.894531 0-12.5 5.605469-12.5 12.5v57.675781c0 6.894531 5.605469 12.5 12.5 12.5h46.464844c4.144531 0 7.5-3.355469 7.5-7.5zm21.011718-60.175781-27.628906 18.722656c-.085937.007813-.191406.007813-.28125 0l-27.628906-18.722656zm0 0"/><path d="m112.578125 68.722656h72.890625c6.894531 0 12.5-5.605468 12.5-12.5v-43.722656c0-6.894531-5.605469-12.5-12.5-12.5h-72.890625c-6.894531 0-12.5 5.605469-12.5 12.5v43.722656c0 6.894532 5.605469 12.5 12.5 12.5zm53.449219-53.722656-16.863282 11.425781c-.074218.011719-.207031.011719-.285156 0l-16.863281-11.425781zm-50.949219 6.640625 25.597656 17.347656c2.328125 1.578125 5.292969 2.449219 8.347657 2.449219 3.050781 0 6.015624-.871094 8.34375-2.449219l25.601562-17.347656v32.082031h-67.890625zm0 0"/><path d="m247.335938 487.644531h30.980468c4.140625 0 7.5-3.359375 7.5-7.5 0-4.144531-3.359375-7.5-7.5-7.5h-30.980468c-4.144532 0-7.5 3.355469-7.5 7.5 0 4.140625 3.355468 7.5 7.5 7.5zm0 0"/><path d="m412.929688 212.5c4.144531 0 7.5-3.355469 7.5-7.5v-15c0-6.894531-5.605469-12.5-12.5-12.5h-37.816407v-55.347656c0-12.203125-9.949219-22.128906-22.175781-22.128906h-170.226562c-12.226563 0-22.175782 9.925781-22.175782 22.128906v59.085937h-93.40625c-6.890625 0-12.5 5.609375-12.5 12.5v88.691407c0 6.890624 5.609375 12.5 12.5 12.5h93.40625v194.9375c0 12.203124 9.949219 22.132812 22.175782 22.132812h170.226562c12.226562 0 22.175781-9.929688 22.175781-22.132812v-157.082032h37.816407c6.894531 0 12.5-5.605468 12.5-12.5v-79.285156c0-4.144531-3.355469-7.5-7.5-7.5-4.144532 0-7.5 3.355469-7.5 7.5v76.785156h-85.179688c-4.414062 0-10.125 1.992188-13.578125 4.738282l-34.023437 27.007812v-19.246094c0-6.890625-5.605469-12.5-12.5-12.5h-22.070313v-125.285156h167.351563v12.5c0 4.144531 3.355468 7.5 7.5 7.5zm-257.394532 67.429688h-90.90625v-77.046876l60.285156 40.851563c2.332032 1.578125 5.296876 2.449219 8.347657 2.449219 3.054687 0 6.019531-.871094 8.347656-2.449219l13.929687-9.4375v45.632813zm0-63.753907-22.128906 14.996094c-.078125.011719-.210938.011719-.285156 0l-51.554688-34.933594h73.96875zm199.578125 273.695313c0 3.929687-3.222656 7.128906-7.179687 7.128906h-170.222656c-3.957032 0-7.175782-3.199219-7.175782-7.128906v-23.703125h184.578125zm0-312.371094h-119.535156c-6.894531 0-12.5 5.605469-12.5 12.5v130.285156c0 6.894532 5.605469 12.5 12.5 12.5h22.070313v27.277344c0 4.238281 2.015624 7.742188 5.390624 9.371094 1.253907.605468 2.589844.90625 3.949219.90625 2.300781 0 4.652344-.855469 6.738281-2.511719l42.273438-33.558594c.820312-.652343 3.203125-1.484375 4.25-1.484375h34.863281v118.382813h-184.578125v-329.015625c0-3.929688 3.21875-7.128906 7.175782-7.128906h16.746093l4.503907 14.109374c2.640624 8.273438 11.191406 14.515626 19.890624 14.515626h7.609376c4.144531 0 7.5-3.355469 7.5-7.5 0-4.140626-3.355469-7.5-7.5-7.5h-7.609376c-2.128906 0-4.957031-2.058594-5.601562-4.074219l-3.046875-9.550781h105.242187l-3.046874 9.550781c-.644532 2.019531-3.472657 4.074219-5.601563 4.074219h-43.332031c-4.144532 0-7.5 3.359374-7.5 7.5 0 4.144531 3.355468 7.5 7.5 7.5h43.332031c8.703125 0 17.253906-6.242188 19.894531-14.515626l4.5-14.109374h16.746094c3.957031 0 7.175781 3.199218 7.175781 7.128906zm0 0"/><path d="m379.359375 210.5h-115.207031c-4.144532 0-7.5 3.355469-7.5 7.5 0 4.140625 3.355468 7.5 7.5 7.5h115.203125c4.144531 0 7.5-3.359375 7.5-7.5.003906-4.144531-3.355469-7.5-7.496094-7.5zm0 0"/><path d="m379.359375 235.480469h-115.207031c-4.144532 0-7.5 3.355469-7.5 7.5 0 4.140625 3.355468 7.5 7.5 7.5h115.203125c4.144531 0 7.5-3.359375 7.5-7.5 0-4.144531-3.355469-7.5-7.496094-7.5zm0 0"/><path d="m386.859375 267.960938c0-4.144532-3.359375-7.5-7.5-7.5h-115.207031c-4.144532 0-7.5 3.355468-7.5 7.5 0 4.140624 3.355468 7.5 7.5 7.5h115.203125c4.144531 0 7.503906-3.359376 7.503906-7.5zm0 0"/><path d="m264.152344 285.441406c-4.144532 0-7.5 3.355469-7.5 7.5 0 4.140625 3.355468 7.5 7.5 7.5h59.515625c4.140625 0 7.5-3.359375 7.5-7.5 0-4.144531-3.359375-7.5-7.5-7.5zm0 0"/><path d="m197.824219 389.5c-6.894531 0-12.5 5.605469-12.5 12.5v22c0 6.894531 5.605469 12.5 12.5 12.5h22c6.890625 0 12.5-5.605469 12.5-12.5v-22c0-6.894531-5.609375-12.5-12.5-12.5zm19.5 32h-17v-17h17zm0 0"/><path d="m251.824219 436.5h22c6.890625 0 12.5-5.605469 12.5-12.5v-22c0-6.894531-5.609375-12.5-12.5-12.5h-22c-6.894531 0-12.5 5.605469-12.5 12.5v22c0 6.894531 5.609375 12.5 12.5 12.5zm2.5-32h17v17h-17zm0 0"/><path d="m305.824219 436.5h22c6.890625 0 12.5-5.605469 12.5-12.5v-22c0-6.894531-5.609375-12.5-12.5-12.5h-22c-6.894531 0-12.5 5.605469-12.5 12.5v22c0 6.894531 5.609375 12.5 12.5 12.5zm2.5-32h17v17h-17zm0 0"/></svg>