<?xml version="1.0" encoding="iso-8859-1"?>
<!-- Generator: Adobe Illustrator 19.0.0, SVG Export Plug-In . SVG Version: 6.00 Build 0)  -->
<svg version="1.1" id="Capa_1" xmlns="http://www.w3.org/2000/svg" xmlns:xlink="http://www.w3.org/1999/xlink" x="0px" y="0px"
	 viewBox="0 0 59 59" style="enable-background:new 0 0 59 59;" xml:space="preserve">
<line style="fill:none;stroke:#424A60;stroke-width:2;stroke-linecap:round;stroke-miterlimit:10;" x1="48.515" y1="13.615" x2="52.05" y2="10.08"/>
<rect x="50.464" y="5.665" transform="matrix(0.7071 -0.7071 0.7071 0.7071 9.5322 40.3433)" style="fill:#AFB6BB;" width="6.001" height="6"/>
<path style="fill:#3083C9;" d="M30.13,6c-2.008,0-3.96,0.235-5.837,0.666V13h-8c-0.553,0-1,0.447-1,1s0.447,1,1,1h8v5h-13
	c-0.553,0-1,0.447-1,1s0.447,1,1,1h13v5h-18c-0.553,0-1,0.447-1,1s0.447,1,1,1h18v5h-22c-0.553,0-1,0.447-1,1s0.447,1,1,1h22v5h-16
	c-0.553,0-1,0.447-1,1s0.447,1,1,1h16v5h-10c-0.553,0-1,0.447-1,1s0.447,1,1,1h10v7.334C26.17,57.765,28.122,58,30.13,58
	c14.359,0,26-11.641,26-26S44.489,6,30.13,6z"/>
<path style="fill:#2B77AA;" d="M44,23.172c-0.348-0.346-0.896-0.39-1.293-0.104L29.76,32.433c-0.844,0.614-1.375,1.563-1.456,2.604
	s0.296,2.06,1.033,2.797c0.673,0.673,1.567,1.044,2.518,1.044c1.138,0,2.216-0.549,2.886-1.47l9.363-12.944
	C44.391,24.067,44.348,23.519,44,23.172z"/>
<path style="fill:#EFCE4A;" d="M43,21.293c-0.348-0.346-0.896-0.39-1.293-0.104L28.76,30.554c-0.844,0.614-1.375,1.563-1.456,2.604
	s0.296,2.06,1.033,2.797C29.01,36.629,29.904,37,30.854,37c1.138,0,2.216-0.549,2.886-1.47l9.363-12.944
	C43.391,22.188,43.348,21.64,43,21.293z"/>
<path style="fill:#424A60;" d="M28.293,6.084C28.954,6.034,29.619,6,30.293,6s1.339,0.034,2,0.084V3h2.5c0.828,0,1.5-0.672,1.5-1.5
	v0c0-0.828-0.672-1.5-1.5-1.5h-9c-0.828,0-1.5,0.672-1.5,1.5v0c0,0.828,0.672,1.5,1.5,1.5h2.5V6.084z"/>
<g>
	<path style="fill:#A1C8EC;" d="M30.293,5c-0.553,0-1,0.447-1,1v3c0,0.553,0.447,1,1,1s1-0.447,1-1V6
		C31.293,5.447,30.846,5,30.293,5z"/>
	<path style="fill:#A1C8EC;" d="M30.293,54c-0.553,0-1,0.447-1,1v3c0,0.553,0.447,1,1,1s1-0.447,1-1v-3
		C31.293,54.447,30.846,54,30.293,54z"/>
	<path style="fill:#A1C8EC;" d="M56.13,31h-3c-0.553,0-1,0.447-1,1s0.447,1,1,1h3c0.553,0,1-0.447,1-1S56.683,31,56.13,31z"/>
	<path style="fill:#A1C8EC;" d="M43.63,8.617c-0.479-0.277-1.09-0.112-1.366,0.366l-1.5,2.599c-0.276,0.479-0.112,1.09,0.366,1.366
		c0.157,0.091,0.329,0.134,0.499,0.134c0.346,0,0.682-0.18,0.867-0.5l1.5-2.599C44.272,9.505,44.108,8.893,43.63,8.617z"/>
	<path style="fill:#A1C8EC;" d="M53.146,44.134l-2.598-1.5c-0.478-0.277-1.09-0.114-1.366,0.366
		c-0.276,0.479-0.112,1.09,0.366,1.366l2.598,1.5C52.304,45.957,52.475,46,52.645,46c0.346,0,0.682-0.179,0.867-0.5
		C53.789,45.021,53.625,44.41,53.146,44.134z"/>
	<path style="fill:#A1C8EC;" d="M42.496,51.419c-0.277-0.48-0.89-0.644-1.366-0.366c-0.479,0.276-0.643,0.888-0.366,1.366l1.5,2.598
		c0.186,0.321,0.521,0.5,0.867,0.5c0.17,0,0.342-0.043,0.499-0.134c0.479-0.276,0.643-0.888,0.366-1.366L42.496,51.419z"/>
	<path style="fill:#A1C8EC;" d="M50.05,21.5c0.17,0,0.342-0.043,0.499-0.134l2.598-1.5c0.479-0.276,0.643-0.888,0.366-1.366
		c-0.276-0.479-0.89-0.644-1.366-0.366l-2.598,1.5C49.07,19.91,48.906,20.521,49.183,21C49.368,21.321,49.704,21.5,50.05,21.5z"/>
</g>
<g>
</g>
<g>
</g>
<g>
</g>
<g>
</g>
<g>
</g>
<g>
</g>
<g>
</g>
<g>
</g>
<g>
</g>
<g>
</g>
<g>
</g>
<g>
</g>
<g>
</g>
<g>
</g>
<g>
</g>
</svg>
