<?xml version="1.0" encoding="iso-8859-1"?>
<!-- Generator: Adobe Illustrator 19.0.0, SVG Export Plug-In . SVG Version: 6.00 Build 0)  -->
<svg version="1.1" id="Capa_1" xmlns="http://www.w3.org/2000/svg" xmlns:xlink="http://www.w3.org/1999/xlink" x="0px" y="0px"
	 viewBox="0 0 512 512" style="enable-background:new 0 0 512 512;" xml:space="preserve">
<path style="fill:#55CEED;" d="M512,256c0,17.387-1.735,34.367-5.036,50.772c-8.976,44.617-29.55,85.023-58.441,117.958
	C401.607,478.229,332.748,512,256,512C114.615,512,0,397.385,0,256S114.615,0,256,0S512,114.615,512,256z"/>
<path style="fill:#21ABD9;" d="M463.547,207.555c0,12.801-1.161,25.339-3.38,37.503c-0.025,0.144-0.051,0.297-0.085,0.441
	c-5.371,29.091-16.816,56.048-32.962,79.523c-5.176,7.532-10.836,14.699-16.943,21.467c-18.011,19.993-39.859,36.453-64.383,48.246
	c-5.515,2.652-11.166,5.066-16.943,7.235c-9.318,3.49-18.951,6.336-28.854,8.472c-9.073,1.949-18.366,3.321-27.829,4.049
	c-5.337,0.406-10.733,0.619-16.172,0.619c-5.43,0-10.809-0.204-16.138-0.619c-1.398-0.11-2.795-0.229-4.193-0.365
	c-3.702-0.365-7.371-0.813-11.013-1.372c-58.606-8.879-109.173-42.265-140.916-89.384c-3.465-5.142-6.709-10.446-9.708-15.901
	c-16.308-29.642-25.584-63.69-25.584-99.913c0-114.628,92.925-207.553,207.553-207.553S463.547,92.927,463.547,207.555z"/>
<path style="fill:#474F70;" d="M305.293,194.5H290.79v-57.422c0-67.586-54.986-122.572-122.572-122.572
	S45.646,69.492,45.646,137.078V194.5H31.143v-57.422c0-75.583,61.491-137.075,137.075-137.075s137.075,61.491,137.075,137.075V194.5
	z"/>
<path style="fill:#FCC72E;" d="M310.266,394.451v111.794c-11.191,2.403-22.653,4.096-34.325,4.995h-39.852
	c-1.724-0.136-3.448-0.282-5.172-0.449c-4.566-0.449-9.091-1.003-13.584-1.693c-80.175-12.142-148.146-61.471-185.783-129.86
	c2.111-2.602,4.765-4.786,7.858-6.353l66.226-33.604l62.579-8.014l8.673,1.108h0.01l53.917,6.907l66.215,33.604
	C305.146,377.012,310.266,385.34,310.266,394.451z"/>
<path style="fill:#F9AC28;" d="M176.884,332.374l-53.906,6.907l-66.215,33.604c-8.119,4.127-13.239,12.455-13.239,21.567v4.399
	c-4.274-6.343-8.276-12.884-11.975-19.613c2.111-2.602,4.765-4.786,7.858-6.353l66.226-33.604l62.579-8.014L176.884,332.374z"/>
<rect x="125.743" y="291.725" style="fill:#FECD9C;" width="87.845" height="56.477"/>
<g>
	<circle style="fill:#EAB689;" cx="73.394" cy="196.629" r="27.147"/>
	<circle style="fill:#EAB689;" cx="263.043" cy="196.629" r="27.147"/>
	<path style="fill:#EAB689;" d="M148.9,291.722L148.9,291.722l-23.16-0.001v0.001h-0.001v23.884c0,0,0.001,0,0.001,0.001v23.631
		h23.16l0,0c0-8.001,6.663-14.434,14.655-14.058c1.544,0.073,3.099,0.11,4.661,0.11c16.373,0,31.808-4.026,45.368-11.137v-22.431
		H148.9V291.722z"/>
</g>
<path style="fill:#FECD9C;" d="M266.015,119.135L70.422,108.723v109.102c0,54.012,43.785,97.796,97.796,97.796l0,0
	c54.012,0,97.796-43.785,97.796-97.796v-98.69H266.015z"/>
<path style="fill:#EAB689;" d="M182.154,64.252l-59.914,5.187c-9.14,0-17.566,3.049-24.324,8.179h-4.054v3.521
	c-7.347,7.295-11.897,17.403-11.897,28.575l-15.37,54.724c0,7.123-2.937,13.039,3.829,14.266v39.12
	c0,54.012,43.785,97.796,97.796,97.796l0,0c3.646,0,7.242-0.206,10.783-0.595c-48.937-5.369-87.013-46.835-87.013-97.202v-57.707
	c0-9.025,7.024-16.663,16.041-17.018c0.284-0.012,0.569-0.017,0.856-0.017l0,0c9.202,0,18.159,3.09,25.329,8.858
	c9.305,7.486,21.226,13.534,34.003,11.965c25.448-3.122,24.697-19.932,34.003-27.418c7.171-5.768,16.127-8.858,25.329-8.858h0.397
	c11.763,0,20.946-4.393,20.964,7.371c0.011,7.919,6.251,44.056,14.17,44.234c4.133,0.093,7.891-1.545,10.587-4.245
	c2.623-2.623-0.714-6.247-0.714-10.254l-3.568-13.372"/>
<path style="fill:#474F70;" d="M277.914,115.481v49.265c0,4.006-1.622,7.631-4.244,10.254c-2.697,2.702-6.455,4.338-10.586,4.244
	c-7.929-0.179-14.171-6.862-14.171-14.791v-7.447c0-5.901-2.39-11.236-6.257-15.103c-3.867-3.867-9.202-6.257-15.103-6.257
	c-9.202,0-18.157,3.089-25.331,8.861c-9.302,7.483-21.127,11.964-34.004,11.964c-12.872,0-24.697-4.483-33.999-11.964
	c-1.23-0.992-2.514-1.899-3.843-2.727c-0.015-0.015-0.034-0.025-0.049-0.034c-2.529-1.577-5.216-2.856-8.012-3.833
	c-4.293-1.492-8.83-2.266-13.437-2.266c-11.791,0-21.35,9.574-21.35,21.37v7.735c0,4.001-1.622,7.631-4.25,10.254
	c-2.623,2.623-6.247,4.244-10.254,4.244c-8.007,0-14.498-6.49-14.498-14.503v-49.265c0-43.137,34.965-78.107,78.103-78.107h63.178
	C242.944,37.373,277.914,72.344,277.914,115.481z"/>
<path style="fill:#323B5B;" d="M112.982,115.481c0-43.137,34.965-78.107,78.102-78.107h-54.455
	c-43.137,0-78.103,34.971-78.103,78.107v49.266c0,8.012,6.491,14.503,14.498,14.503c4.006,0,7.631-1.622,10.254-4.244
	c2.628-2.623,4.25-6.253,4.25-10.254v-7.734c0-11.796,9.56-21.37,21.35-21.37c1.377,0,2.744,0.091,4.104,0.228
	C112.982,135.875,112.982,115.481,112.982,115.481z"/>
<path style="fill:#EAB689;" d="M146.992,191.974c-0.544,4.508-4.523,7.816-9.063,7.816h-23.594c-2.464,0-4.696-0.997-6.312-2.613
	c-1.851-1.856-2.896-4.521-2.545-7.421c0.544-4.508,4.523-7.816,9.063-7.816h23.594c2.464,0,4.696,0.997,6.312,2.613
	C146.296,186.409,147.342,189.075,146.992,191.974z"/>
<path style="fill:#FFFFFF;" d="M146.992,198.233c-0.544,4.508-4.523,7.816-9.063,7.816h-23.594c-2.464,0-4.696-0.997-6.312-2.613
	c-1.851-1.856-2.896-4.521-2.545-7.421c0.544-4.508,4.523-7.816,9.063-7.816h23.594c2.464,0,4.696,0.997,6.312,2.613
	C146.296,192.668,147.342,195.333,146.992,198.233z"/>
<path style="fill:#EAB689;" d="M228.374,181.941h-23.799c-4.929,0-8.924,3.996-8.924,8.924l0,0c0,4.929,3.996,8.924,8.924,8.924
	h23.799c4.929,0,8.924-3.996,8.924-8.924l0,0C237.298,185.936,233.303,181.941,228.374,181.941z"/>
<path style="fill:#FFFFFF;" d="M228.374,188.199h-23.799c-4.929,0-8.924,3.996-8.924,8.924l0,0c0,4.929,3.996,8.924,8.924,8.924
	h23.799c4.929,0,8.924-3.996,8.924-8.924l0,0C237.298,192.194,233.303,188.199,228.374,188.199z"/>
<path style="fill:#EAB689;" d="M236.094,164.112h-39.238c-2.778,0-5.03,2.252-5.03,5.03l0,0c0,2.778,2.252,5.03,5.03,5.03h39.238
	c2.778,0,5.03-2.252,5.03-5.03l0,0C241.124,166.363,238.872,164.112,236.094,164.112z"/>
<g>
	<path style="fill:#474F70;" d="M138.104,194.179c0,6.555-5.315,11.87-11.87,11.87c-6.555,0-11.87-5.315-11.87-11.87
		c0-2.182,0.59-4.225,1.622-5.98h20.498C137.515,189.954,138.104,191.997,138.104,194.179z"/>
	<path style="fill:#474F70;" d="M228.345,194.179c0,6.555-5.315,11.87-11.87,11.87s-11.87-5.315-11.87-11.87
		c0-2.182,0.59-4.225,1.622-5.98h20.498C227.755,189.954,228.345,191.997,228.345,194.179z"/>
	<path style="fill:#474F70;" d="M261.086,276.626h-31.951v-9.668h31.951c7.97,0,14.456-6.486,14.456-14.456v-30.695h9.668v30.695
		C285.21,265.803,274.388,276.626,261.086,276.626z"/>
</g>
<g>
	<path style="fill:#EAB689;" d="M106.782,164.112c-2.77,0-5.145,2.167-5.196,4.936c-0.051,2.821,2.219,5.124,5.029,5.124h27.566
		c10.945,0,19.819,8.873,19.819,19.819v49.101h4.994c6.416,0,11.616-5.2,11.616-11.616v-52.229c0-8.358-6.776-15.134-15.134-15.134
		H106.782z"/>
	<path style="fill:#EAB689;" d="M184.995,259.529c-10.894,3.589-22.66,3.589-33.554,0c-2.911-0.949-6.237,0.188-7.532,2.912l0,0
		c-1.294,2.715,0.494,6.257,4.118,7.448c13.11,4.32,27.271,4.32,40.38,0c3.625-1.19,5.41-4.734,4.118-7.448l0,0
		C191.233,259.716,187.905,258.58,184.995,259.529z"/>
	<path style="fill:#EAB689;" d="M174.125,280.405h-11.814c-3.012,0-5.454,2.442-5.454,5.454l0,0c0,3.012,2.442,5.454,5.454,5.454
		h11.814c3.012,0,5.454-2.442,5.454-5.454l0,0C179.579,282.847,177.137,280.405,174.125,280.405z"/>
</g>
<g>
	<path style="fill:#F9AC28;" d="M119.895,321.55l43.35,18.579c4.468,1.915,6.301,7.274,3.939,11.523l-14.039,25.271
		c-2.724,4.903-9.454,5.687-13.233,1.543l-35.726-39.184c-3.294-3.612-2.717-9.286,1.237-12.161l6.415-4.665
		C114.176,320.754,117.236,320.411,119.895,321.55z"/>
	<path style="fill:#F9AC28;" d="M216.543,321.55l-43.35,18.579c-4.468,1.915-6.301,7.274-3.939,11.523l14.039,25.271
		c2.724,4.903,9.454,5.687,13.233,1.543l35.726-39.184c3.294-3.612,2.717-9.286-1.237-12.161l-6.415-4.665
		C222.261,320.754,219.201,320.411,216.543,321.55z"/>
</g>
<path style="fill:#474F70;" d="M290.803,154.801H279.41c-7.398,0-13.395,5.997-13.395,13.395v52.611
	c0,7.398,5.997,13.395,13.395,13.395h11.394V154.801z"/>
<path style="fill:#55CEED;" d="M292.77,154.801L292.77,154.801c-6.845,0-12.394,5.549-12.394,12.394v54.612
	c0,6.845,5.549,12.394,12.394,12.394l0,0c12.667,0,22.937-10.269,22.937-22.937v-33.526
	C315.706,165.07,305.438,154.801,292.77,154.801z"/>
<path style="fill:#474F70;" d="M45.634,154.801h11.394c7.398,0,13.395,5.997,13.395,13.395v52.611
	c0,7.398-5.997,13.395-13.395,13.395H45.634V154.801z"/>
<path style="fill:#55CEED;" d="M43.666,154.801L43.666,154.801c6.845,0,12.394,5.549,12.394,12.394v54.612
	c0,6.845-5.549,12.394-12.394,12.394l0,0c-12.667,0-22.937-10.269-22.937-22.937v-33.526
	C20.73,165.07,30.999,154.801,43.666,154.801z"/>
<path style="fill:#17A3BF;" d="M31.876,211.263v-33.526c0-10.427,6.96-19.223,16.485-22.011c-1.448-0.593-3.032-0.927-4.694-0.927
	l0,0c-12.667,0-22.937,10.269-22.937,22.937v33.526c0,12.667,10.269,22.937,22.937,22.937l0,0c1.662,0,3.245-0.332,4.694-0.927
	C38.836,230.486,31.876,221.69,31.876,211.263z"/>
<circle style="fill:#55CEED;" cx="229.136" cy="271.788" r="10.636"/>
<g>
	<circle style="fill:#FFFFFF;" cx="168.218" cy="403.446" r="10.152"/>
	<circle style="fill:#FFFFFF;" cx="168.218" cy="442.128" r="10.152"/>
</g>
<circle style="fill:#FCC72E;" cx="419.558" cy="92.442" r="92.442"/>
<path style="fill:#FF4F6F;" d="M506.964,306.772c-8.976,44.617-29.55,85.023-58.441,117.958c-9.112,3.02-18.85,4.639-28.965,4.639
	c-51.054,0-92.432-41.388-92.432-92.442c0-51.043,41.378-92.432,92.432-92.432C460.048,244.496,494.467,270.535,506.964,306.772z"/>
<path style="fill:#55CEED;" d="M392.386,119.611c12.446,12.443,26.713,20.819,39.953,24.433c1.815,0.496,3.609,0.902,5.379,1.216
	c12.342,2.2,23.394-0.037,30.666-7.31l2.514-2.516c0.266-0.266,0.508-0.546,0.726-0.84c2.309-3.063,2.066-7.44-0.726-10.232
	l-14.449-14.449c-2.792-2.79-7.167-3.033-10.232-0.726c-0.294,0.218-0.574,0.46-0.84,0.726l-10.819,10.819
	c-8.179-4.234-16.775-10.525-24.77-18.517l-0.002-0.004l0.003,0.003l-0.004-0.002c-7.991-7.996-14.283-16.59-18.517-24.77
	l10.819-10.819c0.266-0.266,0.508-0.546,0.726-0.84c2.307-3.066,2.064-7.44-0.726-10.232l-14.449-14.449
	c-2.792-2.792-7.169-3.035-10.232-0.726c-0.294,0.218-0.574,0.46-0.84,0.726l-2.516,2.514c-7.274,7.271-9.51,18.323-7.31,30.666
	c0.315,1.769,0.72,3.564,1.216,5.379c3.614,13.24,11.99,27.507,24.433,39.953L392.386,119.611z"/>
<g>
	<path style="fill:#474F70;" d="M387.636,41.101l14.449,14.449c2.791,2.791,3.033,7.166,0.728,10.232
		c-0.219,0.293-0.461,0.574-0.726,0.839l-5.475,5.475c0.265-0.265,0.507-0.545,0.726-0.839c2.306-3.066,2.063-7.441-0.728-10.232
		l-14.449-14.449c-2.699-2.699-6.875-3.018-9.921-0.952c0.563-0.699,1.166-1.369,1.807-2.009l2.518-2.515
		c0.265-0.265,0.545-0.507,0.839-0.726C380.469,38.066,384.844,38.309,387.636,41.101z"/>
	<path style="fill:#474F70;" d="M470.897,124.362l-14.449-14.449c-2.791-2.791-7.166-3.033-10.232-0.728
		c-0.293,0.219-0.574,0.461-0.839,0.726l-5.475,5.475c0.265-0.265,0.545-0.507,0.839-0.726c3.066-2.306,7.441-2.063,10.232,0.728
		l14.449,14.449c2.699,2.699,3.018,6.875,0.952,9.921c0.699-0.563,1.369-1.166,2.009-1.807l2.515-2.518
		c0.265-0.265,0.507-0.545,0.726-0.839C473.932,131.529,473.689,127.154,470.897,124.362z"/>
</g>
<rect x="361.242" y="305.424" style="fill:#EDEDED;" width="120.33" height="65.484"/>
<path style="fill:#BFBFBF;" d="M481.573,305.426h-3.115l-57.259,38.333l-57.259-38.332h-2.699v2.37l45.372,30.373l-45.372,30.375
	v2.368h2.704l45.785-30.653l10.503,7.031c0.294,0.194,0.63,0.29,0.967,0.29s0.673-0.096,0.963-0.29l10.503-7.033l45.791,30.656
	h3.118v-2.088l-45.791-30.656l45.791-30.653v-2.091H481.573z"/>
<g>
</g>
<g>
</g>
<g>
</g>
<g>
</g>
<g>
</g>
<g>
</g>
<g>
</g>
<g>
</g>
<g>
</g>
<g>
</g>
<g>
</g>
<g>
</g>
<g>
</g>
<g>
</g>
<g>
</g>
</svg>
