<svg width="200" height="49" viewBox="0 0 200 49" fill="none" xmlns="http://www.w3.org/2000/svg" xmlns:xlink="http://www.w3.org/1999/xlink">
<path d="M131.311 18.3525L127.638 29.1371L123.677 18.3525H120.579L116.644 29.1327L112.965 18.3239L109.629 18.3261C108.458 18.3261 105.367 18.3239 105.367 18.3239L98.9769 24.4208V12.4758H95.6213V34.4017H99.0012V28.7826L100.668 27.2083L106.452 34.4171H110.68L103.119 24.8634L109.383 18.969L115 34.4127H118.245L122.129 23.7514L126.02 34.4281H129.285L135.098 18.3481H131.311V18.3525Z" fill="#a5b4fc"/>
<path d="M180.469 17.9891C177.349 18.2269 175.022 19.8277 173.736 22.6196C172.172 26.0126 172.586 29.2515 174.934 31.9884C176.563 33.8908 178.633 34.8464 181.105 34.8464C181.962 34.8464 182.867 34.7319 183.818 34.5029C185.615 34.0691 187.123 33.1201 188.305 31.6801L188.68 31.2244L186.068 28.875L185.659 29.3792C183.732 31.7506 181.066 31.7594 179.368 31.046C177.759 30.3723 176.605 28.8376 176.448 27.2567H188.999L189.072 26.7238C189.296 25.0901 188.84 23.0203 187.935 21.5715C186.293 18.9425 183.785 17.7337 180.469 17.9891ZM176.768 23.9605C177.386 22.4082 179.181 21.2589 181.182 21.2368H181.242C183.173 21.2368 184.793 22.3223 185.421 23.9627L176.768 23.9605Z" fill="#a5b4fc"/>
<path d="M199.204 17.9165C197.018 17.9209 195.294 18.5793 193.977 19.9224V18.1675H190.624V34.4082H193.995C193.995 34.4082 193.991 28.318 194.002 26.6159C194.004 26.1007 194.046 25.6229 194.125 25.1958C194.539 22.9367 195.913 21.5693 197.989 21.3426C198.253 21.3139 198.524 21.3073 198.81 21.2985C198.951 21.2941 199.092 21.2897 199.233 21.2853L199.823 21.2589V17.9165H199.204Z" fill="#a5b4fc"/>
<path d="M85.3542 22.9015C84.9622 20.5213 83.6147 18.9646 81.4547 18.3965C80.2437 18.0795 78.9711 17.9473 77.7777 18.0134C75.3711 18.1477 73.4202 19.253 71.9736 21.2963L71.6345 21.7741L74.0874 23.7162L74.4771 23.344C76.287 21.6068 76.549 21.4769 77.7755 21.2501C79.2199 20.9837 80.5079 21.3095 81.3094 22.1462C81.9347 22.8002 82.2078 23.7007 82.1021 24.7246C82.0074 24.707 81.9105 24.6894 81.8158 24.6718C79.4334 24.2622 76.8815 24.0112 74.356 24.9426C72.1035 25.7727 70.9189 27.6046 71.0246 30.1015C71.1171 32.3033 72.5087 34.0472 74.5696 34.5448C75.4657 34.7628 76.3156 34.8707 77.1215 34.8707C79.0371 34.8707 80.6973 34.2541 82.1373 33.0101V34.4171H85.5105L85.5127 30.8193C85.5149 28.9521 85.5171 27.0872 85.5039 25.22C85.4995 24.5132 85.4841 23.6919 85.3542 22.9015ZM78.3854 31.5173C77.5289 31.6031 76.5821 31.5371 75.7167 31.3279C74.9461 31.1407 74.5057 30.5617 74.4771 29.6963C74.4485 28.8707 74.8206 28.3026 75.5846 28.0053C76.2188 27.7587 76.9057 27.5958 77.5685 27.5385C77.8657 27.5121 78.1674 27.4989 78.4734 27.4989C79.5766 27.4989 80.7303 27.6684 81.9678 28.0097C81.7278 29.8571 80.2591 31.3279 78.3854 31.5173Z" fill="#a5b4fc"/>
<path d="M145.839 18.5462C143.786 17.7294 141.642 17.7029 139.46 18.4714C137.934 19.0086 136.71 19.9686 135.822 21.3271L135.512 21.8005L138.112 23.8438L138.484 23.2978C139.55 21.7323 140.997 21.0717 143.044 21.2082C144.632 21.3161 145.632 22.1572 145.863 23.573C145.918 23.9187 145.907 24.304 145.891 24.7136C145.832 24.7026 145.77 24.6916 145.711 24.6805C143.331 24.2644 140.781 24.009 138.255 24.9315C136.021 25.7484 134.715 27.686 134.849 29.987C134.992 32.4508 136.384 34.0934 138.764 34.6108C139.555 34.7826 140.305 34.8684 141.019 34.8684C142.906 34.8684 144.537 34.2673 145.953 33.0541V34.4149L149.322 34.3994C149.322 34.3994 149.355 25.7947 149.262 23.3616C149.179 21.1048 147.961 19.3939 145.839 18.5462ZM142.254 31.5128C141.378 31.5965 140.409 31.515 139.453 31.2706C138.581 31.0482 138.37 30.3018 138.346 29.7139C138.313 28.9015 138.65 28.3576 139.372 28.0471C139.979 27.7873 140.631 27.6134 141.259 27.5407C141.547 27.5077 141.862 27.4923 142.195 27.4923C143.388 27.4923 144.791 27.6949 145.85 28.0273C145.574 29.8967 144.123 31.3323 142.254 31.5128Z" fill="#a5b4fc"/>
<path d="M173.771 18.3437H169.158L162.823 24.3856V12.478H159.433V34.4325H162.804V28.8068L164.479 27.2061L170.261 34.4083H174.487L166.932 24.8656L173.771 18.3437Z" fill="#a5b4fc"/>
<path d="M75.0495 12.4714H57.2345V15.9724H64.4081V34.4215H67.9817V15.9569H75.0495V12.4714Z" fill="#a5b4fc"/>
<path d="M91.6184 12.478H88.2628V34.4105H93.6947V31.0879H91.6184V12.478Z" fill="#a5b4fc"/>
<path d="M155.474 12.4449H152.096V34.4038H157.506V31.0703H155.474V12.4449Z" fill="#a5b4fc"/>
<rect y="1" width="46.0208" height="47" fill="url(#pattern0)"/>
<defs>
<pattern id="pattern0" patternContentUnits="objectBoundingBox" width="1" height="1">
<use xlink:href="#image0_1_2" transform="matrix(0.00333333 0 0 0.00326389 0 -0.0107986)"/>
</pattern>
</defs>
</svg>
