<?xml version="1.0" encoding="iso-8859-1"?>
<!-- Generator: Adobe Illustrator 19.0.0, SVG Export Plug-In . SVG Version: 6.00 Build 0)  -->
<svg version="1.1" id="Layer_1" xmlns="http://www.w3.org/2000/svg" xmlns:xlink="http://www.w3.org/1999/xlink" x="0px" y="0px"
	 viewBox="0 0 508 508" style="enable-background:new 0 0 508 508;" xml:space="preserve">
<circle style="fill:#84DBFF;" cx="254" cy="254" r="254"/>
<path style="fill:#F1543F;" d="M441.2,190.8c0,3.2-0.8,6-2.8,8.8c-8.8-4.8-19.2-7.2-30-7.2c-11.2,0-21.6,2-30,7.2
	c-1.6-2.8-2.8-5.6-2.8-8.8c0-12,14.8-22,32.8-22C426.4,168.8,441.2,178.8,441.2,190.8z"/>
<path style="fill:#FF7058;" d="M464.8,254.4c0,12.4-2,25.2-5.2,37.6H357.2c-0.8-3.6-1.6-6.8-2.4-10.4c9.6-17.2,20-45.6,14.8-76
	c10-9.2,23.6-13.2,38.4-13.2C439.6,192.4,464.8,209.6,464.8,254.4z"/>
<path style="fill:#F9B54C;" d="M444.8,328c0,0,2.8,16-15.6,32.4l-57.6-28c0.4-4.4,1.6-8.4,3.2-12c8.8,16,20.8,26.8,34,26.8
	s25.2-11.2,34-26.8C443.6,322.8,444.4,325.2,444.8,328L444.8,328z"/>
<path style="fill:#4CDBC4;" d="M485.6,358.4c-8.8,20-20.4,38.4-34,55.2l-3.2-10.4c2-6,9.6-39.6,4.8-60.8L485.6,358.4z"/>
<g>
	<path style="fill:#FFFFFF;" d="M448.4,403.2l-12.8-40l-6.4-3.2c18.4-16.4,15.6-32.4,15.6-32.4C462.8,341.6,450.8,395.2,448.4,403.2
		z"/>
	<path style="fill:#FFFFFF;" d="M372,328c-0.4,1.2-0.4,2.8-0.8,4.4l-2.4-1.2C369.6,330,370.8,328.8,372,328z"/>
</g>
<path style="fill:#FFD05B;" d="M462.8,296.8c-3.6,7.2-9.6,10.4-13.6,8c-9.2,23.6-24,42-41.2,42s-32-18.4-41.2-42
	c-4,2.4-10-1.2-13.6-8c-1.6-3.2-2.4-6.4-2.8-9.2c2-2.8,4-6.4,6-10.4c0.8,0,1.6,0,2.8,0.4l0,0l0.4,0.4l0,0c0-0.4-1.6-15.2,37.6-31.2
	c14-5.6,22.8-12,28-18c2,8.8,6.8,21.2,19.6,26c0,0,12,2.8,10.8,22.8l0,0c2-0.8,4-0.8,5.6,0.4C466.4,281.2,466.8,289.6,462.8,296.8z"
	/>
<path style="fill:#E6E9EE;" d="M342.8,395.2L342.8,395.2c-0.8,5.6-2,11.6-2.8,18l-14-42.4C332.8,376.4,339.2,384,342.8,395.2z"/>
<path style="fill:#F9B54C;" d="M338.8,304c0,0,4.8,26.4-33.6,49.2L261.6,332c-11.6-15.2-9.2-28-9.2-28s0,0-0.4,0
	c0-0.4,0-0.8,0.4-1.6c12,14.8,26.8,24.4,43.2,24.4s31.2-9.6,43.2-24.4C338.8,303.2,339.2,303.6,338.8,304
	C339.2,304,339.2,304,338.8,304z"/>
<path style="fill:#2B3B4E;" d="M451.6,413.6c-24,29.6-54.4,53.6-89.2,70l-22.8-70.4c1.2-6,2-12,2.8-18c0.4,0.8,12.8-45.6,6-73.6
	l86.4,41.6L451.6,413.6z"/>
<g>
	<path style="fill:#FFFFFF;" d="M342.8,395.2c-3.6-11.2-10-19.2-16.8-24.4l-2.8-8.8l-17.6-8.4c38.4-22.8,33.6-49.2,33.6-49.2
		C362.8,322,343.2,396.4,342.8,395.2z"/>
	<path style="fill:#FFFFFF;" d="M261.6,332l-19.2-9.2c1.6-8,4.8-14.8,10-18.8C252.4,304,250,316.8,261.6,332z"/>
</g>
<path style="fill:#FFD05B;" d="M350.8,269.2c-5.6,17.6-8,27.2-8,28.4l0,0c-12.8,17.2-29.2,29.2-46.8,29.2c-16.8,0-32.4-10.4-44.8-26
	c0,0,0.4,0,0.4,0.4c-12-14.8-14.8-35.6-14.4-53.6l0,0c4.4-10.4,7.6-22.8,9.6-36c16,12,52.8,12.8,52.8,12.8
	c-18.8-3.2-21.6-18-21.6-18c3.2,9.2,44.8,14.8,44.8,14.8C365.2,227.2,350.8,269.2,350.8,269.2z"/>
<g>
	<path style="fill:#2B3B4E;" d="M251.2,301.2c0,0-14-11.2-25.6-30.8c3.6-6,7.6-14,11.2-22.8C236.4,265.6,239.2,286.4,251.2,301.2z"
		/>
	<path style="fill:#2B3B4E;" d="M342.8,298c0,0,2-10,8-28.4c0,0,14.4-42-28.8-48.4c0,0-41.6-5.6-44.8-14.8c0,0,3.2,15.2,21.6,18
		c0,0-36.8-0.8-52.8-12.8c2.4-20,0.8-42-9.6-64c8.4-4.4,19.2-6,34-2c0,0,58.4-23.2,88.4,29.6C390.8,231.6,350.8,292.8,342.8,298z"/>
</g>
<path style="fill:#324A5E;" d="M334.4,239.2H314h-2h-32.4h-1.2h-21.6c-6.4,0-11.6,5.2-11.6,11.6v9.6c0,6.4,5.2,11.6,11.6,11.6h22.4
	c2.8,0,5.6-1.2,7.6-2.8c0.8-0.4,1.2-0.8,1.6-1.6c1.6-3.6,4.4-5.6,7.2-5.6c2.8,0,5.6,2,7.2,5.6c0.4,0.8,0.8,1.2,1.6,1.6
	c2,2,4.8,2.8,7.6,2.8h22.4c6.4,0,11.6-5.2,11.6-11.6v-9.6C346,244.4,340.8,239.2,334.4,239.2z M256.8,266.4c-3.2,0-6-2.8-6-6v-9.6
	c0-3.2,2.8-6,6-6h21.6h1.2c3.2,0,6,2.8,6,6v9.6c0,0.8,0,1.6-0.4,2.4c-0.4,0.4-0.4,0.8-0.8,1.2c-1.2,1.6-2.8,2.4-4.8,2.4H256.8z
	 M295.6,256c-1.6,0-3.2,0.4-4.8,1.2v-6.8c0-2.4-0.8-4.4-1.6-6h13.2c-1.2,1.6-1.6,4-1.6,6v6.8C298.8,256.4,297.2,256,295.6,256z
	 M340.4,260.4c0,3.2-2.8,6-6,6H312c-2,0-3.6-0.8-4.8-2.4c-0.4-0.4-0.4-0.8-0.8-1.2c-0.4-0.8-0.4-1.6-0.4-2.4v-9.6c0-3.2,2.8-6,6-6h2
	h20.4c3.2,0,6,2.8,6,6V260.4z"/>
<g>
	<path style="fill:#E6E9EE;" d="M77.6,436.4c0.4,0.8,1.2,1.2,1.6,1.6C78.8,437.6,78,437.2,77.6,436.4L77.6,436.4z"/>
	<path style="fill:#E6E9EE;" d="M160,355.6c-0.4,0-0.8,0.4-1.2,0.4s-0.8-0.4-1.2-0.4H160z"/>
	<path style="fill:#E6E9EE;" d="M214,399.6c-4.4,29.2-11.6,63.2-23.6,100.4c-26-6.8-50.8-17.6-72.8-31.6c-6.8-24.8-11.2-48-14-68.8
		c12.8-40,55.2-43.6,55.2-43.6S201.6,359.6,214,399.6z"/>
</g>
<path style="fill:#F9B54C;" d="M209.6,292c0,0,6.4,36-50.8,64h-0.4c-57.2-28-50.8-64-50.8-64s0,0-0.4,0c0-0.4,0.4-1.2,0.4-1.6
	c14,17.2,31.6,28.4,50.8,28.4s36.4-11.2,50.8-28.4C209.6,291.2,210,291.6,209.6,292C210,292.4,210,292,209.6,292z"/>
<g>
	<path style="fill:#54C0EB;" d="M159.2,356C159.2,356,158.8,356,159.2,356c-0.4,0-0.4,0-0.4,0H159.2z"/>
	<path style="fill:#54C0EB;" d="M179.2,361.6l-6.8,19.6h-26.8l-6.8-19.6c11.2-4.8,20-5.6,20-5.6S168,356.8,179.2,361.6z"/>
</g>
<path style="fill:#84DBFF;" d="M189.2,499.6l-16.8-118.4h-26.8L132,476.8C149.6,486.4,168.8,494.4,189.2,499.6z"/>
<path style="fill:#324A5E;" d="M117.6,468.4c-44-28-78.8-69.2-98.8-118l77.6-37.2c-8,33.6,6.8,88,7.2,86.8
	C106.4,420.4,111.2,443.2,117.6,468.4z"/>
<g>
	<path style="fill:#FFFFFF;" d="M209.6,292c0,0,6.4,36-50.8,64c0,0,42.8,3.2,55.2,43.6C214.8,400.8,238,313.6,209.6,292z"/>
	<path style="fill:#FFFFFF;" d="M108,292c-28,21.2-4.8,108.8-4.4,107.2c12.8-40,55.2-43.6,55.2-43.6C101.6,328.4,108,292,108,292z"
		/>
</g>
<path style="fill:#FFD05B;" d="M223.6,251.2c-7.2,22-9.6,33.6-9.6,33.6c-14.8,20.4-34,34-55.2,34c-20,0-38-12.4-52.8-30.8l0.4,0.4
	c-31.2-38.4-9.6-109.2-9.6-109.2c15.6,17.6,66,18.8,66,18.8c-22-3.6-25.6-21.2-25.6-21.2c3.6,10.8,52.4,17.2,52.4,17.2
	C240.4,202,223.6,251.2,223.6,251.2z"/>
<g>
	<path style="fill:#324A5E;" d="M129.6,105.6c0,0,68.8-27.6,103.6,34.8c37.6,66.4-9.6,138.8-19.2,144.4c0,0,2.4-11.6,9.6-33.6
		c0,0,16.8-49.2-33.6-56.8c0,0-49.2-6.4-52.4-17.2c0,0,3.6,17.6,25.6,21.2c0,0-50.4-1.2-66-18.8c0,0-21.6,70.8,10,109.2
		c0,0-54-43.2-47.6-110C59.2,178.8,56.4,87.2,129.6,105.6z"/>
	<path style="fill:#324A5E;" d="M362.4,483.6C329.6,499.2,292.8,508,254,508c-22,0-43.2-2.8-63.2-8c12-37.2,19.2-71.2,23.6-100.4
		l0,0c0.8,0,14.8-53.6,7.2-86.8L323.2,362L362.4,483.6z"/>
</g>
<g>
</g>
<g>
</g>
<g>
</g>
<g>
</g>
<g>
</g>
<g>
</g>
<g>
</g>
<g>
</g>
<g>
</g>
<g>
</g>
<g>
</g>
<g>
</g>
<g>
</g>
<g>
</g>
<g>
</g>
</svg>
