<?xml version="1.0" encoding="iso-8859-1"?>
<!-- Generator: Adobe Illustrator 19.0.0, SVG Export Plug-In . SVG Version: 6.00 Build 0)  -->
<svg version="1.1" id="Layer_1" xmlns="http://www.w3.org/2000/svg" xmlns:xlink="http://www.w3.org/1999/xlink" x="0px" y="0px"
	 viewBox="0 0 512.001 512.001" style="enable-background:new 0 0 512.001 512.001;" xml:space="preserve">
<path style="fill:#68EDFF;" d="M496.327,320.307H381.388c-8.656,0-15.673-7.018-15.673-15.673c0-32.319-14.21-62.856-38.984-83.781
	c-5.436-4.591-7.097-12.268-4.045-18.696c4.65-9.795,9.109-19.419,13.097-28.147c-14.221,6.497-30.839,14.251-46.733,22.054
	c-3.16,1.552-6.751,1.994-10.193,1.256c-68.111-14.601-132.57,37.702-132.57,107.315c0,8.656-7.018,15.673-15.673,15.673H15.673
	C7.018,320.307,0,313.289,0,304.633c0-141.497,114.492-256,256-256c141.497,0,256,114.492,256,256
	C512,313.29,504.982,320.307,496.327,320.307z"/>
<path style="fill:#17CEFF;" d="M256,48.633v146.235c7.515,0.014,15.161,0.801,22.857,2.45c3.442,0.739,7.032,0.296,10.193-1.256
	c15.894-7.803,32.511-15.557,46.733-22.054c-3.987,8.728-8.447,18.353-13.097,28.147c-3.052,6.428-1.391,14.105,4.045,18.696
	c24.775,20.924,38.984,51.461,38.984,83.781c0,8.656,7.018,15.673,15.673,15.673h114.939c8.656,0,15.673-7.018,15.673-15.673
	C512,163.125,397.497,48.633,256,48.633z"/>
<path style="fill:#00A3FF;" d="M425.592,112.874L322.745,215.721c0.934,1.927,2.272,3.683,3.986,5.131
	c6.434,5.435,12.15,11.523,17.096,18.117l103.932-103.932C440.545,126.905,433.693,120.057,425.592,112.874z"/>
<path style="fill:#17CEFF;" d="M240.327,49.121v146.923c10.143-1.458,20.63-1.54,31.347,0.001V49.121
	c-5.198-0.311-10.422-0.488-15.673-0.488C250.748,48.633,245.525,48.81,240.327,49.121z"/>
<path style="fill:#00A3FF;" d="M271.673,49.121c-5.198-0.311-10.422-0.488-15.673-0.488v146.29c5.16,0,10.388,0.362,15.673,1.121
	V49.121z"/>
<path style="fill:#17CEFF;" d="M86.409,112.872c-8.102,7.184-14.951,14.03-22.165,22.165L168.166,238.96
	c6.297-8.399,13.767-15.869,22.166-22.164L86.409,112.872z"/>
<path style="fill:#FFDC3E;" d="M208.962,300.816c-25.934-25.933-25.934-68.132,0-94.065c20.34-20.315,125.901-67.034,151.626-78.165
	c12.979-5.627,26.259,7.584,20.615,20.612c-9.38,21.644-57.227,130.678-78.167,151.618
	C277.035,326.821,234.968,326.823,208.962,300.816z"/>
<circle style="fill:#FFAE23;" cx="256" cy="253.785" r="21.409"/>
<g>
	<path style="fill:#3A569B;" d="M385.297,395.539H126.703c-8.656,0-15.673-7.018-15.673-15.673c0-8.656,7.018-15.673,15.673-15.673
		h258.593c8.656,0,15.673,7.018,15.673,15.673C400.97,388.522,393.953,395.539,385.297,395.539z"/>
	<path style="fill:#3A569B;" d="M323.466,463.368H188.533c-8.656,0-15.673-7.018-15.673-15.673c0-8.656,7.018-15.673,15.673-15.673
		h134.933c8.656,0,15.673,7.018,15.673,15.673C339.139,456.35,332.123,463.368,323.466,463.368z"/>
</g>
<path style="fill:#FFAE23;" d="M360.589,128.587c-16.517,7.146-65.938,28.96-104.589,49.039v142.693
	c17.018,0,34.037-6.501,47.038-19.504c20.94-20.94,68.787-129.973,78.167-151.618C386.848,136.172,373.568,122.96,360.589,128.587z"
	/>
<path style="fill:#F7A000;" d="M256,232.377v42.818c11.824,0,21.409-9.585,21.409-21.409S267.824,232.377,256,232.377z"/>
<g>
	<path style="fill:#334A8C;" d="M385.297,364.192H256v31.347h129.297c8.656,0,15.673-7.018,15.673-15.673
		C400.97,371.21,393.953,364.192,385.297,364.192z"/>
	<path style="fill:#334A8C;" d="M323.466,432.021H256v31.347h67.466c8.656,0,15.673-7.018,15.673-15.673
		C339.139,439.038,332.123,432.021,323.466,432.021z"/>
</g>
<g>
</g>
<g>
</g>
<g>
</g>
<g>
</g>
<g>
</g>
<g>
</g>
<g>
</g>
<g>
</g>
<g>
</g>
<g>
</g>
<g>
</g>
<g>
</g>
<g>
</g>
<g>
</g>
<g>
</g>
</svg>
