<svg height="374pt" viewBox="-41 0 374 374.10622" width="374pt" xmlns="http://www.w3.org/2000/svg"><path d="m287.664062 75.746094-140.605468-74.921875c-2.085938-1.113281-4.585938-1.097657-6.65625.039062l-136.714844 74.921875c-2.242188 1.230469-3.6328125 3.582032-3.6328125 6.140625v97.867188c.0820315 80.449219 47.7460935 153.230469 121.4570315 185.460937l18.976562 8.269532c1.773438.773437 3.792969.777343 5.570313.007812l21.382812-9.234375c75.078125-31.53125 123.921875-105.015625 123.929688-186.445313v-95.925781c0-2.585937-1.425782-4.964843-3.707032-6.179687zm-10.292968 102.105468c-.015625 75.816407-45.503906 144.226563-115.410156 173.566407l-.046876.023437-18.621093 8.039063-16.179688-7.058594c-68.613281-30-112.984375-97.742187-113.0625-172.628906v-93.722657l129.761719-71.117187 133.558594 71.167969zm0 0"/><path d="m92.167969 175.253906c-2.511719-2.941406-6.929688-3.289062-9.871094-.777344-2.941406 2.507813-3.289063 6.929688-.777344 9.867188l36.976563 43.300781c2.46875 2.890625 6.792968 3.285157 9.738281.886719l86.117187-70.0625c3-2.4375 3.453126-6.847656 1.011719-9.847656-2.4375-2.996094-6.847656-3.453125-9.847656-1.011719l-80.8125 65.742187zm0 0"/></svg>