<svg id="beach_x5F_umbrella" enable-background="new 0 0 300 300" height="512" viewBox="0 0 300 300" width="512" xmlns="http://www.w3.org/2000/svg"><g><path d="m188.072 235.802h-79.51l23.089-88.917c7.219 1.661 14.157 5.728 18.453 14.322.572 1.144 1.664 1.937 2.925 2.148 1.252.207 2.553-.2 3.467-1.095.042-.04 4.2-4.055 10.689-5.45 8.553-1.841 17.227 1.563 25.779 10.114.756.757 1.775 1.172 2.828 1.172.211 0 .423-.017.635-.051 1.267-.203 2.359-1.003 2.938-2.148.026-.055 3.885-5.083 18.69-1.934 1.689.361 3.322-.088 4.481-1.227 2.162-2.123 1.577-5.14 1.012-8.056-.152-.783-.36-1.856-.36-2.282 0-55.096-44.823-99.919-99.919-99.919-10.775 0-21.378 1.707-31.516 5.073-2.097.696-3.231 2.96-2.535 5.057.695 2.097 2.96 3.235 5.057 2.535 7.259-2.411 14.782-3.883 22.439-4.422-19.643 10.59-43.697 30.096-57.286 65.133-5.484-6.57-14.075-8.558-21.14-8.566 6.438-15.614 16.994-29.061 30.798-39.149 1.783-1.304 2.173-3.807.869-5.59-1.304-1.785-3.808-2.173-5.59-.869-16.832 12.303-29.223 29.203-35.833 48.875-.453 1.351-.154 2.841.785 3.912.938 1.07 2.378 1.561 3.775 1.288.793-.154 19.415-3.621 23.129 11.236.294 1.175 1.107 2.151 2.206 2.659 1.099.51 2.372.489 3.456-.048 1.016-.5 24.964-12.055 36.9 7.834.993 1.656 3.028 2.367 4.834 1.688.178-.067 9.443-3.439 20.016-3.2l-23.338 89.876h-24.223c-19.851 0-36 16.149-36 36 0 2.209 1.791 4 4 4h176c2.209 0 4-1.791 4-4 0-19.85-16.149-35.999-36-35.999zm-25.809-85.857c5.602-15.87 9.53-41.94.508-80.533 1.213.58 2.411 1.188 3.594 1.819 27.528 34.565 27.842 70.249 26.496 84.975-12.134-9.277-22.97-8.843-30.598-6.261zm52.925 2.454c0 .944.161 1.973.352 2.996-6.382-.902-11.096-.419-14.558.62 1.236-13.836.835-41.835-16.233-71.887 18.678 16.836 30.439 41.205 30.439 68.271zm-148.524-23.047c16.273-42.53 48.921-60.811 68.169-68.146.315.04.628.086.942.129-13.635 13.498-31.467 37.571-36.536 74.139-9.871-8.822-22.834-8.69-32.575-6.122zm40.1 10.442c4.581-40.049 25.355-64.656 38.704-76.597 2.764.688 5.478 1.501 8.137 2.434 11.323 43.675 5.786 70.88-.404 85.6-12.041-15.218-32.776-14.886-46.437-11.437zm-58.407 128.008c1.946-13.551 13.634-24 27.715-24h112c14.081 0 25.769 10.449 27.715 24z"/><path d="m236.072 46.725c-7.211 0-13.077 5.866-13.077 13.077s5.866 13.077 13.077 13.077c7.21 0 13.076-5.866 13.076-13.077s-5.866-13.077-13.076-13.077zm0 18.154c-2.8 0-5.077-2.277-5.077-5.077s2.277-5.077 5.077-5.077c2.799 0 5.076 2.277 5.076 5.077s-2.277 5.077-5.076 5.077z"/><path d="m236.072 75.913c-2.209 0-4 1.791-4 4v11.492c0 2.209 1.791 4 4 4s4-1.791 4-4v-11.492c0-2.209-1.791-4-4-4z"/><path d="m236.072 43.69c2.209 0 4-1.791 4-4v-11.492c0-2.209-1.791-4-4-4s-4 1.791-4 4v11.492c0 2.209 1.791 4 4 4z"/><path d="m267.676 55.802h-11.492c-2.209 0-4 1.791-4 4s1.791 4 4 4h11.492c2.209 0 4-1.791 4-4s-1.791-4-4-4z"/><path d="m204.468 63.802h11.492c2.209 0 4-1.791 4-4s-1.791-4-4-4h-11.492c-2.209 0-4 1.791-4 4s1.791 4 4 4z"/><path d="m253.364 70.822c-1.597-1.529-4.129-1.473-5.655.122-1.528 1.596-1.474 4.128.122 5.655l8.301 7.948c.775.743 1.771 1.111 2.766 1.111 1.053 0 2.104-.413 2.89-1.233 1.528-1.596 1.474-4.128-.122-5.655z"/><path d="m218.779 48.781c.775.743 1.771 1.111 2.766 1.111 1.053 0 2.104-.413 2.89-1.233 1.528-1.596 1.474-4.128-.122-5.655l-8.301-7.948c-1.597-1.53-4.129-1.474-5.655.122-1.528 1.596-1.474 4.128.122 5.655z"/><path d="m250.599 49.893c.994 0 1.99-.369 2.766-1.111l8.301-7.948c1.596-1.527 1.65-4.06.122-5.655-1.526-1.595-4.059-1.651-5.655-.122l-8.301 7.948c-1.596 1.527-1.65 4.06-.122 5.655.784.819 1.835 1.233 2.889 1.233z"/><path d="m218.779 70.822-8.301 7.948c-1.596 1.527-1.65 4.06-.122 5.655.785.82 1.836 1.233 2.89 1.233.994 0 1.99-.369 2.766-1.111l8.301-7.948c1.596-1.527 1.65-4.06.122-5.655-1.527-1.594-4.059-1.651-5.656-.122z"/></g></svg>