<?xml version="1.0" encoding="UTF-8" standalone="no"?>
<!-- Created with Inkscape (http://www.inkscape.org/) by Marsupilami -->
<svg
   xmlns:svg="http://www.w3.org/2000/svg"
   xmlns="http://www.w3.org/2000/svg"
   version="1.0"
   width="1024"
   height="166"
   viewBox="0 0 200.575 32.571251"
   id="svg2835">
  <defs
     id="defs2837" />
  <g
     transform="translate(-245.42679,-524.64799)"
     id="layer1">
    <path
       d="M 112.875,0 C 112.64375,0.87875 112.40125,1.5625 111.34375,1.5625 C 110.01,1.5625 107.865,0.031249999 104.1875,0.03125 C 95.49875,0.03125 94.062503,6.3012501 94.0625,9.09375 C 94.0625,11.2 94.070002,15.121249 101.90625,18.875 L 104.96875,20.34375 C 107.95375,21.76375 110.125,22.870001 110.125,25.9375 C 110.125,26.5325 109.885,31.062499 104.375,31.0625 C 98.51625,31.0625 95.858752,25.874999 94.9375,21.25 L 93.625,21.25 L 93.625,32.5625 L 94.9375,32.5625 C 95.12125,31.8275 95.346246,31 96.3125,31 C 97.73875,31 99.815001,32.562499 104.1875,32.5625 C 112.65875,32.5625 115.59375,27.030001 115.59375,23 C 115.59375,18.01 112.0975,15.34 110.53125,14.5625 L 103.78125,11.21875 C 99.93625,9.29625 99.062498,8.3162499 99.0625,5.84375 C 99.0625,2.86875 101.58375,1.46875 103.96875,1.46875 C 109.3825,1.46875 112.1425,6.7325002 112.96875,9.9375 L 114.25,9.9375 L 114.25,0 L 112.875,0 z M 35.78125,0.03125 C 33.725,0.03125 32.218752,1.67375 32.21875,3.59375 C 32.21875,5.56 33.678749,7.125 35.78125,7.125 C 37.74625,7.125 39.312499,5.605 39.3125,3.59375 C 39.3125,1.62875 37.746249,0.03125 35.78125,0.03125 z M 169.5625,0.03125 C 167.505,0.03125 165.96875,1.67375 165.96875,3.59375 C 165.96875,5.56 167.46,7.125 169.5625,7.125 C 171.52875,7.125 173.06249,5.605 173.0625,3.59375 C 173.0625,1.62875 171.52875,0.03125 169.5625,0.03125 z M 0,0.6875 L 0,1.84375 C 1.97375,2.165 2.65,2.3137498 3.84375,5.0625 L 15.59375,32.5 L 16.84375,32.5 L 27.3125,5.59375 C 28.3225,3.0275 28.9125,2.165 31.4375,1.84375 L 31.4375,0.6875 L 21.65625,0.6875 L 21.65625,1.84375 C 24.2725,1.98125 25.625,2.1499999 25.625,3.9375 C 25.625,4.85375 25.10125,6.07 24.6875,7.125 L 18.875,22.1875 L 12.84375,7.71875 C 12.385,6.5725 11.46875,4.6525001 11.46875,3.78125 C 11.46875,2.04 12.545,2.0275 15.4375,1.84375 L 15.4375,0.6875 L 0,0.6875 z M 197.1875,5.90625 C 195.34,5.90625 193.78125,7.32 193.78125,9.25 C 193.78124,11.18875 195.34,12.625 197.1875,12.625 C 199.01875,12.625 200.5625,11.18875 200.5625,9.25 C 200.5625,7.3200002 199.01875,5.90625 197.1875,5.90625 z M 197.1875,6.46875 C 198.70875,6.4687499 199.90625,7.6575 199.90625,9.25 C 199.90626,10.86125 198.70875,12.0625 197.1875,12.0625 C 195.65125,12.0625 194.4375,10.86125 194.4375,9.25 C 194.43751,7.6575002 195.65125,6.46875 197.1875,6.46875 z M 195.875,7.34375 L 195.875,11.1875 L 196.46875,11.1875 L 196.46875,9.53125 L 197.15625,9.53125 L 198.1875,11.1875 L 198.84375,11.1875 L 197.71875,9.5 C 198.28751,9.4287504 198.71875,9.1325 198.71875,8.4375 C 198.71875,7.6724996 198.29125,7.34375 197.375,7.34375 L 195.875,7.34375 z M 196.46875,7.84375 L 197.28125,7.84375 C 197.69001,7.8437501 198.125,7.925 198.125,8.40625 C 198.12501,9.0025004 197.685,9.03125 197.1875,9.03125 L 196.46875,9.03125 L 196.46875,7.84375 z M 51.59375,9.9375 C 46.32375,9.9374999 42.15625,14.28 42.15625,21.0625 C 42.156251,28.935 46.84,32.34375 51.46875,32.34375 C 55.137501,32.343749 57.735,30.87375 60.53125,26.59375 L 59.4375,25.9375 C 58.566249,26.996251 56.955,29.03125 54.25,29.03125 C 49.89375,29.03125 48.8875,24.35125 48.75,20.4375 L 60.3125,20.4375 C 60.174998,17.99 59.5725,9.9375 51.59375,9.9375 z M 127.84375,9.9375 C 121.46125,9.9374999 117.46875,15.2575 117.46875,21.1875 C 117.46875,27.1625 121.46125,32.34375 127.84375,32.34375 C 134.0875,32.343749 138.15625,27.3 138.15625,21.1875 C 138.15625,14.79875 133.85875,9.9375 127.84375,9.9375 z M 154.375,9.9375 C 150.45875,9.9375 148.48875,12.7375 147.84375,13.84375 L 147.75,13.84375 L 147.75,10.53125 L 139,10.53125 L 139,11.59375 C 140.83625,11.87 141.4375,12.24125 141.4375,14.3125 L 141.4375,27.84375 C 141.4375,30.1 140.6525,30.3025 139,30.625 L 139,31.71875 L 150.0625,31.71875 L 150.0625,30.625 C 147.9425,30.39375 147.78125,29.06 147.78125,28 L 147.78125,15.71875 C 147.78125,15.305 149.78125,13.03125 151.625,13.03125 C 154.115,13.03125 154.15625,15.5875 154.15625,16.875 L 154.15625,28 C 154.15625,29.7025 153.52124,30.48625 152,30.625 L 152,31.71875 L 162.78125,31.71875 L 162.78125,30.625 C 160.5325,30.5325 160.53124,29.105 160.53125,28 L 160.53125,16.4375 C 160.53125,11.38 156.8925,9.9374999 154.375,9.9375 z M 186.71875,9.9375 C 182.4475,9.9375 175.90625,12.76125 175.90625,21.8125 C 175.90625,27.4625 179.86875,32.343749 185.71875,32.34375 C 189.32125,32.34375 192.355,30.492499 194.46875,27.5 L 193.65625,26.6875 C 192.55375,27.9275 191.37,29.25 188.75,29.25 C 185.2,29.25 182.40624,25.525 182.40625,19.09375 C 182.40625,17.02625 182.7375,11.375 186.28125,11.375 C 186.9625,11.375 188.125,11.80875 188.125,13.1875 C 188.125,15.6675 188.14501,17.90625 190.71875,17.90625 C 191.08625,17.90625 193.84376,17.90875 193.84375,14.96875 C 193.84375,11.66125 189.965,9.9374999 186.71875,9.9375 z M 30.21875,10.53125 L 30.21875,11.59375 C 31.9625,11.915 32.656252,12.24125 32.65625,14.3125 L 32.65625,27.84375 C 32.65625,30.05375 31.87125,30.21 30.21875,30.625 L 30.21875,31.71875 L 41.1875,31.71875 L 41.1875,30.625 C 39.3975,30.44 39.03125,29.4275 39.03125,28 L 39.03125,10.53125 L 30.21875,10.53125 z M 61.1875,10.53125 L 61.1875,11.59375 C 62.38125,11.82375 62.618749,12.16625 63.8125,15.15625 L 70.59375,32.34375 L 71.71875,32.34375 L 77.3125,18.40625 L 77.53125,18.40625 L 82.125,32.34375 L 83.1875,32.34375 L 90.3125,13.90625 C 91.09375,11.8825 91.719996,11.7775 92.59375,11.59375 L 92.59375,10.53125 L 86.40625,10.53125 L 86.40625,11.59375 C 87.69375,11.73125 88.593753,11.84125 88.59375,13.3125 C 88.59375,14.325 86.269999,19.785 85.03125,23.28125 L 84.9375,23.28125 C 84.1125,19.6925 82.156252,13.71625 82.15625,12.75 C 82.15625,11.78375 83.181251,11.68625 84.375,11.59375 L 84.375,10.53125 L 73.625,10.53125 L 73.625,11.59375 C 74.72625,11.73125 75.242504,11.7525 75.65625,12.71875 C 75.88625,13.27125 76.166251,14.185 76.625,15.75 L 73.5,23.625 C 71.205,17.46 69.625001,13.96625 69.625,13 C 69.625,11.80375 70.732499,11.68625 71.375,11.59375 L 71.375,10.53125 L 61.1875,10.53125 z M 163.96875,10.53125 L 163.96875,11.59375 C 165.71375,11.915 166.40625,12.24125 166.40625,14.3125 L 166.40625,27.84375 C 166.40625,30.05375 165.6225,30.21 163.96875,30.625 L 163.96875,31.71875 L 174.9375,31.71875 L 174.9375,30.625 C 173.1475,30.44 172.78125,29.4275 172.78125,28 L 172.78125,10.53125 L 163.96875,10.53125 z M 51.78125,11.375 C 53.38625,11.375 53.975,12.54625 54.25,13.5625 C 54.61625,14.94625 54.61,17.32 54.65625,18.75 L 48.53125,18.75 C 48.531248,12.385 50.08375,11.375 51.78125,11.375 z M 127.84375,11.375 C 130.6525,11.375 131.4375,14.10875 131.4375,21.1875 C 131.4375,27.025 131.0525,30.90625 127.875,30.90625 C 124.19125,30.90625 124.21875,26.15125 124.21875,21.1875 C 124.21875,15.9475 124.435,11.375 127.84375,11.375 z "
       transform="translate(245.42679,524.64799)"
       style="fill:#a41a4a;fill-opacity:1;fill-rule:nonzero;stroke:none"
       id="path19945" />
  </g>
</svg>
