<svg id="Calendar" enable-background="new 0 0 300 300" height="512" viewBox="0 0 300 300" width="512" xmlns="http://www.w3.org/2000/svg"><g><path d="m218.75 62.5v-12.5h-12.5v12.5h-50v-12.5h-12.5v12.5h-50v-12.5h-12.5v12.5c-17.23 0-31.25 14.02-31.25 31.25v125c0 17.23 14.02 31.25 31.25 31.25h137.5c17.23 0 31.25-14.02 31.25-31.25v-125c0-17.23-14.02-31.25-31.25-31.25zm18.75 156.25c0 10.339-8.411 18.75-18.75 18.75h-137.5c-10.339 0-18.75-8.411-18.75-18.75v-125c0-10.339 8.411-18.75 18.75-18.75v12.5h12.5v-12.5h50v12.5h12.5v-12.5h50v12.5h12.5v-12.5c10.339 0 18.75 8.411 18.75 18.75z"/><circle cx="93.751" cy="118.75" r="9.375"/><circle cx="131.251" cy="118.75" r="9.375"/><circle cx="168.751" cy="118.75" r="9.375"/><circle cx="206.251" cy="118.75" r="9.375"/><circle cx="93.751" cy="156.25" r="9.375"/><circle cx="131.251" cy="156.25" r="9.375"/><circle cx="168.751" cy="156.25" r="9.375"/><circle cx="206.251" cy="156.25" r="9.375"/><circle cx="93.751" cy="193.75" r="9.375"/><circle cx="131.251" cy="193.75" r="9.375"/><circle cx="168.751" cy="193.75" r="9.375"/></g></svg>