<?xml version="1.0" encoding="iso-8859-1"?>
<!-- Generator: Adobe Illustrator 19.0.0, SVG Export Plug-In . SVG Version: 6.00 Build 0)  -->
<svg version="1.1" id="Capa_1" xmlns="http://www.w3.org/2000/svg" xmlns:xlink="http://www.w3.org/1999/xlink" x="0px" y="0px"
	 viewBox="0 0 512 512" style="enable-background:new 0 0 512 512;" xml:space="preserve">
<path style="fill:#FEDB41;" d="M503.484,391.6L301.917,58.901c-10.801-18.301-30-29.101-51.301-29.101s-40.499,10.8-51.599,29.399
	L8.516,391.6c-11.1,18.6-11.4,41.1-0.601,60.3c10.801,18.9,30.3,30.3,52.202,30.3h391.766c21.901,0,41.4-11.4,52.202-30.3
	C514.884,432.7,514.584,410.2,503.484,391.6z"/>
<path style="fill:#FFCC33;" d="M504.085,451.9c-10.801,18.9-30.3,30.3-52.202,30.3H250.616V29.8c21.301,0,40.499,10.8,51.301,29.101
	L503.484,391.6C514.584,410.2,514.884,432.7,504.085,451.9z"/>
<g>
	<path style="fill:#0D70B2;" d="M280.616,152.2v120c0,16.5-13.5,30-30,30s-30-13.5-30-30v-120c0-16.5,13.5-30,30-30
		S280.616,135.701,280.616,152.2z"/>
	<path style="fill:#0D70B2;" d="M280.616,392.2c0,16.5-13.5,30-30,30s-30-13.5-30-30s13.5-30,30-30S280.616,375.701,280.616,392.2z"
		/>
</g>
<g>
	<path style="fill:#0059AA;" d="M280.616,392.2c0,16.5-13.5,30-30,30v-60C267.116,362.2,280.616,375.701,280.616,392.2z"/>
	<path style="fill:#0059AA;" d="M280.616,152.2v120c0,16.5-13.5,30-30,30v-180C267.116,122.2,280.616,135.701,280.616,152.2z"/>
</g>
<g>
</g>
<g>
</g>
<g>
</g>
<g>
</g>
<g>
</g>
<g>
</g>
<g>
</g>
<g>
</g>
<g>
</g>
<g>
</g>
<g>
</g>
<g>
</g>
<g>
</g>
<g>
</g>
<g>
</g>
</svg>
