<svg id="Capa_1" enable-background="new 0 0 512 512" height="512" viewBox="0 0 512 512" width="512" xmlns="http://www.w3.org/2000/svg"><g><path d="m256 0-226 64.266v133.337c0 69.929 21.518 136.802 62.226 193.388 39.838 55.377 94.742 96.61 158.775 119.243l4.999 1.766 4.999-1.767c64.033-22.633 118.938-63.866 158.775-119.243 40.708-56.586 62.226-123.459 62.226-193.387v-133.337zm0 414.943c-35.896-17.425-67.159-43.768-90.716-76.512-24.194-33.632-39.068-72.278-43.711-113.07l134.427-38.224 134.427 38.225c-4.642 40.791-19.516 79.438-43.711 113.07-23.557 32.744-54.82 59.087-90.716 76.511zm136-220.322-136-38.674-136 38.674v-62.38l136-38.673 136 38.673zm-332 2.982v-110.679l181-51.469v31.189l-151 42.939v88.02c0 57.276 17.611 112.032 50.932 158.349 26.047 36.205 60.5 65.447 100.068 85.043v33.061c-109.096-47.572-181-156.083-181-276.453zm392 0c0 120.371-71.904 228.882-181 276.453v-33.061c39.568-19.596 74.022-48.838 100.069-85.043 33.32-46.317 50.931-101.073 50.931-158.349v-88.02l-151-42.939v-31.189l181 51.469z"/></g></svg>