<?xml version="1.0" encoding="iso-8859-1"?>
<!-- Generator: Adobe Illustrator 19.0.0, SVG Export Plug-In . SVG Version: 6.00 Build 0)  -->
<svg version="1.1" id="Capa_1" xmlns="http://www.w3.org/2000/svg" xmlns:xlink="http://www.w3.org/1999/xlink" x="0px" y="0px"
	 viewBox="0 0 483.872 483.872" style="enable-background:new 0 0 483.872 483.872;" xml:space="preserve">
<path style="fill:#415A6B;" d="M328.441,255.605c0,0,16,9.6,27.733,26.667c11.733,17.067,19.2,26.667,28.8,28.8
	c0,0-5.333,16-27.733,4.267s-29.867-22.4-32-33.067C323.107,271.605,328.441,255.605,328.441,255.605z"/>
<polygon style="fill:#CED6E0;" points="320.974,332.405 328.441,429.472 287.907,427.339 255.907,371.872 269.774,330.272 "/>
<g>
	<path style="fill:#4ABAA5;" d="M338.041,291.872l46.933,16c0,0-9.6,35.2-6.4,50.133c3.2,16,3.2,90.667,3.2,90.667h-76.8
		c0,0,16-36.267,18.133-58.667C326.307,366.539,338.041,291.872,338.041,291.872z"/>
	<path style="fill:#4ABAA5;" d="M336.974,279.072L336.974,279.072c2.133,5.333,10.667,27.733,11.733,38.4
		c1.067,11.733,1.067,11.733,1.067,11.733l-10.667,8.533l10.667,8.533c0,0-25.6,48-30.933,66.133
		c-6.4,18.133,21.333,37.333,21.333,37.333s-32-16-32-36.267c0-20.267,10.667-67.2,10.667-67.2s13.867-46.933,10.667-54.4
		c-3.2-7.467-2.133-7.467-2.133-7.467L336.974,279.072"/>
</g>
<path style="fill:#FFD15C;" d="M298.574,386.805c0,0-1.067-10.667,0-17.067c1.067-6.4,17.067-13.867,17.067-13.867l14.933-55.467
	l-6.4-10.667l-52.267,4.267c0,0-2.133,49.067,2.133,60.8C278.307,366.539,298.574,386.805,298.574,386.805z"/>
<path style="fill:#415A6B;" d="M95.907,295.072c0,0-8.533,52.267-7.467,87.467c0,35.2,0,51.2,0,51.2l146.133-3.2
	c0,0,28.8-113.067,26.667-141.867s-2.133-28.8-2.133-28.8L95.907,295.072z"/>
<g>
	<path style="fill:#FFD15C;" d="M79.907,320.672c0,0-1.067,3.2-3.2,7.467c-2.133,4.267-5.333,7.467-7.467,12.8
		c-2.133,4.267-8.533,19.2-8.533,19.2s3.2,3.2,8.533-1.067l4.267-4.267c0,0,4.267-1.067,7.467-6.4s6.4-5.333,8.533-7.467
		s6.4-7.467,9.6-9.6c3.2-2.133,5.333,0,7.467-1.067c0,0,2.133,1.067,3.2,5.333c1.067,4.267,6.4,17.067,16,8.533l-3.2-5.333
		c0,0-1.067-2.133-1.067-4.267c-1.067-2.133-2.133-6.4-2.133-8.533s-2.133-10.667-5.333-13.867c-2.133-3.2-8.533-6.4-8.533-6.4
		S89.507,297.205,79.907,320.672z"/>
	
		<ellipse transform="matrix(0.3116 -0.9502 0.9502 0.3116 84.4584 258.506)" style="fill:#FFD15C;" cx="220.641" cy="70.963" rx="11.733" ry="4.267"/>
	<path style="fill:#FFD15C;" d="M166.307,60.405c0,6.4-2.133,12.8-4.267,12.8c-3.2,0-5.333-5.333-5.333-11.733
		c0-6.4,2.133-12.8,4.267-12.8C164.174,48.672,166.307,54.005,166.307,60.405z"/>
	<path style="fill:#FFD15C;" d="M194.041,144.672l7.467-35.2c9.6-7.467,18.133-37.333,18.133-37.333l2.133-18.133
		c0,0,3.2-12.8-23.467-20.267s-34.133,11.733-36.267,29.867c0,0-2.133,7.467-1.067,23.467l-17.067,28.8L194.041,144.672z"/>
</g>
<path style="fill:#F7B64C;" d="M184.441,116.939c-11.733-2.133-21.333-23.467-22.4-28.8c0,0,0,11.733,6.4,24.533
	c4.267,9.6,17.067,19.2,27.733,26.667l6.4-29.867C201.507,109.472,196.174,118.005,184.441,116.939z"/>
<path style="fill:#CED6E0;" d="M203.641,112.672c0,0,4.267,5.333,12.8,8.533c8.533,3.2,39.467,26.667,39.467,26.667
	s-6.4,35.2-13.867,50.133c-7.467,14.933-8.533,50.133-6.4,72.533s5.333,28.8,5.333,28.8s-34.133,11.733-70.4,8.533
	s-67.2-5.333-67.2-5.333s-4.267-68.267,0-84.267s7.467-21.333,7.467-21.333s4.267-87.467-24.533-73.6c0,0,6.4-8.533,20.267-12.8
	s45.867-11.733,45.867-11.733l29.867,19.2h5.333C187.641,119.072,200.441,116.939,203.641,112.672z"/>
<path style="fill:#F05540;" d="M181.241,130.805l-1.067,7.467c0,0-4.267,8.533-6.4,19.2c-2.133,10.667-1.067,112-1.067,112
	l23.467,19.2l14.933-19.2c0,0-2.133-57.6-5.333-83.2c-3.2-25.6-13.867-46.933-13.867-50.133c0-4.267,0-6.4,0-6.4h-10.667V130.805z"
	/>
<path style="fill:#F3705A;" d="M174.841,119.072h7.467h5.333l11.733,3.2c0,0-5.333,7.467-6.4,14.933c0,0-9.6-1.067-11.733,2.133
	c0,0-9.6-12.8-13.867-14.933c-3.2-2.133-3.2-2.133-3.2-2.133L174.841,119.072z"/>
<path style="fill:#415A6B;" d="M162.041,63.605l1.067,1.067c0,0,0-5.333,3.2-8.533s6.4,1.067,7.467-5.333
	c1.067-5.333,0-11.733,4.267-12.8c3.2-1.067,21.333,13.867,33.067,10.667c11.733-4.267,7.467,7.467,7.467,10.667
	s2.133,4.267,2.133,5.333c0,2.133,0,6.4,0,6.4h0c0,0,2.133-7.467,6.4-13.867s11.733-30.933-6.4-46.933s-39.467-9.6-46.933-5.333
	c-7.467,4.267-13.867,19.2-13.867,33.067C160.974,52.939,164.174,52.939,162.041,63.605z"/>
<g>
	<path style="fill:#F3F3F3;" d="M187.641,119.072c0,0,8.533,5.333,12.8,12.8c3.2,8.533,6.4,10.667,6.4,10.667s0-5.333-1.067-17.067
		s-1.067-19.2-1.067-19.2l-3.2,2.133C201.507,109.472,197.241,115.872,187.641,119.072z"/>
	<path style="fill:#F3F3F3;" d="M160.974,89.205c0,0-1.067,6.4,4.267,12.8c5.333,6.4,17.067,16,17.067,16s-6.4,4.267-11.733,6.4
		c-5.333,2.133-8.533,6.4-12.8,6.4c0,0-4.267-17.067-6.4-21.333s-2.133-8.533,0-10.667
		C153.507,97.739,157.774,89.205,160.974,89.205z"/>
	<path style="fill:#F3F3F3;" d="M110.841,302.539c1.067,3.2,3.2,6.4,4.267,8.533c-2.133-2.133-5.333-2.133-12.8-2.133
		c-9.6-1.067-18.133,11.733-21.333,11.733s-4.267-14.933-4.267-14.933s-6.4-3.2-9.6-9.6c-4.267-6.4-3.2-22.4,0-36.267
		c3.2-13.867,3.2-61.867,4.267-81.067c1.067-19.2,8.533-48,16-54.4c29.867-13.867,24.533,73.6,24.533,73.6s0,33.067-1.067,38.4
		c-1.067,6.4,0,19.2-2.133,23.467c-2.133,4.267-1.067,11.733-1.067,21.333c1.067,8.533-1.067,8.533,0,13.867
		C107.641,295.072,108.707,299.339,110.841,302.539z"/>
	<path style="fill:#F3F3F3;" d="M240.974,298.272c0,0-3.2-6.4-5.333-28.8c-2.133-22.4-1.067-57.6,6.4-72.533
		c7.467-14.933,13.867-50.133,13.867-50.133s5.333,24.533,5.333,35.2s9.6,125.867,9.6,125.867L240.974,298.272z"/>
</g>
<path style="fill:#4ABAA5;" d="M245.241,367.605c-18.133,2.133-13.867-62.933-4.267-68.267l26.667-4.267c0,0,0,91.733,5.333,102.4
	s28.8,11.733,37.333,23.467c7.467,11.733,11.733,36.267,11.733,36.267l-60.8-16l9.6-30.933
	C270.841,409.205,249.507,395.339,245.241,367.605z"/>
<polygon style="fill:#F3705A;" points="424.441,422.005 455.374,471.072 45.774,471.072 50.041,425.205 "/>
<rect x="45.774" y="471.072" style="fill:#F05540;" width="409.6" height="12.8"/>
<path style="fill:#FFD15C;" d="M151.374,425.205c0,0-18.133,4.267-30.933,2.133c-12.8-2.133-10.667,0-18.133-1.067
	s-17.067-5.333-17.067-5.333l-9.6-1.067c0,0,1.067,6.4-3.2,7.467s-8.533-29.867-8.533-29.867s5.333-1.067,10.667-2.133
	c5.333-1.067,11.733,1.067,11.733,1.067s1.067-2.133,5.333-1.067s12.8,7.467,21.333,9.6c8.533,2.133,20.267-2.133,20.267-2.133
	S165.241,402.805,151.374,425.205z"/>
<path style="fill:#F3F3F3;" d="M264.441,350.539c0,0-9.6-5.333-17.067-10.667c-7.467-5.333-10.667-7.467-10.667-7.467l38.4-22.4
	l5.333,5.333L264.441,350.539z"/>
<path style="fill:#66C6B9;" d="M240.974,299.339c0,0-8.533,10.667-13.867,23.467c-5.333,12.8-8.533,12.8-12.8,22.4
	c-5.333,9.6-6.4,13.867-11.733,20.267c-5.333,6.4-13.867,9.6-17.067,16c-3.2,6.4-13.867,10.667-18.133,13.867
	c-4.267,3.2-41.6,9.6-41.6,9.6s12.8-2.133,19.2,8.533s2.133,18.133-3.2,20.267c0,0,7.467,0,16-2.133c7.467-2.133,18.133-3.2,32-9.6
	c13.867-6.4,34.133-21.333,42.667-32s12.8-21.333,12.8-21.333s-10.667-20.267-9.6-37.333
	C235.641,314.272,240.974,299.339,240.974,299.339z"/>
<path style="fill:#F3F3F3;" d="M277.241,314.272l-21.333,33.067c-1.067,1.067,0,2.133,0,2.133l4.267,4.267
	c1.067,1.067,2.133,1.067,3.2,0l0,0c0,0,10.667,24.533,23.467,30.933c12.8,6.4,16,9.6,16,9.6s-5.333-12.8-10.667-18.133
	c-5.333-4.267-12.8-13.867-12.8-23.467c-1.067-9.6,4.267-26.667,4.267-33.067C283.641,312.139,277.241,314.272,277.241,314.272z"/>
<path id="SVGCleanerId_0" style="fill:#FFD15C;" d="M258.041,232.139c0,0-5.333,0-8.533,7.467s-5.333,24.533-4.267,27.733
	s4.267,6.4,4.267,9.6s0,12.8,5.333,23.467c6.4,10.667,6.4,14.933,7.467,19.2c1.067,4.267,13.867,7.467,20.267,0l8.533,52.267
	l30.933-61.867l3.2-16c-1.067-3.2-2.133-6.4-3.2-7.467c0,0,6.4-42.667-2.133-50.133S258.041,232.139,258.041,232.139z"/>
<g>
	<path id="SVGCleanerId_0_1_" style="fill:#FFD15C;" d="M258.041,232.139c0,0-5.333,0-8.533,7.467s-5.333,24.533-4.267,27.733
		s4.267,6.4,4.267,9.6s0,12.8,5.333,23.467c6.4,10.667,6.4,14.933,7.467,19.2c1.067,4.267,13.867,7.467,20.267,0l8.533,52.267
		l30.933-61.867l3.2-16c-1.067-3.2-2.133-6.4-3.2-7.467c0,0,6.4-42.667-2.133-50.133S258.041,232.139,258.041,232.139z"/>
</g>
<path style="fill:#F7B64C;" d="M310.307,289.739c-2.133,8.533-9.6,36.267-29.867,52.267c1.067-8.533,3.2-19.2,3.2-23.467
	C283.641,319.605,302.841,308.939,310.307,289.739z"/>
<path style="fill:#F3F3F3;" d="M322.041,287.605c0,0,4.267,4.267,4.267,12.8s-16,45.867-17.067,46.933
	c-1.067,1.067-7.467,12.8-10.667,18.133c-3.2,6.4-1.067,17.067,2.133,22.4c0,0-3.2-11.733,0-19.2c2.133-7.467,16-9.6,16-9.6
	l1.067-4.267l27.733,9.6c0,0,0-36.267-4.267-46.933c-3.2-9.6-4.267-10.667-5.333-17.067S322.041,278.005,322.041,287.605z"/>
<path style="fill:#415A6B;" d="M248.441,246.005c0,0,3.2-9.6,8.533-9.6s10.667,2.133,19.2,2.133c9.6-1.067,12.8,6.4,10.667,10.667
	c-2.133,4.267-2.133,14.933,4.267,18.133c6.4,3.2,6.4,10.667,6.4,10.667h3.2c0,0-1.067-10.667,9.6-12.8
	c9.6-3.2,12.8,23.467,12.8,23.467s11.733-6.4,10.667-41.6c-1.067-35.2-46.933-36.267-60.8-28.8
	C260.174,224.672,246.307,232.139,248.441,246.005z"/>
<ellipse transform="matrix(0.1714 -0.9852 0.9852 0.1714 -10.6722 532.8265)" style="fill:#FFD15C;" cx="311.428" cy="272.758" rx="11.733" ry="6.4"/>
<path style="fill:#ADB3BA;" d="M246.307,448.672l17.067-9.6l-99.2-18.133l-112,8.533l77.867,23.467
	C130.041,454.005,189.774,465.739,246.307,448.672z"/>
<path style="fill:#415A6B;" d="M168.441,456.139l-27.733-137.6c0-2.133-2.133-4.267-5.333-4.267l-101.333-6.4
	c-3.2,0-1.067,2.133-1.067,6.4l23.467,118.4L168.441,456.139z"/>
<path style="fill:#CED6E0;" d="M149.241,458.272c0,0,12.8-4.267,14.933-4.267c2.133,0,99.2-16,99.2-16s2.133,5.333-2.133,8.533
	c-4.267,2.133-97.067,20.267-97.067,20.267s-5.333-1.067-8.533-4.267C152.441,459.339,150.307,458.272,149.241,458.272"/>
<path style="fill:#E8EAE9;" d="M52.174,429.472l112,23.467c-4.267,0-4.267,12.8,0,12.8L59.641,442.272
	c-4.267-1.067-7.467-4.267-7.467-8.533L52.174,429.472L52.174,429.472z"/>
<path style="fill:#ADB3BA;" d="M164.174,454.005l-27.733-134.4c0-2.133-2.133-4.267-5.333-4.267l-97.067-7.467
	c-3.2,0-6.4,3.2-5.333,6.4l23.467,115.2L164.174,454.005z"/>
<path style="fill:#415A6B;" d="M322.041,287.605c4.267,9.6,4.267,10.667,2.133,21.333c-1.067,9.6-4.267,19.2-5.333,28.8
	c-1.067,9.6,1.067,20.267,8.533,26.667c-2.133-5.333-1.067-11.733,0-17.067s4.267-10.667,6.4-16c0,6.4-1.067,12.8,0,19.2
	c1.067,6.4,2.133,12.8,6.4,18.133c5.333,6.4,13.867,10.667,22.4,10.667c-4.267-3.2-6.4-7.467-7.467-12.8
	c-1.067-5.333,0-10.667,1.067-16c2.133-13.867,4.267-27.733,3.2-41.6c-2.133-13.867-7.467-27.733-18.133-36.267
	c-4.267-4.267-9.6-6.4-13.867-10.667c-4.267-4.267-7.467-10.667-5.333-16"/>
<path style="fill:#FFD15C;" d="M342.307,443.339c0,0-2.133,3.2-7.467,4.267c-5.333,1.067-17.067,1.067-23.467,3.2
	c-6.4,2.133-18.133,9.6-26.667,8.533c0,0-9.6,4.267-16,4.267s-7.467,0-8.533-1.067c0,0-9.6,5.333-17.067,2.133
	c0,0-7.467,2.133-10.667-1.067c0,0-2.133-1.067-1.067-4.267l5.333-5.333c0,0-2.133-2.133-1.067-5.333l5.333-2.133
	c0,0,4.267-2.133,6.4-2.133c2.133,0,6.4-3.2,8.533-4.267c2.133-1.067,27.733-6.4,34.133-8.533c6.4-2.133,25.6-8.533,37.333-8.533
	s11.733,0,11.733,0L342.307,443.339z"/>
<g>
	<path style="fill:#F7B64C;" d="M245.241,463.605c0-1.067,0-2.133,1.067-4.267l0,0l0,0c1.067-1.067,3.2-1.067,4.267-2.133
		c1.067,0,1.067-1.067,2.133-1.067c1.067,0,1.067-1.067,2.133-1.067c1.067,0,1.067-1.067,2.133-1.067
		c1.067,0,1.067-1.067,2.133-1.067c1.067-1.067,2.133-2.133,3.2-3.2c1.067,0,1.067-1.067,2.133-1.067l2.133-1.067
		c1.067-1.067,3.2-1.067,4.267-1.067l3.2-1.067c1.067-1.067,3.2-1.067,4.267-2.133c-1.067,1.067-3.2,2.133-4.267,2.133
		c-1.067,1.067-3.2,1.067-4.267,2.133c-1.067,1.067-3.2,1.067-4.267,2.133h-2.133c-1.067,0-1.067,1.067-2.133,1.067
		c-1.067,1.067-2.133,2.133-3.2,3.2c-1.067,1.067-1.067,1.067-2.133,2.133c-1.067,0-1.067,1.067-2.133,1.067
		c-1.067,1.067-3.2,1.067-4.267,2.133c-1.067,0-3.2,1.067-4.267,1.067l0,0c0,1.067,0,1.067-1.067,2.133
		C245.241,462.539,245.241,463.605,245.241,463.605z"/>
	<path style="fill:#F7B64C;" d="M234.574,462.539L234.574,462.539c0-1.067,0-1.067,0-1.067s0-1.067,1.067-2.133
		c0-1.067,1.067-1.067,1.067-2.133c1.067-1.067,1.067-1.067,2.133-1.067c0,0,1.067,0,1.067-1.067c0,0,1.067,0,1.067-1.067
		c2.133-1.067,4.267-2.133,5.333-3.2l1.067-1.067l1.067-1.067c1.067-1.067,2.133-1.067,3.2-2.133c2.133-1.067,3.2-2.133,5.333-2.133
		c3.2-1.067,5.333-2.133,5.333-2.133s-2.133,1.067-5.333,2.133c-1.067,1.067-3.2,2.133-5.333,2.133c-1.067,0-2.133,1.067-3.2,2.133
		l-1.067,1.067l-1.067,1.067c-2.133,1.067-4.267,2.133-5.333,3.2c0,0-1.067,0-1.067,1.067c0,0-1.067,0-1.067,1.067
		c-1.067,0-1.067,1.067-2.133,1.067c-1.067,0-1.067,1.067-2.133,1.067c0,1.067-1.067,1.067-1.067,1.067
		C234.574,462.539,234.574,462.539,234.574,462.539z"/>
	<path style="fill:#F7B64C;" d="M238.841,452.939L238.841,452.939c1.067-1.067,1.067-2.133,2.133-3.2s2.133-2.133,3.2-2.133
		c1.067-1.067,2.133-1.067,4.267-2.133c1.067-1.067,3.2-1.067,4.267-2.133c1.067-1.067,2.133-1.067,3.2-1.067
		c1.067,0,2.133-1.067,2.133-1.067c1.067,0,1.067-1.067,1.067-1.067s0,0-1.067,1.067c-1.067,0-1.067,1.067-2.133,1.067
		c-2.133,1.067-4.267,2.133-7.467,3.2c-1.067,1.067-2.133,1.067-4.267,2.133c-1.067,1.067-2.133,1.067-3.2,2.133
		C240.974,450.805,239.907,451.872,238.841,452.939L238.841,452.939z"/>
	<path style="fill:#F7B64C;" d="M262.307,462.539c0-1.067,0-1.067,0-2.133c0,0,0,0,1.067-1.067c0,0,0,0,1.067-1.067
		s2.133-1.067,3.2-1.067l0,0l4.267-2.133c1.067-1.067,2.133-1.067,4.267-2.133c1.067,0,1.067-1.067,2.133-1.067
		c1.067,0,1.067,0,2.133-1.067c1.067,0,3.2-1.067,4.267-2.133c-1.067,0-1.067,1.067-2.133,1.067c-1.067,0-1.067,1.067-2.133,1.067
		c-1.067,0-1.067,1.067-2.133,1.067s-1.067,1.067-2.133,1.067c-1.067,1.067-2.133,1.067-4.267,2.133l-4.267,2.133l0,0l0,0
		c-1.067,0-2.133,1.067-3.2,1.067c0,0,0,0-1.067,0c0,0,0,0-1.067,1.067C262.307,461.472,262.307,461.472,262.307,462.539z"/>
</g>
<path style="fill:#66C6B9;" d="M427.641,417.739c-1.067,8.533-8.533,21.333-12.8,22.4c-2.133,0-17.067,2.133-33.067,4.267
	c-11.733,1.067-24.533,3.2-33.067,3.2c-5.333,1.067-9.6,1.067-9.6,1.067s0,0,0-1.067c0-4.267,0-18.133-17.067-27.733
	c0,0,10.667-4.267,22.4-6.4c12.8-2.133,36.267-7.467,36.267-7.467s0,0,0-1.067c0-2.133,0-7.467,0-13.867v-1.067
	c0-6.4-2.133-28.8-3.2-35.2l0,0c0-1.067,0-2.133,0-2.133l0,0l0,0c-1.067-17.067,7.467-45.867,7.467-45.867s14.933,0,16,11.733
	s1.067,16,3.2,23.467c2.133,6.4,3.2,8.533,3.2,11.733s5.333,7.467,5.333,13.867c1.067,6.4,8.533,21.333,11.733,28.8
	C426.574,402.805,428.707,410.272,427.641,417.739z"/>
<g>
</g>
<g>
</g>
<g>
</g>
<g>
</g>
<g>
</g>
<g>
</g>
<g>
</g>
<g>
</g>
<g>
</g>
<g>
</g>
<g>
</g>
<g>
</g>
<g>
</g>
<g>
</g>
<g>
</g>
</svg>
