<?xml version="1.0" encoding="UTF-8"?> <svg xmlns="http://www.w3.org/2000/svg" xmlns:xlink="http://www.w3.org/1999/xlink" viewBox="0 0 149.14 104.39"><defs><style>.cls-1{fill:#fff;}</style><symbol id="A" data-name="A" viewBox="0 0 66.63 12.78"><path class="cls-1" d="M44.32,1.76a3.24,3.24,0,0,1,2.37.92L47.87,1.4A4.64,4.64,0,0,0,44.34,0,4.41,4.41,0,0,0,39.6,4.49,4.43,4.43,0,0,0,43.94,9h.14c2.85,0,4.47-2.17,4.33-5.19H41.66a2.43,2.43,0,0,1,2.65-2m2.06,3.49a2.16,2.16,0,0,1-2.28,2,2.31,2.31,0,0,1-2.43-2ZM0,1.85,5.19,7.13H.12V8.8H7.6V7.1L2.41,1.82H7.67V.16H0Zm13.51-.09a3.24,3.24,0,0,1,2.37.92L17.06,1.4A4.64,4.64,0,0,0,13.53,0,4.4,4.4,0,0,0,8.8,4.49,4.41,4.41,0,0,0,13.13,9h.14c2.85,0,4.47-2.17,4.33-5.19H10.85a2.43,2.43,0,0,1,2.65-2m2.06,3.49a2.16,2.16,0,0,1-2.28,2,2.31,2.31,0,0,1-2.43-2ZM28.81,4.5A4.32,4.32,0,0,0,33.14,9,3.73,3.73,0,0,0,36,7.69v5.09h1.83V.18H36v1.2A3.69,3.69,0,0,0,33.13,0,4.34,4.34,0,0,0,28.82,4.5m7.3,0A2.74,2.74,0,1,1,33.39,1.7a2.74,2.74,0,0,1,2.73,2.81M49.6,2l1.67.86A2.46,2.46,0,0,1,53.48,1.6c1,0,1.58.54,1.58,1.14s-1,.85-2.1,1.07c-1.46.3-3,.8-3,2.57C50,7.74,51.27,9,53.31,9a4,4,0,0,0,3.48-1.68l-1.54-.84a2.23,2.23,0,0,1-1.94,1c-1,0-1.5-.48-1.5-1s.8-.8,2-1.07c1.42-.3,3-.78,3-2.57,0-1.2-1-2.8-3.5-2.78A4.06,4.06,0,0,0,49.6,2M61.87,4,60.41,2.41V.17H58.58v12.6h1.83V4.53l3.9,4.28h2.23l-3.37-3.7L66.63.18H64.54ZM23.26,9a3.74,3.74,0,0,1-4-3.76v-5h1.87V5a2,2,0,0,0,2.2,2.26c1.39,0,2.08-.85,2.08-2.26V.19h1.86v5a3.75,3.75,0,0,1-4,3.76"></path></symbol></defs><title>logo-zendesk-stacked</title><g id="Layer_2" data-name="Layer 2"><g id="Layer_1-2" data-name="Layer 1"><use width="66.63" height="12.78" transform="matrix(2.24, 0, 0, -2.24, 0, 104.39)" xlink:href="#A"></use><polygon class="cls-1" points="32.24 64.17 71.35 64.17 71.35 16.95 32.24 64.17"></polygon><path class="cls-1" d="M32.24,0A19.57,19.57,0,0,0,51.8,19.57,19.57,19.57,0,0,0,71.35,0Z"></path><path class="cls-1" d="M116.91,64.17a19.56,19.56,0,0,0-39.12,0Z"></path><polygon class="cls-1" points="116.91 0.01 77.79 0.01 77.79 47.22 116.91 0.01"></polygon></g></g></svg> 