<svg xmlns="http://www.w3.org/2000/svg" viewBox="0 0 72 72"><circle cx="36" cy="36" r="36" fill="#6BD5F8"/><path fill="#CEF2FF" d="M55.956 28.5v1l-3.133 1.13c-.04.247-.09.49-.148.732l2.483 2.15-.383.925-3.277-.234c-.146.238-.302.47-.467.697l1.47 2.94-.705.705-2.938-1.47c-.226.164-.46.32-.698.467l.233 3.277-.924.38-2.15-2.482c-.27.065-.547.12-.826.163L43.454 42h-1l-1.036-3.117c-.28-.044-.554-.1-.825-.164l-2.15 2.48-.924-.382.232-3.278c-.24-.146-.472-.303-.697-.467l-2.94 1.47-.706-.706 1.47-2.94a10.85 10.85 0 0 1-.468-.697l-3.276.233-.383-.923 2.482-2.15a9.94 9.94 0 0 1-.163-.825L29.956 29.5v-1l3.117-1.038a9.39 9.39 0 0 1 .142-.733l-2.46-2.244.382-.924 3.325.155c.116-.184.237-.366.364-.543L33.41 20.16l.707-.706 3.014 1.416c.178-.127.36-.248.545-.363l-.155-3.327.922-.382 2.242 2.46s.425-.09.642-.126L42.456 16h1l1.13 3.132c.215.035.43.078.64.127l2.242-2.463.924.383-.155 3.327c.185.115.366.236.544.363l3.015-1.416.708.707-1.417 3.016c.127.177.248.358.364.543l3.325-.156.383.924-2.462 2.242c.05.21.092.424.128.64l3.132 1.13zm-13-1.5a2 2 0 1 0 0 4 2 2 0 0 0 0-4z"/><path fill="#FFF" d="M42.95 41.416l2.915 1.4-.277 1.576-3.22.32c-.085.264-.18.525-.285.783l2.26 2.312-.8 1.386-3.135-.803c-.17.22-.35.43-.535.638l1.335 2.95-1.226 1.027-2.67-1.826c-.236.145-.477.284-.722.415l.245 3.226-1.503.548-1.885-2.63c-.27.057-.545.106-.822.144L31.755 56h-1.6l-.872-3.116a11.86 11.86 0 0 1-.822-.144l-1.882 2.63-1.504-.548.247-3.226a11.21 11.21 0 0 1-.722-.417l-2.67 1.824-1.226-1.03 1.336-2.947c-.186-.206-.364-.42-.536-.638l-3.135.802-.8-1.386 2.26-2.312a13.056 13.056 0 0 1-.285-.784l-3.217-.318-.28-1.575 2.92-1.4a25.67 25.67 0 0 1 0-.834l-2.92-1.4.28-1.576 3.217-.318c.087-.267.182-.53.286-.786l-2.26-2.313.8-1.384 3.134.802c.172-.22.35-.432.536-.638l-1.335-2.95 1.227-1.027 2.67 1.826c.235-.147.476-.287.723-.418l-.247-3.225 1.504-.547 1.884 2.63a12 12 0 0 1 .823-.145L30.155 26h1.6l.873 3.116c.277.038.55.086.822.143l1.884-2.63 1.503.547-.245 3.225c.245.13.486.27.72.418l2.672-1.825 1.226 1.028-1.335 2.95c.186.205.364.418.535.636l3.136-.804.8 1.386-2.26 2.312c.103.257.2.52.285.784l3.22.317.277 1.576-2.917 1.4c.003.14.003.696-.002.834zM30.953 38a3 3 0 1 0 0 6 3 3 0 0 0 0-6z"/></svg>
