<svg width="466" height="624" viewBox="0 0 466 624" fill="none" xmlns="http://www.w3.org/2000/svg">
<path fill-rule="evenodd" clip-rule="evenodd" d="M176.074 623.297V539.06H287.049V624C389.668 599.645 466 507.465 466 397.47C466 307.938 402.023 181.977 327.864 143.02C337.85 177.944 322.871 223.512 302.9 219.52C295.374 218.016 294.62 206.207 293.403 187.151C290.851 147.21 286.267 75.434 213.028 0C207.171 52.6774 123.091 159.973 68.347 229.832C60.8752 239.367 53.9501 248.205 47.8447 256.111C18.3072 294.36 0 344.307 0 397.47C0 506.434 74.9088 597.915 176.074 623.297ZM294.673 444.394C294.673 478.543 266.969 506.227 232.795 506.227C198.62 506.227 170.917 478.543 170.917 444.394C170.917 430.275 175.779 417.011 183.623 406.853C185.244 404.754 187.084 402.406 189.068 399.874C203.606 381.322 225.935 352.827 227.491 338.837C273.569 369.753 294.673 420.617 294.673 444.394Z" fill="#f25533"/>
</svg>
