<svg
 xmlns="http://www.w3.org/2000/svg"
 xmlns:xlink="http://www.w3.org/1999/xlink"
 width="60px" height="49px">
<path fill-rule="evenodd"  fill="rgb(230, 235, 241)"
 d="M60.000,5.895 C57.792,6.874 55.420,7.535 52.930,7.833 C55.471,6.309 57.423,3.897 58.342,1.022 C55.964,2.433 53.329,3.458 50.525,4.010 C48.280,1.617 45.081,0.122 41.540,0.122 C34.742,0.122 29.231,5.634 29.231,12.432 C29.231,13.397 29.339,14.336 29.549,15.237 C19.319,14.724 10.248,9.823 4.177,2.376 C3.117,4.194 2.510,6.308 2.510,8.564 C2.510,12.835 4.684,16.603 7.987,18.810 C5.969,18.746 4.071,18.192 2.411,17.270 C2.410,17.322 2.410,17.373 2.410,17.425 C2.410,23.389 6.653,28.364 12.284,29.496 C11.251,29.777 10.164,29.927 9.041,29.927 C8.248,29.927 7.477,29.850 6.725,29.706 C8.292,34.597 12.838,38.156 18.224,38.255 C14.012,41.557 8.704,43.525 2.936,43.525 C1.943,43.525 0.963,43.466 0.000,43.352 C5.448,46.845 11.918,48.883 18.870,48.883 C41.512,48.883 53.893,30.126 53.893,13.859 C53.893,13.326 53.881,12.795 53.858,12.267 C56.263,10.531 58.350,8.363 60.000,5.895 Z"/>
</svg>