<svg xmlns="http://www.w3.org/2000/svg" width="72" height="72"><path fill="#C4F0FF" d="M36 0c19.882 0 36 16.117 36 36 0 19.882-16.118 36-36 36S0 55.882 0 36C0 16.116 16.118 0 36 0z"/><path fill="#87BBFD" d="M18.5 54a1.5 1.5 0 0 1-1.5-1.5v-22a1.5 1.5 0 0 1 1.5-1.5H37v25H18.5zM25 33a1 1 0 0 0-1-1h-3a1 1 0 0 0-1 1v3a1 1 0 0 0 1 1h3a1 1 0 0 0 1-1v-3zm0 8a1 1 0 0 0-1-1h-3a1 1 0 0 0-1 1v3a1 1 0 0 0 1 1h3a1 1 0 0 0 1-1v-3zm7-8a1 1 0 0 0-1-1h-3a1 1 0 0 0-1 1v3a1 1 0 0 0 1 1h3a1 1 0 0 0 1-1v-3z"/><path fill="#6772E5" d="M51.5 54H47v-8a1 1 0 0 0-1-1h-4a1 1 0 0 0-1 1v8h-6V17.5a1.5 1.5 0 0 1 1.5-1.5h15a1.5 1.5 0 0 1 1.5 1.5v35a1.5 1.5 0 0 1-1.5 1.5zM43 29a1 1 0 0 0-1-1h-3a1 1 0 0 0-1 1v3a1 1 0 0 0 1 1h3a1 1 0 0 0 1-1v-3zm0 8a1 1 0 0 0-1-1h-3a1 1 0 0 0-1 1v3a1 1 0 0 0 1 1h3a1 1 0 0 0 1-1v-3zm7 0a1 1 0 0 0-1-1h-3a1 1 0 0 0-1 1v3a1 1 0 0 0 1 1h3a1 1 0 0 0 1-1v-3z"/><path fill="#87BBFD" d="M49 33h-3a1 1 0 0 1-1-1v-3a1 1 0 0 1 1-1h3a1 1 0 0 1 1 1v3a1 1 0 0 1-1 1zm0-8h-3a1 1 0 0 1-1-1v-3a1 1 0 0 1 1-1h3a1 1 0 0 1 1 1v3a1 1 0 0 1-1 1zm-7 0h-3a1 1 0 0 1-1-1v-3a1 1 0 0 1 1-1h3a1 1 0 0 1 1 1v3a1 1 0 0 1-1 1zm-2 27h8a1 1 0 0 1 1 1v1H39v-1a1 1 0 0 1 1-1z"/></svg>