<svg xmlns="http://www.w3.org/2000/svg" width="70" height="70" viewBox="0 0 70 70"><path d="M16 48H6.5A2.5 2.5 0 0 1 4 45.5v-31A2.5 2.5 0 0 1 6.5 12h46a2.5 2.5 0 0 1 2.5 2.5V23" fill="none" stroke="#aab7c4" stroke-linejoin="round" stroke-width="2" opacity=".5"/><path d="M9 32h6.986v4.006H9V32zM64.5 59h-46a2.5 2.5 0 0 1-2.5-2.5v-31a2.5 2.5 0 0 1 2.5-2.5h46a2.5 2.5 0 0 1 2.5 2.5v31a2.5 2.5 0 0 1-2.5 2.5zM50 53a1 1 0 0 0-1-1h-8a1 1 0 0 0-1 1v1a1 1 0 0 0 1 1h8a1 1 0 0 0 1-1v-1zm13 0a1 1 0 0 0-1-1h-8a1 1 0 0 0-1 1v1a1 1 0 0 0 1 1h8a1 1 0 0 0 1-1v-1z" opacity=".5" fill="#aab7c4"/><path fill="#aab7c4" d="M16 29h51v7H16z"/></svg>