<svg xmlns="http://www.w3.org/2000/svg" width="70" height="70" viewBox="0 0 70 70"><path d="M38.157 28a5.86 5.86 0 0 0 .856-3.02 6.017 6.017 0 0 0-12.034 0 5.868 5.868 0 0 0 .854 3.02H23v5.97a16.54 16.54 0 0 0-12-.79V13.97a1 1 0 0 1 1-1h42a1 1 0 0 1 1 1V28H38.157z" fill="#aab7c4" opacity=".5"/><path d="M62 50H32.543c.02-.33.05-.66.05-1A16.594 16.594 0 0 0 21 33.18V29a3 3 0 0 1 3-3h38a3 3 0 0 1 3 3v18a3 3 0 0 1-3 3zM42.98 32.01a6 6 0 1 0 6.017 6 6 6 0 0 0-6.017-6z" fill="#aab7c4"/><path d="M16 63a14 14 0 1 1 14-14 14 14 0 0 1-14 14zm0 0a14 14 0 1 1 14-14 14 14 0 0 1-14 14z" opacity=".5" fill="none" stroke="#aab7c4" stroke-linecap="round" stroke-linejoin="round" stroke-width="2"/><path d="M15.986 40.05a1.98 1.98 0 0 0-2.038 2.05l.7 7.52a1.34 1.34 0 1 0 2.68 0l.7-7.52a1.98 1.98 0 0 0-2.042-2.05zm0 13.52a2.235 2.235 0 1 0 2.23 2.24 2.233 2.233 0 0 0-2.23-2.24z" fill="#aab7c4"/></svg>