<?xml version="1.0" encoding="iso-8859-1"?>
<!-- Generator: Adobe Illustrator 19.0.0, SVG Export Plug-In . SVG Version: 6.00 Build 0)  -->
<svg version="1.1" id="Capa_1" xmlns="http://www.w3.org/2000/svg" xmlns:xlink="http://www.w3.org/1999/xlink" x="0px" y="0px"
	 viewBox="0 0 58 58" style="enable-background:new 0 0 58 58;" xml:space="preserve">
<polygon style="fill:#424A60;" points="37.5,2 33.5,2 33.5,5 24.5,5 24.5,2 20.5,2 5.5,2 5.5,58 52.5,58 52.5,2 "/>
<rect x="24.5" style="fill:#303644;" width="9" height="5"/>
<polygon style="fill:#EDEADA;" points="40.5,5 40.5,8 17.5,8 17.5,5 8.5,5 8.5,55 49.5,55 49.5,5 "/>
<polygon style="fill:#7383BF;" points="33.5,2 33.5,5 24.5,5 24.5,2 17.5,2 17.5,8 40.5,8 40.5,2 "/>
<path style="fill:#CEC9AE;" d="M27.5,16h-13c-0.553,0-1-0.447-1-1s0.447-1,1-1h13c0.553,0,1,0.447,1,1S28.053,16,27.5,16z"/>
<path style="fill:#CEC9AE;" d="M27.5,47h-13c-0.553,0-1-0.447-1-1s0.447-1,1-1h13c0.553,0,1,0.447,1,1S28.053,47,27.5,47z"/>
<path style="fill:#CEC9AE;" d="M43.5,22h-29c-0.553,0-1-0.447-1-1s0.447-1,1-1h29c0.553,0,1,0.447,1,1S44.053,22,43.5,22z"/>
<path style="fill:#CEC9AE;" d="M43.5,34h-29c-0.553,0-1-0.447-1-1s0.447-1,1-1h29c0.553,0,1,0.447,1,1S44.053,34,43.5,34z"/>
<path style="fill:#CEC9AE;" d="M43.5,41h-29c-0.553,0-1-0.447-1-1s0.447-1,1-1h29c0.553,0,1,0.447,1,1S44.053,41,43.5,41z"/>
<path style="fill:#CEC9AE;" d="M28.5,28h-14c-0.553,0-1-0.447-1-1s0.447-1,1-1h14c0.553,0,1,0.447,1,1S29.053,28,28.5,28z"/>
<path style="fill:#CEC9AE;" d="M43.5,28h-7c-0.553,0-1-0.447-1-1s0.447-1,1-1h7c0.553,0,1,0.447,1,1S44.053,28,43.5,28z"/>
<path style="fill:#CEC9AE;" d="M32.5,28c-0.271,0-0.521-0.101-0.71-0.29c-0.181-0.19-0.29-0.45-0.29-0.71
	c0-0.271,0.1-0.521,0.29-0.71c0.38-0.38,1.04-0.37,1.42,0c0.189,0.189,0.29,0.439,0.29,0.71c0,0.27-0.11,0.52-0.29,0.71
	C33.02,27.89,32.77,28,32.5,28z"/>
<g>
</g>
<g>
</g>
<g>
</g>
<g>
</g>
<g>
</g>
<g>
</g>
<g>
</g>
<g>
</g>
<g>
</g>
<g>
</g>
<g>
</g>
<g>
</g>
<g>
</g>
<g>
</g>
<g>
</g>
</svg>
