<svg width="566.38" height="275.07" xmlns="http://www.w3.org/2000/svg">

 <g>
  <title>background</title>
  <rect fill="none" id="canvas_background" height="402" width="582" y="-1" x="-1"/>
 </g>
 <g>
  <title>Layer 1</title>
  <rect id="svg_1" height="275.072" width="566.38" stroke-linejoin="round" stroke-width="0.2" fill="#000000" y="0.000031" x="0"/>
  <g id="svg_2">
   <path id="svg_3" d="m219.416,91.514702c-2.218002,-0.928001 -4.748001,-1.391899 -7.589996,-1.391899c-7.973999,0 -11.960999,4.298897 -11.960999,12.896194l0,9.374001l16.766998,0l0,12.526001l-16.702011,0l0,57.066994l-15.310989,0l0,-57.066994l-12.526001,0l0,-12.526001l12.526001,0l0,-11.222c0,-7.292999 2.425003,-13.045395 7.274994,-17.257195c4.850006,-4.211906 10.914001,-6.317802 18.192001,-6.317802c3.929001,0 7.039001,0.4132 9.330002,1.239601l0,12.6791z" stroke-linejoin="round" stroke-width="0.2" fill="#ffffff"/>
   <path id="svg_4" d="m291.096985,112.392998l-31.77298,80.859001c-6.654999,14.759003 -15.985001,22.139008 -27.990005,22.139008c-3.363998,0 -6.175995,-0.290009 -8.438004,-0.87001l0,-13.048996c2.552002,0.927994 4.863998,1.391998 6.936996,1.391998c6.017014,0 10.512009,-3.007996 13.484009,-9.024994l4.785004,-11.853012l-27.990005,-69.592995l17.464005,0l16.962997,50.672005c0.188995,0.638 0.608994,2.319992 1.261002,5.04599l0.348007,0c0.231995,-1.043991 0.645996,-2.681992 1.23999,-4.914993l17.812012,-50.803001l15.896973,0z" stroke-linejoin="round" stroke-width="0.2" fill="#ffffff"/>
   <rect id="svg_5" height="69.5934" width="15.3105" stroke-linejoin="round" stroke-width="0.2" fill="#ffffff" y="112.393" x="300.84"/>
   <path id="svg_6" d="m352.622009,171.460007l-0.282013,0l0,42.538986l-15.311005,0l0,-101.605995l15.311005,0l0,12.417999l0.282013,0c5.480988,-9.207001 13.498993,-13.809998 24.053986,-13.809998c8.989014,0 15.994995,3.092003 21.019012,9.275002c5.023987,6.183998 7.53598,14.488007 7.53598,24.912994c0,11.555008 -2.834991,20.809006 -8.503998,27.761002c-5.668976,6.951996 -13.41098,10.428009 -23.22699,10.428009c-9.032013,0 -15.992004,-3.973007 -20.877991,-11.917999zm-0.412994,-27.207001l0,8.546997c0,5.030991 1.634979,9.298004 4.903992,12.798996c3.269989,3.501007 7.427002,5.251999 12.472992,5.251999c5.901001,0 10.53299,-2.253998 13.897003,-6.763c3.363007,-4.509003 5.045013,-10.802002 5.045013,-18.877991c0,-6.785004 -1.56601,-12.095001 -4.697021,-15.930008c-3.131989,-3.834999 -7.380005,-5.751999 -12.744995,-5.751999c-5.669006,0 -10.231995,1.974998 -13.690002,5.925995c-3.458008,3.951004 -5.186981,8.884003 -5.186981,14.799011z" stroke-linejoin="round" stroke-width="0.2" fill="#ffffff"/>
   <path id="svg_7" d="m481.783997,151.365005l-48.716003,0c0.188995,6.233994 2.226013,11.041 6.110992,14.418991c3.886017,3.378006 9.229004,5.067001 16.028015,5.067001c7.627014,0 14.630005,-2.319992 21.009003,-6.959l0,13.244003c-6.553009,4.160995 -15.209015,6.242004 -25.96701,6.242004c-10.570007,0 -18.858978,-3.139008 -24.868988,-9.417007c-6.01001,-6.278 -9.014008,-15.115005 -9.014008,-26.511002c0,-10.757996 3.304993,-19.521996 9.916992,-26.292999c6.611023,-6.770996 14.825012,-10.155998 24.640015,-10.155998c9.81601,0 17.412994,3.034004 22.791992,9.100998c5.378998,6.068001 8.069,14.487999 8.069,25.261009l0,6.001999zm-16.703003,-11.13501c-0.042999,-5.276993 -1.369995,-9.380997 -3.97998,-12.308998c-2.610016,-2.929001 -6.213013,-4.392998 -10.809021,-4.392998c-4.509003,0 -8.324982,1.540001 -11.449982,4.621002c-3.124023,3.080994 -5.049011,7.108002 -5.774017,12.080994l32.013,0z" stroke-linejoin="round" stroke-width="0.2" fill="#ffffff"/>
  </g>
  <path id="svg_8" d="m138.367996,85.831398l14.499008,0c2.209,0 4,1.790802 4,4l0,87.994606c0,2.209991 -1.791,4 -4,4l-14.499008,0c-2.209,0 -4,-1.790009 -4,-4l0,-87.994606c0,-2.209198 1.791,-4 4,-4z" stroke-linejoin="round" stroke-width="0.2" fill="#6CDB56"/>
  <path id="svg_9" d="m106.620003,86.581001l14.499001,0c2.209,0 4,1.790901 4,4l0,87.995003c0,2.209 -1.791,4 -4,4l-14.499001,0c-2.209,0 -4,-1.791 -4,-4l0,-87.995003c0,-2.209099 1.791,-4 4,-4z" stroke-linejoin="round" stroke-width="0.2" fill="#6CDB56"/>
  <path id="svg_10" d="m74.122299,86.080803l14.498901,0c2.209099,0 4,1.790894 4,4l0,87.995201c0,2.209 -1.790901,4 -4,4l-14.498901,0c-2.209198,0 -4,-1.791 -4,-4l0,-87.995201c0,-2.209106 1.790802,-4 4,-4z" stroke-linejoin="round" stroke-width="0.2" fill="#6CDB56"/>
 </g>
</svg>