<svg xmlns="http://www.w3.org/2000/svg" viewBox="0 0 428 96"><g fill="#9BA9BB" fill-rule="evenodd"><path d="M0 48a11.87 11.87 0 1 1 23.74 0A11.87 11.87 0 0 1 0 48zm83.36 11.88a11.87 11.87 0 1 1 0-23.75 11.87 11.87 0 0 1 0 23.74zm0-59.38A47.48 47.48 0 0 0 35.89 48a47.48 47.48 0 0 0 47.47 47.5A47.48 47.48 0 0 0 130.82 48 47.48 47.48 0 0 0 83.36.5zM422.6 44.32c.75 0 1.2-.33 1.2-.94 0-.56-.3-.92-1.14-.92h-.78v1.86h.73zm-1.86-2.8h2.11c1.17 0 2.17.47 2.17 1.8 0 .67-.42 1.31-1.03 1.53l1.28 2.3H424l-.97-1.94h-1.14v1.95h-1.14v-5.64zm6.14 2.89c0-2.61-1.8-4.48-4.14-4.48-2.33 0-4.1 1.87-4.1 4.48 0 2.64 1.77 4.44 4.1 4.44 2.33 0 4.14-1.8 4.14-4.44zm-9.36 0c0-3.25 2.36-5.48 5.22-5.48 2.89 0 5.25 2.23 5.25 5.48 0 3.25-2.36 5.47-5.25 5.47-2.86 0-5.22-2.22-5.22-5.47zM382.7 66.63c.7 0 1.3-.6 1.3-1.3v-4.76c0-.7-.6-1.3-1.3-1.3h-.2c-.58 0-1.17-.57-1.17-1.15V29.86c0-.64-.64-1.29-1.28-1.29h-4.75c-.65 0-1.29.65-1.29 1.3v31.29l.02.82a5 5 0 0 0 4.66 4.65h4zm-208.84-30.6c6.46 0 11.9 5.48 11.9 11.97a11.86 11.86 0 1 1-23.75 0c0-6.6 5.32-11.96 11.85-11.96zm0-7.53A19.45 19.45 0 0 0 154.5 48c0 10.87 8.5 19.4 19.37 19.4A19.2 19.2 0 0 0 193.3 48c0-10.75-8.72-19.5-19.43-19.5zm154.59 30.4c-.35 1-2.46 2.87-4.86 2.87-2.52 0-3.93-1.52-3.93-3.8 0-2.41 1.7-3.88 4.8-3.88 2.17 0 3.99.82 3.99.82v4zm-3.16-19.99c-4.4 0-8.68 1.11-9.26 1.35-.59.17-1.11.64-.88 1.64l.59 3.05c.11.82.64 1.46 1.52 1.17 1.58-.47 5.15-1 7.62-1 2.87 0 3.86 1.65 3.74 5.1 0 0-2.46-.76-5.21-.76-6.85 0-10.78 3.7-10.78 8.5 0 5.8 3.75 9.27 9.14 9.27 4.22 0 6.91-1.88 8.5-3.4v1.45c0 .7.58 1.3 1.28 1.3h2.64c.7 0 1.29-.58 1.29-1.29V50.7c0-7.38-1.76-11.78-10.2-11.78zm-49.19 0c-5.18 0-7.7 2.79-8.7 3.9V40.8c0-.7-.6-1.3-1.3-1.3h-3.06a1.3 1.3 0 0 0-1.29 1.3v24.5c0 .7.64 1.3 1.29 1.3h4.33c1.3 0 1.7-.3 1.7-1.3V49.81a5.96 5.96 0 0 1 5.86-4.22c3.28 0 4.69 2.17 4.69 5.69v14.01c0 .7.58 1.3 1.29 1.3h4.74c.65 0 1.3-.6 1.3-1.3V51.28c0-6.57-2.24-12.37-10.85-12.37zm-64.5 21.63a10.7 10.7 0 0 1-5.62-1.52v-9.68a6.2 6.2 0 0 1 5.97-3.75c4.22 0 6.39 3.7 6.39 7.5 0 3.82-2.29 7.45-6.74 7.45zm1.35-21.63c-5.57 0-8.65 3.8-8.84 4.04v-2.16c0-.7-.58-1.3-1.29-1.3h-2.88c-.7 0-1.29.6-1.29 1.3V76.3c0 .65.59 1.3 1.3 1.3h4.74c.64 0 1.29-.65 1.29-1.3v-10.2a20.1 20.1 0 0 0 6.5 1.12c8.09 0 13.42-6.22 13.42-14.13 0-8.21-5.57-14.19-12.95-14.19zm193.2 10.73c-.12-2.64-2.23-4.7-5.22-4.7-3.28 0-5.38 2-5.74 4.7h10.96zM401.1 38.9c7.03 0 12.42 5.22 12.42 12.54 0 .41-.06 1.35-.12 1.76-.06.7-.7 1.23-1.29 1.23h-17.34c.06 3.34 2.82 6.28 6.74 6.28 2.7 0 4.57-1 5.8-2 .64-.52 1.35-.58 1.76 0l2.28 3.05c.47.53.53 1.17-.12 1.76-2.34 2-5.68 3.7-10.07 3.7-8.09 0-13.7-6.46-13.7-14.2 0-7.61 5.61-14.12 13.64-14.12zm-45.85 21.63a6.2 6.2 0 0 1-5.97-3.75v-9.67s2.22-1.53 5.62-1.53c4.45 0 6.74 3.64 6.74 7.45 0 3.8-2.17 7.5-6.39 7.5zm.64-21.63c-2.69 0-5.38.65-6.61 1.17V29.77c0-.65-.6-1.3-1.3-1.3h-4.74c-.64 0-1.29.65-1.29 1.3v35.52c0 .7.65 1.3 1.3 1.3h2.04c.04 0 .08 0 .12-.02h.55c.7 0 1.3-.58 1.3-1.29v-2l.02-.1s3.1 4.05 9.02 4.05c7.39 0 12.72-6.45 12.72-14.2 0-7.9-5.1-14.12-13.13-14.12zm-41.44-10.43H286.9c-.64 0-1.11.52-1.11 1.1v4.82c0 .58.47 1.11 1.11 1.11h9.94v29.96c0 .58.53 1.11 1.11 1.11h5.45c.59 0 1.12-.53 1.12-1.11V35.5h9.94c.64 0 1.1-.53 1.1-1.11v-4.81c0-.59-.46-1.11-1.1-1.11zm-65.6 21.16c-.12-2.64-2.23-4.7-5.21-4.7-3.28 0-5.4 2-5.74 4.7h10.95zm-5.04-10.73c7.03 0 12.42 5.22 12.42 12.54 0 .41-.06 1.35-.12 1.76-.06.7-.7 1.23-1.28 1.23H237.5c.05 3.34 2.8 6.28 6.73 6.28 2.7 0 4.57-1 5.8-2 .65-.52 1.35-.58 1.76 0l2.28 3.05c.47.53.53 1.17-.11 1.76-2.35 2-5.69 3.7-10.08 3.7-8.08 0-13.7-6.46-13.7-14.2 0-7.61 5.62-14.12 13.64-14.12z"/></g></svg>