<svg xmlns="http://www.w3.org/2000/svg" viewBox="0 0 220 160"><path fill="#9BA9BB" fill-rule="evenodd" d="M81.17 78.43c0 5.63-.6 8.44-4.68 8.44-4.26 0-4.94-2.56-4.94-7.67V34.25h-33.1v52.8c0 9.18 2.2 16.74 7.39 22.69 5.18 5.94 11.59 8.9 19.59 8.9 5.4 0 10.84-1.65 16.48-4.99-3.1 11.78-10.1 17.66-20.57 17.66-3.28 0-6.41-.92-11.59-2.76 0 0-4.9-1.56-11.3-5.29v27.43s6.37 4 11.3 5.86a50.15 50.15 0 0 0 17.97 3.44c13.65 0 25.06-5.23 34.68-15.67 8.06-8.79 11.87-20.33 11.87-34.63V34.25h-33.1v44.18zM156.23.4c-39.29 3.54-36.62 45.56-36.62 45.56v73.47c21.36 0 32.04-10.26 32.04-24.46v-9.6h15.76V53.43h-15.76v-4.27c0-5 1.32-8.84 3.54-11.55 2.17-2.63 5.34-3.97 9.3-4.03 2.63.03 7.47.9 8.45 4.7l.07.3v33.31c0 12.23 2.3 22.05 7.26 29.46a41.59 41.59 0 0 0 15.5 13.78 43.7 43.7 0 0 0 20.6 5.07c.8 0 2.27-.02 3.63-.08V86.27c-6.77 0-9.68-1.26-11.83-3.84-2.16-2.59-3.2-7.7-3.2-14.1h11.52V34.25h-10.92c-2.05-12.78-9.73-32.04-38.2-34.18 0 0-3.37-.13-6.01-.04-2.06.08-5.13.37-5.13.37zM44.3 116.77l.02.05a43.43 43.43 0 0 1-11.21 4.65v.17l-.11-.16c-1.96.43-3.9.67-5.78.67-8.07 0-14.53-3-19.76-9C2.24 107.17 0 99.54 0 90.28V2.21h33.1v88.06c0 9.27 2.22 16.9 7.45 22.89a28.88 28.88 0 0 0 3.75 3.6z"/></svg>