<?xml version="1.0" encoding="utf-8"?>
<!DOCTYPE svg PUBLIC "-//W3C//DTD SVG 1.1//EN" "http://www.w3.org/Graphics/SVG/1.1/DTD/svg11.dtd">
<svg xmlns="http://www.w3.org/2000/svg" xmlns:xlink="http://www.w3.org/1999/xlink" version="1.1" baseProfile="full" width="131.993" height="131.993" viewBox="0 0 131.99 131.99" enable-background="new 0 0 131.99 131.99" xml:space="preserve">
	<path fill="#FFFFFF" fill-opacity="0" stroke-width="0.2" stroke-linejoin="round" d="M 4,-3.05176e-005L 127.993,-3.05176e-005C 130.203,-3.05176e-005 131.993,1.79086 131.993,3.99997L 131.993,127.993C 131.993,130.203 130.203,131.993 127.993,131.993L 4,131.993C 1.79086,131.993 0,130.203 0,127.993L 0,3.99997C 0,1.79086 1.79086,-3.05176e-005 4,-3.05176e-005 Z "/>
	<path fill="#6CDB56" fill-opacity="1" stroke-width="0.2" stroke-linejoin="round" d="M 93.3703,19.8742L 107.869,19.8742C 110.078,19.8742 111.869,21.6651 111.869,23.8742L 111.869,111.869C 111.869,114.078 110.078,115.869 107.869,115.869L 93.3703,115.869C 91.1612,115.869 89.3703,114.078 89.3703,111.869L 89.3703,23.8742C 89.3703,21.6651 91.1612,19.8742 93.3703,19.8742 Z "/>
	<path fill="#6CDB56" fill-opacity="1" stroke-width="0.2" stroke-linejoin="round" d="M 59.6224,20.6239L 74.1212,20.6239C 76.3304,20.6239 78.1212,22.4148 78.1212,24.6239L 78.1212,112.619C 78.1212,114.828 76.3304,116.619 74.1212,116.619L 59.6224,116.619C 57.4132,116.619 55.6224,114.828 55.6224,112.619L 55.6224,24.6239C 55.6224,22.4148 57.4132,20.6239 59.6224,20.6239 Z "/>
	<path fill="#6CDB56" fill-opacity="1" stroke-width="0.2" stroke-linejoin="round" d="M 24.1242,20.1237L 38.6231,20.1237C 40.8323,20.1237 42.6231,21.9146 42.6231,24.1237L 42.6231,112.119C 42.6231,114.328 40.8323,116.119 38.6231,116.119L 24.1242,116.119C 21.9151,116.119 20.1242,114.328 20.1242,112.119L 20.1242,24.1237C 20.1242,21.9146 21.9151,20.1237 24.1242,20.1237 Z "/>
</svg>
