<?xml version="1.0" encoding="utf-8"?>
<!DOCTYPE svg PUBLIC "-//W3C//DTD SVG 1.1//EN" "http://www.w3.org/Graphics/SVG/1.1/DTD/svg11.dtd">
<svg xmlns="http://www.w3.org/2000/svg" xmlns:xlink="http://www.w3.org/1999/xlink" version="1.1" baseProfile="full" width="279.847" height="279.847" viewBox="0 0 279.85 279.85" enable-background="new 0 0 279.85 279.85" xml:space="preserve">
	<rect x="0" y="-6.10352e-005" fill="#000000" fill-opacity="1" stroke-linejoin="round" width="279.847" height="279.847"/>
	<path fill="#FFFFFF" fill-opacity="1" stroke-linejoin="round" d="M 210.649,103.501C 208.431,102.573 205.901,102.109 203.059,102.109C 195.085,102.109 191.097,106.408 191.097,115.006L 191.097,124.379L 207.865,124.379L 207.865,136.906L 191.163,136.906L 191.163,193.973L 175.852,193.973L 175.852,136.906L 163.325,136.906L 163.325,124.379L 175.852,124.379L 175.852,113.157C 175.852,105.865 178.277,100.112 183.127,95.9003C 187.977,91.6884 194.041,89.5826 201.319,89.5826C 205.248,89.5826 208.358,89.9958 210.649,90.8222L 210.649,103.501 Z "/>
	<rect x="217.608" y="124.379" fill="#FFFFFF" fill-opacity="1" stroke-linejoin="round" width="15.3105" height="69.5934"/>
	<path fill="#6CDB56" fill-opacity="1" stroke-linejoin="round" d="M 129.601,97.818L 144.1,97.818C 146.309,97.818 148.1,99.6088 148.1,101.818L 148.1,189.813C 148.1,192.022 146.309,193.813 144.1,193.813L 129.601,193.813C 127.392,193.813 125.601,192.022 125.601,189.813L 125.601,101.818C 125.601,99.6088 127.392,97.818 129.601,97.818 Z "/>
	<path fill="#6CDB56" fill-opacity="1" stroke-linejoin="round" d="M 95.8531,98.5677L 110.352,98.5677C 112.561,98.5677 114.352,100.358 114.352,102.568L 114.352,190.563C 114.352,192.772 112.561,194.563 110.352,194.563L 95.8531,194.563C 93.644,194.563 91.8531,192.772 91.8531,190.563L 91.8531,102.568C 91.8531,100.358 93.644,98.5677 95.8531,98.5677 Z "/>
	<path fill="#6CDB56" fill-opacity="1" stroke-linejoin="round" d="M 60.355,98.0674L 74.8539,98.0674C 77.063,98.0674 78.8539,99.8583 78.8539,102.067L 78.8539,190.063C 78.8539,192.272 77.063,194.063 74.8539,194.063L 60.355,194.063C 58.1458,194.063 56.355,192.272 56.355,190.063L 56.355,102.067C 56.355,99.8583 58.1458,98.0674 60.355,98.0674 Z "/>
</svg>
