<?xml version="1.0"?>
<svg xmlns="http://www.w3.org/2000/svg" xmlns:xlink="http://www.w3.org/1999/xlink" version="1.1" id="Capa_1" x="0px" y="0px" viewBox="0 0 212.982 212.982" style="enable-background:new 0 0 212.982 212.982;" xml:space="preserve" width="512px" height="512px" class=""><g><g id="Close">
	<path d="M131.804,106.491l75.936-75.936c6.99-6.99,6.99-18.323,0-25.312   c-6.99-6.99-18.322-6.99-25.312,0l-75.937,75.937L30.554,5.242c-6.99-6.99-18.322-6.99-25.312,0c-6.989,6.99-6.989,18.323,0,25.312   l75.937,75.936L5.242,182.427c-6.989,6.99-6.989,18.323,0,25.312c6.99,6.99,18.322,6.99,25.312,0l75.937-75.937l75.937,75.937   c6.989,6.99,18.322,6.99,25.312,0c6.99-6.99,6.99-18.322,0-25.312L131.804,106.491z" data-original="#000000" class="active-path" data-old_color="#6b7c93" fill="#6b7c93"/>
</g></g> </svg>
