<svg width="436" height="583" viewBox="0 0 436 583" xmlns="http://www.w3.org/2000/svg"><defs><radialGradient cx="48.83%" cy="100%" fx="48.83%" fy="100%" r="100%" id="a"><stop stop-color="#FFA833" offset="0%"/><stop stop-color="#FE677E" offset="100%"/></radialGradient><radialGradient cy="54.65%" fx="50%" fy="54.65%" r="66.26%" id="b"><stop stop-color="#FFB900" offset="0%"/><stop stop-color="#F95D8F" offset="60%"/><stop stop-color="#F95353" offset="99.91%"/></radialGradient><linearGradient x1="0%" y1="0%" y2="0%" id="c"><stop stop-color="#8A86FF" offset="0%"/><stop stop-color="#05CDFE" offset="100%"/></linearGradient></defs><g transform="translate(0 1)" fill="none" fill-rule="evenodd"><rect stroke="#EFF1F5" stroke-width="2" fill="#FFF" x="1" width="434" height="581" rx="5"/><path fill="#F9FCFF" d="M2 295h432v217H2z"/><path fill="url(#a)" d="M1 35h434v260H1z"/><path d="M34.45 20.9c-1.62 0-2.93-1.34-2.93-3 0-1.65 1.3-3 2.93-3 1.6 0 2.93 1.35 2.93 3 0 1.66-1.32 3-2.93 3zm2.93.38c0 .28.47 1.05 1.05 1.05h.37c.15 0 .27-.12.27-.27v-8.2c0-.13-.13-.24-.27-.24h-1.15c-.14 0-.26.1-.26.25h-.02v.67c-.7-.88-1.82-1.24-2.94-1.24-2.54 0-4.6 2.06-4.6 4.6 0 2.55 2.06 4.6 4.6 4.6 1.12 0 2.34-.42 2.94-1.22zm4.45-1.17c.77.54 1.6.8 2.42.8.77 0 1.57-.4 1.57-1.1 0-.92-1.74-1.07-2.83-1.44-1.1-.37-2.04-1.13-2.04-2.38 0-1.9 1.7-2.68 3.27-2.68 1 0 2.03.33 2.7.8.23.18.1.38.1.38l-.65.9c-.07.1-.22.2-.37.1-.42-.3-.9-.57-1.77-.57-1.07 0-1.54.46-1.54 1 0 .67.74.88 1.62 1.1 1.54.42 3.22.92 3.22 2.8 0 1.68-1.56 2.7-3.3 2.7-1.3 0-2.42-.36-3.35-1.05-.2-.2-.07-.37-.07-.37l.63-.9c.13-.18.3-.12.37-.07zM56.2 21.3c0 .28.48 1.05 1.05 1.05h.38c.14 0 .26-.12.26-.27v-8.2c-.02-.13-.13-.24-.27-.24h-1.16c-.14 0-.25.1-.26.25v.67c-.7-.88-1.82-1.24-2.94-1.24-2.54 0-4.6 2.06-4.6 4.6 0 2.55 2.06 4.6 4.6 4.6 1.12 0 2.34-.42 2.95-1.22zm-2.93-.38c-1.62 0-2.93-1.34-2.93-3 0-1.65 1.3-3 2.93-3 1.62 0 2.93 1.35 2.93 3 0 1.66-1.3 3-2.93 3zm14.97.66v-4.24c0-2.4-1.5-4-3.9-4-1.16 0-2.1.66-2.43 1.23 0-.57-.46-.9-1.04-.9h-.37c-.15 0-.27.1-.27.25V22.1c0 .14.12.25.26.25h1.2l.02-.02h.03l.02-.02h.02l.02-.02.04-.04c.03-.04.04-.1.05-.14v-4.84c0-1.3 1.05-2.33 2.33-2.33 1.3 0 2.33 1.04 2.33 2.33v4.84c0 .14.12.25.26.25h1.23c0-.02.02-.02.03-.02 0 0 .02 0 .02-.02h.02s.02 0 .03-.02l.04-.04c.02-.04.04-.1.04-.14v-.54zm9-.28c0 .28.48 1.05 1.06 1.05h.37c.14 0 .26-.12.26-.27v-8.2c0-.13-.12-.24-.26-.24H77.5c-.13 0-.24.1-.25.25v.67c-.7-.88-1.82-1.24-2.94-1.24-2.54 0-4.6 2.06-4.6 4.6 0 2.55 2.06 4.6 4.6 4.6 1.13 0 2.35-.42 2.95-1.22zm-2.93-.38c-1.6 0-2.92-1.34-2.92-3 0-1.65 1.3-3 2.93-3 1.63 0 2.94 1.35 2.94 3 0 1.66-1.3 3-2.93 3z" fill="#283343"/><path d="M11.7 7.32c-1.8 0-3.25 1.46-3.25 3.25 0 1.8 1.46 3.26 3.26 3.26 1.8 0 3.26-1.46 3.26-3.26 0-1.8-1.46-3.25-3.25-3.25zm-8.45 0C1.45 7.32 0 8.78 0 10.57c0 1.8 1.46 3.26 3.25 3.26 1.8 0 3.26-1.46 3.26-3.26 0-1.8-1.45-3.25-3.25-3.25zm7.48-4.07c0 1.8-1.45 3.26-3.25 3.26S4.23 5.06 4.23 3.26 5.68 0 7.48 0s3.25 1.46 3.25 3.25z" fill="url(#b)" transform="translate(12 11)"/><rect fill="#6967CE" x="354" y="11" width="70" height="14" rx="2"/><rect fill="#ABAAFA" opacity=".5" x="378" y="17" width="22" height="2" rx="1"/><g transform="translate(117 114)"><rect fill="#FFF" x="1" width="200" height="5" rx="1"/><rect fill="#650D00" opacity=".07" y="42" width="202" height="20" rx="4"/><rect fill="#FFF" opacity=".2" x="31" y="11" width="140" height="5" rx="1"/><rect fill="#6967CE" x="1" y="43" width="200" height="17" rx="2"/><rect fill="#ABAAFA" opacity=".5" x="86" y="50" width="30" height="3" rx="1"/><rect fill="#650D00" opacity=".07" y="81" width="97" height="20" rx="4"/><rect fill="#FFF" x="1" y="82" width="95" height="17" rx="2"/><rect fill="#F5F6F8" x="34" y="89" width="30" height="3" rx="1"/><rect fill="#650D00" opacity=".07" x="105" y="81" width="97" height="20" rx="4"/><rect fill="#6967CE" x="106" y="82" width="95" height="17" rx="2"/><rect fill="#ABAAFA" opacity=".5" x="139" y="89" width="30" height="3" rx="1"/><path fill="#FFF" opacity=".2" d="M1 70h200v1H1z"/></g><path d="M199 346.73c0-5.95 4.7-10.73 10.5-10.73 3.55 0 6.36 1.5 8 3.92 1.64-2.4 4.45-3.92 8-3.92 5.8 0 10.5 4.78 10.5 10.73 0 5.8-7.97 14.68-18 21.6l-.5.27-.5-.28c-10.03-6.9-18-15.78-18-21.6z" fill="#FFB101"/><path d="M217.1 339.4c.15.17.28.34.4.52V359h-11.56c-1.4-1.47-2.63-2.94-3.66-4.37l14.83-15.23z" fill="#23DFD2"/><path d="M229.06 359c1.4-1.47 2.63-2.94 3.66-4.37L217.9 339.4c-.15.17-.28.34-.4.52V359h11.56z" fill="#C86DD2"/><path d="M217.5 368.6l-.5-.28c-4.2-2.9-8.02-6.1-11.06-9.32h11.56v9.6z" fill="#32B4FF"/><path d="M217.5 368.6l.5-.28c4.2-2.9 8.02-6.1 11.06-9.32H217.5v9.6z" fill="#5D27FF"/><path d="M217.9 339.4c1.67-2.1 4.3-3.4 7.6-3.4 5.8 0 10.5 4.78 10.5 10.73 0 2.27-1.2 5-3.28 7.9L217.9 339.4z" fill="#FA5D85"/><rect fill="#DFE9F3" x="148" y="393" width="140" height="5" rx="1"/><rect fill="#DFE9F2" opacity=".4" x="118" y="411" width="200" height="3" rx="1"/><rect fill="#DFE9F2" opacity=".4" x="119" y="421" width="200" height="3" rx="1"/><rect fill="#DFE9F2" opacity=".4" x="148" y="431" width="140" height="3" rx="1"/><path d="M0 512h436v64c0 3.3-2.7 6-6 6H6c-3.3 0-6-2.68-6-6v-64z" fill="url(#c)"/><rect stroke="#6967CE" stroke-width="2" x="170" y="451" width="96" height="15" rx="2"/><rect fill="#ABAAFA" x="203" y="457" width="30" height="3" rx="1"/><path fill="#EFF1F5" d="M1 295h434v2H1z"/><path fill-opacity=".12" fill="#A51927" d="M1 35h434v2H1z"/></g></svg>