<svg width="253" height="461" viewBox="0 0 253 461" xmlns="http://www.w3.org/2000/svg"><g fill="none" fill-rule="evenodd"><rect fill="#FFF" width="253" height="461" rx="5"/><rect stroke-opacity=".2" stroke="#ADBACC" stroke-width="2" x="26" y="312" width="30" height="8" rx="1"/><rect stroke-opacity=".15" stroke="#ADBACC" stroke-width="2" x="1" y="1" width="251" height="459" rx="4"/><path d="M25.62 36.15v-3.92c4.16 0 7.36-4.12 5.78-8.48-.6-1.62-1.88-2.92-3.5-3.5-4.36-1.58-8.48 1.62-8.48 5.78H15.5c0-6.62 6.4-11.78 13.34-9.62 3.04.95 5.44 3.37 6.38 6.4 2.16 6.95-2.98 13.35-9.6 13.35zm0-3.92h-3.9v-3.9h3.9v3.9zm-3.9 3h-3v-3h3v3zm-3-3H16.2v-2.5h2.52v2.5zM51.5 21.77c-1.16-.8-2.6-1.22-4.28-1.22h-3.66v11.62h3.66c1.68 0 3.12-.42 4.28-1.28.64-.45 1.14-1.1 1.48-1.87.34-.78.52-1.7.52-2.74 0-1.03-.18-1.95-.52-2.73-.34-.76-.84-1.38-1.48-1.8zm-5.8.76h1.16c1.28 0 2.34.26 3.14.74.88.54 1.34 1.56 1.34 3.02 0 1.5-.46 2.57-1.34 3.15-.76.5-1.82.76-3.12.76h-1.16v-7.67h-.02zm10.36-2.12c-.36 0-.66.13-.9.37s-.38.54-.38.88c0 .36.12.66.38.9.24.24.54.38.9.38s.66-.12.9-.38c.24-.24.38-.56.38-.9 0-.36-.12-.66-.38-.88-.24-.24-.56-.36-.9-.36zM55 24h2.06v8.2H55V24zm9.56.67c-.62-.56-1.32-.88-2.06-.88-1.14 0-2.08.4-2.82 1.15-.74.76-1.1 1.76-1.1 2.94 0 1.15.36 2.13 1.1 2.93.74.76 1.68 1.16 2.82 1.16.8 0 1.48-.23 2.04-.67v.2c0 .68-.18 1.2-.54 1.58-.36.37-.86.55-1.48.55-.96 0-1.54-.38-2.28-1.36l-1.4 1.33.04.06c.3.4.76.83 1.38 1.23.62.4 1.38.6 2.3.6 1.22 0 2.22-.38 2.94-1.12.74-.73 1.1-1.73 1.1-2.97V24h-2.02v.67h-.02zm-.54 4.84c-.36.4-.82.6-1.42.6s-1.06-.2-1.4-.6c-.36-.4-.54-.93-.54-1.6 0-.65.18-1.2.54-1.6.36-.4.82-.63 1.4-.63.6 0 1.06.2 1.42.62.36.4.54.95.54 1.6 0 .67-.2 1.2-.54 1.6zm4.32-5.5h2.06v8.2h-2.06V24zm1.06-3.6c-.36 0-.66.13-.9.37s-.38.54-.38.88c0 .36.12.66.38.9.24.24.54.38.9.38s.66-.12.9-.38c.24-.24.38-.56.38-.9 0-.36-.12-.66-.38-.88-.24-.24-.56-.36-.9-.36zm5.52 1.4H72.9V24h-1.18v1.9h1.18v3.4c0 1.05.22 1.8.64 2.25.42.44 1.16.66 2.22.66.34 0 .68 0 1-.03h.1V30.3l-.7.03c-.5 0-.82-.08-.98-.26-.16-.18-.24-.54-.24-1.08v-3.13h1.92V24h-1.92v-2.2h-.02zm11.58-1.25h2.06v11.62H86.5V20.55zm22.88 8.7c-.36.42-.74.78-1.04.96-.28.2-.64.3-1.06.3-.6 0-1.1-.23-1.5-.7-.4-.45-.6-1.03-.6-1.73s.2-1.28.58-1.72c.4-.46.88-.68 1.48-.68.66 0 1.36.42 1.96 1.12l1.36-1.3c-.88-1.17-2.02-1.7-3.38-1.7-1.14 0-2.12.4-2.92 1.2-.8.8-1.2 1.85-1.2 3.07 0 1.22.4 2.24 1.2 3.06.8.82 1.78 1.22 2.92 1.22 1.5 0 2.7-.64 3.5-1.82l-1.3-1.28zm8.46-4.12c-.3-.4-.7-.74-1.18-.98-.5-.24-1.06-.36-1.7-.36-1.16 0-2.1.4-2.8 1.25-.68.84-1.04 1.86-1.04 3.08 0 1.24.38 2.26 1.14 3.06.74.77 1.76 1.17 2.98 1.17 1.38 0 2.54-.56 3.38-1.68l.04-.07-1.34-1.3c-.12.16-.3.32-.46.48-.2.2-.4.35-.6.45-.3.16-.66.22-1.04.22-.58 0-1.04-.16-1.4-.5-.34-.3-.54-.72-.58-1.24h5.46l.02-.76c0-.54-.08-1.04-.22-1.52-.14-.46-.36-.9-.66-1.32zm-4.5 1.94c.1-.4.28-.72.54-.98.28-.3.64-.43 1.08-.43.5 0 .88.14 1.14.42.24.25.38.57.42.95h-3.18v.02zm12.42-2.46c-.62-.53-1.48-.8-2.56-.8-.68 0-1.32.17-1.9.45-.54.28-1.06.72-1.4 1.32l.02.02 1.32 1.25c.54-.86 1.14-1.16 1.94-1.16.44 0 .78.1 1.06.33.28.22.4.52.4.88v.4c-.52-.15-1.02-.23-1.52-.23-1.02 0-1.86.24-2.48.72-.62.47-.94 1.17-.94 2.03 0 .76.26 1.4.8 1.86.54.43 1.2.67 1.98.67s1.52-.32 2.18-.86v.7h2.02v-5.3c.04-.97-.28-1.75-.92-2.3zm-3.66 4.45c.24-.16.56-.24.98-.24.5 0 1.02.1 1.56.3v.8c-.44.43-1.04.63-1.78.63-.36 0-.64-.08-.82-.24-.18-.17-.28-.35-.28-.6 0-.27.12-.5.34-.65zm12.54-4.28c-.58-.64-1.38-.96-2.4-.96-.82 0-1.48.25-1.98.7V24h-2.02v8.2h2.06v-4.53c0-.62.14-1.12.44-1.46.3-.35.68-.5 1.22-.5.46 0 .82.15 1.08.45.26.32.4.74.4 1.28v4.74h2.06v-4.74c0-1.12-.28-2.02-.86-2.66zm-50.72-.16c-.62-.53-1.48-.8-2.56-.8-.68 0-1.32.17-1.9.45-.54.28-1.06.72-1.4 1.32l.02.02 1.32 1.25c.54-.86 1.14-1.16 1.94-1.16.44 0 .78.1 1.06.33.28.22.4.52.4.88v.4c-.52-.15-1.02-.23-1.52-.23-1.02 0-1.86.24-2.48.72-.62.47-.94 1.17-.94 2.03 0 .76.26 1.4.8 1.86.54.43 1.2.67 1.98.67s1.52-.32 2.18-.86v.7h2.02v-5.3c.02-.97-.3-1.75-.92-2.3zm-3.66 4.45c.24-.16.56-.24.98-.24.5 0 1.02.1 1.56.3v.8c-.44.43-1.04.63-1.78.63-.36 0-.64-.08-.82-.24-.18-.17-.28-.35-.28-.6 0-.27.1-.5.34-.65zm15.78 3.3c-3.3 0-6-2.68-6-6s2.68-6 6-6c3.3 0 6 2.68 6 6s-2.7 6-6 6zm0-9.86c-2.14 0-3.88 1.73-3.88 3.87s1.74 3.88 3.88 3.88c2.14 0 3.88-1.74 3.88-3.88 0-2.14-1.74-3.88-3.88-3.88z" fill="#0080FF"/><rect fill-opacity=".2" fill="#ADBACC" x="16" y="70" width="197" height="5" rx="1"/><rect stroke="#66B1FF" stroke-width="2" x="17" y="122" width="219" height="31" rx="4"/><rect fill-opacity=".2" fill="#ADBACC" x="16" y="83" width="124" height="5" rx="1"/><rect fill-opacity=".2" fill="#ADBACC" x="31" y="136" width="60" height="3" rx="1"/><rect stroke-opacity=".5" stroke="#ADBACC" stroke-width="2" x="17" y="169" width="219" height="31" rx="4"/><rect stroke-opacity=".2" stroke="#ADBACC" stroke-width="2" x="17" y="282" width="219" height="162" rx="4"/><rect fill="#12CD72" x="16" y="215" width="221" height="33" rx="4"/><rect fill-opacity=".2" fill="#ADBACC" x="31" y="183" width="60" height="3" rx="1"/><rect fill-opacity=".8" fill="#BBFFEA" x="97" y="230" width="59" height="3" rx="1"/><path d="M213 20h20v2h-20v-2zm0 5h20v2h-20v-2zm0 5h20v2h-20v-2z" fill="#0080FF"/><circle fill="#E54B14" cx="27.5" cy="292.5" r="2.5"/><circle fill="#E5D916" cx="36.5" cy="292.5" r="2.5"/><circle fill="#15D85F" cx="45.5" cy="292.5" r="2.5"/><path fill="#EFF1F5" d="M18 302h217v2H18z"/><rect fill-opacity=".2" fill="#ADBACC" x="59" y="311" width="32" height="10" rx="1"/><rect fill-opacity=".2" fill="#ADBACC" x="93" y="311" width="32" height="10" rx="1"/><path fill="#2A8CE8" d="M25 311h32v2H25z"/><rect fill="#2A8CE8" x="25" y="328" width="63" height="50" rx="2"/><rect stroke-opacity=".2" stroke="#ADBACC" stroke-width="2" x="96" y="329" width="61" height="48" rx="1"/><rect stroke-opacity=".2" stroke="#ADBACC" stroke-width="2" x="166" y="329" width="61" height="48" rx="1"/><rect fill="#2A8CE8" x="95" y="385" width="63" height="50" rx="2"/><rect stroke-opacity=".2" stroke="#ADBACC" stroke-width="2" x="166" y="386" width="61" height="48" rx="1"/><rect stroke-opacity=".2" stroke="#ADBACC" stroke-width="2" x="26" y="386" width="61" height="48" rx="1"/><path d="M196.5 408.76l-3.88-3.88 3.88-3.88 3.88 3.88-3.88 3.88zm-4.62 4.62L188 409.5l3.88-3.88 3.88 3.88-3.88 3.88zm4.6 4.62l-3.86-3.87 3.87-3.87 3.86 3.87-3.87 3.87zm4.64-4.62l-3.88-3.88 3.88-3.88 3.88 3.88-3.88 3.88zM196.47 344.04c-4.67 0-8.46 3.8-8.46 8.46l.02.26v7.4c0 .44.35.8.8.8H196.46c4.68 0 8.47-3.8 8.47-8.46 0-4.67-3.8-8.46-8.46-8.46z" fill="#E6EAEF"/><path d="M191.63 357.3c-.37-.35-.58-.85-.58-1.4 0-1.1.9-2 1.98-2h.02l.8.02c-.52-.04-.9-.44-.9-.97s.42-.92.92-.95l-1.07.04c-3.18.14-4.74 3.82-2.6 6.47-.1-.13-.16-.28-.17-.45-.04-.53.45-1 .9-1.02.26-.02.52.1.7.28zm6.92-5.22c-.13-.07-.28-.1-.44-.1h.84c1.1 0 2-.9 2-2 0-.58-.27-1.1-.67-1.47.04.05.1.1.15.13l-.08-.07c-.35-.34-.84-.55-1.37-.55-1.1 0-2 .9-2 2v1.8c0 .1.1.18.2.18h.94c.17 0 .32.04.45.1zm-.32 1.8c.27-.02.57-.03.8-.02 2.17 0 3.83-1.7 3.83-3.87 0-1.03-.4-1.96-1.04-2.66.1.15.16.34.16.53 0 .07 0 .13-.02.2l.02-.2c0-.26-.1-.5-.28-.67-.7-.68-1.66-1.1-2.72-1.1-2.16 0-3.9 1.74-3.9 3.9v2h-1.18c-.5 0-.96.43-.96.96s.42.96.94.96h.97c.1 0 .2.08.2.2v1.78c0 1.1-.9 2-2 2-.53 0-1.02-.22-1.4-.58-.17-.18-.4-.3-.67-.3-.53 0-.95.44-.95.96 0 .27.1.5.3.7.73.7 1.7 1.14 2.75 1.13 2.02-.02 3.8-1.64 3.9-3.68v-.22-2l1.13-.03h.13zM126.5 401c-4.7 0-8.5 3.8-8.5 8.5s3.8 8.5 8.5 8.5 8.5-3.8 8.5-8.5-3.8-8.5-8.5-8.5zm.04.75c-1.36 0-2.5 2.16-2.92 5.17 0 .1-.02.2-.04.3-.05.47-.1.96-.1 1.47-.02.22-.02.45-.02.7v.7c.03.5.07 1 .12 1.47.64.08 1.32.14 2.03.16l.94.02c.3 0 .62 0 .93-.02.7-.02 1.4-.08 2.02-.16l.2-.03c2.64-.37 4.48-1.2 4.48-2.15 0-4.23-3.42-7.65-7.64-7.65zm3.16 5.5c-.08-.12-.16-.23-.25-.33-.7-.83-1.74-1.35-2.9-1.35-.4 0-.73.58-.94 1.48-.08.36-.15.77-.2 1.2-.02.37-.04.75-.04 1.14 0 .38.02.76.05 1.12.37.03.75.05 1.14.05.4 0 .77-.02 1.13-.05.78-.07 1.46-.23 1.94-.42.48-.2.76-.44.76-.7 0-.8-.24-1.54-.66-2.16zM49.63 351.2c-.9 0-1.63.72-1.63 1.62 0 .9.73 1.63 1.63 1.63.9 0 1.63-.73 1.63-1.63 0-.9-.73-1.63-1.63-1.63zm11.64 7.4c-.78.45-1.05 1.45-.6 2.23.45.78 1.45 1.04 2.23.6.78-.46 1.05-1.45.6-2.23-.45-.78-1.45-1.05-2.23-.6zm-8.1-5.78c0-1.6.8-3.03 2.03-3.9l-1.2-2c-1.42.96-2.48 2.42-2.92 4.13.5.42.84 1.05.84 1.77s-.33 1.36-.84 1.78c.44 1.7 1.5 3.16 2.92 4.1l1.2-1.98c-1.23-.86-2.03-2.3-2.03-3.9zm4.76-4.76c2.5 0 4.53 1.9 4.75 4.34l2.32-.04c-.1-1.8-.9-3.4-2.1-4.6-.62.25-1.34.2-1.96-.15-.62-.34-1-.95-1.1-1.6-.62-.17-1.25-.26-1.9-.26-1.13 0-2.2.26-3.14.73l1.13 2.03c.6-.28 1.3-.44 2-.44zm0 9.52c-.7 0-1.4-.16-2-.44l-1.13 2.03c.94.47 2 .73 3.13.73.66 0 1.3-.1 1.9-.25.1-.66.5-1.26 1.1-1.62.63-.36 1.35-.4 1.97-.16 1.2-1.18 2-2.8 2.1-4.6l-2.32-.03c-.22 2.44-2.26 4.34-4.75 4.34zm3.34-10.54c.78.45 1.78.2 2.23-.6.45-.77.18-1.77-.6-2.22-.78-.45-1.78-.18-2.23.6-.45.77-.18 1.77.6 2.22z" fill="#FFF"/><path d="M134.83 344.26c.78.78-1.4 4.22-1.75 4.6-.37.36-1.3.02-2.1-.76-.77-.78-1.1-1.72-.74-2.08.37-.37 3.8-2.54 4.6-1.76zm-12.88.9c-1.3-.73-3.16-1.55-3.75-.96-.6.6.26 2.5 1 3.8.67-1.16 1.6-2.13 2.75-2.83zm11.48 4.1c.13.43.1.78-.1 1-.48.47-1.78-.04-2.95-1.16l-.24-.22c-.42-.43-.75-.88-.96-1.3-.4-.73-.5-1.37-.2-1.68.17-.17.44-.22.77-.16.2-.13.46-.3.74-.44-1.14-.6-2.42-.92-3.78-.92-4.52 0-8.18 3.66-8.18 8.18s3.66 8.18 8.18 8.18c4.5 0 8.18-3.66 8.18-8.18 0-1.46-.4-2.83-1.06-4.02l-.4.72z" fill="#E6EAEF"/><path d="M61.8 408.76c0 .5-.15.75-.3 1.18l-.27.14c-.22.43.02.27-.14.6-.35.32-1.05.97-1.28 1.03-.16 0 .1-.18.15-.26-.46.32-.37.48-1.07.67l-.03-.04c-1.73.82-4.15-.8-4.1-3-.03.13-.07.1-.1.15-.1-1.13.52-2.27 1.56-2.73 1-.5 2.2-.3 2.93.38-.4-.53-1.2-1.08-2.14-1.03-.92.02-1.78.6-2.07 1.24-.47.3-.53 1.15-.73 1.3-.28 2.04.52 2.92 1.87 3.95.2.15.05.17.08.28-.45-.2-.86-.52-1.2-.9.18.25.37.5.62.7-.42-.14-1-1.02-1.15-1.05.73 1.3 2.96 2.28 4.12 1.8-.54.02-1.22 0-1.83-.22-.25-.12-.6-.4-.54-.44 1.6.6 3.24.45 4.62-.65.35-.27.73-.73.84-.74-.17.25.03.12-.1.34.35-.56-.15-.23.36-.97l.2.26c-.08-.48.57-1.04.5-1.78.15-.23.17.24 0 .76.23-.58.07-.67.13-1.15.06.16.14.34.18.5-.14-.55.15-.94.22-1.26-.07-.03-.22.25-.26-.4 0-.3.07-.16.1-.23-.06-.03-.2-.25-.3-.67.07-.1.18.25.27.27-.06-.34-.15-.6-.16-.85-.25-.55-.08.06-.3-.24-.26-.86.24-.2.27-.6.42.6.66 1.55.77 1.94-.1-.48-.22-.93-.4-1.38.14.06-.2-.97.18-.3-.4-1.44-1.7-2.8-2.87-3.43.14.13.33.3.26.32-.58-.35-.48-.38-.56-.53-.48-.2-.5 0-.83 0-.9-.5-1.08-.44-1.9-.74l.03.18c-.6-.2-.7.08-1.35 0-.04-.03.2-.1.4-.14-.57.08-.54-.12-1.1.02.13-.1.28-.16.43-.25-.47.03-1.12.28-.92.05-.77.35-2.15.83-2.92 1.55l-.02-.16c-.35.44-1.54 1.28-1.63 1.83l-.1.02c-.17.3-.3.66-.44.98-.24.4-.35.16-.3.22-.5.96-.72 1.77-.92 2.43.14.2 0 1.3.05 2.16-.24 4.3 3 8.45 6.55 9.4.52.2 1.3.18 1.95.2-.78-.22-.88-.1-1.64-.38-.54-.25-.66-.55-1.05-.88l.17.27c-.76-.27-.44-.33-1.06-.53l.17-.2c-.24-.03-.65-.43-.76-.64h-.26c-.32-.4-.5-.68-.48-.9l-.08.15c-.1-.16-1.2-1.5-.63-1.18-.1-.1-.24-.16-.4-.43l.12-.13c-.27-.36-.5-.8-.48-.96.14.2.24.23.34.27-.7-1.7-.73-.1-1.25-1.73h.1c-.08-.13-.13-.27-.2-.4l.05-.48c-.5-.58-.14-2.44-.07-3.46.05-.4.4-.85.7-1.55l-.18-.03c.32-.57 1.84-2.26 2.54-2.17.34-.43-.07 0-.14-.1.75-.78.98-.55 1.5-.7.53-.32-.48.13-.22-.12.94-.24.66-.54 1.9-.66.12.07-.3.1-.42.2.78-.38 2.48-.3 3.58.22 1.27.6 2.7 2.36 2.76 4.02h.07c-.04.67.1 1.43-.13 2.14l.15-.34" stroke="#E6EAEF" fill="#E6EAEF"/></g></svg>