<svg width="420" height="338" viewBox="0 0 420 338" xmlns="http://www.w3.org/2000/svg" xmlns:xlink="http://www.w3.org/1999/xlink"><defs><linearGradient x1="50%" y1="0%" x2="50%" y2="100%" id="b"><stop stop-color="#6D396D" offset="0%"/><stop stop-color="#592D59" offset="100%"/></linearGradient><circle id="a" cx="297.5" cy="13.5" r="3.5"/><mask id="c" x="0" y="0" width="7" height="7" fill="#fff"><use xlink:href="#a"/></mask><linearGradient x1="50%" y1="0%" x2="50%" y2="100%" id="d"><stop stop-color="#44C097" offset="0%"/><stop stop-color="#3CB78D" offset="10%"/><stop stop-color="#2DA879" offset="100%"/></linearGradient><linearGradient x1="50%" y1="0%" x2="50%" y2="100%" id="g"><stop stop-opacity="0" offset="0%"/><stop stop-opacity=".4" offset="100%"/></linearGradient><circle id="f" cx="15.5" cy="26.5" r="1.5"/><filter x="-50%" y="-50%" width="200%" height="200%" filterUnits="objectBoundingBox" id="e"><feOffset dy="1" in="SourceAlpha" result="shadowOffsetOuter1"/><feGaussianBlur stdDeviation="1" in="shadowOffsetOuter1" result="shadowBlurOuter1"/><feColorMatrix values="0 0 0 0 0.164705882 0 0 0 0 0.0431372549 0 0 0 0 0.164705882 0 0 0 0.252774004 0" in="shadowBlurOuter1"/></filter><filter x="-50%" y="-50%" width="200%" height="200%" filterUnits="objectBoundingBox" id="h"><feGaussianBlur stdDeviation=".5" in="SourceAlpha" result="shadowBlurInner1"/><feOffset dy="1" in="shadowBlurInner1" result="shadowOffsetInner1"/><feComposite in="shadowOffsetInner1" in2="SourceAlpha" operator="arithmetic" k2="-1" k3="1" result="shadowInnerInner1"/><feColorMatrix values="0 0 0 0 0.419607843 0 0 0 0 0.921568627 0 0 0 0 0.8 0 0 0 0.150701993 0" in="shadowInnerInner1"/></filter><circle id="j" cx="15.5" cy="174.5" r="1.5"/><filter x="-50%" y="-50%" width="200%" height="200%" filterUnits="objectBoundingBox" id="i"><feOffset dy="1" in="SourceAlpha" result="shadowOffsetOuter1"/><feGaussianBlur stdDeviation="1" in="shadowOffsetOuter1" result="shadowBlurOuter1"/><feColorMatrix values="0 0 0 0 0.164705882 0 0 0 0 0.0431372549 0 0 0 0 0.164705882 0 0 0 0.252774004 0" in="shadowBlurOuter1"/></filter><circle id="l" cx="15.5" cy="187.5" r="1.5"/><filter x="-50%" y="-50%" width="200%" height="200%" filterUnits="objectBoundingBox" id="k"><feOffset dy="1" in="SourceAlpha" result="shadowOffsetOuter1"/><feGaussianBlur stdDeviation="1" in="shadowOffsetOuter1" result="shadowBlurOuter1"/><feColorMatrix values="0 0 0 0 0.164705882 0 0 0 0 0.0431372549 0 0 0 0 0.164705882 0 0 0 0.252774004 0" in="shadowBlurOuter1"/></filter><circle id="n" cx="15.5" cy="200.5" r="1.5"/><filter x="-50%" y="-50%" width="200%" height="200%" filterUnits="objectBoundingBox" id="m"><feOffset dy="1" in="SourceAlpha" result="shadowOffsetOuter1"/><feGaussianBlur stdDeviation="1" in="shadowOffsetOuter1" result="shadowBlurOuter1"/><feColorMatrix values="0 0 0 0 0.164705882 0 0 0 0 0.0431372549 0 0 0 0 0.164705882 0 0 0 0.252774004 0" in="shadowBlurOuter1"/></filter><circle id="p" cx="15.5" cy="213.5" r="1.5"/><filter x="-50%" y="-50%" width="200%" height="200%" filterUnits="objectBoundingBox" id="o"><feOffset dy="1" in="SourceAlpha" result="shadowOffsetOuter1"/><feGaussianBlur stdDeviation="1" in="shadowOffsetOuter1" result="shadowBlurOuter1"/><feColorMatrix values="0 0 0 0 0.164705882 0 0 0 0 0.0431372549 0 0 0 0 0.164705882 0 0 0 0.252774004 0" in="shadowBlurOuter1"/></filter><circle id="r" cx="15.5" cy="226.5" r="1.5"/><filter x="-50%" y="-50%" width="200%" height="200%" filterUnits="objectBoundingBox" id="q"><feOffset dy="1" in="SourceAlpha" result="shadowOffsetOuter1"/><feGaussianBlur stdDeviation="1" in="shadowOffsetOuter1" result="shadowBlurOuter1"/><feColorMatrix values="0 0 0 0 0.164705882 0 0 0 0 0.0431372549 0 0 0 0 0.164705882 0 0 0 0.252774004 0" in="shadowBlurOuter1"/></filter></defs><g fill="none" fill-rule="evenodd"><rect fill="#FFF" width="420" height="338" rx="5"/><rect fill-opacity=".07" fill="#4D394B" x="6" y="6" width="98" height="327" rx="4"/><rect fill="url(#b)" x="7" y="7" width="96" height="324" rx="3"/><path d="M60.5 322.3l1.8 1.8-1.43 1.42-1.86-1.86c-.45.22-.96.34-1.5.34-1.93 0-3.5-1.57-3.5-3.5s1.57-3.5 3.5-3.5 3.5 1.57 3.5 3.5c0 .66-.2 1.3-.5 1.8zm-3-.3c.83 0 1.5-.67 1.5-1.5s-.67-1.5-1.5-1.5-1.5.67-1.5 1.5.67 1.5 1.5 1.5zm-9.5-1h5v2h-5v-2zm0-3h5v2h-5v-2zm0-3h7l-1 2h-6v-2z" fill-opacity=".4" fill="#FFF"/><rect stroke="#F0F3F6" stroke-width="2" x="111" y="312" width="301" height="18" rx="2"/><path fill="#F0F3F6" d="M110 27h303v2H110z"/><path fill="#E6EBEF" opacity=".4" d="M110 54h303v1H110zM110 80h303v1H110zM110 106h303v1H110zM110 132h303v1H110zM110 158h303v1H110zM110 184h303v1H110zM110 210h303v1H110zM110 236h303v1H110zM110 262h303v1H110zM110 288h303v1H110z"/><path fill="#F0F3F6" d="M130 313h2v16h-2z"/><path d="M122 320v-4h-2v4h-4v2h4v4h2v-4h4v-2h-4zM403 326c2.76 0 5-2.24 5-5s-2.24-5-5-5-5 2.24-5 5 2.24 5 5 5zm3.27-3.57c-.55 1.26-1.8 2.14-3.27 2.14-1.46 0-2.72-.88-3.27-2.14h1.13c.6.45 1.34.7 2.14.7s1.55-.25 2.14-.7h1.13zM401.2 321c.6 0 1.1-.48 1.1-1.07 0-.6-.5-1.07-1.1-1.07-.58 0-1.06.48-1.06 1.07 0 .6.48 1.07 1.07 1.07zm3.6 0c.58 0 1.06-.48 1.06-1.07 0-.6-.48-1.07-1.07-1.07-.6 0-1.1.48-1.1 1.07 0 .6.5 1.07 1.1 1.07z" fill="#DFE5EB"/><path d="M409 12c.55 0 1-.45 1-1s-.45-1-1-1-1 .45-1 1 .45 1 1 1zm0 3c.55 0 1-.45 1-1s-.45-1-1-1-1 .45-1 1 .45 1 1 1zm0 3c.55 0 1-.45 1-1s-.45-1-1-1-1 .45-1 1 .45 1 1 1zM395.83 12.3h-.98v.36c-.33-.28-.72-.45-1.15-.45-1.12 0-1.94.94-1.94 2.3 0 1.36.82 2.28 1.94 2.28.55 0 1-.22 1.34-.6.27.4.7.6 1.2.6 1.26 0 2.12-1.13 2.12-2.77 0-2.3-1.8-4-4.32-4-2.68 0-4.56 1.87-4.56 4.5 0 2.6 1.93 4.5 4.6 4.5.8 0 1.57-.2 2.33-.6v-.87c-.75.43-1.52.67-2.3.67-2.16 0-3.7-1.56-3.7-3.7 0-2.16 1.5-3.7 3.64-3.7 2 0 3.4 1.35 3.4 3.27 0 1.12-.45 1.87-1.04 1.87-.35 0-.57-.27-.57-.67V12.3zm-3.07 2.2c0-.85.47-1.46 1.16-1.46.35 0 .66.16.93.44v2.04c-.27.3-.58.43-.93.43-.7 0-1.16-.6-1.16-1.45z" fill="#000"/><use stroke="#E6EBEF" mask="url(#c)" stroke-width="4" xlink:href="#a"/><rect fill-opacity=".15" fill="#2A0B2A" x="7" y="53" width="89" height="12" rx="3"/><path fill="#E6EBEF" d="M298.75 16.4l1.4-1.42 2.13 2.12-1.4 1.42z"/><path d="M7 54h86c1.1 0 2 .9 2 2v5c0 1.1-.9 2-2 2H7v-9z" fill="url(#d)"/><path fill="#F0F3F6" d="M264 10h1v8h-1zM266 12h2v1h-2zM266 15h2v1h-2z"/><path d="M14.04 72.73h.64L14.53 74h.6l.16-1.27h1.06L16.2 74h.6l.18-1.27h.7v-.6h-.63l.13-1.08h.72v-.6h-.64l.16-1.27h-.6l-.17 1.27h-1.07l.16-1.27h-.6l-.17 1.27h-.73v.6h.65l-.14 1.08h-.72v.6zm1.47-1.68h1.07l-.13 1.08h-1.07l.14-1.08zm-1.46 14.68h.64L14.53 87h.6l.16-1.27h1.06L16.2 87h.6l.18-1.27h.7v-.6h-.63l.13-1.08h.72v-.6h-.64l.16-1.27h-.6l-.17 1.27h-1.07l.16-1.27h-.6l-.17 1.27h-.73v.6h.65l-.14 1.08h-.72v.6zm1.47-1.68h1.07l-.13 1.08h-1.07l.14-1.08zm-1.46 14.68h.64l-.15 1.27h.6l.16-1.27h1.06L16.2 100h.6l.18-1.27h.7v-.6h-.63l.13-1.08h.72v-.6h-.64l.16-1.27h-.6l-.17 1.27h-1.07l.16-1.27h-.6l-.17 1.27h-.73v.6h.65l-.14 1.08h-.72v.6zm1.47-1.68h1.07l-.13 1.08h-1.07l.14-1.08zm-1.46 14.68h.64l-.15 1.27h.6l.16-1.27h1.06L16.2 113h.6l.18-1.27h.7v-.6h-.63l.13-1.08h.72v-.6h-.64l.16-1.27h-.6l-.17 1.27h-1.07l.16-1.27h-.6l-.17 1.27h-.73v.6h.65l-.14 1.08h-.72v.6zm1.47-1.68h1.07l-.13 1.08h-1.07l.14-1.08zm-1.46 14.68h.64l-.15 1.27h.6l.16-1.27h1.06L16.2 126h.6l.18-1.27h.7v-.6h-.63l.13-1.08h.72v-.6h-.64l.16-1.27h-.6l-.17 1.27h-1.07l.16-1.27h-.6l-.17 1.27h-.73v.6h.65l-.14 1.08h-.72v.6zm1.47-1.68h1.07l-.13 1.08h-1.07l.14-1.08zm-1.46 14.68h.64l-.15 1.27h.6l.16-1.27h1.06L16.2 139h.6l.18-1.27h.7v-.6h-.63l.13-1.08h.72v-.6h-.64l.16-1.27h-.6l-.17 1.27h-1.07l.16-1.27h-.6l-.17 1.27h-.73v.6h.65l-.14 1.08h-.72v.6zm1.47-1.68h1.07l-.13 1.08h-1.07l.14-1.08z" fill="#FFF" opacity=".5"/><circle fill-opacity=".2" fill="#2A0B2A" cx="15.5" cy="175.5" r="1.5"/><path d="M14.04 59.73h.64L14.53 61h.6l.16-1.27h1.06L16.2 61h.6l.18-1.27h.7v-.6h-.63l.13-1.08h.72v-.6h-.64l.16-1.27h-.6l-.17 1.27h-1.07l.16-1.27h-.6l-.17 1.27h-.73v.6h.65l-.14 1.08h-.72v.6zm1.47-1.68h1.07l-.13 1.08h-1.07l.14-1.08z" fill="#FFF"/><use fill="#000" filter="url(#e)" xlink:href="#f"/><use fill="#40BB91" xlink:href="#f"/><use fill="url(#g)" style="mix-blend-mode:soft-light" xlink:href="#f"/><use fill="#000" filter="url(#h)" xlink:href="#f"/><use fill="#000" filter="url(#i)" xlink:href="#j"/><use fill="#38B286" xlink:href="#j"/><circle fill-opacity=".2" fill="#2A0B2A" cx="15.5" cy="188.5" r="1.5"/><use fill="#000" filter="url(#k)" xlink:href="#l"/><use fill="#38B286" xlink:href="#l"/><circle fill-opacity=".2" fill="#2A0B2A" cx="15.5" cy="201.5" r="1.5"/><use fill="#000" filter="url(#m)" xlink:href="#n"/><use fill="#38B286" xlink:href="#n"/><circle fill-opacity=".2" fill="#2A0B2A" cx="15.5" cy="214.5" r="1.5"/><use fill="#000" filter="url(#o)" xlink:href="#p"/><use fill="#38B286" xlink:href="#p"/><circle fill-opacity=".2" fill="#2A0B2A" cx="15.5" cy="227.5" r="1.5"/><use fill="#000" filter="url(#q)" xlink:href="#r"/><use fill="#38B286" xlink:href="#r"/><circle fill-opacity=".35" fill="#FFF" cx="15.5" cy="239.5" r="1.5"/><circle fill-opacity=".35" fill="#FFF" cx="15.5" cy="252.5" r="1.5"/><circle fill-opacity=".35" fill="#FFF" cx="15.5" cy="265.5" r="1.5"/><path d="M92 44v-1h-1v1h-1v1h1v1h1v-1h1v-1h-1z" fill="#FFF" opacity=".3"/><circle stroke-opacity=".3" stroke="#FFF" cx="91.5" cy="44.5" r="3.5"/><path d="M92 159v-1h-1v1h-1v1h1v1h1v-1h1v-1h-1z" fill="#FFF" opacity=".3"/><circle stroke-opacity=".3" stroke="#FFF" cx="91.5" cy="159.5" r="3.5"/><rect fill="#FFF" opacity=".15" x="20" y="70" width="41" height="3" rx="1"/><rect fill="#FFF" opacity=".15" x="20" y="25" width="10" height="3" rx="1"/><rect fill="#FFF" opacity=".15" x="20" y="83" width="32" height="3" rx="1"/><rect fill="#FFF" opacity=".15" x="20" y="96" width="34" height="3" rx="1"/><rect fill="#FFF" opacity=".15" x="20" y="109" width="16" height="3" rx="1"/><rect fill="#FFF" opacity=".15" x="20" y="122" width="30" height="3" rx="1"/><rect fill="#FFF" opacity=".15" x="20" y="135" width="23" height="3" rx="1"/><rect fill="#FFF" opacity=".15" x="20" y="173" width="26" height="3" rx="1"/><rect fill="#FFF" opacity=".15" x="20" y="186" width="12" height="3" rx="1"/><rect fill="#FFF" opacity=".15" x="20" y="199" width="9" height="3" rx="1"/><rect fill="#FFF" opacity=".15" x="20" y="212" width="19" height="3" rx="1"/><rect fill="#FFF" opacity=".15" x="20" y="225" width="13" height="3" rx="1"/><rect fill="#FFF" opacity=".15" x="20" y="238" width="15" height="3" rx="1"/><rect fill="#FFF" opacity=".15" x="20" y="251" width="22" height="3" rx="1"/><rect fill="#FFF" opacity=".15" x="20" y="264" width="21" height="3" rx="1"/><rect fill="#FFF" opacity=".5" x="20" y="57" width="20" height="3" rx="1"/><rect fill="#FFF" opacity=".2" x="14" y="42" width="36" height="5" rx="1"/><rect fill="#FFF" opacity=".5" x="14" y="16" width="22" height="5" rx="1"/><rect fill="#FFF" opacity=".2" x="14" y="157" width="60" height="5" rx="1"/><g><path d="M198.3 144.58c-.84-2.55-3.57-3.94-6.12-3.1-2.55.82-3.94 3.55-3.1 6.1l12.52 38.56c.86 2.38 3.43 3.7 5.9 3 2.57-.74 4.14-3.47 3.32-6L198.3 144.6" fill="#E8A723"/><path d="M178.87 150.9c-.83-2.56-3.56-3.95-6.1-3.12-2.56.83-3.95 3.56-3.12 6.1l12.53 38.57c.86 2.38 3.43 3.7 5.9 3 2.57-.73 4.14-3.47 3.32-6l-12.53-38.56" fill="#3EB890"/><path d="M214.07 176.52c2.54-.83 3.93-3.56 3.1-6.1-.82-2.56-3.56-3.95-6.1-3.12l-38.56 12.53c-2.37.86-3.7 3.43-3 5.9.74 2.57 3.47 4.14 6 3.32l38.57-12.53" fill="#E01765"/><path d="M180.54 187.4l9.22-2.98-3-9.22-9.2 3 2.98 9.2" fill="#392538"/><path d="M199.96 181.1l9.22-3c-.8-2.5-1.87-5.74-3-9.2l-9.2 2.98 2.98 9.22" fill="#BB242A"/><path d="M207.75 157.1c2.55-.83 3.94-3.56 3.12-6.1-.83-2.56-3.57-3.95-6.1-3.12L166.2 160.4c-2.38.87-3.72 3.44-3 5.9.73 2.58 3.46 4.15 6 3.33l38.55-12.53" fill="#70CADB"/><path d="M174.23 168c2.5-.83 5.75-1.88 9.22-3l-3-9.22-9.2 3 2.98 9.2" fill="#238C73"/><path d="M193.65 161.68l9.22-3-3-9.22-9.2 3 2.98 9.22" fill="#62803A"/><path d="M253.18 154.73c1.7.75 1.83 1.3.5 3.85-1.37 2.6-1.7 2.76-3.38 2.07-2.1-.9-4.8-1.58-6.54-1.58-2.86 0-4.75 1.03-4.75 2.58 0 5.1 16.35 2.35 16.35 13.27 0 5.5-4.7 9.15-11.78 9.15-3.72 0-8.3-1.24-11.47-2.86-1.6-.8-1.68-1.26-.3-3.86 1.16-2.3 1.54-2.55 3.24-1.83 2.7 1.2 6.1 2.08 8.4 2.08 2.6 0 4.35-1.05 4.35-2.6 0-4.96-16.63-2.6-16.63-13.18 0-5.6 4.68-9.36 11.7-9.36 3.27 0 7.43 1 10.3 2.3M266.36 141.77v40.68c0 .62-.65 1.27-1.58 1.27h-4.28c-.93 0-1.58-.65-1.58-1.27v-40.68c0-2.02.56-2.2 3.72-2.2 3.6 0 3.72.25 3.72 2.2M277.06 174.8c0 2.07 1.77 3.47 4.43 3.47 3.22 0 6.13-1.55 7.84-4.2v-2.72c-1.7-.65-3.78-1.02-5.64-1.02-3.97 0-6.64 1.9-6.64 4.46zm19.72-10.15v17.52c0 .93-.65 1.6-1.58 1.6h-4.22c-.96 0-1.64-.73-1.58-1.7l.06-1.88c-2.3 2.53-5.58 3.87-8.86 3.87-6.4 0-10.67-3.7-10.67-9.2 0-5.87 4.84-9.8 12.1-9.84 2.75 0 5.26.5 7.3 1.33v-2.02c0-3.22-2.53-5.14-6.84-5.14-2.03 0-4.5.8-6.5 1.95-1.5.87-1.9.8-3.53-1.64-1.6-2.44-1.55-2.9 0-3.9 2.98-1.92 7-3.16 10.73-3.16 8.34 0 13.58 4.52 13.58 12.2zM325.8 154.8c1.56.9 1.62 1.4-.1 4.02-1.6 2.5-1.88 2.64-3.58 1.77-1.3-.7-3.38-1.28-5.1-1.28-5.35 0-8.92 3.54-8.92 8.87 0 5.54 3.57 9.26 8.93 9.26 1.86 0 4.2-.7 5.7-1.55 1.56-.9 1.9-.83 3.54 1.56 1.5 2.23 1.46 2.76.13 3.7-2.4 1.63-6.17 2.9-9.5 2.9-9.9 0-16.55-6.35-16.55-15.87 0-9.47 6.64-15.76 16.62-15.76 3.04 0 6.6 1.02 8.84 2.35M358.18 179.88c1.24 1.58.75 2.14-2.35 3.25-3.17 1.15-3.6 1.1-4.72-.37l-8.86-11.84-3.97 3.84v7.7c0 .6-.65 1.26-1.58 1.26h-4.3c-.92 0-1.57-.65-1.57-1.27v-40.68c0-2.02.56-2.2 3.72-2.2 3.6 0 3.72.25 3.72 2.2v23.13l12.16-11.66c1.33-1.27 2.08-1.18 4.46.4 2.63 1.7 2.82 2.18 1.55 3.42l-9.06 8.8 10.78 14.02" fill="#373D40"/></g><path fill="#F0F3F6" d="M279 7h2v14h-2z"/><rect stroke="#F0F3F6" stroke-width="2" x="259" y="10" width="10" height="8" rx="1"/><rect stroke="#F0F3F6" stroke-width="2" x="291" y="8" width="88" height="12" rx="2"/><rect stroke-opacity=".2" stroke="#ADBACC" stroke-width="2" x="1" y="1" width="418" height="336" rx="4"/></g></svg>