<?xml version="1.0" encoding="utf-8"?>
<!DOCTYPE svg PUBLIC "-//W3C//DTD SVG 1.1//EN" "http://www.w3.org/Graphics/SVG/1.1/DTD/svg11.dtd">
<svg xmlns="http://www.w3.org/2000/svg" xmlns:xlink="http://www.w3.org/1999/xlink" version="1.1" baseProfile="full" width="2135.57" height="589.875" viewBox="0 0 2135.57 589.87" enable-background="new 0 0 2135.57 589.87" xml:space="preserve">
	<g>
		<ellipse fill="#549AFC" fill-opacity="1" stroke-width="0.2" stroke-linejoin="round" cx="305.812" cy="301.121" rx="211.073" ry="211.073"/>
		<ellipse fill="#F8F8F8" fill-opacity="1" stroke-width="0.2" stroke-linejoin="round" cx="237.396" cy="312.805" rx="13.2436" ry="12.494"/>
		<ellipse fill="#F8F8F8" fill-opacity="1" stroke-width="0.2" stroke-linejoin="round" cx="196.666" cy="312.555" rx="13.2436" ry="12.494"/>
		<ellipse fill="#F8F8F8" fill-opacity="1" stroke-width="0.2" stroke-linejoin="round" cx="216.656" cy="350.036" rx="13.2436" ry="12.494"/>
		<ellipse fill="#F8F8F8" fill-opacity="1" stroke-width="0.2" stroke-linejoin="round" cx="260.135" cy="350.536" rx="13.2436" ry="12.494"/>
		<ellipse fill="#F8F8F8" fill-opacity="1" stroke-width="0.2" stroke-linejoin="round" cx="173.177" cy="350.036" rx="13.2436" ry="12.494"/>
		<path fill="#F8F8F8" fill-opacity="1" stroke-width="0.2" stroke-linejoin="round" d="M 195.666,376.024C 202.98,376.024 208.91,381.618 208.91,388.518C 208.91,395.418 202.98,401.012 195.666,401.012C 188.352,401.012 182.423,395.418 182.423,388.518C 182.423,381.618 188.352,376.024 195.666,376.024 Z "/>
		<path fill="#F8F8F8" fill-opacity="1" stroke-width="0.2" stroke-linejoin="round" d="M 238.146,376.024C 245.46,376.024 251.389,381.618 251.389,388.518C 251.389,395.418 245.46,401.012 238.146,401.012C 230.831,401.012 224.902,395.418 224.902,388.518C 224.902,381.618 230.831,376.024 238.146,376.024 Z "/>
		<path fill="#FFFFFF" fill-opacity="0.976471" stroke-width="0.2" stroke-linejoin="round" d="M 287.74,366.922L 287.716,391.591L 405.762,391.552C 405.762,391.552 455.661,382.65 456.525,330.745C 456.987,302.97 432.536,283.924 431.287,281.675C 430.038,279.426 434.851,247.665 407.307,226.615C 374.448,201.502 344.517,216.238 342.018,215.489C 339.519,214.739 319.881,186.446 281.743,187.633C 211.257,189.827 204.749,252.571 203.718,257.443C 203.415,258.878 184.238,266.355 175.873,283.729C 174.98,285.584 201.072,286.057 206.858,284.479C 209.607,283.729 212.812,277.538 227.848,273.984C 228.847,273.748 219.492,235.064 260.16,217.447C 307.782,196.818 333.262,244.633 332.687,252.68C 332.5,255.304 349.465,226.233 383.662,241.061C 414.766,254.547 406.895,295.339 402.403,295.597C 398.496,295.821 433.3,303.504 431.452,333.079C 429.578,363.064 401.466,367.562 398.016,367.189C 393.482,366.699 287.99,366.922 287.74,366.922 Z "/>
		<g>
			<path fill="#549AFC" fill-opacity="1" stroke-linejoin="round" d="M 658.557,404.755C 646.173,404.755 635.304,402.832 625.948,398.987C 616.592,395.141 608.72,389.767 602.331,382.864C 595.943,375.96 591.174,367.755 588.025,358.248C 584.876,348.741 583.302,338.234 583.302,326.729C 583.302,315.193 585.012,304.626 588.434,295.028C 591.855,285.43 596.699,277.126 602.967,270.117C 609.234,263.108 616.925,257.635 626.039,253.699C 635.152,249.763 645.28,247.795 656.422,247.795C 663.265,247.795 670.115,248.377 676.973,249.543C 683.831,250.709 690.394,252.548 696.661,255.061L 690.303,277.406C 686.095,275.468 681.227,273.924 675.702,272.774C 670.176,271.623 664.295,271.048 658.057,271.048C 642.343,271.048 630.315,275.786 621.974,285.263C 613.632,294.74 609.461,308.562 609.461,326.729C 609.461,334.843 610.423,342.276 612.345,349.028C 614.268,355.78 617.303,361.578 621.452,366.423C 625.6,371.267 630.906,374.991 637.37,377.595C 643.834,380.199 651.729,381.501 661.055,381.501C 668.533,381.501 675.308,380.82 681.379,379.457C 687.449,378.095 692.196,376.642 695.617,375.097L 699.568,397.17C 697.994,398.139 695.73,399.062 692.778,399.94C 689.826,400.818 686.481,401.598 682.741,402.279C 679.002,402.961 675.02,403.543 670.797,404.028C 666.573,404.512 662.493,404.755 658.557,404.755 Z "/>
			<path fill="#549AFC" fill-opacity="1" stroke-linejoin="round" d="M 774.279,401.848C 757.717,401.454 745.969,397.942 739.035,391.311C 732.102,384.68 728.635,374.34 728.635,360.292L 728.635,182.576L 754.795,178.035L 754.795,355.069C 754.795,359.429 755.196,363.024 755.998,365.855C 756.801,368.686 758.095,370.949 759.881,372.645C 761.668,374.34 764.052,375.612 767.035,376.46C 770.017,377.308 773.688,378.019 778.048,378.595L 774.279,401.848 Z "/>
			<path fill="#549AFC" fill-opacity="1" stroke-linejoin="round" d="M 940.821,326.275C 940.821,338.143 939.073,348.869 935.576,358.452C 932.079,368.035 927.166,376.278 920.838,383.182C 914.51,390.085 906.971,395.406 898.221,399.146C 889.47,402.885 879.933,404.755 869.608,404.755C 859.283,404.755 849.746,402.885 840.996,399.146C 832.245,395.406 824.706,390.085 818.378,383.182C 812.05,376.278 807.138,368.035 803.64,358.452C 800.143,348.869 798.395,338.143 798.395,326.275C 798.395,314.587 800.143,303.907 803.64,294.233C 807.138,284.559 812.05,276.271 818.378,269.367C 824.706,262.464 832.245,257.143 840.996,253.404C 849.746,249.664 859.283,247.795 869.608,247.795C 879.933,247.795 889.47,249.664 898.221,253.404C 906.971,257.143 914.51,262.464 920.838,269.367C 927.166,276.271 932.079,284.559 935.576,294.233C 939.073,303.907 940.821,314.587 940.821,326.275 Z M 914.661,326.275C 914.661,309.319 910.627,295.876 902.558,285.945C 894.489,276.013 883.506,271.048 869.608,271.048C 855.711,271.048 844.727,276.013 836.658,285.945C 828.589,295.876 824.555,309.319 824.555,326.275C 824.555,343.23 828.589,356.673 836.658,366.605C 844.727,376.536 855.711,381.501 869.608,381.501C 883.506,381.501 894.489,376.536 902.558,366.605C 910.627,356.673 914.661,343.23 914.661,326.275 Z "/>
			<path fill="#549AFC" fill-opacity="1" stroke-linejoin="round" d="M 1097.78,397.215C 1091.73,398.76 1083.73,400.402 1073.8,402.143C 1063.87,403.884 1052.38,404.755 1039.33,404.755C 1027.98,404.755 1018.42,403.059 1010.67,399.668C 1002.92,396.277 996.676,391.493 991.938,385.316C 987.199,379.14 983.793,371.843 981.719,363.425C 979.645,355.008 978.608,345.667 978.608,335.403L 978.608,250.701L 1004.77,250.701L 1004.77,329.953C 1004.77,348.392 1007.62,361.594 1013.33,369.557C 1019.04,377.52 1028.66,381.501 1042.19,381.501C 1045.04,381.501 1047.99,381.403 1051.05,381.206C 1054.11,381.009 1056.97,380.767 1059.63,380.479C 1062.3,380.192 1064.73,379.904 1066.92,379.616C 1069.12,379.329 1070.68,378.988 1071.62,378.595L 1071.62,250.701L 1097.78,250.701L 1097.78,397.215 Z "/>
			<path fill="#549AFC" fill-opacity="1" stroke-linejoin="round" d="M 1243.11,282.675C 1239.66,279.95 1234.7,277.331 1228.22,274.817C 1221.74,272.304 1214.65,271.048 1206.96,271.048C 1198.88,271.048 1191.95,272.456 1186.19,275.272C 1180.42,278.087 1175.71,281.963 1172.06,286.898C 1168.41,291.834 1165.78,297.692 1164.16,304.475C 1162.54,311.257 1161.73,318.523 1161.73,326.275C 1161.73,343.896 1166.28,357.506 1175.4,367.104C 1184.51,376.702 1196.65,381.501 1211.82,381.501C 1219.51,381.501 1225.94,381.161 1231.1,380.479C 1236.26,379.798 1240.27,379.079 1243.11,378.322L 1243.11,282.675 Z M 1243.11,182.622L 1269.27,178.035L 1269.27,396.897C 1263.04,398.654 1255.06,400.402 1245.34,402.143C 1235.62,403.884 1224.43,404.755 1211.78,404.755C 1200.09,404.755 1189.58,402.93 1180.24,399.282C 1170.89,395.633 1162.92,390.441 1156.3,383.704C 1149.69,376.967 1144.58,368.739 1140.97,359.02C 1137.37,349.301 1135.57,338.386 1135.57,326.275C 1135.57,314.739 1137.09,304.164 1140.13,294.551C 1143.18,284.938 1147.64,276.664 1153.53,269.731C 1159.42,262.797 1166.64,257.408 1175.19,253.562C 1183.75,249.717 1193.52,247.795 1204.51,247.795C 1213.35,247.795 1221.16,248.96 1227.95,251.292C 1234.73,253.623 1239.78,255.848 1243.11,257.968L 1243.11,182.622 Z "/>
			<path fill="#549AFC" fill-opacity="1" stroke-linejoin="round" d="M 1341.94,257.968C 1345.27,255.848 1350.33,253.623 1357.11,251.292C 1363.89,248.96 1371.7,247.795 1380.55,247.795C 1391.54,247.795 1401.31,249.717 1409.86,253.562C 1418.42,257.408 1425.64,262.797 1431.53,269.731C 1437.41,276.664 1441.88,284.938 1444.92,294.551C 1447.97,304.164 1449.49,314.739 1449.49,326.275C 1449.49,338.386 1447.69,349.301 1444.08,359.02C 1440.48,368.739 1435.37,376.967 1428.76,383.704C 1422.14,390.441 1414.16,395.633 1404.82,399.282C 1395.48,402.93 1384.97,404.755 1373.28,404.755C 1360.62,404.755 1349.44,403.884 1339.72,402.143C 1330,400.402 1322.02,398.654 1315.78,396.897L 1315.78,182.622L 1341.94,178.035L 1341.94,257.968 Z M 1341.94,378.322C 1344.79,379.079 1348.79,379.798 1353.95,380.479C 1359.12,381.161 1365.54,381.501 1373.23,381.501C 1388.4,381.501 1400.54,376.702 1409.66,367.104C 1418.77,357.506 1423.33,343.896 1423.33,326.275C 1423.33,318.523 1422.52,311.257 1420.9,304.475C 1419.28,297.692 1416.64,291.834 1413,286.898C 1409.35,281.963 1404.64,278.087 1398.87,275.272C 1393.1,272.456 1386.18,271.048 1378.09,271.048C 1370.4,271.048 1363.32,272.304 1356.84,274.817C 1350.36,277.331 1345.39,279.95 1341.94,282.675L 1341.94,378.322 Z "/>
			<path fill="#549AFC" fill-opacity="1" stroke-linejoin="round" d="M 1620.98,326.275C 1620.98,338.143 1619.23,348.869 1615.74,358.452C 1612.24,368.035 1607.33,376.278 1601,383.182C 1594.67,390.085 1587.13,395.406 1578.38,399.146C 1569.63,402.885 1560.09,404.755 1549.77,404.755C 1539.44,404.755 1529.91,402.885 1521.16,399.146C 1512.41,395.406 1504.87,390.085 1498.54,383.182C 1492.21,376.278 1487.3,368.035 1483.8,358.452C 1480.3,348.869 1478.55,338.143 1478.55,326.275C 1478.55,314.587 1480.3,303.907 1483.8,294.233C 1487.3,284.559 1492.21,276.271 1498.54,269.367C 1504.87,262.464 1512.41,257.143 1521.16,253.404C 1529.91,249.664 1539.44,247.795 1549.77,247.795C 1560.09,247.795 1569.63,249.664 1578.38,253.404C 1587.13,257.143 1594.67,262.464 1601,269.367C 1607.33,276.271 1612.24,284.559 1615.74,294.233C 1619.23,303.907 1620.98,314.587 1620.98,326.275 Z M 1594.82,326.275C 1594.82,309.319 1590.79,295.876 1582.72,285.945C 1574.65,276.013 1563.67,271.048 1549.77,271.048C 1535.87,271.048 1524.89,276.013 1516.82,285.945C 1508.75,295.876 1504.71,309.319 1504.71,326.275C 1504.71,343.23 1508.75,356.673 1516.82,366.605C 1524.89,376.536 1535.87,381.501 1549.77,381.501C 1563.67,381.501 1574.65,376.536 1582.72,366.605C 1590.79,356.673 1594.82,343.23 1594.82,326.275 Z "/>
			<path fill="#549AFC" fill-opacity="1" stroke-linejoin="round" d="M 1792.47,326.275C 1792.47,338.143 1790.73,348.869 1787.23,358.452C 1783.73,368.035 1778.82,376.278 1772.49,383.182C 1766.16,390.085 1758.62,395.406 1749.87,399.146C 1741.12,402.885 1731.59,404.755 1721.26,404.755C 1710.94,404.755 1701.4,402.885 1692.65,399.146C 1683.9,395.406 1676.36,390.085 1670.03,383.182C 1663.7,376.278 1658.79,368.035 1655.29,358.452C 1651.8,348.869 1650.05,338.143 1650.05,326.275C 1650.05,314.587 1651.8,303.907 1655.29,294.233C 1658.79,284.559 1663.7,276.271 1670.03,269.367C 1676.36,262.464 1683.9,257.143 1692.65,253.404C 1701.4,249.664 1710.94,247.795 1721.26,247.795C 1731.59,247.795 1741.12,249.664 1749.87,253.404C 1758.62,257.143 1766.16,262.464 1772.49,269.367C 1778.82,276.271 1783.73,284.559 1787.23,294.233C 1790.73,303.907 1792.47,314.587 1792.47,326.275 Z M 1766.31,326.275C 1766.31,309.319 1762.28,295.876 1754.21,285.945C 1746.14,276.013 1735.16,271.048 1721.26,271.048C 1707.36,271.048 1696.38,276.013 1688.31,285.945C 1680.24,295.876 1676.21,309.319 1676.21,326.275C 1676.21,343.23 1680.24,356.673 1688.31,366.605C 1696.38,376.536 1707.36,381.501 1721.26,381.501C 1735.16,381.501 1746.14,376.536 1754.21,366.605C 1762.28,356.673 1766.31,343.23 1766.31,326.275 Z "/>
			<path fill="#549AFC" fill-opacity="1" stroke-linejoin="round" d="M 1866.64,381.501C 1877.96,381.501 1886.36,380.078 1891.82,377.232C 1897.29,374.386 1900.02,369.829 1900.02,363.562C 1900.02,357.143 1897.28,352.033 1891.8,348.233C 1886.32,344.434 1877.49,340.566 1865.32,336.63C 1859.45,334.722 1853.82,332.784 1848.43,330.816C 1843.04,328.848 1838.38,326.161 1834.46,322.755C 1830.54,319.349 1827.41,315.253 1825.06,310.47C 1822.71,305.686 1821.54,299.781 1821.54,292.757C 1821.54,278.981 1826.47,268.043 1836.32,259.944C 1846.18,251.844 1859.6,247.795 1876.59,247.795C 1880.86,247.795 1885.11,248.037 1889.35,248.521C 1893.59,249.006 1897.55,249.589 1901.22,250.27C 1904.9,250.951 1908.14,251.678 1910.94,252.45C 1913.74,253.222 1915.92,253.896 1917.46,254.471L 1912.47,278.315C 1909.53,276.77 1904.93,275.173 1898.68,273.523C 1892.43,271.873 1884.91,271.048 1876.13,271.048C 1868.5,271.048 1861.86,272.509 1856.19,275.431C 1850.53,278.352 1847.7,282.917 1847.7,289.124C 1847.7,292.333 1848.36,295.157 1849.68,297.594C 1850.99,300.031 1853.02,302.242 1855.76,304.225C 1858.5,306.208 1861.9,308.047 1865.96,309.743C 1870.02,311.438 1874.8,313.089 1880.31,314.693C 1887.58,316.964 1894.06,319.182 1899.75,321.347C 1905.44,323.512 1910.22,326.373 1914.1,329.931C 1917.98,333.488 1920.96,337.795 1923.05,342.852C 1925.14,347.908 1926.18,354.1 1926.18,361.427C 1926.18,375.658 1920.96,386.436 1910.51,393.764C 1900.07,401.091 1885.17,404.755 1865.82,404.755C 1852.35,404.755 1841.8,403.634 1834.17,401.394C 1826.54,399.153 1821.36,397.458 1818.63,396.307L 1823.72,372.781C 1826.9,373.932 1831.96,375.673 1838.91,378.004C 1845.86,380.336 1855.1,381.501 1866.64,381.501 Z "/>
			<path fill="#549AFC" fill-opacity="1" stroke-linejoin="round" d="M 1987.22,250.701L 2042.45,250.701L 2042.45,273.955L 1987.22,273.955L 1987.22,343.533C 1987.22,351.072 1987.78,357.302 1988.9,362.222C 1990.02,367.142 1991.7,371.002 1993.94,373.803C 1996.18,376.604 1998.98,378.587 2002.34,379.753C 2005.71,380.918 2009.63,381.501 2014.11,381.501C 2021.98,381.501 2028.29,380.578 2033.05,378.731C 2037.8,376.884 2041.12,375.567 2042.99,374.78L 2048.26,396.625C 2045.63,397.987 2041.03,399.683 2034.48,401.712C 2027.92,403.74 2020.42,404.755 2011.97,404.755C 2002.04,404.755 1993.84,403.453 1987.36,400.849C 1980.88,398.245 1975.67,394.331 1971.73,389.108C 1967.8,383.886 1965.04,377.459 1963.45,369.829C 1961.86,362.199 1961.06,353.358 1961.06,343.306L 1961.06,208.827L 1987.22,204.195L 1987.22,250.701 Z "/>
		</g>
		<rect x="0" y="-2.0504e-005" fill="#549AFC" fill-opacity="0" stroke-width="0.2" stroke-linejoin="round" width="2135.57" height="589.875"/>
	</g>
</svg>
