<svg id="Capa_1" enable-background="new 0 0 512 512" height="512" viewBox="0 0 512 512" width="512" xmlns="http://www.w3.org/2000/svg"><path d="m507.505 208.193c-1.348-7.075-7.533-12.193-14.735-12.193h-236.77c-8.284 0-15 6.716-15 15v90c0 8.284 6.716 15 15 15h120.93c-9.118 18.344-22.201 34.22-37.905 46.655-1.322.689-2.563 1.587-3.673 2.696-.115.115-.213.24-.323.358-22.625 16.616-50.193 26.291-79.029 26.291-75.256 0-136-61.307-136-136 0-74.723 60.777-136 136-136 28.563 0 56.552 9.693 80.944 28.032 5.969 4.489 14.337 3.901 19.62-1.383l64.009-64.009c6.221-6.221 5.773-16.449-.97-22.102-46.568-39.038-104.669-60.538-163.603-60.538-68.01 0-132.194 26.731-180.731 75.268-48.539 48.538-75.269 112.723-75.269 180.732s26.73 132.194 75.269 180.732c48.537 48.537 112.721 75.268 180.731 75.268s132.194-26.731 180.731-75.268c48.539-48.538 75.269-112.723 75.269-180.732 0-16.063-1.513-32.147-4.495-47.807zm-251.505-178.193c46.582 0 92.649 15.316 131.372 43.414l-43.146 43.147c-27.028-17.417-57.28-26.561-88.226-26.561-44.007 0-85.601 17.359-117.121 48.879-11.849 11.85-21.696 25.124-29.373 39.414l-43.915-43.915c40.205-62.725 110.534-104.378 190.409-104.378zm-205.409 131.804 46.461 46.461c-4.644 15.315-7.052 31.357-7.052 47.735s2.408 32.42 7.052 47.735l-46.461 46.461c-13.209-28.691-20.591-60.596-20.591-94.196s7.382-65.505 20.591-94.196zm15 215.818 43.915-43.915c7.677 14.29 17.524 27.564 29.373 39.414 31.52 31.52 73.114 48.879 117.121 48.879 31.656 0 62.025-9.039 88.551-26.237l43.517 43.518c-37.175 26.862-82.802 42.719-132.068 42.719-79.875 0-150.204-41.653-190.409-104.378zm345.681 42.437-42.951-42.952c20.789-19.607 36.547-44.494 45.09-71.599 1.436-4.557.615-9.526-2.21-13.379-2.826-3.853-7.318-6.13-12.097-6.13h-128.104v-60h209.008c1.323 9.913 1.992 19.959 1.992 30 0 64.54-27.198 122.841-70.728 164.06z"/></svg>