<?xml version="1.0" encoding="iso-8859-1"?>
<!-- Generator: Adobe Illustrator 19.0.0, SVG Export Plug-In . SVG Version: 6.00 Build 0)  -->
<svg version="1.1" id="Capa_1" xmlns="http://www.w3.org/2000/svg" xmlns:xlink="http://www.w3.org/1999/xlink" x="0px" y="0px"
	 viewBox="0 0 504.123 504.123" style="enable-background:new 0 0 504.123 504.123;" xml:space="preserve">
<circle style="fill:#FBBD5E;" cx="252.062" cy="252.062" r="252.062"/>
<g>
	<rect x="341.071" y="195.348" style="fill:#183651;" width="15.754" height="15.754"/>
	<rect x="389.12" y="195.348" style="fill:#183651;" width="15.754" height="15.754"/>
	<rect x="436.382" y="195.348" style="fill:#183651;" width="15.754" height="15.754"/>
	<rect x="51.988" y="293.022" style="fill:#183651;" width="15.754" height="15.754"/>
	<rect x="99.249" y="293.022" style="fill:#183651;" width="15.754" height="15.754"/>
	<rect x="147.298" y="293.022" style="fill:#183651;" width="15.754" height="15.754"/>
	<polygon style="fill:#183651;" points="146.511,65.378 135.483,54.351 149.662,39.385 135.483,24.418 146.511,13.391 
		172.505,39.385 	"/>
	<rect x="111.852" y="31.508" style="fill:#183651;" width="48.837" height="15.754"/>
</g>
<rect x="200.074" y="432.443" style="fill:#4FBF9F;" width="103.975" height="63.803"/>
<path style="fill:#183651;" d="M304.049,504.123H200.074c-4.726,0-7.877-3.151-7.877-7.877v-63.803c0-4.726,3.151-7.877,7.877-7.877
	h103.975c4.726,0,7.877,3.151,7.877,7.877v63.803C311.926,500.972,308.775,504.123,304.049,504.123z M207.951,488.369h88.222V440.32
	h-88.222V488.369z"/>
<rect x="200.074" y="326.105" style="fill:#E0E4E8;" width="103.975" height="63.803"/>
<path style="fill:#183651;" d="M304.049,397.785H200.074c-4.726,0-7.877-3.151-7.877-7.877v-63.803c0-4.726,3.151-7.877,7.877-7.877
	h103.975c4.726,0,7.877,3.151,7.877,7.877v63.803C311.926,394.634,308.775,397.785,304.049,397.785z M207.951,382.031h88.222
	v-48.049h-88.222V382.031z"/>
<rect x="200.074" y="220.554" style="fill:#4FBF9F;" width="103.975" height="63.803"/>
<path style="fill:#183651;" d="M304.049,291.446H200.074c-4.726,0-7.877-3.151-7.877-7.877v-63.803c0-4.726,3.151-7.877,7.877-7.877
	h103.975c4.726,0,7.877,3.151,7.877,7.877v63.803C311.926,288.295,308.775,291.446,304.049,291.446z M207.951,275.692h88.222
	v-48.049h-88.222V275.692z"/>
<rect x="200.074" y="114.215" style="fill:#E0E4E8;" width="103.975" height="63.803"/>
<path style="fill:#183651;" d="M304.049,185.895H200.074c-4.726,0-7.877-3.151-7.877-7.877v-63.803c0-4.726,3.151-7.877,7.877-7.877
	h103.975c4.726,0,7.877,3.151,7.877,7.877v63.803C311.926,181.957,308.775,185.895,304.049,185.895z M207.951,170.142h88.222
	v-48.049h-88.222V170.142z"/>
<rect x="200.074" y="7.877" style="fill:#4FBF9F;" width="103.975" height="63.803"/>
<g>
	<path style="fill:#183651;" d="M304.049,79.557H200.074c-4.726,0-7.877-3.151-7.877-7.877V7.877c0-4.726,3.151-7.877,7.877-7.877
		h103.975c4.726,0,7.877,3.151,7.877,7.877V71.68C311.926,75.618,308.775,79.557,304.049,79.557z M207.951,63.803h88.222V15.754
		h-88.222V63.803z"/>
	<polygon style="fill:#183651;" points="338.708,487.582 327.68,476.554 341.858,462.375 327.68,447.409 338.708,436.382 
		363.914,462.375 	"/>
	<rect x="304.049" y="454.498" style="fill:#183651;" width="48.837" height="15.754"/>
	<polygon style="fill:#183651;" points="152.812,484.431 140.997,473.403 155.963,458.437 140.997,443.471 152.812,432.443 
		178.018,458.437 	"/>
	<path style="fill:#183651;" d="M166.203,466.314h-102.4c-32.295,0-58.289-25.994-58.289-58.289s26.782-57.502,59.077-57.502
		h135.483v15.754H64.591c-23.631,0-42.535,18.905-42.535,42.535s18.905,42.535,42.535,42.535h102.4v14.966H166.203z"/>
	<polygon style="fill:#183651;" points="152.812,271.754 140.997,260.726 155.963,246.548 140.997,231.582 152.812,220.554 
		178.018,246.548 	"/>
	<path style="fill:#183651;" d="M166.203,254.425h-102.4c-32.295,0-58.289-25.994-58.289-58.289s26.782-58.289,59.077-58.289
		h135.483V153.6H64.591c-23.631,0-42.535,18.905-42.535,42.535s18.905,42.535,42.535,42.535h102.4v15.754H166.203z"/>
	<polygon style="fill:#183651;" points="351.311,382.031 326.105,356.037 351.311,330.831 363.126,341.858 348.16,356.037 
		363.126,371.003 	"/>
	<path style="fill:#183651;" d="M439.532,363.914h-102.4V348.16h102.4c23.631,0,42.535-18.905,42.535-42.535v-3.938
		c0-23.631-18.905-42.535-42.535-42.535H304.049v-15.754h135.483c32.295,0,58.289,25.994,58.289,58.289v3.938
		C497.822,337.92,471.828,363.914,439.532,363.914z"/>
	<polygon style="fill:#183651;" points="351.311,170.142 326.105,144.148 351.311,118.154 363.126,129.182 348.16,144.148 
		363.126,159.114 	"/>
	<path style="fill:#183651;" d="M439.532,152.025h-102.4v-15.754h102.4c23.631,0,42.535-18.905,42.535-42.535v-3.938
		c0-23.631-18.905-42.535-42.535-42.535H304.049V31.508h135.483c32.295,0,58.289,25.994,58.289,58.289v3.938
		C497.822,126.031,471.828,152.025,439.532,152.025z"/>
</g>
<rect x="392.271" y="432.443" style="fill:#F06151;" width="103.975" height="63.803"/>
<path style="fill:#183651;" d="M496.246,504.123H392.271c-4.726,0-7.877-3.151-7.877-7.877v-63.803c0-4.726,3.151-7.877,7.877-7.877
	h103.975c4.726,0,7.877,3.151,7.877,7.877v63.803C504.123,500.972,500.972,504.123,496.246,504.123z M400.148,488.369h88.222V440.32
	h-88.222V488.369z"/>
<rect x="7.877" y="7.877" style="fill:#F06151;" width="103.975" height="63.803"/>
<path style="fill:#183651;" d="M111.852,79.557H7.877C3.151,79.557,0,76.406,0,71.68V7.877C0,3.151,3.151,0,7.877,0h103.975
	c4.726,0,7.877,3.151,7.877,7.877V71.68C119.729,75.618,116.578,79.557,111.852,79.557z M15.754,63.803h88.222V15.754H15.754V63.803
	z"/>
<g>
</g>
<g>
</g>
<g>
</g>
<g>
</g>
<g>
</g>
<g>
</g>
<g>
</g>
<g>
</g>
<g>
</g>
<g>
</g>
<g>
</g>
<g>
</g>
<g>
</g>
<g>
</g>
<g>
</g>
</svg>
