<?xml version="1.0" encoding="utf-8"?>
<!DOCTYPE svg PUBLIC "-//W3C//DTD SVG 1.1//EN" "http://www.w3.org/Graphics/SVG/1.1/DTD/svg11.dtd">
<svg xmlns="http://www.w3.org/2000/svg" xmlns:xlink="http://www.w3.org/1999/xlink" version="1.1" baseProfile="full" width="248.67" height="101" viewBox="0 0 248.67 101.00" enable-background="new 0 0 248.67 101.00" xml:space="preserve">
	<rect x="6.10352e-005" y="0.992767" fill="#32335B" fill-opacity="1" stroke-width="0.2" stroke-linejoin="round" width="100" height="100"/>
	<path fill="#FFFFFF" fill-opacity="1" stroke-width="0.2" stroke-linejoin="round" d="M 75.2729,37.9778C 74.4802,37.6461 73.5762,37.4804 72.5607,37.4804C 69.7112,37.4804 68.2864,39.0165 68.2864,42.0888L 68.2864,45.4383L 74.2781,45.4383L 74.2781,49.9146L 68.3098,49.9146L 68.3098,70.3066L 62.8387,70.3066L 62.8387,49.9146L 58.3624,49.9146L 58.3624,45.4383L 62.8387,45.4383L 62.8387,41.4282C 62.8387,38.8222 63.7052,36.7667 65.4382,35.2616C 67.1712,33.7566 69.3381,33.0041 71.939,33.0041C 73.343,33.0041 74.4543,33.1517 75.2729,33.447L 75.2729,37.9778 Z "/>
	<rect x="77.7596" y="45.4383" fill="#FFFFFF" fill-opacity="1" stroke-width="0.2" stroke-linejoin="round" width="5.47107" height="24.8684"/>
	<path fill="#6CDB56" fill-opacity="1" stroke-width="0.2" stroke-linejoin="round" d="M 48.8821,35.9469L 48.9218,35.9469C 51.1309,35.9469 52.9218,37.7377 52.9218,39.9469L 52.9218,66.2495C 52.9218,68.4587 51.1309,70.2495 48.9218,70.2495L 48.8821,70.2495C 46.673,70.2495 44.8821,68.4587 44.8821,66.2495L 44.8821,39.9469C 44.8821,37.7377 46.673,35.9469 48.8821,35.9469 Z "/>
	<path fill="#6CDB56" fill-opacity="1" stroke-width="0.2" stroke-linejoin="round" d="M 36.8227,36.2148L 36.8624,36.2148C 39.0715,36.2148 40.8624,38.0056 40.8624,40.2148L 40.8624,66.5175C 40.8624,68.7266 39.0715,70.5175 36.8624,70.5175L 36.8227,70.5175C 34.6135,70.5175 32.8227,68.7266 32.8227,66.5175L 32.8227,40.2148C 32.8227,38.0056 34.6135,36.2148 36.8227,36.2148 Z "/>
	<path fill="#6CDB56" fill-opacity="1" stroke-width="0.2" stroke-linejoin="round" d="M 24.1379,36.036L 24.1776,36.036C 26.3867,36.036 28.1776,37.8269 28.1776,40.036L 28.1776,66.3387C 28.1776,68.5479 26.3867,70.3387 24.1776,70.3387L 24.1379,70.3387C 21.9287,70.3387 20.1379,68.5479 20.1379,66.3387L 20.1379,40.036C 20.1379,37.8269 21.9287,36.036 24.1379,36.036 Z "/>
	<rect x="98.1704" y="0.5" fill="#FFFFFF" fill-opacity="1" stroke-linejoin="round" stroke="#32335B" stroke-opacity="1" width="150" height="100"/>
	<g>
		<path fill="#32335B" fill-opacity="1" stroke-linejoin="round" d="M 120.864,74.24L 120.864,83.5999L 118.09,83.5999L 118.09,59.3333L 124.785,59.3333C 127.393,59.3333 129.413,59.9571 130.847,61.2047C 132.28,62.4524 132.997,64.2119 132.997,66.4833C 132.997,68.7583 132.195,70.6198 130.592,72.0679C 128.989,73.516 126.824,74.24 124.097,74.24L 120.864,74.24 Z M 120.864,61.76L 120.864,71.8133L 123.837,71.8133C 125.802,71.8133 127.3,71.3601 128.331,70.4537C 129.362,69.5473 129.877,68.2672 129.877,66.6133C 129.877,63.3777 127.983,61.76 124.195,61.76L 120.864,61.76 Z "/>
		<path fill="#32335B" fill-opacity="1" stroke-linejoin="round" d="M 148.77,83.5999L 145.997,83.5999L 145.997,80.74L 145.927,80.74C 144.702,82.8777 142.897,83.9466 140.51,83.9466C 138.755,83.9466 137.382,83.488 136.391,82.5708C 135.399,81.6536 134.904,80.4348 134.904,78.9145C 134.904,75.6609 136.841,73.7687 140.716,73.2379L 145.997,72.5066C 145.997,69.7333 144.789,68.3466 142.373,68.3466C 140.254,68.3466 138.342,69.0399 136.637,70.4266L 136.637,67.5612C 138.36,66.4671 140.344,65.92 142.59,65.92C 146.71,65.92 148.77,68.0686 148.77,72.3658L 148.77,83.5999 Z M 145.997,74.5866L 141.691,75.1717C 140.366,75.3522 139.365,75.6745 138.69,76.1385C 138.015,76.6025 137.677,77.4232 137.677,78.6004C 137.677,79.4598 137.989,80.1613 138.612,80.7047C 139.234,81.2482 140.062,81.52 141.095,81.52C 142.514,81.52 143.686,81.0307 144.61,80.052C 145.535,79.0735 145.997,77.8348 145.997,76.3362L 145.997,74.5866 Z "/>
		<path fill="#32335B" fill-opacity="1" stroke-linejoin="round" d="M 162.984,69.0399C 162.5,68.5777 161.803,68.3466 160.893,68.3466C 159.712,68.3466 158.725,68.9118 157.933,70.042C 157.14,71.1723 156.744,72.7125 156.744,74.6624L 156.744,83.5999L 153.97,83.5999L 153.97,66.2666L 156.744,66.2666L 156.744,69.6629L 156.809,69.6629C 157.202,68.4857 157.804,67.5675 158.615,66.9085C 159.426,66.2495 160.331,65.92 161.332,65.92C 162.05,65.92 162.601,65.9994 162.984,66.1583L 162.984,69.0399 Z "/>
		<path fill="#32335B" fill-opacity="1" stroke-linejoin="round" d="M 175.29,83.367C 174.622,83.7534 173.743,83.9466 172.653,83.9466C 169.558,83.9466 168.01,82.2638 168.01,78.8983L 168.01,68.6933L 164.89,68.6933L 164.89,66.2666L 168.01,66.2666L 168.01,61.9767L 170.784,61.0666L 170.784,66.2666L 175.29,66.2666L 175.29,68.6933L 170.784,68.6933L 170.784,78.3296C 170.784,79.4779 170.988,80.2967 171.396,80.786C 171.804,81.2753 172.479,81.52 173.422,81.52C 174.144,81.52 174.767,81.2888 175.29,80.8266L 175.29,83.367 Z "/>
		<path fill="#32335B" fill-opacity="1" stroke-linejoin="round" d="M 193.317,83.5999L 190.544,83.5999L 190.544,73.812C 190.544,70.1684 189.173,68.3466 186.432,68.3466C 185.017,68.3466 183.846,68.863 182.92,69.8958C 181.993,70.9286 181.53,72.234 181.53,73.812L 181.53,83.5999L 178.757,83.5999L 178.757,66.2666L 181.53,66.2666L 181.53,69.2945L 181.601,69.2945C 182.93,67.0448 184.853,65.92 187.37,65.92C 189.294,65.92 190.767,66.5302 191.787,67.7508C 192.807,68.9713 193.317,70.7336 193.317,73.0374L 193.317,83.5999 Z "/>
		<path fill="#32335B" fill-opacity="1" stroke-linejoin="round" d="M 212.384,75.6266L 200.25,75.6266C 200.297,77.508 200.819,78.9606 201.816,79.9843C 202.813,81.0081 204.185,81.52 205.933,81.52C 207.897,81.52 209.701,80.9422 211.344,79.7867L 211.344,82.3271C 209.827,83.4068 207.819,83.9466 205.32,83.9466C 202.879,83.9466 200.962,83.1648 199.568,81.6012C 198.174,80.0376 197.477,77.8366 197.477,74.9983C 197.477,72.3189 198.231,70.136 199.739,68.4496C 201.246,66.7632 203.119,65.92 205.358,65.92C 207.594,65.92 209.323,66.6485 210.548,68.1056C 211.772,69.5627 212.384,71.5876 212.384,74.1804L 212.384,75.6266 Z M 209.61,73.2C 209.6,71.6689 209.215,70.4772 208.457,69.625C 207.698,68.7727 206.644,68.3466 205.293,68.3466C 203.99,68.3466 202.883,68.7944 201.973,69.69C 201.063,70.5855 200.501,71.7555 200.288,73.2L 209.61,73.2 Z "/>
		<path fill="#32335B" fill-opacity="1" stroke-linejoin="round" d="M 225.557,69.0399C 225.073,68.5777 224.376,68.3466 223.466,68.3466C 222.285,68.3466 221.299,68.9118 220.506,70.042C 219.713,71.1723 219.317,72.7125 219.317,74.6624L 219.317,83.5999L 216.544,83.5999L 216.544,66.2666L 219.317,66.2666L 219.317,69.6629L 219.382,69.6629C 219.776,68.4857 220.378,67.5675 221.188,66.9085C 221.999,66.2495 222.905,65.92 223.905,65.92C 224.624,65.92 225.174,65.9994 225.557,66.1583L 225.557,69.0399 Z "/>
	</g>
</svg>
