<?xml version="1.0" encoding="iso-8859-1"?>
<!-- Generator: Adobe Illustrator 19.0.0, SVG Export Plug-In . SVG Version: 6.00 Build 0)  -->
<svg version="1.1" id="Capa_1" xmlns="http://www.w3.org/2000/svg" xmlns:xlink="http://www.w3.org/1999/xlink" x="0px" y="0px"
	 viewBox="0 0 368 368" style="enable-background:new 0 0 368 368;" xml:space="preserve">
<g>
	<g>
		<path d="M88,128.001H56c-13.232,0-24,10.768-24,24v80c0,4.416,3.576,8,8,8s8-3.584,8-8v-24h48v24c0,4.416,3.576,8,8,8s8-3.584,8-8
			v-80C112,138.769,101.232,128.001,88,128.001z M96,192.001H48v-40c0-4.408,3.584-8,8-8h32c4.416,0,8,3.592,8,8V192.001z"/>
	</g>
</g>
<g>
	<g>
		<path d="M192,128.001h-32c-4.424,0-8,3.584-8,8v96c0,4.416,3.576,8,8,8s8-3.584,8-8v-24h24c22.056,0,40-17.944,40-40
			C232,145.945,214.056,128.001,192,128.001z M192,192.001h-24v-48h24c13.232,0,24,10.768,24,24S205.232,192.001,192,192.001z"/>
	</g>
</g>
<g>
	<g>
		<path d="M328,224.001h-24v-80h24c4.424,0,8-3.584,8-8s-3.576-8-8-8h-64c-4.424,0-8,3.584-8,8s3.576,8,8,8h24v80h-24
			c-4.424,0-8,3.584-8,8c0,4.416,3.576,8,8,8h64c4.424,0,8-3.584,8-8C336,227.585,332.424,224.001,328,224.001z"/>
	</g>
</g>
<g>
	<g>
		<path d="M344,48.001H219.312l-29.656-29.656c-3.128-3.128-8.184-3.128-11.312,0l-29.656,29.656H24c-13.232,0-24,10.768-24,24v24
			c0,4.416,3.576,8,8,8s8-3.584,8-8v-24c0-4.408,3.584-8,8-8h128c2.128,0,4.16-0.84,5.656-2.344L184,35.313l26.344,26.344
			c1.496,1.504,3.528,2.344,5.656,2.344h128c4.416,0,8,3.592,8,8v24c0,4.416,3.576,8,8,8s8-3.584,8-8v-24
			C368,58.769,357.232,48.001,344,48.001z"/>
	</g>
</g>
<g>
	<g>
		<path d="M360,264.001c-4.424,0-8,3.584-8,8v24c0,4.408-3.584,8-8,8H216c-2.128,0-4.16,0.84-5.656,2.344L184,332.689
			l-26.344-26.344c-1.496-1.504-3.528-2.344-5.656-2.344H24c-4.416,0-8-3.592-8-8v-24c0-4.416-3.576-8-8-8s-8,3.584-8,8v24
			c0,13.232,10.768,24,24,24h124.688l29.656,29.656c1.56,1.56,3.608,2.344,5.656,2.344c2.048,0,4.096-0.784,5.656-2.344
			l29.656-29.656H344c13.232,0,24-10.768,24-24v-24C368,267.585,364.424,264.001,360,264.001z"/>
	</g>
</g>
<g>
</g>
<g>
</g>
<g>
</g>
<g>
</g>
<g>
</g>
<g>
</g>
<g>
</g>
<g>
</g>
<g>
</g>
<g>
</g>
<g>
</g>
<g>
</g>
<g>
</g>
<g>
</g>
<g>
</g>
</svg>
