<?xml version="1.0" encoding="iso-8859-1"?>
<!-- Generator: Adobe Illustrator 19.0.0, SVG Export Plug-In . SVG Version: 6.00 Build 0)  -->
<svg version="1.1" id="Capa_1" xmlns="http://www.w3.org/2000/svg" xmlns:xlink="http://www.w3.org/1999/xlink" x="0px" y="0px"
	 viewBox="0 0 512 512" style="enable-background:new 0 0 512 512;" xml:space="preserve">
<g>
	<g>
		<path d="M504.485,24.047H7.515C3.365,24.047,0,27.412,0,31.562v448.877c0,4.15,3.365,7.515,7.515,7.515h496.971
			c4.15,0,7.515-3.365,7.515-7.515V31.562C512,27.412,508.635,24.047,504.485,24.047z M496.971,88.172H100.028
			c-4.15,0-7.515,3.365-7.515,7.515s3.365,7.515,7.515,7.515h396.942v369.722H15.029V103.202h50.265c4.15,0,7.515-3.365,7.515-7.515
			s-3.365-7.515-7.515-7.515H15.029V39.076h481.941V88.172z"/>
	</g>
</g>
<g>
	<g>
		<path d="M280.047,376.736h-48.094c-17.403,0-31.562,14.159-31.562,31.562c0,17.403,14.159,31.562,31.562,31.562h48.094
			c17.403,0,31.562-14.159,31.562-31.562C311.609,390.894,297.45,376.736,280.047,376.736z M280.047,424.83h-48.094
			c-9.116,0-16.532-7.416-16.532-16.532c0-9.116,7.417-16.532,16.532-16.532h48.094c9.116,0,16.532,7.417,16.532,16.532
			C296.579,417.413,289.163,424.83,280.047,424.83z"/>
	</g>
</g>
<g>
	<g>
		<path d="M440.36,56.11h-1.002c-4.15,0-7.515,3.365-7.515,7.515s3.365,7.515,7.515,7.515h1.002c4.15,0,7.515-3.365,7.515-7.515
			S444.51,56.11,440.36,56.11z"/>
	</g>
</g>
<g>
	<g>
		<path d="M472.423,56.11h-1.002c-4.15,0-7.515,3.365-7.515,7.515s3.365,7.515,7.515,7.515h1.002c4.15,0,7.515-3.365,7.515-7.515
			S476.573,56.11,472.423,56.11z"/>
	</g>
</g>
<g>
	<g>
		<path d="M407.295,56.11h-1.002c-4.15,0-7.515,3.365-7.515,7.515s3.365,7.515,7.515,7.515h1.002c4.15,0,7.515-3.365,7.515-7.515
			S411.446,56.11,407.295,56.11z"/>
	</g>
</g>
<g>
	<g>
		<path d="M469.719,396.344l-51.364-51.366l28.694-28.694c4.01-4.01,2.123-11.075-3.336-12.564l-51.948-14.168v-97.678
			c0-4.15-3.365-7.515-7.515-7.515H127.75c-4.15,0-7.515,3.365-7.515,7.515v160.313c0,4.15,3.365,7.515,7.515,7.515h204.068
			l11.981,43.932c1.489,5.46,8.554,7.346,12.564,3.337l28.694-28.694l51.365,51.365c2.895,2.895,7.732,2.895,10.627,0l22.671-22.671
			C472.654,404.036,472.654,399.278,469.719,396.344z M135.264,344.673V199.389h241.472v86.064l-57.718-15.741
			c-5.506-1.502-10.729,3.721-9.227,9.227l17.927,65.733H135.264z M441.736,413.702l-51.365-51.365
			c-2.895-2.896-7.732-2.895-10.627,0l-24.852,24.851l-27.14-99.514l99.514,27.14l-24.851,24.852c-2.935,2.935-2.935,7.693,0,10.627
			l51.365,51.365L441.736,413.702z"/>
	</g>
</g>
<g>
	<g>
		<path d="M288.063,152.297H127.75c-4.15,0-7.515,3.365-7.515,7.515s3.365,7.515,7.515,7.515h160.313
			c4.15,0,7.515-3.365,7.515-7.515S292.213,152.297,288.063,152.297z"/>
	</g>
</g>
<g>
	<g>
		<path d="M392.266,152.297H312.11c-4.15,0-7.515,3.365-7.515,7.515s3.365,7.515,7.515,7.515h80.157c4.15,0,7.515-3.365,7.515-7.515
			S396.416,152.297,392.266,152.297z"/>
	</g>
</g>
<g>
</g>
<g>
</g>
<g>
</g>
<g>
</g>
<g>
</g>
<g>
</g>
<g>
</g>
<g>
</g>
<g>
</g>
<g>
</g>
<g>
</g>
<g>
</g>
<g>
</g>
<g>
</g>
<g>
</g>
</svg>
