<svg height="512" viewBox="0 0 61 60" width="512" xmlns="http://www.w3.org/2000/svg"><g id="027---Lego"><path id="Shape" d="m16 11c0 1.71 2.149 3 5 3s5-1.29 5-3-2.149-3-5-3-5 1.29-5 3zm5-1c1.936 0 3 .751 3 1s-1.064 1-3 1-3-.751-3-1 1.064-1 3-1z"/><path id="Shape" d="m35 36c0 1.71 2.149 3 5 3s5-1.29 5-3-2.149-3-5-3-5 1.29-5 3zm8 0c0 .249-1.064 1-3 1s-3-.751-3-1 1.064-1 3-1 3 .751 3 1z"/><path id="Shape" d="m60 35c-.0062626-.0706735-.0203488-.1404338-.042-.208.1416705-.4863826-.1027564-1.00187-.569-1.2l-5.553-2.341c-.531-1.323-2.425-2.251-4.836-2.251-.715 0 .268.332-4.079-1.5-.321-1.257-1.85-2.21-3.921-2.443 0-16.4.039-15.657-.078-15.935-.1037969-.23502811-.2907665-.4234222-.525-.529-.192-.083.006 0-5.561-2.346-.531-1.319-2.425-2.247-4.836-2.247-.715 0 .268.332-4.079-1.5-.86-3.331-8.981-3.336-9.842 0-4.338 1.828-3.362 1.5-4.079 1.5-2.411 0-4.3.928-4.836 2.247-2.79 1.177-5.7 2.4-5.56 2.346-.21505716.09265275-.38868048.26093929-.488.473-.173.343-.116-1.981-.116 33.934-.00013709.4024898.24104147.765834.612.922 40.103 16.885 37.943 16.078 38.388 16.078.338 0-.92.472 19.388-8.078.1868398-.0671184.3410039-.2030404.431-.38.25-.377.181.826.181-16.542zm-19 8.174 17-7.158v14.32l-17 7.158zm11-11.174c0 .249-1.064 1-3 1s-3-.751-3-1 1.064-1 3-1 3 .751 3 1zm-3 3c1.6897708.1321594 3.3507086-.4945405 4.532-1.71l2.893 1.219-16.425 6.916-16.425-6.916 2.893-1.219c1.1812914 1.2154595 2.8422292 1.8421594 4.532 1.71 4.881 0 6.418-3.4 3.592-5.124l1.016-.428c1.833 2.074 6.952 2.073 8.784 0l1.016.428c-2.854 1.739-1.231 5.124 3.592 5.124zm-13.921-7.5c-4.338 1.828-3.362 1.5-4.079 1.5-2.411 0-4.3.928-4.836 2.247l-4.164 1.753v-14.826l17-7.158v14.041c-2.071.233-3.6 1.186-3.921 2.443zm-4.079 3.5c1.936 0 3 .751 3 1s-1.064 1-3 1-3-.751-3-1 1.064-1 3-1zm-28-19.984 17 7.158v14.826l-17-7.154zm40 16.984c0 .249-1.064 1-3 1s-3-.751-3-1 1.064-1 3-1 3 .751 3 1zm-10-21c0 .249-1.064 1-3 1s-3-.751-3-1 1.064-1 3-1 3 .751 3 1zm-12-5c1.936 0 3 .751 3 1s-1.064 1-3 1-3-.751-3-1 1.064-1 3-1zm-4.392 2.448c1.833 2.074 6.952 2.073 8.784 0l1.016.428c-.8142491.40656202-1.350629 1.21570334-1.408 2.124 0 3.354 7.44 4.054 9.532 1.29l2.892 1.219-16.424 6.916-16.424-6.916 2.892-1.219c2.09 2.761 9.532 2.067 9.532-1.29-.057371-.90829666-.5937509-1.71743798-1.408-2.124zm-4.608 1.552c1.936 0 3 .751 3 1s-1.064 1-3 1-3-.751-3-1 1.064-1 3-1zm-9 22.016 17.61 7.415 18.39 7.743v14.32l-36-15.158z"/><path id="Shape" d="m36.4 52.083-22-9.53c-.3295956-.1521805-.7157785-.1137825-1.0089549.1003198-.2931763.2141023-.447292.5702765-.4026479.9305529.044644.3602764.2810349.6680604.6176028.8041273l22 9.529c.3304506.1585417.7211554.1236044 1.0182342-.0910518s.4529246-.5746325.4061571-.9381512c-.0467675-.3635188-.2886538-.672326-.6303913-.804797z"/><path id="Shape" d="m9.4 40.382-3-1.3c-.50672126-.2209139-1.0965861.0107787-1.3175.5175s.01077874 1.0965861.5175 1.3175l3 1.3c.32779118.1429063.7069223.1000826.99457833-.1123398s.44013517-.5621714.40000001-.9175c-.04013516-.3553287-.26678715-.662254-.59457834-.8051602z"/></g></svg>