<svg id="svg" version="1.1" xmlns="http://www.w3.org/2000/svg" xmlns:xlink="http://www.w3.org/1999/xlink" width="400" height="400" viewBox="0, 0, 400,400"><g id="svgg"><path id="path0" d="M178.613 0.299 C 176.640 0.373,174.921 0.604,174.792 0.813 C 174.663 1.022,173.446 1.218,172.087 1.248 C 170.383 1.287,169.700 1.443,169.885 1.752 C 170.033 1.998,169.865 1.966,169.512 1.681 C 169.081 1.331,168.786 1.299,168.612 1.581 C 168.469 1.811,167.453 2.000,166.353 2.000 C 165.253 2.000,164.447 2.152,164.561 2.337 C 164.676 2.523,163.836 2.707,162.694 2.748 C 161.553 2.788,160.444 2.996,160.229 3.211 C 160.015 3.425,158.976 3.600,157.920 3.600 C 156.864 3.600,156.000 3.780,156.000 4.000 C 156.000 4.220,155.295 4.400,154.433 4.400 C 153.572 4.400,152.807 4.572,152.733 4.782 C 152.660 4.993,151.925 5.210,151.100 5.264 C 150.275 5.319,149.600 5.507,149.600 5.682 C 149.600 5.857,148.880 6.000,148.000 6.000 C 147.120 6.000,146.400 6.180,146.400 6.400 C 146.400 6.620,145.961 6.800,145.424 6.800 C 144.887 6.800,144.336 6.980,144.200 7.200 C 144.064 7.420,143.323 7.600,142.553 7.600 C 141.721 7.600,141.253 7.762,141.400 8.000 C 141.544 8.233,141.146 8.400,140.450 8.400 C 139.791 8.400,138.745 8.608,138.126 8.861 C 136.726 9.435,136.606 9.473,134.400 10.037 C 133.410 10.291,132.105 10.756,131.500 11.072 C 130.895 11.387,130.395 11.500,130.388 11.323 C 130.381 11.145,130.202 11.298,129.989 11.663 C 129.760 12.054,129.293 12.245,128.846 12.128 C 128.430 12.019,127.969 12.126,127.822 12.365 C 127.674 12.604,127.191 12.800,126.748 12.800 C 126.305 12.800,125.671 13.072,125.339 13.404 C 125.007 13.736,124.570 13.905,124.368 13.780 C 124.165 13.655,124.000 13.743,124.000 13.976 C 124.000 14.209,123.460 14.400,122.800 14.400 C 122.140 14.400,121.600 14.536,121.600 14.702 C 121.600 15.022,119.110 16.235,118.845 16.044 C 118.759 15.982,118.579 16.086,118.445 16.274 C 118.112 16.739,116.104 17.600,115.353 17.600 C 115.017 17.600,114.464 17.879,114.123 18.220 C 113.782 18.560,112.985 18.943,112.352 19.070 C 111.718 19.196,111.200 19.558,111.200 19.874 C 111.200 20.189,111.032 20.344,110.828 20.217 C 110.623 20.091,110.342 20.170,110.204 20.393 C 110.066 20.617,109.618 20.800,109.210 20.800 C 108.801 20.800,108.407 20.966,108.333 21.170 C 108.260 21.373,107.937 21.598,107.616 21.670 C 107.294 21.741,106.675 22.115,106.240 22.500 C 105.805 22.885,105.112 23.200,104.701 23.200 C 104.289 23.200,104.064 23.380,104.200 23.600 C 104.336 23.820,104.077 24.000,103.624 24.000 C 103.171 24.000,102.800 24.180,102.800 24.400 C 102.800 24.620,102.485 24.806,102.100 24.813 C 101.209 24.829,99.923 25.789,100.294 26.161 C 100.449 26.316,100.268 26.324,99.891 26.180 C 99.464 26.016,99.120 26.142,98.978 26.514 C 98.840 26.873,98.439 27.031,97.974 26.909 C 97.548 26.798,97.200 26.908,97.200 27.153 C 97.200 27.399,96.924 27.600,96.587 27.600 C 96.251 27.600,95.872 27.869,95.746 28.198 C 95.619 28.526,95.357 28.697,95.161 28.576 C 94.966 28.456,94.344 28.820,93.778 29.386 C 93.211 29.952,92.582 30.313,92.379 30.187 C 92.175 30.061,92.117 30.240,92.249 30.584 C 92.423 31.038,92.313 31.141,91.845 30.962 C 91.490 30.826,91.200 30.914,91.200 31.157 C 91.200 31.401,90.917 31.600,90.571 31.600 C 89.826 31.600,88.731 32.597,89.086 32.952 C 89.222 33.089,88.919 33.200,88.414 33.200 C 87.908 33.200,87.203 33.516,86.847 33.903 C 86.491 34.289,85.705 34.860,85.100 35.170 C 84.495 35.481,84.000 35.885,84.000 36.068 C 84.000 36.250,83.730 36.400,83.400 36.400 C 83.070 36.400,82.800 36.664,82.800 36.987 C 82.800 37.371,82.569 37.486,82.134 37.319 C 81.687 37.148,81.564 37.217,81.758 37.532 C 81.932 37.813,81.798 38.000,81.424 38.000 C 81.081 38.000,80.800 38.168,80.800 38.373 C 80.800 38.578,80.434 38.862,79.987 39.004 C 79.540 39.146,78.738 39.698,78.205 40.231 C 77.672 40.764,77.003 41.203,76.718 41.206 C 76.349 41.210,76.372 41.323,76.800 41.600 C 77.298 41.922,77.264 41.991,76.600 42.007 C 75.694 42.029,74.000 43.304,74.000 43.964 C 74.000 44.204,73.865 44.379,73.700 44.353 C 72.903 44.227,72.378 44.440,72.600 44.800 C 72.736 45.020,72.556 45.200,72.200 45.200 C 71.844 45.200,71.663 45.378,71.797 45.595 C 71.932 45.813,71.796 45.897,71.496 45.781 C 71.182 45.661,70.722 45.998,70.415 46.572 C 70.120 47.123,69.727 47.478,69.540 47.363 C 69.353 47.247,69.200 47.322,69.200 47.528 C 69.200 47.734,68.694 48.112,68.076 48.368 C 67.458 48.624,66.638 49.366,66.254 50.017 C 65.869 50.668,65.372 51.200,65.149 51.200 C 64.926 51.200,64.473 51.470,64.143 51.800 C 63.813 52.130,63.638 52.400,63.753 52.400 C 63.869 52.400,63.514 52.850,62.964 53.400 C 62.414 53.950,61.869 54.400,61.753 54.400 C 61.325 54.400,60.447 55.513,60.686 55.752 C 60.822 55.889,60.710 56.000,60.438 56.000 C 59.881 56.000,58.559 57.186,59.071 57.225 C 59.252 57.239,58.995 57.413,58.500 57.612 C 58.005 57.811,57.600 58.261,57.600 58.611 C 57.600 58.961,57.420 59.136,57.200 59.000 C 56.980 58.864,56.800 58.956,56.800 59.205 C 56.800 59.454,56.530 59.927,56.200 60.257 C 55.870 60.587,55.600 60.747,55.600 60.613 C 55.600 60.478,55.349 60.601,55.042 60.884 C 54.735 61.168,54.566 61.535,54.666 61.700 C 54.765 61.865,54.684 62.000,54.484 62.000 C 53.922 62.000,49.600 66.457,49.600 67.037 C 49.600 67.321,49.422 67.663,49.205 67.797 C 48.976 67.939,48.898 67.738,49.020 67.321 C 49.136 66.924,48.836 67.350,48.353 68.266 C 47.871 69.182,47.062 70.153,46.557 70.423 C 46.052 70.693,45.459 71.429,45.240 72.057 C 45.021 72.686,44.642 73.200,44.397 73.200 C 44.153 73.200,44.064 73.380,44.200 73.600 C 44.336 73.820,44.240 74.000,43.988 74.000 C 43.308 74.000,42.030 75.679,42.007 76.600 C 41.991 77.264,41.922 77.298,41.600 76.800 C 41.291 76.321,41.211 76.396,41.206 77.167 C 41.203 77.698,41.089 78.022,40.952 77.886 C 40.606 77.540,39.915 78.315,38.813 80.284 C 38.295 81.210,37.689 81.855,37.468 81.718 C 37.226 81.569,37.167 81.736,37.319 82.134 C 37.486 82.569,37.371 82.800,36.987 82.800 C 36.664 82.800,36.400 83.083,36.400 83.429 C 36.400 84.209,35.395 85.262,35.014 84.881 C 34.860 84.726,34.784 84.780,34.846 85.000 C 35.048 85.719,34.359 87.200,33.822 87.200 C 33.533 87.200,33.073 87.740,32.800 88.400 C 32.527 89.060,32.145 89.600,31.951 89.600 C 31.758 89.600,31.600 89.960,31.600 90.400 C 31.600 90.840,31.401 91.200,31.157 91.200 C 30.914 91.200,30.826 91.490,30.962 91.845 C 31.141 92.313,31.038 92.423,30.584 92.249 C 30.240 92.117,30.037 92.142,30.134 92.305 C 30.230 92.467,29.969 93.227,29.554 93.994 C 29.139 94.760,28.791 95.120,28.779 94.794 C 28.768 94.467,28.466 94.920,28.108 95.800 C 27.749 96.680,27.339 97.490,27.197 97.600 C 26.878 97.846,25.061 101.338,24.351 103.071 C 24.065 103.770,23.688 104.255,23.515 104.148 C 23.342 104.040,23.200 104.233,23.200 104.576 C 23.200 104.919,23.020 105.200,22.800 105.200 C 22.580 105.200,22.400 105.560,22.400 106.000 C 22.400 106.440,22.220 106.800,22.000 106.800 C 21.780 106.800,21.600 107.160,21.600 107.600 C 21.600 108.040,21.420 108.400,21.200 108.400 C 20.980 108.400,20.800 108.760,20.800 109.200 C 20.800 109.640,20.609 110.000,20.376 110.000 C 20.143 110.000,20.065 110.181,20.202 110.403 C 20.339 110.624,20.189 110.906,19.870 111.028 C 19.551 111.151,19.188 111.758,19.065 112.377 C 18.941 112.997,18.560 113.782,18.220 114.123 C 17.879 114.464,17.600 114.960,17.600 115.225 C 17.600 116.316,16.655 118.757,16.314 118.547 C 16.112 118.422,15.990 118.563,16.042 118.860 C 16.164 119.543,15.183 121.600,14.736 121.600 C 14.551 121.600,14.400 122.140,14.400 122.800 C 14.400 123.460,14.199 124.000,13.953 124.000 C 13.704 124.000,13.599 124.353,13.716 124.800 C 13.857 125.340,13.728 125.600,13.320 125.600 C 12.970 125.600,12.804 125.833,12.926 126.150 C 13.042 126.453,12.881 127.193,12.568 127.796 C 12.256 128.398,12.000 129.141,12.000 129.446 C 12.000 129.751,11.790 130.000,11.533 130.000 C 11.277 130.000,11.187 130.121,11.335 130.268 C 11.482 130.416,11.314 130.978,10.960 131.517 C 10.575 132.105,10.519 132.374,10.820 132.187 C 11.180 131.965,11.223 132.037,10.972 132.438 C 10.779 132.747,10.607 133.180,10.589 133.400 C 10.554 133.833,9.732 135.863,9.326 136.519 C 9.184 136.749,9.276 136.801,9.538 136.638 C 10.169 136.248,10.120 136.623,9.453 137.290 C 8.723 138.020,8.149 139.802,8.767 139.420 C 9.016 139.267,8.855 139.789,8.410 140.582 C 7.964 141.375,7.600 142.458,7.600 142.989 C 7.600 143.519,7.420 144.064,7.200 144.200 C 6.980 144.336,6.800 144.887,6.800 145.424 C 6.800 145.961,6.620 146.400,6.400 146.400 C 6.180 146.400,6.000 147.120,6.000 148.000 C 6.000 148.880,5.857 149.600,5.682 149.600 C 5.507 149.600,5.319 150.275,5.264 151.100 C 5.210 151.925,4.993 152.660,4.782 152.733 C 4.572 152.807,4.400 153.741,4.400 154.810 C 4.400 155.878,4.220 156.864,4.000 157.000 C 3.780 157.136,3.600 157.967,3.600 158.847 C 3.600 159.727,3.455 160.357,3.277 160.247 C 3.006 160.080,2.803 161.346,2.689 163.900 C 2.677 164.175,2.517 164.400,2.333 164.400 C 2.150 164.400,2.000 165.289,2.000 166.376 C 2.000 167.463,1.811 168.469,1.581 168.612 C 1.299 168.786,1.331 169.081,1.681 169.512 C 2.109 170.041,2.107 170.097,1.667 169.833 C 1.293 169.608,1.158 169.734,1.214 170.256 C 1.413 172.143,1.163 175.625,0.843 175.426 C 0.221 175.042,-0.110 188.690,0.075 207.145 C 0.207 220.368,0.375 224.992,0.726 225.109 C 1.013 225.204,1.200 226.115,1.200 227.410 C 1.200 228.588,1.389 229.669,1.619 229.812 C 1.910 229.991,1.904 230.234,1.600 230.600 C 1.296 230.966,1.290 231.209,1.581 231.388 C 1.811 231.531,2.000 232.537,2.000 233.624 C 2.000 234.711,2.145 235.600,2.322 235.600 C 2.591 235.600,2.799 236.974,2.911 239.500 C 2.923 239.775,3.083 240.000,3.267 240.000 C 3.450 240.000,3.600 240.619,3.600 241.376 C 3.600 242.133,3.746 242.843,3.924 242.953 C 4.102 243.063,4.292 244.019,4.346 245.077 C 4.399 246.134,4.613 247.060,4.821 247.133 C 5.030 247.207,5.200 247.957,5.200 248.800 C 5.200 249.648,5.417 250.406,5.687 250.496 C 5.980 250.593,6.133 251.256,6.072 252.162 C 6.007 253.119,6.121 253.572,6.385 253.409 C 6.642 253.250,6.800 253.703,6.800 254.600 C 6.800 255.463,6.961 255.947,7.200 255.800 C 7.442 255.651,7.600 256.196,7.600 257.176 C 7.600 258.069,7.780 258.800,8.000 258.800 C 8.220 258.800,8.400 259.145,8.400 259.567 C 8.400 259.988,8.625 260.424,8.900 260.535 C 9.271 260.685,9.275 260.745,8.918 260.768 C 8.560 260.792,8.594 261.239,9.048 262.500 C 9.385 263.435,9.729 264.524,9.811 264.921 C 9.894 265.317,10.228 266.175,10.554 266.827 C 10.936 267.594,10.978 267.920,10.673 267.748 C 10.353 267.569,10.362 267.657,10.700 268.021 C 10.975 268.318,11.200 268.884,11.200 269.280 C 11.200 269.676,11.380 270.000,11.600 270.000 C 11.820 270.000,12.000 270.349,12.000 270.776 C 12.000 271.203,12.180 271.664,12.400 271.800 C 12.620 271.936,12.803 272.622,12.806 273.324 C 12.811 274.295,12.905 274.457,13.200 274.000 C 13.605 273.374,13.790 273.828,13.637 275.070 C 13.605 275.328,13.764 275.654,13.989 275.793 C 14.215 275.933,14.400 276.562,14.400 277.190 C 14.400 277.819,14.535 278.393,14.700 278.467 C 14.865 278.540,15.448 279.500,15.995 280.600 C 16.542 281.700,17.155 282.718,17.357 282.862 C 17.559 283.006,17.708 283.684,17.689 284.369 C 17.669 285.054,17.802 285.522,17.985 285.409 C 18.362 285.176,18.846 286.133,19.088 287.593 C 19.178 288.138,19.465 288.717,19.726 288.878 C 19.987 289.039,20.224 289.312,20.254 289.485 C 20.446 290.609,20.945 291.558,21.245 291.372 C 21.440 291.251,21.600 291.433,21.600 291.776 C 21.600 292.709,21.692 292.949,22.275 293.532 C 22.568 293.825,22.715 294.215,22.601 294.398 C 22.488 294.582,22.531 294.792,22.698 294.866 C 23.177 295.079,24.796 297.515,24.836 298.084 C 24.856 298.368,25.390 299.500,26.022 300.600 C 26.655 301.700,27.358 303.016,27.585 303.524 C 27.813 304.032,28.177 304.338,28.395 304.203 C 28.630 304.058,28.684 304.236,28.527 304.645 C 28.346 305.117,28.413 305.239,28.742 305.036 C 29.005 304.873,29.170 304.919,29.110 305.137 C 28.975 305.623,30.870 308.800,31.294 308.800 C 31.462 308.800,31.600 309.120,31.600 309.512 C 31.600 309.903,31.960 310.483,32.400 310.800 C 32.840 311.117,33.200 311.697,33.200 312.088 C 33.200 312.486,33.494 312.800,33.867 312.800 C 34.233 312.800,34.422 312.911,34.286 313.048 C 34.150 313.184,34.301 313.558,34.623 313.880 C 34.944 314.201,35.088 314.658,34.942 314.894 C 34.785 315.149,34.864 315.207,35.138 315.038 C 35.392 314.881,35.600 314.943,35.600 315.176 C 35.600 315.409,35.960 315.960,36.400 316.400 C 36.840 316.840,37.200 317.481,37.200 317.824 C 37.200 318.167,37.380 318.336,37.600 318.200 C 37.820 318.064,38.000 318.156,38.000 318.405 C 38.000 318.654,38.272 319.129,38.604 319.461 C 38.936 319.793,39.088 320.258,38.942 320.494 C 38.796 320.730,38.857 320.812,39.078 320.675 C 39.299 320.539,39.717 320.871,40.007 321.414 C 40.298 321.956,40.685 322.400,40.868 322.400 C 41.050 322.400,41.200 322.579,41.200 322.797 C 41.200 323.015,41.549 323.600,41.976 324.097 C 42.402 324.594,43.096 325.402,43.516 325.893 C 43.937 326.384,44.407 326.659,44.562 326.505 C 44.716 326.351,44.712 326.563,44.553 326.978 C 44.352 327.502,44.406 327.643,44.732 327.442 C 45.009 327.271,45.200 327.395,45.200 327.746 C 45.200 328.072,45.920 329.044,46.800 329.907 C 47.680 330.769,48.400 331.694,48.400 331.961 C 48.400 332.229,48.608 332.319,48.862 332.162 C 49.149 331.984,49.215 332.052,49.036 332.341 C 48.878 332.597,49.030 333.088,49.374 333.432 C 49.719 333.776,50.000 333.956,50.000 333.832 C 50.000 333.709,50.351 333.908,50.780 334.275 C 51.208 334.642,51.508 335.046,51.447 335.171 C 51.286 335.499,54.747 338.719,54.994 338.472 C 55.108 338.359,55.200 338.468,55.200 338.715 C 55.200 339.299,57.084 341.183,57.376 340.891 C 57.499 340.768,57.600 340.972,57.600 341.346 C 57.600 341.720,58.005 342.189,58.500 342.388 C 58.995 342.587,59.252 342.761,59.071 342.775 C 58.559 342.814,59.881 344.000,60.438 344.000 C 60.710 344.000,60.825 344.108,60.693 344.240 C 60.380 344.553,63.028 347.200,63.653 347.200 C 63.917 347.200,64.024 347.309,63.891 347.443 C 63.572 347.761,64.510 348.771,64.903 348.533 C 65.069 348.432,65.314 348.631,65.446 348.975 C 65.578 349.319,65.981 349.614,66.343 349.632 C 66.752 349.651,66.813 349.739,66.504 349.864 C 66.127 350.016,66.150 350.207,66.601 350.658 C 66.927 350.984,67.403 351.122,67.659 350.964 C 67.948 350.785,68.016 350.851,67.838 351.138 C 67.681 351.392,67.715 351.600,67.914 351.600 C 68.113 351.600,68.799 352.050,69.438 352.600 C 70.077 353.149,70.746 353.599,70.924 353.600 C 71.102 353.600,71.136 353.780,71.000 354.000 C 70.864 354.220,70.990 354.400,71.280 354.400 C 71.570 354.400,72.032 354.760,72.307 355.200 C 72.582 355.640,73.159 356.000,73.589 356.000 C 74.020 356.000,74.563 356.358,74.797 356.795 C 75.032 357.233,75.685 357.706,76.250 357.848 C 77.009 358.039,77.136 358.194,76.738 358.447 C 76.323 358.710,76.359 358.789,76.900 358.794 C 77.285 358.797,77.600 358.951,77.600 359.136 C 77.600 359.320,78.060 359.681,78.623 359.937 C 79.233 360.216,79.531 360.589,79.361 360.864 C 79.198 361.127,79.251 361.215,79.487 361.070 C 79.712 360.931,80.265 361.128,80.715 361.508 C 81.165 361.889,81.910 362.515,82.371 362.900 C 82.832 363.285,83.507 363.600,83.871 363.600 C 84.235 363.600,84.422 363.711,84.286 363.848 C 83.953 364.181,85.006 365.200,85.683 365.200 C 85.980 365.200,86.476 365.550,86.785 365.979 C 87.093 366.407,87.481 366.673,87.647 366.571 C 87.813 366.469,88.402 366.838,88.956 367.392 C 89.510 367.947,90.176 368.400,90.435 368.400 C 90.694 368.400,91.233 368.777,91.632 369.237 C 92.031 369.697,92.532 369.966,92.745 369.834 C 92.957 369.703,93.192 369.739,93.266 369.914 C 93.556 370.603,96.390 372.454,96.783 372.211 C 97.012 372.069,97.200 372.205,97.200 372.512 C 97.200 372.820,97.914 373.308,98.787 373.596 C 99.659 373.884,100.284 374.263,100.176 374.439 C 100.067 374.616,100.613 374.879,101.389 375.024 C 102.165 375.170,102.800 375.442,102.800 375.628 C 102.800 375.815,103.565 376.191,104.500 376.464 C 105.435 376.737,106.337 377.181,106.504 377.452 C 106.671 377.722,107.796 378.444,109.004 379.055 C 110.212 379.667,111.200 380.310,111.200 380.484 C 111.200 380.658,111.545 380.800,111.967 380.800 C 112.388 380.800,112.793 380.978,112.867 381.197 C 112.940 381.415,113.495 381.634,114.100 381.684 C 114.705 381.734,115.200 381.915,115.200 382.087 C 115.200 382.259,115.434 382.400,115.720 382.400 C 116.456 382.400,118.393 383.341,118.397 383.700 C 118.399 383.865,118.760 384.000,119.200 384.000 C 119.640 384.000,120.000 384.147,120.000 384.328 C 120.000 384.508,120.900 384.900,122.000 385.200 C 123.100 385.500,124.000 385.892,124.000 386.072 C 124.000 386.253,124.360 386.400,124.800 386.400 C 125.240 386.400,125.600 386.580,125.600 386.800 C 125.600 387.020,125.962 387.200,126.405 387.200 C 126.848 387.200,127.523 387.359,127.905 387.553 C 129.737 388.485,130.687 388.841,131.507 388.903 C 131.998 388.940,132.400 389.106,132.400 389.273 C 132.400 389.439,132.641 389.482,132.936 389.369 C 133.231 389.256,133.703 389.442,133.985 389.782 C 134.267 390.122,134.915 390.400,135.425 390.400 C 135.935 390.400,136.473 390.595,136.620 390.832 C 136.767 391.070,137.318 391.157,137.844 391.025 C 138.383 390.889,138.800 390.962,138.800 391.192 C 138.800 391.417,139.340 391.600,140.000 391.600 C 140.660 391.600,141.200 391.780,141.200 392.000 C 141.200 392.220,141.830 392.400,142.600 392.400 C 143.370 392.400,144.000 392.541,144.000 392.713 C 144.000 392.885,144.487 393.066,145.082 393.115 C 145.678 393.164,146.344 393.384,146.562 393.602 C 146.781 393.821,147.554 394.000,148.280 394.000 C 149.006 394.000,149.600 394.180,149.600 394.400 C 149.600 394.620,150.421 394.800,151.424 394.800 C 152.776 394.800,153.170 394.929,152.947 395.300 C 152.743 395.640,152.863 395.624,153.323 395.251 C 153.764 394.893,154.000 394.858,154.000 395.151 C 154.000 395.398,154.439 395.600,154.976 395.600 C 155.513 395.600,156.064 395.780,156.200 396.000 C 156.336 396.220,157.236 396.400,158.200 396.400 C 159.164 396.400,160.064 396.580,160.200 396.800 C 160.336 397.020,161.337 397.200,162.424 397.200 C 163.511 397.200,164.400 397.380,164.400 397.600 C 164.400 397.822,165.467 398.000,166.800 398.000 C 168.120 398.000,169.200 398.135,169.200 398.300 C 169.200 398.465,170.407 398.648,171.881 398.706 C 173.468 398.769,174.685 399.014,174.866 399.306 C 175.314 400.032,224.858 400.026,225.100 399.300 C 225.212 398.965,226.169 398.800,228.000 398.800 C 229.503 398.800,230.793 398.630,230.867 398.422 C 230.940 398.215,232.125 398.005,233.500 397.957 C 234.875 397.908,236.000 397.718,236.000 397.534 C 236.000 397.350,236.900 397.200,238.000 397.200 C 239.100 397.200,240.000 397.020,240.000 396.800 C 240.000 396.580,240.799 396.400,241.776 396.400 C 242.753 396.400,243.664 396.220,243.800 396.000 C 243.936 395.780,244.577 395.600,245.224 395.600 C 245.871 395.600,246.400 395.420,246.400 395.200 C 246.400 394.980,247.345 394.797,248.500 394.794 C 250.003 394.789,250.430 394.678,250.000 394.400 C 249.565 394.119,249.917 394.011,251.276 394.006 C 252.308 394.003,253.264 393.820,253.400 393.600 C 253.536 393.380,254.177 393.200,254.824 393.200 C 255.471 393.200,256.000 393.020,256.000 392.800 C 256.000 392.580,256.615 392.400,257.367 392.400 C 258.118 392.400,258.793 392.226,258.867 392.012 C 258.940 391.799,259.720 391.512,260.600 391.374 C 261.480 391.237,262.460 390.916,262.777 390.662 C 263.240 390.291,263.288 390.318,263.018 390.800 C 262.745 391.288,262.783 391.307,263.221 390.900 C 263.518 390.625,264.152 390.400,264.631 390.400 C 265.110 390.400,265.711 390.149,265.966 389.841 C 266.221 389.534,266.762 389.370,267.170 389.476 C 267.577 389.583,268.031 389.474,268.178 389.235 C 268.326 388.996,268.775 388.800,269.175 388.800 C 269.575 388.800,270.128 388.528,270.404 388.195 C 270.681 387.862,271.108 387.620,271.353 387.658 C 271.838 387.732,272.995 387.358,274.095 386.771 C 274.477 386.567,275.062 386.400,275.395 386.400 C 275.728 386.400,276.000 386.220,276.000 386.000 C 276.000 385.780,276.540 385.600,277.200 385.600 C 277.860 385.600,278.400 385.464,278.400 385.298 C 278.400 384.949,280.851 383.777,281.300 383.911 C 281.465 383.960,281.600 383.820,281.600 383.600 C 281.600 383.380,282.039 383.200,282.576 383.200 C 283.113 383.200,283.664 383.020,283.800 382.800 C 283.936 382.580,284.397 382.400,284.824 382.400 C 285.251 382.400,285.600 382.220,285.600 382.000 C 285.600 381.780,285.960 381.600,286.400 381.600 C 286.840 381.600,287.200 381.420,287.200 381.200 C 287.200 380.980,287.571 380.800,288.024 380.800 C 288.477 380.800,288.736 380.620,288.600 380.400 C 288.464 380.180,288.613 380.000,288.931 380.000 C 289.779 380.000,291.631 378.965,291.327 378.661 C 291.184 378.517,291.467 378.400,291.957 378.400 C 292.447 378.400,292.760 378.258,292.652 378.085 C 292.545 377.912,292.920 377.731,293.485 377.685 C 294.050 377.638,294.730 377.302,294.995 376.939 C 295.261 376.575,295.653 376.386,295.866 376.517 C 296.080 376.649,296.507 376.407,296.815 375.979 C 297.124 375.550,297.684 375.200,298.060 375.200 C 298.435 375.200,299.019 374.924,299.357 374.586 C 299.695 374.248,300.023 374.004,300.086 374.044 C 300.437 374.269,301.975 373.483,301.785 373.176 C 301.660 372.974,301.838 372.916,302.179 373.047 C 302.521 373.178,302.800 373.098,302.800 372.870 C 302.800 372.641,303.163 372.339,303.606 372.198 C 304.049 372.057,304.291 371.748,304.144 371.509 C 303.984 371.250,304.063 371.192,304.341 371.363 C 304.596 371.521,305.327 371.279,305.964 370.825 C 306.602 370.371,307.277 370.000,307.466 370.000 C 307.654 370.000,308.032 369.640,308.307 369.200 C 308.582 368.760,309.053 368.400,309.355 368.400 C 309.656 368.400,310.149 368.051,310.451 367.624 C 310.753 367.197,311.345 366.792,311.766 366.724 C 312.188 366.656,312.954 366.185,313.470 365.678 C 313.985 365.172,314.613 364.884,314.865 365.040 C 315.148 365.215,315.214 365.147,315.038 364.862 C 314.869 364.588,315.007 364.400,315.376 364.400 C 315.719 364.400,316.000 364.220,316.000 364.000 C 316.000 363.780,316.276 363.600,316.613 363.600 C 316.949 363.600,317.328 363.331,317.454 363.002 C 317.581 362.674,317.812 362.484,317.969 362.581 C 318.126 362.678,318.507 362.407,318.815 361.979 C 319.124 361.550,319.657 361.200,320.000 361.200 C 320.343 361.200,320.888 360.818,321.212 360.351 C 322.187 358.943,322.844 358.380,323.232 358.620 C 323.435 358.745,323.600 358.466,323.600 358.000 C 323.600 357.528,323.780 357.264,324.007 357.404 C 324.230 357.542,324.292 357.851,324.145 358.089 C 323.980 358.356,324.064 358.408,324.363 358.223 C 324.630 358.058,325.014 357.490,325.215 356.961 C 325.416 356.433,325.900 355.994,326.290 355.987 C 327.102 355.973,328.931 354.477,329.295 353.531 C 329.429 353.181,330.084 352.653,330.749 352.358 C 331.554 352.002,331.799 351.720,331.480 351.517 C 331.197 351.337,331.492 351.207,332.200 351.200 C 333.123 351.191,333.261 351.098,332.800 350.800 C 332.289 350.470,332.305 350.411,332.911 350.406 C 333.301 350.403,334.431 349.590,335.421 348.600 C 336.411 347.610,337.102 346.800,336.956 346.800 C 336.809 346.800,337.339 346.284,338.132 345.654 C 338.925 345.024,339.460 344.394,339.321 344.254 C 339.181 344.114,339.290 344.000,339.562 344.000 C 340.119 344.000,341.441 342.814,340.929 342.775 C 340.748 342.761,341.005 342.587,341.500 342.388 C 341.995 342.189,342.400 341.720,342.400 341.346 C 342.400 340.972,342.521 340.788,342.670 340.937 C 342.818 341.085,343.267 340.710,343.667 340.103 C 344.067 339.496,344.396 339.148,344.397 339.329 C 344.401 339.768,345.285 338.857,346.173 337.500 C 346.568 336.895,347.056 336.400,347.257 336.400 C 348.029 336.400,351.200 332.795,351.206 331.911 C 351.211 331.176,351.287 331.116,351.600 331.600 C 351.939 332.124,351.989 332.119,351.994 331.558 C 351.997 331.205,352.509 330.485,353.130 329.958 C 353.752 329.431,354.697 328.374,355.230 327.610 C 355.764 326.845,356.783 325.585,357.497 324.810 C 358.210 324.034,358.795 323.151,358.797 322.847 C 358.800 322.266,360.279 320.800,360.861 320.800 C 361.048 320.800,361.200 320.480,361.200 320.088 C 361.200 319.697,361.550 319.124,361.979 318.815 C 362.407 318.507,362.666 318.107,362.555 317.927 C 362.444 317.747,362.535 317.600,362.758 317.600 C 362.980 317.600,363.461 316.972,363.825 316.204 C 364.190 315.435,364.676 314.923,364.906 315.065 C 365.138 315.209,365.206 315.133,365.058 314.894 C 364.912 314.658,365.056 314.201,365.377 313.880 C 365.699 313.558,365.850 313.184,365.714 313.048 C 365.578 312.911,365.777 312.800,366.157 312.800 C 366.537 312.800,366.743 312.632,366.616 312.426 C 366.489 312.220,366.838 311.598,367.392 311.044 C 367.947 310.490,368.400 309.841,368.400 309.601 C 368.400 309.362,368.764 308.775,369.210 308.297 C 369.655 307.819,369.932 307.199,369.824 306.919 C 369.717 306.639,369.757 306.452,369.914 306.505 C 370.071 306.557,370.212 306.510,370.226 306.400 C 370.241 306.290,370.736 305.679,371.326 305.042 C 371.917 304.404,372.400 303.639,372.400 303.342 C 372.400 303.044,372.542 302.800,372.716 302.800 C 373.096 302.800,375.200 298.739,375.200 298.007 C 375.200 297.725,375.515 297.203,375.900 296.847 C 376.285 296.491,376.659 295.930,376.730 295.600 C 376.802 295.270,377.027 294.940,377.230 294.867 C 377.434 294.793,377.600 294.288,377.600 293.743 C 377.600 293.198,377.743 292.841,377.917 292.949 C 378.091 293.056,378.262 292.774,378.296 292.320 C 378.330 291.867,378.728 291.103,379.179 290.622 C 379.631 290.142,380.000 289.434,380.000 289.051 C 380.000 288.667,380.180 288.464,380.400 288.600 C 380.620 288.736,380.800 288.477,380.800 288.024 C 380.800 287.571,380.980 287.200,381.200 287.200 C 381.420 287.200,381.600 286.750,381.600 286.200 C 381.600 285.650,381.780 285.200,382.000 285.200 C 382.220 285.200,382.400 284.660,382.400 284.000 C 382.400 283.340,382.580 282.800,382.800 282.800 C 383.020 282.800,383.200 282.530,383.200 282.200 C 383.200 281.870,383.380 281.600,383.600 281.600 C 383.820 281.600,384.000 281.240,384.000 280.800 C 384.000 280.360,384.180 280.000,384.400 280.000 C 384.620 280.000,384.800 279.640,384.800 279.200 C 384.800 278.760,384.991 278.400,385.225 278.400 C 385.459 278.400,385.600 278.085,385.539 277.700 C 385.408 276.879,386.447 274.400,386.921 274.400 C 387.101 274.400,387.156 274.252,387.044 274.071 C 386.932 273.891,387.101 273.242,387.418 272.630 C 387.736 272.018,387.909 271.376,387.802 271.204 C 387.696 271.032,387.877 270.668,388.204 270.396 C 388.532 270.124,388.800 269.575,388.800 269.175 C 388.800 268.775,388.980 268.336,389.200 268.200 C 389.420 268.064,389.600 267.524,389.600 267.000 C 389.600 266.476,389.780 265.936,390.000 265.800 C 390.220 265.664,390.400 265.149,390.400 264.656 C 390.400 264.163,390.625 263.518,390.900 263.221 C 391.307 262.783,391.288 262.745,390.800 263.018 C 390.318 263.288,390.291 263.240,390.662 262.777 C 390.916 262.460,391.237 261.480,391.374 260.600 C 391.512 259.720,391.799 258.940,392.012 258.867 C 392.226 258.793,392.400 258.118,392.400 257.367 C 392.400 256.615,392.541 256.000,392.713 256.000 C 392.885 256.000,393.066 255.513,393.115 254.918 C 393.164 254.322,393.384 253.656,393.602 253.438 C 393.821 253.219,394.000 252.277,394.000 251.344 C 394.000 250.411,394.180 249.536,394.400 249.400 C 394.620 249.264,394.800 248.533,394.800 247.776 C 394.800 247.019,394.980 246.400,395.200 246.400 C 395.420 246.400,395.600 245.871,395.600 245.224 C 395.600 244.577,395.780 243.936,396.000 243.800 C 396.220 243.664,396.400 242.764,396.400 241.800 C 396.400 240.836,396.580 239.936,396.800 239.800 C 397.020 239.664,397.200 238.764,397.200 237.800 C 397.200 236.836,397.380 235.936,397.600 235.800 C 397.820 235.664,398.000 234.383,398.000 232.953 C 398.000 231.523,398.152 230.447,398.337 230.561 C 398.523 230.676,398.714 229.566,398.762 228.094 C 398.812 226.545,399.049 225.293,399.324 225.123 C 400.051 224.674,400.007 175.299,399.279 174.849 C 398.942 174.641,398.755 173.626,398.747 171.965 C 398.740 170.556,398.580 169.217,398.391 168.989 C 398.202 168.762,398.006 167.591,397.956 166.388 C 397.906 165.184,397.718 164.101,397.538 163.980 C 397.359 163.859,397.181 162.914,397.141 161.880 C 397.102 160.846,396.919 160.000,396.735 160.000 C 396.551 160.000,396.400 159.201,396.400 158.224 C 396.400 157.247,396.220 156.336,396.000 156.200 C 395.780 156.064,395.600 155.243,395.600 154.376 C 395.600 153.509,395.420 152.800,395.200 152.800 C 394.980 152.800,394.800 152.361,394.800 151.824 C 394.800 151.287,394.620 150.736,394.400 150.600 C 394.180 150.464,394.000 149.478,394.000 148.410 C 394.000 147.341,393.822 146.407,393.603 146.333 C 393.385 146.260,393.166 145.705,393.116 145.100 C 393.066 144.495,392.885 144.000,392.713 144.000 C 392.541 144.000,392.400 143.370,392.400 142.600 C 392.400 141.830,392.244 141.200,392.053 141.200 C 391.862 141.200,391.599 140.525,391.468 139.700 C 391.089 137.301,390.973 136.840,390.678 136.545 C 390.525 136.392,390.400 135.883,390.400 135.413 C 390.400 134.944,390.235 134.389,390.034 134.180 C 389.832 133.971,389.603 133.350,389.524 132.800 C 389.446 132.250,389.187 131.836,388.950 131.880 C 388.706 131.926,388.594 131.568,388.691 131.056 C 388.789 130.548,388.598 129.930,388.256 129.646 C 387.921 129.369,387.746 128.885,387.867 128.571 C 387.995 128.236,387.843 128.000,387.498 128.000 C 387.090 128.000,386.968 127.700,387.099 127.015 C 387.212 126.425,387.028 125.771,386.640 125.383 C 386.284 125.027,386.095 124.570,386.220 124.368 C 386.345 124.165,386.257 124.000,386.024 124.000 C 385.791 124.000,385.600 123.460,385.600 122.800 C 385.600 122.140,385.420 121.600,385.200 121.600 C 384.980 121.600,384.800 121.416,384.800 121.192 C 384.800 120.968,384.348 120.068,383.795 119.192 C 383.242 118.316,382.927 117.597,383.095 117.594 C 383.263 117.591,383.164 117.438,382.875 117.255 C 382.586 117.072,382.334 116.361,382.314 115.675 C 382.295 114.989,382.126 114.522,381.940 114.637 C 381.753 114.753,381.600 114.453,381.600 113.971 C 381.600 113.488,381.212 112.758,380.739 112.347 C 380.203 111.882,380.081 111.600,380.415 111.600 C 380.757 111.600,380.670 111.386,380.176 111.013 C 379.749 110.690,379.563 110.420,379.761 110.413 C 379.960 110.406,379.727 110.057,379.245 109.639 C 378.616 109.093,378.513 108.819,378.884 108.670 C 379.279 108.512,379.283 108.456,378.900 108.432 C 378.625 108.414,378.400 108.040,378.400 107.600 C 378.400 107.160,378.232 106.800,378.027 106.800 C 377.822 106.800,377.544 106.454,377.410 106.030 C 377.275 105.607,376.742 104.636,376.224 103.873 C 375.706 103.110,375.160 101.927,375.009 101.243 C 374.859 100.559,374.486 100.000,374.181 100.000 C 373.851 100.000,373.719 99.756,373.855 99.400 C 374.001 99.020,373.850 98.800,373.443 98.800 C 373.089 98.800,372.800 98.609,372.800 98.376 C 372.800 98.143,373.025 98.084,373.300 98.245 C 373.575 98.406,373.485 98.177,373.100 97.737 C 372.715 97.297,372.400 96.726,372.400 96.469 C 372.400 96.211,372.264 96.000,372.098 96.000 C 371.931 96.000,371.570 95.491,371.294 94.868 C 371.019 94.245,370.120 92.949,369.297 91.988 C 368.473 91.026,367.846 90.140,367.903 90.020 C 367.960 89.899,367.735 89.483,367.403 89.095 C 367.071 88.708,366.800 88.163,366.800 87.884 C 366.800 87.605,366.440 87.117,366.000 86.800 C 365.560 86.483,365.200 85.893,365.200 85.488 C 365.200 85.084,365.020 84.864,364.800 85.000 C 364.580 85.136,364.400 85.010,364.400 84.720 C 364.400 84.430,364.040 83.968,363.600 83.693 C 363.160 83.418,362.800 82.824,362.800 82.373 C 362.800 81.922,362.620 81.664,362.400 81.800 C 362.180 81.936,362.000 81.756,362.000 81.400 C 362.000 81.044,361.820 80.864,361.600 81.000 C 361.230 81.229,360.998 80.333,361.186 79.400 C 361.230 79.180,361.151 79.116,361.009 79.258 C 360.648 79.618,358.800 77.694,358.800 76.958 C 358.800 76.602,358.610 76.470,358.338 76.638 C 358.048 76.817,357.985 76.748,358.169 76.451 C 358.342 76.170,357.920 75.472,357.130 74.735 C 356.399 74.051,355.800 73.377,355.800 73.236 C 355.800 72.728,354.074 70.800,353.619 70.800 C 353.363 70.800,353.243 70.655,353.352 70.477 C 353.462 70.299,353.116 69.827,352.584 69.427 C 352.051 69.027,351.711 68.544,351.828 68.354 C 351.946 68.164,351.760 68.117,351.416 68.249 C 350.973 68.419,350.859 68.312,351.025 67.880 C 351.181 67.473,350.114 66.126,347.829 63.841 C 345.943 61.955,344.399 60.544,344.397 60.706 C 344.396 60.868,344.037 60.460,343.600 59.800 C 343.163 59.140,342.793 58.780,342.777 59.000 C 342.762 59.220,342.587 58.995,342.388 58.500 C 342.189 58.005,341.739 57.600,341.389 57.600 C 341.039 57.600,340.864 57.420,341.000 57.200 C 341.136 56.980,340.937 56.800,340.557 56.800 C 340.177 56.800,339.976 56.691,340.109 56.558 C 340.405 56.261,338.601 54.400,338.018 54.400 C 337.788 54.400,337.599 54.265,337.597 54.100 C 337.590 53.470,332.850 48.800,332.218 48.800 C 331.852 48.800,331.664 48.620,331.800 48.400 C 331.936 48.180,331.777 48.000,331.446 48.000 C 331.116 48.000,330.565 47.600,330.223 47.111 C 329.880 46.622,329.595 46.397,329.588 46.611 C 329.581 46.825,329.392 46.685,329.168 46.300 C 328.944 45.915,328.564 45.600,328.324 45.600 C 328.084 45.600,327.100 44.790,326.138 43.800 C 325.176 42.810,324.193 42.000,323.955 42.000 C 323.716 42.000,323.017 41.460,322.400 40.800 C 321.783 40.140,321.071 39.600,320.816 39.600 C 320.561 39.600,320.481 39.392,320.638 39.138 C 320.804 38.870,320.749 38.784,320.507 38.934 C 320.278 39.075,319.405 38.563,318.567 37.796 C 317.729 37.028,316.849 36.400,316.610 36.400 C 316.372 36.400,315.924 36.050,315.615 35.621 C 315.307 35.193,314.925 34.923,314.768 35.020 C 314.610 35.117,313.914 34.667,313.220 34.019 C 312.527 33.371,311.608 32.730,311.180 32.594 C 310.751 32.457,310.400 32.168,310.400 31.949 C 310.400 31.731,310.222 31.663,310.003 31.798 C 309.785 31.933,309.144 31.580,308.578 31.014 C 308.011 30.448,307.380 30.089,307.174 30.216 C 306.968 30.343,306.800 30.265,306.800 30.043 C 306.800 29.446,302.013 26.745,301.508 27.057 C 301.271 27.204,301.187 27.145,301.321 26.927 C 301.580 26.508,298.721 24.800,297.762 24.800 C 297.453 24.800,297.200 24.651,297.200 24.468 C 297.200 24.286,296.300 23.715,295.200 23.200 C 294.100 22.685,293.200 22.114,293.200 21.932 C 293.200 21.749,292.840 21.600,292.400 21.600 C 291.960 21.600,291.600 21.464,291.600 21.298 C 291.600 21.131,291.015 20.741,290.300 20.430 C 289.585 20.119,288.900 19.716,288.778 19.534 C 288.655 19.352,288.046 19.162,287.424 19.110 C 286.801 19.059,286.093 18.698,285.850 18.308 C 285.607 17.919,284.998 17.600,284.498 17.600 C 283.583 17.600,282.010 16.887,281.555 16.266 C 281.421 16.082,281.151 15.942,280.955 15.955 C 280.370 15.994,278.400 15.028,278.400 14.702 C 278.400 14.536,277.860 14.400,277.200 14.400 C 276.540 14.400,276.000 14.220,276.000 14.000 C 276.000 13.780,275.415 13.586,274.700 13.568 C 273.985 13.551,273.661 13.434,273.979 13.309 C 274.303 13.181,273.603 12.836,272.394 12.527 C 271.204 12.222,270.134 11.833,270.015 11.662 C 269.713 11.224,264.553 9.600,263.200 9.516 C 262.870 9.496,262.491 9.313,262.358 9.109 C 262.224 8.906,261.369 8.639,260.458 8.517 C 259.546 8.395,258.800 8.177,258.800 8.032 C 258.800 7.888,258.215 7.726,257.500 7.672 C 256.785 7.619,256.140 7.400,256.067 7.187 C 255.993 6.974,255.308 6.800,254.543 6.800 C 253.718 6.800,253.253 6.637,253.400 6.400 C 253.549 6.158,253.004 6.000,252.024 6.000 C 251.131 6.000,250.400 5.820,250.400 5.600 C 250.400 5.380,249.680 5.200,248.800 5.200 C 247.790 5.200,247.198 5.016,247.194 4.700 C 247.189 4.334,247.095 4.346,246.842 4.745 C 246.628 5.084,246.441 5.128,246.348 4.863 C 246.267 4.628,245.525 4.390,244.700 4.336 C 243.875 4.281,243.200 4.093,243.200 3.918 C 243.200 3.743,242.480 3.600,241.600 3.600 C 240.720 3.600,240.000 3.420,240.000 3.200 C 240.000 2.980,239.809 2.800,239.576 2.800 C 239.343 2.800,239.288 3.025,239.453 3.300 C 239.693 3.699,239.629 3.699,239.135 3.299 C 238.795 3.024,237.763 2.769,236.841 2.733 C 235.919 2.697,235.073 2.517,234.959 2.334 C 234.846 2.150,234.054 2.000,233.200 2.000 C 232.346 2.000,231.524 1.801,231.374 1.557 C 231.183 1.249,230.996 1.279,230.756 1.657 C 230.560 1.967,230.410 2.009,230.406 1.755 C 230.403 1.510,229.995 1.307,229.500 1.303 C 226.035 1.278,224.780 1.156,224.962 0.861 C 225.416 0.127,193.519 -0.260,178.613 0.299 M205.407 100.809 C 205.630 100.993,206.868 101.143,208.158 101.143 C 209.448 101.143,210.696 101.336,210.931 101.571 C 211.167 101.807,212.224 102.000,213.280 102.000 C 214.336 102.000,215.200 102.180,215.200 102.400 C 215.200 102.620,215.830 102.800,216.600 102.800 C 217.370 102.800,218.000 102.991,218.000 103.224 C 218.000 103.472,218.507 103.568,219.224 103.455 C 220.053 103.324,220.519 103.446,220.667 103.831 C 220.787 104.144,221.406 104.400,222.043 104.400 C 222.679 104.400,223.200 104.580,223.200 104.800 C 223.200 105.020,223.436 105.200,223.725 105.200 C 224.014 105.200,225.021 105.573,225.963 106.028 C 226.906 106.483,227.928 106.760,228.234 106.642 C 228.540 106.525,228.748 106.637,228.695 106.891 C 228.643 107.145,228.947 107.428,229.372 107.519 C 229.796 107.611,230.396 107.939,230.704 108.247 C 231.012 108.555,231.410 108.718,231.587 108.608 C 231.764 108.498,232.132 108.677,232.404 109.004 C 232.676 109.332,233.146 109.600,233.449 109.600 C 233.752 109.600,234.000 109.780,234.000 110.000 C 234.000 110.220,234.281 110.400,234.624 110.400 C 234.967 110.400,235.136 110.580,235.000 110.800 C 234.864 111.020,235.078 111.206,235.476 111.213 C 236.201 111.227,238.000 112.495,238.000 112.993 C 238.000 113.431,239.110 114.400,239.611 114.400 C 240.108 114.400,241.676 115.959,243.000 117.770 C 243.440 118.372,244.205 119.345,244.700 119.932 C 245.194 120.520,245.599 121.146,245.600 121.324 C 245.600 121.502,245.780 121.536,246.000 121.400 C 246.220 121.264,246.400 121.426,246.400 121.761 C 246.400 122.095,246.805 122.762,247.300 123.243 C 247.795 123.724,247.971 123.988,247.690 123.829 C 247.079 123.484,248.694 126.471,249.346 126.894 C 249.596 127.056,249.637 127.191,249.438 127.194 C 249.239 127.197,249.362 127.516,249.711 127.902 C 250.061 128.288,250.412 129.091,250.491 129.687 C 250.571 130.282,250.763 130.897,250.918 131.052 C 251.073 131.207,251.200 131.843,251.200 132.467 C 251.200 133.090,251.380 133.600,251.600 133.600 C 251.820 133.600,252.000 134.464,252.000 135.520 C 252.000 136.576,252.177 137.617,252.393 137.833 C 253.353 138.793,252.856 148.732,251.684 152.000 C 251.442 152.676,251.326 153.493,251.244 155.100 C 251.200 155.965,251.105 156.072,250.800 155.600 C 250.469 155.087,250.411 155.102,250.406 155.700 C 250.403 156.085,250.608 156.400,250.861 156.400 C 251.115 156.400,250.935 156.736,250.461 157.147 C 249.988 157.558,249.600 158.278,249.600 158.747 C 249.600 159.216,249.420 159.600,249.200 159.600 C 248.980 159.600,248.800 159.890,248.800 160.246 C 248.800 160.816,247.329 163.871,246.800 164.400 C 246.690 164.510,246.541 164.870,246.470 165.200 C 246.398 165.530,246.184 165.857,245.992 165.926 C 245.801 165.995,245.737 166.292,245.850 166.585 C 245.962 166.879,245.834 167.255,245.565 167.421 C 245.232 167.627,245.179 167.557,245.400 167.200 C 245.617 166.849,245.568 166.773,245.251 166.968 C 244.991 167.129,244.828 167.473,244.887 167.732 C 244.947 167.992,244.637 168.596,244.198 169.074 C 242.752 170.648,242.537 171.011,242.721 171.564 C 242.831 171.894,242.725 172.001,242.452 171.832 C 242.198 171.675,242.000 171.800,242.000 172.117 C 242.000 172.427,241.460 173.246,240.800 173.937 C 240.140 174.628,239.600 175.385,239.600 175.620 C 239.600 175.855,239.420 175.936,239.200 175.800 C 238.980 175.664,238.800 175.911,238.800 176.349 C 238.800 176.788,238.483 177.247,238.096 177.369 C 237.709 177.492,237.214 177.979,236.996 178.451 C 236.778 178.923,236.461 179.281,236.292 179.246 C 235.834 179.152,234.856 180.153,235.066 180.500 C 235.165 180.665,234.956 180.800,234.600 180.800 C 234.244 180.800,234.064 180.980,234.200 181.200 C 234.336 181.420,234.244 181.600,233.995 181.600 C 233.422 181.600,232.400 182.607,232.400 183.171 C 232.400 183.407,232.228 183.600,232.018 183.600 C 231.808 183.600,231.213 184.005,230.695 184.500 C 230.177 184.995,229.404 185.608,228.976 185.863 C 228.549 186.117,228.241 186.509,228.290 186.734 C 228.340 186.958,227.843 187.380,227.186 187.671 C 226.528 187.961,225.891 188.515,225.768 188.900 C 225.646 189.285,225.333 189.604,225.073 189.609 C 224.813 189.614,223.880 190.268,223.000 191.063 C 222.120 191.857,220.997 192.772,220.503 193.097 C 220.010 193.422,219.693 193.827,219.799 193.999 C 219.905 194.170,219.678 194.285,219.296 194.255 C 218.913 194.225,218.645 194.425,218.700 194.700 C 218.755 194.975,218.596 195.200,218.347 195.200 C 217.844 195.200,216.400 196.729,216.400 197.261 C 216.400 197.448,216.040 197.960,215.600 198.400 C 215.160 198.840,214.800 199.075,214.800 198.922 C 214.800 198.438,212.819 201.308,212.557 202.172 C 212.418 202.628,212.039 203.304,211.714 203.675 C 211.388 204.046,211.240 204.541,211.384 204.775 C 211.529 205.009,211.367 205.200,211.024 205.200 C 210.597 205.200,210.400 205.580,210.400 206.400 C 210.400 207.060,210.201 207.600,209.958 207.600 C 209.684 207.600,209.574 208.206,209.668 209.197 C 209.752 210.075,209.636 210.855,209.410 210.930 C 209.176 211.008,208.979 212.597,208.950 214.633 C 208.866 220.610,208.347 227.392,207.963 227.533 C 207.763 227.607,207.600 227.928,207.600 228.247 C 207.600 228.966,205.372 231.205,203.897 231.968 C 203.294 232.280,202.797 232.730,202.794 232.968 C 202.791 233.205,202.613 233.130,202.400 232.800 C 202.142 232.400,202.010 232.367,202.006 232.700 C 202.003 232.979,201.506 233.200,200.880 233.200 C 200.264 233.200,199.565 233.395,199.326 233.634 C 198.785 234.175,189.068 234.203,188.888 233.663 C 188.818 233.455,188.437 233.370,188.040 233.474 C 187.644 233.577,187.067 233.419,186.760 233.122 C 186.452 232.824,185.885 232.585,185.500 232.590 C 185.115 232.596,184.755 232.424,184.700 232.208 C 184.645 231.992,184.060 231.295,183.400 230.659 C 182.740 230.023,182.247 229.340,182.304 229.140 C 182.361 228.941,182.147 228.678,181.829 228.556 C 181.511 228.434,181.348 228.079,181.468 227.767 C 181.588 227.455,181.486 227.200,181.243 227.200 C 180.999 227.200,180.800 226.606,180.800 225.880 C 180.800 225.154,180.575 224.318,180.300 224.021 C 179.900 223.590,179.900 223.539,180.300 223.765 C 180.575 223.920,180.800 223.857,180.800 223.624 C 180.800 223.391,180.620 223.200,180.400 223.200 C 180.149 223.200,180.000 220.725,180.000 216.576 C 180.000 212.263,180.139 210.039,180.400 210.200 C 180.651 210.355,180.800 209.463,180.800 207.800 C 180.800 206.137,180.949 205.245,181.200 205.400 C 181.447 205.553,181.600 204.863,181.600 203.600 C 181.600 202.412,181.759 201.651,181.979 201.787 C 182.188 201.916,182.288 201.659,182.203 201.215 C 182.118 200.772,182.336 200.121,182.689 199.768 C 183.152 199.305,183.201 199.048,182.864 198.840 C 182.536 198.637,182.634 198.300,183.199 197.693 C 183.640 197.220,184.000 196.567,184.000 196.240 C 184.000 195.914,184.180 195.536,184.400 195.400 C 184.620 195.264,184.800 194.724,184.800 194.200 C 184.800 193.676,184.983 193.134,185.207 192.996 C 185.430 192.858,185.518 192.592,185.403 192.404 C 185.287 192.217,185.609 191.735,186.117 191.332 C 186.979 190.650,187.464 189.866,187.522 189.064 C 187.536 188.879,187.874 188.460,188.273 188.134 C 188.673 187.808,188.777 187.653,188.505 187.791 C 188.184 187.953,188.090 187.831,188.238 187.446 C 188.363 187.118,188.721 186.948,189.033 187.068 C 189.358 187.193,189.600 187.043,189.600 186.718 C 189.600 186.406,189.969 185.755,190.420 185.270 C 190.872 184.786,191.131 184.212,190.997 183.995 C 190.863 183.778,190.941 183.600,191.170 183.600 C 191.399 183.600,192.937 182.250,194.587 180.600 C 196.237 178.950,197.860 177.600,198.194 177.600 C 198.527 177.600,198.800 177.313,198.800 176.963 C 198.800 176.612,199.160 176.231,199.600 176.116 C 200.040 176.001,200.400 175.760,200.400 175.580 C 200.400 175.401,200.760 175.140,201.200 175.000 C 201.640 174.860,202.003 174.443,202.006 174.073 C 202.011 173.492,202.065 173.482,202.400 174.000 C 202.769 174.572,202.987 174.256,202.814 173.400 C 202.770 173.180,202.867 173.133,203.030 173.297 C 203.400 173.667,204.465 172.829,204.190 172.383 C 203.990 172.061,205.159 171.521,205.659 171.705 C 205.802 171.757,206.734 170.961,207.730 169.936 C 208.726 168.911,209.928 167.950,210.401 167.800 C 210.873 167.650,211.165 167.432,211.049 167.316 C 210.773 167.040,211.818 166.000,212.371 166.000 C 212.607 166.000,212.800 165.700,212.800 165.333 C 212.800 164.967,212.910 164.777,213.044 164.911 C 213.298 165.165,215.200 163.113,215.200 162.586 C 215.200 162.421,215.740 161.771,216.400 161.140 C 217.060 160.509,217.600 159.725,217.600 159.397 C 217.600 159.068,217.780 158.800,218.000 158.800 C 218.220 158.800,218.400 158.440,218.400 158.000 C 218.400 157.560,218.591 157.200,218.824 157.200 C 219.057 157.200,219.135 157.019,218.998 156.797 C 218.861 156.576,219.031 156.286,219.375 156.154 C 219.738 156.015,220.000 155.440,220.000 154.781 C 220.000 154.157,220.180 153.536,220.400 153.400 C 220.620 153.264,220.800 152.188,220.800 151.010 C 220.800 149.670,220.987 148.791,221.300 148.664 C 221.676 148.511,221.652 148.356,221.200 148.037 C 220.729 147.703,220.717 147.611,221.147 147.606 C 221.531 147.602,221.609 147.332,221.409 146.700 C 221.252 146.205,220.980 144.990,220.804 144.000 C 220.283 141.070,219.055 138.018,218.300 137.773 C 217.670 137.569,217.519 137.292,217.639 136.563 C 217.696 136.215,215.509 134.000,215.108 134.000 C 214.920 134.000,214.375 133.636,213.897 133.190 C 213.419 132.745,212.797 132.469,212.514 132.578 C 212.231 132.686,212.000 132.511,212.000 132.187 C 212.000 131.824,211.610 131.600,210.976 131.600 C 210.396 131.600,210.060 131.427,210.200 131.200 C 210.344 130.967,209.937 130.800,209.224 130.800 C 208.551 130.800,208.000 130.601,208.000 130.357 C 208.000 130.114,207.752 130.009,207.450 130.126 C 207.147 130.242,206.472 130.123,205.950 129.862 C 205.427 129.600,203.830 129.326,202.400 129.252 C 200.970 129.178,199.497 128.956,199.126 128.759 C 198.220 128.276,197.092 128.302,197.399 128.799 C 197.559 129.058,197.266 129.053,196.565 128.787 C 195.826 128.506,195.091 128.506,194.237 128.788 C 193.551 129.014,191.912 129.221,190.595 129.247 C 189.278 129.273,187.990 129.463,187.733 129.669 C 187.476 129.874,186.846 130.092,186.333 130.152 C 185.333 130.270,184.848 130.441,181.900 131.719 C 180.855 132.172,180.000 132.691,180.000 132.871 C 180.000 133.052,179.730 133.200,179.400 133.200 C 179.070 133.200,178.800 133.380,178.800 133.600 C 178.800 133.820,178.530 134.000,178.200 134.000 C 177.861 134.000,177.600 134.358,177.600 134.824 C 177.600 135.277,177.435 135.545,177.232 135.420 C 176.893 135.210,176.498 135.523,175.378 136.886 C 174.921 137.441,174.800 137.764,174.800 138.424 C 174.800 138.657,174.620 138.736,174.400 138.600 C 174.180 138.464,174.000 138.551,174.000 138.793 C 174.000 139.035,173.640 139.620,173.200 140.092 C 172.760 140.564,172.400 141.187,172.400 141.475 C 172.400 141.764,172.225 142.000,172.011 142.000 C 171.796 142.000,170.986 142.943,170.211 144.095 C 169.435 145.247,168.800 146.050,168.800 145.881 C 168.800 145.711,168.374 145.983,167.853 146.486 C 167.332 146.989,167.001 147.566,167.118 147.768 C 167.235 147.970,167.052 148.029,166.712 147.898 C 166.371 147.767,165.694 147.939,165.208 148.280 C 164.165 149.010,158.262 149.115,157.423 148.419 C 157.136 148.181,156.637 148.087,156.315 148.211 C 155.992 148.335,155.497 148.158,155.215 147.818 C 154.933 147.478,154.454 147.200,154.151 147.200 C 153.848 147.200,153.600 147.020,153.600 146.800 C 153.600 146.580,153.330 146.400,153.000 146.400 C 152.670 146.400,152.400 146.264,152.400 146.098 C 152.400 145.931,151.850 145.552,151.177 145.254 C 150.504 144.956,150.044 144.623,150.153 144.514 C 150.426 144.241,149.467 143.244,149.128 143.448 C 148.979 143.539,148.631 142.989,148.355 142.228 C 148.080 141.466,147.746 140.910,147.612 140.992 C 147.401 141.123,147.202 140.159,147.098 138.500 C 147.081 138.225,146.917 138.000,146.733 138.000 C 146.256 138.000,146.320 131.697,146.800 131.400 C 147.020 131.264,147.200 130.533,147.200 129.776 C 147.200 129.019,147.380 128.400,147.600 128.400 C 147.820 128.400,148.000 127.986,148.000 127.480 C 148.000 126.426,148.853 124.408,149.300 124.403 C 149.465 124.401,149.600 124.040,149.600 123.600 C 149.600 123.160,149.750 122.800,149.932 122.800 C 150.115 122.800,150.520 122.305,150.832 121.700 C 151.145 121.095,151.627 120.360,151.904 120.068 C 152.181 119.775,152.339 119.415,152.256 119.268 C 152.173 119.120,152.532 118.589,153.053 118.086 C 153.574 117.583,154.000 117.266,154.000 117.382 C 154.000 117.498,154.536 117.031,155.192 116.345 C 155.848 115.659,156.270 114.913,156.130 114.687 C 155.991 114.461,156.053 114.385,156.268 114.518 C 156.657 114.759,157.707 113.875,159.212 112.039 C 159.663 111.489,160.000 111.308,160.000 111.616 C 160.000 111.912,160.476 111.580,161.058 110.877 C 161.640 110.175,162.461 109.600,162.882 109.600 C 163.303 109.600,163.536 109.420,163.400 109.200 C 163.264 108.980,163.361 108.800,163.616 108.800 C 164.162 108.800,166.911 107.558,167.200 107.181 C 167.622 106.630,169.429 105.841,170.051 105.935 C 170.409 105.989,170.803 105.770,170.926 105.448 C 171.066 105.084,171.463 104.944,171.976 105.078 C 172.445 105.200,172.800 105.101,172.800 104.847 C 172.800 104.601,173.145 104.400,173.567 104.400 C 173.988 104.400,174.397 104.209,174.475 103.976 C 174.552 103.743,175.242 103.536,176.008 103.518 C 176.774 103.499,177.498 103.334,177.617 103.152 C 177.737 102.969,178.227 102.760,178.707 102.687 C 179.187 102.614,179.704 102.429,179.856 102.277 C 180.009 102.125,180.988 102.000,182.033 102.000 C 183.130 102.000,183.999 101.802,184.090 101.531 C 184.182 101.254,184.955 101.091,185.983 101.131 C 186.938 101.168,187.962 100.997,188.260 100.750 C 188.664 100.415,188.800 100.427,188.800 100.800 C 188.800 101.163,188.941 101.181,189.320 100.866 C 190.236 100.106,204.489 100.055,205.407 100.809 M195.200 254.039 C 195.200 254.317,195.931 254.426,197.196 254.339 C 198.425 254.253,199.258 254.373,199.364 254.649 C 199.459 254.897,200.162 255.216,200.928 255.360 C 201.693 255.504,202.540 255.886,202.809 256.211 C 203.078 256.535,203.546 256.800,203.849 256.800 C 204.152 256.800,204.400 256.957,204.400 257.149 C 204.400 257.341,205.255 257.875,206.300 258.336 C 207.345 258.797,208.058 259.180,207.884 259.187 C 207.711 259.194,207.936 259.594,208.384 260.075 C 208.833 260.557,209.200 261.144,209.200 261.379 C 209.200 261.615,209.567 262.037,210.016 262.317 C 210.464 262.597,210.732 262.986,210.612 263.181 C 210.491 263.376,210.664 263.807,210.996 264.139 C 211.328 264.471,211.600 264.936,211.600 265.171 C 211.600 265.407,211.768 265.600,211.974 265.600 C 212.179 265.600,212.265 266.050,212.166 266.600 C 212.066 267.150,212.168 267.600,212.392 267.600 C 212.616 267.600,212.800 268.151,212.800 268.824 C 212.800 269.497,212.941 269.960,213.114 269.853 C 213.287 269.746,213.444 269.961,213.464 270.329 C 213.712 275.056,213.673 276.107,213.240 276.375 C 212.975 276.539,212.789 276.837,212.826 277.037 C 212.993 277.921,212.774 279.708,212.530 279.463 C 212.268 279.201,211.359 281.258,210.920 283.104 C 210.802 283.602,210.186 284.445,209.553 284.979 C 208.919 285.512,208.400 286.060,208.400 286.197 C 208.400 286.541,205.893 288.800,205.511 288.800 C 205.340 288.800,205.200 289.064,205.200 289.387 C 205.200 289.750,204.966 289.885,204.588 289.740 C 204.235 289.604,203.665 289.863,203.241 290.353 C 202.837 290.819,202.137 291.200,201.686 291.200 C 201.236 291.200,200.807 291.364,200.733 291.564 C 200.660 291.764,199.970 292.043,199.200 292.183 C 197.185 292.551,188.788 292.656,189.338 292.306 C 189.627 292.122,189.511 292.010,189.028 292.006 C 187.965 291.998,185.600 291.110,185.600 290.720 C 185.600 290.544,185.330 290.400,185.000 290.400 C 184.670 290.400,184.400 290.220,184.400 290.000 C 184.400 289.780,184.212 289.600,183.982 289.600 C 183.752 289.600,183.110 289.147,182.556 288.592 C 182.002 288.038,181.376 287.692,181.164 287.822 C 180.953 287.953,180.830 287.821,180.890 287.530 C 180.951 287.238,180.775 287.045,180.500 287.100 C 180.225 287.155,180.021 287.065,180.047 286.900 C 180.180 286.062,179.936 285.600,179.363 285.600 C 179.012 285.600,178.631 285.240,178.516 284.800 C 178.401 284.360,178.148 284.000,177.953 284.000 C 177.759 284.000,177.600 283.722,177.600 283.383 C 177.600 283.044,177.240 282.380,176.800 281.908 C 176.360 281.436,176.000 280.543,176.000 279.925 C 176.000 279.306,175.840 278.800,175.644 278.800 C 175.201 278.800,174.785 276.387,174.818 274.000 C 174.866 270.500,175.276 267.200,175.636 267.422 C 175.836 267.546,176.000 267.277,176.000 266.824 C 176.000 266.371,176.180 266.000,176.400 266.000 C 176.620 266.000,176.800 265.809,176.800 265.576 C 176.800 265.343,176.607 265.272,176.370 265.418 C 176.133 265.565,176.169 265.318,176.451 264.868 C 176.731 264.419,177.104 264.141,177.280 264.249 C 177.456 264.358,177.600 264.077,177.600 263.624 C 177.600 263.171,177.737 262.800,177.904 262.800 C 178.071 262.800,178.444 262.421,178.733 261.958 C 179.169 261.261,179.168 261.167,178.730 261.414 C 177.431 262.144,181.196 258.872,182.872 257.814 C 183.901 257.164,184.655 256.490,184.548 256.316 C 184.441 256.142,184.909 256.000,185.589 256.000 C 186.275 256.000,186.920 255.753,187.038 255.444 C 187.166 255.112,187.604 254.965,188.126 255.079 C 188.833 255.233,188.885 255.187,188.400 254.841 C 187.753 254.379,188.803 254.215,191.500 254.358 C 192.215 254.396,192.800 254.241,192.800 254.013 C 192.800 253.786,193.340 253.600,194.000 253.600 C 194.660 253.600,195.200 253.797,195.200 254.039 " stroke="none" fill="#acbcc4" fill-rule="evenodd"></path><path id="path1" d="M326.883 44.551 C 328.001 45.634,328.400 45.828,328.400 45.286 C 328.400 45.114,327.815 44.642,327.100 44.237 L 325.800 43.502 326.883 44.551 M10.085 134.013 C 9.818 134.440,9.601 135.017,9.602 135.295 C 9.604 135.573,9.877 135.278,10.210 134.640 C 10.903 133.311,10.811 132.850,10.085 134.013 M16.800 283.151 C 16.800 283.344,17.056 283.714,17.369 283.974 C 17.835 284.361,17.898 284.298,17.722 283.623 C 17.512 282.819,16.800 282.455,16.800 283.151 M210.432 283.300 C 210.414 283.685,210.239 284.000,210.043 284.000 C 209.846 284.000,209.567 284.315,209.422 284.700 C 209.212 285.260,209.333 285.228,210.027 284.542 C 210.504 284.070,210.797 283.440,210.679 283.142 C 210.530 282.768,210.453 282.817,210.432 283.300 " stroke="none" fill="#b0bcc4" fill-rule="evenodd"></path><path id="path2" d="M326.883 44.551 C 328.001 45.634,328.400 45.828,328.400 45.286 C 328.400 45.114,327.815 44.642,327.100 44.237 L 325.800 43.502 326.883 44.551 M10.085 134.013 C 9.818 134.440,9.601 135.017,9.602 135.295 C 9.604 135.573,9.877 135.278,10.210 134.640 C 10.903 133.311,10.811 132.850,10.085 134.013 M16.800 283.151 C 16.800 283.344,17.056 283.714,17.369 283.974 C 17.835 284.361,17.898 284.298,17.722 283.623 C 17.512 282.819,16.800 282.455,16.800 283.151 M210.432 283.300 C 210.414 283.685,210.239 284.000,210.043 284.000 C 209.846 284.000,209.567 284.315,209.422 284.700 C 209.212 285.260,209.333 285.228,210.027 284.542 C 210.504 284.070,210.797 283.440,210.679 283.142 C 210.530 282.768,210.453 282.817,210.432 283.300 " stroke="none" fill="#b0bcc4" fill-rule="evenodd"></path><path id="path3" d="M326.883 44.551 C 328.001 45.634,328.400 45.828,328.400 45.286 C 328.400 45.114,327.815 44.642,327.100 44.237 L 325.800 43.502 326.883 44.551 M10.085 134.013 C 9.818 134.440,9.601 135.017,9.602 135.295 C 9.604 135.573,9.877 135.278,10.210 134.640 C 10.903 133.311,10.811 132.850,10.085 134.013 M16.800 283.151 C 16.800 283.344,17.056 283.714,17.369 283.974 C 17.835 284.361,17.898 284.298,17.722 283.623 C 17.512 282.819,16.800 282.455,16.800 283.151 M210.432 283.300 C 210.414 283.685,210.239 284.000,210.043 284.000 C 209.846 284.000,209.567 284.315,209.422 284.700 C 209.212 285.260,209.333 285.228,210.027 284.542 C 210.504 284.070,210.797 283.440,210.679 283.142 C 210.530 282.768,210.453 282.817,210.432 283.300 " stroke="none" fill="#b0bcc4" fill-rule="evenodd"></path><path id="path4" d="M326.883 44.551 C 328.001 45.634,328.400 45.828,328.400 45.286 C 328.400 45.114,327.815 44.642,327.100 44.237 L 325.800 43.502 326.883 44.551 M10.085 134.013 C 9.818 134.440,9.601 135.017,9.602 135.295 C 9.604 135.573,9.877 135.278,10.210 134.640 C 10.903 133.311,10.811 132.850,10.085 134.013 M16.800 283.151 C 16.800 283.344,17.056 283.714,17.369 283.974 C 17.835 284.361,17.898 284.298,17.722 283.623 C 17.512 282.819,16.800 282.455,16.800 283.151 M210.432 283.300 C 210.414 283.685,210.239 284.000,210.043 284.000 C 209.846 284.000,209.567 284.315,209.422 284.700 C 209.212 285.260,209.333 285.228,210.027 284.542 C 210.504 284.070,210.797 283.440,210.679 283.142 C 210.530 282.768,210.453 282.817,210.432 283.300 " stroke="none" fill="#b0bcc4" fill-rule="evenodd"></path></g></svg>