<?xml version="1.0" standalone="no"?>
<!DOCTYPE svg PUBLIC "-//W3C//DTD SVG 20010904//EN"
 "http://www.w3.org/TR/2001/REC-SVG-20010904/DTD/svg10.dtd">
<svg version="1.0" xmlns="http://www.w3.org/2000/svg"
 width="512.000000pt" height="512.000000pt" viewBox="0 0 512.000000 512.000000"
 preserveAspectRatio="xMidYMid meet">
<metadata>
Created by potrace 1.16, written by Peter Selinger 2001-2019
</metadata>
<g transform="translate(0.000000,512.000000) scale(0.100000,-0.100000)"
fill="#a9b7c4" stroke="none">
<path d="M2240 5105 c-930 -115 -1721 -731 -2070 -1611 -73 -182 -138 -450
-160 -656 -13 -125 -13 -431 0 -556 100 -944 722 -1757 1616 -2112 182 -73
450 -138 656 -160 125 -13 431 -13 556 0 1016 108 1879 823 2176 1804 74 243
106 468 106 746 0 209 -10 324 -46 505 -168 852 -761 1560 -1580 1885 -182 73
-450 138 -656 160 -131 14 -469 11 -598 -5z m696 -424 c448 -85 828 -284 1145
-601 316 -316 515 -695 602 -1149 19 -101 22 -149 22 -371 0 -222 -3 -270 -22
-371 -87 -454 -285 -832 -603 -1150 -316 -316 -695 -515 -1149 -602 -101 -19
-149 -22 -371 -22 -222 0 -270 3 -371 22 -454 87 -832 285 -1150 603 -316 316
-515 695 -602 1149 -19 101 -22 149 -22 371 0 222 3 270 22 371 87 454 285
832 603 1150 316 316 712 523 1144 599 163 28 161 28 411 25 184 -2 252 -7
341 -24z"/>
<path d="M2421 3829 c-369 -62 -661 -401 -661 -769 0 -87 17 -135 62 -177 54
-51 146 -67 216 -38 80 34 115 92 130 212 23 195 147 331 330 365 164 31 341
-64 416 -222 28 -59 31 -74 31 -165 0 -91 -3 -106 -31 -165 -65 -136 -211
-230 -356 -230 -75 0 -143 -43 -179 -112 -17 -34 -19 -62 -19 -343 0 -281 2
-309 19 -343 77 -150 285 -150 362 0 17 33 19 60 19 226 l0 189 33 7 c59 12
211 94 279 150 133 110 229 263 268 426 25 106 27 271 4 372 -95 418 -498 687
-923 617z"/>
<path d="M2490 1581 c-67 -22 -112 -58 -156 -126 -15 -24 -19 -48 -19 -120 0
-72 4 -96 19 -120 62 -96 121 -130 226 -130 105 0 164 34 226 130 15 24 19 48
19 120 0 72 -4 96 -19 120 -33 51 -69 86 -111 107 -43 22 -144 33 -185 19z"/>
</g>
</svg>
