<svg width="319" height="291" xmlns="http://www.w3.org/2000/svg">

 <g>
  <title>background</title>
  <rect fill="none" id="canvas_background" height="293" width="321" y="-1" x="-1"/>
 </g>
 <g>
  <title>Layer 1</title>
  <g id="svg_1">
   <path id="svg_2" fill="#DAE8E8" d="m51,55.6c-12.8,0 -24,10.4 -24,23.2l0,125.6c0,12.8 11.2,23.2 24,23.2s24,-10.4 24,-23.2l0,-125.6c0,-12.8 -11.2,-23.2 -24,-23.2z"/>
   <path id="svg_3" fill="#DAE8E8" d="m131,55.6c-12.8,0 -24,10.4 -24,23.2l0,125.6c0,12.8 11.2,23.2 24,23.2s24,-10.4 24,-23.2l0,-125.6c0,-12.8 -11.2,-23.2 -24,-23.2z"/>
   <path id="svg_4" fill="#DAE8E8" d="m203,55.6c-12.8,0 -24,10.4 -24,23.2l0,125.6c0,12.8 11.2,23.2 24,23.2c12.8,0 24,-10.4 24,-23.2l0,-125.6c0,-12.8 -11.2,-23.2 -24,-23.2z"/>
   <path id="svg_5" fill="#DAE8E8" d="m275,55.6c-12.8,0 -24,10.4 -24,23.2l0,125.6c0,12.8 11.2,23.2 24,23.2s24,-10.4 24,-23.2l0,-125.6c0,-12.8 -11.2,-23.2 -24,-23.2z"/>
  </g>
  <path id="svg_6" fill="#6CE205" d="m43,228.4c-12.8,0 -24,-10.4 -24,-23.2l0,-126.4c0,-12.8 11.2,-23.2 24,-23.2s24,10.4 24,23.2l0,125.6c0,13.6 -11.2,24 -24,24z"/>
  <path id="svg_7" fill="#4AD102" d="m19,79.8c0,-12.8 11.2,-23.2 24,-23.2s24,10.4 24,23.2l0,127.2"/>
  <path id="svg_8" fill="#6CE205" d="m123,228.4c-12.8,0 -24,-10.4 -24,-23.2l0,-126.4c0,-12.8 11.2,-23.2 24,-23.2s24,10.4 24,23.2l0,125.6c0,13.6 -11.2,24 -24,24z"/>
  <path id="svg_9" fill="#4AD102" d="m99,78.8c0,-12.8 11.2,-23.2 24,-23.2s24,10.4 24,23.2l0,127.2"/>
  <path id="svg_10" fill="#6CE205" d="m195,228.4c-12.8,0 -24,-10.4 -24,-23.2l0,-126.4c0,-12.8 11.2,-23.2 24,-23.2s24,10.4 24,23.2l0,125.6c0,13.6 -11.2,24 -24,24z"/>
  <path id="svg_11" fill="#4AD102" d="m171,78.8c0,-12.8 11.2,-23.2 24,-23.2s24,10.4 24,23.2l0,127.2"/>
  <path id="svg_12" fill="#6CE205" d="m262,228.39999c-12.8,0 -24,-10.4 -24,-23.2l0,-126.39999c0,-12.8 11.2,-23.2 24,-23.2s24,10.4 24,23.2l0,125.6c0,13.6 -11.20001,23.99999 -24,23.99999z"/>
  <path id="svg_13" fill="#4AD102" d="m238,78.8c0,-12.8 11.2,-23.2 24,-23.2s24,10.4 24,23.2l0,127.2"/>
  <g id="svg_14"/>
  <g id="svg_15"/>
  <g id="svg_16"/>
  <g id="svg_17"/>
  <g id="svg_18"/>
  <g id="svg_19"/>
  <g id="svg_20"/>
  <g id="svg_21"/>
  <g id="svg_22"/>
  <g id="svg_23"/>
  <g id="svg_24"/>
  <g id="svg_25"/>
  <g id="svg_26"/>
  <g id="svg_27"/>
  <g id="svg_28"/>
 </g>
</svg>