<svg xmlns="http://www.w3.org/2000/svg" width="234" height="234"><path fill="#C4F0FF" d="M117 0c64.617 0 117 52.383 117 117 0 64.617-52.383 117-117 117C52.383 234 0 181.617 0 117 0 52.383 52.383 0 117 0z"/><path fill="#87BBFD" d="M57.034 98.042L57 88.5c0-6.956 5.18-8.824 11.216-10.698l75.192-23.41c5.288-1.64 9.574 2.35 9.574 8.91v32.79l-95.948 1.95z"/><path fill="#6772E5" d="M165 177H69c-6.627 0-12-5.373-12-12V93h.01v-6.35s.998 5.904 7.67 6.35H165c6.627 0 12 5.373 12 12v60c0 6.627-5.373 12-12 12zm-9.01-51c-4.974 0-9.007 4.028-9.007 8.996 0 4.967 4.033 8.994 9.007 8.994 4.975 0 9.007-4.027 9.007-8.994 0-4.968-4.032-8.995-9.007-8.995z"/></svg>