<svg xmlns="http://www.w3.org/2000/svg" width="128" height="128"><path fill="#FCF4B2" d="M68.394 108.264c-5.724.48-11.24.295-16.472-.462l-21.654 13.232c-2.68 1.64-6.078-.508-5.75-3.633l2.038-19.353c-10.93-7.702-18.1-19.214-19.37-33.07C4.653 37.29 27.018 14.91 59.602 12.187c32.583-2.727 58.675 15.6 61.21 43.287 2.533 27.685-19.832 50.066-52.416 52.79z"/><path fill="#F5BE58" d="M92.906 59.425L76.12 56.528a1.33 1.33 0 0 1-.86-2.077l9.82-13.915c.57-.807-.418-1.795-1.225-1.225l-13.917 9.82a1.33 1.33 0 0 1-2.077-.86l-2.894-16.786c-.168-.974-1.566-.974-1.734 0L60.336 48.27a1.33 1.33 0 0 1-2.077.86l-13.92-9.822c-.807-.57-1.795.42-1.225 1.226l9.822 13.917a1.33 1.33 0 0 1-.86 2.08L35.29 59.424c-.973.168-.973 1.566 0 1.733l16.786 2.897a1.33 1.33 0 0 1 .86 2.076l-9.82 13.92c-.57.807.417 1.795 1.225 1.226l13.92-9.822a1.33 1.33 0 0 1 2.076.86L63.23 89.1c.17.973 1.567.973 1.735 0l2.896-16.786a1.33 1.33 0 0 1 2.08-.86l13.916 9.82c.807.57 1.795-.418 1.226-1.226L75.26 66.13a1.33 1.33 0 0 1 .86-2.075l16.785-2.897c.974-.168.974-1.566 0-1.733z"/></svg>