<svg xmlns="http://www.w3.org/2000/svg" width="190" height="50"><path fill="#EF672F" d="M184.146 41.593V18.118l-14.666-8.4-14.667 8.4.04 23.485-5.86-3.36v-23.48L169.52 3.007l20.487 11.735v23.5l-5.86 3.352zm-17.588.02l2.942 1.673 2.927-1.688v-23.48l5.86 3.356V44.96l-8.792 5.033-8.78-5.034-.012-23.487 5.855-3.355v23.494z"/><path fill="#28A9E0" d="M112.313 14.283c-1.648-2.058-3.663-3.836-5.987-5.284l-.04-.028c-1.22-.76-2.4-1.293-3.543-1.81-1.207-.544-2.348-1.06-3.497-1.813-1.325-.903-3.24-3.1-4.94-5.13a.615.615 0 0 0-1.084.332C92.918 3.58 92 4.732 91.05 5.525c-1.73 1.354-2.944 1.977-4.35 2.697-.446.23-.907.466-1.402.735-.587.3-3.55 1.912-6.308 5.153a20.957 20.957 0 0 0-3.47 5.686c-1.01 2.478-1.52 5.16-1.52 7.97 0 5.802 2.338 11.203 6.584 15.21a22.03 22.03 0 0 0 6.928 4.427A21.916 21.916 0 0 0 95.728 49c5.687 0 10.998-2.03 14.955-5.717a19.747 19.747 0 0 0 4.67-6.592c1.15-2.632 1.732-5.51 1.732-8.553 0-5.24-1.606-9.9-4.772-13.853zm-33.06 2.887c-.133-.092-.822-.51-.133-1.565 2.26-3.45 6.594-5.84 7.793-6.443.455-.233 2.483-1.197 4.56-2.762 1.242-.963 2.163-1.883 2.582-4.92.325 1.06.41 1.89.368 3.086-.043 1.197-1.15 1.933-1.383 2.117-.233.184-1.192.644-1.425.785-.234.14-.185.228 0 .277.37.09.602.232.602.55 0 .278-.14.88-1.156 1.934-1.89 1.975-3.372 3.165-6.733 5.19-3.362 2.025-4.936 1.84-5.072 1.75zm26.97 26.883c-.233.233-2.347 1.706-4.843 1.933-2.495.227-5.85.368-7.88-1.473-.318-.32-.232-.785 0-.97.235-.184.42-.32.69-.32.27.002.234.002.374.093.923.737 2.306 1.338 5.256 1.338s5.02-.834 5.943-1.522c.418-.32.602-.048.645.136.043.184.135.46-.184.785zm-8.07-4.185c.505-.46 1.34-1.197 2.12-1.522.782-.325 1.2-.276 1.938-.276s1.526.05 2.08.417c.552.368.872 1.197 1.056 1.657.184.46 0 .736-.37.92-.32.184-.367.093-.687-.502-.32-.596-.603-1.197-2.214-1.197-1.61 0-2.12.552-2.9 1.197-.78.644-1.058.87-1.34.503-.283-.368-.185-.736.32-1.197zm15.317-1.755c-1.106 1.614-1.794 2.21-3.085 2.117-1.66-.135-4.98-5.29-7.1-5.387-2.672-.093-8.48 5.57-13.04 5.57-2.767 0-3.597-.416-4.52-1.01-1.4-.965-2.088-2.438-2.04-4.462.05-3.59 3.412-6.944 7.653-6.994 5.396-.05 9.127 5.34 11.85 5.29 2.305-.05 6.73-4.553 8.9-4.553 2.304 0 2.95 2.393 2.95 3.817 0 1.422-.462 4-1.568 5.613z"/><path fill="#CFD7DF" d="M22.5 49C10.094 49 0 38.905 0 26.5S10.095 4 22.5 4 45 14.095 45 26.5 34.905 49 22.5 49zm0-43.967c-11.837 0-21.467 9.63-21.467 21.466s9.63 21.466 21.466 21.466 21.466-9.63 21.466-21.467c0-11.84-9.63-21.468-21.467-21.468zM41.8 26.5c0 7.12-3.86 13.337-9.597 16.682l5.895-17.045c1.1-2.753 1.468-4.954 1.468-6.913 0-.71-.047-1.37-.13-1.984A19.207 19.207 0 0 1 41.8 26.5zm-9.758-10.824c0 1.59.917 2.937 1.895 4.527.735 1.285 1.592 2.937 1.592 5.323 0 1.65-.637 3.57-1.47 6.24l-1.926 6.43L25.16 17.45c1.162-.06 2.21-.183 2.21-.183 1.038-.123.916-1.652-.125-1.59 0 0-3.126.245-5.144.245-1.894 0-5.08-.246-5.08-.246-1.04-.06-1.164 1.53-.124 1.59 0 0 .985.123 2.025.184l3.008 8.24-4.224 12.666-7.028-20.906c1.162-.06 2.208-.183 2.208-.183 1.04-.123.917-1.652-.123-1.59 0 0-3.125.245-5.143.245-.362 0-.79-.01-1.242-.024 3.45-5.24 9.383-8.7 16.126-8.7 5.025 0 9.6 1.922 13.034 5.07-.083-.007-.165-.017-.25-.017-1.896 0-3.24 1.653-3.24 3.427zM3.2 26.5c0-2.8.6-5.456 1.67-7.855l9.207 25.225C7.64 40.742 3.2 34.14 3.2 26.5zm25.57 17.94c.04.096.088.184.14.267A19.265 19.265 0 0 1 22.5 45.8c-1.895 0-3.724-.276-5.453-.785l5.79-16.828L28.77 44.44z"/></svg>