<svg xmlns="http://www.w3.org/2000/svg" width="26" height="26" viewBox="0 0 26 26"><circle cx="13" cy="13" r="13" fill="#d6facf"/><path d="M18.192 12.96v.02l-3.61.722 2.272 3.784-.015.008A.97.97 0 0 1 17 18a1 1 0 0 1-1 1 .985.985 0 0 1-.843-.494l-.014.01L13 14.943l-2.143 3.57-.014-.008A.985.985 0 0 1 10 19a1 1 0 0 1-1-1 .97.97 0 0 1 .157-.506l-.014-.008 2.27-3.784-3.61-.72v-.02A.986.986 0 0 1 7 12a1 1 0 0 1 1-1 .948.948 0 0 1 .192.04v-.02l3.8.76V8a1 1 0 0 1 2 0v3.78l3.8-.76v.02A.948.948 0 0 1 18 11a1 1 0 0 1 1 1 .986.986 0 0 1-.808.96z" fill="#24b47e"/></svg>