<svg height="682pt" viewBox="-21 -91 682.66669 682" width="682pt" xmlns="http://www.w3.org/2000/svg"><path d="m639.984375 7.53125c-.335937-6.617188-5.796875-11.863281-12.484375-11.863281h-615c-6.6875 0-12.148438 5.246093-12.484375 11.863281-.015625.214844-.015625.425781-.015625.640625v474.988281c0 6.90625 5.601562 12.507813 12.5 12.507813h615c6.898438 0 12.5-5.601563 12.5-12.507813v-474.988281c0-.214844 0-.425781-.015625-.640625zm-614.984375 12.992188h590v57.667968h-590zm590 450.132812h-590v-367.457031h590zm0 0"/><path d="m213.75 62.722656h-100c-6.90625 0-12.5-5.597656-12.5-12.5 0-6.910156 5.59375-12.503906 12.5-12.503906h100c6.90625 0 12.5 5.59375 12.5 12.503906 0 6.902344-5.59375 12.5-12.5 12.5zm0 0"/><path d="m63.773438 62.722656c-6.902344 0-12.503907-5.597656-12.503907-12.5 0-6.910156 5.589844-12.503906 12.496094-12.503906h.007813c6.90625 0 12.5 5.59375 12.5 12.503906 0 6.902344-5.59375 12.5-12.5 12.5zm0 0"/><path d="m192.070312 320.773438h-105c-6.90625 0-12.5-5.59375-12.5-12.503907 0-6.90625 5.59375-12.503906 12.5-12.503906h105c6.90625 0 12.5 5.597656 12.5 12.503906 0 6.910157-5.59375 12.503907-12.5 12.503907zm0 0"/><path d="m192.070312 371.023438h-105c-6.90625 0-12.5-5.601563-12.5-12.503907 0-6.90625 5.59375-12.507812 12.5-12.507812h105c6.90625 0 12.5 5.601562 12.5 12.507812 0 6.902344-5.59375 12.503907-12.5 12.503907zm0 0"/><path d="m192.070312 421.265625h-105c-6.90625 0-12.5-5.59375-12.5-12.5s5.59375-12.503906 12.5-12.503906h105c6.90625 0 12.5 5.597656 12.5 12.503906s-5.59375 12.5-12.5 12.5zm0 0"/><path d="m139.570312 272.691406c-33.085937 0-60-26.917968-60-60.011718 0-33.097657 26.914063-60.019532 60-60.019532 33.085938 0 60 26.921875 60 60.019532 0 33.09375-26.914062 60.011718-60 60.011718zm0-95.023437c-19.296874 0-35 15.703125-35 35.011719 0 19.300781 15.703126 35.007812 35 35.007812 19.296876 0 35-15.707031 35-35.007812 0-19.308594-15.699218-35.011719-35-35.011719zm0 0"/><path d="m372.5 320.773438h-105c-6.90625 0-12.5-5.59375-12.5-12.503907 0-6.90625 5.59375-12.503906 12.5-12.503906h105c6.90625 0 12.5 5.597656 12.5 12.503906 0 6.910157-5.59375 12.503907-12.5 12.503907zm0 0"/><path d="m372.5 371.023438h-105c-6.90625 0-12.5-5.601563-12.5-12.503907 0-6.90625 5.59375-12.507812 12.5-12.507812h105c6.90625 0 12.5 5.601562 12.5 12.507812 0 6.902344-5.59375 12.503907-12.5 12.503907zm0 0"/><path d="m372.5 421.265625h-105c-6.90625 0-12.5-5.59375-12.5-12.5s5.59375-12.503906 12.5-12.503906h105c6.90625 0 12.5 5.597656 12.5 12.503906s-5.59375 12.5-12.5 12.5zm0 0"/><path d="m320 272.691406c-33.085938 0-60-26.917968-60-60.011718 0-33.097657 26.914062-60.019532 60-60.019532s60 26.921875 60 60.019532c0 33.09375-26.914062 60.011718-60 60.011718zm0-95.023437c-19.296875 0-35 15.703125-35 35.011719 0 19.300781 15.703125 35.007812 35 35.007812s35-15.707031 35-35.007812c0-19.308594-15.703125-35.011719-35-35.011719zm0 0"/><path d="m553.039062 320.773438h-105c-6.90625 0-12.5-5.59375-12.5-12.503907 0-6.90625 5.59375-12.503906 12.5-12.503906h105c6.902344 0 12.5 5.597656 12.5 12.503906 0 6.910157-5.597656 12.503907-12.5 12.503907zm0 0"/><path d="m553.039062 371.023438h-105c-6.90625 0-12.5-5.601563-12.5-12.503907 0-6.90625 5.59375-12.507812 12.5-12.507812h105c6.902344 0 12.5 5.601562 12.5 12.507812 0 6.902344-5.597656 12.503907-12.5 12.503907zm0 0"/><path d="m553.039062 421.265625h-105c-6.90625 0-12.5-5.59375-12.5-12.5s5.59375-12.503906 12.5-12.503906h105c6.902344 0 12.5 5.597656 12.5 12.503906s-5.597656 12.5-12.5 12.5zm0 0"/><path d="m500.539062 272.691406c-33.085937 0-60-26.917968-60-60.011718 0-33.097657 26.914063-60.019532 60-60.019532 33.085938 0 60 26.921875 60 60.019532 0 33.09375-26.914062 60.011718-60 60.011718zm0-95.023437c-19.296874 0-35 15.703125-35 35.011719 0 19.300781 15.703126 35.007812 35 35.007812 19.296876 0 35-15.707031 35-35.007812 0-19.308594-15.703124-35.011719-35-35.011719zm0 0"/></svg>