<svg xmlns="http://www.w3.org/2000/svg" width="48" height="53.188" viewBox="0 0 48 53.188"><path d="M48.01 29.088a24.01 24.01 0 1 1-36.86-20.31L10.13 7l-.87.5a1.002 1.002 0 1 1-1.01-1.73l.01-.008 3.47-2.006a.994.994 0 0 1 1.36.376 1.006 1.006 0 0 1-.36 1.36l-.87.5 1.02 1.782A23.828 23.828 0 0 1 22 5.107V3h-1.5a1.504 1.504 0 0 1 0-3.01h7a1.504 1.504 0 0 1 0 3.01H26v2.107a24.043 24.043 0 0 1 22.01 23.976M24 47.146a1 1 0 0 0-1 1v2.007a1 1 0 1 0 2 0v-2.007a1 1 0 0 0-1-1m4.92-.65a.955.955 0 0 0-.26.035 1 1 0 0 0-.71 1.23l.52 1.937a1 1 0 0 0 .96.74.918.918 0 0 0 .26-.034 1 1 0 0 0 .71-1.225l-.52-1.938a1 1 0 0 0-.96-.744m-9.83-.026a1 1 0 0 0-.98.77l-.51 1.938a.993.993 0 0 0 .7 1.225 1.025 1.025 0 0 0 .26.035 1.007 1.007 0 0 0 .97-.74l.52-1.938.01-.052a1 1 0 0 0-.74-1.21 1.015 1.015 0 0 0-.23-.028m-4.59-1.883a.99.99 0 0 0-.87.507l-1 1.737a1 1 0 1 0 1.73 1.006l1-1.738.01-.013a1.008 1.008 0 0 0-.38-1.367.958.958 0 0 0-.49-.13m19 0a.958.958 0 0 0-.49.13 1 1 0 0 0-.38 1.367l.01.013 1 1.738a.99.99 0 0 0 .86.5.978.978 0 0 0 .5-.135 1 1 0 0 0 .37-1.37l-1-1.737a1 1 0 0 0-.87-.507M10.57 41.55a1 1 0 0 0-.72.306l-1.41 1.42a.992.992 0 0 0 0 1.39.993.993 0 0 0 1.41.027l1.42-1.418.02-.025a1 1 0 0 0-.72-1.7m26.86 0a1.018 1.018 0 0 0-.7.28 1 1 0 0 0-.02 1.42l.02.025 1.42 1.418a.994.994 0 0 0 1.41-.046 1.006 1.006 0 0 0 0-1.372l-1.41-1.42a1 1 0 0 0-.72-.305m-29.9-3.932a.958.958 0 0 0-.49.13l-1.74 1-.01.008a1.008 1.008 0 0 0-.35 1.373.99.99 0 0 0 .86.5.962.962 0 0 0 .5-.14l1.74-1a1 1 0 0 0 .36-1.36.99.99 0 0 0-.87-.507m32.93-.007a1 1 0 0 0-.51 1.868l.01.007 1.73 1a1.03 1.03 0 0 0 .48.123 1 1 0 0 0 .52-1.86l-1.73-1a.98.98 0 0 0-.5-.138M5.64 33.023a1.008 1.008 0 0 0-.26.033l-1.93.52a1 1 0 0 0 .26 1.97.976.976 0 0 0 .25-.033l1.94-.52a1 1 0 0 0-.26-1.97m36.72 0a.99.99 0 0 0-.96.748 1 1 0 0 0 .7 1.224l1.93.52a1.068 1.068 0 0 0 .25.03 1.015 1.015 0 0 0 .97-.762 1 1 0 0 0-.7-1.207l-1.93-.52a1.008 1.008 0 0 0-.26-.032M4.99 28.088h-2a1.004 1.004 0 0 0 0 2.007h2a1.004 1.004 0 0 0 0-2.007m40.02 0h-2a1.004 1.004 0 0 0 0 2.007h2a1.004 1.004 0 0 0 0-2.007m-41.3-5.452a1 1 0 0 0-.26 1.972l1.93.52a.985.985 0 0 0 .24.028 1 1 0 0 0 .28-1.967l-1.93-.52a1.068 1.068 0 0 0-.26-.034m40.58 0a1.01 1.01 0 0 0-.26.034l-1.93.52a1 1 0 0 0 .27 1.97 1.085 1.085 0 0 0 .25-.033l1.93-.52a1 1 0 0 0 .7-1.223.99.99 0 0 0-.96-.748m-2.1-5.078a1.02 1.02 0 0 0-.5.13l-1.73 1-.01.008a1.002 1.002 0 1 0 1.01 1.73l1.73-1a1 1 0 0 0-.5-1.868M5.8 17.55a.99.99 0 0 0-.86.5 1.01 1.01 0 0 0 .35 1.375l.01.007 1.74 1a.975.975 0 0 0 .48.123.99.99 0 0 0 .87-.523 1 1 0 0 0-.35-1.338l-1.73-1a1.014 1.014 0 0 0-.51-.138m3.36-4.347a.972.972 0 0 0-.72.305 1 1 0 0 0 0 1.394l1.41 1.418a1 1 0 0 0 .73.316 1 1 0 0 0 .73-1.69l-.04-.045-1.42-1.42a.978.978 0 0 0-.69-.28m4.33-3.367a.958.958 0 0 0-.49.13 1.01 1.01 0 0 0-.38 1.37l.01.01 1 1.74a.99.99 0 0 0 .87.5 1 1 0 0 0 .86-1.507l-1-1.736a.99.99 0 0 0-.87-.508m21.02 0a.99.99 0 0 0-.87.508l-1 1.736a1 1 0 1 0 1.73 1l1-1.738.01-.012a1.006 1.006 0 0 0-.87-1.5m-15.95-2.1a.97.97 0 0 0-.26.035 1.008 1.008 0 0 0-.71 1.226l.52 1.94a1.01 1.01 0 0 0 .97.745.976.976 0 0 0 .25-.032 1.006 1.006 0 0 0 .72-1.227h-.01l-.51-1.937a1.007 1.007 0 0 0-.97-.742m10.87 0a1 1 0 0 0-.96.743l-.52 1.938a1.004 1.004 0 0 0 1.94.52L30.4 9a1 1 0 0 0-.7-1.225 1.043 1.043 0 0 0-.27-.035M24 7.02a1 1 0 0 0-1 1v2.007a1 1 0 1 0 2 0V8.02a1 1 0 0 0-1-1" fill="#aff1b6"/><path d="M38.24 13.308a1.043 1.043 0 0 1 1.47 1.46c-5.39 6.744-12.58 15.708-13.34 16.473a3.157 3.157 0 0 1-4.47-.037 3.192 3.192 0 0 1 0-4.443c.76-.76 9.65-8.015 16.34-13.452z" fill="#24b47e"/></svg>