<?xml version="1.0" encoding="utf-8"?><svg version="1.1" id="Layer_1" xmlns="http://www.w3.org/2000/svg" xmlns:xlink="http://www.w3.org/1999/xlink" x="0px" y="0px" viewBox="0 0 122.88 122.88" style="enable-background:new 0 0 122.88 122.88" xml:space="preserve"><style type="text/css">.st0{fill-rule:evenodd;clip-rule:evenodd;fill:#F7DF1E;} .st1{fill-rule:evenodd;clip-rule:evenodd;}</style><g><polygon class="st0" points="0,0 122.88,0 122.88,122.88 0,122.88 0,0"/><path class="st1" d="M32.31,102.69l9.4-5.69c1.81,3.22,3.46,5.94,7.42,5.94c3.79,0,6.19-1.48,6.19-7.26V56.41h11.55v39.43 c0,11.96-7.01,17.4-17.24,17.4C40.39,113.24,35.03,108.46,32.31,102.69L32.31,102.69L32.31,102.69z M73.14,101.45l9.4-5.44 c2.48,4.04,5.69,7.01,11.38,7.01c4.78,0,7.84-2.39,7.84-5.69c0-3.96-3.13-5.36-8.41-7.67l-2.89-1.24c-8.33-3.55-13.86-8-13.86-17.4 c0-8.66,6.6-15.26,16.91-15.26c7.34,0,12.62,2.56,16.41,9.24l-8.99,5.77c-1.98-3.55-4.12-4.95-7.42-4.95 c-3.38,0-5.53,2.14-5.53,4.95c0,3.46,2.14,4.87,7.09,7.01l2.89,1.24c9.82,4.21,15.34,8.5,15.34,18.15 c0,10.39-8.17,16.08-19.14,16.08C83.45,113.25,76.52,108.13,73.14,101.45L73.14,101.45L73.14,101.45z M73.14,101.45L73.14,101.45 L73.14,101.45L73.14,101.45z"/></g></svg>