
<?xml version="1.0" encoding="UTF-8"?>
<svg width="1200pt" height="1200pt" version="1.1" viewBox="0 0 1200 1200" xmlns="http://www.w3.org/2000/svg">
 <g>
  <path d="m943.58 1200h-687.16c-141.47 0-256.42-114.95-256.42-256.42v-687.16c0-141.47 114.95-256.42 256.42-256.42 32.84 0 59.367 26.527 59.367 59.367 0 32.844-26.527 59.367-59.367 59.367-75.789 0-136.42 60.633-136.42 136.42v687.16c0 75.789 60.633 136.42 136.42 136.42h687.16c75.789 0 136.42-60.633 136.42-136.42 0-32.844 26.527-59.367 59.367-59.367 32.844 0 59.367 26.527 59.367 59.367 1.2656 142.74-113.68 257.69-255.16 257.69z"/>
  <path d="m1139.4 390.32h-539.37c-32.844 0-59.367-26.527-59.367-59.367 0-32.844 26.527-59.367 59.367-59.367h539.37c32.844 0 59.367 26.527 59.367 59.367 0.003906 32.84-25.262 59.367-59.367 59.367z"/>
  <path d="m870.32 659.37c-32.844 0-59.367-26.527-59.367-59.367v-540.63c0-32.844 26.527-59.367 59.367-59.367 32.844 0 59.367 26.527 59.367 59.367v539.37c0 34.109-26.527 60.633-59.367 60.633z"/>
 </g>
</svg>
