<?xml version="1.0" encoding="utf-8"?><svg version="1.1" id="Layer_1" xmlns="http://www.w3.org/2000/svg" xmlns:xlink="http://www.w3.org/1999/xlink" x="0px" y="0px" viewBox="0 0 122.88 62.27" style="enable-background:new 0 0 122.88 62.27" xml:space="preserve"><style type="text/css">.st0{fill-rule:evenodd;clip-rule:evenodd;fill:#6884BA;} .st1{fill-rule:evenodd;clip-rule:evenodd;}</style><g><path class="st0" d="M61.44,62.27c33.93,0,61.44-13.94,61.44-31.14C122.88,13.94,95.37,0,61.44,0S0,13.94,0,31.14 C0,48.33,27.51,62.27,61.44,62.27L61.44,62.27z M93.88,24.99c-0.47-0.52-1.71-0.78-3.73-0.78H87.1l-1.79,9.19h1.75 c1.23,0,2.27-0.11,3.14-0.33c0.76-0.19,1.37-0.46,1.83-0.81c0.45-0.34,0.83-0.82,1.15-1.44c0.36-0.69,0.65-1.55,0.85-2.58 c0.19-0.96,0.24-1.75,0.16-2.38C94.14,25.45,94.04,25.16,93.88,24.99L93.88,24.99z M54.56,6.86h6.81c1.1,0,2,0.9,2,2 c0,0.17-0.02,0.34-0.06,0.5l-1.14,5.87h3.64c2.07,0,3.84,0.19,5.32,0.56c1.64,0.42,2.95,1.07,3.93,1.97 c0.85,0.78,1.45,1.74,1.81,2.88l0.71-3.67c0.13-0.98,0.97-1.74,1.98-1.74h13.2c2.2,0,4.14,0.3,5.82,0.91 c1.77,0.64,3.23,1.61,4.37,2.91c1.15,1.32,1.9,2.88,2.24,4.69c0.32,1.71,0.28,3.61-0.13,5.72c-0.17,0.85-0.4,1.69-0.69,2.51 c-0.29,0.81-0.64,1.58-1.05,2.31c-0.42,0.74-0.89,1.45-1.41,2.1c-0.53,0.66-1.12,1.3-1.77,1.89l0,0c-0.79,0.74-1.62,1.37-2.49,1.89 c-0.9,0.54-1.83,0.96-2.8,1.28c-0.94,0.31-2.02,0.54-3.22,0.69c-1.19,0.15-2.46,0.23-3.8,0.23h-4.23L82.28,49 c-0.13,0.98-0.97,1.74-1.98,1.74h-6.86v0c-0.12,0-0.25-0.01-0.38-0.04c-1.08-0.21-1.79-1.25-1.59-2.34l1.18-6.07 c-0.16,0.04-0.33,0.06-0.5,0.06v0h-6.92c-1.1,0-2-0.9-2-2c0-0.17,0.02-0.34,0.06-0.5l2.68-13.81c0.12-0.61,0.16-1.08,0.12-1.42 c-0.01-0.1,0.07-0.05,0.04-0.09l-0.28-0.07c-0.4-0.1-0.96-0.15-1.68-0.15h-3.8L57.2,40.74c-0.18,0.96-1.02,1.62-1.96,1.62v0h-6.81 c-1.1,0-2-0.9-2-2c0-0.17,0.02-0.34,0.06-0.5l0.36-1.87l-0.3,0.28l0,0c-0.79,0.74-1.62,1.37-2.49,1.89 c-0.9,0.54-1.83,0.96-2.8,1.28c-0.94,0.31-2.02,0.54-3.22,0.69c-1.19,0.15-2.46,0.23-3.8,0.23H30L28.71,49 c-0.13,0.98-0.97,1.74-1.98,1.74h-6.86v0c-0.12,0-0.25-0.01-0.38-0.04c-1.08-0.21-1.79-1.25-1.59-2.34l6.1-31.39 c0.13-0.98,0.97-1.74,1.98-1.74h13.2c2.2,0,4.14,0.3,5.82,0.91c1.78,0.64,3.23,1.61,4.37,2.91c0.34,0.39,0.65,0.81,0.93,1.25 l2.3-11.81C52.78,7.53,53.62,6.86,54.56,6.86L54.56,6.86L54.56,6.86z M40.32,24.99c-0.47-0.52-1.71-0.78-3.73-0.78h-3.06 l-1.79,9.19h1.75c1.23,0,2.27-0.11,3.14-0.33c0.76-0.19,1.37-0.46,1.83-0.81c0.45-0.34,0.83-0.82,1.15-1.44 c0.36-0.69,0.65-1.55,0.85-2.58c0.19-0.96,0.24-1.75,0.16-2.38C40.57,25.45,40.47,25.16,40.32,24.99L40.32,24.99z"/><path class="st1" d="M90.15,22.21c2.61,0,4.35,0.48,5.21,1.44c0.87,0.96,1.07,2.61,0.62,4.96c-0.47,2.44-1.39,4.18-2.74,5.22 c-1.35,1.04-3.42,1.56-6.18,1.56h-4.17l2.56-13.19H90.15L90.15,22.21z M54.56,8.86h6.81l-1.63,8.38h6.07c3.82,0,6.45,0.67,7.9,2 c1.45,1.33,1.88,3.49,1.3,6.47l-2.85,14.66h-6.92l2.71-13.94c0.31-1.59,0.19-2.67-0.34-3.24c-0.54-0.58-1.67-0.87-3.42-0.87h-5.44 l-3.51,18.05h-6.81L54.56,8.86L54.56,8.86z M36.59,22.21c2.61,0,4.35,0.48,5.21,1.44c0.87,0.96,1.08,2.61,0.62,4.96 c-0.47,2.44-1.39,4.18-2.74,5.22c-1.35,1.04-3.42,1.56-6.18,1.56h-4.17l2.56-13.19H36.59L36.59,22.21z M19.87,48.74h6.86l1.63-8.38 h5.88c2.59,0,4.73-0.27,6.4-0.82c1.68-0.54,3.2-1.46,4.57-2.74c1.15-1.06,2.08-2.22,2.79-3.5c0.71-1.27,1.22-2.68,1.52-4.22 c0.73-3.73,0.18-6.64-1.64-8.73c-1.82-2.08-4.72-3.13-8.69-3.13h-13.2L19.87,48.74L19.87,48.74z M73.43,48.74h6.86l1.63-8.38h5.88 c2.59,0,4.73-0.27,6.4-0.82c1.68-0.54,3.2-1.46,4.57-2.74c1.15-1.06,2.08-2.22,2.79-3.5c0.71-1.27,1.22-2.68,1.52-4.22 c0.73-3.73,0.18-6.64-1.64-8.73c-1.82-2.08-4.72-3.13-8.69-3.13h-13.2L73.43,48.74L73.43,48.74z"/></g></svg>