<svg xmlns="http://www.w3.org/2000/svg" viewBox="0 0 333333 332409" xmlns:xlink="http://www.w3.org/1999/xlink" shape-rendering="geometricPrecision" text-rendering="geometricPrecision" image-rendering="optimizeQuality" fill-rule="evenodd" clip-rule="evenodd"><defs><linearGradient id="h" gradientUnits="userSpaceOnUse" x1="7071.65" y1="170259" x2="16701.2" y2="266676"><stop offset="0" stop-color="#fff"/><stop offset="0" stop-color="#fff"/><stop offset=".31" stop-color="#de4024"/><stop offset=".988" stop-color="#bf190b"/><stop offset="1" stop-color="#bf190b"/></linearGradient><linearGradient id="p" gradientUnits="userSpaceOnUse" x1="229084" y1="283.071" x2="330328" y2="44973.6"><stop offset="0" stop-color="#b31000"/><stop offset="0" stop-color="#b31000"/><stop offset=".439" stop-color="#910f08"/><stop offset=".988" stop-color="#791c12"/><stop offset="1" stop-color="#791c12"/></linearGradient><linearGradient id="i" gradientUnits="userSpaceOnUse" x1="-2119.29" y1="232219" x2="232152" y2="-8677.95"><stop offset="0" stop-color="#bd0012"/><stop offset="0" stop-color="#bd0012"/><stop offset=".071" stop-color="#fff"/><stop offset=".169" stop-color="#fff"/><stop offset=".271" stop-color="#c82f1c"/><stop offset=".329" stop-color="#820c01"/><stop offset=".459" stop-color="#a31601"/><stop offset=".722" stop-color="#b31301"/><stop offset=".988" stop-color="#e82609"/><stop offset="1" stop-color="#e82609"/></linearGradient><linearGradient id="l" gradientUnits="userSpaceOnUse" x1="338234" y1="111472" x2="232299" y2="-1778.74"><stop offset="0" stop-color="#79130d"/><stop offset="0" stop-color="#79130d"/><stop offset=".988" stop-color="#9e120b"/><stop offset="1" stop-color="#9e120b"/></linearGradient><linearGradient id="e" gradientUnits="userSpaceOnUse" x1="163085" y1="105566" x2="170920" y2="246594"><stop offset="0" stop-color="#fff"/><stop offset="0" stop-color="#fff"/><stop offset=".231" stop-color="#e4714e"/><stop offset=".561" stop-color="#be1a0d"/><stop offset=".988" stop-color="#a80d00"/><stop offset="1" stop-color="#a80d00"/></linearGradient><linearGradient id="g" gradientUnits="userSpaceOnUse" x1="192204" y1="37586.2" x2="275485" y2="-4054.72"><stop offset="0" stop-color="#fff"/><stop offset="0" stop-color="#fff"/><stop offset=".541" stop-color="#c81f11"/><stop offset=".988" stop-color="#bf0905"/><stop offset="1" stop-color="#bf0905"/></linearGradient><linearGradient id="o" gradientUnits="userSpaceOnUse" x1="57570.9" y1="331724" x2="25269.7" y2="222137"><stop offset="0" stop-color="#8b2114"/><stop offset="0" stop-color="#8b2114"/><stop offset=".431" stop-color="#9e100a"/><stop offset=".988" stop-color="#b3100c"/><stop offset="1" stop-color="#b3100c"/></linearGradient><linearGradient id="k" gradientUnits="userSpaceOnUse" x1="329979" y1="235589" x2="198630" y2="117866"><stop offset="0" stop-color="#7e110b"/><stop offset="0" stop-color="#7e110b"/><stop offset=".988" stop-color="#9e0c00"/><stop offset="1" stop-color="#9e0c00"/></linearGradient><linearGradient id="d" gradientUnits="userSpaceOnUse" x1="55192.9" y1="204299" x2="74990.2" y2="332958"><stop offset="0" stop-color="#fff"/><stop offset="0" stop-color="#fff"/><stop offset=".231" stop-color="#e57252"/><stop offset=".459" stop-color="#de3b20"/><stop offset=".988" stop-color="#a60003"/><stop offset="1" stop-color="#a60003"/></linearGradient><linearGradient id="j" gradientUnits="userSpaceOnUse" x1="237761" y1="289526" x2="66382.3" y2="247227"><stop offset="0" stop-color="#8c0c01"/><stop offset="0" stop-color="#8c0c01"/><stop offset=".541" stop-color="#990c00"/><stop offset=".988" stop-color="#a80d0e"/><stop offset="1" stop-color="#a80d0e"/></linearGradient><linearGradient id="b" gradientUnits="userSpaceOnUse" x1="280817" y1="341377" x2="120451" y2="58242.9"><stop offset="0" stop-color="#fb7655"/><stop offset="0" stop-color="#fb7655"/><stop offset=".412" stop-color="#e42b1e"/><stop offset=".988" stop-color="#900"/><stop offset="1" stop-color="#900"/></linearGradient><linearGradient id="f" gradientUnits="userSpaceOnUse" x1="252884" y1="26798" x2="274244" y2="118849"><stop offset="0" stop-color="#fff"/><stop offset="0" stop-color="#fff"/><stop offset=".18" stop-color="#e46342"/><stop offset=".4" stop-color="#c82410"/><stop offset=".988" stop-color="#a80d00"/><stop offset="1" stop-color="#a80d00"/></linearGradient><linearGradient id="a" gradientUnits="userSpaceOnUse" x1="266981" y1="368095" x2="116823" y2="267330"><stop offset="0" stop-color="#871101"/><stop offset="0" stop-color="#871101"/><stop offset=".988" stop-color="#911209"/><stop offset="1" stop-color="#911209"/></linearGradient><linearGradient id="c" gradientUnits="userSpaceOnUse" xlink:href="#a" x1="325352" y1="275997" x2="225296" y2="208853"/><radialGradient id="m" gradientUnits="userSpaceOnUse" cx="241981" cy="134492" r="47248" fx="241981" fy="134492"><stop offset="0" stop-color="#a80d00"/><stop offset="0" stop-color="#a80d00"/><stop offset=".988" stop-color="#7e0e08"/><stop offset="1" stop-color="#7e0e08"/></radialGradient><radialGradient id="n" gradientUnits="userSpaceOnUse" cx="125226" cy="245350" r="48389.8" fx="125226" fy="245350"><stop offset="0" stop-color="#a30c00"/><stop offset="0" stop-color="#a30c00"/><stop offset=".988" stop-color="#800e08"/><stop offset="1" stop-color="#800e08"/></radialGradient></defs><path d="M67935 332408l246420-16722 18978-248474-75085 152190L67935 332408z" fill="url(#b)"/><path d="M235889 245513l78870 70004-21181-146183-57690 76180z" fill="url(#c)"/><path d="M68759 332089l246286-16572-155167-12181-91119 28753z" fill="url(#a)"/><path d="M22443 223372l46535 108750 38762-126987-85297 18237z" fill="url(#d)"/><path d="M98133 201905l137738 44028-35666-139706-102072 95678z" fill="url(#e)"/><path d="M201887 116254l123353-8059-96486-78803-26867 86862z" fill="url(#f)"/><path d="M187570 875l92549 420-56747 31361L187570 875z" fill="url(#g)"/><path d="M4541 170966L0 265971l23772-43356-19231-51649z" fill="url(#h)"/><path d="M3263 169333l19348 54880 84069-18859 95981-89201 27087-86038L187099 0l-72511 27137C91740 48387 47409 90429 45812 91220c-1581 807-29274 53146-42548 78113z" fill="#fff"/><path d="M71198 70745c49513-49092 113343-78097 137839-53382 24478 24715-1481 84776-50994 133851-49513 49076-112552 79679-137031 54964-24496-24697 672-86357 50186-135433z" fill="url(#i)"/><path d="M68978 332072l38459-127391 127728 41033c-46182 43305-97545 79914-166187 86357z" fill="url(#j)"/><path d="M202830 115901l32789 129880c38578-40562 73202-84170 90159-138107l-122948 8227z" fill="url(#k)"/><path d="M325443 108330c13122-39604 16150-96419-45728-106967l-50775 28045 96503 78922z" fill="url(#l)"/><path d="M0 265398c1816 65361 48974 66337 69062 66909L22662 223944 1 265398z" fill="#a00308"/><path d="M203015 116103c29643 18219 89386 54811 90597 55485 1884 1059 25757-40260 31175-63612l-121772 8126z" fill="url(#m)"/><path d="M107387 204681l51414 99194c30402-16488 54207-36575 76011-58094l-127425-41100z" fill="url(#n)"/><path d="M22459 224078l-7284 86745c13745 18776 32655 20407 52491 18944-14350-35717-43019-107135-45206-105689z" fill="url(#o)"/><path d="M228637 29627l102138 14334c-5451-23099-22191-38005-50724-42665l-51414 28331z" fill="url(#p)"/></svg>