
<svg xmlns="http://www.w3.org/2000/svg" width="300" height="200">
    <path fill="#fff" d="M0 0h300v200H0z"/>
    <path style="line-height:1.25;-inkscape-font-specification:'Heebo Bold';text-align:start" d="M108.499 125.926q-4.5-.96-4.5-3.879 0-1.078.61-1.98.62-.903 1.78-1.442 1.16-.539 2.708-.539 1.628 0 2.847.527 1.219.516 1.875 1.453.656.926.656 2.122h-3.539q0-.762-.457-1.184-.457-.434-1.394-.434-.774 0-1.242.364-.457.363-.457.937 0 .551.515.89.528.34 1.781.575 1.5.281 2.543.738 1.043.446 1.653 1.242.62.797.62 2.028 0 1.113-.667 2.004-.656.879-1.887 1.383-1.219.503-2.836.503-1.71 0-2.965-.62-1.242-.633-1.898-1.618-.645-.984-.645-2.05h3.34q.036.913.657 1.359.62.433 1.593.433.903 0 1.383-.34.492-.35.492-.937 0-.363-.222-.61-.211-.257-.774-.48-.55-.222-1.57-.445zm19.384-7.606l-5.086 14.579q-.293.832-.726 1.523-.434.703-1.266 1.195-.832.504-2.098.504-.457 0-.75-.048-.28-.046-.785-.176v-2.672q.176.02.528.02.949 0 1.418-.293.468-.293.714-.96l.352-.927-4.43-12.738h3.797l2.262 7.688 2.285-7.688zm5.885 7.606q-4.5-.96-4.5-3.879 0-1.078.61-1.98.62-.903 1.78-1.442 1.16-.539 2.707-.539 1.63 0 2.848.527 1.219.516 1.875 1.453.656.926.656 2.122h-3.539q0-.762-.457-1.184-.457-.434-1.394-.434-.774 0-1.242.364-.457.363-.457.937 0 .551.515.89.527.34 1.781.575 1.5.281 2.543.738 1.043.446 1.653 1.242.62.797.62 2.028 0 1.113-.667 2.004-.656.879-1.887 1.383-1.219.503-2.836.503-1.71 0-2.965-.62-1.242-.633-1.898-1.618-.645-.984-.645-2.05h3.34q.036.913.656 1.359.622.433 1.594.433.903 0 1.383-.34.492-.35.492-.937 0-.363-.222-.61-.211-.257-.774-.48-.55-.222-1.57-.445zm13.982 2.402q.574 0 .984-.082v2.66q-.914.328-2.086.328-3.726 0-3.726-3.796v-6.54h-1.793v-2.578h1.793v-3.14h3.539v3.14h2.133v2.579h-2.133v6.128q0 .75.293 1.032.293.27.996.27zm14.228-2.519h-8.016q.2 1.183.985 1.886.785.692 2.015.692.914 0 1.688-.34.785-.352 1.336-1.043l1.7 1.957q-.669.961-1.958 1.617-1.277.656-3 .656-1.945 0-3.387-.82-1.43-.82-2.203-2.226-.762-1.407-.762-3.106v-.445q0-1.899.715-3.387t2.063-2.32q1.347-.844 3.187-.844 1.793 0 3.059.762 1.265.761 1.922 2.168.656 1.394.656 3.293zm-3.469-2.649q-.024-1.03-.574-1.629-.539-.597-1.617-.597-1.008 0-1.582.668-.563.668-.739 1.84h4.512zm19.924-5.074q1.933 0 2.988 1.148 1.055 1.149 1.055 3.727v8.04h-3.54v-8.052q0-.797-.21-1.23-.211-.445-.61-.61-.386-.164-.984-.164-.715 0-1.219.352-.504.34-.797.973.02.082.02.27V131h-3.539v-8.016q0-.796-.21-1.242-.212-.445-.61-.62-.387-.177-.996-.177-.68 0-1.184.305-.492.293-.797.844V131h-3.539v-12.68h3.317l.118 1.418q.632-.797 1.546-1.219.926-.433 2.087-.433 1.171 0 2.015.48.856.469 1.313 1.442.633-.926 1.582-1.418.96-.504 2.203-.504zM196.4 113v18h-3.188l-.176-1.36q-1.242 1.594-3.211 1.594-1.535 0-2.66-.82-1.114-.832-1.7-2.285-.574-1.453-.574-3.316v-.247q0-1.933.574-3.398.586-1.465 1.7-2.273 1.125-.809 2.683-.809 1.805 0 3.012 1.371V113zm-5.673 15.375q1.489 0 2.133-1.266v-4.898q-.61-1.266-2.11-1.266-1.206 0-1.769.985-.55.984-.55 2.636v.247q0 1.628.539 2.601.55.961 1.757.961z" font-weight="700" font-size="12" font-family="Heebo" letter-spacing=".2" word-spacing="0" fill="#201a26"/>
    <g transform="translate(119 -844.61)">
        <path style="line-height:normal;font-variant-ligatures:normal;font-variant-position:normal;font-variant-caps:normal;font-variant-numeric:normal;font-variant-alternates:normal;font-feature-settings:normal;text-indent:0;text-align:start;text-decoration-line:none;text-decoration-style:solid;text-decoration-color:#000;text-transform:none;text-orientation:mixed;white-space:normal;shape-padding:0;isolation:auto;mix-blend-mode:normal;solid-color:#000;solid-opacity:1" d="M-12 917.61v26h10v-4h-6v-18h6v-4zm76 0v4h6v18h-6v4h10v-26z" color="#000" font-weight="400" font-family="sans-serif" overflow="visible" fill="#201a26"/>
        <path d="M33 930.61l18-10v20z" fill="#30d475"/>
        <circle r="9" cy="930.611" cx="18.001" fill="#30d475"/>
    </g>
</svg>
