<svg width="138" height="53" viewBox="0 0 138 53" fill="none" xmlns="http://www.w3.org/2000/svg">
<path fill-rule="evenodd" clip-rule="evenodd" d="M60.3517 25.7951H62.5241C63.1999 25.7951 63.7228 25.6033 64.0929 25.2193C64.463 24.8354 64.6481 24.2598 64.6481 23.4919V23.2972C64.6481 22.5296 64.463 21.9539 64.0929 21.5699C63.7228 21.1861 63.1999 20.9941 62.5241 20.9941H60.3517V25.7951ZM59 31.1313V20.2316C59 20.102 59.0508 19.9911 59.1528 19.8992C59.2548 19.8073 59.3861 19.7612 59.5471 19.7612H62.5885C63.6183 19.7612 64.4443 20.0424 65.0666 20.6047C65.6886 21.1672 66 22.0539 66 23.2648V23.4106C66 24.6219 65.6832 25.5112 65.0505 26.0789C64.4175 26.6465 63.5754 26.9304 62.5241 26.9304H60.3517V31.1313C60.3517 31.2831 60.2846 31.4018 60.1506 31.4881C60.0163 31.575 59.8582 31.618 59.6759 31.618C59.4934 31.618 59.3351 31.575 59.2012 31.4881C59.0669 31.4018 59 31.2831 59 31.1313Z" fill="white"/>
<path fill-rule="evenodd" clip-rule="evenodd" d="M71.3643 28.1107C71.3643 29.634 72.0733 30.3953 73.4918 30.3953C74.174 30.3953 74.7017 30.205 75.0753 29.8243C75.4488 29.4437 75.6356 28.8727 75.6356 28.1107V23.2683C75.6356 22.5069 75.4488 21.9359 75.0753 21.555C74.7017 21.1743 74.174 20.9839 73.4918 20.9839C72.0733 20.9839 71.3643 21.7456 71.3643 23.2683V28.1107ZM70 28.1108V23.2684C70 22.0567 70.3168 21.1691 70.9502 20.6058C71.5835 20.0426 72.4305 19.7612 73.4919 19.7612C74.5528 19.7612 75.4027 20.0426 76.0418 20.6058C76.6804 21.1691 77 22.0567 77 23.2684V28.1108C77 29.3231 76.6804 30.2103 76.0418 30.7736C75.4027 31.3365 74.5528 31.618 73.4919 31.618C72.4305 31.618 71.5835 31.3365 70.9502 30.7736C70.3168 30.2103 70 29.3231 70 28.1108Z" fill="white"/>
<path fill-rule="evenodd" clip-rule="evenodd" d="M82 29.8419C82 29.6714 82.0622 29.5059 82.1868 29.3457C82.3111 29.1858 82.4492 29.1056 82.6009 29.1056C82.6983 29.1056 82.8228 29.1725 82.9746 29.3058C83.126 29.4394 83.283 29.5885 83.4455 29.7537C83.6079 29.9194 83.8622 30.0685 84.2087 30.2019C84.5552 30.3355 84.9451 30.4017 85.3782 30.4017C86.082 30.4017 86.6341 30.2337 87.0349 29.8978C87.4353 29.5619 87.6358 29.0685 87.6358 28.4176C87.6358 27.8311 87.4515 27.3536 87.0835 26.9855C86.7154 26.6178 86.2714 26.3375 85.7518 26.1457C85.2321 25.9536 84.7096 25.7482 84.1844 25.5296C83.6592 25.3111 83.2125 24.9749 82.8446 24.5215C82.4762 24.0683 82.2923 23.4843 82.2923 22.7694C82.2923 22.2087 82.4005 21.7209 82.6171 21.3057C82.8335 20.8907 83.1232 20.5781 83.486 20.3677C83.8487 20.1573 84.2251 20.0038 84.6149 19.9067C85.0046 19.8097 85.4213 19.7612 85.8655 19.7612C86.5368 19.7612 87.1782 19.8572 87.7901 20.0487C88.4016 20.2404 88.7077 20.5063 88.7077 20.8458C88.7077 20.9958 88.6534 21.1565 88.5453 21.3281C88.4369 21.4994 88.2961 21.5853 88.1231 21.5853C88.0796 21.5853 87.8306 21.4842 87.376 21.2812C86.9212 21.0786 86.4177 20.9772 85.8655 20.9772C85.2049 20.9772 84.6718 21.1109 84.2656 21.3772C83.8596 21.6441 83.6566 22.0654 83.6566 22.6414C83.6566 23.1322 83.8407 23.5294 84.2087 23.8335C84.5768 24.1375 85.0234 24.3801 85.5489 24.5613C86.0737 24.7429 86.5964 24.9511 87.116 25.1856C87.6358 25.4204 88.0796 25.7962 88.4479 26.3136C88.8159 26.8311 89 27.4898 89 28.2897C89 29.3887 88.6752 30.218 88.0255 30.7781C87.376 31.338 86.5151 31.618 85.4431 31.618C84.4793 31.618 83.6648 31.419 82.9989 31.0206C82.333 30.6227 82 30.2297 82 29.8419Z" fill="white"/>
<path fill-rule="evenodd" clip-rule="evenodd" d="M93 20.3618C93 20.2037 93.0399 20.064 93.1199 19.943C93.1998 19.8218 93.3097 19.7612 93.4497 19.7612H99.5503C99.69 19.7612 99.8001 19.8218 99.88 19.943C99.9601 20.064 100 20.2037 100 20.3618C100 20.5304 99.9601 20.6779 99.88 20.8044C99.8001 20.9308 99.69 20.9941 99.5503 20.9941H97.1369V31.13C97.1369 31.282 97.0744 31.4014 96.9496 31.4879C96.8245 31.5747 96.6772 31.618 96.5074 31.618C96.3374 31.618 96.1901 31.5747 96.0652 31.4879C95.9402 31.4014 95.8779 31.282 95.8779 31.13V20.9941H93.4497C93.3097 20.9941 93.1998 20.9334 93.1199 20.8122C93.0399 20.6912 93 20.5411 93 20.3618Z" fill="white"/>
<path fill-rule="evenodd" clip-rule="evenodd" d="M105 31.1313V20.4263C105 19.9829 105.21 19.7612 105.63 19.7612C106.03 19.7612 106.366 20.0478 106.636 20.6209L108.993 25.503L111.364 20.6209C111.654 20.0478 111.989 19.7612 112.37 19.7612C112.79 19.7612 113 19.9829 113 20.4263V31.1313C113 31.2831 112.937 31.4018 112.812 31.4881C112.687 31.575 112.54 31.618 112.37 31.618C112.199 31.618 112.052 31.575 111.927 31.4881C111.802 31.4018 111.739 31.2831 111.739 31.1313V22.6161L109.473 27.2222C109.353 27.4711 109.188 27.5954 108.977 27.5954C108.787 27.5954 108.632 27.4711 108.512 27.2222L106.261 22.5512V31.1313C106.261 31.2831 106.198 31.4018 106.073 31.4881C105.948 31.575 105.8 31.618 105.63 31.618C105.46 31.618 105.313 31.575 105.187 31.4881C105.062 31.4018 105 31.2831 105 31.1313Z" fill="white"/>
<path fill-rule="evenodd" clip-rule="evenodd" d="M120.256 27.8051H123.722L121.994 21.7446L120.256 27.8051ZM118 31.0547C118 31.0336 118.01 30.9907 118.031 30.9263L121.21 20.2307C121.302 19.9178 121.566 19.7612 122.002 19.7612C122.438 19.7612 122.703 19.9189 122.794 20.234L125.984 30.9687C125.984 30.9887 125.987 31.0088 125.992 31.0291C125.997 31.0492 126 31.0643 126 31.0743C126 31.2154 125.914 31.3412 125.744 31.452C125.573 31.5628 125.389 31.618 125.192 31.618C124.944 31.618 124.788 31.5166 124.726 31.314L124.043 28.9312H119.932L119.251 31.3056C119.19 31.5141 119.033 31.618 118.778 31.618C118.595 31.618 118.42 31.5645 118.252 31.4572C118.084 31.3499 118 31.2159 118 31.0547Z" fill="white"/>
<path fill-rule="evenodd" clip-rule="evenodd" d="M131 31.1313V20.2316C131 19.9183 131.223 19.7612 131.67 19.7612C131.893 19.7612 132.081 19.8289 132.236 19.9641C132.39 20.0994 132.541 20.3184 132.69 20.6209L136.66 28.52V20.2316C136.66 20.0803 136.727 19.9641 136.86 19.8829C136.993 19.802 137.149 19.7612 137.33 19.7612C137.511 19.7612 137.667 19.802 137.801 19.8829C137.933 19.9641 138 20.0803 138 20.2316V31.1313C138 31.2831 137.933 31.4018 137.801 31.4881C137.667 31.575 137.511 31.618 137.33 31.618C136.99 31.618 136.708 31.4125 136.485 31.0015L132.339 22.8431V31.1313C132.339 31.2831 132.273 31.4018 132.14 31.4881C132.007 31.575 131.85 31.618 131.67 31.618C131.489 31.618 131.332 31.575 131.199 31.4881C131.066 31.4018 131 31.2831 131 31.1313Z" fill="white"/>
<path fill-rule="evenodd" clip-rule="evenodd" d="M10.1061 5.42576C-1.25754 14.204 -3.35379 30.532 5.42608 41.8956C14.2027 53.2576 30.5291 55.3555 41.8927 46.5756C53.258 37.799 55.3526 21.4694 46.5743 10.1074C37.7961 -1.25786 21.4697 -3.35249 10.1061 5.42576Z" fill="#FF6C37"/>
<path fill-rule="evenodd" clip-rule="evenodd" d="M34.7677 16.1932L23.8039 27.1571L20.6985 24.0501C31.4901 13.2568 32.5626 14.2123 34.7677 16.1932Z" fill="white"/>
<path fill-rule="evenodd" clip-rule="evenodd" d="M21.2504 24.0509L23.8032 26.6054L34.2 16.2103C33.2884 15.4124 32.6124 15.0029 31.1141 15.687C29.2405 16.5401 26.192 19.1239 21.2504 24.0509ZM23.8032 27.5463C23.7008 27.5463 23.6017 27.5057 23.5269 27.4326L20.4216 24.3256C20.2688 24.1744 20.2688 23.9274 20.4216 23.7747C31.0556 13.1407 32.5034 13.6363 35.0287 15.9032C35.1067 15.9747 35.1554 16.0754 35.1571 16.1827C35.1603 16.2899 35.1181 16.3939 35.0417 16.4687L24.0794 27.4326C24.0063 27.5057 23.9072 27.5463 23.8032 27.5463Z" fill="#FF6C37"/>
<path fill-rule="evenodd" clip-rule="evenodd" d="M26.9458 30.2977C26.9409 30.2928 23.9509 27.3028 23.9509 27.3028L34.9132 16.3406C37.8658 19.2932 33.4881 24.1081 26.9458 30.2977Z" fill="white"/>
<path fill-rule="evenodd" clip-rule="evenodd" d="M24.502 27.3031C25.9547 28.7558 26.634 29.4335 26.9525 29.7536C31.2782 25.6521 35.4236 21.4417 35.4626 18.5752C35.4707 17.9496 35.2871 17.4003 34.8971 16.908L24.502 27.3031ZM26.9459 30.6879C26.9378 30.6879 26.9297 30.6879 26.9232 30.6879C26.8257 30.6814 26.733 30.6391 26.6648 30.5693C26.5819 30.4848 23.6748 27.5793 23.6748 27.5793C23.6017 27.5061 23.561 27.407 23.561 27.303C23.561 27.2006 23.6017 27.0999 23.6748 27.0268L34.637 16.0645C34.7833 15.9183 35.0433 15.9183 35.1895 16.0645C35.9029 16.7763 36.2555 17.6245 36.2425 18.5865C36.2019 21.5131 32.9015 25.2019 27.214 30.5806C27.1409 30.6505 27.0434 30.6879 26.9459 30.6879Z" fill="#FF6C37"/>
<path fill-rule="evenodd" clip-rule="evenodd" d="M20.7728 24.1262L22.9844 26.3362C23.0429 26.3963 23.0137 26.4987 22.9308 26.5165L18.3694 27.4997C17.9502 27.589 17.6707 27.0772 17.9729 26.7749L20.6217 24.1262C20.6655 24.0839 20.7322 24.0839 20.7728 24.1262Z" fill="white"/>
<path fill-rule="evenodd" clip-rule="evenodd" d="M20.8997 24.4006L20.8981 24.4023C20.8981 24.4006 20.8981 24.4006 20.8997 24.4006ZM20.6982 24.6021L18.2493 27.0509C18.2396 27.0607 18.2282 27.0721 18.2412 27.0981C18.2574 27.1241 18.2737 27.1208 18.2867 27.1176L22.3411 26.2449L20.6982 24.6021ZM18.2737 27.8993C17.9779 27.8993 17.7033 27.74 17.5571 27.4703C17.3816 27.1485 17.4384 26.7585 17.6968 26.5002L20.3456 23.8498C20.5324 23.6629 20.8623 23.6613 21.0492 23.8514L23.2608 26.0614C23.3892 26.1914 23.4379 26.3799 23.3843 26.5538C23.3339 26.7277 23.1909 26.8593 23.0138 26.8983L18.4492 27.8798C18.3907 27.8928 18.3322 27.8993 18.2737 27.8993Z" fill="#FF6C37"/>
<path fill-rule="evenodd" clip-rule="evenodd" d="M40.5806 10.1066C38.9313 8.52382 36.315 8.54169 34.6916 10.1651C33.0471 11.8079 33.0471 14.4729 34.6916 16.1174C36.0875 17.5149 38.2195 17.7197 39.838 16.7414L36.8903 13.7953L40.5806 10.1066Z" fill="white"/>
<path fill-rule="evenodd" clip-rule="evenodd" d="M37.6654 9.33057C36.6839 9.33057 35.7057 9.70107 34.9663 10.4404C34.2464 11.1603 33.8467 12.1207 33.8467 13.1412C33.8467 14.1601 34.2464 15.1204 34.9663 15.8419C36.0876 16.9632 37.7629 17.2622 39.1864 16.6414L36.6157 14.0707C36.5426 13.9976 36.5019 13.8984 36.5019 13.7961C36.5019 13.6921 36.5426 13.5929 36.6157 13.5198L40.0071 10.1268C39.3246 9.59707 38.4942 9.33057 37.6654 9.33057ZM37.6622 17.74C36.476 17.74 35.3027 17.2801 34.4155 16.3929C33.5461 15.5251 33.0684 14.3698 33.0684 13.1413C33.0684 11.9128 33.5461 10.7574 34.4155 9.88801C36.1705 8.13138 39.0581 8.10376 40.8505 9.82626C40.9269 9.89776 40.9691 9.99851 40.9707 10.1041C40.9707 10.2081 40.9301 10.3089 40.857 10.382L37.4429 13.7961L40.1144 16.466C40.2005 16.5505 40.2395 16.6708 40.2249 16.7894C40.2102 16.908 40.142 17.0153 40.0396 17.077C39.3002 17.5223 38.478 17.74 37.6622 17.74Z" fill="#FF6C37"/>
<path fill-rule="evenodd" clip-rule="evenodd" d="M40.644 10.1647C40.6229 10.1436 40.6018 10.1273 40.5806 10.1062L36.8903 13.795L39.838 16.7427C40.1256 16.5688 40.397 16.3641 40.644 16.1171C42.2885 14.4726 42.2885 11.8076 40.644 10.1647Z" fill="white"/>
<path fill-rule="evenodd" clip-rule="evenodd" d="M37.4434 13.7954L39.8906 16.2427C40.0645 16.1192 40.2254 15.9843 40.3684 15.8413C41.0899 15.1198 41.4864 14.1611 41.4864 13.1406C41.4864 12.2224 41.1646 11.3547 40.5747 10.6641L37.4434 13.7954ZM39.8386 17.1315C39.7378 17.1315 39.6387 17.0925 39.5639 17.0178L36.6162 14.0717C36.5414 13.9985 36.5024 13.8978 36.5024 13.7954C36.5024 13.693 36.5414 13.5923 36.6162 13.5192L40.3049 9.83204C40.4544 9.68091 40.6966 9.67929 40.8493 9.82391C40.8818 9.85316 40.9013 9.86941 40.9208 9.88891C41.7886 10.7567 42.2679 11.912 42.2679 13.1405C42.2679 14.369 41.7886 15.5244 40.9208 16.3938C40.6641 16.6473 40.3683 16.878 40.0401 17.0763C39.9783 17.1137 39.9084 17.1315 39.8386 17.1315Z" fill="#FF6C37"/>
<path fill-rule="evenodd" clip-rule="evenodd" d="M35.2184 16.6448C34.5928 16.0191 33.5788 16.0191 32.9532 16.6448L23.1479 26.45L24.7794 28.0815L35.1421 18.9799C35.8376 18.3689 35.8717 17.298 35.2184 16.6448Z" fill="white"/>
<path fill-rule="evenodd" clip-rule="evenodd" d="M23.7007 26.4502L24.7976 27.5471L34.8856 18.686C35.1391 18.4633 35.2853 18.1546 35.2967 17.8166C35.3081 17.4786 35.1813 17.1601 34.9424 16.9196C34.4712 16.4483 33.7026 16.4483 33.2297 16.9196L23.7007 26.4502ZM24.7796 28.4717C24.6805 28.4717 24.5798 28.4343 24.5034 28.3579L22.8719 26.7264C22.7191 26.5737 22.7191 26.3267 22.8719 26.1756L32.6788 16.3687C33.4555 15.5919 34.7181 15.5919 35.4949 16.3687C35.8816 16.7571 36.0945 17.2933 36.075 17.8409C36.0571 18.3886 35.8118 18.9102 35.399 19.2726L25.0364 28.3758C24.9633 28.4392 24.8723 28.4717 24.7796 28.4717Z" fill="#FF6C37"/>
<path fill-rule="evenodd" clip-rule="evenodd" d="M15.6296 37.5945C15.5337 37.6432 15.4833 37.7521 15.5093 37.8577L15.9481 39.733C16.0699 40.2546 15.4329 40.6089 15.0543 40.2319L12.2106 37.3881L21.5429 28.0574L24.7539 28.1077L26.9444 30.2982C26.4017 30.7516 23.2589 33.7692 15.6296 37.5945Z" fill="white"/>
<path fill-rule="evenodd" clip-rule="evenodd" d="M12.7617 37.3879L15.3292 39.9554C15.3926 40.0171 15.456 40.0025 15.4998 39.9781C15.5421 39.9554 15.5876 39.9082 15.5681 39.8237L15.1277 37.9469C15.0627 37.6674 15.1943 37.3797 15.4495 37.2481L15.4543 37.2449C19.9978 34.9666 23.672 32.6234 26.3727 30.2769L24.5901 28.4942L21.7008 28.4487L12.7617 37.3879ZM15.4283 40.7792C15.1911 40.7792 14.9571 40.6849 14.7783 40.5078L11.9346 37.664C11.8614 37.5909 11.8208 37.4918 11.8208 37.3878C11.8208 37.2854 11.8614 37.1847 11.9346 37.1115L21.2669 27.7808C21.3401 27.706 21.4376 27.6654 21.5481 27.667L24.7607 27.7174C24.8614 27.719 24.9589 27.7597 25.0304 27.8312L27.2209 30.0217C27.2973 30.0997 27.3396 30.2053 27.3347 30.3158C27.3298 30.423 27.2794 30.5254 27.1949 30.5969C27.1527 30.6327 27.0926 30.6863 27.0146 30.7545C24.2716 33.1612 20.5389 35.5613 15.9158 37.8867L16.3286 39.6449C16.4228 40.0495 16.2424 40.4574 15.8784 40.6605C15.7354 40.7402 15.5827 40.7792 15.4283 40.7792Z" fill="#FF6C37"/>
<path fill-rule="evenodd" clip-rule="evenodd" d="M9.97683 39.6216L12.2112 37.3872L15.5327 40.7087L10.2271 40.3447C9.87608 40.3025 9.72658 39.8718 9.97683 39.6216Z" fill="white"/>
<path fill-rule="evenodd" clip-rule="evenodd" d="M10.2532 39.8968C10.2467 39.9033 10.2369 39.9131 10.245 39.9342C10.2515 39.9553 10.2662 39.957 10.2743 39.9586L14.5204 40.2495L12.2113 37.9387L10.2532 39.8968ZM15.5327 41.0994C15.523 41.0994 15.5149 41.0994 15.5051 41.0978L10.2011 40.7338C9.86962 40.6948 9.60962 40.4868 9.50725 40.1894C9.40487 39.892 9.478 39.5686 9.70062 39.346L11.935 37.1116C12.0877 36.9589 12.3347 36.9589 12.4875 37.1116L15.809 40.4331C15.9227 40.5485 15.9552 40.7224 15.8886 40.8719C15.8252 41.0116 15.6855 41.0994 15.5327 41.0994Z" fill="#FF6C37"/>
<path fill-rule="evenodd" clip-rule="evenodd" d="M24.9702 28.3221L20.5973 29.0013L23.1225 26.4761L24.9702 28.3221Z" fill="white"/>
<path fill-rule="evenodd" clip-rule="evenodd" d="M23.123 27.0271L21.7174 28.4327L24.1517 28.0541L23.123 27.0271ZM20.5962 29.3931C20.4499 29.3931 20.315 29.3119 20.2484 29.1786C20.1737 29.0275 20.2013 28.8455 20.3199 28.7269L22.8468 26.2C22.9995 26.0473 23.2465 26.0473 23.3993 26.2L25.2453 28.046C25.3493 28.15 25.3867 28.3044 25.3395 28.4441C25.294 28.5839 25.1754 28.6846 25.0292 28.7074L20.6563 29.3883C20.6368 29.3915 20.6157 29.3931 20.5962 29.3931Z" fill="#FF6C37"/>
<path fill-rule="evenodd" clip-rule="evenodd" d="M24.9701 28.3221L21.9037 28.7202C21.5202 28.8031 21.2651 28.3351 21.5429 28.0572L23.1224 26.4761L24.9701 28.3221Z" fill="white"/>
<path fill-rule="evenodd" clip-rule="evenodd" d="M21.8249 28.3322C21.8346 28.3322 21.846 28.3355 21.8541 28.3338L24.134 28.0365L23.1232 27.0273L21.8184 28.3322H21.8249ZM21.8168 29.1188C21.534 29.1188 21.2724 28.9676 21.1326 28.7093C20.9653 28.4021 21.0189 28.0284 21.2659 27.7814L22.847 26.2003C22.9998 26.0475 23.2468 26.0475 23.3995 26.2003L25.2439 28.0463C25.3511 28.1519 25.3853 28.3063 25.3381 28.4476C25.291 28.589 25.1675 28.6898 25.0196 28.7093L21.9679 29.1058C21.9175 29.1139 21.8655 29.1188 21.8168 29.1188Z" fill="#FF6C37"/>
<path fill-rule="evenodd" clip-rule="evenodd" d="M40.6711 12.6633C40.5963 12.5154 40.4159 12.4553 40.2664 12.5284C40.1169 12.6032 40.0568 12.7835 40.1316 12.933C40.2924 13.2515 40.2469 13.635 40.0211 13.9113C39.9138 14.038 39.9317 14.2282 40.0601 14.3338C40.1153 14.3809 40.1836 14.4037 40.2518 14.4037C40.3379 14.4037 40.4241 14.3663 40.4842 14.2948C40.8628 13.8365 40.9359 13.1963 40.6711 12.6633Z" fill="#FF6C37"/>
</svg>
