
<svg xmlns="http://www.w3.org/2000/svg" xmlns:xlink="http://www.w3.org/1999/xlink" width="500" zoomAndPan="magnify" viewBox="0 0 375 374.999991" height="500" preserveAspectRatio="xMidYMid meet" version="1.0"><defs><g/></defs><rect x="-37.5" width="450" fill="#ffffff" y="-37.499999" height="449.999989" fill-opacity="1"/><rect x="-37.5" width="450" fill="#000000" y="-37.499999" height="449.999989" fill-opacity="1"/><g fill="#ffffff" fill-opacity="1"><g transform="translate(90.263159, 197.474987)"><g><path d="M 5.703125 -9.484375 C 6.378906 -8.921875 7.085938 -8.414062 7.828125 -7.96875 C 8.566406 -7.53125 9.359375 -7.132812 10.203125 -6.78125 C 11.804688 -6.101562 13.707031 -5.765625 15.90625 -5.765625 C 17.21875 -5.765625 18.363281 -5.894531 19.34375 -6.15625 C 20.332031 -6.414062 21.164062 -6.785156 21.84375 -7.265625 C 23.125 -8.179688 23.765625 -9.398438 23.765625 -10.921875 C 23.765625 -11.035156 23.765625 -11.160156 23.765625 -11.296875 C 23.765625 -11.441406 23.753906 -11.570312 23.734375 -11.6875 C 23.710938 -11.8125 23.691406 -11.941406 23.671875 -12.078125 C 23.648438 -12.222656 23.617188 -12.34375 23.578125 -12.4375 C 23.535156 -12.539062 23.5 -12.65625 23.46875 -12.78125 C 23.300781 -13.257812 22.957031 -13.738281 22.4375 -14.21875 C 21.84375 -14.78125 20.984375 -15.359375 19.859375 -15.953125 C 18.617188 -16.597656 17.039062 -17.300781 15.125 -18.0625 C 12.882812 -18.894531 11.003906 -19.753906 9.484375 -20.640625 C 7.835938 -21.515625 6.5 -22.492188 5.46875 -23.578125 C 5.101562 -23.984375 4.78125 -24.382812 4.5 -24.78125 C 4.21875 -25.175781 3.957031 -25.59375 3.71875 -26.03125 C 3.476562 -26.476562 3.28125 -26.921875 3.125 -27.359375 C 2.6875 -28.722656 2.46875 -30.242188 2.46875 -31.921875 C 2.46875 -33.640625 2.828125 -35.257812 3.546875 -36.78125 C 4.265625 -38.300781 5.320312 -39.617188 6.71875 -40.734375 C 8.082031 -41.816406 9.742188 -42.675781 11.703125 -43.3125 C 13.617188 -43.914062 15.800781 -44.21875 18.25 -44.21875 C 20.84375 -44.21875 23.179688 -43.957031 25.265625 -43.4375 C 27.335938 -42.914062 29.375 -42.175781 31.375 -41.21875 L 32.640625 -40.5625 L 32.109375 -39.234375 L 30 -34.375 L 29.34375 -32.8125 L 27.84375 -33.65625 C 27.445312 -33.9375 27.015625 -34.175781 26.546875 -34.375 C 26.085938 -34.582031 25.597656 -34.785156 25.078125 -34.984375 C 24.554688 -35.179688 24 -35.378906 23.40625 -35.578125 C 21.71875 -36.054688 19.957031 -36.296875 18.125 -36.296875 C 16.925781 -36.296875 15.875 -36.1875 14.96875 -35.96875 C 14.070312 -35.75 13.320312 -35.441406 12.71875 -35.046875 C 12.320312 -34.765625 12.003906 -34.484375 11.765625 -34.203125 C 11.523438 -33.921875 11.351562 -33.617188 11.25 -33.296875 C 11.15625 -32.972656 11.109375 -32.613281 11.109375 -32.21875 C 11.109375 -31.582031 11.1875 -31.039062 11.34375 -30.59375 C 11.457031 -30.195312 11.757812 -29.800781 12.25 -29.40625 C 12.519531 -29.164062 12.851562 -28.914062 13.25 -28.65625 C 13.65625 -28.394531 14.140625 -28.125 14.703125 -27.84375 C 14.984375 -27.71875 15.28125 -27.578125 15.59375 -27.421875 C 15.914062 -27.265625 16.265625 -27.101562 16.640625 -26.9375 C 17.023438 -26.78125 17.4375 -26.617188 17.875 -26.453125 C 18.320312 -26.296875 18.785156 -26.117188 19.265625 -25.921875 C 21.660156 -25.035156 23.679688 -24.113281 25.328125 -23.15625 C 25.679688 -22.957031 26.019531 -22.757812 26.34375 -22.5625 C 26.664062 -22.363281 26.960938 -22.148438 27.234375 -21.921875 C 27.515625 -21.703125 27.796875 -21.484375 28.078125 -21.265625 C 28.359375 -21.046875 28.617188 -20.828125 28.859375 -20.609375 C 29.097656 -20.390625 29.316406 -20.160156 29.515625 -19.921875 C 30.640625 -18.722656 31.441406 -17.421875 31.921875 -16.015625 C 32.398438 -14.660156 32.640625 -13.179688 32.640625 -11.578125 C 32.640625 -9.378906 32.203125 -7.421875 31.328125 -5.703125 C 30.484375 -3.984375 29.300781 -2.519531 27.78125 -1.3125 C 26.300781 -0.113281 24.519531 0.78125 22.4375 1.375 C 20.4375 1.9375 18.257812 2.21875 15.90625 2.21875 C 12.820312 2.21875 10 1.796875 7.4375 0.953125 C 4.882812 0.117188 2.726562 -0.976562 0.96875 -2.34375 L -0.125 -3.1875 L 0.609375 -4.3125 L 3.484375 -9.125 L 4.375 -10.625 Z M 5.703125 -9.484375 "/></g></g></g><g fill="#ffffff" fill-opacity="1"><g transform="translate(124.343124, 197.474987)"><g><path d="M 5.640625 15.421875 C 5.523438 15.421875 5.394531 15.421875 5.25 15.421875 C 5.113281 15.421875 4.984375 15.421875 4.859375 15.421875 C 4.742188 15.421875 4.625 15.410156 4.5 15.390625 C 4.382812 15.367188 4.265625 15.359375 4.140625 15.359375 C 4.023438 15.359375 3.90625 15.347656 3.78125 15.328125 C 3.664062 15.304688 3.546875 15.285156 3.421875 15.265625 C 3.304688 15.242188 3.195312 15.222656 3.09375 15.203125 C 2.988281 15.191406 2.875 15.175781 2.75 15.15625 C 2.632812 15.132812 2.523438 15.113281 2.421875 15.09375 C 2.328125 15.070312 2.222656 15.039062 2.109375 15 C 1.066406 14.71875 0.222656 14.378906 -0.421875 13.984375 L -1.375 13.4375 L -1.078125 12.359375 L 0.125 7.859375 L 0.609375 5.9375 L 2.34375 6.90625 C 2.695312 7.144531 3.15625 7.34375 3.71875 7.5 C 4.320312 7.65625 5.003906 7.734375 5.765625 7.734375 C 6.117188 7.734375 6.445312 7.710938 6.75 7.671875 C 7.050781 7.640625 7.363281 7.5625 7.6875 7.4375 C 7.925781 7.351562 8.179688 7.234375 8.453125 7.078125 C 8.734375 6.921875 9 6.722656 9.25 6.484375 C 9.84375 6.003906 10.398438 5.300781 10.921875 4.375 C 11.484375 3.414062 12.0625 2.195312 12.65625 0.71875 L 13.265625 -0.84375 L 11.578125 -0.84375 L 11.15625 -1.734375 L -1.015625 -29.15625 L -1.625 -30.546875 L -0.234375 -31.140625 L 4.5625 -33.296875 L 5.9375 -33.90625 L 6.546875 -32.515625 L 16.625 -9.953125 L 24.421875 -32.15625 L 24.96875 -33.65625 L 26.40625 -33.0625 L 31.375 -31.140625 L 32.765625 -30.59375 L 32.21875 -29.21875 L 20.765625 2.09375 C 20.597656 2.570312 20.425781 3.039062 20.25 3.5 C 20.070312 3.96875 19.878906 4.421875 19.671875 4.859375 C 19.472656 5.296875 19.273438 5.710938 19.078125 6.109375 C 18.878906 6.515625 18.679688 6.894531 18.484375 7.25 C 18.285156 7.613281 18.082031 7.976562 17.875 8.34375 C 17.363281 9.175781 16.816406 9.941406 16.234375 10.640625 C 15.648438 11.347656 15.039062 11.960938 14.40625 12.484375 C 13.757812 13.035156 13.085938 13.5 12.390625 13.875 C 11.691406 14.257812 10.984375 14.554688 10.265625 14.765625 C 8.828125 15.203125 7.285156 15.421875 5.640625 15.421875 Z M 5.640625 15.421875 "/></g></g></g><g fill="#ffffff" fill-opacity="1"><g transform="translate(155.723097, 197.474987)"><g><path d="M 5.40625 -8.15625 C 6.28125 -7.351562 7.414062 -6.710938 8.8125 -6.234375 C 10.21875 -5.710938 11.738281 -5.453125 13.375 -5.453125 C 15.332031 -5.453125 16.753906 -5.734375 17.640625 -6.296875 C 18.316406 -6.773438 18.65625 -7.316406 18.65625 -7.921875 C 18.65625 -8.316406 18.578125 -8.675781 18.421875 -9 C 18.296875 -9.320312 18.054688 -9.640625 17.703125 -9.953125 C 17.222656 -10.359375 16.539062 -10.757812 15.65625 -11.15625 C 15.414062 -11.238281 15.15625 -11.335938 14.875 -11.453125 C 14.59375 -11.578125 14.289062 -11.695312 13.96875 -11.8125 C 13.65625 -11.9375 13.328125 -12.066406 12.984375 -12.203125 C 12.648438 -12.347656 12.28125 -12.476562 11.875 -12.59375 C 10.832031 -12.957031 9.878906 -13.335938 9.015625 -13.734375 C 8.160156 -14.140625 7.375 -14.570312 6.65625 -15.03125 C 5.9375 -15.488281 5.296875 -15.976562 4.734375 -16.5 C 3.859375 -17.34375 3.195312 -18.34375 2.75 -19.5 C 2.3125 -20.65625 2.09375 -21.9375 2.09375 -23.34375 C 2.09375 -24.78125 2.414062 -26.140625 3.0625 -27.421875 C 3.300781 -27.816406 3.5625 -28.203125 3.84375 -28.578125 C 4.125 -28.960938 4.421875 -29.328125 4.734375 -29.671875 C 5.054688 -30.015625 5.414062 -30.320312 5.8125 -30.59375 C 6.976562 -31.519531 8.378906 -32.222656 10.015625 -32.703125 C 11.617188 -33.179688 13.441406 -33.421875 15.484375 -33.421875 C 17.640625 -33.421875 19.554688 -33.203125 21.234375 -32.765625 C 22.078125 -32.523438 22.867188 -32.265625 23.609375 -31.984375 C 24.347656 -31.703125 25.039062 -31.378906 25.6875 -31.015625 L 26.875 -30.421875 L 26.453125 -29.21875 L 24.953125 -24.78125 L 24.359375 -23.046875 L 22.734375 -23.9375 C 21.773438 -24.539062 20.675781 -25.019531 19.4375 -25.375 C 18.15625 -25.738281 16.753906 -25.921875 15.234375 -25.921875 C 14.640625 -25.921875 14.09375 -25.878906 13.59375 -25.796875 C 13.09375 -25.722656 12.660156 -25.613281 12.296875 -25.46875 C 11.941406 -25.332031 11.644531 -25.160156 11.40625 -24.953125 C 11 -24.679688 10.722656 -24.414062 10.578125 -24.15625 C 10.441406 -23.894531 10.375 -23.644531 10.375 -23.40625 C 10.375 -23.125 10.414062 -22.882812 10.5 -22.6875 C 10.582031 -22.519531 10.765625 -22.335938 11.046875 -22.140625 C 11.441406 -21.859375 11.976562 -21.554688 12.65625 -21.234375 C 13.0625 -21.078125 13.492188 -20.90625 13.953125 -20.71875 C 14.410156 -20.539062 14.941406 -20.351562 15.546875 -20.15625 C 16.054688 -19.957031 16.539062 -19.765625 17 -19.578125 C 17.46875 -19.398438 17.921875 -19.222656 18.359375 -19.046875 C 18.796875 -18.867188 19.203125 -18.6875 19.578125 -18.5 C 19.960938 -18.320312 20.335938 -18.15625 20.703125 -18 C 22.222656 -17.195312 23.460938 -16.335938 24.421875 -15.421875 C 25.421875 -14.421875 26.117188 -13.320312 26.515625 -12.125 C 26.960938 -10.957031 27.1875 -9.695312 27.1875 -8.34375 C 27.1875 -6.695312 26.820312 -5.195312 26.09375 -3.84375 C 25.375 -2.519531 24.394531 -1.398438 23.15625 -0.484375 C 22.519531 -0.0351562 21.832031 0.351562 21.09375 0.6875 C 20.351562 1.03125 19.5625 1.320312 18.71875 1.5625 C 17.039062 2 15.203125 2.21875 13.203125 2.21875 C 10.640625 2.21875 8.335938 1.898438 6.296875 1.265625 C 4.253906 0.578125 2.554688 -0.28125 1.203125 -1.3125 L 0.1875 -2.09375 L 0.78125 -3.1875 L 3.0625 -7.6875 L 3.90625 -9.421875 Z M 5.40625 -8.15625 "/></g></g></g><g fill="#ffffff" fill-opacity="1"><g transform="translate(183.803074, 197.474987)"><g><path d="M 30.359375 1.5 L 3.90625 1.5 L 3.90625 -43.5 L 12.59375 -43.5 L 12.59375 -6.59375 L 31.859375 -6.59375 L 31.859375 1.5 Z M 30.359375 1.5 "/></g></g></g><g fill="#ffffff" fill-opacity="1"><g transform="translate(214.463041, 197.474987)"><g><path d="M 26.453125 -15.59375 C 26.453125 -17 26.234375 -18.320312 25.796875 -19.5625 C 25.359375 -20.757812 24.757812 -21.816406 24 -22.734375 C 23.71875 -23.015625 23.4375 -23.285156 23.15625 -23.546875 C 22.875 -23.804688 22.570312 -24.046875 22.25 -24.265625 C 21.9375 -24.484375 21.597656 -24.675781 21.234375 -24.84375 C 20.753906 -25.125 20.234375 -25.320312 19.671875 -25.4375 C 19.117188 -25.5625 18.539062 -25.625 17.9375 -25.625 C 15.257812 -25.625 13.179688 -24.765625 11.703125 -23.046875 C 10.179688 -21.242188 9.421875 -18.800781 9.421875 -15.71875 C 9.421875 -14.320312 9.640625 -13.003906 10.078125 -11.765625 C 10.160156 -11.554688 10.238281 -11.351562 10.3125 -11.15625 C 10.394531 -10.957031 10.484375 -10.757812 10.578125 -10.5625 C 10.679688 -10.363281 10.785156 -10.171875 10.890625 -9.984375 C 10.992188 -9.804688 11.09375 -9.632812 11.1875 -9.46875 C 11.289062 -9.3125 11.398438 -9.144531 11.515625 -8.96875 C 11.640625 -8.789062 11.78125 -8.640625 11.9375 -8.515625 C 12.175781 -8.203125 12.4375 -7.914062 12.71875 -7.65625 C 13 -7.394531 13.296875 -7.148438 13.609375 -6.921875 C 13.929688 -6.703125 14.273438 -6.515625 14.640625 -6.359375 C 15.117188 -6.078125 15.640625 -5.875 16.203125 -5.75 C 16.765625 -5.632812 17.34375 -5.578125 17.9375 -5.578125 C 19.300781 -5.578125 20.503906 -5.816406 21.546875 -6.296875 C 22.054688 -6.535156 22.519531 -6.816406 22.9375 -7.140625 C 23.363281 -7.460938 23.757812 -7.84375 24.125 -8.28125 C 24.882812 -9.125 25.460938 -10.164062 25.859375 -11.40625 C 26.253906 -12.644531 26.453125 -14.039062 26.453125 -15.59375 Z M 0.90625 -15.59375 C 0.90625 -18.320312 1.34375 -20.785156 2.21875 -22.984375 C 3.101562 -25.179688 4.300781 -27.050781 5.8125 -28.59375 C 7.332031 -30.132812 9.132812 -31.320312 11.21875 -32.15625 C 13.300781 -33 15.539062 -33.421875 17.9375 -33.421875 C 18.539062 -33.421875 19.117188 -33.390625 19.671875 -33.328125 C 20.234375 -33.265625 20.796875 -33.179688 21.359375 -33.078125 C 21.921875 -32.984375 22.46875 -32.851562 23 -32.6875 C 23.539062 -32.53125 24.070312 -32.351562 24.59375 -32.15625 C 25.632812 -31.757812 26.601562 -31.257812 27.5 -30.65625 C 28.40625 -30.0625 29.257812 -29.382812 30.0625 -28.625 C 31.582031 -27.0625 32.78125 -25.179688 33.65625 -22.984375 C 34.539062 -20.816406 34.984375 -18.394531 34.984375 -15.71875 C 34.984375 -13.039062 34.5625 -10.601562 33.71875 -8.40625 C 32.84375 -6.195312 31.644531 -4.316406 30.125 -2.765625 C 29.363281 -1.960938 28.519531 -1.25 27.59375 -0.625 C 26.675781 -0.0078125 25.695312 0.515625 24.65625 0.953125 C 22.582031 1.796875 20.34375 2.21875 17.9375 2.21875 C 16.738281 2.21875 15.566406 2.109375 14.421875 1.890625 C 13.285156 1.671875 12.195312 1.34375 11.15625 0.90625 C 9.082031 0.0195312 7.285156 -1.207031 5.765625 -2.78125 C 4.242188 -4.363281 3.039062 -6.253906 2.15625 -8.453125 C 1.320312 -10.617188 0.90625 -13 0.90625 -15.59375 Z M 0.90625 -15.59375 "/></g></g></g><g fill="#ffffff" fill-opacity="1"><g transform="translate(250.343002, 197.474987)"><g><path d="M 17.15625 -33.421875 C 18.15625 -33.421875 19.101562 -33.335938 20 -33.171875 C 20.90625 -33.015625 21.757812 -32.757812 22.5625 -32.40625 C 23.125 -32.164062 23.664062 -31.90625 24.1875 -31.625 L 24.1875 -32.703125 L 32.09375 -32.703125 L 32.09375 -0.71875 C 32.09375 2.039062 31.710938 4.441406 30.953125 6.484375 C 30.597656 7.484375 30.148438 8.410156 29.609375 9.265625 C 29.066406 10.128906 28.4375 10.890625 27.71875 11.546875 C 27 12.210938 26.207031 12.796875 25.34375 13.296875 C 24.488281 13.796875 23.582031 14.203125 22.625 14.515625 C 21.664062 14.796875 20.65625 15.015625 19.59375 15.171875 C 18.53125 15.335938 17.421875 15.421875 16.265625 15.421875 C 14.265625 15.421875 12.34375 15.179688 10.5 14.703125 C 9.863281 14.535156 9.253906 14.351562 8.671875 14.15625 C 8.085938 13.957031 7.523438 13.71875 6.984375 13.4375 C 6.453125 13.15625 5.925781 12.859375 5.40625 12.546875 L 4.375 11.875 L 4.859375 10.6875 L 6.84375 6 L 7.625 4.203125 L 9.1875 5.40625 C 10.019531 6.082031 11 6.640625 12.125 7.078125 C 13.238281 7.515625 14.617188 7.734375 16.265625 7.734375 C 16.703125 7.734375 17.109375 7.710938 17.484375 7.671875 C 17.867188 7.640625 18.238281 7.59375 18.59375 7.53125 C 18.957031 7.46875 19.289062 7.382812 19.59375 7.28125 C 19.894531 7.1875 20.179688 7.066406 20.453125 6.921875 C 20.734375 6.785156 20.992188 6.628906 21.234375 6.453125 C 21.472656 6.273438 21.710938 6.101562 21.953125 5.9375 C 22.554688 5.34375 23.023438 4.546875 23.359375 3.546875 C 23.703125 2.546875 23.875 1.300781 23.875 -0.1875 L 23.875 -0.71875 C 23.476562 -0.476562 23.082031 -0.238281 22.6875 0 C 20.957031 1 18.914062 1.5 16.5625 1.5 C 15.914062 1.5 15.265625 1.457031 14.609375 1.375 C 13.953125 1.300781 13.3125 1.171875 12.6875 0.984375 C 12.070312 0.804688 11.441406 0.597656 10.796875 0.359375 C 8.960938 -0.441406 7.320312 -1.582031 5.875 -3.0625 C 5.15625 -3.820312 4.515625 -4.648438 3.953125 -5.546875 C 3.398438 -6.453125 2.898438 -7.421875 2.453125 -8.453125 C 1.617188 -10.578125 1.203125 -13 1.203125 -15.71875 C 1.203125 -18.238281 1.617188 -20.5625 2.453125 -22.6875 C 2.734375 -23.40625 3.046875 -24.09375 3.390625 -24.75 C 3.734375 -25.40625 4.101562 -26.035156 4.5 -26.640625 C 4.894531 -27.242188 5.332031 -27.800781 5.8125 -28.3125 C 7.257812 -29.914062 8.941406 -31.160156 10.859375 -32.046875 C 12.816406 -32.960938 14.914062 -33.421875 17.15625 -33.421875 Z M 17.765625 -6.296875 C 19.078125 -6.296875 20.273438 -6.597656 21.359375 -7.203125 C 22.273438 -7.722656 23.054688 -8.320312 23.703125 -9 L 23.703125 -23.875 C 23.023438 -24.320312 22.265625 -24.722656 21.421875 -25.078125 C 20.421875 -25.515625 19.179688 -25.734375 17.703125 -25.734375 C 17.179688 -25.734375 16.671875 -25.679688 16.171875 -25.578125 C 15.671875 -25.484375 15.203125 -25.335938 14.765625 -25.140625 C 13.796875 -24.703125 12.9375 -24.082031 12.1875 -23.28125 C 11.457031 -22.476562 10.851562 -21.476562 10.375 -20.28125 C 9.9375 -19.039062 9.71875 -17.617188 9.71875 -16.015625 C 9.71875 -15.253906 9.773438 -14.523438 9.890625 -13.828125 C 10.015625 -13.128906 10.175781 -12.476562 10.375 -11.875 C 10.851562 -10.675781 11.472656 -9.65625 12.234375 -8.8125 C 12.398438 -8.613281 12.582031 -8.425781 12.78125 -8.25 C 12.976562 -8.070312 13.1875 -7.898438 13.40625 -7.734375 C 13.625 -7.578125 13.84375 -7.425781 14.0625 -7.28125 C 14.289062 -7.144531 14.523438 -7.035156 14.765625 -6.953125 C 15.242188 -6.710938 15.734375 -6.539062 16.234375 -6.4375 C 16.734375 -6.34375 17.242188 -6.296875 17.765625 -6.296875 Z M 17.765625 -6.296875 "/></g></g></g></svg>