<?xml version="1.0" encoding="utf-8"?>
<!-- Generator: Adobe Illustrator 21.1.0, SVG Export Plug-In . SVG Version: 6.00 Build 0)  -->
<svg version="1.1" id="Layer_1" xmlns="http://www.w3.org/2000/svg" xmlns:xlink="http://www.w3.org/1999/xlink" x="0px" y="0px"
	 viewBox="0 0 1125 2001" style="enable-background:new 0 0 1125 2001;" xml:space="preserve">
<style type="text/css">
	.st0{fill:#FFFFFF;}
	.st1{fill:#CFD7DF;}
	.st2{fill:#000000;}
	.st3{fill:#009E73;}
	.st4{fill:#AAB7C4;}
	.st5{fill:none;stroke:#AAB7C4;stroke-miterlimit:10;}
	.st6{fill:none;stroke:#009E73;stroke-width:12;stroke-linecap:round;stroke-linejoin:round;}
	.st7{opacity:0.102;fill:#525F7F;enable-background:new    ;}
	.st8{fill:none;stroke:#ED598B;stroke-width:4.5;stroke-linecap:round;stroke-linejoin:round;}
	.st9{fill:#F2F5F7;}
	.st10{fill:#E6EBF1;}
	.st11{fill:none;stroke:#009E73;stroke-width:7.5;stroke-linecap:round;stroke-linejoin:round;}
	.st12{fill:#044751;}
</style>
<rect class="st0" width="1125" height="1008.8"/>
<path class="st1" d="M1062,825.3H63c-3.3,0-6-2.7-6-6v-15c0-3.3,2.7-6,6-6h999c3.3,0,6,2.7,6,6v15
	C1068,822.6,1065.3,825.3,1062,825.3z M63,858.3h669c3.3,0,6,2.7,6,6v15c0,3.3-2.7,6-6,6H63c-3.3,0-6-2.7-6-6v-15
	C57,861,59.7,858.3,63,858.3z"/>
<path class="st2" d="M72.1,702.2c2.4,2.3,5.4,3.8,9,4.4v-23.8c-3.2-0.8-5.9-1.6-8.2-2.6c-2.3-0.9-4.2-2-5.8-3.3
	c-1.5-1.3-2.7-2.9-3.4-4.7c-0.7-1.9-1.1-4.1-1.1-6.8s0.5-5.2,1.4-7.4c1-2.2,2.3-4.2,3.9-5.8s3.6-3,5.9-3.9c2.2-1,4.7-1.5,7.2-1.7
	v-5.9h5v6c4.9,0.6,8.7,2.4,11.6,5.4s4.9,7.1,6.1,12.4h-7.6c-1.2-5.9-4.6-9.4-10.1-10.4v22.1l5.4,1.4c1.2,0.3,2.6,0.8,4.2,1.6
	s3.2,1.8,4.7,3.1s2.8,3,3.8,4.9c1,2,1.6,4.4,1.6,7.1c0,2.9-0.5,5.6-1.5,7.8c-1,2.3-2.4,4.2-4.1,5.9s-3.8,3-6.2,3.9
	c-2.4,1-5,1.6-7.9,1.8v7.4h-5v-7.4c-6-0.6-10.8-2.7-14.3-6.3s-5.6-8.5-6-14.8h7.6C68.5,696.7,69.7,699.8,72.1,702.2z M73.7,656.8
	c-2,1.8-3,4.4-3,7.8c0,1.6,0.3,2.9,0.8,4s1.2,2,2.2,2.8c0.9,0.8,2,1.4,3.3,1.9s2.6,1,4.1,1.4v-21.1C78.2,654,75.7,655,73.7,656.8
	L73.7,656.8z M90.6,705.7c1.4-0.5,2.6-1.2,3.7-2.1c1-0.9,1.9-2.1,2.4-3.5c0.6-1.4,0.9-3.1,0.9-5c0-1.7-0.3-3.2-0.9-4.4
	s-1.4-2.2-2.4-3s-2.2-1.5-3.7-2.1s-3-1.1-4.6-1.6v22.6C87.7,706.5,89.2,706.2,90.6,705.7z M113.5,662c0.8-2.8,2.1-5.1,3.9-7.2
	c1.8-2,4-3.6,6.6-4.7c2.6-1.1,5.6-1.7,9-1.7c2.8,0,5.4,0.4,7.8,1.2c2.4,0.8,4.5,2,6.3,3.5s3.2,3.4,4.3,5.7c1,2.3,1.6,4.9,1.6,7.9
	c0,2.8-0.4,5.3-1.3,7.5s-2,4.1-3.5,5.8s-3.1,3.3-4.9,4.6c-1.9,1.4-3.8,2.7-5.8,4c-2,1.2-4,2.4-5.9,3.6s-3.8,2.4-5.4,3.7
	c-1.7,1.3-3.1,2.7-4.2,4.3c-1.2,1.5-1.9,3.3-2.3,5.3h32.8v6.8h-41.7c0.3-3.8,1-7,2-9.7s2.4-5,4-7s3.4-3.7,5.5-5.2
	c2-1.5,4.2-2.9,6.4-4.2c2.7-1.7,5.1-3.2,7.1-4.6c2-1.4,3.7-2.8,5.1-4.3c1.4-1.4,2.4-3,3.1-4.7c0.7-1.7,1-3.6,1-5.8
	c0-1.7-0.3-3.3-1-4.7s-1.5-2.6-2.7-3.6c-1.1-1-2.4-1.8-3.9-2.3s-3.1-0.8-4.8-0.8c-2.2,0-4.1,0.5-5.7,1.4c-1.6,0.9-2.9,2.1-3.9,3.6
	s-1.8,3.2-2.2,5.1c-0.4,1.9-0.6,3.8-0.6,5.7h-7.6C112.3,667.8,112.6,664.8,113.5,662L113.5,662z M163.5,662c0.8-2.8,2.1-5.1,3.9-7.2
	c1.8-2,4-3.6,6.6-4.7c2.6-1.1,5.6-1.7,9-1.7c2.8,0,5.4,0.4,7.8,1.2c2.4,0.8,4.5,2,6.3,3.5s3.2,3.4,4.3,5.7c1,2.3,1.6,4.9,1.6,7.9
	c0,2.8-0.4,5.3-1.3,7.5s-2,4.1-3.5,5.8s-3.1,3.3-4.9,4.6c-1.9,1.4-3.8,2.7-5.8,4c-2,1.2-4,2.4-5.9,3.6s-3.8,2.4-5.4,3.7
	c-1.7,1.3-3.1,2.7-4.2,4.3c-1.2,1.5-1.9,3.3-2.3,5.3h32.8v6.8h-41.7c0.3-3.8,1-7,2-9.7s2.4-5,4-7s3.4-3.7,5.5-5.2
	c2-1.5,4.2-2.9,6.4-4.2c2.7-1.7,5.1-3.2,7.1-4.6c2-1.4,3.7-2.8,5.1-4.3c1.4-1.4,2.4-3,3.1-4.7c0.7-1.7,1-3.6,1-5.8
	c0-1.7-0.3-3.3-1-4.7s-1.5-2.6-2.7-3.6c-1.1-1-2.4-1.8-3.9-2.3s-3.1-0.8-4.8-0.8c-2.2,0-4.1,0.5-5.7,1.4c-1.6,0.9-2.9,2.1-3.9,3.6
	s-1.8,3.2-2.2,5.1c-0.4,1.9-0.6,3.8-0.6,5.7h-7.6C162.3,667.8,162.6,664.8,163.5,662L163.5,662z"/>
<path class="st3" d="M987,661.8h75c3.3,0,6,2.7,6,6v15c0,3.3-2.7,6-6,6h-75c-3.3,0-6-2.7-6-6v-15C981,664.5,983.7,661.8,987,661.8z"
	/>
<path class="st4" d="M63,540.3h366c3.3,0,6,2.7,6,6v15c0,3.3-2.7,6-6,6H63c-3.3,0-6-2.7-6-6v-15C57,543,59.7,540.3,63,540.3z"/>
<path class="st5" d="M0,193h1125v254H0V193z"/>
<path class="st1" d="M418.5,336h288c3.3,0,6,2.7,6,6v15c0,3.3-2.7,6-6,6h-288c-3.3,0-6-2.7-6-6v-15C412.5,338.7,415.2,336,418.5,336
	z"/>
<path class="st1" d="M253.5,276h618c3.3,0,6,2.7,6,6v15c0,3.3-2.7,6-6,6h-618c-3.3,0-6-2.7-6-6v-15C247.5,278.7,250.2,276,253.5,276
	z"/>
<path class="st6" d="M1044.5,76.5l24.9,24.9l-24.9,24.9"/>
<path class="st7" d="M0,1011h1125v976.5H0V1011z"/>
<path class="st0" d="M0,1017h1125v984H0V1017z"/>
<path class="st2" d="M392.5,1906.1c5.9,0,9.9,4.1,9.9,10c0,5.8-4.1,9.9-9.9,9.9h-7.8v11h-3.9v-30.9H392.5L392.5,1906.1z
	 M384.7,1922.6h6.8c4.4,0,6.9-2.4,6.9-6.5c0-4.2-2.5-6.6-6.9-6.6h-6.8V1922.6z M406,1930.5c0-4.1,3-6.5,8.4-6.8l6.7-0.4v-2.1
	c0-2.9-1.8-4.4-5.2-4.4c-2.8,0-4.7,1.1-5.2,2.9H407c0.5-3.7,4.1-6.2,9.1-6.2c5.6,0,8.8,2.9,8.8,7.7v15.8h-3.5v-3.4h-0.3
	c-1.5,2.5-4,3.8-7.1,3.8C409.3,1937.4,406,1934.8,406,1930.5z M421.1,1928.4v-2.1l-6.2,0.4c-3.5,0.2-5.1,1.5-5.1,3.8
	c0,2.4,2,3.7,4.7,3.7C418.3,1934.2,421.1,1931.7,421.1,1928.4z M431.1,1945.3v-3.2c0.5,0.1,1,0.1,1.5,0.1c2.1,0,3.3-1,4.2-3.8
	l0.4-1.4l-8.6-23.1h4l6.3,19h0.3l6.3-19h3.9l-9,24.5c-2,5.4-3.8,6.9-7.9,6.9C432.2,1945.4,431.6,1945.3,431.1,1945.3L431.1,1945.3z
	 M489.6,1937h-3.8l-5.2-17.9h-0.3l-5.1,17.9h-3.7l-6.5-23.1h3.7l4.5,18.5h0.3l5.2-18.5h3.5l5.2,18.5h0.3l4.5-18.5h3.7L489.6,1937
	L489.6,1937z M500.3,1906.6c0-1.4,1.2-2.6,2.6-2.6s2.6,1.2,2.6,2.6s-1.2,2.6-2.6,2.6S500.3,1908.1,500.3,1906.6z M501.1,1913.9h3.7
	v23.1h-3.7V1913.9z M517,1907.9v6h5.1v3.1H517v13.1c0,2.7,1,3.9,3.4,3.9c0.7,0,1,0,1.7-0.1v3.1c-0.7,0.1-1.4,0.2-2.2,0.2
	c-4.8,0-6.7-1.8-6.7-6.2v-14h-3.7v-3.1h3.7v-6H517z M528,1904.7h3.7v12.8h0.3c1.2-2.6,3.6-4.1,7.1-4.1c4.9,0,8,3.1,8,8.6v15h-3.7
	v-14c0-4.1-1.8-6.1-5.3-6.1c-4.1,0-6.4,2.6-6.4,6.5v13.7H528V1904.7z M574.7,1937v-27.5h-10v-3.5h23.8v3.5h-10v27.5H574.7z
	 M589.4,1925.5c0-7.4,4.1-12,10.7-12s10.7,4.5,10.7,12c0,7.4-4.1,12-10.7,12C593.5,1937.4,589.4,1932.9,589.4,1925.5z M606.9,1925.5
	c0-5.5-2.5-8.6-6.8-8.6c-4.4,0-6.8,3.2-6.8,8.6c0,5.5,2.5,8.6,6.8,8.6C604.5,1934.1,606.9,1930.9,606.9,1925.5z M635.2,1937h-3.5
	v-3.6h-0.3c-1.2,2.6-3.6,4-7.2,4c-5.2,0-7.9-3.1-7.9-8.6v-15h3.7v14.1c0,4.2,1.5,6.1,5.2,6.1c4.1,0,6.3-2.4,6.3-6.5v-13.7h3.7V1937z
	 M657.6,1921c-0.6-2.3-2.6-4.2-6-4.2c-4.2,0-6.8,3.3-6.8,8.6s2.7,8.7,6.8,8.7c3.1,0,5.3-1.4,6-4.1h3.7c-0.7,4.2-4.1,7.4-9.7,7.4
	c-6.5,0-10.6-4.7-10.6-12c0-7.2,4.1-11.9,10.6-11.9c5.6,0,9,3.4,9.7,7.5H657.6z M667,1904.7h3.7v12.8h0.3c1.2-2.6,3.6-4.1,7.1-4.1
	c4.9,0,8,3.1,8,8.6v15h-3.7v-14c0-4.1-1.8-6.1-5.3-6.1c-4.1,0-6.4,2.6-6.4,6.5v13.7H667L667,1904.7L667,1904.7z M705.7,1937v-30.9
	h3.9v30.9H705.7z M728.1,1906.1c9.2,0,14.6,5.7,14.6,15.5s-5.4,15.5-14.6,15.5h-10.6v-30.9L728.1,1906.1L728.1,1906.1z
	 M721.3,1933.5h6.5c6.9,0,10.9-4.4,10.9-12s-4.1-12-10.9-12h-6.5V1933.5z"/>
<path class="st8" d="M631.4,1772.5c-3.7-18.4-14.3-33.7-28.6-43.7 M624.5,1819.5c1.8-14.7,1.4-29.9-1.7-45.3
	c-4.6-22.7-21.1-39.9-41.6-46.5 M593.4,1723.2c-13.4-6.6-29.1-9-44.9-5.8c-18,3.6-32.9,13.8-42.9,27.5"/>
<path class="st8" d="M570.7,1725.3c-6.6-0.9-13.5-0.7-20.4,0.7c-33.4,6.7-54.9,39.2-48.2,72.6c1.2,5.8-0.6,11.5-4.4,15.5
	 M499.7,1754.4c-7,13.7-9.6,29.7-6.3,46"/>
<path class="st8" d="M615.4,1782.8c-0.3-2.3-0.7-4.6-1.2-6.8c-5.8-28.6-33.6-47.1-62.2-41.3c-22,4.4-38,21.9-41.6,42.7"/>
<path class="st8" d="M544,1746.4c3-1.4,6.3-2.5,9.7-3.1c13.5-2.7,26.7,1,36.6,9.1 M506.8,1829.6c9.9-8,15.2-21.1,12.5-34.5
	c-3.2-16,2.7-32.6,15.4-42.9"/>
<path class="st8" d="M509.6,1788.5c0.1,2.8,0.4,5.6,1,8.3c2,9.8-1.7,19.4-8.9,25.4 M597.7,1820.6c2.2-13.3,2.1-27.2-0.8-41.2
	c-3.8-19.1-22.4-31.4-41.5-27.6s-31.4,22.4-27.6,41.5c0.9,4.5,1.1,9,0.6,13.4"/>
<path class="st8" d="M564.5,1760.1c-2.4-0.2-4.8,0-7.3,0.4c-14.3,2.9-23.6,16.8-20.7,31.1c3.9,19.4-3.3,38.4-17.2,50.4 M598,1760.5
	c3.6,5,6.3,10.8,7.5,17.2c4.8,23.7,2.4,47.2-5.7,68.3 M612.4,1836c3.6-13.5,5.1-27.7,4.2-42.1 M575.9,1855.5
	c12.7-21.6,17.8-47.8,12.4-74.3c-1.6-7.9-6.5-14.2-13.1-17.9"/>
<path class="st8" d="M581.6,1801.9c0-6.3-0.6-12.6-1.9-19c-1.9-9.6-11.2-15.7-20.8-13.8c-7.1,1.4-12.4,7-13.8,13.7"/>
<path class="st8" d="M554.1,1856.3c15.3-19.6,22.3-45.4,17-71.7c-1-4.8-5.6-7.9-10.4-6.9c-4.8,1-7.9,5.6-6.9,10.4h0.1
	c2,9.8,1.8,19.5-0.2,28.7 M525.8,1818c-2.8,7.1-7.3,13.4-13.2,18.2 M545.8,1793.9c2.8,20.4-4.8,40-19,53.3 M550.4,1827.6
	c-3.4,8.8-8.7,16.9-15.3,23.7 M544.2,1854.4c15.8-18,23.3-42.8,18.2-68 M564.7,1856.8c8.8-12.9,14.5-27.9,16.3-43.7 M587.7,1852.1
	c3.2-6.6,5.8-13.4,7.7-20.5"/>
<path class="st9" d="M45,1653h1080v6H45V1653z"/>
<path class="st1" d="M1074,1599H906c-3.3,0-6-2.7-6-6v-18c0-3.3,2.7-6,6-6h168c3.3,0,6,2.7,6,6v18
	C1080,1596.3,1077.3,1599,1074,1599z M681,1543.5H339c-3.3,0-6-2.7-6-6v-18c0-3.3,2.7-6,6-6h342c3.3,0,6,2.7,6,6v18
	C687,1540.8,684.3,1543.5,681,1543.5z M339,1569h279c3.3,0,6,2.7,6,6v18c0,3.3-2.7,6-6,6H339c-3.3,0-6-2.7-6-6v-18
	C333,1571.7,335.7,1569,339,1569z"/>
<path class="st10" d="M1075.8,1479h-119c-2.3,0-4.2-2.7-4.2-6v-18c0-3.3,1.9-6,4.2-6h119c2.3,0,4.2,2.7,4.2,6v18
	C1080,1476.3,1078.1,1479,1075.8,1479z M727.5,1423.5H339c-3.3,0-6-2.7-6-6v-18c0-3.3,2.7-6,6-6h388.5c3.3,0,6,2.7,6,6v18
	C733.5,1420.8,730.8,1423.5,727.5,1423.5L727.5,1423.5z M339,1449h217.5c3.3,0,6,2.7,6,6v18c0,3.3-2.7,6-6,6H339c-3.3,0-6-2.7-6-6
	v-18C333,1451.7,335.7,1449,339,1449z"/>
<path class="st9" d="M45,1330.5h1080v6H45V1330.5z"/>
<path class="st11" d="M1054.3,1225l18.4,18.4l-18.4,18.4"/>
<path class="st10" d="M783,1230H339c-3.3,0-6-2.7-6-6v-18c0-3.3,2.7-6,6-6h444c3.3,0,6,2.7,6,6v18C789,1227.3,786.3,1230,783,1230z
	 M152.3,1230H48.7c-2,0-3.7-2.7-3.7-6v-18c0-3.3,1.7-6,3.7-6h103.6c2,0,3.7,2.7,3.7,6v18C156,1227.3,154.3,1230,152.3,1230
	L152.3,1230z M339,1255.5h172.5c3.3,0,6,2.7,6,6v18c0,3.3-2.7,6-6,6H339c-3.3,0-6-2.7-6-6v-18C333,1258.2,335.7,1255.5,339,1255.5z"
	/>
<path class="st9" d="M0,1149h1125v6H0V1149z"/>
<path class="st2" d="M921,1071h153c3.3,0,6,2.7,6,6v18c0,3.3-2.7,6-6,6H921c-3.3,0-6-2.7-6-6v-18C915,1073.7,917.7,1071,921,1071z"
	/>
<path class="st2" d="M82.6,1079.1c0.1,7.5,6.8,9.9,6.8,10c-0.1,0.2-1.1,3.5-3.5,7c-2.1,3-4.3,6-7.8,6.1c-3.4,0.1-4.5-2-8.4-2
	s-5.1,1.9-8.3,2c-3.3,0.1-5.9-3.2-8-6.2c-4.4-6.1-7.7-17.3-3.2-24.8c2.2-3.7,6.2-6.1,10.5-6.2c3.3-0.1,6.4,2.1,8.4,2.1
	s5.8-2.6,9.7-2.3c1.7,0.1,6.3,0.6,9.3,4.9C87.8,1069.8,82.5,1072.8,82.6,1079.1z M76.2,1060.8c1.8-2.1,3-5,2.6-7.9
	c-2.6,0.1-5.7,1.7-7.5,3.7c-1.6,1.8-3.1,4.8-2.7,7.6C71.5,1064.5,74.4,1062.8,76.2,1060.8L76.2,1060.8z M105.1,1079.5
	c0.8,0.2,1.6,0.4,2.6,0.5s2,0.1,3.1,0.1c4.1,0,7.2-0.9,9.5-2.8c2.2-1.9,3.4-4.6,3.4-8.2c0-1.7-0.3-3.2-0.9-4.5s-1.4-2.3-2.5-3.2
	c-1.1-0.8-2.4-1.4-3.9-1.9c-1.5-0.4-3.2-0.6-5-0.6c-1.5,0-2.7,0.1-3.7,0.2s-1.9,0.2-2.5,0.4L105.1,1079.5z M101.9,1057.2
	c1.3-0.2,2.8-0.4,4.4-0.6s3.3-0.3,5.2-0.3c2.7,0,5.1,0.3,7,1c2,0.6,3.6,1.6,4.9,2.8c1.1,1.1,1.9,2.3,2.6,3.8
	c0.6,1.5,0.9,3.1,0.9,5.1c0,2.3-0.4,4.3-1.3,6c-0.8,1.7-2,3.2-3.4,4.4c-1.5,1.2-3.2,2-5.2,2.6s-4.2,0.9-6.5,0.9
	c-2.1,0-3.9-0.2-5.4-0.5v19.1h-3.2V1057.2z M149.1,1084.4c-1.7,0-3.5,0-5.4,0.2s-3.6,0.6-5.2,1.2s-2.9,1.5-3.9,2.6
	c-1,1.2-1.6,2.7-1.6,4.6c0,2.3,0.7,3.9,2,5s2.8,1.6,4.4,1.6c1.3,0,2.5-0.2,3.5-0.5c1-0.4,1.9-0.8,2.7-1.4s1.4-1.3,1.9-2
	c0.5-0.8,0.9-1.5,1.2-2.3c0.2-0.9,0.3-1.5,0.3-1.9L149.1,1084.4L149.1,1084.4z M152.3,1093.9c0,1.3,0,2.6,0.1,3.9
	c0,1.3,0.2,2.5,0.4,3.7h-3l-0.5-4.5h-0.1c-0.4,0.6-0.9,1.2-1.6,1.9c-0.6,0.6-1.4,1.2-2.2,1.7s-1.8,0.9-2.9,1.2
	c-1.1,0.3-2.2,0.5-3.5,0.5c-1.6,0-3-0.3-4.2-0.8s-2.2-1.2-3-2s-1.3-1.8-1.7-2.8c-0.4-1.1-0.6-2.1-0.6-3.2c0-3.8,1.6-6.7,4.9-8.7
	c3.2-2,8.1-3,14.7-2.9v-0.9c0-0.8-0.1-1.8-0.2-2.9c-0.2-1.1-0.5-2.1-1.1-3.1c-0.5-1-1.4-1.8-2.4-2.5c-1.1-0.7-2.6-1-4.4-1
	c-1.4,0-2.8,0.2-4.2,0.6s-2.6,1-3.8,1.8l-1-2.3c1.5-1,2.9-1.7,4.5-2.1c1.5-0.4,3.2-0.6,4.8-0.6c2.3,0,4.1,0.4,5.5,1.1
	c1.4,0.8,2.6,1.7,3.4,2.9c0.8,1.2,1.4,2.5,1.7,4s0.4,3,0.4,4.4L152.3,1093.9L152.3,1093.9z M158.6,1069.6l8.3,20.7
	c0.5,1.2,0.9,2.3,1.3,3.6c0.4,1.2,0.8,2.3,1.1,3.4h0.1c0.3-1,0.7-2.1,1.1-3.3c0.4-1.2,0.9-2.5,1.4-3.8l7.8-20.6h3.4l-9.5,23.4
	c-1,2.5-1.8,4.7-2.7,6.7c-0.8,2-1.7,3.8-2.6,5.5c-0.9,1.6-1.7,3-2.6,4.3c-0.9,1.2-1.9,2.3-3,3.3c-1.3,1.1-2.4,1.9-3.5,2.4
	s-1.8,0.8-2.1,1l-1.1-2.6c0.8-0.4,1.7-0.8,2.7-1.4s2-1.3,2.9-2.3c0.8-0.8,1.7-1.8,2.7-3.2c1-1.3,1.8-2.9,2.6-4.8
	c0.3-0.7,0.4-1.2,0.4-1.4c0-0.3-0.1-0.8-0.4-1.4l-11.8-29.6L158.6,1069.6L158.6,1069.6z"/>
<path class="st12" d="M754.2,88.7v25.6c0,6.1,4.8,11.1,10.9,11.2c4.6,0.1,8.8-2.9,10.2-7.3l1.1,2c2,3.3,5.6,5.3,9.4,5.3
	c5.8,0.1,10.6-4.6,10.7-10.5c0-0.1,0-0.2,0-0.2c0-2-0.5-4.1-1.6-5.8l-4.3-6.8c3.3-2.6,5.1-6.5,5-10.7c0-8.4-6.7-14.9-15.3-14.9
	h-14.2C758.4,76.5,754.2,80.7,754.2,88.7 M750.9,116c0.2-4.3-2.8-8.2-7.1-9c2-1.3,3.1-3.6,3-6c0.1-2.4-1-4.7-3-6
	c4.3-0.8,7.3-4.6,7.1-9c0.1-5.1-4.1-9.3-9.2-9.4c0,0-0.1,0-0.1,0h-17c-7.8,0-12,4.2-12,12.1v24.5c0,8,4.2,12.1,12,12.1h17
	c5,0.1,9.2-3.9,9.3-8.9C750.9,116.3,750.9,116.1,750.9,116 M699.5,114.4V97.5c5.6-0.3,10-4.9,9.9-10.5c0-5.8-4.6-10.5-10.4-10.5
	c0,0-0.1,0-0.1,0h-22.1c-5.8,0-10.5,4.7-10.5,10.5c0,5.6,4.3,10.2,9.9,10.5v16.8c0.2,6.2,5.3,11.1,11.5,11
	C694.4,125.4,699.5,120.4,699.5,114.4 M623.1,88.7v25.6c0,6.1,4.8,11.1,10.9,11.2c4.6,0.1,8.8-2.9,10.2-7.3l1.1,2
	c2,3.3,5.6,5.3,9.4,5.3c5.8,0.1,10.6-4.6,10.7-10.5c0-0.1,0-0.2,0-0.2c0-2-0.5-4.1-1.6-5.8l-4.3-6.8c3.3-2.6,5.1-6.5,5-10.7
	c0-8.4-6.7-14.9-15.3-14.9H635C627.4,76.5,623.1,80.7,623.1,88.7 M596.2,116.1c2.8,5.7,6.7,8.5,11.5,8.5c8.7,0,14.8-7.8,11-16.7
	l-10-23.3c-2.5-5.7-6.1-8.9-12.4-8.9c-6.2,0-9.9,3.2-12.4,8.9l-10,23.3c-3.8,8.8,2.4,16.7,10.9,16.7
	C589.5,124.6,593.4,121.8,596.2,116.1 M567.6,114.4V97.5c5.6-0.3,10-4.9,9.9-10.5c0-5.8-4.6-10.5-10.4-10.5c0,0-0.1,0-0.1,0h-22.1
	c-5.8,0-10.5,4.7-10.5,10.5c0,5.6,4.3,10.2,9.9,10.5v16.8c0.2,6.2,5.3,11.1,11.5,11C562.5,125.4,567.6,120.4,567.6,114.4
	 M534.4,109.5c0-4.9-2.4-8.3-6.1-11.6l-3-2.7c4.4-0.7,7.3-3.6,7.3-7.9c0-7.3-5.8-11.6-18-11.6c-12,0-19,6-19,15.6
	c0,4.9,2.5,8.2,6.2,11.6l2.9,2.7h-0.1c-5.5,0-9.3,3.2-9.3,8.2c0,7.2,6,11.6,18.9,11.6C526.9,125.4,534.4,119.3,534.4,109.5
	 M492.9,113.6c0-2.3-0.7-4.5-2.1-6.4l-5.3-7.2l5.3-7.2c3.5-4.7,2.5-11.4-2.2-14.9c-1.9-1.4-4.2-2.2-6.6-2.1c-3.6,0-6.9,1.7-9,4.6
	l-2.5,3.6c-1-4.9-5.5-8.4-10.5-8.3c-6-0.1-10.8,4.7-10.9,10.7c0,0.1,0,0.1,0,0.2v27.1c0,6,4.8,10.9,10.8,10.9c0,0,0.1,0,0.1,0
	c5.3,0,9.4-3.2,10.4-7.9l2.3,3.2c3.5,5,10.5,6.2,15.5,2.7C491.1,120.5,492.9,117.2,492.9,113.6 M444.9,111.1c0-5.2-2.6-8.8-7.8-11
	c5.2-2.2,7.8-5.7,7.8-11c0-7.8-6.6-13.4-17.1-13.4c-14.1,0-24.4,10.4-24.4,24.4s10.4,24.4,24.4,24.4
	C438.3,124.6,444.9,119,444.9,111.1 M387.5,75.7c-6.5,0-11.7,5.2-11.8,11.7v25.5c0,6.5,5.3,11.8,11.8,11.8s11.8-5.3,11.8-11.8V87.4
	C399.3,80.9,394,75.7,387.5,75.7C387.5,75.7,387.5,75.7,387.5,75.7 M372.5,113.6c0-2.3-0.7-4.5-2-6.4l-5.3-7.2l5.2-7.2
	c1.3-1.9,2-4.1,2-6.4c-0.1-5.9-4.9-10.7-10.9-10.6c0,0,0,0,0,0c-3.6,0-6.9,1.7-9,4.6l-2.6,3.6c-1-4.9-5.5-8.4-10.5-8.3
	c-6,0-10.9,4.8-10.9,10.8c0,0,0,0.1,0,0.1v27.1c0,6,4.8,10.9,10.8,10.9c0,0,0.1,0,0.1,0c4.9,0.2,9.3-3.1,10.4-7.9l2.3,3.2
	c2.1,3,5.5,4.7,9.1,4.7C367.3,124.6,372.4,119.7,372.5,113.6"/>
</svg>
