<svg xmlns="http://www.w3.org/2000/svg" viewBox="0 0 3072 2304"><path d="M0 0h3072v2304H0V0z" fill="#FFF"/><path d="M412.5 632h2247c8.3 0 15 6.7 15 15v1779c0 8.3-6.7 15-15 15h-2247c-8.3 0-15-6.7-15-15V647c0-8.3 6.7-15 15-15z" fill="none" stroke="#fdfdfd" stroke-width="4.5" stroke-linecap="round" stroke-linejoin="round"/><path d="M2337 895.5H735c-3.3 0-6-2.7-6-6v-15c0-3.3 2.7-6 6-6h1602c3.3 0 6 2.7 6 6v15c0 3.3-2.7 6-6 6zM915 929h1242c3.3 0 6 2.7 6 6v15c0 3.3-2.7 6-6 6H915c-3.3 0-6-2.7-6-6v-15c0-3.3 2.7-6 6-6z" opacity=".502" fill="#fdfdfd"/><path d="M1346.3 749v-60h26.7c10.4 0 16.8 6.3 16.8 15.3 0 7.6-5 12.6-10.5 13.8 6.4 1 11.7 7.6 11.7 14.8 0 9.6-6.4 16.2-17.4 16.2h-27.3zm35.8-43.6c0-5.4-3.6-9.7-10.3-9.7h-18V715h18c6.7 0 10.3-4.1 10.3-9.6zm1.2 26.6c0-5.5-3.8-10.3-11.2-10.3h-18.4v20.7h18.4c7 0 11.2-4 11.2-10.4zm18.2-37.1c0-2.5 2.1-4.6 4.5-4.6 2.5 0 4.6 2.1 4.6 4.6s-2.1 4.5-4.6 4.5c-2.5 0-4.5-2-4.5-4.5zm1.1 54.1v-43.5h6.7V749h-6.7zm20.3 0v-60h6.7v60h-6.7zm20.2 0v-60h6.7v60h-6.7zm19.1-54.1c0-2.5 2.1-4.6 4.5-4.6 2.5 0 4.6 2.1 4.6 4.6s-2.1 4.5-4.6 4.5c-2.4 0-4.5-2-4.5-4.5zm1.2 54.1v-43.5h6.7V749h-6.7zm49.6 0v-28.4c0-7.7-3.9-10.1-9.7-10.1-5.3 0-10.3 3.2-12.9 6.8V749h-6.7v-43.5h6.7v6.3c3.1-3.6 9-7.4 15.5-7.4 9.1 0 13.9 4.6 13.9 14V749h-6.8zm20.1 11.2l3.4-5c3.6 4.3 7.9 5.9 14.1 5.9 7.2 0 13.9-3.5 13.9-13v-6.2c-3.1 4.4-8.5 7.7-14.6 7.7-11.3 0-19.3-8.5-19.3-22.5 0-13.9 7.9-22.6 19.3-22.6 5.8 0 11.1 2.9 14.6 7.6v-6.6h6.8v42.2c0 14.4-10.1 18.9-20.7 18.9-7.3.1-12.3-1.4-17.5-6.4zm31.5-23.7v-19c-2.3-3.8-7.6-7-13-7-8.7 0-13.9 6.9-13.9 16.6 0 9.5 5.2 16.6 13.9 16.6 5.5-.1 10.7-3.4 13-7.2zm43.8 12.5v-60h7.5v60h-7.5zm50.5 0v-28.4c0-7.7-3.9-10.1-9.7-10.1-5.3 0-10.3 3.2-12.9 6.8V749h-6.7v-43.5h6.7v6.3c3.1-3.6 9-7.4 15.5-7.4 9.1 0 13.9 4.6 13.9 14V749h-6.8zm22.2 0v-37.5h-7.2v-5.9h7.2v-3.3c0-8.9 4.9-14.1 12.6-14.1 3.4 0 6.5.8 9.2 3.3l-2.8 4.4c-1.4-1.3-3.2-2.2-5.4-2.2-4.4 0-6.8 3.1-6.8 8.5v3.3h8.8v5.9h-8.8V749h-6.8zm21-21.7c0-12.6 8.3-22.8 21.5-22.8s21.5 10.2 21.5 22.8-8.3 22.9-21.5 22.9-21.5-10.3-21.5-22.9zm36 0c0-8.8-5.1-16.7-14.4-16.7s-14.5 7.9-14.5 16.7c0 8.9 5.2 16.8 14.5 16.8s14.4-7.9 14.4-16.8z" fill="#000000"/><path d="M577.5 2075.5h583.4c8.3 0 15 6.7 15 15v116.6c0 8.3-6.7 15-15 15H577.5c-8.3 0-15-6.7-15-15v-116.6c0-8.3 6.7-15 15-15z" fill="none" stroke="#dbdbdb" stroke-width="4.5" stroke-linecap="round" stroke-linejoin="round"/><path d="M598.5 2102.5h113.9c3.3 0 6 2.7 6 6v3c0 3.3-2.7 6-6 6H598.5c-3.3 0-6-2.7-6-6v-3c0-3.3 2.7-6 6-6z" fill="#fdfdfd"/><path d="M597.9 2183.5l2.9-3.8c2.6 2.9 7 5.7 12.6 5.7 7.1 0 9.4-3.8 9.4-6.9 0-10.3-23.7-4.6-23.7-18.9 0-6.6 5.9-11.1 13.7-11.1 6.1 0 10.9 2 14.2 5.6l-3 3.7c-3-3.3-7.2-4.8-11.6-4.8-4.8 0-8.2 2.6-8.2 6.4 0 9 23.7 3.8 23.7 18.8 0 5.8-4 11.8-14.8 11.8-6.8-.1-11.9-2.8-15.2-6.5zm55.5 5.7v-3.3c-2.4 2.6-5.7 4-9.6 4-4.9 0-10.1-3.3-10.1-9.6 0-6.5 5.2-9.5 10.1-9.5 4 0 7.3 1.3 9.6 4v-5.2c0-3.9-3.1-6.1-7.3-6.1-3.5 0-6.3 1.3-8.9 4l-2.1-3.1c3.1-3.2 6.8-4.8 11.6-4.8 6.1 0 11.2 2.8 11.2 9.8v19.9h-4.5zm0-6.2v-5.5c-1.7-2.4-4.8-3.6-8-3.6-4.2 0-7.1 2.6-7.1 6.4 0 3.7 2.9 6.3 7.1 6.3 3.2.1 6.3-1.1 8-3.6zm33.1 6.2v-19c0-5.1-2.6-6.7-6.5-6.7-3.5 0-6.9 2.2-8.6 4.5v21.2h-4.5v-29h4.5v4.2c2-2.4 6-4.9 10.3-4.9 6.1 0 9.2 3.1 9.2 9.4v20.3h-4.4zm29.2 0v-40h26.2v4.4h-21.2v12.9h20.8v4.4h-20.8v18.2h-5zm32.8 0v-29h4.5v4.7c2.3-3.1 5.7-5.3 9.7-5.3v4.6c-.5-.1-1.1-.2-1.8-.2-2.8 0-6.5 2.3-7.9 4.6v20.5h-4.5zm37.9 0v-3.3c-2.4 2.6-5.7 4-9.6 4-4.9 0-10.1-3.3-10.1-9.6 0-6.5 5.2-9.5 10.1-9.5 4 0 7.3 1.3 9.6 4v-5.2c0-3.9-3.1-6.1-7.3-6.1-3.5 0-6.3 1.3-8.9 4l-2.1-3.1c3.1-3.2 6.8-4.8 11.6-4.8 6.1 0 11.2 2.8 11.2 9.8v19.9h-4.5zm0-6.2v-5.5c-1.7-2.4-4.8-3.6-8-3.6-4.2 0-7.1 2.6-7.1 6.4 0 3.7 2.9 6.3 7.1 6.3 3.2.1 6.3-1.1 8-3.6zm33.1 6.2v-19c0-5.1-2.6-6.7-6.5-6.7-3.5 0-6.9 2.2-8.6 4.5v21.2h-4.5v-29h4.5v4.2c2-2.4 6-4.9 10.3-4.9 6.1 0 9.2 3.1 9.2 9.4v20.3h-4.4zm11.8-14.5c0-8.6 5.8-15.2 14.5-15.2 5.3 0 8.4 2.2 10.6 5l-3 2.8c-1.9-2.6-4.4-3.8-7.4-3.8-6.2 0-10 4.7-10 11.2s3.8 11.2 10 11.2c3 0 5.5-1.2 7.4-3.8l3 2.8c-2.2 2.9-5.3 5-10.6 5-8.7 0-14.5-6.6-14.5-15.2zm30.6-21.6c0-1.7 1.4-3.1 3-3.1 1.7 0 3.1 1.4 3.1 3.1 0 1.7-1.4 3-3.1 3-1.6 0-3-1.4-3-3zm.8 36.1v-29h4.5v29h-4.5zm10.9-3.9l2.3-3.2c1.9 2.2 5.6 4.1 9.5 4.1 4.4 0 6.8-2.1 6.8-5 0-7-17.9-2.7-17.9-13.4 0-4.5 3.9-8.3 10.8-8.3 4.9 0 8.4 1.9 10.7 4.2l-2.1 3.1c-1.7-2.1-4.9-3.7-8.6-3.7-4 0-6.4 2-6.4 4.6 0 6.4 17.9 2.2 17.9 13.4 0 4.9-3.9 8.8-11.4 8.8-4.6 0-8.6-1.4-11.6-4.6zm28.8-10.6c0-8.6 5.8-15.2 14.5-15.2 5.3 0 8.4 2.2 10.6 5l-3 2.8c-1.9-2.6-4.4-3.8-7.4-3.8-6.2 0-10 4.7-10 11.2s3.8 11.2 10 11.2c3 0 5.5-1.2 7.4-3.8l3 2.8c-2.2 2.9-5.3 5-10.6 5-8.7 0-14.5-6.6-14.5-15.2zm29.7 0c0-8.4 5.5-15.2 14.3-15.2s14.3 6.8 14.3 15.2-5.5 15.2-14.3 15.2-14.3-6.9-14.3-15.2zm23.9 0c0-5.9-3.4-11.2-9.6-11.2s-9.7 5.3-9.7 11.2c0 5.9 3.5 11.2 9.7 11.2s9.6-5.3 9.6-11.2z" fill="black"/><path d="M1245.3 2075.5h584.2c8.3 0 15 6.7 15 15v116.6c0 8.3-6.7 15-15 15h-584.2c-8.3 0-15-6.7-15-15v-116.6c0-8.3 6.7-15 15-15z" fill="none" stroke="#dbdbdb" stroke-width="4.5" stroke-linecap="round" stroke-linejoin="round"/><path d="M1266.3 2102.5h236.2c3.3 0 6 2.7 6 6v3c0 3.3-2.7 6-6 6h-236.2c-3.3 0-6-2.7-6-6v-3c0-3.3 2.7-6 6-6z" fill="#fdfdfd"/><path d="M1263.2 2169.2c0-12.3 9.1-20.7 20.6-20.7 7.1 0 12 3.4 15.2 7.9l-4.2 2.3c-2.3-3.4-6.4-5.8-11-5.8-8.8 0-15.4 6.7-15.4 16.3 0 9.5 6.7 16.3 15.4 16.3 4.6 0 8.7-2.4 11-5.8l4.3 2.3c-3.4 4.6-8.2 7.9-15.2 7.9-11.6 0-20.7-8.4-20.7-20.7zm60.2 20v-3.3c-2.4 2.6-5.7 4-9.6 4-4.9 0-10.1-3.3-10.1-9.6 0-6.5 5.2-9.5 10.1-9.5 4 0 7.3 1.3 9.6 4v-5.2c0-3.9-3.1-6.1-7.3-6.1-3.5 0-6.3 1.3-8.9 4l-2.1-3.1c3.1-3.2 6.8-4.8 11.6-4.8 6.1 0 11.2 2.8 11.2 9.8v19.9h-4.5zm0-6.2v-5.5c-1.7-2.4-4.8-3.6-8-3.6-4.2 0-7.1 2.6-7.1 6.4 0 3.7 2.9 6.3 7.1 6.3 3.2.1 6.2-1.1 8-3.6zm13.5 6.2v-40h4.5v40h-4.5zm12.7-36.1c0-1.7 1.4-3.1 3-3.1 1.7 0 3.1 1.4 3.1 3.1 0 1.7-1.4 3-3.1 3-1.6 0-3-1.4-3-3zm.8 36.1v-29h4.5v29h-4.5zm14.7 0v-25h-4.8v-4h4.8v-2.2c0-5.9 3.2-9.4 8.4-9.4 2.3 0 4.3.5 6.1 2.2l-1.9 2.9c-1-.8-2.1-1.4-3.6-1.4-2.9 0-4.6 2-4.6 5.7v2.2h5.9v4h-5.9v25h-4.4zm14.1-14.5c0-8.4 5.5-15.2 14.3-15.2s14.3 6.8 14.3 15.2-5.5 15.2-14.3 15.2-14.3-6.9-14.3-15.2zm23.9 0c0-5.9-3.4-11.2-9.6-11.2s-9.7 5.3-9.7 11.2c0 5.9 3.5 11.2 9.7 11.2s9.6-5.3 9.6-11.2zm12.1 14.5v-29h4.5v4.7c2.3-3.1 5.7-5.3 9.7-5.3v4.6c-.5-.1-1.1-.2-1.8-.2-2.8 0-6.5 2.3-7.9 4.6v20.5h-4.5zm39.3 0v-19c0-5.1-2.6-6.7-6.5-6.7-3.5 0-6.9 2.2-8.6 4.5v21.2h-4.5v-29h4.5v4.2c2-2.4 6-4.9 10.3-4.9 6.1 0 9.2 3.1 9.2 9.4v20.3h-4.4zm12.7-36.1c0-1.7 1.4-3.1 3-3.1 1.7 0 3.1 1.4 3.1 3.1 0 1.7-1.4 3-3.1 3-1.6 0-3-1.4-3-3zm.8 36.1v-29h4.5v29h-4.5zm31.6 0v-3.3c-2.4 2.6-5.7 4-9.6 4-4.9 0-10.1-3.3-10.1-9.6 0-6.5 5.2-9.5 10.1-9.5 4 0 7.3 1.3 9.6 4v-5.2c0-3.9-3.1-6.1-7.3-6.1-3.5 0-6.3 1.3-8.9 4l-2.1-3.1c3.1-3.2 6.8-4.8 11.6-4.8 6.1 0 11.2 2.8 11.2 9.8v19.9h-4.5zm0-6.2v-5.5c-1.7-2.4-4.8-3.6-8-3.6-4.2 0-7.1 2.6-7.1 6.4 0 3.7 2.9 6.3 7.1 6.3 3.2.1 6.3-1.1 8-3.6z" fill="black"/><path d="M1913.6 2075.5h577.8c8.3 0 15 6.7 15 15v116.6c0 8.3-6.7 15-15 15h-577.8c-8.3 0-15-6.7-15-15v-116.6c0-8.3 6.7-15 15-15z" fill="none" stroke="#dbdbdb" stroke-width="4.5" stroke-linecap="round" stroke-linejoin="round"/><path d="M1933.8 2102.5H2098c3.3 0 6 2.7 6 6v3c0 3.3-2.7 6-6 6h-164.2c-3.3 0-6-2.7-6-6v-3c0-3.3 2.7-6 6-6z" fill="#fdfdfd"/><path d="M1932.9 2185.1l2.5-3.7c2 2.4 4.4 4.1 8.6 4.1 8.1 0 11.3-8.1 11.3-15.7 0-.5 0-1.1-.1-1.6-1.7 2.8-6.2 6.2-11.3 6.2-7.2 0-13.1-4.3-13.1-12.8 0-6.9 5.3-13.1 14-13.1 11.2 0 15.5 9.8 15.5 20.7 0 10.8-5 20.6-16.3 20.6-5.1.1-8.6-1.8-11.1-4.7zm22.1-20.9c-.4-5-3.1-11.2-10-11.2-6.1 0-9.2 4.7-9.2 8.5 0 5.9 4.1 8.6 9.2 8.6 4 0 7.9-2.4 10-5.9zm29.2 25v-10.1h-19v-4.1l17.2-25.7h6.8v25.5h5.6v4.4h-5.6v10.1h-5zm0-35.3l-14 20.9h14v-20.9zm23.3 35.3v-33.4l-6.4 6.8-3-3.1 10-10.3h4.4v40h-5zm12.7-19.9c0-9.8 4.3-20.6 15.3-20.6 10.9 0 15.3 10.9 15.3 20.6 0 9.7-4.4 20.7-15.3 20.7-11 0-15.3-11-15.3-20.7zm25.5 0c0-8-2.6-16.2-10.2-16.2s-10.2 8.2-10.2 16.2 2.6 16.3 10.2 16.3c7.6-.1 10.2-8.4 10.2-16.3zm15.4 19.9l16.1-35.6h-21.5v-4.4h27.3v3.4l-16.4 36.6h-5.5z" fill="black"/><path d="M577.5 1877.5h1917c8.3 0 15 6.7 15 15v116.6c0 8.3-6.7 15-15 15h-1917c-8.3 0-15-6.7-15-15v-116.6c0-8.3 6.7-15 15-15z" fill="none" stroke="#dbdbdb" stroke-width="4.5" stroke-linecap="round" stroke-linejoin="round"/><path d="M598.5 1904.5h233.9c3.3 0 6 2.7 6 6v3c0 3.3-2.7 6-6 6H598.5c-3.3 0-6-2.7-6-6v-3c0-3.3 2.7-6 6-6z" fill="#fdfdfd"/><path d="M604.8 1987.5v-33.4l-6.4 6.8-3-3.1 10-10.3h4.4v40h-5zm12.8-10.1c0-5.3 4.6-9 9.5-10.5-4.6-1.3-8.9-4.3-8.9-9.6 0-7.2 7-10.4 13.7-10.4 6.6 0 13.7 3.2 13.7 10.4 0 5.3-4.3 8.3-8.9 9.6 5 1.5 9.5 5.2 9.5 10.5 0 6.8-6.5 10.9-14.3 10.9-7.9-.1-14.3-4.1-14.3-10.9zm23.6-.6c0-5.2-6.8-7.4-9.3-7.7-2.5.3-9.4 2.5-9.4 7.7 0 4.3 4.4 7 9.4 7 4.9 0 9.3-2.7 9.3-7zm-.6-18.9c0-4.1-3.9-6.6-8.7-6.6-4.9 0-8.7 2.5-8.7 6.6 0 4.9 6.3 6.5 8.7 6.9 2.5-.4 8.7-2 8.7-6.9zm12.7 23.9l3.1-3.3c2.6 3.4 6.1 5.3 11 5.3 5.5 0 9.2-3.7 9.2-8.6 0-5.3-3.8-8.6-9.2-8.6-3.5 0-6.5 1.1-9.2 3.8l-3.7-1.3v-21.6H679v4.4h-19.5v13.9c1.9-1.9 5.3-3.6 9.4-3.6 6.7 0 12.7 4.6 12.7 12.8 0 8.2-6.2 13.2-14.2 13.2-6.8 0-11.1-2.4-14.1-6.4zm51.6 5.7v-40h17.8c7 0 11.2 4.2 11.2 10.2 0 5-3.4 8.4-7 9.2 4.3.7 7.8 5 7.8 9.8 0 6.4-4.3 10.8-11.6 10.8h-18.2zm23.9-29.1c0-3.6-2.4-6.5-6.9-6.5h-12v12.9h12c4.5 0 6.9-2.7 6.9-6.4zm.7 17.8c0-3.7-2.5-6.9-7.4-6.9h-12.2v13.8h12.2c4.7 0 7.4-2.7 7.4-6.9zm11.3-3.2c0-8.4 6-15.2 14.3-15.2 8.8 0 13.9 6.8 13.9 15.5v1.1h-23.5c.4 5.5 4.2 10 10.4 10 3.3 0 6.7-1.3 8.9-3.7l2.2 2.9c-2.9 2.9-6.8 4.4-11.5 4.4-8.6.2-14.7-6-14.7-15zm14.2-11.5c-6.2 0-9.2 5.2-9.5 9.7h19c0-4.3-2.9-9.7-9.5-9.7zm21.2 26v-29h4.5v4.7c2.3-3.1 5.7-5.3 9.7-5.3v4.6c-.5-.1-1.1-.2-1.8-.2-2.8 0-6.5 2.3-7.9 4.6v20.5h-4.5zm19.8 0v-29h4.5v4.7c2.3-3.1 5.7-5.3 9.7-5.3v4.6c-.5-.1-1.1-.2-1.8-.2-2.8 0-6.5 2.3-7.9 4.6v20.5H796zm18.9 7.3c.7.3 1.7.5 2.5.5 2 0 3.3-.7 4.3-3.1l1.9-4.4-12.1-29.3h4.9l9.7 23.8 9.6-23.8h4.9l-14.5 34.9c-1.7 4.2-4.7 5.8-8.5 5.9-1 0-2.5-.2-3.3-.4l.6-4.1zm43.6-12.9l2.9-3.8c2.6 2.9 7 5.7 12.6 5.7 7.1 0 9.4-3.8 9.4-6.9 0-10.3-23.7-4.6-23.7-18.9 0-6.6 5.9-11.1 13.7-11.1 6.1 0 10.9 2 14.2 5.6l-3 3.7c-3-3.3-7.2-4.8-11.6-4.8-4.8 0-8.2 2.6-8.2 6.4 0 9 23.7 3.8 23.7 18.8 0 5.8-4 11.8-14.8 11.8-6.8-.2-11.9-2.8-15.2-6.5zm37.2-.5v-19h-4.8v-4h4.8v-7.9h4.5v7.9h5.9v4h-5.9v18c0 2.2 1 3.7 2.9 3.7 1.3 0 2.5-.5 3.1-1.2l1.3 3.4c-1.1 1.1-2.8 1.9-5.4 1.9-4.2 0-6.4-2.4-6.4-6.8z" fill="black"/><path d="M577.5 1678h920.9c8.3 0 15 6.7 15 15v116.6c0 8.3-6.7 15-15 15H577.5c-8.3 0-15-6.7-15-15V1693c0-8.3 6.7-15 15-15z" fill="none" stroke="#dbdbdb" stroke-width="4.5" stroke-linecap="round" stroke-linejoin="round"/><path d="M598.5 1705h179.9c3.3 0 6 2.7 6 6v3c0 3.3-2.7 6-6 6H598.5c-3.3 0-6-2.7-6-6v-3c0-3.3 2.7-6 6-6z" fill="#fdfdfd"/><path d="M595 1785.1l2.6-3.8c1.7 2.1 4.1 4 7.6 4 4.9 0 8-3.4 8-8.4V1749h5v28c0 8.7-5.6 12.8-12.7 12.8-4.4-.1-7.8-1.5-10.5-4.7zm30.6-10.6c0-8.4 6-15.2 14.3-15.2 8.8 0 13.9 6.8 13.9 15.5v1.1h-23.5c.4 5.5 4.2 10 10.4 10 3.3 0 6.7-1.3 8.9-3.7l2.2 2.9c-2.9 2.9-6.8 4.4-11.5 4.4-8.5.2-14.7-6-14.7-15zm14.2-11.5c-6.2 0-9.2 5.2-9.5 9.7h19c0-4.4-2.9-9.7-9.5-9.7zm40.8 26v-19c0-5.1-2.6-6.7-6.5-6.7-3.5 0-6.9 2.2-8.6 4.5v21.2H661v-29h4.5v4.2c2-2.4 6-4.9 10.3-4.9 6.1 0 9.2 3.1 9.2 9.4v20.3h-4.4zm33.1 0v-19c0-5.1-2.6-6.7-6.5-6.7-3.5 0-6.9 2.2-8.6 4.5v21.2h-4.5v-29h4.5v4.2c2-2.4 6-4.9 10.3-4.9 6.1 0 9.2 3.1 9.2 9.4v20.3h-4.4zm12.6 7.2c.7.3 1.7.5 2.5.5 2 0 3.3-.7 4.3-3.1l1.9-4.4-12.1-29.3h4.9l9.7 23.8 9.6-23.8h4.9l-14.5 34.9c-1.7 4.2-4.7 5.8-8.5 5.9-1 0-2.5-.2-3.3-.4l.6-4.1z" fill="black"/><path d="M1581.3 1678h913.2c8.3 0 15 6.7 15 15v116.6c0 8.3-6.7 15-15 15h-913.2c-8.3 0-15-6.7-15-15V1693c0-8.3 6.7-15 15-15z" fill="none" stroke="#dbdbdb" stroke-width="4.5" stroke-linecap="round" stroke-linejoin="round"/><path d="M1602.3 1705h185.2c3.3 0 6 2.7 6 6v3c0 3.3-2.7 6-6 6h-185.2c-3.3 0-6-2.7-6-6v-3c0-3.3 2.7-6 6-6z" fill="#fdfdfd"/><path d="M1630.1 1788.8l-10.2-15.9h-8v15.9h-5v-40h16.1c7.3 0 12.5 4.7 12.5 12.1 0 7.2-4.9 11.2-10.4 11.6l10.8 16.3h-5.8zm.3-28c0-4.5-3.2-7.6-8-7.6h-10.5v15.3h10.5c4.8 0 8-3.2 8-7.7zm9.4 13.4c0-8.4 5.5-15.2 14.3-15.2s14.3 6.8 14.3 15.2-5.5 15.2-14.3 15.2-14.3-6.8-14.3-15.2zm23.9 0c0-5.9-3.4-11.2-9.6-11.2s-9.7 5.3-9.7 11.2c0 5.9 3.5 11.2 9.7 11.2s9.6-5.2 9.6-11.2zm9.5 10.7l2.3-3.2c1.9 2.2 5.6 4.1 9.5 4.1 4.4 0 6.8-2.1 6.8-5 0-7-17.9-2.7-17.9-13.4 0-4.5 3.9-8.3 10.8-8.3 4.9 0 8.4 1.9 10.7 4.2l-2.1 3.1c-1.7-2.1-4.9-3.7-8.6-3.7-4 0-6.4 2-6.4 4.6 0 6.4 17.9 2.2 17.9 13.4 0 4.9-3.9 8.8-11.4 8.8-4.6 0-8.6-1.5-11.6-4.6zm28.8-10.7c0-8.4 6-15.2 14.3-15.2 8.8 0 13.9 6.8 13.9 15.5v1.1h-23.5c.4 5.5 4.2 10 10.4 10 3.3 0 6.7-1.3 8.9-3.7l2.2 2.9c-2.9 2.9-6.8 4.4-11.5 4.4-8.5.3-14.7-5.9-14.7-15zm14.2-11.4c-6.2 0-9.2 5.2-9.5 9.7h19c0-4.4-2.9-9.7-9.5-9.7zm40.8 26v-19c0-5.1-2.6-6.7-6.5-6.7-3.5 0-6.9 2.2-8.6 4.5v21.2h-4.5v-29h4.5v4.2c2-2.4 6-4.9 10.3-4.9 6.1 0 9.2 3.1 9.2 9.4v20.3h-4.4z" fill="black"/><path d="M569.8 1621.1v-30h13.4c5.2 0 8.4 3.1 8.4 7.6 0 3.8-2.5 6.3-5.3 6.9 3.2.5 5.8 3.8 5.8 7.4 0 4.8-3.2 8.1-8.7 8.1h-13.6zm18-21.8c0-2.7-1.8-4.9-5.2-4.9h-9v9.7h9c3.4 0 5.2-2.1 5.2-4.8zm.5 13.3c0-2.7-1.9-5.2-5.6-5.2h-9.2v10.3h9.2c3.6.1 5.6-1.9 5.6-5.1zm9.8 8.5v-30h3.7v30h-3.7zm10.8 0v-30h3.7v26.7h13.9v3.3h-17.6zm23 0v-30h3.7v26.7h13.9v3.3h-17.6zm22.9 0v-30h3.7v30h-3.7zm32 0l-17.5-23.9v23.9h-3.7v-30h3.8l17.3 23.4v-23.4h3.7v30h-3.6zm9.4-15c0-9.3 6.9-15.5 15.4-15.5 5.3 0 9 2.3 11.7 5.6l-3 1.8c-1.9-2.4-5.1-4.1-8.7-4.1-6.6 0-11.6 5-11.6 12.2 0 7.1 5 12.2 11.6 12.2 3.6 0 6.6-1.8 8.1-3.2v-6.1h-10.3v-3.3h14v10.8c-2.8 3.1-6.9 5.2-11.8 5.2-8.5 0-15.4-6.3-15.4-15.6zm66.3 15l-2.7-6.7h-14.9l-2.7 6.7H738l12.1-30h4.6l12.1 30h-4.3zm-10.1-26.1l-6.4 16.2h12.7l-6.3-16.2zm18.3 26.1v-30H781c9.3 0 15.4 6.5 15.4 15s-6.1 15-15.4 15h-10.3zm21.8-15c0-6.5-4.1-11.7-11.5-11.7h-6.5v23.4h6.5c7.3 0 11.5-5.2 11.5-11.7zm9.7 15v-30h10.3c9.3 0 15.4 6.5 15.4 15s-6.1 15-15.4 15h-10.3zm21.8-15c0-6.5-4.1-11.7-11.5-11.7H806v23.4h6.5c7.3 0 11.5-5.2 11.5-11.7zm27.1 15l-7.6-11.9h-6v11.9h-3.7v-30h12.1c5.5 0 9.4 3.5 9.4 9 0 5.4-3.7 8.4-7.8 8.7l8.1 12.2h-4.5zm.2-21c0-3.4-2.4-5.7-6-5.7h-7.9v11.5h7.9c3.6 0 6-2.4 6-5.8zm9.8 21v-30h19.7v3.3h-15.9v9.7h15.6v3.3h-15.6v10.3h15.9v3.3h-19.7zm23.8-4.2l2.2-2.8c2 2.2 5.2 4.3 9.4 4.3 5.4 0 7.1-2.9 7.1-5.2 0-7.7-17.8-3.5-17.8-14.2 0-5 4.4-8.3 10.3-8.3 4.6 0 8.1 1.5 10.7 4.2l-2.2 2.7c-2.2-2.5-5.4-3.6-8.7-3.6-3.6 0-6.2 1.9-6.2 4.8 0 6.8 17.8 2.9 17.8 14.1 0 4.4-3 8.8-11.1 8.8-5.2-.1-9-2-11.5-4.8zm26.4 0l2.2-2.8c2 2.2 5.2 4.3 9.4 4.3 5.4 0 7.1-2.9 7.1-5.2 0-7.7-17.8-3.5-17.8-14.2 0-5 4.4-8.3 10.3-8.3 4.6 0 8.1 1.5 10.7 4.2l-2.2 2.7c-2.2-2.5-5.4-3.6-8.7-3.6-3.6 0-6.2 1.9-6.2 4.8 0 6.8 17.8 2.9 17.8 14.1 0 4.4-3 8.8-11.1 8.8-5.2-.1-9.1-2-11.5-4.8z" fill="#757575"/><path d="M577.5 1351h920.9c8.3 0 15 6.7 15 15v116.6c0 8.3-6.7 15-15 15H577.5c-8.3 0-15-6.7-15-15V1366c0-8.3 6.7-15 15-15z" fill="none" stroke="#dbdbdb" stroke-width="4.5" stroke-linecap="round" stroke-linejoin="round"/><path d="M1485.9 1477.8H1358c-4.1 0-7.5-3.4-7.5-7.5v-92.1c0-4.1 3.4-7.5 7.5-7.5h127.9c4.1 0 7.5 3.4 7.5 7.5v92.1c0 4.2-3.4 7.5-7.5 7.5zm-89.1-69.9l-9 22.6-3.6-19.2c-.4-2.1-2.1-3.4-4-3.4h-14.7l-.2 1c3 .7 6.4 1.7 8.5 2.8 1.3.7 1.6 1.3 2 2.9l6.9 26.5h9.1l14-33.3h-9zm12.7 0l-7.1 33.3h8.6l7.1-33.3h-8.6zm25.5-.6c-8.5 0-14.5 4.5-14.6 11-.1 4.8 4.3 7.5 7.5 9.1 3.4 1.6 4.5 2.7 4.5 4.1 0 2.2-2.7 3.2-5.2 3.3-4.3.1-6.8-1.2-8.8-2.1l-1.6 7.3c2 .9 5.7 1.7 9.6 1.8 9.1 0 15-4.5 15-11.4 0-8.8-12.1-9.3-12.1-13.2 0-1.2 1.2-2.5 3.7-2.8 1.2-.2 4.6-.3 8.5 1.5l1.5-7.1c-2-.8-4.7-1.5-8-1.5zm30 .6h-7.3c-1.7 0-3 1-3.7 2.4l-12.9 30.8h9l1.8-5h11l1 5h8l-6.9-33.2zm-6.1 9l2.6 12.5h-7.1l4.5-12.5z" fill="#6772e5"/><path d="M598.5 1378h416.9c3.3 0 6 2.7 6 6v3c0 3.3-2.7 6-6 6H598.5c-3.3 0-6-2.7-6-6v-3c0-3.3 2.7-6 6-6z" fill="#fdfdfd"/><path d="M615.6 1460.8v-10.1h-19v-4.1l17.2-25.7h6.8v25.5h5.6v4.4h-5.6v10.1h-5zm0-35.4l-14 20.9h14v-20.9zm15.8 35.4v-4c14.4-11.3 22.2-18 22.2-24.9 0-5.1-4.2-7.3-8.3-7.3-4.8 0-8.5 2-10.9 5l-3.1-3.2c3.1-4 8.3-6.3 13.9-6.3 6.7 0 13.4 3.8 13.4 11.8 0 8.2-8.3 15.6-19.4 24.4h19.6v4.4h-27.4zm52.9 0v-10.1h-19v-4.1l17.2-25.7h6.8v25.5h5.6v4.4h-5.6v10.1h-5zm0-35.4l-14 20.9h14v-20.9zm15.8 35.4v-4c14.4-11.3 22.2-18 22.2-24.9 0-5.1-4.2-7.3-8.3-7.3-4.8 0-8.5 2-10.9 5l-3.1-3.2c3.1-4 8.3-6.3 13.9-6.3 6.7 0 13.4 3.8 13.4 11.8 0 8.2-8.3 15.6-19.4 24.4h19.6v4.4h-27.4zm68.5 0v-10.1h-19v-4.1l17.2-25.7h6.8v25.5h5.6v4.4h-5.6v10.1h-5zm0-35.4l-14 20.9h14v-20.9zm15.8 35.4v-4c14.4-11.3 22.2-18 22.2-24.9 0-5.1-4.2-7.3-8.3-7.3-4.8 0-8.5 2-10.9 5l-3.1-3.2c3.1-4 8.3-6.3 13.9-6.3 6.7 0 13.4 3.8 13.4 11.8 0 8.2-8.3 15.6-19.4 24.4h19.6v4.4h-27.4zm52.9 0v-10.1h-19v-4.1l17.2-25.7h6.8v25.5h5.6v4.4h-5.6v10.1h-5zm0-35.4l-14 20.9h14v-20.9zm15.8 35.4v-4c14.4-11.3 22.2-18 22.2-24.9 0-5.1-4.2-7.3-8.3-7.3-4.8 0-8.5 2-10.9 5l-3.1-3.2c3.1-4 8.3-6.3 13.9-6.3 6.7 0 13.4 3.8 13.4 11.8 0 8.2-8.3 15.6-19.4 24.4h19.6v4.4h-27.4zm68.5 0v-10.1h-19v-4.1l17.2-25.7h6.8v25.5h5.6v4.4h-5.6v10.1h-5zm0-35.4l-14 20.9h14v-20.9zm15.8 35.4v-4c14.4-11.3 22.2-18 22.2-24.9 0-5.1-4.2-7.3-8.3-7.3-4.8 0-8.5 2-10.9 5l-3.1-3.2c3.1-4 8.3-6.3 13.9-6.3 6.7 0 13.4 3.8 13.4 11.8 0 8.2-8.3 15.6-19.4 24.4h19.6v4.4h-27.4zm52.9 0v-10.1h-19v-4.1l17.2-25.7h6.8v25.5h5.6v4.4h-5.6v10.1h-5zm0-35.4l-14 20.9h14v-20.9zm15.8 35.4v-4c14.4-11.3 22.2-18 22.2-24.9 0-5.1-4.2-7.3-8.3-7.3-4.8 0-8.5 2-10.9 5l-3.1-3.2c3.1-4 8.3-6.3 13.9-6.3 6.7 0 13.4 3.8 13.4 11.8 0 8.2-8.3 15.6-19.4 24.4h19.6v4.4h-27.4zm68.5 0v-10.1h-19v-4.1l17.2-25.7h6.8v25.5h5.6v4.4h-5.6v10.1h-5zm0-35.4l-14 20.9h14v-20.9zm15.8 35.4v-4c14.4-11.3 22.2-18 22.2-24.9 0-5.1-4.2-7.3-8.3-7.3-4.8 0-8.5 2-10.9 5l-3.1-3.2c3.1-4 8.3-6.3 13.9-6.3 6.7 0 13.4 3.8 13.4 11.8 0 8.2-8.3 15.6-19.4 24.4h19.6v4.4h-27.4zm52.9 0v-10.1h-19v-4.1l17.2-25.7h6.8v25.5h5.6v4.4h-5.6v10.1h-5zm0-35.4l-14 20.9h14v-20.9zm15.8 35.4v-4c14.4-11.3 22.2-18 22.2-24.9 0-5.1-4.2-7.3-8.3-7.3-4.8 0-8.5 2-10.9 5l-3.1-3.2c3.1-4 8.3-6.3 13.9-6.3 6.7 0 13.4 3.8 13.4 11.8 0 8.2-8.3 15.6-19.4 24.4h19.6v4.4h-27.4z" fill="black"/><path d="M1581.3 1351h416.2c8.3 0 15 6.7 15 15v116.6c0 8.3-6.7 15-15 15h-416.2c-8.3 0-15-6.7-15-15V1366c0-8.3 6.7-15 15-15z" fill="none" stroke="#dbdbdb" stroke-width="4.5" stroke-linecap="round" stroke-linejoin="round"/><path d="M1602.3 1378h155.2c3.3 0 6 2.7 6 6v3c0 3.3-2.7 6-6 6h-155.2c-3.3 0-6-2.7-6-6v-3c0-3.3 2.7-6 6-6z" fill="#fdfdfd"/><path d="M1604.8 1440.5c0-9.8 4.3-20.6 15.3-20.6 10.9 0 15.3 10.9 15.3 20.6 0 9.7-4.4 20.7-15.3 20.7-11 0-15.3-10.9-15.3-20.7zm25.5 0c0-8-2.6-16.2-10.2-16.2s-10.2 8.2-10.2 16.2 2.6 16.3 10.2 16.3 10.2-8.3 10.2-16.3zm13.2 15.9l2.5-3.7c2 2.4 4.4 4.1 8.6 4.1 8.1 0 11.3-8.1 11.3-15.7 0-.5 0-1.1-.1-1.6-1.7 2.8-6.2 6.2-11.3 6.2-7.2 0-13.1-4.3-13.1-12.8 0-6.9 5.3-13.1 14-13.1 11.2 0 15.5 9.8 15.5 20.7 0 10.8-5 20.6-16.3 20.6-5.1.1-8.6-1.8-11.1-4.7zm22.1-21c-.4-5-3.1-11.2-10-11.2-6.1 0-9.2 4.7-9.2 8.5 0 5.9 4.1 8.6 9.2 8.6 4 .1 7.9-2.3 10-5.9zm23.8 26.3l14.2-42.4h3.5l-14.2 42.4h-3.5zm36.5-1.2v-4c14.4-11.3 22.2-18 22.2-24.9 0-5.1-4.2-7.3-8.3-7.3-4.8 0-8.5 2-10.9 5l-3.1-3.2c3.1-4 8.3-6.3 13.9-6.3 6.7 0 13.4 3.8 13.4 11.8 0 8.2-8.3 15.6-19.4 24.4h19.6v4.4h-27.4zm35.1-20c0-9.8 4.3-20.6 15.3-20.6 10.9 0 15.3 10.9 15.3 20.6 0 9.7-4.4 20.7-15.3 20.7-11 0-15.3-10.9-15.3-20.7zm25.5 0c0-8-2.6-16.2-10.2-16.2s-10.2 8.2-10.2 16.2 2.6 16.3 10.2 16.3 10.2-8.3 10.2-16.3zm18.8 20v-33.4l-6.4 6.8-3-3.1 10-10.3h4.4v40h-5zm14.7-4.1l2.5-3.7c2 2.4 4.4 4.1 8.6 4.1 8.1 0 11.3-8.1 11.3-15.7 0-.5 0-1.1-.1-1.6-1.7 2.8-6.2 6.2-11.3 6.2-7.2 0-13.1-4.3-13.1-12.8 0-6.9 5.3-13.1 14-13.1 11.2 0 15.5 9.8 15.5 20.7 0 10.8-5 20.6-16.3 20.6-5.1.1-8.6-1.8-11.1-4.7zm22.1-21c-.4-5-3.1-11.2-10-11.2-6.1 0-9.2 4.7-9.2 8.5 0 5.9 4.1 8.6 9.2 8.6 4 .1 7.9-2.3 10-5.9z" fill="black"/><path d="M2077.8 1351h416.7c8.3 0 15 6.7 15 15v116.6c0 8.3-6.7 15-15 15h-416.7c-8.3 0-15-6.7-15-15V1366c0-8.3 6.7-15 15-15z" fill="none" stroke="#dbdbdb" stroke-width="4.5" stroke-linecap="round" stroke-linejoin="round"/><path d="M2098.8 1378h68.2c3.3 0 6 2.7 6 6v3c0 3.3-2.7 6-6 6h-68.2c-3.3 0-6-2.7-6-6v-3c0-3.3 2.7-6 6-6zm319.5 16.5h48c3.3 0 6 2.7 6 6v48c0 3.3-2.7 6-6 6h-48c-3.3 0-6-2.7-6-6v-48c0-3.3 2.7-6 6-6z" fill="#fdfdfd"/><path d="M2103.5 1461.2l16.1-35.6h-21.5v-4.4h27.3v3.4l-16.4 36.6h-5.5zm26.7-10.1c0-5.3 4.6-9 9.5-10.5-4.6-1.3-8.9-4.3-8.9-9.6 0-7.2 7-10.4 13.7-10.4 6.6 0 13.7 3.2 13.7 10.4 0 5.3-4.3 8.3-8.9 9.6 5 1.5 9.5 5.2 9.5 10.5 0 6.8-6.5 10.9-14.3 10.9-7.8 0-14.3-4-14.3-10.9zm23.7-.5c0-5.2-6.8-7.4-9.3-7.7-2.5.3-9.4 2.5-9.4 7.7 0 4.3 4.4 7 9.4 7 4.9-.1 9.3-2.7 9.3-7zm-.6-18.9c0-4.1-3.9-6.6-8.7-6.6-4.9 0-8.7 2.5-8.7 6.6 0 4.9 6.3 6.5 8.7 6.9 2.4-.4 8.7-2.1 8.7-6.9zm13.7 25.4l2.5-3.7c2 2.4 4.4 4.1 8.6 4.1 8.1 0 11.3-8.1 11.3-15.7 0-.5 0-1.1-.1-1.6-1.7 2.8-6.2 6.2-11.3 6.2-7.2 0-13.1-4.3-13.1-12.8 0-6.9 5.3-13.1 14-13.1 11.2 0 15.5 9.8 15.5 20.7 0 10.8-5 20.6-16.3 20.6-5.1.1-8.6-1.8-11.1-4.7zm22.2-20.9c-.4-5-3.1-11.2-10-11.2-6.1 0-9.2 4.7-9.2 8.5 0 5.9 4.1 8.6 9.2 8.6 4 0 7.9-2.4 10-5.9z" fill="black"/><path d="M567 1279.1c0-9.2 6.8-15.5 15.4-15.5 5.3 0 9 2.6 11.4 5.9l-3.2 1.8c-1.7-2.5-4.8-4.4-8.2-4.4-6.6 0-11.6 5-11.6 12.2 0 7.1 5 12.2 11.6 12.2 3.4 0 6.5-1.8 8.2-4.4l3.2 1.8c-2.5 3.4-6.1 5.9-11.4 5.9-8.6 0-15.4-6.3-15.4-15.5zm52.9 15l-2.7-6.7h-14.9l-2.7 6.7h-4.3l12.1-30h4.6l12.1 30h-4.2zm-10.1-26.1l-6.4 16.2h12.7l-6.3-16.2zm35.7 26.1l-7.6-11.9h-6v11.9h-3.7v-30h12.1c5.5 0 9.4 3.5 9.4 9 0 5.4-3.7 8.4-7.8 8.7l8.1 12.2h-4.5zm.2-21c0-3.4-2.4-5.7-6-5.7h-7.9v11.5h7.9c3.6 0 6-2.4 6-5.8zm9.8 21v-30h10.3c9.3 0 15.4 6.5 15.4 15s-6.1 15-15.4 15h-10.3zm21.7-15c0-6.5-4.1-11.7-11.5-11.7h-6.5v23.4h6.5c7.3 0 11.5-5.2 11.5-11.7zm21.4 15v-30h10.3c9.3 0 15.4 6.5 15.4 15s-6.1 15-15.4 15h-10.3zm21.7-15c0-6.5-4.1-11.7-11.5-11.7h-6.5v23.4h6.5c7.3 0 11.5-5.2 11.5-11.7zm9.8 15v-30h19.7v3.3h-15.9v9.7h15.6v3.3h-15.6v10.3h15.9v3.3h-19.7zm33 0v-26.7h-9.5v-3.3h22.8v3.3h-9.5v26.7h-3.8zm36.6 0l-2.7-6.7h-14.9l-2.7 6.7h-4.3l12.1-30h4.6l12.1 30h-4.2zm-10.1-26.1l-6.4 16.2h12.7l-6.3-16.2zm18.3 26.1v-30h3.7v30h-3.7zm10.8 0v-30h3.7v26.7h13.9v3.3h-17.6zm21.1-4.2l2.2-2.8c2 2.2 5.2 4.3 9.4 4.3 5.4 0 7.1-2.9 7.1-5.2 0-7.7-17.8-3.5-17.8-14.2 0-5 4.4-8.3 10.3-8.3 4.6 0 8.1 1.5 10.7 4.2l-2.2 2.7c-2.2-2.5-5.4-3.6-8.7-3.6-3.6 0-6.2 1.9-6.2 4.8 0 6.8 17.8 2.9 17.8 14.1 0 4.4-3 8.8-11.1 8.8-5.2-.1-9-2-11.5-4.8z" fill="#757575"/><path d="M562.5 1144h1947v6h-1947v-6z" fill="#fdfdfd"/><path d="M562.5 1144h453v6h-453v-6zM568.6 1085.1c0-11.1 8.2-18.6 18.5-18.6 6.4 0 10.8 3.1 13.7 7.1l-3.8 2.1c-2.1-3-5.8-5.2-9.9-5.2-7.9 0-13.9 6-13.9 14.6 0 8.5 6 14.6 13.9 14.6 4.1 0 7.8-2.2 9.9-5.2l3.8 2.1c-3 4.1-7.3 7.1-13.7 7.1-10.3.1-18.5-7.5-18.5-18.6zm37.8 18V1077h4.1v4.2c2.1-2.8 5.1-4.8 8.7-4.8v4.2c-.5-.1-1-.2-1.6-.2-2.5 0-5.9 2.1-7.1 4.2v18.5h-4.1zm16.3-13c0-7.6 5.4-13.7 12.9-13.7 7.9 0 12.5 6.2 12.5 14v1H627c.3 4.9 3.8 9 9.4 9 3 0 6-1.2 8-3.3l1.9 2.6c-2.6 2.6-6.1 4-10.4 4-7.6.1-13.2-5.5-13.2-13.6zm12.8-10.4c-5.6 0-8.3 4.7-8.5 8.7h17.1c0-3.9-2.6-8.7-8.6-8.7zm38 23.4v-3.9c-1.9 2.6-5.1 4.5-8.8 4.5-6.8 0-11.6-5.2-11.6-13.7 0-8.3 4.8-13.7 11.6-13.7 3.5 0 6.7 1.7 8.8 4.6V1067h4v36h-4zm0-7.1v-11.8c-1.5-2.3-4.6-4.2-7.8-4.2-5.2 0-8.4 4.3-8.4 10.1s3.1 10 8.4 10c3.2.1 6.4-1.8 7.8-4.1zm11.5-25.4c0-1.5 1.2-2.8 2.7-2.8 1.5 0 2.8 1.2 2.8 2.8 0 1.5-1.2 2.7-2.8 2.7-1.5 0-2.7-1.2-2.7-2.7zm.7 32.5V1077h4.1v26.1h-4.1zm12.9-5.4v-17.1h-4.3v-3.6h4.3v-7.1h4v7.1h5.3v3.6h-5.3v16.2c0 1.9.9 3.3 2.6 3.3 1.1 0 2.2-.5 2.8-1.1l1.2 3c-1 1-2.5 1.7-4.9 1.7-3.7.1-5.7-2.1-5.7-6zm25 6.5l12.8-38.2h3.2l-12.8 38.2h-3.2zm34.1-1.1v-36H770c11.2 0 18.5 7.8 18.5 18 0 10.3-7.3 18-18.5 18h-12.3zm26.2-18c0-7.8-4.9-14-13.8-14h-7.8v28h7.8c8.7 0 13.8-6.2 13.8-14zm9.9 5c0-7.6 5.4-13.7 12.9-13.7 7.9 0 12.5 6.2 12.5 14v1h-21.1c.3 4.9 3.8 9 9.4 9 3 0 6-1.2 8-3.3l1.9 2.6c-2.6 2.6-6.1 4-10.4 4-7.6.1-13.2-5.5-13.2-13.6zm12.8-10.4c-5.6 0-8.3 4.7-8.5 8.7h17.1c0-3.9-2.6-8.7-8.6-8.7zm19.2 23.4v-36h4.1v13.9c2.1-2.9 5.2-4.6 8.8-4.6 6.8 0 11.6 5.4 11.6 13.7 0 8.5-4.8 13.7-11.6 13.7-3.7 0-6.9-1.9-8.8-4.5v3.9h-4.1zm11.8-2.9c5.3 0 8.4-4.3 8.4-10 0-5.8-3.1-10.1-8.4-10.1-3.2 0-6.4 1.9-7.8 4.2v11.8c1.4 2.2 4.6 4.1 7.8 4.1zm18.5-29.6c0-1.5 1.2-2.8 2.7-2.8 1.5 0 2.8 1.2 2.8 2.8 0 1.5-1.2 2.7-2.8 2.7-1.4 0-2.7-1.2-2.7-2.7zm.7 32.5V1077h4.1v26.1h-4.1zm13-5.4v-17.1h-4.3v-3.6h4.3v-7.1h4v7.1h5.3v3.6h-5.3v16.2c0 1.9.9 3.3 2.6 3.3 1.1 0 2.2-.5 2.8-1.1l1.2 3c-1 1-2.5 1.7-4.9 1.7-3.8.1-5.7-2.1-5.7-6zm27.7-12.6c0-11.1 8.2-18.6 18.5-18.6 6.4 0 10.8 3.1 13.7 7.1l-3.8 2.1c-2.1-3-5.8-5.2-9.9-5.2-7.9 0-13.9 6-13.9 14.6 0 8.5 6 14.6 13.9 14.6 4.1 0 7.8-2.2 9.9-5.2l3.8 2.1c-3 4.1-7.3 7.1-13.7 7.1-10.4.1-18.5-7.5-18.5-18.6zm54.1 18v-3c-2.2 2.4-5.1 3.6-8.6 3.6-4.4 0-9.1-3-9.1-8.6 0-5.8 4.7-8.6 9.1-8.6 3.6 0 6.5 1.1 8.6 3.6v-4.7c0-3.5-2.8-5.5-6.6-5.5-3.1 0-5.7 1.1-8 3.6l-1.9-2.8c2.8-2.9 6.2-4.3 10.4-4.3 5.5 0 10.1 2.5 10.1 8.8v17.9h-4zm0-5.5v-4.9c-1.6-2.2-4.3-3.2-7.2-3.2-3.8 0-6.4 2.4-6.4 5.7 0 3.3 2.6 5.7 6.4 5.7 2.9 0 5.6-1.1 7.2-3.3zm12.1 5.5V1077h4.1v4.2c2.1-2.8 5.1-4.8 8.7-4.8v4.2c-.5-.1-1-.2-1.6-.2-2.5 0-5.9 2.1-7.1 4.2v18.5h-4.1zm36.7 0v-3.9c-1.9 2.6-5.1 4.5-8.8 4.5-6.8 0-11.6-5.2-11.6-13.7 0-8.3 4.8-13.7 11.6-13.7 3.5 0 6.7 1.7 8.8 4.6V1067h4v36h-4zm0-7.1v-11.8c-1.5-2.3-4.6-4.2-7.8-4.2-5.2 0-8.4 4.3-8.4 10.1s3.1 10 8.4 10c3.3.1 6.4-1.8 7.8-4.1z" fill="#0080ff"/><path d="M2052.4 485.2c17 0 30.8 13.8 30.8 30.8s-13.8 30.8-30.8 30.8-30.8-13.8-30.8-30.8 13.8-30.8 30.8-30.8z" fill="none" stroke="#0080ff" stroke-width="7.5" stroke-linecap="round" stroke-linejoin="round" opacity=".302"/><path d="M2128.9 502.5h224.2c3.3 0 6 2.7 6 6v15c0 3.3-2.7 6-6 6h-224.2c-3.3 0-6-2.7-6-6v-15c0-3.3 2.7-6 6-6z" opacity=".302" fill="#0080ff"/><path d="M1399.9 485.2c17 0 30.8 13.8 30.8 30.8s-13.8 30.8-30.8 30.8-30.8-13.8-30.8-30.8 13.8-30.8 30.8-30.8z" stroke="#0080ff" stroke-width="7.5" fill="none" stroke-linecap="round" stroke-linejoin="round"/><path d="M1476.4 502.5h224.2c3.3 0 6 2.7 6 6v15c0 3.3-2.7 6-6 6h-224.2c-3.3 0-6-2.7-6-6v-15c0-3.3 2.7-6 6-6z" fill="#0080ff"/><path d="M732.4 485.2c17 0 30.8 13.8 30.8 30.8s-13.8 30.8-30.8 30.8-30.8-13.8-30.8-30.8 13.8-30.8 30.8-30.8z" fill="none" stroke="#0080ff" stroke-width="7.5" stroke-linecap="round" stroke-linejoin="round" opacity=".302"/><path d="M808.9 502.5h224.2c3.3 0 6 2.7 6 6v15c0 3.3-2.7 6-6 6H808.9c-3.3 0-6-2.7-6-6v-15c0-3.3 2.7-6 6-6z" opacity=".302" fill="#0080ff"/><path d="M933 352.3v-21.6c0-2.5-.6-4.4-1.8-5.9-1.2-1.4-2.8-2.1-4.9-2.1-2.4 0-4.2.8-5.6 2.4-1.3 1.6-2 3.8-2 6.7v20.6h-9.4V315h9.2v2.3c2.3-2.1 5.3-3.2 9-3.2 4.6 0 8.3 1.5 10.9 4.4 2.6 2.9 3.9 7 3.9 12.2v21.6H933zm-39.8-3.1c-3 2.5-6.4 3.9-10 3.9-3.6 0-6.6-1-9.1-3.1-2.4-2.1-3.6-5-3.6-8.5 0-4 1.5-7.1 4.3-9.3 2.8-2.2 6.6-3.3 11.3-3.3 2.3 0 4.6.4 6.9 1.1v-1.8c0-1.7-.6-3-1.8-4-1.2-1-2.9-1.6-4.8-1.6-3.6 0-6.4 1.4-8.9 5.3l-6-5.8-.1-.1c1.5-2.7 3.9-4.7 6.4-6 2.6-1.3 5.6-2 8.7-2 4.9 0 8.8 1.2 11.7 3.7 2.9 2.4 4.3 6 4.3 10.5v24h-9.2v-3zm-.2-10.9c-2.5-.9-4.9-1.4-7.1-1.4-1.9 0-3.4.4-4.5 1.1-1 .7-1.5 1.7-1.5 3 0 1.1.4 2 1.3 2.7.9.7 2.1 1.1 3.8 1.1 3.3 0 6.1-1 8.1-2.9v-3.6zm-52-1.6c.2 2.4 1.1 4.3 2.7 5.7 1.6 1.5 3.8 2.3 6.4 2.3 1.8 0 3.3-.3 4.7-1 .9-.5 1.8-1.1 2.7-2 .7-.7 1.5-1.5 2.1-2.2l6.1 5.9-.2.3c-3.9 5-9.1 7.6-15.4 7.6-5.6 0-10.1-1.8-13.6-5.4-3.4-3.6-5.2-8.3-5.2-13.9 0-5.5 1.6-10.2 4.7-14 3.2-3.8 7.5-5.7 12.7-5.7 2.9 0 5.5.6 7.8 1.6 2.2 1.1 4.1 2.6 5.4 4.4 1.3 1.8 2.3 3.9 3 6.1.7 2.2 1 4.5 1 6.9l-.1 3.4H841zm13.1-12.1c-1.2-1.3-3-1.9-5.2-1.9-2 0-3.6.6-4.9 1.9-1.2 1.2-2 2.6-2.5 4.4H856c-.1-1.7-.7-3.2-1.9-4.4zM823.5 339l6.1 5.9c-3.7 5.4-9.2 8.3-16 8.3-5.2 0-9.6-1.9-13.3-5.6-3.6-3.7-5.5-8.4-5.5-13.9 0-5.6 1.8-10.2 5.5-13.9 3.7-3.7 8.1-5.6 13.3-5.6 6.2 0 11.3 2.5 15.4 7.7l-6.2 5.9c-2.7-3.2-5.9-5.1-8.9-5.1-2.8 0-5 1-6.8 3.1-1.8 2-2.7 4.7-2.7 7.9s.9 5.8 2.7 7.9c1.8 2.1 4 3.1 6.8 3.1 1.9 0 3.6-.4 4.9-1.3 1.3-.9 3-2.5 4.7-4.4zm-60.7 14.1c-15.1 0-27.3-12.2-27.3-27.3 0-15.1 12.2-27.3 27.3-27.3s27.3 12.2 27.3 27.3c0 15.1-12.3 27.3-27.3 27.3zm0-45c-9.7 0-17.7 7.9-17.7 17.7 0 9.7 7.9 17.7 17.7 17.7 9.7 0 17.7-7.9 17.7-17.7-.1-9.7-8-17.7-17.7-17.7zm-43.5-8.7h9.4v53h-9.4v-53zm-16.7 49.8c-3 2.5-6.4 3.9-10 3.9-3.6 0-6.6-1-9.1-3.1-2.4-2.1-3.6-5-3.6-8.5 0-4 1.4-7.1 4.3-9.3 2.8-2.2 6.6-3.3 11.3-3.3 2.3 0 4.6.4 6.9 1.1v-1.8c0-1.7-.6-3-1.8-4-1.3-1-2.9-1.6-4.8-1.6-3.6 0-6.4 1.4-8.9 5.3l-6-5.8-.1-.1c1.5-2.7 3.9-4.7 6.4-6 2.6-1.3 5.6-2 8.7-2 4.9 0 8.8 1.2 11.7 3.7 2.9 2.4 4.3 6 4.3 10.5v24h-9.2v-3zm-.1-10.9c-2.5-.9-4.9-1.4-7.1-1.4-1.9 0-3.4.4-4.5 1.1-1 .7-1.5 1.7-1.5 3 0 1.1.4 2 1.3 2.7.9.7 2.1 1.1 3.8 1.1 3.3 0 6.1-1 8.1-2.9v-3.6zm-32.2 14.1c-4.8 0-8.2-1-10.1-3-1.9-2-2.9-5.5-2.9-10.3v-15.5H652V315h5.4v-10.1h9.2V315h8.7v8.6h-8.7v14.2c0 2.5.4 4.1 1.1 4.9.7.8 2.2 1.2 4.4 1.2l3.2-.2v8.5h-.4c-1.5.1-3 .2-4.6.2zm-28.9-42.2c-1.6 0-3-.6-4.1-1.7-1.1-1.1-1.7-2.5-1.7-4.1 0-1.6.6-3 1.7-4 1.1-1.1 2.5-1.7 4.1-1.7 1.6 0 3 .6 4.1 1.7 1.1 1.1 1.7 2.4 1.7 4s-.6 3-1.7 4.1c-1.1 1.2-2.5 1.7-4.1 1.7zm-31.2 57.3c-4.1 0-7.6-.9-10.4-2.7-2.8-1.8-4.9-3.7-6.3-5.6l-.2-.2 6.4-6.1c3.3 4.5 6 6.2 10.4 6.2 2.8 0 5.1-.8 6.7-2.5 1.6-1.7 2.5-4.1 2.5-7.2v-.9c-2.5 2-5.6 3-9.3 3-5.2 0-9.5-1.8-12.9-5.3-3.3-3.6-5-8.1-5-13.4 0-5.4 1.7-9.9 5.1-13.4 3.3-3.5 7.6-5.3 12.8-5.3 3.4 0 6.6 1.5 9.4 4V315h9.2v33.9c0 5.6-1.7 10.1-5 13.5-3.3 3.4-7.9 5.1-13.4 5.1zm6.7-42c-1.6-1.9-3.7-2.8-6.4-2.8s-4.8.9-6.4 2.8c-1.6 1.9-2.4 4.3-2.4 7.4 0 3 .8 5.4 2.4 7.3 1.6 1.9 3.7 2.8 6.4 2.8s4.8-.9 6.4-2.8c1.6-1.9 2.5-4.3 2.5-7.3 0-3.1-.9-5.5-2.5-7.4zm-36.2-15.3c-1.6 0-3-.6-4.1-1.7-1.1-1.1-1.7-2.5-1.7-4.1 0-1.6.6-3 1.7-4 1.1-1.1 2.5-1.7 4.1-1.7 1.6 0 3 .6 4.1 1.7 1.1 1.1 1.7 2.4 1.7 4s-.6 3-1.7 4.1c-1.1 1.2-2.5 1.7-4.1 1.7zM560 346.5c-5.3 3.9-11.9 5.8-19.5 5.8h-16.7v-53h16.7c7.7 0 14.2 1.9 19.5 5.5 2.9 1.9 5.2 4.7 6.7 8.3 1.6 3.5 2.4 7.7 2.4 12.4s-.8 8.9-2.4 12.5c-1.6 3.6-3.9 6.5-6.7 8.5zm-7-34.8c-3.6-2.3-8.4-3.4-14.3-3.4h-5.2v35.1h5.3c5.9 0 10.7-1.2 14.2-3.5 4-2.6 6.1-7.5 6.1-14.4 0-6.7-2.1-11.3-6.1-13.8zm-111 58.6v-17.8h-17.7v13.7h-13.7v-13.7h-11.4v-11.4h11.4v11.5h13.7v-17.8h17.8v17.7c18.9 0 33.5-18.7 26.3-38.6-2.7-7.4-8.6-13.2-15.9-15.9-19.9-7.2-38.6 7.4-38.6 26.3H396c0-30.2 29.1-53.6 60.7-43.8 13.8 4.3 24.8 15.3 29.1 29.1 9.9 31.6-13.6 60.7-43.8 60.7zm143.3-18h-9.4V315h9.4v37.3zm60.7 0h-9.4V315h9.4v37.3z" fill="#0080ff"/><path d="M2568.2 273.1c32.3 0 58.5 26.2 58.5 58.5s-26.2 58.5-58.5 58.5-58.5-26.2-58.5-58.5 26.2-58.5 58.5-58.5z" fill="#fdfdfd"/><path d="M2648 324l12.9 12.9 12.9-12.9" fill="none" stroke-linecap="round" stroke-linejoin="round" stroke="#aab7c4" stroke-width="6"/><path d="M0 187.5h3072v4.5H0v-4.5z" fill="#fdfdfd"/><path d="M0 0h3072v187.5H0V0z" fill="#f9f9f9"/><path d="M555 73.5h1962c8.3 0 15 6.7 15 15v57c0 8.3-6.7 15-15 15H555c-8.3 0-15-6.7-15-15v-57c0-8.3 6.7-15 15-15z" fill="#fdfdfd"/><path d="M1297.5 103.5h477c3.3 0 6 2.7 6 6v15c0 3.3-2.7 6-6 6h-477c-3.3 0-6-2.7-6-6v-15c0-3.3 2.7-6 6-6zm-63 8.3c-1.8 1-3 3-3 5.2v12c0 3.3 2.7 6 6 6h18c3.3 0 6-2.7 6-6v-12c0-2.2-1.2-4.2-3-5.2V108c0-6.6-5.4-12-12-12s-12 5.4-12 12v3.8zm18-3.8c0-3.3-2.7-6-6-6s-6 2.7-6 6v6h12v-6z" fill="#dbdbdb"/><path d="M114.3 140.1l-21.6-21.6 21.6-21.6m138.9 0l21.6 21.6-21.6 21.6m138-38.1s1.2-9.6 14.4-9.6c13.2 0 14.4 9.6 14.4 9.6v45.6s-1.2-9.6-12-9.6c-12 0-16.8 7.2-16.8 7.2V102zm28.8 0s1.2-9.6 14.4-9.6c13.2 0 14.4 9.6 14.4 9.6v45.6s-1.2-9.6-12-9.6c-12 0-16.8 7.2-16.8 7.2m2248.8-44.5c2.7 0 4.8 2.1 4.8 4.8v33.6c0 2.7-2.1 4.8-4.8 4.8h-33.6c-2.7 0-4.8-2.1-4.8-4.8v-33.6c0-2.7 2.1-4.8 4.8-4.8m16.8 20.4V83.8m-9.6 8.4l9.6-9.6 9.6 9.6m150.9.8v48m-24-24h48m116.5-15.8h31.2c3.3 0 6 2.7 6 6v31.2c0 3.3-2.7 6-6 6H2953c-3.3 0-6-2.7-6-6v-31.2c0-3.3 2.7-6 6-6z" fill="none" stroke="#aab7c4" stroke-width="4.5" stroke-linecap="round" stroke-linejoin="round"/><path d="M2960.2 92.8c0-2.7 2.1-4.8 4.8-4.8h33.6c2.7 0 4.8 2.1 4.8 4.8v33.6c0 2.7-2.1 4.8-4.8 4.8" fill="none" stroke="#aab7c4" stroke-width="4.5" stroke-linecap="round" stroke-linejoin="round"/><linearGradient id="a" gradientUnits="userSpaceOnUse" x1="1025.666" y1="1736.809" x2="1026.666" y2="1736.809" gradientTransform="matrix(3072 0 0 -2304 -3150846 4002761)"><stop offset="0" stop-color="#000000"/><stop offset=".72" stop-color="#000000" stop-opacity="0"/></linearGradient><path d="M0 0h3072v2304H0V0z" opacity=".102" fill="url(#a)"/></svg>