<svg xmlns="http://www.w3.org/2000/svg" viewBox="0 0 468 49.8"><path d="M425.7,15.7V41.3a11.1211,11.1211,0,0,0,10.9,11.2,10.5115,10.5115,0,0,0,10.2-7.3l1.1,2a11.0574,11.0574,0,0,0,9.4,5.3A10.5862,10.5862,0,0,0,468,41.8a11.0431,11.0431,0,0,0-1.6-5.8l-4.3-6.8a13.1132,13.1132,0,0,0,5-10.7c0-8.4-6.7-14.9-15.3-14.9H437.6c-7.7-.1-11.9,4.1-11.9,12.1M422.4,43a8.8238,8.8238,0,0,0-7.1-9,6.7563,6.7563,0,0,0,3-6,6.7563,6.7563,0,0,0-3-6,8.7333,8.7333,0,0,0,7.1-9,9.3045,9.3045,0,0,0-9.3-9.4h-17c-7.8,0-12,4.2-12,12.1V40.2c0,8,4.2,12.1,12,12.1h17a9.0968,9.0968,0,0,0,9.3-9.3M371,41.4V24.5A10.3857,10.3857,0,0,0,380.9,14,10.4353,10.4353,0,0,0,370.4,3.5H348.3a10.5088,10.5088,0,0,0-.6,21V41.3a11.2759,11.2759,0,0,0,11.5,11c6.7.1,11.8-4.9,11.8-10.9M294.6,15.7V41.3a11.1211,11.1211,0,0,0,10.9,11.2,10.5115,10.5115,0,0,0,10.2-7.3l1.1,2a11.0574,11.0574,0,0,0,9.4,5.3,10.5862,10.5862,0,0,0,10.7-10.7,11.0431,11.0431,0,0,0-1.6-5.8L331,29.2a13.1132,13.1132,0,0,0,5-10.7c0-8.4-6.7-14.9-15.3-14.9H306.5c-7.6-.1-11.9,4.1-11.9,12.1M267.7,43.1c2.8,5.7,6.7,8.5,11.5,8.5,8.7,0,14.8-7.8,11-16.7l-10-23.3c-2.5-5.7-6.1-8.9-12.4-8.9-6.2,0-9.9,3.2-12.4,8.9l-10,23.3c-3.8,8.8,2.4,16.7,10.9,16.7,4.7,0,8.6-2.8,11.4-8.5m-28.6-1.7V24.5A10.3857,10.3857,0,0,0,249,14,10.4353,10.4353,0,0,0,238.5,3.5H216.4a10.5088,10.5088,0,0,0-.6,21V41.3a11.2759,11.2759,0,0,0,11.5,11c6.7.1,11.8-4.9,11.8-10.9m-33.2-4.9c0-4.9-2.4-8.3-6.1-11.6l-3-2.7c4.4-.7,7.3-3.6,7.3-7.9,0-7.3-5.8-11.6-18-11.6-12,0-19,6-19,15.6,0,4.9,2.5,8.2,6.2,11.6l2.9,2.7h-.1c-5.5,0-9.3,3.2-9.3,8.2,0,7.2,6,11.6,18.9,11.6,12.7,0,20.2-6.1,20.2-15.9m-41.5,4.1a10.6669,10.6669,0,0,0-2.1-6.4L157,27l5.3-7.2a10.6522,10.6522,0,0,0-8.8-17,11.1809,11.1809,0,0,0-9,4.6L142,11a10.4861,10.4861,0,0,0-10.5-8.3,10.7988,10.7988,0,0,0-10.9,10.9V40.7a10.8616,10.8616,0,0,0,10.9,10.9c5.3,0,9.4-3.2,10.4-7.9l2.3,3.2a11.1207,11.1207,0,0,0,20.2-6.3m-48-2.5c0-5.2-2.6-8.8-7.8-11,5.2-2.2,7.8-5.7,7.8-11,0-7.8-6.6-13.4-17.1-13.4-14.1,0-24.4,10.4-24.4,24.4S85.3,51.5,99.3,51.5c10.5.1,17.1-5.5,17.1-13.4M59,2.7A11.8009,11.8009,0,0,0,47.2,14.4V39.9a11.8,11.8,0,0,0,23.6,0V14.4A11.7362,11.7362,0,0,0,59,2.7M44,40.6a11.2736,11.2736,0,0,0-2-6.4L36.7,27l5.2-7.2a10.5688,10.5688,0,0,0,2-6.4A10.7351,10.7351,0,0,0,33,2.8a11.3229,11.3229,0,0,0-9,4.6L21.4,11A10.4861,10.4861,0,0,0,10.9,2.7,10.8616,10.8616,0,0,0,0,13.6V40.7A10.8616,10.8616,0,0,0,10.9,51.6a10.3,10.3,0,0,0,10.4-7.9l2.3,3.2a11.06,11.06,0,0,0,9.1,4.7A11.2283,11.2283,0,0,0,44,40.6" transform="translate(0 -2.7)" style="fill:#9ba9bb"/></svg>