<?xml version="1.0" standalone="no"?>
<!DOCTYPE svg PUBLIC "-//W3C//DTD SVG 20010904//EN"
 "http://www.w3.org/TR/2001/REC-SVG-20010904/DTD/svg10.dtd">
<svg version="1.0" xmlns="http://www.w3.org/2000/svg"
 width="700.000000pt" height="700.000000pt" viewBox="0 0 700.000000 700.000000"
 preserveAspectRatio="xMidYMid meet">
<metadata>
Created by potrace 1.11, written by Peter Selinger 2001-2013
</metadata>
<g transform="translate(0.000000,700.000000) scale(0.100000,-0.100000)"
fill="#000000" stroke="none">
<path d="M25 6968 c-3 -7 -4 -1561 -3 -3453 l3 -3440 3450 0 3450 0 0 3450 0
3450 -3448 3 c-2753 2 -3449 0 -3452 -10z m3729 -1608 c49 -6 109 -16 133 -22
l43 -10 0 -224 c0 -123 -3 -224 -6 -224 -3 0 -52 9 -107 21 -229 47 -410 1
-498 -127 -65 -96 -73 -133 -77 -401 l-4 -243 296 0 296 0 0 -220 0 -220 -295
0 -295 0 0 -1015 0 -1015 -270 0 -270 0 -2 1013 -3 1012 -222 3 -223 2 0 220
0 220 224 0 224 0 5 293 c4 326 8 349 77 492 153 318 540 494 974 445z m966
-2465 l0 -1235 -270 0 -270 0 0 1235 0 1235 270 0 270 0 0 -1235z"/>
</g>
</svg>
