<?xml version="1.0" encoding="iso-8859-1"?>
<!-- Generator: Adobe Illustrator 19.0.0, SVG Export Plug-In . SVG Version: 6.00 Build 0)  -->
<svg version="1.1" id="Capa_1" xmlns="http://www.w3.org/2000/svg" xmlns:xlink="http://www.w3.org/1999/xlink" x="0px" y="0px"
	 viewBox="0 0 512 512" style="enable-background:new 0 0 512 512;" xml:space="preserve">
<path style="fill:#E3E3E3;" d="M275.923,481.213H10.561C4.728,481.213,0,476.485,0,470.652V41.348
	c0-5.833,4.728-10.561,10.561-10.561h265.361c5.833,0,10.561,4.728,10.561,10.561v429.304
	C286.484,476.485,281.756,481.213,275.923,481.213z"/>
<path style="opacity:0.1;enable-background:new    ;" d="M275.923,30.787h-12.921V447.17c0,5.833-4.728,10.561-10.561,10.561H0
	v12.921c0,5.833,4.728,10.561,10.561,10.561h265.361c5.833,0,10.561-4.728,10.561-10.561V41.348
	C286.484,35.516,281.756,30.787,275.923,30.787z"/>
<path style="fill:#AEAEAE;" d="M506.719,421.373H220.319c-5.833,0-10.561-4.728-10.561-10.561V247.074H512v169.02
	C512,419.01,509.636,421.373,506.719,421.373z"/>
<path style="fill:#97D4AC;" d="M497.99,191.177h-167.27c-5.833,0-10.561-4.728-10.561-10.561V93.094
	c0-5.833,4.728-10.561,10.561-10.561h167.27c5.833,0,10.561,4.728,10.561,10.561v87.521
	C508.552,186.448,503.823,191.177,497.99,191.177z"/>
<rect x="36.781" y="68.734" style="fill:#F23466;" width="106.459" height="51.107"/>
<rect x="385.418" y="122.967" style="fill:#FFF3DC;" width="57.868" height="27.78"/>
<rect x="243.758" y="356.871" style="fill:#F23466;" width="53.23" height="25.559"/>
<g style="opacity:0.1;">
	<path d="M193.536,168.591H36.781c-4.376,0-7.921-3.545-7.921-7.921c0-4.376,3.545-7.921,7.921-7.921h156.755
		c4.376,0,7.921,3.545,7.921,7.921C201.457,165.046,197.912,168.591,193.536,168.591z"/>
</g>
<g style="opacity:0.1;">
	<path d="M193.536,199.098H36.781c-4.376,0-7.921-3.545-7.921-7.921c0-4.376,3.545-7.921,7.921-7.921h156.755
		c4.376,0,7.921,3.545,7.921,7.921C201.457,195.552,197.912,199.098,193.536,199.098z"/>
</g>
<g style="opacity:0.1;">
	<path d="M476.506,367.6H335.258c-4.376,0-7.921-3.545-7.921-7.921s3.545-7.921,7.921-7.921h141.249
		c4.376,0,7.921,3.545,7.921,7.921S480.881,367.6,476.506,367.6z"/>
</g>
<g style="opacity:0.1;">
	<path d="M476.506,389.755H335.258c-4.376,0-7.921-3.545-7.921-7.921s3.545-7.921,7.921-7.921h141.249
		c4.376,0,7.921,3.545,7.921,7.921S480.881,389.755,476.506,389.755z"/>
</g>
<polygon style="fill:#717171;" points="512,247.074 512,247.074 209.757,247.263 360.92,312.764 "/>
<path style="opacity:0.1;enable-background:new    ;" d="M497.99,82.532h-3.168v84.353c0,5.833-4.728,10.561-10.561,10.561H320.159
	v3.168c0,5.833,4.728,10.561,10.561,10.561h167.27c5.833,0,10.561-4.728,10.561-10.561V93.094
	C508.552,87.261,503.823,82.532,497.99,82.532z"/>
<path style="opacity:0.1;enable-background:new    ;" d="M492.461,247.074v154.762H209.757v19.539h296.962
	c2.916,0,5.281-2.365,5.281-5.281v-169.02H492.461z"/>
<g>
</g>
<g>
</g>
<g>
</g>
<g>
</g>
<g>
</g>
<g>
</g>
<g>
</g>
<g>
</g>
<g>
</g>
<g>
</g>
<g>
</g>
<g>
</g>
<g>
</g>
<g>
</g>
<g>
</g>
</svg>
