<?xml version="1.0"?>
<svg xmlns="http://www.w3.org/2000/svg" width="512" height="512" viewBox="0 0 512 512"><g><path d="M480,248H384V16a8,8,0,0,0-8-8H40a8,8,0,0,0-8,8V464a40.04,40.04,0,0,0,40,40H448a40.04,40.04,0,0,0,40-40V256A8,8,0,0,0,480,248ZM72,488a24.032,24.032,0,0,1-24-24V24H368V464a39.808,39.808,0,0,0,8.02,24Zm400-24a24.032,24.032,0,0,1-24,24H408a24.032,24.032,0,0,1-24-24V264h88Z"/><path d="M96,104a8,8,0,0,0,8-8V74.422l17.344,26.016A8,8,0,0,0,136,96V48a8,8,0,0,0-16,0V69.578L102.656,43.562A8,8,0,0,0,88,48V96A8,8,0,0,0,96,104Z"/><path d="M152,104h32a8,8,0,0,0,0-16H160V80h8a8,8,0,0,0,0-16h-8V56h24a8,8,0,0,0,0-16H152a8,8,0,0,0-8,8V96A8,8,0,0,0,152,104Z"/><path d="M312,56a8,8,0,0,0,0-16H280a8,8,0,0,0-8,8V72a8,8,0,0,0,8,8h24v8H280a8,8,0,0,0,0,16h32a8,8,0,0,0,8-8V72a8,8,0,0,0-8-8H288V56Z"/><path d="M208,104h48a8,8,0,0,0,8-8V48a8,8,0,0,0-16,0V88h-8V80a8,8,0,0,0-16,0v8h-8V48a8,8,0,0,0-16,0V96A8,8,0,0,0,208,104Z"/><path d="M312,120H96a8,8,0,0,0-8,8V232a8,8,0,0,0,8,8H312a8,8,0,0,0,8-8V128A8,8,0,0,0,312,120Zm-8,104H104V136H304Z"/><path d="M312,248H96a8,8,0,0,0,0,16H312a8,8,0,0,0,0-16Z"/><path d="M312,272H96a8,8,0,0,0,0,16H312a8,8,0,0,0,0-16Z"/><path d="M312,296H96a8,8,0,0,0,0,16H312a8,8,0,0,0,0-16Z"/><path d="M312,320H96a8,8,0,0,0,0,16H312a8,8,0,0,0,0-16Z"/><path d="M312,344H96a8,8,0,0,0,0,16H312a8,8,0,0,0,0-16Z"/><path d="M216,368H96a8,8,0,0,0,0,16H216a8,8,0,0,0,0-16Z"/><path d="M248,368h-8a8,8,0,0,0,0,16h8a8,8,0,0,0,0-16Z"/><path d="M160,392H96a8,8,0,0,0-8,8v64a8,8,0,0,0,8,8h64a8,8,0,0,0,8-8V400A8,8,0,0,0,160,392Zm-8,64H104V408h48Z"/></g></svg>
