<?xml version="1.0" encoding="iso-8859-1"?>
<!-- Generator: Adobe Illustrator 16.0.0, SVG Export Plug-In . SVG Version: 6.00 Build 0)  -->
<!DOCTYPE svg PUBLIC "-//W3C//DTD SVG 1.1//EN" "http://www.w3.org/Graphics/SVG/1.1/DTD/svg11.dtd">
<svg version="1.1" id="Capa_1" xmlns="http://www.w3.org/2000/svg" xmlns:xlink="http://www.w3.org/1999/xlink" x="0px" y="0px"
	 width="342.508px" height="342.508px" viewBox="0 0 342.508 342.508" style="enable-background:new 0 0 342.508 342.508;"
	 xml:space="preserve">
<g>
	<path d="M171.254,0C76.837,0,0.003,76.819,0.003,171.248c0,94.428,76.829,171.26,171.251,171.26
		c94.438,0,171.251-76.826,171.251-171.26C342.505,76.819,265.697,0,171.254,0z M245.371,136.161l-89.69,89.69
		c-2.693,2.69-6.242,4.048-9.758,4.048c-3.543,0-7.059-1.357-9.761-4.048l-39.007-39.007c-5.393-5.398-5.393-14.129,0-19.521
		c5.392-5.392,14.123-5.392,19.516,0l29.252,29.262l79.944-79.948c5.381-5.386,14.111-5.386,19.504,0
		C250.764,122.038,250.764,130.769,245.371,136.161z"/>
</g>
<g>
</g>
<g>
</g>
<g>
</g>
<g>
</g>
<g>
</g>
<g>
</g>
<g>
</g>
<g>
</g>
<g>
</g>
<g>
</g>
<g>
</g>
<g>
</g>
<g>
</g>
<g>
</g>
<g>
</g>
</svg>
