<svg height="479pt" viewBox="-15 0 479 479.99829" width="479pt" xmlns="http://www.w3.org/2000/svg"><path d="m120.5 312h-16v-88h-16v96c0 4.417969 3.582031 8 8 8h4.6875l-28.6875 28.6875-28.6875-28.6875h4.6875c4.417969 0 8-3.582031 8-8v-96h-16v88h-16c-3.234375 0-6.152344 1.949219-7.390625 4.9375s-.554687 6.429688 1.734375 8.71875l48 48c3.125 3.121094 8.1875 3.121094 11.3125 0l48-48c2.285156-2.289062 2.96875-5.730469 1.730469-8.71875-1.234375-2.988281-4.152344-4.9375-7.386719-4.9375zm0 0"/><path d="m272.5 416h-16v-72h-16v80c0 4.417969 3.582031 8 8 8h4.6875l-28.6875 28.6875-28.6875-28.6875h4.6875c4.417969 0 8-3.582031 8-8v-80h-16v72h-16c-3.234375 0-6.152344 1.949219-7.390625 4.9375s-.554687 6.429688 1.734375 8.71875l48 48c3.125 3.121094 8.1875 3.121094 11.3125 0l48-48c2.285156-2.289062 2.96875-5.730469 1.730469-8.71875-1.234375-2.988281-4.152344-4.9375-7.386719-4.9375zm0 0"/><path d="m424.5 368h-16v-88h-16v96c0 4.417969 3.582031 8 8 8h4.6875l-28.6875 28.6875-28.6875-28.6875h4.6875c4.417969 0 8-3.582031 8-8v-96h-16v88h-16c-3.234375 0-6.152344 1.949219-7.390625 4.9375s-.554687 6.429688 1.734375 8.71875l48 48c3.125 3.121094 8.1875 3.121094 11.3125 0l48-48c2.285156-2.289062 2.96875-5.730469 1.730469-8.71875-1.234375-2.988281-4.152344-4.9375-7.386719-4.9375zm0 0"/><path d="m192.5 296h16v32h-16zm0 0"/><path d="m192.5 264h16v16h-16zm0 0"/><path d="m240.5 280h16v32h-16zm0 0"/><path d="m344.5 232h16v32h-16zm0 0"/><path d="m344.5 200h16v16h-16zm0 0"/><path d="m392.5 232h16v16h-16zm0 0"/><path d="m392.5 184h16v16h-16zm0 0"/><path d="m40.5 192h16v16h-16zm0 0"/><path d="m40.5 160h16v16h-16zm0 0"/><path d="m72.5 48c4.417969 0 8 3.582031 8 8h16c-.042969-10.132812-6.445312-19.148438-16-22.527344v-9.472656h-16v9.472656c-11.011719 3.878906-17.621094 15.132813-15.644531 26.640625 1.980469 11.507813 11.96875 19.910157 23.644531 19.886719 4.417969 0 8 3.582031 8 8s-3.582031 8-8 8-8-3.582031-8-8h-16c.042969 10.132812 6.445312 19.148438 16 22.527344v9.472656h16v-9.472656c11.011719-3.878906 17.621094-15.132813 15.640625-26.640625-1.976563-11.507813-11.964844-19.910157-23.640625-19.886719-4.417969 0-8-3.582031-8-8s3.582031-8 8-8zm0 0"/><path d="m72.5 0c-39.765625 0-72 32.234375-72 72s32.234375 72 72 72c39.761719 0 72-32.234375 72-72-.046875-39.746094-32.253906-71.9570312-72-72zm0 128c-30.929688 0-56-25.070312-56-56s25.070312-56 56-56c30.925781 0 56 25.070312 56 56-.035156 30.914062-25.085938 55.964844-56 56zm0 0"/><path d="m24.5 64h16v16h-16zm0 0"/><path d="m104.5 64h16v16h-16zm0 0"/><path d="m376.5 120c-4.417969 0-8-3.582031-8-8h-16c.042969 10.132812 6.445312 19.148438 16 22.527344v9.472656h16v-9.472656c11.011719-3.878906 17.621094-15.132813 15.640625-26.640625-1.976563-11.507813-11.964844-19.910157-23.640625-19.886719-4.417969 0-8-3.582031-8-8s3.582031-8 8-8 8 3.582031 8 8h16c-.042969-10.132812-6.445312-19.148438-16-22.527344v-9.472656h-16v9.472656c-11.011719 3.878906-17.621094 15.132813-15.644531 26.640625 1.980469 11.507813 11.96875 19.910157 23.644531 19.886719 4.417969 0 8 3.582031 8 8s-3.582031 8-8 8zm0 0"/><path d="m376.5 168c39.761719 0 72-32.234375 72-72s-32.238281-72-72-72c-39.765625 0-72 32.234375-72 72 .042969 39.746094 32.253906 71.957031 72 72zm0-128c30.925781 0 56 25.070312 56 56s-25.074219 56-56 56c-30.929688 0-56-25.070312-56-56 .035156-30.914062 25.085938-55.964844 56-56zm0 0"/><path d="m328.5 88h16v16h-16zm0 0"/><path d="m408.5 88h16v16h-16zm0 0"/><path d="m224.5 128c4.417969 0 8 3.582031 8 8h16c-.042969-10.132812-6.445312-19.148438-16-22.527344v-9.472656h-16v9.472656c-11.011719 3.878906-17.621094 15.132813-15.644531 26.640625 1.980469 11.507813 11.96875 19.910157 23.644531 19.886719 4.417969 0 8 3.582031 8 8s-3.582031 8-8 8-8-3.582031-8-8h-16c.042969 10.132812 6.445312 19.148438 16 22.527344v9.472656h16v-9.472656c11.011719-3.878906 17.621094-15.132813 15.640625-26.640625-1.976563-11.507813-11.964844-19.910157-23.640625-19.886719-4.417969 0-8-3.582031-8-8s3.582031-8 8-8zm0 0"/><path d="m224.5 80c-39.765625 0-72 32.234375-72 72s32.234375 72 72 72c39.761719 0 72-32.234375 72-72-.046875-39.746094-32.253906-71.957031-72-72zm0 128c-30.929688 0-56-25.070312-56-56s25.070312-56 56-56c30.925781 0 56 25.070312 56 56-.035156 30.914062-25.085938 55.964844-56 56zm0 0"/><path d="m176.5 144h16v16h-16zm0 0"/><path d="m256.5 144h16v16h-16zm0 0"/><path d="m240.5 248h16v16h-16zm0 0"/><path d="m88.5 176h16v32h-16zm0 0"/></svg>