<svg height="512" viewBox="0 0 60 60" width="512" xmlns="http://www.w3.org/2000/svg"><g id="Page-1" fill="none" fill-rule="evenodd"><g id="054---global-alert" fill="rgb(0,0,0)" fill-rule="nonzero" transform="translate(-1)"><path id="Shape" d="m45 0c-7.8575982.01406528-14.5439127 5.72770167-15.783 13.487-9.329434-1.9137937-18.8914782 1.9924035-24.21243089 9.8910368-5.32095273 7.8986332-5.34858562 18.227733-.06997034 26.1547227 5.27861523 7.9269897 14.81962263 11.8842923 24.15916273 10.0204427 9.3395402-1.8638496 16.6307015-9.1802717 18.4622385-18.5262022.066-.293.12-.587.162-.871.1889949-1.2094715.2832814-2.4318518.282-3.656.0051588-.57972-.0218828-1.1592791-.081-1.736-.01-.3-.033-.594-.065-.878-.085-.736-.207-1.431-.344-2.1 8.2518837-1.2971762 14.1148517-8.7274682 13.457282-17.0547639-.6575698-8.32729569-7.6140758-14.74529048-15.967282-14.7312361zm-20.5 15c1.5218358.0032054 3.039022.1681315 4.526.492-.006.17-.026.336-.026.508-.010874 3.2420017.9734369 6.409249 2.82 9.074l-1.063 2.926h-4.257c-1.3807119 0-2.5 1.1192881-2.5 2.5 0 .2761424-.2238576.5-.5.5h-3c-1.3807119 0-2.5 1.1192881-2.5 2.5v1c0 1.3807119 1.1192881 2.5 2.5 2.5h3.5c.8081057-.0431461 1.5964941.2590442 2.1687249.8312751.5722309.5722308.8744212 1.3606192.8312751 2.1687249v5c0 .609-.62 1.135-1.142 1.469-1.1558218.7359925-1.8563498 2.0107423-1.858 3.381v1.15c.0006712.2696918-.1100548.5276905-.306.713-.1830903.1854514-.4334037.2889672-.694.287-.5522847 0-1-.4477153-1-1v-6c.0234737-.8026156-.2850527-1.5793921-.8528303-2.1471697s-1.3445541-.876304-2.1471697-.8528303c-1 0-1 0-1-2 0-1.915-1.873-2.249-3.526-2.543-1.3813537-.1543173-2.7157418-.5932114-3.919-1.289-.388-.259-.625-.519-.634-.694-.027-.56 1.3-1.647 2.182-2.367.552-.453 1.125-.92 1.6-1.4.6238988-.4880633.9261252-1.281552.785-2.061-.305-1.143-1.672-1.512-3.119-1.9-.6599072-.1537779-1.304538-.3669814-1.926-.637-.679-.339-1.424-1.691-2.03-3.643 4.0697597-5.3249716 10.3849018-8.4538996 17.087-8.466zm10.652 28.731c-1.452-.426-2.152-1.709-2.152-3.921 0-2.5 1.138-3.823 3.482-4.034.1291876-.0157137.2584715.0284859.351.12.1135598.1069181.1745893.2582126.167.414.0000001 1.3807118 1.1192882 2.4999999 2.5 2.4999999s2.4999999-1.1192881 2.5-2.4999999c0-.2761424.2238576-.5.5-.5h3.485c.008.219.015.441.015.69.0006125 1.1082248-.0843063 2.2148441-.254 3.31h-.256c-2.29727.0286104-4.2837094 1.6089571-4.828 3.841-.4037162 1.6924581-1.3361374 3.2122837-2.662 4.339v-.32c.0303497-1.7996444-1.1295072-3.4038144-2.848-3.939zm10.669-9.921h-3.321c-1.3807119 0-2.5 1.1192881-2.5 2.5 0 .2761424-.2238576.5-.5.5-.1372362-.002032-.2678104-.0595087-.361995-.1593443-.0941846-.0998357-.143964-.2335339-.138005-.3706557-.000353-.70794-.2974194-1.3833217-.819-1.862-.5106461-.4645757-1.1922969-.6944516-1.88-.634-3.369.3-5.3 2.5-5.3 6.026 0 4.163 2.248 5.445 3.6 5.842.8615484.2889232 1.4306634 1.1098482 1.399 2.018v.32c.0010984 1.1084665.8985364 2.0072459 2.007 2.01.461766-.0006111.908567-.1638244 1.262-.461 1.653823-1.3973793 2.8200888-3.2847686 3.33-5.389.294057-1.2866774 1.394498-2.2300285 2.711-2.324-2.0801459 8.1556939-8.7301754 14.3461586-17.0137096 15.8379399-8.2835342 1.4917814-16.6754-1.9897889-21.47009561-8.9073929-4.79469556-6.9176039-5.1094164-15.9975651-.80519479-23.230547.4203731 1.3877285 1.31703463 2.582569 2.532 3.374.73994538.3324858 1.5101595.5930191 2.3.778.5303538.1288153 1.0512438.2938696 1.559.494-.032.037-.071.079-.118.126-.409.409-.918.825-1.457 1.267-1.469 1.2-2.989 2.445-2.912 4.011.10636231.9571911.67448495 1.8017179 1.521 2.261 1.429715.8555477 3.0243283 1.3987863 4.679 1.594.683.122 1.715.3 1.876.574 0 1.875 0 4 2.988 4 .2731253-.028925.5448536.0659607.7406052.2586143.1957515.1926536.2949595.4628338.2703948.7363857v6c0 1.6568542 1.3431458 3 3 3 1.6534434-.0082058 2.9917942-1.3465566 3-3v-1.15c.0025653-.6897307.3565384-1.3305767.939-1.7 1.2027056-.6038349 1.9893508-1.8061311 2.061-3.15v-5c.0507877-1.3410078-.4596689-2.6425-1.4085844-3.5914156-.9489156-.9489155-2.2504078-1.4593721-3.5914156-1.4085844h-3.5c-.2761424 0-.5-.2238576-.5-.5v-1c0-.2761424.2238576-.5.5-.5h3c.6630412 0 1.298926-.2633921 1.767767-.732233.4688409-.468841.732233-1.1047258.732233-1.767767 0-.2761424.2238576-.5.5-.5h3.531l-.259.711c-.2250755.6123247-.1373594 1.2959409.235017 1.8316053s.9826066.8560459 1.634983.8583947c.2153096.0006347.4293388-.0331239.634-.1l7.024-2.347c1.8194848.6963103 3.7518345 1.0509134 5.7 1.046.17 0 .336-.02.505-.026.126.583.234 1.192.316 1.836zm-.821-3.81c-1.8138156.0051933-3.6109359-.3464837-5.289-1.035-.2230573-.0909775-.4712354-.0994865-.7-.024l-7.361 2.459 2.23-6.139c.1152071-.3161165.0637247-.6689779-.137-.939-1.7909984-2.4039759-2.7535362-5.3242235-2.743-8.322 0-7.7319865 6.2680135-14 14-14s14 6.2680135 14 14-6.2680135 14-14 14z"/><path id="Shape" d="m52 18.184v-5.184c-.0043585-2.7316501-1.5962403-5.21159735-4.078-6.353.2802069-1.20469622-.2076506-2.45787802-1.2286269-3.15603002-1.0209764-.69815201-2.3657698-.69815201-3.3867462 0-1.0209763.698152-1.5088338 1.9513338-1.2286269 3.15603002-2.4817597 1.14140265-4.0736415 3.6213499-4.078 6.353v5.184c-1.1943509.4222546-1.9947486 1.5492146-2 2.816v2c0 .5522847.4477153 1 1 1h4c0 2.209139 1.790861 4 4 4s4-1.790861 4-4h4c.5522847 0 1-.4477153 1-1v-2c-.0052514-1.2667854-.8056491-2.3937454-2-2.816zm-8-12.184c0-.55228475.4477153-1 1-1s1 .44771525 1 1c0 .028-.01.051-.012.078-.6545662-.10393871-1.3214338-.10393871-1.976 0-.002-.027-.012-.05-.012-.078zm-4 7c0-2.7614237 2.2385763-5 5-5s5 2.2385763 5 5v5h-10zm5 13c-1.1045695 0-2-.8954305-2-2h4c0 1.1045695-.8954305 2-2 2zm7-4h-14v-1c0-.5522847.4477153-1 1-1h12c.5522847 0 1 .4477153 1 1z"/></g></g></svg>