<svg id="Layer_5" enable-background="new 0 0 64 64" height="512" viewBox="0 0 64 64" width="512" xmlns="http://www.w3.org/2000/svg"><g><path d="m31 5h6v2h-6z"/><path d="m27 5h2v2h-2z"/><path d="m21.586 53h-.586c-1.103 0-2 .897-2 2v2c0 1.103.897 2 2 2h.586c.534 0 1.036-.208 1.414-.586l2.414-2.414-2.414-2.414c-.378-.378-.88-.586-1.414-.586zm0 4h-.586v-2h.586l1 1z"/><path d="m33 53h-2c-1.103 0-2 .897-2 2v2c0 1.103.897 2 2 2h2c1.103 0 2-.897 2-2v-2c0-1.103-.897-2-2-2zm-2 4v-2h2l.001 2z"/><path d="m43 53h-.586c-.534 0-1.036.208-1.414.586l-2.414 2.414 2.414 2.414c.378.378.88.586 1.414.586h.586c1.103 0 2-.897 2-2v-2c0-1.103-.897-2-2-2zm-.586 4-1-1 1-1h.586l.001 2z"/><path d="m61 23h-1.465l-.527-.791c-.659-.989-1.008-2.14-1.008-3.329v-3.88c0-4.072-3.06-7.436-7-7.931v-1.069c0-2.757-2.243-5-5-5h-28c-2.757 0-5 2.243-5 5v27h-7c-2.757 0-5 2.243-5 5s2.243 5 5 5h7v15c0 2.757 2.243 5 5 5h28c2.757 0 5-2.243 5-5v-25.101c1.956-.399 3.5-1.943 3.899-3.899h6.101c1.103 0 2-.897 2-2v-2c0-1.103-.897-2-2-2zm-5-8v3.88c0 1.462.412 2.873 1.164 4.12h-14.328c.752-1.246 1.164-2.658 1.164-4.12v-3.88c0-3.309 2.691-6 6-6s6 2.691 6 6zm-17 14h6v20h-26v-6h5.181l2.819-1.057v5.057h16v-16h-16v3.057l-2.819-1.057h-5.181v-22h24.082c-.684 1.178-1.082 2.542-1.082 4v3.88c0 1.188-.349 2.34-1.008 3.329l-.527.791h-1.465c-1.103 0-2 .897-2 2v2c0 1.103.897 2 2 2zm-16 6v2h-12v-2zm6 6.193 2.414-.905c.949-.355 1.586-1.275 1.586-2.288s-.637-1.933-1.585-2.288l-2.415-.905v-1.807h12v12h-12zm1.713-3.608c.172.065.287.231.287.415s-.115.35-.288.415l-5.712 2.142v-5.114zm-19.713 1.415h12v2h-12zm4-33c0-1.654 1.346-3 3-3h28c1.654 0 3 1.346 3 3v1.069c-1.627.205-3.101.899-4.274 1.931h-27.726v24h-2zm-12 32c0-1.654 1.346-3 3-3h3v6h-3c-1.654 0-3-1.346-3-3zm43 23h-28c-1.654 0-3-1.346-3-3v-15h2v8h30v-19.026c.584.442 1.257.773 2 .924v25.102c0 1.654-1.346 3-3 3zm4-30c-1.302 0-2.402-.839-2.816-2h5.631c-.413 1.161-1.513 2-2.815 2zm-11-4v-2h22l.001 2z"/><path d="m34 41.586-1.293-1.293-1.414 1.414 2.707 2.707 5.707-5.707-1.414-1.414z"/><path d="m21 13h2v2h-2z"/><path d="m25 13h10v2h-10z"/><path d="m21 17h14v2h-14z"/><path d="m33 21h2v2h-2z"/><path d="m21 21h10v2h-10z"/><path d="m21 25h14v2h-14z"/></g></svg>